<svg width="743" height="235" viewBox="0 0 743 235" fill="none" xmlns="http://www.w3.org/2000/svg">
<rect x="230.576" y="62.2686" width="301" height="32" transform="rotate(15.4587 230.576 62.2686)" fill="#B314BE"/>
<path d="M256.495 92.511C255.287 92.1769 254.358 91.6848 253.708 91.0346C253.061 90.3716 252.583 89.6238 252.274 88.7912L253.716 88.1526C254.062 88.9537 254.479 89.5949 254.969 90.0761C255.471 90.5608 256.127 90.9151 256.936 91.139C257.913 91.4091 258.721 91.3904 259.359 91.0827C259.998 90.7751 260.429 90.2165 260.653 89.4069C260.834 88.7515 260.788 88.1923 260.515 87.7295C260.245 87.2537 259.669 86.8108 258.786 86.4007L257.352 85.7343C256.729 85.4374 256.224 85.1111 255.838 84.7554C255.465 84.4032 255.188 84.0292 255.007 83.6333C254.83 83.2245 254.737 82.8114 254.728 82.3939C254.722 81.9635 254.778 81.5363 254.895 81.1122C255.236 79.8785 255.899 79.0588 256.883 78.653C257.866 78.2472 259.046 78.2344 260.421 78.6147C261.5 78.9132 262.357 79.3437 262.99 79.9061C263.635 80.472 264.093 81.1449 264.361 81.9247L262.952 82.5933C262.714 82.0019 262.375 81.4791 261.933 81.025C261.491 80.5708 260.853 80.2283 260.018 79.9973C259.105 79.7449 258.352 79.744 257.757 79.9945C257.162 80.245 256.758 80.7557 256.544 81.5268C256.377 82.1308 256.42 82.6753 256.674 83.1603C256.943 83.6361 257.53 84.089 258.435 84.519L259.812 85.1694C260.435 85.4663 260.94 85.7927 261.326 86.1484C261.711 86.5041 261.995 86.8799 262.176 87.2758C262.37 87.6752 262.469 88.0901 262.475 88.5205C262.48 88.9509 262.423 89.3845 262.302 89.8215C261.957 91.068 261.276 91.931 260.258 92.4103C259.253 92.8932 257.998 92.9268 256.495 92.511ZM267.851 95.6514C267.157 95.4595 266.561 95.1633 266.063 94.7627C265.578 94.3658 265.198 93.8873 264.924 93.3273C264.667 92.7581 264.522 92.1302 264.491 91.4436C264.463 90.7442 264.559 89.9961 264.779 89.1994C264.996 88.4154 265.296 87.7306 265.68 87.145C266.063 86.5593 266.509 86.0948 267.019 85.7517C267.546 85.3992 268.119 85.1773 268.739 85.086C269.372 84.9982 270.035 85.0502 270.729 85.2421C271.423 85.434 272.013 85.7285 272.498 86.1255C272.996 86.526 273.374 87.0109 273.631 87.5802C273.905 88.1401 274.056 88.7698 274.084 89.4692C274.112 90.1686 274.018 90.9103 273.801 91.6942C273.58 92.491 273.279 93.1822 272.895 93.7679C272.516 94.3407 272.063 94.8034 271.536 95.1558C271.026 95.499 270.455 95.7145 269.822 95.8023C269.202 95.8936 268.545 95.8433 267.851 95.6514ZM268.219 94.3213C269.08 94.5595 269.845 94.4944 270.514 94.126C271.183 93.7577 271.667 93.0338 271.965 91.9543L272.36 90.5279C272.658 89.4484 272.615 88.5788 272.23 87.919C271.846 87.2593 271.223 86.8103 270.362 86.5722C269.501 86.3341 268.736 86.3992 268.067 86.7675C267.397 87.1359 266.914 87.8598 266.615 88.9393L266.221 90.3657C265.922 91.4452 265.965 92.3148 266.35 92.9746C266.735 93.6343 267.358 94.0832 268.219 94.3213ZM274.49 97.2385L277.241 87.2919L278.667 87.6863L278.347 88.8429L278.425 88.8643C278.685 88.5214 278.994 88.2541 279.352 88.0624C279.709 87.8707 280.164 87.8513 280.717 88.0041C281.295 88.164 281.685 88.4309 281.886 88.8046C282.09 89.1655 282.161 89.5862 282.097 90.0666L282.155 90.0826C282.459 89.6826 282.819 89.381 283.235 89.1778C283.651 88.9746 284.154 88.9548 284.746 89.1183C285.555 89.3422 286.017 89.7741 286.13 90.4142C286.257 91.0579 286.174 91.9066 285.883 92.9603L283.974 99.8613L282.548 99.4668L284.387 92.8164C284.621 91.9683 284.693 91.3587 284.602 90.9877C284.527 90.6073 284.259 90.3532 283.796 90.2253C283.385 90.1115 283.013 90.1541 282.682 90.3529C282.354 90.5388 282.115 90.9016 281.966 91.4414L279.945 98.7472L278.519 98.3527L280.358 91.7023C280.593 90.8541 280.664 90.2445 280.573 89.8735C280.499 89.4932 280.236 89.2408 279.787 89.1164C279.375 89.0027 278.998 89.0435 278.653 89.2387C278.325 89.4246 278.086 89.7875 277.937 90.3272L275.917 97.633L274.49 97.2385ZM290.659 101.959C289.939 101.76 289.324 101.458 288.813 101.054C288.315 100.654 287.923 100.172 287.636 99.6083C287.366 99.0355 287.208 98.404 287.164 97.7139C287.123 97.0109 287.211 96.2675 287.428 95.4836C287.648 94.6868 287.957 93.9974 288.353 93.4152C288.762 92.8367 289.228 92.3776 289.751 92.038C290.277 91.6855 290.85 91.4636 291.47 91.3722C292.103 91.2844 292.76 91.3347 293.441 91.5231C294.11 91.7079 294.68 91.997 295.152 92.3904C295.637 92.7874 296.012 93.2577 296.277 93.8012C296.545 94.3319 296.7 94.9213 296.742 95.5693C296.784 96.2173 296.708 96.8947 296.512 97.6015L296.31 98.334L288.946 96.2976L288.818 96.7603C288.697 97.1972 288.656 97.6215 288.694 98.0333C288.733 98.4451 288.843 98.8214 289.025 99.1624C289.221 99.5069 289.483 99.8078 289.813 100.065C290.16 100.313 290.564 100.501 291.027 100.629C291.695 100.814 292.316 100.819 292.89 100.646C293.463 100.473 293.953 100.152 294.36 99.683L295.284 100.769C294.803 101.355 294.156 101.771 293.341 102.016C292.543 102.252 291.649 102.233 290.659 101.959ZM293.089 92.7953C292.665 92.678 292.252 92.6468 291.85 92.7015C291.447 92.7562 291.074 92.8811 290.729 93.0764C290.398 93.2752 290.103 93.5396 289.846 93.8696C289.605 94.1903 289.424 94.5692 289.303 95.0061L289.266 95.141L294.972 96.719L295.03 96.5069C295.151 96.07 295.191 95.6521 295.149 95.2532C295.12 94.8578 295.019 94.4978 294.846 94.1733C294.689 93.8394 294.457 93.5539 294.149 93.3165C293.854 93.0828 293.501 92.909 293.089 92.7953ZM313.236 108.203C312.195 107.915 311.343 107.493 310.681 106.936C310.035 106.37 309.531 105.718 309.167 104.982L310.459 104.364C310.796 104.996 311.21 105.526 311.7 105.952C312.191 106.378 312.835 106.701 313.632 106.922C314.403 107.135 315.07 107.174 315.633 107.039C316.212 106.895 316.584 106.528 316.747 105.936C316.818 105.679 316.825 105.453 316.769 105.258C316.729 105.053 316.639 104.876 316.5 104.727C316.362 104.578 316.197 104.449 316.005 104.341C315.818 104.22 315.613 104.108 315.393 104.006L313.895 103.343C313.563 103.195 313.203 103.02 312.817 102.816C312.443 102.616 312.116 102.373 311.835 102.088C311.558 101.79 311.35 101.442 311.211 101.044C311.085 100.649 311.096 100.182 311.246 99.6424C311.384 99.1412 311.6 98.7374 311.892 98.4309C312.201 98.1151 312.569 97.8848 312.996 97.7402C313.427 97.5827 313.903 97.5136 314.423 97.533C314.947 97.5395 315.498 97.6228 316.076 97.7827C316.976 98.0315 317.714 98.3878 318.291 98.8518C318.881 99.3193 319.345 99.8694 319.682 100.502L318.418 101.169C318.342 100.996 318.233 100.814 318.092 100.623C317.968 100.422 317.793 100.229 317.568 100.042C317.359 99.846 317.099 99.6632 316.786 99.4937C316.473 99.3242 316.098 99.179 315.661 99.0582C314.877 98.8414 314.236 98.8093 313.737 98.9619C313.251 99.1181 312.937 99.4532 312.795 99.9672C312.724 100.224 312.709 100.455 312.749 100.66C312.805 100.855 312.903 101.028 313.042 101.177C313.18 101.326 313.344 101.461 313.531 101.582C313.736 101.694 313.942 101.799 314.149 101.898L315.647 102.561C315.993 102.712 316.352 102.888 316.726 103.088C317.099 103.288 317.424 103.537 317.702 103.835C317.983 104.12 318.186 104.46 318.312 104.854C318.451 105.253 318.446 105.722 318.297 106.261C318.023 107.251 317.426 107.909 316.506 108.235C315.598 108.565 314.508 108.554 313.236 108.203ZM328.261 112.109C327.657 111.942 327.269 111.668 327.097 111.289C326.925 110.909 326.871 110.479 326.935 109.999L326.839 109.972C326.46 110.49 325.981 110.849 325.4 111.048C324.836 111.238 324.149 111.22 323.339 110.997C322.298 110.709 321.544 110.21 321.076 109.499C320.609 108.789 320.505 107.965 320.764 107.027C321.02 106.101 321.551 105.481 322.358 105.164C323.178 104.851 324.339 104.903 325.843 105.319L327.963 105.905L328.235 104.922C328.438 104.189 328.383 103.586 328.072 103.113C327.763 102.626 327.23 102.278 326.472 102.069C325.804 101.884 325.22 101.868 324.722 102.02C324.226 102.16 323.788 102.419 323.407 102.798L322.579 101.739C322.779 101.518 323.021 101.315 323.307 101.131C323.593 100.948 323.922 100.81 324.293 100.719C324.667 100.615 325.075 100.569 325.514 100.58C325.957 100.578 326.43 100.646 326.931 100.785C328.1 101.108 328.944 101.659 329.461 102.439C329.992 103.222 330.111 104.14 329.82 105.194L328.306 110.669L329.694 111.053L329.321 112.402L328.261 112.109ZM323.966 109.78C324.364 109.89 324.737 109.944 325.083 109.943C325.445 109.933 325.77 109.884 326.057 109.798C326.347 109.698 326.587 109.557 326.776 109.374C326.981 109.182 327.119 108.957 327.19 108.7L327.644 107.062L325.523 106.475C324.598 106.219 323.888 106.161 323.392 106.301C322.897 106.441 322.582 106.755 322.447 107.243L322.335 107.648C322.193 108.162 322.265 108.604 322.55 108.973C322.851 109.333 323.323 109.602 323.966 109.78ZM341.789 105.143L343.331 105.569L335.043 116.329C334.849 116.58 334.653 116.789 334.455 116.955C334.253 117.134 334.038 117.262 333.81 117.337C333.578 117.425 333.318 117.464 333.031 117.453C332.74 117.456 332.408 117.406 332.035 117.303L330.57 116.897L330.932 115.587L333.246 116.226L335.121 113.798L333.809 102.936L335.389 103.373L335.915 108L336.354 112.189L336.431 112.21L338.96 108.842L341.789 105.143ZM362.429 108.485C361.979 108.361 361.689 108.184 361.559 107.954C361.433 107.711 361.408 107.449 361.487 107.166L361.572 106.858C361.65 106.575 361.804 106.368 362.034 106.238C362.267 106.095 362.608 106.086 363.058 106.21C363.508 106.335 363.796 106.518 363.923 106.761C364.053 106.99 364.079 107.247 364.001 107.529L363.915 107.838C363.837 108.12 363.682 108.333 363.448 108.476C363.219 108.606 362.879 108.609 362.429 108.485ZM355.077 118.114L358.662 119.105L360.688 111.78L357.102 110.789L357.465 109.478L362.592 110.896L360.204 119.532L363.558 120.459L363.196 121.77L354.714 119.424L355.077 118.114ZM370.253 123.722C369.495 123.512 368.995 123.145 368.752 122.622C368.522 122.102 368.5 121.508 368.685 120.839L370.444 114.478L367.128 113.561L367.491 112.25L369.958 112.933C370.292 113.025 370.541 113.025 370.705 112.932C370.886 112.83 371.022 112.611 371.115 112.277L371.834 109.675L373.319 110.085L372.348 113.594L376.878 114.846L376.516 116.157L371.986 114.905L369.96 122.23L374.49 123.482L374.128 124.793L370.253 123.722ZM382.824 117.591L384.301 112.251L385.766 112.656L384.289 117.996L382.824 117.591ZM392.458 130.111C391.417 129.823 390.565 129.401 389.903 128.844C389.257 128.279 388.752 127.627 388.389 126.89L389.681 126.272C390.017 126.905 390.431 127.434 390.922 127.861C391.413 128.287 392.057 128.61 392.853 128.83C393.624 129.044 394.292 129.083 394.854 128.948C395.434 128.804 395.805 128.436 395.969 127.845C396.04 127.588 396.047 127.362 395.99 127.166C395.95 126.962 395.861 126.785 395.722 126.636C395.584 126.487 395.419 126.358 395.227 126.25C395.039 126.129 394.835 126.017 394.614 125.914L393.117 125.251C392.784 125.104 392.425 124.928 392.038 124.725C391.665 124.524 391.338 124.282 391.057 123.997C390.78 123.699 390.571 123.351 390.433 122.953C390.307 122.558 390.318 122.091 390.467 121.551C390.606 121.05 390.821 120.646 391.114 120.34C391.422 120.024 391.79 119.793 392.218 119.649C392.649 119.491 393.124 119.422 393.645 119.442C394.168 119.448 394.72 119.531 395.298 119.691C396.197 119.94 396.936 120.296 397.513 120.76C398.103 121.228 398.567 121.778 398.903 122.411L397.64 123.078C397.563 122.905 397.455 122.723 397.314 122.531C397.189 122.331 397.015 122.137 396.79 121.951C396.581 121.755 396.32 121.572 396.007 121.402C395.695 121.233 395.32 121.088 394.883 120.967C394.099 120.75 393.458 120.718 392.959 120.871C392.473 121.027 392.159 121.362 392.017 121.876C391.946 122.133 391.93 122.364 391.971 122.569C392.027 122.764 392.125 122.936 392.263 123.085C392.402 123.234 392.565 123.369 392.753 123.49C392.957 123.602 393.163 123.708 393.371 123.807L394.869 124.47C395.214 124.621 395.574 124.796 395.947 124.996C396.321 125.196 396.646 125.446 396.923 125.744C397.204 126.029 397.408 126.369 397.534 126.763C397.673 127.161 397.668 127.63 397.518 128.17C397.245 129.159 396.648 129.817 395.727 130.144C394.82 130.474 393.73 130.463 392.458 130.111ZM409.836 134.668L412.587 124.722L414.881 125.356L414.476 126.821L414.611 126.858C414.893 126.438 415.221 126.1 415.596 125.844C415.984 125.592 416.442 125.539 416.969 125.684C417.933 125.951 418.367 126.68 418.273 127.871L418.389 127.903C418.53 127.693 418.687 127.501 418.859 127.328C419.032 127.154 419.223 127.013 419.433 126.905C419.642 126.797 419.875 126.73 420.131 126.704C420.388 126.678 420.67 126.708 420.978 126.793C422.366 127.177 422.778 128.391 422.213 130.434L420.245 137.547L417.952 136.913L419.839 130.089C419.967 129.626 419.972 129.282 419.855 129.056C419.754 128.82 419.575 128.667 419.318 128.596C419.074 128.528 418.838 128.553 418.612 128.67C418.403 128.779 418.252 129 418.159 129.334L416.197 136.427L413.884 135.788L415.771 128.964C415.899 128.501 415.911 128.159 415.807 127.936C415.719 127.704 415.546 127.553 415.289 127.482C415.032 127.411 414.79 127.434 414.564 127.551C414.342 127.655 414.184 127.875 414.092 128.209L412.13 135.303L409.836 134.668ZM429.963 140.234C429.372 140.071 428.937 139.792 428.659 139.396C428.385 138.988 428.293 138.493 428.385 137.91L428.289 137.883C427.928 138.489 427.431 138.884 426.799 139.069C426.18 139.257 425.485 139.245 424.714 139.032C423.75 138.765 423.043 138.293 422.594 137.615C422.162 136.929 422.075 136.116 422.335 135.178C422.622 134.137 423.215 133.471 424.112 133.179C425.008 132.888 426.189 132.945 427.654 133.35L429.254 133.792L429.393 133.291C429.556 132.7 429.538 132.218 429.337 131.844C429.152 131.461 428.732 131.179 428.077 130.997C427.473 130.83 426.952 130.811 426.516 130.939C426.079 131.067 425.674 131.281 425.301 131.579L424.124 129.759C424.614 129.286 425.263 128.967 426.069 128.803C426.892 128.629 427.862 128.697 428.98 129.006C430.342 129.383 431.315 129.991 431.9 130.83C432.5 131.66 432.626 132.705 432.278 133.964L431.073 138.321L432.172 138.625L431.601 140.687L429.963 140.234ZM426.31 137.46C426.811 137.599 427.269 137.594 427.684 137.446C428.098 137.298 428.369 136.992 428.497 136.53L428.828 135.334L427.305 134.913C426.136 134.59 425.442 134.82 425.226 135.604L425.119 135.99C425.023 136.337 425.085 136.637 425.305 136.892C425.525 137.146 425.86 137.336 426.31 137.46ZM442.854 144.878C442.562 145.932 441.904 146.587 440.878 146.843C439.853 147.099 438.39 146.964 436.488 146.438C435.537 146.175 434.769 145.9 434.184 145.614C433.595 145.341 433.143 145.05 432.828 144.741C432.525 144.436 432.335 144.12 432.259 143.795C432.196 143.473 432.21 143.145 432.303 142.811C432.459 142.246 432.745 141.861 433.161 141.658C433.574 141.468 434.103 141.379 434.75 141.392L434.782 141.276C434.393 141.031 434.102 140.756 433.909 140.454C433.733 140.142 433.705 139.768 433.826 139.331C433.961 138.843 434.221 138.527 434.606 138.385C435.004 138.246 435.491 138.187 436.066 138.208L436.098 138.092C435.585 137.646 435.233 137.12 435.041 136.513C434.862 135.91 434.873 135.243 435.076 134.51C435.236 133.932 435.479 133.453 435.805 133.072C436.135 132.68 436.528 132.387 436.982 132.194C437.449 132.005 437.968 131.907 438.537 131.898C439.107 131.89 439.719 131.976 440.375 132.157C441.004 132.331 441.569 132.564 442.07 132.854L442.219 132.315C442.326 131.929 442.55 131.645 442.891 131.463C443.232 131.28 443.64 131.255 444.115 131.386L445.87 131.872L445.294 133.953L442.904 133.292L442.856 133.466C443.317 133.898 443.626 134.405 443.783 134.988C443.957 135.562 443.946 136.202 443.75 136.909C443.59 137.487 443.347 137.966 443.021 138.346C442.694 138.727 442.296 139.017 441.825 139.219C441.357 139.408 440.833 139.505 440.25 139.51C439.681 139.519 439.068 139.432 438.413 139.251C438.117 139.169 437.838 139.078 437.575 138.978C437.316 138.865 437.073 138.742 436.847 138.61C436.684 138.648 436.536 138.711 436.401 138.798C436.279 138.889 436.193 139.024 436.143 139.204C436.101 139.359 436.105 139.491 436.158 139.603C436.21 139.714 436.293 139.813 436.407 139.9C436.538 139.978 436.692 140.048 436.868 140.11C437.044 140.173 437.229 140.231 437.422 140.284L439.696 140.913C440.403 141.109 440.987 141.346 441.45 141.626C441.912 141.906 442.268 142.219 442.518 142.565C442.768 142.911 442.916 143.277 442.961 143.663C443.007 144.049 442.971 144.454 442.854 144.878ZM440.096 144.344C440.167 144.087 440.121 143.853 439.958 143.642C439.792 143.444 439.419 143.264 438.841 143.105L435.429 142.161C435.112 142.308 434.909 142.543 434.82 142.864C434.735 143.172 434.794 143.459 434.997 143.722C435.21 144.003 435.632 144.23 436.262 144.404L437.939 144.868C438.594 145.049 439.094 145.091 439.44 144.992C439.785 144.894 440.004 144.678 440.096 144.344ZM438.914 137.439C439.492 137.599 439.949 137.573 440.284 137.361C440.632 137.153 440.867 136.831 440.988 136.394L441.115 135.931C441.236 135.494 441.201 135.097 441.009 134.74C440.83 134.386 440.452 134.129 439.874 133.969C439.308 133.813 438.858 133.84 438.523 134.052C438.187 134.264 437.959 134.588 437.838 135.025L437.711 135.488C437.59 135.925 437.619 136.32 437.798 136.674C437.976 137.028 438.349 137.283 438.914 137.439ZM452.712 134.449C452.07 134.271 451.656 134.018 451.47 133.69C451.3 133.353 451.267 132.998 451.37 132.625L451.525 132.066C451.631 131.68 451.842 131.393 452.157 131.203C452.485 131.017 452.971 131.013 453.613 131.191C454.256 131.369 454.664 131.62 454.837 131.944C455.023 132.272 455.062 132.629 454.956 133.015L454.801 133.574C454.698 133.946 454.481 134.232 454.149 134.431C453.834 134.62 453.355 134.626 452.712 134.449ZM445.635 142.182L448.796 143.056L450.321 137.543L447.16 136.669L447.773 134.452L453.787 136.115L451.649 143.845L454.579 144.656L453.966 146.872L445.022 144.399L445.635 142.182ZM460.651 148.97C459.867 148.753 459.192 148.442 458.627 148.037C458.077 147.622 457.646 147.129 457.334 146.559C457.034 145.992 456.858 145.355 456.804 144.648C456.75 143.942 456.835 143.184 457.059 142.374C457.283 141.564 457.6 140.87 458.009 140.292C458.418 139.713 458.896 139.258 459.445 138.925C460.006 138.596 460.627 138.401 461.308 138.341C462.005 138.271 462.74 138.342 463.511 138.555C464.603 138.858 465.415 139.324 465.946 139.955C466.493 140.577 466.839 141.302 466.983 142.13L464.455 142.718C464.382 142.283 464.233 141.896 464.009 141.557C463.797 141.222 463.421 140.979 462.882 140.83C462.226 140.649 461.665 140.701 461.199 140.987C460.749 141.264 460.433 141.73 460.252 142.385L459.804 144.005C459.623 144.66 459.652 145.228 459.893 145.71C460.149 146.182 460.618 146.512 461.3 146.701C461.852 146.854 462.318 146.844 462.698 146.672C463.09 146.504 463.452 146.245 463.784 145.894L465.602 147.725C465.04 148.358 464.349 148.803 463.531 149.061C462.729 149.31 461.769 149.279 460.651 148.97ZM471.58 151.93C471.053 151.784 470.71 151.572 470.552 151.293C470.407 151.018 470.381 150.713 470.473 150.379L470.569 150.032C470.662 149.698 470.841 149.45 471.107 149.288C471.386 149.13 471.789 149.124 472.315 149.27C472.842 149.416 473.178 149.626 473.324 149.902C473.482 150.18 473.514 150.487 473.422 150.821L473.326 151.168C473.234 151.502 473.048 151.748 472.769 151.906C472.503 152.068 472.107 152.076 471.58 151.93Z" fill="#A3FFF6"/>
</svg>
