<svg width="740" height="246" viewBox="0 0 740 246" fill="none" xmlns="http://www.w3.org/2000/svg">
<rect x="212.066" y="152.806" width="301" height="32" transform="rotate(-16.3468 212.066 152.806)" fill="#1A14BE"/>
<path d="M247.682 166.579C246.479 166.931 245.43 167.003 244.535 166.793C243.636 166.57 242.836 166.187 242.134 165.642L243.024 164.339C243.739 164.838 244.432 165.163 245.102 165.314C245.784 165.461 246.528 165.416 247.334 165.18C248.307 164.895 248.983 164.453 249.364 163.855C249.744 163.257 249.816 162.555 249.58 161.749C249.388 161.097 249.054 160.646 248.578 160.397C248.098 160.134 247.375 160.062 246.409 160.178L244.839 160.368C244.153 160.444 243.552 160.433 243.037 160.334C242.534 160.231 242.102 160.059 241.739 159.818C241.373 159.564 241.076 159.262 240.848 158.912C240.617 158.549 240.439 158.157 240.315 157.735C239.955 156.506 240.086 155.461 240.708 154.597C241.33 153.734 242.326 153.101 243.695 152.7C244.769 152.385 245.724 152.299 246.558 152.444C247.405 152.584 248.149 152.915 248.788 153.436L247.943 154.747C247.429 154.37 246.865 154.104 246.25 153.951C245.636 153.798 244.912 153.843 244.081 154.087C243.172 154.354 242.531 154.75 242.158 155.277C241.784 155.803 241.71 156.45 241.935 157.218C242.112 157.819 242.435 158.259 242.906 158.538C243.386 158.8 244.124 158.876 245.119 158.764L246.632 158.591C247.318 158.515 247.919 158.527 248.434 158.626C248.949 158.724 249.388 158.894 249.751 159.136C250.126 159.373 250.43 159.673 250.661 160.036C250.892 160.399 251.072 160.798 251.2 161.233C251.564 162.474 251.439 163.566 250.827 164.51C250.227 165.45 249.179 166.14 247.682 166.579ZM258.988 163.263C258.297 163.465 257.635 163.528 257 163.45C256.379 163.368 255.804 163.161 255.276 162.83C254.757 162.482 254.303 162.024 253.915 161.457C253.523 160.878 253.21 160.191 252.977 159.398C252.748 158.618 252.643 157.877 252.66 157.178C252.677 156.478 252.811 155.848 253.064 155.288C253.325 154.711 253.696 154.22 254.175 153.815C254.666 153.407 255.257 153.102 255.948 152.899C256.639 152.697 257.295 152.636 257.917 152.718C258.551 152.796 259.128 153.009 259.647 153.357C260.175 153.688 260.635 154.144 261.027 154.723C261.419 155.303 261.73 155.983 261.959 156.764C262.192 157.557 262.299 158.303 262.282 159.003C262.262 159.69 262.12 160.322 261.859 160.899C261.606 161.459 261.234 161.944 260.743 162.352C260.264 162.756 259.679 163.06 258.988 163.263ZM258.6 161.938C259.457 161.687 260.073 161.228 260.447 160.563C260.822 159.897 260.851 159.027 260.536 157.952L260.119 156.532C259.804 155.457 259.309 154.741 258.635 154.383C257.96 154.025 257.194 153.972 256.337 154.223C255.48 154.475 254.864 154.933 254.489 155.599C254.115 156.265 254.085 157.135 254.4 158.21L254.817 159.63C255.132 160.704 255.627 161.421 256.302 161.779C256.976 162.137 257.742 162.19 258.6 161.938ZM265.467 161.112L262.562 151.209L263.982 150.793L264.32 151.944L264.397 151.922C264.438 151.493 264.56 151.103 264.762 150.752C264.965 150.4 265.341 150.144 265.892 149.983C266.467 149.814 266.939 149.835 267.307 150.047C267.671 150.246 267.953 150.566 268.152 151.008L268.209 150.991C268.257 150.491 268.404 150.045 268.65 149.653C268.897 149.261 269.314 148.979 269.903 148.806C270.709 148.57 271.329 148.694 271.762 149.178C272.209 149.658 272.586 150.423 272.894 151.472L274.909 158.343L273.489 158.759L271.547 152.138C271.299 151.294 271.039 150.738 270.766 150.471C270.502 150.187 270.14 150.112 269.679 150.247C269.27 150.367 268.977 150.599 268.799 150.943C268.619 151.274 268.607 151.708 268.765 152.246L270.898 159.519L269.478 159.936L267.536 153.315C267.288 152.47 267.028 151.914 266.755 151.647C266.491 151.363 266.135 151.287 265.687 151.418C265.278 151.538 264.978 151.772 264.788 152.12C264.608 152.451 264.596 152.885 264.754 153.422L266.887 160.696L265.467 161.112ZM281.696 156.602C280.979 156.812 280.298 156.88 279.65 156.806C279.016 156.728 278.429 156.525 277.888 156.198C277.356 155.853 276.89 155.4 276.488 154.836C276.083 154.261 275.766 153.582 275.537 152.802C275.305 152.009 275.203 151.26 275.233 150.557C275.276 149.85 275.43 149.214 275.695 148.65C275.956 148.073 276.327 147.582 276.805 147.178C277.297 146.769 277.882 146.466 278.56 146.267C279.225 146.072 279.862 146.017 280.471 146.102C281.093 146.184 281.659 146.386 282.17 146.709C282.678 147.018 283.121 147.437 283.498 147.966C283.875 148.494 284.167 149.11 284.373 149.814L284.587 150.543L277.256 152.694L277.391 153.154C277.519 153.589 277.707 153.972 277.957 154.301C278.207 154.631 278.499 154.893 278.833 155.087C279.181 155.276 279.563 155.394 279.979 155.438C280.404 155.467 280.847 155.413 281.307 155.278C281.973 155.083 282.503 154.76 282.899 154.311C283.296 153.861 283.543 153.33 283.641 152.718L284.999 153.153C284.899 153.905 284.568 154.599 284.005 155.237C283.451 155.858 282.681 156.313 281.696 156.602ZM278.932 147.534C278.509 147.657 278.142 147.849 277.828 148.107C277.515 148.366 277.264 148.669 277.074 149.016C276.897 149.36 276.786 149.74 276.741 150.156C276.706 150.556 276.751 150.973 276.879 151.408L276.918 151.542L282.599 149.876L282.537 149.665C282.41 149.23 282.223 148.854 281.977 148.537C281.744 148.216 281.469 147.964 281.15 147.779C280.841 147.578 280.493 147.458 280.107 147.418C279.733 147.375 279.341 147.413 278.932 147.534ZM304.173 150.009C303.137 150.313 302.191 150.403 301.334 150.279C300.487 150.139 299.715 149.851 299.018 149.416L299.79 148.21C300.409 148.571 301.04 148.802 301.682 148.906C302.324 149.01 303.041 148.945 303.834 148.712C304.602 148.487 305.19 148.169 305.597 147.758C306.013 147.33 306.135 146.822 305.963 146.233C305.888 145.977 305.775 145.781 305.623 145.645C305.481 145.492 305.312 145.389 305.116 145.335C304.919 145.282 304.711 145.259 304.492 145.268C304.268 145.264 304.036 145.277 303.794 145.306L302.172 145.532C301.812 145.582 301.414 145.622 300.978 145.653C300.555 145.679 300.149 145.646 299.76 145.551C299.367 145.444 299.007 145.258 298.679 144.993C298.364 144.724 298.128 144.321 297.97 143.784C297.824 143.285 297.794 142.828 297.881 142.413C297.977 141.982 298.168 141.593 298.455 141.244C298.738 140.883 299.106 140.574 299.559 140.316C300.007 140.046 300.519 139.826 301.095 139.657C301.991 139.395 302.806 139.308 303.541 139.398C304.289 139.485 304.973 139.708 305.593 140.068L304.87 141.301C304.714 141.194 304.526 141.097 304.305 141.008C304.094 140.904 303.843 140.831 303.554 140.791C303.273 140.734 302.955 140.717 302.6 140.737C302.245 140.758 301.85 140.832 301.415 140.96C300.634 141.189 300.072 141.5 299.729 141.892C299.398 142.281 299.308 142.731 299.458 143.243C299.533 143.499 299.642 143.703 299.784 143.856C299.935 143.992 300.109 144.087 300.305 144.141C300.501 144.194 300.711 144.223 300.935 144.227C301.167 144.214 301.398 144.195 301.627 144.17L303.249 143.944C303.622 143.89 304.02 143.85 304.443 143.823C304.866 143.797 305.274 143.837 305.666 143.944C306.055 144.038 306.407 144.22 306.722 144.489C307.05 144.754 307.293 145.155 307.451 145.692C307.74 146.678 307.579 147.551 306.969 148.314C306.372 149.073 305.44 149.638 304.173 150.009ZM319 145.41C318.399 145.587 317.925 145.559 317.579 145.327C317.233 145.095 316.961 144.758 316.762 144.316L316.666 144.344C316.617 144.984 316.399 145.541 316.01 146.016C315.631 146.475 315.038 146.823 314.232 147.059C313.195 147.363 312.291 147.336 311.52 146.979C310.748 146.622 310.225 145.976 309.951 145.042C309.681 144.121 309.805 143.314 310.324 142.619C310.856 141.922 311.87 141.353 313.367 140.914L315.478 140.295L315.191 139.316C314.977 138.587 314.613 138.103 314.099 137.865C313.58 137.614 312.944 137.599 312.189 137.821C311.524 138.016 311.019 138.31 310.676 138.702C310.329 139.082 310.093 139.533 309.968 140.056L308.707 139.592C308.76 139.299 308.859 138.999 309.005 138.692C309.152 138.385 309.358 138.095 309.626 137.822C309.889 137.536 310.211 137.282 310.59 137.06C310.966 136.825 311.403 136.634 311.902 136.487C313.066 136.146 314.074 136.17 314.925 136.56C315.788 136.946 316.374 137.663 316.681 138.712L318.28 144.163L319.662 143.757L320.056 145.101L319 145.41ZM314.123 145.695C314.52 145.578 314.865 145.428 315.159 145.245C315.461 145.045 315.711 144.833 315.91 144.608C316.104 144.37 316.233 144.124 316.297 143.869C316.37 143.597 316.369 143.334 316.294 143.078L315.816 141.446L313.705 142.066C312.784 142.336 312.15 142.661 311.802 143.04C311.455 143.42 311.353 143.853 311.496 144.339L311.614 144.742C311.764 145.254 312.057 145.592 312.494 145.755C312.941 145.902 313.483 145.882 314.123 145.695ZM326.826 132.36L328.361 131.91L326.989 145.422C326.956 145.738 326.9 146.018 326.819 146.264C326.742 146.523 326.626 146.745 326.472 146.929C326.321 147.126 326.121 147.296 325.871 147.439C325.625 147.594 325.316 147.726 324.945 147.835L323.487 148.263L323.104 146.958L325.407 146.282L325.721 143.231L318.881 134.691L320.454 134.229L323.34 137.885L325.921 141.213L325.998 141.19L326.372 136.995L326.826 132.36ZM346.128 124.323C345.681 124.454 345.341 124.456 345.109 124.33C344.874 124.19 344.715 123.98 344.632 123.699L344.542 123.391C344.46 123.11 344.482 122.853 344.608 122.622C344.731 122.377 345.016 122.189 345.464 122.058C345.912 121.927 346.254 121.931 346.489 122.07C346.721 122.197 346.878 122.401 346.96 122.682L347.05 122.989C347.133 123.271 347.113 123.534 346.99 123.778C346.863 124.01 346.576 124.191 346.128 124.323ZM344.955 136.38L348.524 135.333L346.385 128.041L342.816 129.088L342.433 127.783L347.538 126.285L350.06 134.883L353.399 133.904L353.782 135.209L345.337 137.685L344.955 136.38ZM360.808 133.148C360.053 133.369 359.435 133.321 358.952 133.004C358.483 132.683 358.151 132.19 357.956 131.525L356.098 125.192L352.797 126.16L352.415 124.855L354.871 124.134C355.204 124.037 355.415 123.905 355.506 123.74C355.605 123.558 355.606 123.301 355.508 122.968L354.749 120.377L356.226 119.944L357.251 123.436L361.761 122.114L362.144 123.419L357.634 124.741L359.773 132.034L364.283 130.711L364.665 132.016L360.808 133.148ZM366.97 115.917L369.445 115.191L368.797 121.154L367.512 121.531L366.97 115.917ZM383.046 126.875C382.009 127.179 381.063 127.269 380.207 127.145C379.36 127.005 378.588 126.717 377.891 126.282L378.662 125.076C379.282 125.437 379.913 125.668 380.555 125.772C381.196 125.876 381.914 125.811 382.707 125.578C383.475 125.353 384.062 125.035 384.47 124.624C384.886 124.196 385.008 123.688 384.835 123.099C384.76 122.843 384.647 122.647 384.496 122.511C384.354 122.358 384.185 122.255 383.988 122.201C383.792 122.148 383.584 122.125 383.364 122.134C383.141 122.13 382.908 122.143 382.667 122.172L381.045 122.398C380.684 122.448 380.286 122.488 379.85 122.519C379.428 122.545 379.022 122.512 378.633 122.417C378.24 122.31 377.88 122.124 377.552 121.859C377.237 121.59 377 121.187 376.843 120.65C376.696 120.151 376.667 119.694 376.754 119.279C376.849 118.848 377.041 118.459 377.328 118.11C377.611 117.749 377.979 117.44 378.431 117.182C378.88 116.912 379.392 116.692 379.968 116.523C380.863 116.261 381.679 116.174 382.414 116.264C383.162 116.351 383.845 116.574 384.465 116.934L383.743 118.167C383.587 118.06 383.398 117.963 383.178 117.874C382.966 117.77 382.716 117.697 382.426 117.657C382.146 117.6 381.828 117.583 381.473 117.603C381.117 117.624 380.722 117.698 380.287 117.826C379.507 118.055 378.945 118.366 378.602 118.758C378.271 119.147 378.181 119.597 378.331 120.109C378.406 120.365 378.514 120.569 378.657 120.722C378.808 120.858 378.981 120.953 379.178 121.007C379.374 121.06 379.584 121.089 379.807 121.093C380.04 121.08 380.271 121.061 380.499 121.036L382.121 120.81C382.495 120.756 382.893 120.716 383.316 120.689C383.739 120.663 384.146 120.703 384.539 120.81C384.928 120.904 385.28 121.086 385.595 121.355C385.923 121.62 386.166 122.021 386.323 122.558C386.612 123.544 386.452 124.417 385.842 125.18C385.244 125.939 384.312 126.504 383.046 126.875ZM400.216 121.589L397.312 111.686L399.596 111.016L400.023 112.475L400.158 112.435C400.176 111.93 400.277 111.469 400.461 111.054C400.658 110.635 401.019 110.349 401.543 110.195C402.503 109.914 403.256 110.304 403.804 111.366L403.919 111.332C403.929 111.079 403.961 110.834 404.016 110.595C404.071 110.357 404.159 110.136 404.28 109.934C404.402 109.732 404.564 109.552 404.768 109.395C404.972 109.238 405.228 109.114 405.535 109.024C406.917 108.619 407.906 109.433 408.503 111.468L410.58 118.549L408.296 119.219L406.303 112.425C406.168 111.965 405.991 111.669 405.772 111.539C405.563 111.392 405.33 111.356 405.074 111.431C404.831 111.503 404.644 111.648 404.514 111.866C404.392 112.069 404.381 112.336 404.478 112.669L406.55 119.731L404.247 120.407L402.254 113.613C402.119 113.153 401.948 112.855 401.742 112.721C401.545 112.57 401.319 112.533 401.063 112.608C400.807 112.683 400.614 112.83 400.484 113.049C400.349 113.255 400.331 113.524 400.429 113.857L402.5 120.919L400.216 121.589ZM420.254 115.712C419.666 115.884 419.149 115.876 418.705 115.687C418.257 115.485 417.918 115.112 417.689 114.568L417.593 114.596C417.605 115.301 417.391 115.898 416.951 116.389C416.524 116.875 415.927 117.231 415.16 117.456C414.2 117.738 413.351 117.709 412.612 117.37C411.883 117.014 411.381 116.369 411.107 115.435C410.803 114.399 410.955 113.52 411.564 112.8C412.172 112.08 413.206 111.506 414.664 111.078L416.257 110.611L416.111 110.112C415.938 109.523 415.668 109.123 415.3 108.911C414.941 108.683 414.436 108.664 413.783 108.856C413.182 109.032 412.73 109.29 412.426 109.629C412.123 109.968 411.891 110.363 411.731 110.813L409.771 109.887C409.939 109.226 410.322 108.614 410.92 108.049C411.528 107.468 412.389 107.014 413.502 106.687C414.858 106.29 416.005 106.294 416.944 106.699C417.892 107.088 418.55 107.909 418.917 109.163L420.19 113.501L421.283 113.18L421.886 115.233L420.254 115.712ZM415.688 115.279C416.187 115.133 416.574 114.888 416.848 114.543C417.122 114.199 417.192 113.796 417.056 113.336L416.707 112.146L415.191 112.591C414.027 112.932 413.559 113.493 413.788 114.273L413.901 114.657C414.002 115.003 414.213 115.226 414.535 115.326C414.856 115.426 415.24 115.411 415.688 115.279ZM429.189 111.132L429.055 111.171C428.975 111.848 428.761 112.445 428.413 112.964C428.074 113.467 427.508 113.834 426.715 114.067C426.165 114.228 425.629 114.274 425.109 114.205C424.601 114.131 424.119 113.932 423.662 113.608C423.218 113.279 422.805 112.817 422.422 112.221C422.051 111.621 421.735 110.873 421.472 109.977C421.209 109.082 421.072 108.281 421.059 107.576C421.06 106.867 421.158 106.255 421.354 105.739C421.563 105.219 421.861 104.791 422.249 104.455C422.65 104.115 423.125 103.865 423.675 103.703C424.072 103.587 424.439 103.535 424.776 103.547C425.113 103.56 425.423 103.622 425.706 103.733C426.001 103.841 426.27 103.998 426.511 104.206C426.762 104.396 426.994 104.62 427.208 104.877L427.343 104.837L425.553 98.7342L428.393 97.9011L432.558 112.103L429.718 112.936L429.189 111.132ZM427.296 111.5C427.795 111.353 428.188 111.106 428.475 110.758C428.774 110.406 428.847 109.968 428.694 109.443L427.838 106.526C427.684 106.001 427.386 105.672 426.944 105.538C426.514 105.4 426.05 105.404 425.551 105.55C424.911 105.738 424.477 106.081 424.248 106.579C424.015 107.064 424 107.652 424.202 108.343L424.653 109.878C424.855 110.569 425.187 111.062 425.649 111.357C426.107 111.64 426.656 111.687 427.296 111.5ZM434.691 111.477L431.786 101.575L434.626 100.742L435.156 102.546L435.271 102.512C435.303 102.196 435.367 101.893 435.462 101.601C435.557 101.309 435.694 101.04 435.871 100.793C436.058 100.53 436.29 100.302 436.567 100.11C436.853 99.9008 437.195 99.7382 437.591 99.6218C438.065 99.483 438.524 99.4385 438.969 99.4885C439.411 99.5257 439.819 99.663 440.195 99.9003C440.57 100.138 440.902 100.464 441.191 100.88C441.492 101.291 441.731 101.798 441.907 102.399L443.787 108.809L440.947 109.642L439.18 103.616C438.804 102.337 438.06 101.86 436.947 102.187C436.73 102.251 436.521 102.346 436.323 102.474C436.133 102.585 435.974 102.729 435.845 102.906C435.712 103.07 435.621 103.257 435.571 103.466C435.534 103.671 435.551 103.895 435.623 104.138L437.531 110.644L434.691 111.477ZM450.804 107.001C449.141 107.489 447.746 107.398 446.618 106.728C445.491 106.059 444.695 104.93 444.229 103.344C443.993 102.538 443.89 101.783 443.919 101.08C443.958 100.36 444.117 99.7156 444.395 99.1477C444.682 98.5633 445.086 98.0696 445.607 97.6667C446.137 97.2472 446.773 96.9287 447.515 96.711C448.257 96.4933 448.958 96.4197 449.618 96.4902C450.274 96.5479 450.871 96.7342 451.408 97.0491C451.945 97.364 452.414 97.8031 452.815 98.3662C453.226 98.9128 453.544 99.5699 453.769 100.338L454.016 101.182L447.242 103.169L447.292 103.342C447.48 103.981 447.83 104.441 448.343 104.722C448.853 104.989 449.491 105.01 450.259 104.785C450.847 104.613 451.321 104.356 451.679 104.014C452.034 103.66 452.31 103.253 452.508 102.791L454.534 104.011C454.289 104.597 453.871 105.164 453.282 105.712C452.692 106.26 451.866 106.69 450.804 107.001ZM448.131 98.7397C447.517 98.9198 447.081 99.2562 446.822 99.7488C446.573 100.225 446.542 100.783 446.73 101.423L446.775 101.576L450.766 100.405L450.721 100.252C450.53 99.5992 450.201 99.14 449.734 98.874C449.279 98.6043 448.745 98.5595 448.131 98.7397ZM461.688 103.809C460.588 104.132 459.579 104.247 458.663 104.154C457.759 104.058 457.018 103.782 456.44 103.326L457.6 101.382C458.107 101.691 458.653 101.892 459.236 101.985C459.828 102.062 460.457 102.003 461.122 101.807C461.685 101.642 462.102 101.43 462.373 101.17C462.64 100.897 462.721 100.581 462.616 100.223C462.534 99.9413 462.369 99.7813 462.121 99.7427C461.87 99.6913 461.543 99.69 461.14 99.7386L459.474 99.9563C459.008 100.024 458.564 100.05 458.142 100.034C457.717 100.006 457.33 99.9182 456.981 99.7705C456.632 99.6227 456.326 99.4069 456.062 99.1231C455.798 98.8392 455.597 98.4606 455.458 97.9872C455.154 96.9508 455.312 96.0221 455.933 95.2009C456.553 94.3796 457.58 93.7589 459.013 93.3386C459.985 93.0534 460.85 92.9457 461.607 93.0155C462.373 93.0687 463.032 93.2784 463.584 93.6445L462.637 95.6731C462.249 95.4396 461.792 95.2816 461.268 95.1992C460.744 95.1168 460.155 95.1713 459.503 95.3627C458.402 95.6854 457.95 96.1794 458.145 96.8447C458.231 97.139 458.4 97.3118 458.651 97.3631C458.899 97.4017 459.224 97.3967 459.626 97.3481L461.273 97.136C461.74 97.0686 462.186 97.049 462.611 97.0772C463.032 97.0925 463.417 97.1741 463.766 97.3218C464.128 97.4658 464.441 97.6797 464.705 97.9636C464.969 98.2475 465.17 98.6261 465.309 99.0995C465.613 100.136 465.45 101.073 464.82 101.911C464.204 102.745 463.159 103.377 461.688 103.809ZM472.956 100.504C471.855 100.827 470.847 100.942 469.931 100.849C469.027 100.753 468.286 100.477 467.708 100.022L468.867 98.0767C469.375 98.3863 469.92 98.5876 470.503 98.6806C471.095 98.757 471.724 98.6977 472.389 98.5026C472.952 98.3374 473.369 98.1248 473.64 97.8647C473.908 97.5917 473.989 97.2761 473.884 96.9179C473.801 96.6364 473.636 96.4764 473.389 96.4378C473.137 96.3865 472.81 96.3851 472.408 96.4337L470.742 96.6514C470.275 96.7188 469.831 96.7448 469.41 96.7295C468.985 96.7013 468.598 96.6134 468.249 96.4656C467.9 96.3179 467.593 96.1021 467.329 95.8182C467.065 95.5343 466.864 95.1557 466.725 94.6823C466.421 93.646 466.58 92.7172 467.2 91.896C467.821 91.0748 468.848 90.454 470.281 90.0337C471.253 89.7485 472.118 89.6408 472.875 89.7106C473.64 89.7639 474.299 89.9735 474.851 90.3396L473.904 92.3683C473.516 92.1347 473.06 91.9767 472.535 91.8943C472.011 91.8119 471.423 91.8664 470.77 92.0578C469.67 92.3805 469.217 92.8745 469.412 93.5399C469.499 93.8341 469.667 94.0069 469.919 94.0583C470.166 94.0968 470.491 94.0918 470.894 94.0432L472.541 93.8311C473.007 93.7638 473.453 93.7441 473.878 93.7723C474.3 93.7877 474.685 93.8692 475.034 94.017C475.396 94.1609 475.709 94.3749 475.972 94.6587C476.236 94.9426 476.438 95.3212 476.577 95.7946C476.88 96.831 476.718 97.768 476.088 98.6058C475.471 99.4398 474.427 100.073 472.956 100.504ZM484.321 97.1079C483.797 97.2618 483.394 97.2618 483.113 97.1081C482.844 96.9507 482.661 96.7056 482.563 96.373L482.462 96.0275C482.365 95.6949 482.386 95.3898 482.527 95.1122C482.681 94.8309 483.02 94.6133 483.545 94.4595C484.069 94.3056 484.466 94.3074 484.734 94.4649C485.016 94.6186 485.205 94.8618 485.303 95.1944L485.404 95.5399C485.501 95.8725 485.473 96.1795 485.32 96.4608C485.179 96.7383 484.846 96.954 484.321 97.1079Z" fill="#A3FFF6"/>
</svg>
