<svg width="116" height="50" viewBox="0 0 116 50" fill="none" xmlns="http://www.w3.org/2000/svg">
<g clip-path="url(#paint0_diamond_858_738_clip_path)" data-figma-skip-parse="true"><g transform="matrix(0.0132091 -0.000328017 0.000419853 0.0169074 20.9429 20.9428)"><rect x="0" y="0" width="1691.26" height="1321.32" fill="url(#paint0_diamond_858_738)" opacity="1" shape-rendering="crispEdges"/><rect x="0" y="0" width="1691.26" height="1321.32" transform="scale(1 -1)" fill="url(#paint0_diamond_858_738)" opacity="1" shape-rendering="crispEdges"/><rect x="0" y="0" width="1691.26" height="1321.32" transform="scale(-1 1)" fill="url(#paint0_diamond_858_738)" opacity="1" shape-rendering="crispEdges"/><rect x="0" y="0" width="1691.26" height="1321.32" transform="scale(-1)" fill="url(#paint0_diamond_858_738)" opacity="1" shape-rendering="crispEdges"/></g></g><path d="M8.57093 21.1819L21.0634 -0.000108264L33.0862 21.1819L20.8224 41.8857L8.57093 21.1819Z" data-figma-gradient-fill="{&#34;type&#34;:&#34;GRADIENT_DIAMOND&#34;,&#34;stops&#34;:[{&#34;color&#34;:{&#34;r&#34;:0.91020405292510986,&#34;g&#34;:0.91459286212921143,&#34;b&#34;:0.78292816877365112,&#34;a&#34;:1.0},&#34;position&#34;:0.0},{&#34;color&#34;:{&#34;r&#34;:0.59689551591873169,&#34;g&#34;:0.66548830270767212,&#34;b&#34;:0.69727522134780884,&#34;a&#34;:1.0},&#34;position&#34;:0.54329419136047363},{&#34;color&#34;:{&#34;r&#34;:0.43234744668006897,&#34;g&#34;:0.29871997237205505,&#34;b&#34;:0.87140917778015137,&#34;a&#34;:1.0},&#34;position&#34;:1.0}],&#34;stopsVar&#34;:[{&#34;color&#34;:{&#34;r&#34;:0.91020405292510986,&#34;g&#34;:0.91459286212921143,&#34;b&#34;:0.78292816877365112,&#34;a&#34;:1.0},&#34;position&#34;:0.0},{&#34;color&#34;:{&#34;r&#34;:0.59689551591873169,&#34;g&#34;:0.66548830270767212,&#34;b&#34;:0.69727522134780884,&#34;a&#34;:1.0},&#34;position&#34;:0.54329419136047363},{&#34;color&#34;:{&#34;r&#34;:0.43234744668006897,&#34;g&#34;:0.29871997237205505,&#34;b&#34;:0.87140917778015137,&#34;a&#34;:1.0},&#34;position&#34;:1.0}],&#34;transform&#34;:{&#34;m00&#34;:26.418296813964844,&#34;m01&#34;:0.83970659971237183,&#34;m02&#34;:7.3139047622680664,&#34;m10&#34;:-0.65603321790695190,&#34;m11&#34;:33.814842224121094,&#34;m12&#34;:4.3633923530578613},&#34;opacity&#34;:1.0,&#34;blendMode&#34;:&#34;NORMAL&#34;,&#34;visible&#34;:true}"/>
<path d="M71.6306 29H62.3106V27.28L66.9706 23.08C67.6506 22.4667 68.2106 21.84 68.6506 21.2C69.0906 20.5467 69.3106 19.86 69.3106 19.14V18.9C69.3106 18.06 69.0906 17.4133 68.6506 16.96C68.2106 16.4933 67.5573 16.26 66.6906 16.26C65.8373 16.26 65.1773 16.48 64.7106 16.92C64.2573 17.3467 63.9173 17.92 63.6906 18.64L62.1906 18.08C62.324 17.6667 62.504 17.2667 62.7306 16.88C62.9706 16.48 63.2706 16.1267 63.6306 15.82C63.9906 15.5133 64.424 15.2667 64.9306 15.08C65.4506 14.8933 66.0506 14.8 66.7306 14.8C67.424 14.8 68.0373 14.9 68.5706 15.1C69.1173 15.3 69.5706 15.58 69.9306 15.94C70.304 16.3 70.584 16.7267 70.7706 17.22C70.9706 17.7133 71.0706 18.2533 71.0706 18.84C71.0706 19.3733 70.9906 19.8733 70.8306 20.34C70.684 20.8067 70.4706 21.2533 70.1906 21.68C69.924 22.1067 69.5973 22.5267 69.2106 22.94C68.8373 23.34 68.4173 23.74 67.9506 24.14L64.0506 27.54H71.6306V29ZM78.6328 29.24C77.7795 29.24 77.0461 29.08 76.4328 28.76C75.8195 28.4267 75.3128 27.9533 74.9128 27.34C74.5128 26.7267 74.2195 25.9733 74.0328 25.08C73.8461 24.1867 73.7528 23.1667 73.7528 22.02C73.7528 20.8867 73.8461 19.8733 74.0328 18.98C74.2195 18.0733 74.5128 17.3133 74.9128 16.7C75.3128 16.0867 75.8195 15.62 76.4328 15.3C77.0461 14.9667 77.7795 14.8 78.6328 14.8C79.4861 14.8 80.2195 14.9667 80.8328 15.3C81.4461 15.62 81.9528 16.0867 82.3528 16.7C82.7528 17.3133 83.0461 18.0733 83.2328 18.98C83.4195 19.8733 83.5128 20.8867 83.5128 22.02C83.5128 23.1667 83.4195 24.1867 83.2328 25.08C83.0461 25.9733 82.7528 26.7267 82.3528 27.34C81.9528 27.9533 81.4461 28.4267 80.8328 28.76C80.2195 29.08 79.4861 29.24 78.6328 29.24ZM78.6328 27.78C79.1928 27.78 79.6728 27.6733 80.0728 27.46C80.4728 27.2333 80.7928 26.92 81.0328 26.52C81.2861 26.12 81.4728 25.64 81.5928 25.08C81.7128 24.5067 81.7728 23.8667 81.7728 23.16V20.88C81.7728 20.1867 81.7128 19.5533 81.5928 18.98C81.4728 18.4067 81.2861 17.92 81.0328 17.52C80.7928 17.12 80.4728 16.8133 80.0728 16.6C79.6728 16.3733 79.1928 16.26 78.6328 16.26C78.0728 16.26 77.5928 16.3733 77.1928 16.6C76.7928 16.8133 76.4661 17.12 76.2128 17.52C75.9728 17.92 75.7928 18.4067 75.6728 18.98C75.5528 19.5533 75.4928 20.1867 75.4928 20.88V23.16C75.4928 23.8667 75.5528 24.5067 75.6728 25.08C75.7928 25.64 75.9728 26.12 76.2128 26.52C76.4661 26.92 76.7928 27.2333 77.1928 27.46C77.5928 27.6733 78.0728 27.78 78.6328 27.78ZM78.6328 23.2C78.1661 23.2 77.8395 23.1067 77.6528 22.92C77.4795 22.7333 77.3928 22.5067 77.3928 22.24V21.8C77.3928 21.5333 77.4795 21.3067 77.6528 21.12C77.8395 20.9333 78.1661 20.84 78.6328 20.84C79.0995 20.84 79.4195 20.9333 79.5928 21.12C79.7795 21.3067 79.8728 21.5333 79.8728 21.8V22.24C79.8728 22.5067 79.7795 22.7333 79.5928 22.92C79.4195 23.1067 79.0995 23.2 78.6328 23.2ZM89.775 20.96C90.7483 20.96 91.475 20.7467 91.955 20.32C92.4483 19.88 92.695 19.32 92.695 18.64V18.5C92.695 17.7533 92.455 17.1933 91.975 16.82C91.5083 16.4467 90.895 16.26 90.135 16.26C89.3883 16.26 88.7817 16.4267 88.315 16.76C87.8617 17.08 87.4883 17.5067 87.195 18.04L85.935 17.08C86.1083 16.8 86.3217 16.5267 86.575 16.26C86.8283 15.98 87.1217 15.7333 87.455 15.52C87.8017 15.3067 88.195 15.1333 88.635 15C89.0883 14.8667 89.6017 14.8 90.175 14.8C90.775 14.8 91.335 14.88 91.855 15.04C92.375 15.1867 92.8283 15.4133 93.215 15.72C93.6017 16.0133 93.9017 16.38 94.115 16.82C94.3417 17.26 94.455 17.76 94.455 18.32C94.455 18.7733 94.3817 19.18 94.235 19.54C94.1017 19.9 93.9083 20.2133 93.655 20.48C93.415 20.7467 93.1283 20.9733 92.795 21.16C92.4617 21.3467 92.1083 21.4867 91.735 21.58V21.66C92.1217 21.74 92.495 21.8733 92.855 22.06C93.215 22.2333 93.535 22.4667 93.815 22.76C94.095 23.04 94.315 23.3867 94.475 23.8C94.6483 24.2 94.735 24.66 94.735 25.18C94.735 25.78 94.615 26.3333 94.375 26.84C94.1483 27.3333 93.8217 27.76 93.395 28.12C92.9817 28.4667 92.475 28.74 91.875 28.94C91.2883 29.14 90.635 29.24 89.915 29.24C89.3017 29.24 88.755 29.1733 88.275 29.04C87.8083 28.9067 87.3883 28.7267 87.015 28.5C86.655 28.2733 86.335 28.02 86.055 27.74C85.7883 27.46 85.5483 27.1667 85.335 26.86L86.595 25.9C86.7817 26.18 86.975 26.4333 87.175 26.66C87.375 26.8867 87.6017 27.0867 87.855 27.26C88.1217 27.42 88.4217 27.5467 88.755 27.64C89.0883 27.7333 89.475 27.78 89.915 27.78C90.9017 27.78 91.655 27.5533 92.175 27.1C92.7083 26.6467 92.975 26 92.975 25.16V25C92.975 24.1733 92.715 23.5333 92.195 23.08C91.6883 22.6267 90.9217 22.4 89.895 22.4H88.235V20.96H89.775ZM102.117 29.24C101.264 29.24 100.531 29.08 99.9172 28.76C99.3039 28.4267 98.7972 27.9533 98.3972 27.34C97.9972 26.7267 97.7039 25.9733 97.5172 25.08C97.3305 24.1867 97.2372 23.1667 97.2372 22.02C97.2372 20.8867 97.3305 19.8733 97.5172 18.98C97.7039 18.0733 97.9972 17.3133 98.3972 16.7C98.7972 16.0867 99.3039 15.62 99.9172 15.3C100.531 14.9667 101.264 14.8 102.117 14.8C102.971 14.8 103.704 14.9667 104.317 15.3C104.931 15.62 105.437 16.0867 105.837 16.7C106.237 17.3133 106.531 18.0733 106.717 18.98C106.904 19.8733 106.997 20.8867 106.997 22.02C106.997 23.1667 106.904 24.1867 106.717 25.08C106.531 25.9733 106.237 26.7267 105.837 27.34C105.437 27.9533 104.931 28.4267 104.317 28.76C103.704 29.08 102.971 29.24 102.117 29.24ZM102.117 27.78C102.677 27.78 103.157 27.6733 103.557 27.46C103.957 27.2333 104.277 26.92 104.517 26.52C104.771 26.12 104.957 25.64 105.077 25.08C105.197 24.5067 105.257 23.8667 105.257 23.16V20.88C105.257 20.1867 105.197 19.5533 105.077 18.98C104.957 18.4067 104.771 17.92 104.517 17.52C104.277 17.12 103.957 16.8133 103.557 16.6C103.157 16.3733 102.677 16.26 102.117 16.26C101.557 16.26 101.077 16.3733 100.677 16.6C100.277 16.8133 99.9505 17.12 99.6972 17.52C99.4572 17.92 99.2772 18.4067 99.1572 18.98C99.0372 19.5533 98.9772 20.1867 98.9772 20.88V23.16C98.9772 23.8667 99.0372 24.5067 99.1572 25.08C99.2772 25.64 99.4572 26.12 99.6972 26.52C99.9505 26.92 100.277 27.2333 100.677 27.46C101.077 27.6733 101.557 27.78 102.117 27.78ZM102.117 23.2C101.651 23.2 101.324 23.1067 101.137 22.92C100.964 22.7333 100.877 22.5067 100.877 22.24V21.8C100.877 21.5333 100.964 21.3067 101.137 21.12C101.324 20.9333 101.651 20.84 102.117 20.84C102.584 20.84 102.904 20.9333 103.077 21.12C103.264 21.3067 103.357 21.5333 103.357 21.8V22.24C103.357 22.5067 103.264 22.7333 103.077 22.92C102.904 23.1067 102.584 23.2 102.117 23.2Z" fill="white"/>
<defs>
<clipPath id="paint0_diamond_858_738_clip_path"><path d="M8.57093 21.1819L21.0634 -0.000108264L33.0862 21.1819L20.8224 41.8857L8.57093 21.1819Z"/></clipPath><linearGradient id="paint0_diamond_858_738" x1="0" y1="0" x2="500" y2="500" gradientUnits="userSpaceOnUse">
<stop stop-color="#E8E9C8"/>
<stop offset="0.543294" stop-color="#98AAB2"/>
<stop offset="1" stop-color="#6E4CDE"/>
</linearGradient>
</defs>
</svg>
