<svg width="156" height="63" viewBox="0 0 156 63" fill="none" xmlns="http://www.w3.org/2000/svg">
<g filter="url(#filter0_i_875_777)">
<rect x="0.25" y="0.25" width="155.5" height="62.5" rx="31.25" stroke="#D9D9D9" stroke-width="0.5"/>
</g>
<g clip-path="url(#paint0_diamond_875_777_clip_path)" data-figma-skip-parse="true"><g transform="matrix(0.0132091 -0.000328017 0.000419853 0.0169074 40.9429 31.9428)"><rect x="0" y="0" width="1691.26" height="1321.32" fill="url(#paint0_diamond_875_777)" opacity="1" shape-rendering="crispEdges"/><rect x="0" y="0" width="1691.26" height="1321.32" transform="scale(1 -1)" fill="url(#paint0_diamond_875_777)" opacity="1" shape-rendering="crispEdges"/><rect x="0" y="0" width="1691.26" height="1321.32" transform="scale(-1 1)" fill="url(#paint0_diamond_875_777)" opacity="1" shape-rendering="crispEdges"/><rect x="0" y="0" width="1691.26" height="1321.32" transform="scale(-1)" fill="url(#paint0_diamond_875_777)" opacity="1" shape-rendering="crispEdges"/></g></g><path d="M28.5709 32.1819L41.0634 10.9999L53.0862 32.1819L40.8224 52.8857L28.5709 32.1819Z" data-figma-gradient-fill="{&#34;type&#34;:&#34;GRADIENT_DIAMOND&#34;,&#34;stops&#34;:[{&#34;color&#34;:{&#34;r&#34;:0.91020405292510986,&#34;g&#34;:0.91459286212921143,&#34;b&#34;:0.78292816877365112,&#34;a&#34;:1.0},&#34;position&#34;:0.0},{&#34;color&#34;:{&#34;r&#34;:0.59689551591873169,&#34;g&#34;:0.66548830270767212,&#34;b&#34;:0.69727522134780884,&#34;a&#34;:1.0},&#34;position&#34;:0.54329419136047363},{&#34;color&#34;:{&#34;r&#34;:0.43234744668006897,&#34;g&#34;:0.29871997237205505,&#34;b&#34;:0.87140917778015137,&#34;a&#34;:1.0},&#34;position&#34;:1.0}],&#34;stopsVar&#34;:[{&#34;color&#34;:{&#34;r&#34;:0.91020405292510986,&#34;g&#34;:0.91459286212921143,&#34;b&#34;:0.78292816877365112,&#34;a&#34;:1.0},&#34;position&#34;:0.0},{&#34;color&#34;:{&#34;r&#34;:0.59689551591873169,&#34;g&#34;:0.66548830270767212,&#34;b&#34;:0.69727522134780884,&#34;a&#34;:1.0},&#34;position&#34;:0.54329419136047363},{&#34;color&#34;:{&#34;r&#34;:0.43234744668006897,&#34;g&#34;:0.29871997237205505,&#34;b&#34;:0.87140917778015137,&#34;a&#34;:1.0},&#34;position&#34;:1.0}],&#34;transform&#34;:{&#34;m00&#34;:26.418296813964844,&#34;m01&#34;:0.83970659971237183,&#34;m02&#34;:27.313903808593750,&#34;m10&#34;:-0.65603321790695190,&#34;m11&#34;:33.814842224121094,&#34;m12&#34;:15.363391876220703},&#34;opacity&#34;:1.0,&#34;blendMode&#34;:&#34;NORMAL&#34;,&#34;visible&#34;:true}"/>
<path d="M91.6306 40H82.3106V38.28L86.9706 34.08C87.6506 33.4667 88.2106 32.84 88.6506 32.2C89.0906 31.5467 89.3106 30.86 89.3106 30.14V29.9C89.3106 29.06 89.0906 28.4133 88.6506 27.96C88.2106 27.4933 87.5573 27.26 86.6906 27.26C85.8373 27.26 85.1773 27.48 84.7106 27.92C84.2573 28.3467 83.9173 28.92 83.6906 29.64L82.1906 29.08C82.324 28.6667 82.504 28.2667 82.7306 27.88C82.9706 27.48 83.2706 27.1267 83.6306 26.82C83.9906 26.5133 84.424 26.2667 84.9306 26.08C85.4506 25.8933 86.0506 25.8 86.7306 25.8C87.424 25.8 88.0373 25.9 88.5706 26.1C89.1173 26.3 89.5706 26.58 89.9306 26.94C90.304 27.3 90.584 27.7267 90.7706 28.22C90.9706 28.7133 91.0706 29.2533 91.0706 29.84C91.0706 30.3733 90.9906 30.8733 90.8306 31.34C90.684 31.8067 90.4706 32.2533 90.1906 32.68C89.924 33.1067 89.5973 33.5267 89.2106 33.94C88.8373 34.34 88.4173 34.74 87.9506 35.14L84.0506 38.54H91.6306V40ZM98.6328 40.24C97.7795 40.24 97.0461 40.08 96.4328 39.76C95.8195 39.4267 95.3128 38.9533 94.9128 38.34C94.5128 37.7267 94.2195 36.9733 94.0328 36.08C93.8461 35.1867 93.7528 34.1667 93.7528 33.02C93.7528 31.8867 93.8461 30.8733 94.0328 29.98C94.2195 29.0733 94.5128 28.3133 94.9128 27.7C95.3128 27.0867 95.8195 26.62 96.4328 26.3C97.0461 25.9667 97.7795 25.8 98.6328 25.8C99.4861 25.8 100.219 25.9667 100.833 26.3C101.446 26.62 101.953 27.0867 102.353 27.7C102.753 28.3133 103.046 29.0733 103.233 29.98C103.419 30.8733 103.513 31.8867 103.513 33.02C103.513 34.1667 103.419 35.1867 103.233 36.08C103.046 36.9733 102.753 37.7267 102.353 38.34C101.953 38.9533 101.446 39.4267 100.833 39.76C100.219 40.08 99.4861 40.24 98.6328 40.24ZM98.6328 38.78C99.1928 38.78 99.6728 38.6733 100.073 38.46C100.473 38.2333 100.793 37.92 101.033 37.52C101.286 37.12 101.473 36.64 101.593 36.08C101.713 35.5067 101.773 34.8667 101.773 34.16V31.88C101.773 31.1867 101.713 30.5533 101.593 29.98C101.473 29.4067 101.286 28.92 101.033 28.52C100.793 28.12 100.473 27.8133 100.073 27.6C99.6728 27.3733 99.1928 27.26 98.6328 27.26C98.0728 27.26 97.5928 27.3733 97.1928 27.6C96.7928 27.8133 96.4661 28.12 96.2128 28.52C95.9728 28.92 95.7928 29.4067 95.6728 29.98C95.5528 30.5533 95.4928 31.1867 95.4928 31.88V34.16C95.4928 34.8667 95.5528 35.5067 95.6728 36.08C95.7928 36.64 95.9728 37.12 96.2128 37.52C96.4661 37.92 96.7928 38.2333 97.1928 38.46C97.5928 38.6733 98.0728 38.78 98.6328 38.78ZM98.6328 34.2C98.1661 34.2 97.8395 34.1067 97.6528 33.92C97.4795 33.7333 97.3928 33.5067 97.3928 33.24V32.8C97.3928 32.5333 97.4795 32.3067 97.6528 32.12C97.8395 31.9333 98.1661 31.84 98.6328 31.84C99.0995 31.84 99.4195 31.9333 99.5928 32.12C99.7795 32.3067 99.8728 32.5333 99.8728 32.8V33.24C99.8728 33.5067 99.7795 33.7333 99.5928 33.92C99.4195 34.1067 99.0995 34.2 98.6328 34.2ZM114.395 27.5H108.155L107.755 32.84H107.895C108.242 32.3733 108.628 32.0067 109.055 31.74C109.482 31.46 110.068 31.32 110.815 31.32C111.428 31.32 111.988 31.42 112.495 31.62C113.015 31.8067 113.462 32.0867 113.835 32.46C114.208 32.8333 114.502 33.2867 114.715 33.82C114.928 34.34 115.035 34.94 115.035 35.62C115.035 36.3 114.928 36.9267 114.715 37.5C114.502 38.06 114.188 38.5467 113.775 38.96C113.362 39.36 112.862 39.6733 112.275 39.9C111.688 40.1267 111.022 40.24 110.275 40.24C109.688 40.24 109.162 40.1733 108.695 40.04C108.242 39.9067 107.835 39.7267 107.475 39.5C107.128 39.2733 106.822 39.02 106.555 38.74C106.288 38.46 106.048 38.1667 105.835 37.86L107.095 36.9C107.282 37.18 107.468 37.4333 107.655 37.66C107.855 37.8867 108.082 38.0867 108.335 38.26C108.588 38.42 108.875 38.5467 109.195 38.64C109.515 38.7333 109.888 38.78 110.315 38.78C111.275 38.78 112.008 38.52 112.515 38C113.035 37.48 113.295 36.76 113.295 35.84V35.68C113.295 34.76 113.035 34.04 112.515 33.52C111.995 33 111.248 32.74 110.275 32.74C109.608 32.74 109.088 32.8533 108.715 33.08C108.355 33.3067 108.022 33.5867 107.715 33.92L106.295 33.72L106.795 26.04H114.395V27.5ZM122.117 40.24C121.264 40.24 120.531 40.08 119.917 39.76C119.304 39.4267 118.797 38.9533 118.397 38.34C117.997 37.7267 117.704 36.9733 117.517 36.08C117.331 35.1867 117.237 34.1667 117.237 33.02C117.237 31.8867 117.331 30.8733 117.517 29.98C117.704 29.0733 117.997 28.3133 118.397 27.7C118.797 27.0867 119.304 26.62 119.917 26.3C120.531 25.9667 121.264 25.8 122.117 25.8C122.971 25.8 123.704 25.9667 124.317 26.3C124.931 26.62 125.437 27.0867 125.837 27.7C126.237 28.3133 126.531 29.0733 126.717 29.98C126.904 30.8733 126.997 31.8867 126.997 33.02C126.997 34.1667 126.904 35.1867 126.717 36.08C126.531 36.9733 126.237 37.7267 125.837 38.34C125.437 38.9533 124.931 39.4267 124.317 39.76C123.704 40.08 122.971 40.24 122.117 40.24ZM122.117 38.78C122.677 38.78 123.157 38.6733 123.557 38.46C123.957 38.2333 124.277 37.92 124.517 37.52C124.771 37.12 124.957 36.64 125.077 36.08C125.197 35.5067 125.257 34.8667 125.257 34.16V31.88C125.257 31.1867 125.197 30.5533 125.077 29.98C124.957 29.4067 124.771 28.92 124.517 28.52C124.277 28.12 123.957 27.8133 123.557 27.6C123.157 27.3733 122.677 27.26 122.117 27.26C121.557 27.26 121.077 27.3733 120.677 27.6C120.277 27.8133 119.951 28.12 119.697 28.52C119.457 28.92 119.277 29.4067 119.157 29.98C119.037 30.5533 118.977 31.1867 118.977 31.88V34.16C118.977 34.8667 119.037 35.5067 119.157 36.08C119.277 36.64 119.457 37.12 119.697 37.52C119.951 37.92 120.277 38.2333 120.677 38.46C121.077 38.6733 121.557 38.78 122.117 38.78ZM122.117 34.2C121.651 34.2 121.324 34.1067 121.137 33.92C120.964 33.7333 120.877 33.5067 120.877 33.24V32.8C120.877 32.5333 120.964 32.3067 121.137 32.12C121.324 31.9333 121.651 31.84 122.117 31.84C122.584 31.84 122.904 31.9333 123.077 32.12C123.264 32.3067 123.357 32.5333 123.357 32.8V33.24C123.357 33.5067 123.264 33.7333 123.077 33.92C122.904 34.1067 122.584 34.2 122.117 34.2Z" fill="white"/>
<defs>
<filter id="filter0_i_875_777" x="0" y="0" width="158" height="67" filterUnits="userSpaceOnUse" color-interpolation-filters="sRGB">
<feFlood flood-opacity="0" result="BackgroundImageFix"/>
<feBlend mode="normal" in="SourceGraphic" in2="BackgroundImageFix" result="shape"/>
<feColorMatrix in="SourceAlpha" type="matrix" values="0 0 0 0 0 0 0 0 0 0 0 0 0 0 0 0 0 0 127 0" result="hardAlpha"/>
<feOffset dx="2" dy="4"/>
<feGaussianBlur stdDeviation="2"/>
<feComposite in2="hardAlpha" operator="arithmetic" k2="-1" k3="1"/>
<feColorMatrix type="matrix" values="0 0 0 0 0 0 0 0 0 0 0 0 0 0 0 0 0 0 0.25 0"/>
<feBlend mode="normal" in2="shape" result="effect1_innerShadow_875_777"/>
</filter>
<clipPath id="paint0_diamond_875_777_clip_path"><path d="M28.5709 32.1819L41.0634 10.9999L53.0862 32.1819L40.8224 52.8857L28.5709 32.1819Z"/></clipPath><linearGradient id="paint0_diamond_875_777" x1="0" y1="0" x2="500" y2="500" gradientUnits="userSpaceOnUse">
<stop stop-color="#E8E9C8"/>
<stop offset="0.543294" stop-color="#98AAB2"/>
<stop offset="1" stop-color="#6E4CDE"/>
</linearGradient>
</defs>
</svg>
