<svg width="703" height="355" viewBox="0 0 703 355" fill="none" xmlns="http://www.w3.org/2000/svg">
<rect x="181.572" y="79.8389" width="391" height="32" transform="rotate(25.2898 181.572 79.8389)" fill="#98D333"/>
<path d="M184.501 108.872L185.073 107.661L188.22 109.147L193.039 98.9483L189.892 97.4617L190.465 96.2501L198.276 99.9411L197.704 101.153L194.558 99.666L189.739 109.865L192.885 111.352L192.313 112.563L184.501 108.872ZM212.618 120.299L212.546 120.265C211.397 121.137 210.165 121.263 208.851 120.642C207.705 120.101 207.01 119.249 206.763 118.086C206.528 116.928 206.776 115.577 207.505 114.034C208.234 112.491 209.12 111.442 210.163 110.888C211.219 110.34 212.319 110.336 213.464 110.878C214.778 111.498 215.463 112.53 215.519 113.972L215.592 114.006L218.223 108.437L219.67 109.12L213.347 122.502L211.901 121.818L212.618 120.299ZM210.018 119.623C210.343 119.777 210.671 119.88 211 119.933C211.329 119.985 211.639 119.984 211.93 119.93C212.227 119.864 212.49 119.744 212.719 119.572C212.965 119.394 213.162 119.148 213.311 118.834L214.9 115.471C215.048 115.157 215.11 114.855 215.085 114.563C215.079 114.265 215.004 113.986 214.861 113.727C214.724 113.456 214.53 113.21 214.281 112.989C214.031 112.768 213.744 112.58 213.418 112.426C212.575 112.028 211.795 111.976 211.08 112.273C210.383 112.562 209.835 113.129 209.436 113.973L208.684 115.565C208.285 116.408 208.192 117.198 208.406 117.933C208.637 118.661 209.174 119.225 210.018 119.623ZM220.155 125.983C219.504 125.676 218.967 125.282 218.545 124.802C218.135 124.328 217.842 123.792 217.668 123.194C217.511 122.589 217.476 121.945 217.562 121.264C217.654 120.57 217.877 119.849 218.23 119.102C218.578 118.366 218.99 117.743 219.468 117.231C219.945 116.719 220.465 116.338 221.026 116.087C221.605 115.83 222.207 115.709 222.834 115.725C223.473 115.746 224.117 115.911 224.768 116.218C225.419 116.526 225.95 116.917 226.36 117.391C226.782 117.87 227.072 118.413 227.228 119.018C227.403 119.616 227.444 120.262 227.352 120.956C227.26 121.65 227.04 122.365 226.693 123.1C226.34 123.848 225.924 124.477 225.447 124.989C224.975 125.488 224.449 125.867 223.871 126.124C223.31 126.375 222.71 126.49 222.071 126.469C221.444 126.453 220.806 126.291 220.155 125.983ZM220.744 124.736C221.552 125.117 222.317 125.184 223.039 124.935C223.761 124.686 224.361 124.056 224.84 123.043L225.472 121.705C225.951 120.692 226.057 119.828 225.79 119.112C225.524 118.397 224.987 117.848 224.179 117.466C223.371 117.085 222.606 117.018 221.884 117.267C221.162 117.515 220.562 118.146 220.083 119.159L219.451 120.497C218.973 121.51 218.867 122.374 219.133 123.09C219.399 123.805 219.936 124.354 220.744 124.736ZM227.221 129.057L231.63 119.726L233.077 120.409L232.359 121.928L232.431 121.962C232.636 121.779 232.859 121.619 233.1 121.482C233.348 121.334 233.611 121.229 233.89 121.17C234.181 121.115 234.494 121.108 234.829 121.149C235.163 121.189 235.524 121.3 235.91 121.482C236.886 121.944 237.522 122.628 237.816 123.533C238.116 124.427 237.999 125.441 237.463 126.574L234.635 132.56L233.189 131.876L235.897 126.144C236.301 125.288 236.414 124.567 236.234 123.98C236.059 123.382 235.61 122.912 234.887 122.57C234.598 122.433 234.297 122.335 233.986 122.277C233.674 122.218 233.376 122.21 233.091 122.252C232.805 122.294 232.542 122.398 232.301 122.565C232.061 122.731 231.869 122.965 231.727 123.266L228.668 129.74L227.221 129.057ZM247.379 122.212L249.712 123.314L245.266 127.341L244.054 126.768L247.379 122.212ZM252.56 141.029C251.848 140.693 251.418 140.246 251.268 139.689C251.131 139.137 251.21 138.548 251.506 137.921L254.326 131.953L251.216 130.484L251.797 129.254L254.111 130.348C254.425 130.496 254.67 130.538 254.848 130.475C255.043 130.405 255.215 130.213 255.363 129.899L256.516 127.458L257.909 128.116L256.354 131.407L260.603 133.415L260.022 134.645L255.773 132.637L252.526 139.509L256.775 141.516L256.194 142.746L252.56 141.029ZM276.137 135.8L277.584 136.483L273.594 144.928L273.666 144.962L276.02 144.194L280.48 142.807L282.253 143.644L276.657 145.468L278.296 153.189L276.506 152.343L275.161 145.779L272.859 146.483L271.262 149.865L269.815 149.181L276.137 135.8ZM280.305 154.138L284.714 144.807L286.161 145.49L285.443 147.009L285.515 147.044C285.72 146.86 285.943 146.7 286.184 146.564C286.432 146.415 286.695 146.311 286.974 146.251C287.265 146.197 287.578 146.19 287.913 146.23C288.247 146.27 288.608 146.381 288.994 146.564C289.97 147.025 290.606 147.709 290.9 148.615C291.2 149.509 291.083 150.522 290.547 151.655L287.719 157.641L286.273 156.957L288.981 151.225C289.385 150.369 289.498 149.648 289.318 149.061C289.143 148.463 288.694 147.993 287.971 147.651C287.682 147.514 287.381 147.417 287.07 147.358C286.758 147.299 286.46 147.291 286.175 147.333C285.889 147.375 285.626 147.48 285.385 147.646C285.145 147.812 284.953 148.046 284.811 148.348L281.752 154.821L280.305 154.138ZM294.472 161.097C293.821 160.789 293.285 160.396 292.862 159.916C292.452 159.442 292.16 158.906 291.986 158.307C291.829 157.702 291.794 157.059 291.88 156.377C291.972 155.683 292.194 154.963 292.548 154.215C292.895 153.48 293.308 152.856 293.785 152.345C294.263 151.833 294.782 151.452 295.343 151.201C295.922 150.943 296.525 150.822 297.151 150.838C297.79 150.86 298.435 151.024 299.086 151.332C299.737 151.64 300.268 152.03 300.678 152.504C301.1 152.984 301.389 153.526 301.546 154.131C301.72 154.73 301.762 155.376 301.67 156.07C301.578 156.764 301.358 157.478 301.011 158.214C300.657 158.961 300.242 159.591 299.764 160.102C299.292 160.602 298.767 160.98 298.188 161.238C297.627 161.489 297.027 161.604 296.389 161.582C295.762 161.566 295.123 161.405 294.472 161.097ZM295.062 159.849C295.869 160.231 296.634 160.297 297.357 160.049C298.079 159.8 298.679 159.169 299.157 158.157L299.79 156.818C300.268 155.806 300.374 154.942 300.108 154.226C299.841 153.51 299.304 152.961 298.496 152.58C297.689 152.198 296.924 152.132 296.202 152.38C295.48 152.629 294.879 153.26 294.401 154.272L293.769 155.611C293.29 156.623 293.184 157.487 293.451 158.203C293.717 158.919 294.254 159.468 295.062 159.849ZM304.718 154.258L306.002 154.865L303.258 163.434L303.421 163.511L308.823 156.198L310.414 156.95L308.195 165.767L308.357 165.844L313.235 158.283L314.483 158.872L308.645 167.528L306.765 166.64L308.973 158.127L308.828 158.059L303.618 165.153L301.738 164.264L304.718 154.258ZM325.951 164.291L327.235 164.898L324.492 173.467L324.654 173.544L330.056 166.23L331.648 166.982L329.428 175.799L329.591 175.876L334.469 168.315L335.716 168.905L329.879 177.561L327.998 176.672L330.207 168.159L330.062 168.091L324.852 175.185L322.971 174.297L325.951 164.291ZM339.712 165.837L341.158 166.521L338.527 172.091L338.599 172.125C338.804 171.941 339.027 171.781 339.268 171.645C339.516 171.496 339.779 171.392 340.058 171.332C340.349 171.278 340.662 171.271 340.997 171.311C341.331 171.351 341.692 171.462 342.078 171.645C343.054 172.106 343.69 172.79 343.984 173.696C344.284 174.59 344.167 175.603 343.631 176.737L340.803 182.722L339.357 182.039L342.065 176.306C342.469 175.45 342.582 174.729 342.402 174.143C342.227 173.544 341.778 173.074 341.055 172.732C340.766 172.595 340.465 172.498 340.154 172.439C339.842 172.38 339.544 172.372 339.259 172.414C338.973 172.456 338.71 172.561 338.469 172.727C338.229 172.893 338.037 173.127 337.895 173.429L334.836 179.903L333.389 179.219L339.712 165.837ZM351.185 187.627C350.618 187.359 350.283 187.024 350.178 186.621C350.074 186.218 350.094 185.785 350.239 185.322L350.149 185.279C349.687 185.725 349.154 185.996 348.547 186.093C347.959 186.184 347.285 186.05 346.525 185.691C345.549 185.23 344.891 184.609 344.552 183.829C344.212 183.05 344.25 182.22 344.666 181.34C345.076 180.472 345.706 179.951 346.555 179.777C347.416 179.609 348.552 179.858 349.962 180.524L351.951 181.464L352.387 180.542C352.712 179.855 352.761 179.251 352.535 178.731C352.314 178.199 351.848 177.765 351.137 177.429C350.51 177.133 349.938 177.018 349.42 177.083C348.909 177.136 348.433 177.317 347.992 177.625L347.357 176.44C347.592 176.256 347.866 176.097 348.179 175.965C348.492 175.833 348.839 175.754 349.22 175.727C349.607 175.689 350.016 175.713 350.447 175.798C350.885 175.872 351.338 176.02 351.808 176.242C352.905 176.761 353.642 177.448 354.019 178.304C354.408 179.167 354.369 180.092 353.902 181.081L351.476 186.216L352.778 186.831L352.18 188.097L351.185 187.627ZM347.351 184.599C347.725 184.776 348.082 184.893 348.424 184.951C348.783 185.003 349.111 185.01 349.408 184.974C349.711 184.925 349.972 184.827 350.189 184.679C350.424 184.525 350.599 184.327 350.712 184.086L351.439 182.549L349.45 181.609C348.582 181.199 347.892 181.02 347.38 181.074C346.868 181.127 346.504 181.382 346.288 181.84L346.108 182.22C345.88 182.702 345.875 183.15 346.093 183.563C346.329 183.969 346.748 184.314 347.351 184.599ZM358.728 191.191C358.016 190.855 357.586 190.408 357.436 189.851C357.299 189.299 357.378 188.71 357.674 188.083L360.494 182.116L357.384 180.646L357.965 179.416L360.279 180.51C360.593 180.658 360.838 180.7 361.016 180.637C361.211 180.567 361.383 180.375 361.531 180.062L362.684 177.621L364.076 178.278L362.521 181.57L366.771 183.577L366.19 184.807L361.94 182.799L358.694 189.671L362.943 191.679L362.362 192.908L358.728 191.191ZM379.961 201.223C379.25 200.887 378.82 200.441 378.67 199.883C378.532 199.332 378.612 198.742 378.908 198.116L381.727 192.148L378.617 190.679L379.198 189.449L381.513 190.543C381.826 190.691 382.072 190.733 382.249 190.669C382.444 190.599 382.616 190.408 382.764 190.094L383.918 187.653L385.31 188.311L383.755 191.602L388.005 193.61L387.424 194.839L383.174 192.832L379.927 199.703L384.177 201.711L383.596 202.941L379.961 201.223ZM390.023 206.243C389.372 205.935 388.836 205.542 388.414 205.062C388.003 204.588 387.711 204.052 387.537 203.453C387.38 202.849 387.345 202.205 387.431 201.523C387.523 200.829 387.746 200.109 388.099 199.361C388.446 198.626 388.859 198.002 389.337 197.491C389.814 196.979 390.334 196.598 390.895 196.347C391.473 196.089 392.076 195.969 392.703 195.984C393.341 196.006 393.986 196.171 394.637 196.478C395.288 196.786 395.819 197.177 396.229 197.65C396.651 198.13 396.941 198.672 397.097 199.277C397.271 199.876 397.313 200.522 397.221 201.216C397.129 201.91 396.909 202.625 396.562 203.36C396.209 204.107 395.793 204.737 395.315 205.248C394.844 205.748 394.318 206.127 393.739 206.384C393.178 206.635 392.578 206.75 391.94 206.728C391.313 206.712 390.674 206.551 390.023 206.243ZM390.613 204.995C391.421 205.377 392.186 205.443 392.908 205.195C393.63 204.946 394.23 204.315 394.709 203.303L395.341 201.965C395.819 200.952 395.925 200.088 395.659 199.372C395.392 198.656 394.855 198.108 394.048 197.726C393.24 197.344 392.475 197.278 391.753 197.526C391.031 197.775 390.43 198.406 389.952 199.418L389.32 200.757C388.841 201.769 388.735 202.633 389.002 203.349C389.268 204.065 389.805 204.614 390.613 204.995ZM411.812 216.272C411.1 215.936 410.67 215.489 410.52 214.932C410.383 214.38 410.462 213.791 410.758 213.164L413.578 207.197L410.468 205.727L411.049 204.498L413.363 205.591C413.677 205.739 413.922 205.782 414.1 205.718C414.295 205.648 414.467 205.456 414.615 205.143L415.768 202.702L417.16 203.36L415.605 206.651L419.855 208.659L419.274 209.888L415.024 207.88L411.778 214.752L416.027 216.76L415.446 217.989L411.812 216.272ZM424.646 205.967L426.093 206.651L423.461 212.22L423.534 212.255C423.738 212.071 423.961 211.911 424.203 211.775C424.45 211.626 424.713 211.522 424.992 211.462C425.283 211.408 425.596 211.401 425.931 211.441C426.266 211.481 426.626 211.592 427.012 211.775C427.988 212.236 428.624 212.92 428.918 213.826C429.219 214.72 429.101 215.733 428.566 216.866L425.738 222.852L424.291 222.168L426.999 216.436C427.404 215.58 427.516 214.859 427.336 214.272C427.162 213.674 426.713 213.204 425.989 212.862C425.7 212.725 425.4 212.628 425.088 212.569C424.777 212.51 424.478 212.502 424.193 212.544C423.908 212.586 423.645 212.691 423.404 212.857C423.163 213.023 422.971 213.257 422.829 213.559L419.77 220.032L418.324 219.349L424.646 205.967ZM438.554 214.972C438.133 214.773 437.877 214.549 437.788 214.3C437.705 214.04 437.726 213.777 437.851 213.511L437.988 213.222C438.113 212.957 438.3 212.78 438.548 212.691C438.803 212.59 439.141 212.639 439.563 212.838C439.985 213.038 440.237 213.268 440.321 213.528C440.41 213.777 440.391 214.033 440.266 214.299L440.129 214.588C440.004 214.853 439.814 215.036 439.56 215.137C439.312 215.227 438.976 215.171 438.554 214.972ZM429.666 223.204L433.029 224.793L436.276 217.921L432.913 216.332L433.494 215.103L438.304 217.375L434.476 225.476L437.623 226.963L437.042 228.193L429.085 224.433L429.666 223.204ZM439.557 229.381L443.966 220.05L445.412 220.734L444.695 222.253L444.767 222.287C444.972 222.104 445.195 221.944 445.436 221.807C445.684 221.658 445.947 221.554 446.226 221.494C446.517 221.44 446.83 221.433 447.165 221.473C447.499 221.514 447.86 221.625 448.246 221.807C449.222 222.268 449.858 222.952 450.152 223.858C450.452 224.752 450.335 225.766 449.799 226.899L446.971 232.884L445.525 232.201L448.233 226.468C448.637 225.613 448.75 224.891 448.57 224.305C448.395 223.706 447.946 223.236 447.223 222.894C446.934 222.758 446.633 222.66 446.322 222.601C446.01 222.543 445.712 222.534 445.427 222.577C445.141 222.619 444.878 222.723 444.637 222.889C444.397 223.056 444.205 223.29 444.063 223.591L441.004 230.065L439.557 229.381ZM456.623 221.076L458.07 221.759L454.08 230.204L454.152 230.238L456.506 229.47L460.966 228.083L462.738 228.92L457.142 230.744L458.782 238.464L456.991 237.619L455.646 231.055L453.345 231.759L451.747 235.141L450.301 234.457L456.623 221.076ZM482.489 238.252L483.936 238.935L473.932 248.122C473.698 248.336 473.47 248.508 473.246 248.639C473.016 248.781 472.783 248.87 472.545 248.905C472.301 248.952 472.039 248.946 471.757 248.887C471.47 248.839 471.151 248.733 470.802 248.568L469.427 247.919L470.008 246.689L472.178 247.714L474.441 245.642L475.002 234.715L476.485 235.415L476.213 240.065L475.931 244.267L476.003 244.301L479.07 241.414L482.489 238.252ZM485.737 251.466C485.062 251.147 484.508 250.745 484.073 250.26C483.651 249.78 483.347 249.238 483.16 248.634C482.992 248.023 482.944 247.374 483.019 246.687C483.098 245.987 483.312 245.269 483.66 244.534C484.013 243.787 484.434 243.16 484.924 242.654C485.426 242.154 485.963 241.781 486.536 241.536C487.115 241.278 487.718 241.157 488.344 241.173C488.983 241.195 489.622 241.357 490.261 241.658C490.888 241.955 491.4 242.337 491.798 242.805C492.208 243.279 492.497 243.806 492.665 244.387C492.839 244.956 492.891 245.563 492.822 246.209C492.753 246.855 492.562 247.509 492.249 248.172L491.924 248.859L485.016 245.595L484.811 246.029C484.617 246.439 484.504 246.85 484.472 247.263C484.439 247.675 484.484 248.064 484.605 248.432C484.739 248.804 484.946 249.146 485.227 249.455C485.526 249.759 485.893 250.013 486.327 250.218C486.954 250.514 487.565 250.626 488.159 250.553C488.754 250.48 489.292 250.248 489.772 249.855L490.497 251.083C489.924 251.579 489.215 251.878 488.37 251.98C487.543 252.076 486.666 251.905 485.737 251.466ZM489.697 242.852C489.299 242.664 488.897 242.563 488.491 242.548C488.085 242.533 487.696 242.592 487.323 242.726C486.962 242.865 486.627 243.075 486.317 243.357C486.025 243.631 485.782 243.974 485.589 244.384L485.529 244.51L490.881 247.039L490.975 246.84C491.169 246.431 491.279 246.025 491.306 245.625C491.345 245.231 491.307 244.859 491.192 244.509C491.095 244.154 490.914 243.833 490.652 243.546C490.401 243.266 490.083 243.034 489.697 242.852ZM496.746 256.402C496.035 256.066 495.604 255.619 495.455 255.062C495.317 254.51 495.397 253.921 495.693 253.294L498.512 247.327L495.402 245.857L495.983 244.627L498.298 245.721C498.611 245.869 498.856 245.911 499.034 245.848C499.229 245.778 499.401 245.586 499.549 245.273L500.702 242.832L502.095 243.489L500.54 246.781L504.789 248.788L504.208 250.018L499.959 248.01L496.712 254.882L500.962 256.89L500.381 258.119L496.746 256.402ZM506.834 261.367C506.34 261.134 506.038 260.866 505.93 260.564C505.834 260.268 505.86 259.964 506.008 259.65L506.162 259.325C506.31 259.011 506.529 258.798 506.819 258.684C507.121 258.576 507.519 258.638 508.013 258.872C508.507 259.105 508.802 259.37 508.898 259.666C509.006 259.968 508.987 260.276 508.838 260.589L508.685 260.915C508.537 261.228 508.312 261.439 508.01 261.547C507.72 261.661 507.328 261.601 506.834 261.367Z" fill="#423A48"/>
</svg>
