<svg width="825" height="608" viewBox="0 0 825 608" fill="none" xmlns="http://www.w3.org/2000/svg">
<path d="M352.491 224.646L375.631 371.521L428.017 319.456L393.288 267L319.709 319.456L352.491 456.368L634.671 290.21L519.788 86.5M519.788 86.5L192.787 304.476L719.839 423.586C735.908 351.488 754.549 203.435 754.549 203.435L603.288 100.062L519.788 86.5ZM519.788 86.5C519.788 86.5 289.391 203.328 184.404 267.07L226.827 456.368H592.247L715.982 276.712V79.6999L275.357 54.6313L95.7003 251.643L124.418 334.883M124.418 334.883L184.404 508.755L453.086 607.422L810.471 224.646L483.788 1L184.404 54.6313L0.890381 290.21L634.671 587.817L824.29 456.368L754.549 54.6313L124.418 334.883Z" stroke="#A3FFF6"/>
<path d="M132.017 335.848L169.62 418.766L68.0608 554.393L184.288 509" stroke="#A3FFF6"/>
<path d="M186.011 268.034L275.357 54.31L483.788 0.5" stroke="#A3FFF6"/>
<path d="M355.705 456.368L454.693 607.1" stroke="#A3FFF6"/>
<path d="M186.011 266.749L96.9858 250.358L226.788 456L321.637 318.171L375.631 370.879L636.92 289.246L714.697 83.2354L393.307 266.749L353.133 224.004" stroke="#A3FFF6"/>
<path d="M277.607 55.5957L355.704 230.432L483.788 0.5" stroke="#A3FFF6"/>
</svg>
