<svg width="303" height="84" viewBox="0 0 303 84" fill="none" xmlns="http://www.w3.org/2000/svg">
<rect width="303" height="84" rx="5" fill="url(#paint0_radial_518_26)"/>
<rect x="0.5" y="0.5" width="302" height="83" rx="4.5" stroke="#FFF7E4" stroke-opacity="0.39"/>
<path d="M68.1895 45.7227C68.1048 46.3802 67.9355 46.9857 67.6816 47.5391C67.4277 48.0859 67.099 48.5547 66.6953 48.9453C66.2852 49.3424 65.8001 49.6517 65.2402 49.873C64.6868 50.0879 64.0684 50.1953 63.3848 50.1953C62.7988 50.1953 62.265 50.1139 61.7832 49.9512C61.3079 49.7819 60.8848 49.5508 60.5137 49.2578C60.1361 48.9648 59.8105 48.6198 59.5371 48.2227C59.2702 47.8255 59.0488 47.3926 58.873 46.9238C58.6908 46.4551 58.554 45.9635 58.4629 45.4492C58.3783 44.9349 58.3327 44.4141 58.3262 43.8867V41.9043C58.3327 41.377 58.3783 40.8561 58.4629 40.3418C58.554 39.8275 58.6908 39.3359 58.873 38.8672C59.0488 38.3984 59.2702 37.9655 59.5371 37.5684C59.8105 37.1647 60.1361 36.8164 60.5137 36.5234C60.8848 36.2305 61.3079 36.0026 61.7832 35.8398C62.2585 35.6706 62.7923 35.5859 63.3848 35.5859C64.0944 35.5859 64.7292 35.6966 65.2891 35.918C65.849 36.1328 66.3307 36.4388 66.7344 36.8359C67.138 37.2396 67.4603 37.7214 67.7012 38.2812C67.9486 38.8411 68.1113 39.4596 68.1895 40.1367H66.3828C66.3242 39.707 66.2233 39.3066 66.0801 38.9355C65.9368 38.5645 65.7448 38.2389 65.5039 37.959C65.263 37.679 64.9668 37.4609 64.6152 37.3047C64.2702 37.1419 63.86 37.0605 63.3848 37.0605C62.9551 37.0605 62.5742 37.1322 62.2422 37.2754C61.9167 37.4121 61.6367 37.6009 61.4023 37.8418C61.1615 38.0827 60.9596 38.3626 60.7969 38.6816C60.6406 39.0007 60.5137 39.3392 60.416 39.6973C60.3184 40.0553 60.2467 40.4232 60.2012 40.8008C60.1621 41.1719 60.1426 41.5332 60.1426 41.8848V43.8867C60.1426 44.2383 60.1621 44.6029 60.2012 44.9805C60.2467 45.3516 60.3184 45.7161 60.416 46.0742C60.5137 46.4388 60.6406 46.7806 60.7969 47.0996C60.9531 47.4186 61.1517 47.6986 61.3926 47.9395C61.6335 48.1868 61.9167 48.3822 62.2422 48.5254C62.5677 48.6621 62.9486 48.7305 63.3848 48.7305C63.86 48.7305 64.2702 48.6556 64.6152 48.5059C64.9668 48.3561 65.263 48.1445 65.5039 47.8711C65.7448 47.6042 65.9368 47.2884 66.0801 46.9238C66.2233 46.5527 66.3242 46.1523 66.3828 45.7227H68.1895ZM71.0254 35H76.4258V48.4375H79.873V50H71.0254V48.4375H74.6191V36.5723H71.0254V35ZM82.7871 39.4336H88.1875V48.4375H91.6348V50H82.7871V48.4375H86.3809V41.0059H82.7871V39.4336ZM86.1465 36.6602C86.1465 36.5039 86.1693 36.3574 86.2148 36.2207C86.2669 36.084 86.3451 35.9668 86.4492 35.8691C86.5339 35.7845 86.6413 35.7194 86.7715 35.6738C86.9082 35.6217 87.0612 35.5957 87.2305 35.5957C87.3997 35.5957 87.5495 35.6217 87.6797 35.6738C87.8099 35.7194 87.9173 35.7845 88.002 35.8691C88.1061 35.9603 88.1842 36.0742 88.2363 36.2109C88.2884 36.3477 88.3145 36.4974 88.3145 36.6602C88.3145 36.9531 88.2233 37.1973 88.041 37.3926C87.8587 37.5879 87.5885 37.6855 87.2305 37.6855C86.8659 37.6855 86.5924 37.5879 86.4102 37.3926C86.2344 37.1973 86.1465 36.9531 86.1465 36.6602ZM98.7676 48.7305C99.0931 48.7305 99.4089 48.6784 99.7148 48.5742C100.027 48.4701 100.304 48.3236 100.545 48.1348C100.786 47.9525 100.978 47.7376 101.121 47.4902C101.271 47.2363 101.349 46.9629 101.355 46.6699H103.064C103.058 47.1387 102.934 47.5879 102.693 48.0176C102.459 48.4408 102.143 48.8118 101.746 49.1309C101.349 49.4564 100.893 49.7168 100.379 49.9121C99.8646 50.1009 99.3275 50.1953 98.7676 50.1953C97.9668 50.1953 97.2669 50.0521 96.668 49.7656C96.069 49.4792 95.571 49.0918 95.1738 48.6035C94.7702 48.1217 94.4674 47.5651 94.2656 46.9336C94.0638 46.2956 93.9629 45.625 93.9629 44.9219V44.5117C93.9629 43.8151 94.0638 43.1478 94.2656 42.5098C94.4674 41.8717 94.7702 41.3086 95.1738 40.8203C95.571 40.3385 96.069 39.9544 96.668 39.668C97.2669 39.3815 97.9668 39.2383 98.7676 39.2383C99.3926 39.2383 99.9655 39.3392 100.486 39.541C101.014 39.7363 101.469 40.0033 101.854 40.3418C102.231 40.6868 102.527 41.0938 102.742 41.5625C102.957 42.0312 103.064 42.5326 103.064 43.0664H101.355C101.349 42.7474 101.277 42.4479 101.141 42.168C101.01 41.8815 100.831 41.6309 100.604 41.416C100.376 41.2012 100.102 41.0319 99.7832 40.9082C99.4707 40.7845 99.1322 40.7227 98.7676 40.7227C98.2077 40.7227 97.7357 40.8366 97.3516 41.0645C96.974 41.2858 96.668 41.5755 96.4336 41.9336C96.1992 42.2982 96.0299 42.7051 95.9258 43.1543C95.8281 43.6035 95.7793 44.056 95.7793 44.5117V44.9219C95.7793 45.3841 95.8281 45.8431 95.9258 46.2988C96.0299 46.748 96.1992 47.1517 96.4336 47.5098C96.6615 47.8743 96.9642 48.1706 97.3418 48.3984C97.7259 48.6198 98.2012 48.7305 98.7676 48.7305ZM109.191 45.0684L107.863 46.3477V50H106.047V35H107.863V44.1797L109.045 42.9102L112.512 39.4336H114.709L110.432 43.8379L115.363 50H113.068L109.191 45.0684ZM133.828 36.875V39.4336H137.852V40.8301H133.828V46.5723C133.828 46.9824 133.88 47.321 133.984 47.5879C134.089 47.8548 134.232 48.0664 134.414 48.2227C134.596 48.3854 134.805 48.4993 135.039 48.5645C135.28 48.6296 135.534 48.6621 135.801 48.6621C135.996 48.6621 136.198 48.6523 136.406 48.6328C136.615 48.6068 136.82 48.5775 137.021 48.5449C137.217 48.5124 137.399 48.4798 137.568 48.4473C137.744 48.4082 137.887 48.3757 137.998 48.3496L138.252 49.6289C138.102 49.7201 137.92 49.8014 137.705 49.873C137.49 49.9382 137.256 49.9935 137.002 50.0391C136.748 50.0911 136.478 50.1302 136.191 50.1562C135.911 50.1823 135.632 50.1953 135.352 50.1953C134.883 50.1953 134.443 50.1302 134.033 50C133.63 49.8633 133.278 49.6484 132.979 49.3555C132.679 49.069 132.441 48.6979 132.266 48.2422C132.096 47.7799 132.012 47.2233 132.012 46.5723V40.8301H129.238V39.4336H132.012V36.875H133.828ZM140.805 44.6191C140.805 43.8574 140.915 43.151 141.137 42.5C141.358 41.8424 141.677 41.2728 142.094 40.791C142.504 40.3092 143.005 39.9316 143.598 39.6582C144.19 39.3783 144.857 39.2383 145.6 39.2383C146.348 39.2383 147.019 39.3783 147.611 39.6582C148.21 39.9316 148.718 40.3092 149.135 40.791C149.545 41.2728 149.861 41.8424 150.082 42.5C150.303 43.151 150.414 43.8574 150.414 44.6191V44.834C150.414 45.5957 150.303 46.3021 150.082 46.9531C149.861 47.6042 149.545 48.1706 149.135 48.6523C148.718 49.1341 148.214 49.5117 147.621 49.7852C147.029 50.0586 146.361 50.1953 145.619 50.1953C144.87 50.1953 144.197 50.0586 143.598 49.7852C143.005 49.5117 142.504 49.1341 142.094 48.6523C141.677 48.1706 141.358 47.6042 141.137 46.9531C140.915 46.3021 140.805 45.5957 140.805 44.834V44.6191ZM142.611 44.834C142.611 45.3548 142.673 45.8529 142.797 46.3281C142.921 46.7969 143.109 47.2103 143.363 47.5684C143.611 47.9264 143.923 48.2096 144.301 48.418C144.678 48.6263 145.118 48.7305 145.619 48.7305C146.114 48.7305 146.547 48.6263 146.918 48.418C147.296 48.2096 147.611 47.9264 147.865 47.5684C148.113 47.2103 148.298 46.7969 148.422 46.3281C148.546 45.8529 148.607 45.3548 148.607 44.834V44.6191C148.607 44.1048 148.542 43.6133 148.412 43.1445C148.288 42.6693 148.103 42.2526 147.855 41.8945C147.602 41.5365 147.286 41.2533 146.908 41.0449C146.537 40.8301 146.101 40.7227 145.6 40.7227C145.098 40.7227 144.662 40.8301 144.291 41.0449C143.92 41.2533 143.611 41.5365 143.363 41.8945C143.109 42.2526 142.921 42.6693 142.797 43.1445C142.673 43.6133 142.611 44.1048 142.611 44.6191V44.834ZM171.76 39.2383C172.092 39.2383 172.437 39.2611 172.795 39.3066C173.16 39.3522 173.433 39.4141 173.615 39.4922L173.371 41.2598C173.02 41.1816 172.684 41.1263 172.365 41.0938C172.053 41.0547 171.724 41.0352 171.379 41.0352C170.936 41.0352 170.536 41.0905 170.178 41.2012C169.82 41.3053 169.507 41.4616 169.24 41.6699C168.999 41.8522 168.788 42.0768 168.605 42.3438C168.43 42.6042 168.283 42.8971 168.166 43.2227V50H166.35V39.4336H168.068L168.146 40.8496L168.156 41.1133C168.586 40.5339 169.1 40.0781 169.699 39.7461C170.305 39.4076 170.992 39.2383 171.76 39.2383ZM181.266 50.1953C180.523 50.1953 179.84 50.0684 179.215 49.8145C178.596 49.5605 178.066 49.2057 177.623 48.75C177.18 48.2943 176.835 47.7539 176.588 47.1289C176.34 46.5039 176.217 45.8236 176.217 45.0879V44.6777C176.217 43.8249 176.354 43.0632 176.627 42.3926C176.9 41.7155 177.265 41.1426 177.721 40.6738C178.17 40.2116 178.681 39.8568 179.254 39.6094C179.833 39.362 180.426 39.2383 181.031 39.2383C181.793 39.2383 182.457 39.3717 183.023 39.6387C183.596 39.8991 184.072 40.2604 184.449 40.7227C184.827 41.1914 185.107 41.7415 185.289 42.373C185.478 43.0046 185.572 43.6882 185.572 44.4238V45.2344H178.023V45.3027C178.069 45.8171 178.17 46.2695 178.326 46.6602C178.489 47.0508 178.71 47.3958 178.99 47.6953C179.277 48.0143 179.622 48.265 180.025 48.4473C180.429 48.6296 180.875 48.7207 181.363 48.7207C182.008 48.7207 182.581 48.5905 183.082 48.3301C183.583 48.0697 184 47.7246 184.332 47.2949L185.436 48.1543C185.084 48.6882 184.557 49.1634 183.854 49.5801C183.157 49.9902 182.294 50.1953 181.266 50.1953ZM181.031 40.7227C180.667 40.7227 180.322 40.791 179.996 40.9277C179.671 41.0579 179.378 41.25 179.117 41.5039C178.857 41.7643 178.635 42.0833 178.453 42.4609C178.277 42.832 178.154 43.2617 178.082 43.75H183.766V43.6621C183.766 43.3366 183.704 42.9883 183.58 42.6172C183.456 42.2396 183.284 41.9141 183.062 41.6406C182.841 41.3672 182.561 41.1458 182.223 40.9766C181.891 40.8073 181.493 40.7227 181.031 40.7227ZM192.861 48.7305C193.187 48.7305 193.503 48.6784 193.809 48.5742C194.121 48.4701 194.398 48.3236 194.639 48.1348C194.88 47.9525 195.072 47.7376 195.215 47.4902C195.365 47.2363 195.443 46.9629 195.449 46.6699H197.158C197.152 47.1387 197.028 47.5879 196.787 48.0176C196.553 48.4408 196.237 48.8118 195.84 49.1309C195.443 49.4564 194.987 49.7168 194.473 49.9121C193.958 50.1009 193.421 50.1953 192.861 50.1953C192.061 50.1953 191.361 50.0521 190.762 49.7656C190.163 49.4792 189.665 49.0918 189.268 48.6035C188.864 48.1217 188.561 47.5651 188.359 46.9336C188.158 46.2956 188.057 45.625 188.057 44.9219V44.5117C188.057 43.8151 188.158 43.1478 188.359 42.5098C188.561 41.8717 188.864 41.3086 189.268 40.8203C189.665 40.3385 190.163 39.9544 190.762 39.668C191.361 39.3815 192.061 39.2383 192.861 39.2383C193.486 39.2383 194.059 39.3392 194.58 39.541C195.107 39.7363 195.563 40.0033 195.947 40.3418C196.325 40.6868 196.621 41.0938 196.836 41.5625C197.051 42.0312 197.158 42.5326 197.158 43.0664H195.449C195.443 42.7474 195.371 42.4479 195.234 42.168C195.104 41.8815 194.925 41.6309 194.697 41.416C194.469 41.2012 194.196 41.0319 193.877 40.9082C193.564 40.7845 193.226 40.7227 192.861 40.7227C192.301 40.7227 191.829 40.8366 191.445 41.0645C191.068 41.2858 190.762 41.5755 190.527 41.9336C190.293 42.2982 190.124 42.7051 190.02 43.1543C189.922 43.6035 189.873 44.056 189.873 44.5117V44.9219C189.873 45.3841 189.922 45.8431 190.02 46.2988C190.124 46.748 190.293 47.1517 190.527 47.5098C190.755 47.8743 191.058 48.1706 191.436 48.3984C191.82 48.6198 192.295 48.7305 192.861 48.7305ZM204.789 50.1953C204.047 50.1953 203.363 50.0684 202.738 49.8145C202.12 49.5605 201.589 49.2057 201.146 48.75C200.704 48.2943 200.359 47.7539 200.111 47.1289C199.864 46.5039 199.74 45.8236 199.74 45.0879V44.6777C199.74 43.8249 199.877 43.0632 200.15 42.3926C200.424 41.7155 200.788 41.1426 201.244 40.6738C201.693 40.2116 202.204 39.8568 202.777 39.6094C203.357 39.362 203.949 39.2383 204.555 39.2383C205.316 39.2383 205.98 39.3717 206.547 39.6387C207.12 39.8991 207.595 40.2604 207.973 40.7227C208.35 41.1914 208.63 41.7415 208.812 42.373C209.001 43.0046 209.096 43.6882 209.096 44.4238V45.2344H201.547V45.3027C201.592 45.8171 201.693 46.2695 201.85 46.6602C202.012 47.0508 202.234 47.3958 202.514 47.6953C202.8 48.0143 203.145 48.265 203.549 48.4473C203.952 48.6296 204.398 48.7207 204.887 48.7207C205.531 48.7207 206.104 48.5905 206.605 48.3301C207.107 48.0697 207.523 47.7246 207.855 47.2949L208.959 48.1543C208.607 48.6882 208.08 49.1634 207.377 49.5801C206.68 49.9902 205.818 50.1953 204.789 50.1953ZM204.555 40.7227C204.19 40.7227 203.845 40.791 203.52 40.9277C203.194 41.0579 202.901 41.25 202.641 41.5039C202.38 41.7643 202.159 42.0833 201.977 42.4609C201.801 42.832 201.677 43.2617 201.605 43.75H207.289V43.6621C207.289 43.3366 207.227 42.9883 207.104 42.6172C206.98 42.2396 206.807 41.9141 206.586 41.6406C206.365 41.3672 206.085 41.1458 205.746 40.9766C205.414 40.8073 205.017 40.7227 204.555 40.7227ZM212.166 39.4336H217.566V48.4375H221.014V50H212.166V48.4375H215.76V41.0059H212.166V39.4336ZM215.525 36.6602C215.525 36.5039 215.548 36.3574 215.594 36.2207C215.646 36.084 215.724 35.9668 215.828 35.8691C215.913 35.7845 216.02 35.7194 216.15 35.6738C216.287 35.6217 216.44 35.5957 216.609 35.5957C216.779 35.5957 216.928 35.6217 217.059 35.6738C217.189 35.7194 217.296 35.7845 217.381 35.8691C217.485 35.9603 217.563 36.0742 217.615 36.2109C217.667 36.3477 217.693 36.4974 217.693 36.6602C217.693 36.9531 217.602 37.1973 217.42 37.3926C217.238 37.5879 216.967 37.6855 216.609 37.6855C216.245 37.6855 215.971 37.5879 215.789 37.3926C215.613 37.1973 215.525 36.9531 215.525 36.6602ZM227.248 50L222.902 39.4336H224.758L227.785 47.4023L227.951 48.0566L228.127 47.4023L231.086 39.4336H232.932L228.625 50H227.248ZM240.074 50.1953C239.332 50.1953 238.648 50.0684 238.023 49.8145C237.405 49.5605 236.874 49.2057 236.432 48.75C235.989 48.2943 235.644 47.7539 235.396 47.1289C235.149 46.5039 235.025 45.8236 235.025 45.0879V44.6777C235.025 43.8249 235.162 43.0632 235.436 42.3926C235.709 41.7155 236.074 41.1426 236.529 40.6738C236.979 40.2116 237.49 39.8568 238.062 39.6094C238.642 39.362 239.234 39.2383 239.84 39.2383C240.602 39.2383 241.266 39.3717 241.832 39.6387C242.405 39.8991 242.88 40.2604 243.258 40.7227C243.635 41.1914 243.915 41.7415 244.098 42.373C244.286 43.0046 244.381 43.6882 244.381 44.4238V45.2344H236.832V45.3027C236.878 45.8171 236.979 46.2695 237.135 46.6602C237.298 47.0508 237.519 47.3958 237.799 47.6953C238.085 48.0143 238.43 48.265 238.834 48.4473C239.238 48.6296 239.684 48.7207 240.172 48.7207C240.816 48.7207 241.389 48.5905 241.891 48.3301C242.392 48.0697 242.809 47.7246 243.141 47.2949L244.244 48.1543C243.893 48.6882 243.365 49.1634 242.662 49.5801C241.965 49.9902 241.103 50.1953 240.074 50.1953ZM239.84 40.7227C239.475 40.7227 239.13 40.791 238.805 40.9277C238.479 41.0579 238.186 41.25 237.926 41.5039C237.665 41.7643 237.444 42.0833 237.262 42.4609C237.086 42.832 236.962 43.2617 236.891 43.75H242.574V43.6621C242.574 43.3366 242.512 42.9883 242.389 42.6172C242.265 42.2396 242.092 41.9141 241.871 41.6406C241.65 41.3672 241.37 41.1458 241.031 40.9766C240.699 40.8073 240.302 40.7227 239.84 40.7227Z" fill="#FCFFBA"/>
<defs>
<radialGradient id="paint0_radial_518_26" cx="0" cy="0" r="1" gradientUnits="userSpaceOnUse" gradientTransform="translate(151.5 42) rotate(-1.67944) scale(251.5 126.416)">
<stop offset="0.125008" stop-color="#B4B4B4" stop-opacity="0.09"/>
<stop offset="0.9999" stop-color="#B1B48D" stop-opacity="0.46"/>
</radialGradient>
</defs>
</svg>
