<svg width="385" height="153" viewBox="0 0 385 153" fill="none" xmlns="http://www.w3.org/2000/svg">
<rect width="385" height="153" rx="10" fill="url(#paint0_radial_528_68)"/>
<rect x="0.5" y="0.5" width="384" height="152" rx="9.5" stroke="#FFF7E4" stroke-opacity="0.41"/>
<path d="M76.48 47.744H77.616L78.56 54.88H78.704L80.112 47.744H81.52L82.928 54.88H83.072L84.016 47.744H85.12L83.856 56H82.192L80.88 49.088H80.752L79.408 56H77.744L76.48 47.744ZM90.2878 56.192C89.6904 56.192 89.1518 56.0907 88.6718 55.888C88.2024 55.6853 87.7971 55.3973 87.4557 55.024C87.1251 54.64 86.8691 54.1867 86.6878 53.664C86.5064 53.1307 86.4158 52.5387 86.4158 51.888C86.4158 51.2267 86.5064 50.6293 86.6878 50.096C86.8798 49.5627 87.1411 49.1093 87.4718 48.736C87.8024 48.352 88.1971 48.0587 88.6558 47.856C89.1251 47.6533 89.6424 47.552 90.2078 47.552C90.7624 47.552 91.2638 47.6533 91.7118 47.856C92.1704 48.0587 92.5598 48.3413 92.8798 48.704C93.1998 49.056 93.4451 49.4773 93.6158 49.968C93.7864 50.4587 93.8718 50.9973 93.8718 51.584V52.192H87.7598V52.576C87.7598 52.9387 87.8184 53.2747 87.9358 53.584C88.0531 53.8933 88.2184 54.16 88.4318 54.384C88.6558 54.608 88.9224 54.784 89.2318 54.912C89.5518 55.0293 89.9038 55.088 90.2878 55.088C90.8424 55.088 91.3224 54.96 91.7278 54.704C92.1331 54.448 92.4424 54.096 92.6558 53.648L93.5998 54.288C93.3544 54.8427 92.9438 55.3013 92.3678 55.664C91.8024 56.016 91.1091 56.192 90.2878 56.192ZM90.2078 48.608C89.8558 48.608 89.5304 48.672 89.2318 48.8C88.9331 48.928 88.6718 49.104 88.4478 49.328C88.2344 49.552 88.0638 49.8187 87.9358 50.128C87.8184 50.4267 87.7598 50.7573 87.7598 51.12V51.232H92.4958V51.056C92.4958 50.6933 92.4371 50.3627 92.3198 50.064C92.2131 49.7653 92.0584 49.5093 91.8558 49.296C91.6638 49.072 91.4238 48.9013 91.1358 48.784C90.8584 48.6667 90.5491 48.608 90.2078 48.608ZM95.9675 54.912H98.8475V45.248H95.9675V44.16H100.128V54.912H103.008V56H95.9675V54.912ZM105.311 54.912H108.191V45.248H105.311V44.16H109.471V54.912H112.351V56H105.311V54.912ZM118.175 56.144C117.738 56.144 117.428 56.0533 117.247 55.872C117.076 55.6907 116.991 55.4613 116.991 55.184V54.896C116.991 54.6187 117.076 54.3893 117.247 54.208C117.428 54.0267 117.738 53.936 118.175 53.936C118.612 53.936 118.916 54.0267 119.087 54.208C119.268 54.3893 119.359 54.6187 119.359 54.896V55.184C119.359 55.4613 119.268 55.6907 119.087 55.872C118.916 56.0533 118.612 56.144 118.175 56.144ZM127.519 56.144C127.081 56.144 126.772 56.0533 126.591 55.872C126.42 55.6907 126.335 55.4613 126.335 55.184V54.896C126.335 54.6187 126.42 54.3893 126.591 54.208C126.772 54.0267 127.081 53.936 127.519 53.936C127.956 53.936 128.26 54.0267 128.431 54.208C128.612 54.3893 128.703 54.6187 128.703 54.896V55.184C128.703 55.4613 128.612 55.6907 128.431 55.872C128.26 56.0533 127.956 56.144 127.519 56.144ZM136.863 56.144C136.425 56.144 136.116 56.0533 135.935 55.872C135.764 55.6907 135.679 55.4613 135.679 55.184V54.896C135.679 54.6187 135.764 54.3893 135.935 54.208C136.116 54.0267 136.425 53.936 136.863 53.936C137.3 53.936 137.604 54.0267 137.775 54.208C137.956 54.3893 138.047 54.6187 138.047 54.896V55.184C138.047 55.4613 137.956 55.6907 137.775 55.872C137.604 56.0533 137.3 56.144 136.863 56.144ZM155.838 56.192C155.241 56.192 154.707 56.0907 154.238 55.888C153.779 55.6747 153.39 55.3813 153.07 55.008C152.75 54.6347 152.505 54.1813 152.334 53.648C152.174 53.1147 152.094 52.5227 152.094 51.872C152.094 51.2213 152.179 50.6293 152.35 50.096C152.521 49.5627 152.766 49.1093 153.086 48.736C153.406 48.352 153.795 48.0587 154.254 47.856C154.713 47.6533 155.235 47.552 155.822 47.552C156.622 47.552 157.273 47.728 157.774 48.08C158.275 48.432 158.643 48.8907 158.878 49.456L157.854 50C157.705 49.5733 157.454 49.2427 157.102 49.008C156.761 48.7733 156.334 48.656 155.822 48.656C155.449 48.656 155.113 48.72 154.814 48.848C154.526 48.9653 154.281 49.136 154.078 49.36C153.875 49.584 153.721 49.8507 153.614 50.16C153.518 50.4693 153.47 50.8053 153.47 51.168V52.576C153.47 52.9387 153.518 53.2747 153.614 53.584C153.721 53.8933 153.875 54.16 154.078 54.384C154.281 54.608 154.531 54.784 154.83 54.912C155.129 55.0293 155.47 55.088 155.854 55.088C156.409 55.088 156.867 54.96 157.23 54.704C157.593 54.448 157.881 54.096 158.094 53.648L159.006 54.272C158.761 54.8267 158.377 55.2853 157.854 55.648C157.342 56.0107 156.67 56.192 155.838 56.192ZM161.662 44.16H162.942V49.088H163.006C163.091 48.8853 163.198 48.6933 163.326 48.512C163.454 48.32 163.608 48.1547 163.79 48.016C163.982 47.8773 164.206 47.7653 164.462 47.68C164.718 47.5947 165.016 47.552 165.358 47.552C166.222 47.552 166.915 47.8293 167.438 48.384C167.96 48.928 168.222 49.7013 168.222 50.704V56H166.942V50.928C166.942 50.1707 166.776 49.6107 166.446 49.248C166.115 48.8747 165.63 48.688 164.99 48.688C164.734 48.688 164.483 48.72 164.238 48.784C163.992 48.848 163.774 48.944 163.582 49.072C163.39 49.2 163.235 49.3653 163.118 49.568C163 49.7707 162.942 50.0053 162.942 50.272V56H161.662V44.16ZM177.358 56C176.856 56 176.499 55.872 176.286 55.616C176.072 55.36 175.939 55.04 175.886 54.656H175.806C175.624 55.136 175.331 55.5147 174.926 55.792C174.531 56.0587 173.998 56.192 173.326 56.192C172.462 56.192 171.774 55.968 171.262 55.52C170.75 55.072 170.493 54.4587 170.493 53.68C170.493 52.912 170.771 52.32 171.326 51.904C171.891 51.488 172.798 51.28 174.046 51.28H175.806V50.464C175.806 49.856 175.635 49.4027 175.294 49.104C174.952 48.7947 174.467 48.64 173.838 48.64C173.283 48.64 172.83 48.752 172.478 48.976C172.126 49.1893 171.843 49.4827 171.63 49.856L170.766 49.216C170.872 49.0027 171.016 48.7947 171.198 48.592C171.379 48.3893 171.603 48.2133 171.87 48.064C172.136 47.904 172.44 47.7813 172.782 47.696C173.123 47.6 173.502 47.552 173.918 47.552C174.888 47.552 175.656 47.7973 176.222 48.288C176.798 48.7787 177.086 49.4613 177.086 50.336V54.88H178.238V56H177.358ZM173.549 55.12C173.88 55.12 174.179 55.0827 174.446 55.008C174.723 54.9227 174.963 54.816 175.166 54.688C175.368 54.5493 175.523 54.3893 175.63 54.208C175.747 54.016 175.806 53.8133 175.806 53.6V52.24H174.046C173.278 52.24 172.718 52.3467 172.366 52.56C172.014 52.7733 171.838 53.0827 171.838 53.488V53.824C171.838 54.2507 171.987 54.576 172.286 54.8C172.595 55.0133 173.016 55.12 173.549 55.12ZM183.981 56C183.352 56 182.888 55.824 182.589 55.472C182.301 55.12 182.157 54.6667 182.157 54.112V48.832H179.405V47.744H181.453C181.731 47.744 181.923 47.6907 182.029 47.584C182.147 47.4667 182.205 47.2693 182.205 46.992V44.832H183.437V47.744H187.197V48.832H183.437V54.912H187.197V56H183.981ZM189.645 44.16H190.925V49.088H190.989C191.522 48.064 192.37 47.552 193.533 47.552C194.546 47.552 195.336 47.9307 195.901 48.688C196.477 49.4453 196.765 50.5067 196.765 51.872C196.765 53.2373 196.477 54.2987 195.901 55.056C195.336 55.8133 194.546 56.192 193.533 56.192C192.37 56.192 191.522 55.68 190.989 54.656H190.925V56H189.645V44.16ZM193.037 55.056C193.784 55.056 194.36 54.832 194.765 54.384C195.181 53.9253 195.389 53.3227 195.389 52.576V51.168C195.389 50.4213 195.181 49.824 194.765 49.376C194.36 48.9173 193.784 48.688 193.037 48.688C192.749 48.688 192.477 48.7253 192.221 48.8C191.965 48.8747 191.741 48.9867 191.549 49.136C191.357 49.2747 191.202 49.4507 191.085 49.664C190.978 49.8667 190.925 50.1067 190.925 50.384V53.36C190.925 53.6373 190.978 53.8827 191.085 54.096C191.202 54.2987 191.357 54.4747 191.549 54.624C191.741 54.7627 191.965 54.8693 192.221 54.944C192.477 55.0187 192.749 55.056 193.037 55.056ZM202.269 56.192C201.693 56.192 201.17 56.0907 200.701 55.888C200.242 55.6853 199.847 55.3973 199.517 55.024C199.197 54.64 198.951 54.1867 198.781 53.664C198.61 53.1307 198.525 52.5333 198.525 51.872C198.525 51.2213 198.61 50.6293 198.781 50.096C198.951 49.5627 199.197 49.1093 199.517 48.736C199.847 48.352 200.242 48.0587 200.701 47.856C201.17 47.6533 201.693 47.552 202.269 47.552C202.845 47.552 203.362 47.6533 203.821 47.856C204.29 48.0587 204.685 48.352 205.005 48.736C205.335 49.1093 205.586 49.5627 205.757 50.096C205.927 50.6293 206.013 51.2213 206.013 51.872C206.013 52.5333 205.927 53.1307 205.757 53.664C205.586 54.1867 205.335 54.64 205.005 55.024C204.685 55.3973 204.29 55.6853 203.821 55.888C203.362 56.0907 202.845 56.192 202.269 56.192ZM202.269 55.088C202.983 55.088 203.559 54.8747 203.997 54.448C204.434 54.0213 204.653 53.36 204.653 52.464V51.28C204.653 50.384 204.434 49.7227 203.997 49.296C203.559 48.8693 202.983 48.656 202.269 48.656C201.554 48.656 200.978 48.8693 200.541 49.296C200.103 49.7227 199.885 50.384 199.885 51.28V52.464C199.885 53.36 200.103 54.0213 200.541 54.448C200.978 54.8747 201.554 55.088 202.269 55.088ZM212.013 56C211.383 56 210.919 55.824 210.621 55.472C210.333 55.12 210.189 54.6667 210.189 54.112V48.832H207.437V47.744H209.485C209.762 47.744 209.954 47.6907 210.061 47.584C210.178 47.4667 210.237 47.2693 210.237 46.992V44.832H211.469V47.744H215.229V48.832H211.469V54.912H215.229V56H212.013ZM230.812 45.92C230.439 45.92 230.177 45.8453 230.028 45.696C229.879 45.536 229.804 45.3387 229.804 45.104V44.848C229.804 44.6133 229.879 44.4213 230.028 44.272C230.177 44.112 230.439 44.032 230.812 44.032C231.185 44.032 231.447 44.112 231.596 44.272C231.745 44.4213 231.82 44.6133 231.82 44.848V45.104C231.82 45.3387 231.745 45.536 231.596 45.696C231.447 45.8453 231.185 45.92 230.812 45.92ZM227.196 54.912H230.172V48.832H227.196V47.744H231.452V54.912H234.236V56H227.196V54.912ZM239.74 56.192C238.876 56.192 238.129 56.048 237.5 55.76C236.881 55.4613 236.353 55.0667 235.916 54.576L236.78 53.824C237.174 54.24 237.606 54.56 238.076 54.784C238.545 55.008 239.11 55.12 239.772 55.12C240.412 55.12 240.934 55.008 241.34 54.784C241.756 54.5493 241.964 54.1867 241.964 53.696C241.964 53.4827 241.921 53.3067 241.836 53.168C241.761 53.0187 241.654 52.9013 241.516 52.816C241.377 52.7307 241.222 52.6667 241.052 52.624C240.881 52.5707 240.7 52.528 240.508 52.496L239.212 52.304C238.924 52.2613 238.609 52.2027 238.268 52.128C237.937 52.0533 237.633 51.936 237.356 51.776C237.078 51.6053 236.844 51.3813 236.652 51.104C236.47 50.8267 236.38 50.464 236.38 50.016C236.38 49.6 236.46 49.2427 236.62 48.944C236.79 48.6347 237.025 48.3787 237.324 48.176C237.622 47.9627 237.974 47.808 238.38 47.712C238.785 47.6053 239.228 47.552 239.708 47.552C240.454 47.552 241.1 47.6693 241.644 47.904C242.198 48.1387 242.673 48.464 243.068 48.88L242.236 49.664C242.14 49.5467 242.017 49.4293 241.868 49.312C241.729 49.184 241.553 49.072 241.34 48.976C241.137 48.8693 240.897 48.784 240.62 48.72C240.342 48.656 240.022 48.624 239.66 48.624C239.009 48.624 238.508 48.736 238.156 48.96C237.814 49.184 237.644 49.5093 237.644 49.936C237.644 50.1493 237.681 50.3307 237.756 50.48C237.841 50.6187 237.953 50.7307 238.092 50.816C238.23 50.9013 238.385 50.9707 238.556 51.024C238.737 51.0667 238.918 51.104 239.1 51.136L240.396 51.328C240.694 51.3707 241.009 51.4293 241.34 51.504C241.67 51.5787 241.974 51.7013 242.252 51.872C242.529 52.032 242.758 52.2507 242.94 52.528C243.132 52.8053 243.228 53.168 243.228 53.616C243.228 54.4373 242.908 55.072 242.268 55.52C241.638 55.968 240.796 56.192 239.74 56.192ZM258.427 56.192C257.563 56.192 256.817 56.048 256.187 55.76C255.569 55.4613 255.041 55.0667 254.603 54.576L255.467 53.824C255.862 54.24 256.294 54.56 256.763 54.784C257.233 55.008 257.798 55.12 258.459 55.12C259.099 55.12 259.622 55.008 260.027 54.784C260.443 54.5493 260.651 54.1867 260.651 53.696C260.651 53.4827 260.609 53.3067 260.523 53.168C260.449 53.0187 260.342 52.9013 260.203 52.816C260.065 52.7307 259.91 52.6667 259.739 52.624C259.569 52.5707 259.387 52.528 259.195 52.496L257.899 52.304C257.611 52.2613 257.297 52.2027 256.955 52.128C256.625 52.0533 256.321 51.936 256.043 51.776C255.766 51.6053 255.531 51.3813 255.339 51.104C255.158 50.8267 255.067 50.464 255.067 50.016C255.067 49.6 255.147 49.2427 255.307 48.944C255.478 48.6347 255.713 48.3787 256.011 48.176C256.31 47.9627 256.662 47.808 257.067 47.712C257.473 47.6053 257.915 47.552 258.395 47.552C259.142 47.552 259.787 47.6693 260.331 47.904C260.886 48.1387 261.361 48.464 261.755 48.88L260.923 49.664C260.827 49.5467 260.705 49.4293 260.555 49.312C260.417 49.184 260.241 49.072 260.027 48.976C259.825 48.8693 259.585 48.784 259.307 48.72C259.03 48.656 258.71 48.624 258.347 48.624C257.697 48.624 257.195 48.736 256.843 48.96C256.502 49.184 256.331 49.5093 256.331 49.936C256.331 50.1493 256.369 50.3307 256.443 50.48C256.529 50.6187 256.641 50.7307 256.779 50.816C256.918 50.9013 257.073 50.9707 257.243 51.024C257.425 51.0667 257.606 51.104 257.787 51.136L259.083 51.328C259.382 51.3707 259.697 51.4293 260.027 51.504C260.358 51.5787 260.662 51.7013 260.939 51.872C261.217 52.032 261.446 52.2507 261.627 52.528C261.819 52.8053 261.915 53.168 261.915 53.616C261.915 54.4373 261.595 55.072 260.955 55.52C260.326 55.968 259.483 56.192 258.427 56.192ZM267.675 56.192C267.099 56.192 266.576 56.0907 266.107 55.888C265.648 55.6853 265.254 55.3973 264.923 55.024C264.603 54.64 264.358 54.1867 264.187 53.664C264.016 53.1307 263.931 52.5333 263.931 51.872C263.931 51.2213 264.016 50.6293 264.187 50.096C264.358 49.5627 264.603 49.1093 264.923 48.736C265.254 48.352 265.648 48.0587 266.107 47.856C266.576 47.6533 267.099 47.552 267.675 47.552C268.251 47.552 268.768 47.6533 269.227 47.856C269.696 48.0587 270.091 48.352 270.411 48.736C270.742 49.1093 270.992 49.5627 271.163 50.096C271.334 50.6293 271.419 51.2213 271.419 51.872C271.419 52.5333 271.334 53.1307 271.163 53.664C270.992 54.1867 270.742 54.64 270.411 55.024C270.091 55.3973 269.696 55.6853 269.227 55.888C268.768 56.0907 268.251 56.192 267.675 56.192ZM267.675 55.088C268.39 55.088 268.966 54.8747 269.403 54.448C269.84 54.0213 270.059 53.36 270.059 52.464V51.28C270.059 50.384 269.84 49.7227 269.403 49.296C268.966 48.8693 268.39 48.656 267.675 48.656C266.96 48.656 266.384 48.8693 265.947 49.296C265.51 49.7227 265.291 50.384 265.291 51.28V52.464C265.291 53.36 265.51 54.0213 265.947 54.448C266.384 54.8747 266.96 55.088 267.675 55.088ZM277.019 56.192C276.443 56.192 275.92 56.0907 275.451 55.888C274.992 55.6853 274.597 55.3973 274.267 55.024C273.947 54.64 273.701 54.1867 273.531 53.664C273.36 53.1307 273.275 52.5333 273.275 51.872C273.275 51.2213 273.36 50.6293 273.531 50.096C273.701 49.5627 273.947 49.1093 274.267 48.736C274.597 48.352 274.992 48.0587 275.451 47.856C275.92 47.6533 276.443 47.552 277.019 47.552C277.595 47.552 278.112 47.6533 278.571 47.856C279.04 48.0587 279.435 48.352 279.755 48.736C280.085 49.1093 280.336 49.5627 280.507 50.096C280.677 50.6293 280.763 51.2213 280.763 51.872C280.763 52.5333 280.677 53.1307 280.507 53.664C280.336 54.1867 280.085 54.64 279.755 55.024C279.435 55.3973 279.04 55.6853 278.571 55.888C278.112 56.0907 277.595 56.192 277.019 56.192ZM277.019 55.088C277.733 55.088 278.309 54.8747 278.747 54.448C279.184 54.0213 279.403 53.36 279.403 52.464V51.28C279.403 50.384 279.184 49.7227 278.747 49.296C278.309 48.8693 277.733 48.656 277.019 48.656C276.304 48.656 275.728 48.8693 275.291 49.296C274.853 49.7227 274.635 50.384 274.635 51.28V52.464C274.635 53.36 274.853 54.0213 275.291 54.448C275.728 54.8747 276.304 55.088 277.019 55.088ZM286.363 56.192C285.787 56.192 285.264 56.0907 284.795 55.888C284.336 55.6853 283.941 55.3973 283.611 55.024C283.291 54.64 283.045 54.1867 282.875 53.664C282.704 53.1307 282.618 52.5333 282.618 51.872C282.618 51.2213 282.704 50.6293 282.875 50.096C283.045 49.5627 283.291 49.1093 283.611 48.736C283.941 48.352 284.336 48.0587 284.795 47.856C285.264 47.6533 285.787 47.552 286.363 47.552C286.939 47.552 287.456 47.6533 287.915 47.856C288.384 48.0587 288.779 48.352 289.099 48.736C289.429 49.1093 289.68 49.5627 289.851 50.096C290.021 50.6293 290.107 51.2213 290.107 51.872C290.107 52.5333 290.021 53.1307 289.851 53.664C289.68 54.1867 289.429 54.64 289.099 55.024C288.779 55.3973 288.384 55.6853 287.915 55.888C287.456 56.0907 286.939 56.192 286.363 56.192ZM286.363 55.088C287.077 55.088 287.653 54.8747 288.091 54.448C288.528 54.0213 288.747 53.36 288.747 52.464V51.28C288.747 50.384 288.528 49.7227 288.091 49.296C287.653 48.8693 287.077 48.656 286.363 48.656C285.648 48.656 285.072 48.8693 284.635 49.296C284.197 49.7227 283.979 50.384 283.979 51.28V52.464C283.979 53.36 284.197 54.0213 284.635 54.448C285.072 54.8747 285.648 55.088 286.363 55.088ZM295.706 56.192C295.13 56.192 294.608 56.0907 294.138 55.888C293.68 55.6853 293.285 55.3973 292.954 55.024C292.634 54.64 292.389 54.1867 292.218 53.664C292.048 53.1307 291.962 52.5333 291.962 51.872C291.962 51.2213 292.048 50.6293 292.218 50.096C292.389 49.5627 292.634 49.1093 292.954 48.736C293.285 48.352 293.68 48.0587 294.138 47.856C294.608 47.6533 295.13 47.552 295.706 47.552C296.282 47.552 296.8 47.6533 297.258 47.856C297.728 48.0587 298.122 48.352 298.442 48.736C298.773 49.1093 299.024 49.5627 299.194 50.096C299.365 50.6293 299.45 51.2213 299.45 51.872C299.45 52.5333 299.365 53.1307 299.194 53.664C299.024 54.1867 298.773 54.64 298.442 55.024C298.122 55.3973 297.728 55.6853 297.258 55.888C296.8 56.0907 296.282 56.192 295.706 56.192ZM295.706 55.088C296.421 55.088 296.997 54.8747 297.434 54.448C297.872 54.0213 298.09 53.36 298.09 52.464V51.28C298.09 50.384 297.872 49.7227 297.434 49.296C296.997 48.8693 296.421 48.656 295.706 48.656C294.992 48.656 294.416 48.8693 293.978 49.296C293.541 49.7227 293.322 50.384 293.322 51.28V52.464C293.322 53.36 293.541 54.0213 293.978 54.448C294.416 54.8747 294.992 55.088 295.706 55.088ZM305.05 56.192C304.474 56.192 303.951 56.0907 303.482 55.888C303.023 55.6853 302.629 55.3973 302.298 55.024C301.978 54.64 301.733 54.1867 301.562 53.664C301.391 53.1307 301.306 52.5333 301.306 51.872C301.306 51.2213 301.391 50.6293 301.562 50.096C301.733 49.5627 301.978 49.1093 302.298 48.736C302.629 48.352 303.023 48.0587 303.482 47.856C303.951 47.6533 304.474 47.552 305.05 47.552C305.626 47.552 306.143 47.6533 306.602 47.856C307.071 48.0587 307.466 48.352 307.786 48.736C308.117 49.1093 308.367 49.5627 308.538 50.096C308.709 50.6293 308.794 51.2213 308.794 51.872C308.794 52.5333 308.709 53.1307 308.538 53.664C308.367 54.1867 308.117 54.64 307.786 55.024C307.466 55.3973 307.071 55.6853 306.602 55.888C306.143 56.0907 305.626 56.192 305.05 56.192ZM305.05 55.088C305.765 55.088 306.341 54.8747 306.778 54.448C307.215 54.0213 307.434 53.36 307.434 52.464V51.28C307.434 50.384 307.215 49.7227 306.778 49.296C306.341 48.8693 305.765 48.656 305.05 48.656C304.335 48.656 303.759 48.8693 303.322 49.296C302.885 49.7227 302.666 50.384 302.666 51.28V52.464C302.666 53.36 302.885 54.0213 303.322 54.448C303.759 54.8747 304.335 55.088 305.05 55.088ZM77.52 69.744H78.8V71.088H78.864C79.3973 70.064 80.2453 69.552 81.408 69.552C82.4213 69.552 83.2107 69.9307 83.776 70.688C84.352 71.4453 84.64 72.5067 84.64 73.872C84.64 75.2373 84.352 76.2987 83.776 77.056C83.2107 77.8133 82.4213 78.192 81.408 78.192C80.2453 78.192 79.3973 77.68 78.864 76.656H78.8V81.2H77.52V69.744ZM80.912 77.056C81.6587 77.056 82.2347 76.832 82.64 76.384C83.056 75.9253 83.264 75.3227 83.264 74.576V73.168C83.264 72.4213 83.056 71.824 82.64 71.376C82.2347 70.9173 81.6587 70.688 80.912 70.688C80.624 70.688 80.352 70.7253 80.096 70.8C79.84 70.8747 79.616 70.9867 79.424 71.136C79.232 71.2747 79.0773 71.4507 78.96 71.664C78.8533 71.8667 78.8 72.1067 78.8 72.384V75.36C78.8 75.6373 78.8533 75.8827 78.96 76.096C79.0773 76.2987 79.232 76.4747 79.424 76.624C79.616 76.7627 79.84 76.8693 80.096 76.944C80.352 77.0187 80.624 77.056 80.912 77.056ZM90.1438 78.192C89.5678 78.192 89.0451 78.0907 88.5758 77.888C88.1171 77.6853 87.7224 77.3973 87.3918 77.024C87.0718 76.64 86.8264 76.1867 86.6558 75.664C86.4851 75.1307 86.3997 74.5333 86.3997 73.872C86.3997 73.2213 86.4851 72.6293 86.6558 72.096C86.8264 71.5627 87.0718 71.1093 87.3918 70.736C87.7224 70.352 88.1171 70.0587 88.5758 69.856C89.0451 69.6533 89.5678 69.552 90.1438 69.552C90.7198 69.552 91.2371 69.6533 91.6958 69.856C92.1651 70.0587 92.5598 70.352 92.8798 70.736C93.2104 71.1093 93.4611 71.5627 93.6318 72.096C93.8024 72.6293 93.8878 73.2213 93.8878 73.872C93.8878 74.5333 93.8024 75.1307 93.6318 75.664C93.4611 76.1867 93.2104 76.64 92.8798 77.024C92.5598 77.3973 92.1651 77.6853 91.6958 77.888C91.2371 78.0907 90.7198 78.192 90.1438 78.192ZM90.1438 77.088C90.8584 77.088 91.4344 76.8747 91.8718 76.448C92.3091 76.0213 92.5278 75.36 92.5278 74.464V73.28C92.5278 72.384 92.3091 71.7227 91.8718 71.296C91.4344 70.8693 90.8584 70.656 90.1438 70.656C89.4291 70.656 88.8531 70.8693 88.4158 71.296C87.9784 71.7227 87.7598 72.384 87.7598 73.28V74.464C87.7598 75.36 87.9784 76.0213 88.4158 76.448C88.8531 76.8747 89.4291 77.088 90.1438 77.088ZM96.2075 69.744H97.4875V71.088H97.5515C98.0848 70.064 98.9328 69.552 100.096 69.552C101.109 69.552 101.898 69.9307 102.464 70.688C103.04 71.4453 103.328 72.5067 103.328 73.872C103.328 75.2373 103.04 76.2987 102.464 77.056C101.898 77.8133 101.109 78.192 100.096 78.192C98.9328 78.192 98.0848 77.68 97.5515 76.656H97.4875V81.2H96.2075V69.744ZM99.5995 77.056C100.346 77.056 100.922 76.832 101.328 76.384C101.744 75.9253 101.952 75.3227 101.952 74.576V73.168C101.952 72.4213 101.744 71.824 101.328 71.376C100.922 70.9173 100.346 70.688 99.5995 70.688C99.3115 70.688 99.0395 70.7253 98.7835 70.8C98.5275 70.8747 98.3035 70.9867 98.1115 71.136C97.9195 71.2747 97.7648 71.4507 97.6475 71.664C97.5408 71.8667 97.4875 72.1067 97.4875 72.384V75.36C97.4875 75.6373 97.5408 75.8827 97.6475 76.096C97.7648 76.2987 97.9195 76.4747 98.1115 76.624C98.3035 76.7627 98.5275 76.8693 98.7835 76.944C99.0395 77.0187 99.3115 77.056 99.5995 77.056ZM110.783 76.656H110.719C110.634 76.8587 110.527 77.056 110.399 77.248C110.271 77.4293 110.111 77.5893 109.919 77.728C109.738 77.8667 109.519 77.9787 109.263 78.064C109.007 78.1493 108.709 78.192 108.367 78.192C107.503 78.192 106.81 77.92 106.287 77.376C105.765 76.8213 105.503 76.0427 105.503 75.04V69.744H106.783V74.816C106.783 75.5733 106.949 76.1387 107.279 76.512C107.61 76.8747 108.095 77.056 108.735 77.056C108.991 77.056 109.242 77.024 109.487 76.96C109.733 76.896 109.951 76.8 110.143 76.672C110.335 76.544 110.49 76.384 110.607 76.192C110.725 75.9893 110.783 75.7493 110.783 75.472V69.744H112.063V78H110.783V76.656ZM114.655 76.912H117.535V67.248H114.655V66.16H118.815V76.912H121.695V78H114.655V76.912ZM130.639 78C130.137 78 129.78 77.872 129.567 77.616C129.353 77.36 129.22 77.04 129.167 76.656H129.087C128.905 77.136 128.612 77.5147 128.207 77.792C127.812 78.0587 127.279 78.192 126.607 78.192C125.743 78.192 125.055 77.968 124.543 77.52C124.031 77.072 123.775 76.4587 123.775 75.68C123.775 74.912 124.052 74.32 124.607 73.904C125.172 73.488 126.079 73.28 127.327 73.28H129.087V72.464C129.087 71.856 128.916 71.4027 128.575 71.104C128.233 70.7947 127.748 70.64 127.119 70.64C126.564 70.64 126.111 70.752 125.759 70.976C125.407 71.1893 125.124 71.4827 124.911 71.856L124.047 71.216C124.153 71.0027 124.297 70.7947 124.479 70.592C124.66 70.3893 124.884 70.2133 125.151 70.064C125.417 69.904 125.721 69.7813 126.063 69.696C126.404 69.6 126.783 69.552 127.199 69.552C128.169 69.552 128.937 69.7973 129.503 70.288C130.079 70.7787 130.367 71.4613 130.367 72.336V76.88H131.519V78H130.639ZM126.831 77.12C127.161 77.12 127.46 77.0827 127.727 77.008C128.004 76.9227 128.244 76.816 128.447 76.688C128.649 76.5493 128.804 76.3893 128.911 76.208C129.028 76.016 129.087 75.8133 129.087 75.6V74.24H127.327C126.559 74.24 125.999 74.3467 125.647 74.56C125.295 74.7733 125.119 75.0827 125.119 75.488V75.824C125.119 76.2507 125.268 76.576 125.567 76.8C125.876 77.0133 126.297 77.12 126.831 77.12ZM133.295 76.912H135.711V70.832H133.295V69.744H136.991V71.824H137.071C137.241 71.1733 137.561 70.6667 138.031 70.304C138.511 69.9307 139.119 69.744 139.855 69.744H141.007V71.024H139.455C138.719 71.024 138.121 71.2373 137.663 71.664C137.215 72.0907 136.991 72.6507 136.991 73.344V76.912H140.191V78H133.295V76.912ZM146.206 78.144C145.769 78.144 145.46 78.0533 145.278 77.872C145.108 77.6907 145.022 77.4613 145.022 77.184V76.896C145.022 76.6187 145.108 76.3893 145.278 76.208C145.46 76.0267 145.769 75.936 146.206 75.936C146.644 75.936 146.948 76.0267 147.118 76.208C147.3 76.3893 147.39 76.6187 147.39 76.896V77.184C147.39 77.4613 147.3 77.6907 147.118 77.872C146.948 78.0533 146.644 78.144 146.206 78.144ZM161.454 78V76.832H164.654V67.824H164.542L161.726 70.448L160.942 69.6L163.902 66.832H165.998V76.832H168.942V78H161.454ZM174.238 78.192C173.555 78.192 172.968 78.064 172.478 77.808C171.987 77.5413 171.582 77.1627 171.262 76.672C170.942 76.1813 170.707 75.5787 170.558 74.864C170.408 74.1493 170.334 73.3333 170.334 72.416C170.334 71.5093 170.408 70.6987 170.558 69.984C170.707 69.2587 170.942 68.6507 171.262 68.16C171.582 67.6693 171.987 67.296 172.478 67.04C172.968 66.7733 173.555 66.64 174.238 66.64C174.92 66.64 175.507 66.7733 175.998 67.04C176.488 67.296 176.894 67.6693 177.214 68.16C177.534 68.6507 177.768 69.2587 177.918 69.984C178.067 70.6987 178.142 71.5093 178.142 72.416C178.142 73.3333 178.067 74.1493 177.918 74.864C177.768 75.5787 177.534 76.1813 177.214 76.672C176.894 77.1627 176.488 77.5413 175.998 77.808C175.507 78.064 174.92 78.192 174.238 78.192ZM174.238 77.024C174.686 77.024 175.07 76.9387 175.39 76.768C175.71 76.5867 175.966 76.336 176.158 76.016C176.36 75.696 176.51 75.312 176.606 74.864C176.702 74.4053 176.75 73.8933 176.75 73.328V71.504C176.75 70.9493 176.702 70.4427 176.606 69.984C176.51 69.5253 176.36 69.136 176.158 68.816C175.966 68.496 175.71 68.2507 175.39 68.08C175.07 67.8987 174.686 67.808 174.238 67.808C173.79 67.808 173.406 67.8987 173.086 68.08C172.766 68.2507 172.504 68.496 172.302 68.816C172.11 69.136 171.966 69.5253 171.87 69.984C171.774 70.4427 171.726 70.9493 171.726 71.504V73.328C171.726 73.8933 171.774 74.4053 171.87 74.864C171.966 75.312 172.11 75.696 172.302 76.016C172.504 76.336 172.766 76.5867 173.086 76.768C173.406 76.9387 173.79 77.024 174.238 77.024ZM174.238 73.36C173.864 73.36 173.603 73.2853 173.454 73.136C173.315 72.9867 173.246 72.8053 173.246 72.592V72.24C173.246 72.0267 173.315 71.8453 173.454 71.696C173.603 71.5467 173.864 71.472 174.238 71.472C174.611 71.472 174.867 71.5467 175.006 71.696C175.155 71.8453 175.23 72.0267 175.23 72.24V72.592C175.23 72.8053 175.155 72.9867 175.006 73.136C174.867 73.2853 174.611 73.36 174.238 73.36ZM193.325 78C192.696 78 192.232 77.824 191.933 77.472C191.645 77.12 191.501 76.6667 191.501 76.112V70.832H188.749V69.744H190.797C191.074 69.744 191.266 69.6907 191.373 69.584C191.49 69.4667 191.549 69.2693 191.549 68.992V66.832H192.781V69.744H196.541V70.832H192.781V76.912H196.541V78H193.325ZM202.781 67.92C202.407 67.92 202.146 67.8453 201.997 67.696C201.847 67.536 201.773 67.3387 201.773 67.104V66.848C201.773 66.6133 201.847 66.4213 201.997 66.272C202.146 66.112 202.407 66.032 202.781 66.032C203.154 66.032 203.415 66.112 203.565 66.272C203.714 66.4213 203.789 66.6133 203.789 66.848V67.104C203.789 67.3387 203.714 67.536 203.565 67.696C203.415 67.8453 203.154 67.92 202.781 67.92ZM199.165 76.912H202.141V70.832H199.165V69.744H203.421V76.912H206.205V78H199.165V76.912ZM207.677 78V69.744H208.861V70.704H208.924C209.053 70.384 209.234 70.112 209.469 69.888C209.703 69.664 210.05 69.552 210.509 69.552C210.989 69.552 211.346 69.6747 211.581 69.92C211.815 70.1547 211.959 70.464 212.013 70.848H212.061C212.21 70.4747 212.423 70.1653 212.701 69.92C212.978 69.6747 213.362 69.552 213.853 69.552C214.525 69.552 214.973 69.7867 215.197 70.256C215.431 70.7253 215.549 71.3973 215.549 72.272V78H214.365V72.48C214.365 71.776 214.29 71.2907 214.141 71.024C214.002 70.7467 213.741 70.608 213.357 70.608C213.015 70.608 212.738 70.72 212.525 70.944C212.311 71.1573 212.205 71.488 212.205 71.936V78H211.021V72.48C211.021 71.776 210.946 71.2907 210.797 71.024C210.658 70.7467 210.402 70.608 210.029 70.608C209.687 70.608 209.405 70.72 209.181 70.944C208.967 71.1573 208.861 71.488 208.861 71.936V78H207.677ZM221.1 78.192C220.503 78.192 219.964 78.0907 219.484 77.888C219.015 77.6853 218.61 77.3973 218.268 77.024C217.938 76.64 217.682 76.1867 217.5 75.664C217.319 75.1307 217.228 74.5387 217.228 73.888C217.228 73.2267 217.319 72.6293 217.5 72.096C217.692 71.5627 217.954 71.1093 218.284 70.736C218.615 70.352 219.01 70.0587 219.468 69.856C219.938 69.6533 220.455 69.552 221.02 69.552C221.575 69.552 222.076 69.6533 222.524 69.856C222.983 70.0587 223.372 70.3413 223.692 70.704C224.012 71.056 224.258 71.4773 224.428 71.968C224.599 72.4587 224.684 72.9973 224.684 73.584V74.192H218.572V74.576C218.572 74.9387 218.631 75.2747 218.748 75.584C218.866 75.8933 219.031 76.16 219.244 76.384C219.468 76.608 219.735 76.784 220.044 76.912C220.364 77.0293 220.716 77.088 221.1 77.088C221.655 77.088 222.135 76.96 222.54 76.704C222.946 76.448 223.255 76.096 223.468 75.648L224.412 76.288C224.167 76.8427 223.756 77.3013 223.18 77.664C222.615 78.016 221.922 78.192 221.1 78.192ZM221.02 70.608C220.668 70.608 220.343 70.672 220.044 70.8C219.746 70.928 219.484 71.104 219.26 71.328C219.047 71.552 218.876 71.8187 218.748 72.128C218.631 72.4267 218.572 72.7573 218.572 73.12V73.232H223.308V73.056C223.308 72.6933 223.25 72.3627 223.132 72.064C223.026 71.7653 222.871 71.5093 222.668 71.296C222.476 71.072 222.236 70.9013 221.948 70.784C221.671 70.6667 221.362 70.608 221.02 70.608ZM230.396 78.192C229.532 78.192 228.785 78.048 228.156 77.76C227.537 77.4613 227.009 77.0667 226.572 76.576L227.436 75.824C227.831 76.24 228.263 76.56 228.732 76.784C229.201 77.008 229.767 77.12 230.428 77.12C231.068 77.12 231.591 77.008 231.996 76.784C232.412 76.5493 232.62 76.1867 232.62 75.696C232.62 75.4827 232.577 75.3067 232.492 75.168C232.417 75.0187 232.311 74.9013 232.172 74.816C232.033 74.7307 231.879 74.6667 231.708 74.624C231.537 74.5707 231.356 74.528 231.164 74.496L229.868 74.304C229.58 74.2613 229.265 74.2027 228.924 74.128C228.593 74.0533 228.289 73.936 228.012 73.776C227.735 73.6053 227.5 73.3813 227.308 73.104C227.127 72.8267 227.036 72.464 227.036 72.016C227.036 71.6 227.116 71.2427 227.276 70.944C227.447 70.6347 227.681 70.3787 227.98 70.176C228.279 69.9627 228.631 69.808 229.036 69.712C229.441 69.6053 229.884 69.552 230.364 69.552C231.111 69.552 231.756 69.6693 232.3 69.904C232.855 70.1387 233.329 70.464 233.724 70.88L232.892 71.664C232.796 71.5467 232.673 71.4293 232.524 71.312C232.385 71.184 232.209 71.072 231.996 70.976C231.793 70.8693 231.553 70.784 231.276 70.72C230.999 70.656 230.679 70.624 230.316 70.624C229.665 70.624 229.164 70.736 228.812 70.96C228.471 71.184 228.3 71.5093 228.3 71.936C228.3 72.1493 228.337 72.3307 228.412 72.48C228.497 72.6187 228.609 72.7307 228.748 72.816C228.887 72.9013 229.041 72.9707 229.212 73.024C229.393 73.0667 229.575 73.104 229.756 73.136L231.052 73.328C231.351 73.3707 231.665 73.4293 231.996 73.504C232.327 73.5787 232.631 73.7013 232.908 73.872C233.185 74.032 233.415 74.2507 233.596 74.528C233.788 74.8053 233.884 75.168 233.884 75.616C233.884 76.4373 233.564 77.072 232.924 77.52C232.295 77.968 231.452 78.192 230.396 78.192ZM245.052 78V69.744H246.236V70.704H246.299C246.428 70.384 246.609 70.112 246.844 69.888C247.078 69.664 247.425 69.552 247.884 69.552C248.364 69.552 248.721 69.6747 248.956 69.92C249.19 70.1547 249.334 70.464 249.388 70.848H249.436C249.585 70.4747 249.798 70.1653 250.076 69.92C250.353 69.6747 250.737 69.552 251.228 69.552C251.9 69.552 252.348 69.7867 252.572 70.256C252.806 70.7253 252.924 71.3973 252.924 72.272V78H251.74V72.48C251.74 71.776 251.665 71.2907 251.516 71.024C251.377 70.7467 251.116 70.608 250.732 70.608C250.39 70.608 250.113 70.72 249.9 70.944C249.686 71.1573 249.58 71.488 249.58 71.936V78H248.396V72.48C248.396 71.776 248.321 71.2907 248.172 71.024C248.033 70.7467 247.777 70.608 247.404 70.608C247.062 70.608 246.78 70.72 246.556 70.944C246.342 71.1573 246.236 71.488 246.236 71.936V78H245.052ZM258.331 78.192C257.755 78.192 257.233 78.0907 256.763 77.888C256.305 77.6853 255.91 77.3973 255.579 77.024C255.259 76.64 255.014 76.1867 254.843 75.664C254.673 75.1307 254.587 74.5333 254.587 73.872C254.587 73.2213 254.673 72.6293 254.843 72.096C255.014 71.5627 255.259 71.1093 255.579 70.736C255.91 70.352 256.305 70.0587 256.763 69.856C257.233 69.6533 257.755 69.552 258.331 69.552C258.907 69.552 259.425 69.6533 259.883 69.856C260.353 70.0587 260.747 70.352 261.067 70.736C261.398 71.1093 261.649 71.5627 261.819 72.096C261.99 72.6293 262.075 73.2213 262.075 73.872C262.075 74.5333 261.99 75.1307 261.819 75.664C261.649 76.1867 261.398 76.64 261.067 77.024C260.747 77.3973 260.353 77.6853 259.883 77.888C259.425 78.0907 258.907 78.192 258.331 78.192ZM258.331 77.088C259.046 77.088 259.622 76.8747 260.059 76.448C260.497 76.0213 260.715 75.36 260.715 74.464V73.28C260.715 72.384 260.497 71.7227 260.059 71.296C259.622 70.8693 259.046 70.656 258.331 70.656C257.617 70.656 257.041 70.8693 256.603 71.296C256.166 71.7227 255.947 72.384 255.947 73.28V74.464C255.947 75.36 256.166 76.0213 256.603 76.448C257.041 76.8747 257.617 77.088 258.331 77.088ZM264.107 76.912H266.523V70.832H264.107V69.744H267.803V71.824H267.883C268.054 71.1733 268.374 70.6667 268.843 70.304C269.323 69.9307 269.931 69.744 270.667 69.744H271.819V71.024H270.267C269.531 71.024 268.934 71.2373 268.475 71.664C268.027 72.0907 267.803 72.6507 267.803 73.344V76.912H271.003V78H264.107V76.912ZM277.163 78.192C276.565 78.192 276.027 78.0907 275.547 77.888C275.077 77.6853 274.672 77.3973 274.331 77.024C274 76.64 273.744 76.1867 273.563 75.664C273.381 75.1307 273.291 74.5387 273.291 73.888C273.291 73.2267 273.381 72.6293 273.563 72.096C273.755 71.5627 274.016 71.1093 274.347 70.736C274.677 70.352 275.072 70.0587 275.531 69.856C276 69.6533 276.517 69.552 277.083 69.552C277.637 69.552 278.139 69.6533 278.587 69.856C279.045 70.0587 279.435 70.3413 279.755 70.704C280.075 71.056 280.32 71.4773 280.491 71.968C280.661 72.4587 280.747 72.9973 280.747 73.584V74.192H274.635V74.576C274.635 74.9387 274.693 75.2747 274.811 75.584C274.928 75.8933 275.093 76.16 275.307 76.384C275.531 76.608 275.797 76.784 276.107 76.912C276.427 77.0293 276.779 77.088 277.163 77.088C277.717 77.088 278.197 76.96 278.603 76.704C279.008 76.448 279.317 76.096 279.531 75.648L280.475 76.288C280.229 76.8427 279.819 77.3013 279.243 77.664C278.677 78.016 277.984 78.192 277.163 78.192ZM277.083 70.608C276.731 70.608 276.405 70.672 276.107 70.8C275.808 70.928 275.547 71.104 275.323 71.328C275.109 71.552 274.939 71.8187 274.811 72.128C274.693 72.4267 274.635 72.7573 274.635 73.12V73.232H279.371V73.056C279.371 72.6933 279.312 72.3627 279.195 72.064C279.088 71.7653 278.933 71.5093 278.731 71.296C278.539 71.072 278.299 70.9013 278.011 70.784C277.733 70.6667 277.424 70.608 277.083 70.608ZM81.2 100C80.5707 100 80.1067 99.824 79.808 99.472C79.52 99.12 79.376 98.6667 79.376 98.112V92.832H76.624V91.744H78.672C78.9493 91.744 79.1413 91.6907 79.248 91.584C79.3653 91.4667 79.424 91.2693 79.424 90.992V88.832H80.656V91.744H84.416V92.832H80.656V98.912H84.416V100H81.2ZM86.9118 88.16H88.1918V93.088H88.2558C88.3411 92.8853 88.4478 92.6933 88.5758 92.512C88.7038 92.32 88.8584 92.1547 89.0398 92.016C89.2318 91.8773 89.4558 91.7653 89.7118 91.68C89.9678 91.5947 90.2664 91.552 90.6078 91.552C91.4718 91.552 92.1651 91.8293 92.6878 92.384C93.2104 92.928 93.4718 93.7013 93.4718 94.704V100H92.1918V94.928C92.1918 94.1707 92.0264 93.6107 91.6958 93.248C91.3651 92.8747 90.8798 92.688 90.2398 92.688C89.9838 92.688 89.7331 92.72 89.4878 92.784C89.2424 92.848 89.0238 92.944 88.8318 93.072C88.6398 93.2 88.4851 93.3653 88.3678 93.568C88.2504 93.7707 88.1918 94.0053 88.1918 94.272V100H86.9118V88.16ZM102.608 100C102.106 100 101.749 99.872 101.536 99.616C101.322 99.36 101.189 99.04 101.136 98.656H101.056C100.874 99.136 100.581 99.5147 100.176 99.792C99.7808 100.059 99.2475 100.192 98.5755 100.192C97.7115 100.192 97.0235 99.968 96.5115 99.52C95.9995 99.072 95.7435 98.4587 95.7435 97.68C95.7435 96.912 96.0208 96.32 96.5755 95.904C97.1408 95.488 98.0475 95.28 99.2955 95.28H101.056V94.464C101.056 93.856 100.885 93.4027 100.544 93.104C100.202 92.7947 99.7168 92.64 99.0875 92.64C98.5328 92.64 98.0795 92.752 97.7275 92.976C97.3755 93.1893 97.0928 93.4827 96.8795 93.856L96.0155 93.216C96.1222 93.0027 96.2662 92.7947 96.4475 92.592C96.6288 92.3893 96.8528 92.2133 97.1195 92.064C97.3862 91.904 97.6902 91.7813 98.0315 91.696C98.3728 91.6 98.7515 91.552 99.1675 91.552C100.138 91.552 100.906 91.7973 101.472 92.288C102.048 92.7787 102.336 93.4613 102.336 94.336V98.88H103.488V100H102.608ZM98.7995 99.12C99.1302 99.12 99.4288 99.0827 99.6955 99.008C99.9728 98.9227 100.213 98.816 100.416 98.688C100.618 98.5493 100.773 98.3893 100.88 98.208C100.997 98.016 101.056 97.8133 101.056 97.6V96.24H99.2955C98.5275 96.24 97.9675 96.3467 97.6155 96.56C97.2635 96.7733 97.0875 97.0827 97.0875 97.488V97.824C97.0875 98.2507 97.2368 98.576 97.5355 98.8C97.8448 99.0133 98.2662 99.12 98.7995 99.12ZM105.599 100V91.744H106.879V93.088H106.943C107.029 92.8853 107.135 92.6933 107.263 92.512C107.391 92.32 107.546 92.1547 107.727 92.016C107.919 91.8773 108.143 91.7653 108.399 91.68C108.655 91.5947 108.954 91.552 109.295 91.552C110.159 91.552 110.853 91.8293 111.375 92.384C111.898 92.928 112.159 93.7013 112.159 94.704V100H110.879V94.928C110.879 94.1707 110.714 93.6107 110.383 93.248C110.053 92.8747 109.567 92.688 108.927 92.688C108.671 92.688 108.421 92.72 108.175 92.784C107.93 92.848 107.711 92.944 107.519 93.072C107.327 93.2 107.173 93.3653 107.055 93.568C106.938 93.7707 106.879 94.0053 106.879 94.272V100H105.599ZM127.519 100.192C126.943 100.192 126.42 100.091 125.951 99.888C125.492 99.6853 125.097 99.3973 124.767 99.024C124.447 98.64 124.201 98.1867 124.031 97.664C123.86 97.1307 123.775 96.5333 123.775 95.872C123.775 95.2213 123.86 94.6293 124.031 94.096C124.201 93.5627 124.447 93.1093 124.767 92.736C125.097 92.352 125.492 92.0587 125.951 91.856C126.42 91.6533 126.943 91.552 127.519 91.552C128.095 91.552 128.612 91.6533 129.071 91.856C129.54 92.0587 129.935 92.352 130.255 92.736C130.585 93.1093 130.836 93.5627 131.007 94.096C131.177 94.6293 131.263 95.2213 131.263 95.872C131.263 96.5333 131.177 97.1307 131.007 97.664C130.836 98.1867 130.585 98.64 130.255 99.024C129.935 99.3973 129.54 99.6853 129.071 99.888C128.612 100.091 128.095 100.192 127.519 100.192ZM127.519 99.088C128.233 99.088 128.809 98.8747 129.247 98.448C129.684 98.0213 129.903 97.36 129.903 96.464V95.28C129.903 94.384 129.684 93.7227 129.247 93.296C128.809 92.8693 128.233 92.656 127.519 92.656C126.804 92.656 126.228 92.8693 125.791 93.296C125.353 93.7227 125.135 94.384 125.135 95.28V96.464C125.135 97.36 125.353 98.0213 125.791 98.448C126.228 98.8747 126.804 99.088 127.519 99.088ZM137.263 100C136.633 100 136.169 99.824 135.871 99.472C135.583 99.12 135.439 98.6667 135.439 98.112V92.832H132.687V91.744H134.735C135.012 91.744 135.204 91.6907 135.311 91.584C135.428 91.4667 135.487 91.2693 135.487 90.992V88.832H136.719V91.744H140.479V92.832H136.719V98.912H140.479V100H137.263ZM142.974 88.16H144.254V93.088H144.318C144.404 92.8853 144.51 92.6933 144.638 92.512C144.766 92.32 144.921 92.1547 145.102 92.016C145.294 91.8773 145.518 91.7653 145.774 91.68C146.03 91.5947 146.329 91.552 146.67 91.552C147.534 91.552 148.228 91.8293 148.75 92.384C149.273 92.928 149.534 93.7013 149.534 94.704V100H148.254V94.928C148.254 94.1707 148.089 93.6107 147.758 93.248C147.428 92.8747 146.942 92.688 146.302 92.688C146.046 92.688 145.796 92.72 145.55 92.784C145.305 92.848 145.086 92.944 144.894 93.072C144.702 93.2 144.548 93.3653 144.43 93.568C144.313 93.7707 144.254 94.0053 144.254 94.272V100H142.974V88.16ZM155.694 100.192C155.097 100.192 154.558 100.091 154.078 99.888C153.609 99.6853 153.203 99.3973 152.862 99.024C152.531 98.64 152.275 98.1867 152.094 97.664C151.913 97.1307 151.822 96.5387 151.822 95.888C151.822 95.2267 151.913 94.6293 152.094 94.096C152.286 93.5627 152.547 93.1093 152.878 92.736C153.209 92.352 153.603 92.0587 154.062 91.856C154.531 91.6533 155.049 91.552 155.614 91.552C156.169 91.552 156.67 91.6533 157.118 91.856C157.577 92.0587 157.966 92.3413 158.286 92.704C158.606 93.056 158.851 93.4773 159.022 93.968C159.193 94.4587 159.278 94.9973 159.278 95.584V96.192H153.166V96.576C153.166 96.9387 153.225 97.2747 153.342 97.584C153.459 97.8933 153.625 98.16 153.838 98.384C154.062 98.608 154.329 98.784 154.638 98.912C154.958 99.0293 155.31 99.088 155.694 99.088C156.249 99.088 156.729 98.96 157.134 98.704C157.539 98.448 157.849 98.096 158.062 97.648L159.006 98.288C158.761 98.8427 158.35 99.3013 157.774 99.664C157.209 100.016 156.515 100.192 155.694 100.192ZM155.614 92.608C155.262 92.608 154.937 92.672 154.638 92.8C154.339 92.928 154.078 93.104 153.854 93.328C153.641 93.552 153.47 93.8187 153.342 94.128C153.225 94.4267 153.166 94.7573 153.166 95.12V95.232H157.902V95.056C157.902 94.6933 157.843 94.3627 157.726 94.064C157.619 93.7653 157.465 93.5093 157.262 93.296C157.07 93.072 156.83 92.9013 156.542 92.784C156.265 92.6667 155.955 92.608 155.614 92.608ZM161.326 98.912H163.742V92.832H161.326V91.744H165.022V93.824H165.102C165.272 93.1733 165.592 92.6667 166.062 92.304C166.542 91.9307 167.15 91.744 167.886 91.744H169.038V93.024H167.486C166.75 93.024 166.152 93.2373 165.694 93.664C165.246 94.0907 165.022 94.6507 165.022 95.344V98.912H168.222V100H161.326V98.912ZM174.334 100.192C173.47 100.192 172.723 100.048 172.094 99.76C171.475 99.4613 170.947 99.0667 170.51 98.576L171.374 97.824C171.768 98.24 172.2 98.56 172.67 98.784C173.139 99.008 173.704 99.12 174.366 99.12C175.006 99.12 175.528 99.008 175.934 98.784C176.35 98.5493 176.558 98.1867 176.558 97.696C176.558 97.4827 176.515 97.3067 176.43 97.168C176.355 97.0187 176.248 96.9013 176.11 96.816C175.971 96.7307 175.816 96.6667 175.646 96.624C175.475 96.5707 175.294 96.528 175.102 96.496L173.806 96.304C173.518 96.2613 173.203 96.2027 172.862 96.128C172.531 96.0533 172.227 95.936 171.95 95.776C171.672 95.6053 171.438 95.3813 171.246 95.104C171.064 94.8267 170.974 94.464 170.974 94.016C170.974 93.6 171.054 93.2427 171.214 92.944C171.384 92.6347 171.619 92.3787 171.918 92.176C172.216 91.9627 172.568 91.808 172.974 91.712C173.379 91.6053 173.822 91.552 174.302 91.552C175.048 91.552 175.694 91.6693 176.238 91.904C176.792 92.1387 177.267 92.464 177.661 92.88L176.83 93.664C176.734 93.5467 176.611 93.4293 176.462 93.312C176.323 93.184 176.147 93.072 175.934 92.976C175.731 92.8693 175.491 92.784 175.214 92.72C174.936 92.656 174.616 92.624 174.254 92.624C173.603 92.624 173.102 92.736 172.75 92.96C172.408 93.184 172.238 93.5093 172.238 93.936C172.238 94.1493 172.275 94.3307 172.35 94.48C172.435 94.6187 172.547 94.7307 172.686 94.816C172.824 94.9013 172.979 94.9707 173.15 95.024C173.331 95.0667 173.512 95.104 173.694 95.136L174.99 95.328C175.288 95.3707 175.603 95.4293 175.934 95.504C176.264 95.5787 176.568 95.7013 176.846 95.872C177.123 96.032 177.352 96.2507 177.534 96.528C177.726 96.8053 177.822 97.168 177.822 97.616C177.822 98.4373 177.502 99.072 176.862 99.52C176.232 99.968 175.39 100.192 174.334 100.192ZM183.325 96.272L182.877 92.08V88.832H184.285V92.08L183.837 96.272H183.325ZM183.581 100.144C183.144 100.144 182.835 100.053 182.653 99.872C182.483 99.6907 182.397 99.4613 182.397 99.184V98.896C182.397 98.6187 182.483 98.3893 182.653 98.208C182.835 98.0267 183.144 97.936 183.581 97.936C184.019 97.936 184.323 98.0267 184.493 98.208C184.675 98.3893 184.765 98.6187 184.765 98.896V99.184C184.765 99.4613 184.675 99.6907 184.493 99.872C184.323 100.053 184.019 100.144 183.581 100.144Z" fill="white"/>
<defs>
<radialGradient id="paint0_radial_528_68" cx="0" cy="0" r="1" gradientUnits="userSpaceOnUse" gradientTransform="translate(192.5 76.5) rotate(90.3633) scale(127.042 235.396)">
<stop stop-color="#C8C8C8" stop-opacity="0.07"/>
<stop offset="0.9999" stop-color="#716A84" stop-opacity="0.58"/>
</radialGradient>
</defs>
</svg>
