<svg width="385" height="153" viewBox="0 0 385 153" fill="none" xmlns="http://www.w3.org/2000/svg">
<rect width="385" height="153" rx="10" fill="url(#paint0_radial_528_69)"/>
<rect x="0.5" y="0.5" width="384" height="152" rx="9.5" stroke="#FFF7E4" stroke-opacity="0.41"/>
<path d="M72.128 55V50.616L68.272 43.832H69.808L71.408 46.744L72.768 49.288H72.832L74.224 46.744L75.824 43.832H77.328L73.472 50.616V55H72.128ZM82.2878 55.192C81.6904 55.192 81.1518 55.0907 80.6718 54.888C80.2024 54.6853 79.7971 54.3973 79.4557 54.024C79.1251 53.64 78.8691 53.1867 78.6878 52.664C78.5064 52.1307 78.4158 51.5387 78.4158 50.888C78.4158 50.2267 78.5064 49.6293 78.6878 49.096C78.8798 48.5627 79.1411 48.1093 79.4718 47.736C79.8024 47.352 80.1971 47.0587 80.6558 46.856C81.1251 46.6533 81.6424 46.552 82.2078 46.552C82.7624 46.552 83.2638 46.6533 83.7118 46.856C84.1704 47.0587 84.5598 47.3413 84.8798 47.704C85.1998 48.056 85.4451 48.4773 85.6158 48.968C85.7864 49.4587 85.8718 49.9973 85.8718 50.584V51.192H79.7598V51.576C79.7598 51.9387 79.8184 52.2747 79.9358 52.584C80.0531 52.8933 80.2184 53.16 80.4318 53.384C80.6558 53.608 80.9224 53.784 81.2318 53.912C81.5518 54.0293 81.9038 54.088 82.2878 54.088C82.8424 54.088 83.3224 53.96 83.7278 53.704C84.1331 53.448 84.4424 53.096 84.6558 52.648L85.5998 53.288C85.3544 53.8427 84.9438 54.3013 84.3678 54.664C83.8024 55.016 83.1091 55.192 82.2878 55.192ZM82.2078 47.608C81.8558 47.608 81.5304 47.672 81.2318 47.8C80.9331 47.928 80.6718 48.104 80.4478 48.328C80.2344 48.552 80.0638 48.8187 79.9358 49.128C79.8184 49.4267 79.7598 49.7573 79.7598 50.12V50.232H84.4958V50.056C84.4958 49.6933 84.4371 49.3627 84.3198 49.064C84.2131 48.7653 84.0584 48.5093 83.8558 48.296C83.6638 48.072 83.4238 47.9013 83.1358 47.784C82.8584 47.6667 82.5491 47.608 82.2078 47.608ZM94.6075 55C94.1062 55 93.7488 54.872 93.5355 54.616C93.3222 54.36 93.1888 54.04 93.1355 53.656H93.0555C92.8742 54.136 92.5808 54.5147 92.1755 54.792C91.7808 55.0587 91.2475 55.192 90.5755 55.192C89.7115 55.192 89.0235 54.968 88.5115 54.52C87.9995 54.072 87.7435 53.4587 87.7435 52.68C87.7435 51.912 88.0208 51.32 88.5755 50.904C89.1408 50.488 90.0475 50.28 91.2955 50.28H93.0555V49.464C93.0555 48.856 92.8848 48.4027 92.5435 48.104C92.2022 47.7947 91.7168 47.64 91.0875 47.64C90.5328 47.64 90.0795 47.752 89.7275 47.976C89.3755 48.1893 89.0928 48.4827 88.8795 48.856L88.0155 48.216C88.1222 48.0027 88.2662 47.7947 88.4475 47.592C88.6288 47.3893 88.8528 47.2133 89.1195 47.064C89.3862 46.904 89.6902 46.7813 90.0315 46.696C90.3728 46.6 90.7515 46.552 91.1675 46.552C92.1382 46.552 92.9062 46.7973 93.4715 47.288C94.0475 47.7787 94.3355 48.4613 94.3355 49.336V53.88H95.4875V55H94.6075ZM90.7995 54.12C91.1302 54.12 91.4288 54.0827 91.6955 54.008C91.9728 53.9227 92.2128 53.816 92.4155 53.688C92.6182 53.5493 92.7728 53.3893 92.8795 53.208C92.9968 53.016 93.0555 52.8133 93.0555 52.6V51.24H91.2955C90.5275 51.24 89.9675 51.3467 89.6155 51.56C89.2635 51.7733 89.0875 52.0827 89.0875 52.488V52.824C89.0875 53.2507 89.2368 53.576 89.5355 53.8C89.8448 54.0133 90.2662 54.12 90.7995 54.12ZM97.5993 43.16H98.8793V48.088H98.9433C99.0286 47.8853 99.1353 47.6933 99.2633 47.512C99.3913 47.32 99.5459 47.1547 99.7273 47.016C99.9193 46.8773 100.143 46.7653 100.399 46.68C100.655 46.5947 100.954 46.552 101.295 46.552C102.159 46.552 102.853 46.8293 103.375 47.384C103.898 47.928 104.159 48.7013 104.159 49.704V55H102.879V49.928C102.879 49.1707 102.714 48.6107 102.383 48.248C102.053 47.8747 101.567 47.688 100.927 47.688C100.671 47.688 100.421 47.72 100.175 47.784C99.9299 47.848 99.7113 47.944 99.5193 48.072C99.3273 48.2 99.1726 48.3653 99.0553 48.568C98.9379 48.7707 98.8793 49.0053 98.8793 49.272V55H97.5993V43.16ZM110.175 55.144C109.738 55.144 109.428 55.0533 109.247 54.872C109.076 54.6907 108.991 54.4613 108.991 54.184V53.896C108.991 53.6187 109.076 53.3893 109.247 53.208C109.428 53.0267 109.738 52.936 110.175 52.936C110.612 52.936 110.916 53.0267 111.087 53.208C111.268 53.3893 111.359 53.6187 111.359 53.896V54.184C111.359 54.4613 111.268 54.6907 111.087 54.872C110.916 55.0533 110.612 55.144 110.175 55.144ZM119.519 55.144C119.081 55.144 118.772 55.0533 118.591 54.872C118.42 54.6907 118.335 54.4613 118.335 54.184V53.896C118.335 53.6187 118.42 53.3893 118.591 53.208C118.772 53.0267 119.081 52.936 119.519 52.936C119.956 52.936 120.26 53.0267 120.431 53.208C120.612 53.3893 120.703 53.6187 120.703 53.896V54.184C120.703 54.4613 120.612 54.6907 120.431 54.872C120.26 55.0533 119.956 55.144 119.519 55.144ZM128.863 55.144C128.425 55.144 128.116 55.0533 127.935 54.872C127.764 54.6907 127.679 54.4613 127.679 54.184V53.896C127.679 53.6187 127.764 53.3893 127.935 53.208C128.116 53.0267 128.425 52.936 128.863 52.936C129.3 52.936 129.604 53.0267 129.775 53.208C129.956 53.3893 130.047 53.6187 130.047 53.896V54.184C130.047 54.4613 129.956 54.6907 129.775 54.872C129.604 55.0533 129.3 55.144 128.863 55.144ZM144.19 55V43.832H148.254C149.289 43.832 150.078 44.1147 150.622 44.68C151.166 45.2453 151.438 46.0347 151.438 47.048C151.438 48.0613 151.166 48.8507 150.622 49.416C150.078 49.9813 149.289 50.264 148.254 50.264H145.534V55H144.19ZM145.534 49.096H148.222C148.787 49.096 149.225 48.9573 149.534 48.68C149.854 48.392 150.014 47.9867 150.014 47.464V46.632C150.014 46.1093 149.854 45.7093 149.534 45.432C149.225 45.144 148.787 45 148.222 45H145.534V49.096ZM157.038 55.192C156.44 55.192 155.902 55.0907 155.422 54.888C154.952 54.6853 154.547 54.3973 154.206 54.024C153.875 53.64 153.619 53.1867 153.438 52.664C153.256 52.1307 153.166 51.5387 153.166 50.888C153.166 50.2267 153.256 49.6293 153.438 49.096C153.63 48.5627 153.891 48.1093 154.222 47.736C154.552 47.352 154.947 47.0587 155.406 46.856C155.875 46.6533 156.392 46.552 156.958 46.552C157.512 46.552 158.014 46.6533 158.462 46.856C158.92 47.0587 159.31 47.3413 159.63 47.704C159.95 48.056 160.195 48.4773 160.366 48.968C160.536 49.4587 160.622 49.9973 160.622 50.584V51.192H154.51V51.576C154.51 51.9387 154.568 52.2747 154.686 52.584C154.803 52.8933 154.968 53.16 155.182 53.384C155.406 53.608 155.672 53.784 155.982 53.912C156.302 54.0293 156.654 54.088 157.038 54.088C157.592 54.088 158.072 53.96 158.478 53.704C158.883 53.448 159.192 53.096 159.406 52.648L160.35 53.288C160.104 53.8427 159.694 54.3013 159.118 54.664C158.552 55.016 157.859 55.192 157.038 55.192ZM156.958 47.608C156.606 47.608 156.28 47.672 155.982 47.8C155.683 47.928 155.422 48.104 155.198 48.328C154.984 48.552 154.814 48.8187 154.686 49.128C154.568 49.4267 154.51 49.7573 154.51 50.12V50.232H159.246V50.056C159.246 49.6933 159.187 49.3627 159.07 49.064C158.963 48.7653 158.808 48.5093 158.606 48.296C158.414 48.072 158.174 47.9013 157.886 47.784C157.608 47.6667 157.299 47.608 156.958 47.608ZM166.238 55.192C165.662 55.192 165.139 55.0907 164.67 54.888C164.211 54.6853 163.816 54.3973 163.486 54.024C163.166 53.64 162.92 53.1867 162.75 52.664C162.579 52.1307 162.493 51.5333 162.493 50.872C162.493 50.2213 162.579 49.6293 162.75 49.096C162.92 48.5627 163.166 48.1093 163.486 47.736C163.816 47.352 164.211 47.0587 164.67 46.856C165.139 46.6533 165.662 46.552 166.238 46.552C166.814 46.552 167.331 46.6533 167.79 46.856C168.259 47.0587 168.654 47.352 168.974 47.736C169.304 48.1093 169.555 48.5627 169.726 49.096C169.896 49.6293 169.982 50.2213 169.982 50.872C169.982 51.5333 169.896 52.1307 169.726 52.664C169.555 53.1867 169.304 53.64 168.974 54.024C168.654 54.3973 168.259 54.6853 167.79 54.888C167.331 55.0907 166.814 55.192 166.238 55.192ZM166.238 54.088C166.952 54.088 167.528 53.8747 167.966 53.448C168.403 53.0213 168.622 52.36 168.622 51.464V50.28C168.622 49.384 168.403 48.7227 167.966 48.296C167.528 47.8693 166.952 47.656 166.238 47.656C165.523 47.656 164.947 47.8693 164.51 48.296C164.072 48.7227 163.854 49.384 163.854 50.28V51.464C163.854 52.36 164.072 53.0213 164.51 53.448C164.947 53.8747 165.523 54.088 166.238 54.088ZM172.301 46.744H173.581V48.088H173.645C174.179 47.064 175.027 46.552 176.189 46.552C177.203 46.552 177.992 46.9307 178.557 47.688C179.133 48.4453 179.421 49.5067 179.421 50.872C179.421 52.2373 179.133 53.2987 178.557 54.056C177.992 54.8133 177.203 55.192 176.189 55.192C175.027 55.192 174.179 54.68 173.645 53.656H173.581V58.2H172.301V46.744ZM175.693 54.056C176.44 54.056 177.016 53.832 177.421 53.384C177.837 52.9253 178.045 52.3227 178.045 51.576V50.168C178.045 49.4213 177.837 48.824 177.421 48.376C177.016 47.9173 176.44 47.688 175.693 47.688C175.405 47.688 175.133 47.7253 174.877 47.8C174.621 47.8747 174.397 47.9867 174.205 48.136C174.013 48.2747 173.859 48.4507 173.741 48.664C173.635 48.8667 173.581 49.1067 173.581 49.384V52.36C173.581 52.6373 173.635 52.8827 173.741 53.096C173.859 53.2987 174.013 53.4747 174.205 53.624C174.397 53.7627 174.621 53.8693 174.877 53.944C175.133 54.0187 175.405 54.056 175.693 54.056ZM181.405 53.912H184.285V44.248H181.405V43.16H185.565V53.912H188.445V55H181.405V53.912ZM194.413 55.192C193.815 55.192 193.277 55.0907 192.797 54.888C192.327 54.6853 191.922 54.3973 191.581 54.024C191.25 53.64 190.994 53.1867 190.813 52.664C190.631 52.1307 190.541 51.5387 190.541 50.888C190.541 50.2267 190.631 49.6293 190.813 49.096C191.005 48.5627 191.266 48.1093 191.597 47.736C191.927 47.352 192.322 47.0587 192.781 46.856C193.25 46.6533 193.767 46.552 194.333 46.552C194.887 46.552 195.389 46.6533 195.837 46.856C196.295 47.0587 196.685 47.3413 197.005 47.704C197.325 48.056 197.57 48.4773 197.741 48.968C197.911 49.4587 197.997 49.9973 197.997 50.584V51.192H191.885V51.576C191.885 51.9387 191.943 52.2747 192.061 52.584C192.178 52.8933 192.343 53.16 192.557 53.384C192.781 53.608 193.047 53.784 193.357 53.912C193.677 54.0293 194.029 54.088 194.413 54.088C194.967 54.088 195.447 53.96 195.853 53.704C196.258 53.448 196.567 53.096 196.781 52.648L197.725 53.288C197.479 53.8427 197.069 54.3013 196.493 54.664C195.927 55.016 195.234 55.192 194.413 55.192ZM194.333 47.608C193.981 47.608 193.655 47.672 193.357 47.8C193.058 47.928 192.797 48.104 192.573 48.328C192.359 48.552 192.189 48.8187 192.061 49.128C191.943 49.4267 191.885 49.7573 191.885 50.12V50.232H196.621V50.056C196.621 49.6933 196.562 49.3627 196.445 49.064C196.338 48.7653 196.183 48.5093 195.981 48.296C195.789 48.072 195.549 47.9013 195.261 47.784C194.983 47.6667 194.674 47.608 194.333 47.608ZM209.388 53.912H211.804V47.832H209.388V46.744H213.084V48.824H213.164C213.335 48.1733 213.655 47.6667 214.124 47.304C214.604 46.9307 215.212 46.744 215.948 46.744H217.1V48.024H215.548C214.812 48.024 214.215 48.2373 213.756 48.664C213.308 49.0907 213.084 49.6507 213.084 50.344V53.912H216.284V55H209.388V53.912ZM222.444 55.192C221.847 55.192 221.308 55.0907 220.828 54.888C220.359 54.6853 219.953 54.3973 219.612 54.024C219.281 53.64 219.025 53.1867 218.844 52.664C218.663 52.1307 218.572 51.5387 218.572 50.888C218.572 50.2267 218.663 49.6293 218.844 49.096C219.036 48.5627 219.297 48.1093 219.628 47.736C219.959 47.352 220.353 47.0587 220.812 46.856C221.281 46.6533 221.799 46.552 222.364 46.552C222.919 46.552 223.42 46.6533 223.868 46.856C224.327 47.0587 224.716 47.3413 225.036 47.704C225.356 48.056 225.601 48.4773 225.772 48.968C225.943 49.4587 226.028 49.9973 226.028 50.584V51.192H219.916V51.576C219.916 51.9387 219.975 52.2747 220.092 52.584C220.209 52.8933 220.375 53.16 220.588 53.384C220.812 53.608 221.079 53.784 221.388 53.912C221.708 54.0293 222.06 54.088 222.444 54.088C222.999 54.088 223.479 53.96 223.884 53.704C224.289 53.448 224.599 53.096 224.812 52.648L225.756 53.288C225.511 53.8427 225.1 54.3013 224.524 54.664C223.959 55.016 223.265 55.192 222.444 55.192ZM222.364 47.608C222.012 47.608 221.687 47.672 221.388 47.8C221.089 47.928 220.828 48.104 220.604 48.328C220.391 48.552 220.22 48.8187 220.092 49.128C219.975 49.4267 219.916 49.7573 219.916 50.12V50.232H224.652V50.056C224.652 49.6933 224.593 49.3627 224.476 49.064C224.369 48.7653 224.215 48.5093 224.012 48.296C223.82 48.072 223.58 47.9013 223.292 47.784C223.015 47.6667 222.705 47.608 222.364 47.608ZM234.764 55C234.262 55 233.905 54.872 233.692 54.616C233.478 54.36 233.345 54.04 233.292 53.656H233.212C233.03 54.136 232.737 54.5147 232.332 54.792C231.937 55.0587 231.404 55.192 230.732 55.192C229.868 55.192 229.18 54.968 228.668 54.52C228.156 54.072 227.9 53.4587 227.9 52.68C227.9 51.912 228.177 51.32 228.732 50.904C229.297 50.488 230.204 50.28 231.452 50.28H233.212V49.464C233.212 48.856 233.041 48.4027 232.7 48.104C232.358 47.7947 231.873 47.64 231.244 47.64C230.689 47.64 230.236 47.752 229.884 47.976C229.532 48.1893 229.249 48.4827 229.036 48.856L228.172 48.216C228.278 48.0027 228.422 47.7947 228.604 47.592C228.785 47.3893 229.009 47.2133 229.276 47.064C229.542 46.904 229.846 46.7813 230.188 46.696C230.529 46.6 230.908 46.552 231.324 46.552C232.294 46.552 233.062 46.7973 233.628 47.288C234.204 47.7787 234.492 48.4613 234.492 49.336V53.88H235.644V55H234.764ZM230.956 54.12C231.286 54.12 231.585 54.0827 231.852 54.008C232.129 53.9227 232.369 53.816 232.572 53.688C232.774 53.5493 232.929 53.3893 233.036 53.208C233.153 53.016 233.212 52.8133 233.212 52.6V51.24H231.452C230.684 51.24 230.124 51.3467 229.772 51.56C229.42 51.7733 229.244 52.0827 229.244 52.488V52.824C229.244 53.2507 229.393 53.576 229.692 53.8C230.001 54.0133 230.422 54.12 230.956 54.12ZM237.468 53.912H240.348V44.248H237.468V43.16H241.628V53.912H244.508V55H237.468V53.912ZM246.811 53.912H249.691V44.248H246.811V43.16H250.971V53.912H253.851V55H246.811V53.912ZM262.347 46.744H263.627L259.531 56.808C259.435 57.0427 259.328 57.2453 259.211 57.416C259.094 57.5973 258.955 57.7413 258.795 57.848C258.635 57.9653 258.443 58.0507 258.219 58.104C257.995 58.168 257.728 58.2 257.419 58.2H256.203V57.112H258.123L259.051 54.84L255.723 46.744H257.035L258.427 50.2L259.659 53.336H259.723L260.955 50.2L262.347 46.744ZM275.131 55V46.744H276.411V48.088H276.475C276.56 47.8853 276.667 47.6933 276.795 47.512C276.923 47.32 277.077 47.1547 277.259 47.016C277.451 46.8773 277.675 46.7653 277.931 46.68C278.187 46.5947 278.485 46.552 278.827 46.552C279.691 46.552 280.384 46.8293 280.907 47.384C281.429 47.928 281.691 48.7013 281.691 49.704V55H280.411V49.928C280.411 49.1707 280.245 48.6107 279.915 48.248C279.584 47.8747 279.099 47.688 278.459 47.688C278.203 47.688 277.952 47.72 277.707 47.784C277.461 47.848 277.243 47.944 277.051 48.072C276.859 48.2 276.704 48.3653 276.587 48.568C276.469 48.7707 276.411 49.0053 276.411 49.272V55H275.131ZM287.85 55.192C287.253 55.192 286.714 55.0907 286.234 54.888C285.765 54.6853 285.36 54.3973 285.018 54.024C284.688 53.64 284.432 53.1867 284.25 52.664C284.069 52.1307 283.978 51.5387 283.978 50.888C283.978 50.2267 284.069 49.6293 284.25 49.096C284.442 48.5627 284.704 48.1093 285.034 47.736C285.365 47.352 285.76 47.0587 286.218 46.856C286.688 46.6533 287.205 46.552 287.77 46.552C288.325 46.552 288.826 46.6533 289.274 46.856C289.733 47.0587 290.122 47.3413 290.442 47.704C290.762 48.056 291.008 48.4773 291.178 48.968C291.349 49.4587 291.434 49.9973 291.434 50.584V51.192H285.322V51.576C285.322 51.9387 285.381 52.2747 285.498 52.584C285.616 52.8933 285.781 53.16 285.994 53.384C286.218 53.608 286.485 53.784 286.794 53.912C287.114 54.0293 287.466 54.088 287.85 54.088C288.405 54.088 288.885 53.96 289.29 53.704C289.696 53.448 290.005 53.096 290.218 52.648L291.162 53.288C290.917 53.8427 290.506 54.3013 289.93 54.664C289.365 55.016 288.672 55.192 287.85 55.192ZM287.77 47.608C287.418 47.608 287.093 47.672 286.794 47.8C286.496 47.928 286.234 48.104 286.01 48.328C285.797 48.552 285.626 48.8187 285.498 49.128C285.381 49.4267 285.322 49.7573 285.322 50.12V50.232H290.058V50.056C290.058 49.6933 290 49.3627 289.882 49.064C289.776 48.7653 289.621 48.5093 289.418 48.296C289.226 48.072 288.986 47.9013 288.698 47.784C288.421 47.6667 288.112 47.608 287.77 47.608ZM297.194 55.192C296.597 55.192 296.058 55.0907 295.578 54.888C295.109 54.6853 294.703 54.3973 294.362 54.024C294.031 53.64 293.775 53.1867 293.594 52.664C293.413 52.1307 293.322 51.5387 293.322 50.888C293.322 50.2267 293.413 49.6293 293.594 49.096C293.786 48.5627 294.047 48.1093 294.378 47.736C294.709 47.352 295.103 47.0587 295.562 46.856C296.031 46.6533 296.549 46.552 297.114 46.552C297.669 46.552 298.17 46.6533 298.618 46.856C299.077 47.0587 299.466 47.3413 299.786 47.704C300.106 48.056 300.351 48.4773 300.522 48.968C300.693 49.4587 300.778 49.9973 300.778 50.584V51.192H294.666V51.576C294.666 51.9387 294.725 52.2747 294.842 52.584C294.959 52.8933 295.125 53.16 295.338 53.384C295.562 53.608 295.829 53.784 296.138 53.912C296.458 54.0293 296.81 54.088 297.194 54.088C297.749 54.088 298.229 53.96 298.634 53.704C299.039 53.448 299.349 53.096 299.562 52.648L300.506 53.288C300.261 53.8427 299.85 54.3013 299.274 54.664C298.709 55.016 298.015 55.192 297.194 55.192ZM297.114 47.608C296.762 47.608 296.437 47.672 296.138 47.8C295.839 47.928 295.578 48.104 295.354 48.328C295.141 48.552 294.97 48.8187 294.842 49.128C294.725 49.4267 294.666 49.7573 294.666 50.12V50.232H299.402V50.056C299.402 49.6933 299.343 49.3627 299.226 49.064C299.119 48.7653 298.965 48.5093 298.762 48.296C298.57 48.072 298.33 47.9013 298.042 47.784C297.765 47.6667 297.455 47.608 297.114 47.608ZM308.394 53.656H308.33C307.796 54.68 306.948 55.192 305.786 55.192C304.772 55.192 303.978 54.8133 303.402 54.056C302.836 53.2987 302.554 52.2373 302.554 50.872C302.554 49.5067 302.836 48.4453 303.402 47.688C303.978 46.9307 304.772 46.552 305.786 46.552C306.948 46.552 307.796 47.064 308.33 48.088H308.394V43.16H309.674V55H308.394V53.656ZM306.282 54.056C306.57 54.056 306.842 54.0187 307.098 53.944C307.354 53.8693 307.578 53.7627 307.77 53.624C307.962 53.4747 308.111 53.2987 308.218 53.096C308.335 52.8827 308.394 52.6373 308.394 52.36V49.384C308.394 49.1067 308.335 48.8667 308.218 48.664C308.111 48.4507 307.962 48.2747 307.77 48.136C307.578 47.9867 307.354 47.8747 307.098 47.8C306.842 47.7253 306.57 47.688 306.282 47.688C305.535 47.688 304.954 47.9173 304.538 48.376C304.132 48.824 303.93 49.4213 303.93 50.168V51.576C303.93 52.3227 304.132 52.9253 304.538 53.384C304.954 53.832 305.535 54.056 306.282 54.056ZM68.864 77V68.744H70.048V69.704H70.112C70.24 69.384 70.4213 69.112 70.656 68.888C70.8907 68.664 71.2373 68.552 71.696 68.552C72.176 68.552 72.5333 68.6747 72.768 68.92C73.0027 69.1547 73.1467 69.464 73.2 69.848H73.248C73.3973 69.4747 73.6107 69.1653 73.888 68.92C74.1653 68.6747 74.5493 68.552 75.04 68.552C75.712 68.552 76.16 68.7867 76.384 69.256C76.6187 69.7253 76.736 70.3973 76.736 71.272V77H75.552V71.48C75.552 70.776 75.4773 70.2907 75.328 70.024C75.1893 69.7467 74.928 69.608 74.544 69.608C74.2027 69.608 73.9253 69.72 73.712 69.944C73.4987 70.1573 73.392 70.488 73.392 70.936V77H72.208V71.48C72.208 70.776 72.1333 70.2907 71.984 70.024C71.8453 69.7467 71.5893 69.608 71.216 69.608C70.8747 69.608 70.592 69.72 70.368 69.944C70.1547 70.1573 70.048 70.488 70.048 70.936V77H68.864ZM82.1438 77.192C81.5678 77.192 81.0451 77.0907 80.5758 76.888C80.1171 76.6853 79.7224 76.3973 79.3918 76.024C79.0718 75.64 78.8264 75.1867 78.6558 74.664C78.4851 74.1307 78.3997 73.5333 78.3997 72.872C78.3997 72.2213 78.4851 71.6293 78.6558 71.096C78.8264 70.5627 79.0718 70.1093 79.3918 69.736C79.7224 69.352 80.1171 69.0587 80.5758 68.856C81.0451 68.6533 81.5678 68.552 82.1438 68.552C82.7198 68.552 83.2371 68.6533 83.6958 68.856C84.1651 69.0587 84.5598 69.352 84.8798 69.736C85.2104 70.1093 85.4611 70.5627 85.6318 71.096C85.8024 71.6293 85.8878 72.2213 85.8878 72.872C85.8878 73.5333 85.8024 74.1307 85.6318 74.664C85.4611 75.1867 85.2104 75.64 84.8798 76.024C84.5598 76.3973 84.1651 76.6853 83.6958 76.888C83.2371 77.0907 82.7198 77.192 82.1438 77.192ZM82.1438 76.088C82.8584 76.088 83.4344 75.8747 83.8718 75.448C84.3091 75.0213 84.5278 74.36 84.5278 73.464V72.28C84.5278 71.384 84.3091 70.7227 83.8718 70.296C83.4344 69.8693 82.8584 69.656 82.1438 69.656C81.4291 69.656 80.8531 69.8693 80.4158 70.296C79.9784 70.7227 79.7598 71.384 79.7598 72.28V73.464C79.7598 74.36 79.9784 75.0213 80.4158 75.448C80.8531 75.8747 81.4291 76.088 82.1438 76.088ZM87.9195 75.912H90.3355V69.832H87.9195V68.744H91.6155V70.824H91.6955C91.8662 70.1733 92.1862 69.6667 92.6555 69.304C93.1355 68.9307 93.7435 68.744 94.4795 68.744H95.6315V70.024H94.0795C93.3435 70.024 92.7462 70.2373 92.2875 70.664C91.8395 71.0907 91.6155 71.6507 91.6155 72.344V75.912H94.8155V77H87.9195V75.912ZM100.975 77.192C100.378 77.192 99.8393 77.0907 99.3593 76.888C98.8899 76.6853 98.4846 76.3973 98.1432 76.024C97.8126 75.64 97.5566 75.1867 97.3753 74.664C97.1939 74.1307 97.1033 73.5387 97.1033 72.888C97.1033 72.2267 97.1939 71.6293 97.3753 71.096C97.5673 70.5627 97.8286 70.1093 98.1593 69.736C98.4899 69.352 98.8846 69.0587 99.3433 68.856C99.8126 68.6533 100.33 68.552 100.895 68.552C101.45 68.552 101.951 68.6533 102.399 68.856C102.858 69.0587 103.247 69.3413 103.567 69.704C103.887 70.056 104.133 70.4773 104.303 70.968C104.474 71.4587 104.559 71.9973 104.559 72.584V73.192H98.4473V73.576C98.4473 73.9387 98.5059 74.2747 98.6233 74.584C98.7406 74.8933 98.9059 75.16 99.1193 75.384C99.3433 75.608 99.6099 75.784 99.9193 75.912C100.239 76.0293 100.591 76.088 100.975 76.088C101.53 76.088 102.01 75.96 102.415 75.704C102.821 75.448 103.13 75.096 103.343 74.648L104.287 75.288C104.042 75.8427 103.631 76.3013 103.055 76.664C102.49 77.016 101.797 77.192 100.975 77.192ZM100.895 69.608C100.543 69.608 100.218 69.672 99.9193 69.8C99.6206 69.928 99.3593 70.104 99.1353 70.328C98.9219 70.552 98.7513 70.8187 98.6233 71.128C98.5059 71.4267 98.4473 71.7573 98.4473 72.12V72.232H103.183V72.056C103.183 71.6933 103.125 71.3627 103.007 71.064C102.901 70.7653 102.746 70.5093 102.543 70.296C102.351 70.072 102.111 69.9013 101.823 69.784C101.546 69.6667 101.237 69.608 100.895 69.608ZM119.807 77.192C119.209 77.192 118.676 77.0907 118.207 76.888C117.748 76.6747 117.359 76.3813 117.039 76.008C116.719 75.6347 116.473 75.1813 116.303 74.648C116.143 74.1147 116.063 73.5227 116.063 72.872C116.063 72.2213 116.148 71.6293 116.319 71.096C116.489 70.5627 116.735 70.1093 117.055 69.736C117.375 69.352 117.764 69.0587 118.223 68.856C118.681 68.6533 119.204 68.552 119.791 68.552C120.591 68.552 121.241 68.728 121.743 69.08C122.244 69.432 122.612 69.8907 122.847 70.456L121.823 71C121.673 70.5733 121.423 70.2427 121.071 70.008C120.729 69.7733 120.303 69.656 119.791 69.656C119.417 69.656 119.081 69.72 118.783 69.848C118.495 69.9653 118.249 70.136 118.047 70.36C117.844 70.584 117.689 70.8507 117.583 71.16C117.487 71.4693 117.439 71.8053 117.439 72.168V73.576C117.439 73.9387 117.487 74.2747 117.583 74.584C117.689 74.8933 117.844 75.16 118.047 75.384C118.249 75.608 118.5 75.784 118.799 75.912C119.097 76.0293 119.439 76.088 119.823 76.088C120.377 76.088 120.836 75.96 121.199 75.704C121.561 75.448 121.849 75.096 122.063 74.648L122.975 75.272C122.729 75.8267 122.345 76.2853 121.823 76.648C121.311 77.0107 120.639 77.192 119.807 77.192ZM128.863 77.192C128.287 77.192 127.764 77.0907 127.295 76.888C126.836 76.6853 126.441 76.3973 126.111 76.024C125.791 75.64 125.545 75.1867 125.375 74.664C125.204 74.1307 125.118 73.5333 125.118 72.872C125.118 72.2213 125.204 71.6293 125.375 71.096C125.545 70.5627 125.791 70.1093 126.111 69.736C126.441 69.352 126.836 69.0587 127.295 68.856C127.764 68.6533 128.287 68.552 128.863 68.552C129.439 68.552 129.956 68.6533 130.415 68.856C130.884 69.0587 131.279 69.352 131.599 69.736C131.929 70.1093 132.18 70.5627 132.351 71.096C132.521 71.6293 132.607 72.2213 132.607 72.872C132.607 73.5333 132.521 74.1307 132.351 74.664C132.18 75.1867 131.929 75.64 131.599 76.024C131.279 76.3973 130.884 76.6853 130.415 76.888C129.956 77.0907 129.439 77.192 128.863 77.192ZM128.863 76.088C129.577 76.088 130.153 75.8747 130.591 75.448C131.028 75.0213 131.247 74.36 131.247 73.464V72.28C131.247 71.384 131.028 70.7227 130.591 70.296C130.153 69.8693 129.577 69.656 128.863 69.656C128.148 69.656 127.572 69.8693 127.135 70.296C126.697 70.7227 126.479 71.384 126.479 72.28V73.464C126.479 74.36 126.697 75.0213 127.135 75.448C127.572 75.8747 128.148 76.088 128.863 76.088ZM134.27 77V68.744H135.454V69.704H135.518C135.646 69.384 135.828 69.112 136.062 68.888C136.297 68.664 136.644 68.552 137.102 68.552C137.582 68.552 137.94 68.6747 138.174 68.92C138.409 69.1547 138.553 69.464 138.606 69.848H138.654C138.804 69.4747 139.017 69.1653 139.294 68.92C139.572 68.6747 139.956 68.552 140.446 68.552C141.118 68.552 141.566 68.7867 141.79 69.256C142.025 69.7253 142.142 70.3973 142.142 71.272V77H140.958V71.48C140.958 70.776 140.884 70.2907 140.734 70.024C140.596 69.7467 140.334 69.608 139.95 69.608C139.609 69.608 139.332 69.72 139.118 69.944C138.905 70.1573 138.798 70.488 138.798 70.936V77H137.614V71.48C137.614 70.776 137.54 70.2907 137.39 70.024C137.252 69.7467 136.996 69.608 136.622 69.608C136.281 69.608 135.998 69.72 135.774 69.944C135.561 70.1573 135.454 70.488 135.454 70.936V77H134.27ZM144.27 68.744H145.55V70.088H145.614C146.147 69.064 146.995 68.552 148.158 68.552C149.171 68.552 149.961 68.9307 150.526 69.688C151.102 70.4453 151.39 71.5067 151.39 72.872C151.39 74.2373 151.102 75.2987 150.526 76.056C149.961 76.8133 149.171 77.192 148.158 77.192C146.995 77.192 146.147 76.68 145.614 75.656H145.55V80.2H144.27V68.744ZM147.662 76.056C148.409 76.056 148.985 75.832 149.39 75.384C149.806 74.9253 150.014 74.3227 150.014 73.576V72.168C150.014 71.4213 149.806 70.824 149.39 70.376C148.985 69.9173 148.409 69.688 147.662 69.688C147.374 69.688 147.102 69.7253 146.846 69.8C146.59 69.8747 146.366 69.9867 146.174 70.136C145.982 70.2747 145.827 70.4507 145.71 70.664C145.603 70.8667 145.55 71.1067 145.55 71.384V74.36C145.55 74.6373 145.603 74.8827 145.71 75.096C145.827 75.2987 145.982 75.4747 146.174 75.624C146.366 75.7627 146.59 75.8693 146.846 75.944C147.102 76.0187 147.374 76.056 147.662 76.056ZM160.014 77C159.512 77 159.155 76.872 158.942 76.616C158.728 76.36 158.595 76.04 158.542 75.656H158.462C158.28 76.136 157.987 76.5147 157.582 76.792C157.187 77.0587 156.654 77.192 155.982 77.192C155.118 77.192 154.43 76.968 153.918 76.52C153.406 76.072 153.15 75.4587 153.15 74.68C153.15 73.912 153.427 73.32 153.982 72.904C154.547 72.488 155.454 72.28 156.702 72.28H158.462V71.464C158.462 70.856 158.291 70.4027 157.95 70.104C157.608 69.7947 157.123 69.64 156.494 69.64C155.939 69.64 155.486 69.752 155.134 69.976C154.782 70.1893 154.499 70.4827 154.286 70.856L153.422 70.216C153.528 70.0027 153.672 69.7947 153.854 69.592C154.035 69.3893 154.259 69.2133 154.526 69.064C154.792 68.904 155.096 68.7813 155.438 68.696C155.779 68.6 156.158 68.552 156.574 68.552C157.544 68.552 158.312 68.7973 158.878 69.288C159.454 69.7787 159.742 70.4613 159.742 71.336V75.88H160.894V77H160.014ZM156.206 76.12C156.536 76.12 156.835 76.0827 157.102 76.008C157.379 75.9227 157.619 75.816 157.822 75.688C158.024 75.5493 158.179 75.3893 158.286 75.208C158.403 75.016 158.462 74.8133 158.462 74.6V73.24H156.702C155.934 73.24 155.374 73.3467 155.022 73.56C154.67 73.7733 154.494 74.0827 154.494 74.488V74.824C154.494 75.2507 154.643 75.576 154.942 75.8C155.251 76.0133 155.672 76.12 156.206 76.12ZM163.006 77V68.744H164.286V70.088H164.35C164.435 69.8853 164.542 69.6933 164.67 69.512C164.798 69.32 164.952 69.1547 165.134 69.016C165.326 68.8773 165.55 68.7653 165.806 68.68C166.062 68.5947 166.36 68.552 166.702 68.552C167.566 68.552 168.259 68.8293 168.782 69.384C169.304 69.928 169.566 70.7013 169.566 71.704V77H168.286V71.928C168.286 71.1707 168.12 70.6107 167.79 70.248C167.459 69.8747 166.974 69.688 166.334 69.688C166.078 69.688 165.827 69.72 165.582 69.784C165.336 69.848 165.118 69.944 164.926 70.072C164.734 70.2 164.579 70.3653 164.462 70.568C164.344 70.7707 164.286 71.0053 164.286 71.272V77H163.006ZM176.093 66.92C175.72 66.92 175.459 66.8453 175.309 66.696C175.16 66.536 175.085 66.3387 175.085 66.104V65.848C175.085 65.6133 175.16 65.4213 175.309 65.272C175.459 65.112 175.72 65.032 176.093 65.032C176.467 65.032 176.728 65.112 176.877 65.272C177.027 65.4213 177.101 65.6133 177.101 65.848V66.104C177.101 66.3387 177.027 66.536 176.877 66.696C176.728 66.8453 176.467 66.92 176.093 66.92ZM172.477 75.912H175.453V69.832H172.477V68.744H176.733V75.912H179.517V77H172.477V75.912ZM184.925 77.192C184.349 77.192 183.826 77.0907 183.357 76.888C182.898 76.6853 182.504 76.3973 182.173 76.024C181.853 75.64 181.608 75.1867 181.437 74.664C181.266 74.1307 181.181 73.5333 181.181 72.872C181.181 72.2213 181.266 71.6293 181.437 71.096C181.608 70.5627 181.853 70.1093 182.173 69.736C182.504 69.352 182.898 69.0587 183.357 68.856C183.826 68.6533 184.349 68.552 184.925 68.552C185.501 68.552 186.018 68.6533 186.477 68.856C186.946 69.0587 187.341 69.352 187.661 69.736C187.992 70.1093 188.242 70.5627 188.413 71.096C188.584 71.6293 188.669 72.2213 188.669 72.872C188.669 73.5333 188.584 74.1307 188.413 74.664C188.242 75.1867 187.992 75.64 187.661 76.024C187.341 76.3973 186.946 76.6853 186.477 76.888C186.018 77.0907 185.501 77.192 184.925 77.192ZM184.925 76.088C185.64 76.088 186.216 75.8747 186.653 75.448C187.09 75.0213 187.309 74.36 187.309 73.464V72.28C187.309 71.384 187.09 70.7227 186.653 70.296C186.216 69.8693 185.64 69.656 184.925 69.656C184.21 69.656 183.634 69.8693 183.197 70.296C182.76 70.7227 182.541 71.384 182.541 72.28V73.464C182.541 74.36 182.76 75.0213 183.197 75.448C183.634 75.8747 184.21 76.088 184.925 76.088ZM191.037 77V68.744H192.317V70.088H192.381C192.466 69.8853 192.573 69.6933 192.701 69.512C192.829 69.32 192.983 69.1547 193.165 69.016C193.357 68.8773 193.581 68.7653 193.837 68.68C194.093 68.5947 194.391 68.552 194.733 68.552C195.597 68.552 196.29 68.8293 196.813 69.384C197.335 69.928 197.597 70.7013 197.597 71.704V77H196.317V71.928C196.317 71.1707 196.151 70.6107 195.821 70.248C195.49 69.8747 195.005 69.688 194.365 69.688C194.109 69.688 193.858 69.72 193.613 69.784C193.367 69.848 193.149 69.944 192.957 70.072C192.765 70.2 192.61 70.3653 192.493 70.568C192.375 70.7707 192.317 71.0053 192.317 71.272V77H191.037ZM203.709 77.192C202.845 77.192 202.098 77.048 201.469 76.76C200.85 76.4613 200.322 76.0667 199.885 75.576L200.749 74.824C201.143 75.24 201.575 75.56 202.045 75.784C202.514 76.008 203.079 76.12 203.741 76.12C204.381 76.12 204.903 76.008 205.309 75.784C205.725 75.5493 205.933 75.1867 205.933 74.696C205.933 74.4827 205.89 74.3067 205.805 74.168C205.73 74.0187 205.623 73.9013 205.485 73.816C205.346 73.7307 205.191 73.6667 205.021 73.624C204.85 73.5707 204.669 73.528 204.477 73.496L203.181 73.304C202.893 73.2613 202.578 73.2027 202.237 73.128C201.906 73.0533 201.602 72.936 201.325 72.776C201.047 72.6053 200.813 72.3813 200.621 72.104C200.439 71.8267 200.349 71.464 200.349 71.016C200.349 70.6 200.429 70.2427 200.589 69.944C200.759 69.6347 200.994 69.3787 201.293 69.176C201.591 68.9627 201.943 68.808 202.349 68.712C202.754 68.6053 203.197 68.552 203.677 68.552C204.423 68.552 205.069 68.6693 205.613 68.904C206.167 69.1387 206.642 69.464 207.036 69.88L206.205 70.664C206.109 70.5467 205.986 70.4293 205.837 70.312C205.698 70.184 205.522 70.072 205.309 69.976C205.106 69.8693 204.866 69.784 204.589 69.72C204.311 69.656 203.991 69.624 203.629 69.624C202.978 69.624 202.477 69.736 202.125 69.96C201.783 70.184 201.613 70.5093 201.613 70.936C201.613 71.1493 201.65 71.3307 201.725 71.48C201.81 71.6187 201.922 71.7307 202.061 71.816C202.199 71.9013 202.354 71.9707 202.525 72.024C202.706 72.0667 202.887 72.104 203.069 72.136L204.365 72.328C204.663 72.3707 204.978 72.4293 205.309 72.504C205.639 72.5787 205.943 72.7013 206.221 72.872C206.498 73.032 206.727 73.2507 206.909 73.528C207.101 73.8053 207.197 74.168 207.197 74.616C207.197 75.4373 206.877 76.072 206.237 76.52C205.607 76.968 204.765 77.192 203.709 77.192ZM222.812 66.92C222.439 66.92 222.177 66.8453 222.028 66.696C221.879 66.536 221.804 66.3387 221.804 66.104V65.848C221.804 65.6133 221.879 65.4213 222.028 65.272C222.177 65.112 222.439 65.032 222.812 65.032C223.185 65.032 223.447 65.112 223.596 65.272C223.745 65.4213 223.82 65.6133 223.82 65.848V66.104C223.82 66.3387 223.745 66.536 223.596 66.696C223.447 66.8453 223.185 66.92 222.812 66.92ZM219.196 75.912H222.172V69.832H219.196V68.744H223.452V75.912H226.236V77H219.196V75.912ZM228.412 77V68.744H229.692V70.088H229.756C229.841 69.8853 229.948 69.6933 230.076 69.512C230.204 69.32 230.358 69.1547 230.54 69.016C230.732 68.8773 230.956 68.7653 231.212 68.68C231.468 68.5947 231.766 68.552 232.108 68.552C232.972 68.552 233.665 68.8293 234.188 69.384C234.71 69.928 234.972 70.7013 234.972 71.704V77H233.692V71.928C233.692 71.1707 233.526 70.6107 233.196 70.248C232.865 69.8747 232.38 69.688 231.74 69.688C231.484 69.688 231.233 69.72 230.988 69.784C230.742 69.848 230.524 69.944 230.332 70.072C230.14 70.2 229.985 70.3653 229.868 70.568C229.75 70.7707 229.692 71.0053 229.692 71.272V77H228.412ZM250.731 77C250.102 77 249.638 76.824 249.339 76.472C249.051 76.12 248.907 75.6667 248.907 75.112V69.832H246.155V68.744H248.203C248.481 68.744 248.673 68.6907 248.779 68.584C248.897 68.4667 248.955 68.2693 248.955 67.992V65.832H250.187V68.744H253.947V69.832H250.187V75.912H253.947V77H250.731ZM256.443 65.16H257.723V70.088H257.787C257.872 69.8853 257.979 69.6933 258.107 69.512C258.235 69.32 258.39 69.1547 258.571 69.016C258.763 68.8773 258.987 68.7653 259.243 68.68C259.499 68.5947 259.798 68.552 260.139 68.552C261.003 68.552 261.696 68.8293 262.219 69.384C262.742 69.928 263.003 70.7013 263.003 71.704V77H261.723V71.928C261.723 71.1707 261.558 70.6107 261.227 70.248C260.896 69.8747 260.411 69.688 259.771 69.688C259.515 69.688 259.264 69.72 259.019 69.784C258.774 69.848 258.555 69.944 258.363 70.072C258.171 70.2 258.016 70.3653 257.899 70.568C257.782 70.7707 257.723 71.0053 257.723 71.272V77H256.443V65.16ZM269.531 66.92C269.157 66.92 268.896 66.8453 268.747 66.696C268.597 66.536 268.523 66.3387 268.523 66.104V65.848C268.523 65.6133 268.597 65.4213 268.747 65.272C268.896 65.112 269.157 65.032 269.531 65.032C269.904 65.032 270.165 65.112 270.315 65.272C270.464 65.4213 270.539 65.6133 270.539 65.848V66.104C270.539 66.3387 270.464 66.536 270.315 66.696C270.165 66.8453 269.904 66.92 269.531 66.92ZM265.915 75.912H268.891V69.832H265.915V68.744H270.171V75.912H272.955V77H265.915V75.912ZM278.459 77.192C277.595 77.192 276.848 77.048 276.219 76.76C275.6 76.4613 275.072 76.0667 274.635 75.576L275.499 74.824C275.893 75.24 276.325 75.56 276.795 75.784C277.264 76.008 277.829 76.12 278.491 76.12C279.131 76.12 279.653 76.008 280.059 75.784C280.475 75.5493 280.683 75.1867 280.683 74.696C280.683 74.4827 280.64 74.3067 280.555 74.168C280.48 74.0187 280.373 73.9013 280.235 73.816C280.096 73.7307 279.941 73.6667 279.771 73.624C279.6 73.5707 279.419 73.528 279.227 73.496L277.931 73.304C277.643 73.2613 277.328 73.2027 276.987 73.128C276.656 73.0533 276.352 72.936 276.075 72.776C275.797 72.6053 275.563 72.3813 275.371 72.104C275.189 71.8267 275.099 71.464 275.099 71.016C275.099 70.6 275.179 70.2427 275.339 69.944C275.509 69.6347 275.744 69.3787 276.043 69.176C276.341 68.9627 276.693 68.808 277.099 68.712C277.504 68.6053 277.947 68.552 278.427 68.552C279.173 68.552 279.819 68.6693 280.363 68.904C280.917 69.1387 281.392 69.464 281.786 69.88L280.955 70.664C280.859 70.5467 280.736 70.4293 280.587 70.312C280.448 70.184 280.272 70.072 280.059 69.976C279.856 69.8693 279.616 69.784 279.339 69.72C279.061 69.656 278.741 69.624 278.379 69.624C277.728 69.624 277.227 69.736 276.875 69.96C276.533 70.184 276.363 70.5093 276.363 70.936C276.363 71.1493 276.4 71.3307 276.475 71.48C276.56 71.6187 276.672 71.7307 276.811 71.816C276.949 71.9013 277.104 71.9707 277.275 72.024C277.456 72.0667 277.637 72.104 277.819 72.136L279.115 72.328C279.413 72.3707 279.728 72.4293 280.059 72.504C280.389 72.5787 280.693 72.7013 280.971 72.872C281.248 73.032 281.477 73.2507 281.659 73.528C281.851 73.8053 281.947 74.168 281.947 74.616C281.947 75.4373 281.627 76.072 280.987 76.52C280.357 76.968 279.515 77.192 278.459 77.192ZM73.088 99.192C72.4907 99.192 71.9573 99.0907 71.488 98.888C71.0293 98.6747 70.64 98.3813 70.32 98.008C70 97.6347 69.7547 97.1813 69.584 96.648C69.424 96.1147 69.344 95.5227 69.344 94.872C69.344 94.2213 69.4293 93.6293 69.6 93.096C69.7707 92.5627 70.016 92.1093 70.336 91.736C70.656 91.352 71.0453 91.0587 71.504 90.856C71.9627 90.6533 72.4853 90.552 73.072 90.552C73.872 90.552 74.5227 90.728 75.024 91.08C75.5253 91.432 75.8933 91.8907 76.128 92.456L75.104 93C74.9547 92.5733 74.704 92.2427 74.352 92.008C74.0107 91.7733 73.584 91.656 73.072 91.656C72.6987 91.656 72.3627 91.72 72.064 91.848C71.776 91.9653 71.5307 92.136 71.328 92.36C71.1253 92.584 70.9707 92.8507 70.864 93.16C70.768 93.4693 70.72 93.8053 70.72 94.168V95.576C70.72 95.9387 70.768 96.2747 70.864 96.584C70.9707 96.8933 71.1253 97.16 71.328 97.384C71.5307 97.608 71.7813 97.784 72.08 97.912C72.3787 98.0293 72.72 98.088 73.104 98.088C73.6587 98.088 74.1173 97.96 74.48 97.704C74.8427 97.448 75.1307 97.096 75.344 96.648L76.256 97.272C76.0107 97.8267 75.6267 98.2853 75.104 98.648C74.592 99.0107 73.92 99.192 73.088 99.192ZM78.5758 97.912H80.9918V91.832H78.5758V90.744H82.2718V92.824H82.3518C82.5224 92.1733 82.8424 91.6667 83.3118 91.304C83.7918 90.9307 84.3998 90.744 85.1358 90.744H86.2878V92.024H84.7358C83.9998 92.024 83.4024 92.2373 82.9438 92.664C82.4958 93.0907 82.2718 93.6507 82.2718 94.344V97.912H85.4718V99H78.5758V97.912ZM94.6075 99C94.1062 99 93.7488 98.872 93.5355 98.616C93.3222 98.36 93.1888 98.04 93.1355 97.656H93.0555C92.8742 98.136 92.5808 98.5147 92.1755 98.792C91.7808 99.0587 91.2475 99.192 90.5755 99.192C89.7115 99.192 89.0235 98.968 88.5115 98.52C87.9995 98.072 87.7435 97.4587 87.7435 96.68C87.7435 95.912 88.0208 95.32 88.5755 94.904C89.1408 94.488 90.0475 94.28 91.2955 94.28H93.0555V93.464C93.0555 92.856 92.8848 92.4027 92.5435 92.104C92.2022 91.7947 91.7168 91.64 91.0875 91.64C90.5328 91.64 90.0795 91.752 89.7275 91.976C89.3755 92.1893 89.0928 92.4827 88.8795 92.856L88.0155 92.216C88.1222 92.0027 88.2662 91.7947 88.4475 91.592C88.6288 91.3893 88.8528 91.2133 89.1195 91.064C89.3862 90.904 89.6902 90.7813 90.0315 90.696C90.3728 90.6 90.7515 90.552 91.1675 90.552C92.1382 90.552 92.9062 90.7973 93.4715 91.288C94.0475 91.7787 94.3355 92.4613 94.3355 93.336V97.88H95.4875V99H94.6075ZM90.7995 98.12C91.1302 98.12 91.4288 98.0827 91.6955 98.008C91.9728 97.9227 92.2128 97.816 92.4155 97.688C92.6182 97.5493 92.7728 97.3893 92.8795 97.208C92.9968 97.016 93.0555 96.8133 93.0555 96.6V95.24H91.2955C90.5275 95.24 89.9675 95.3467 89.6155 95.56C89.2635 95.7733 89.0875 96.0827 89.0875 96.488V96.824C89.0875 97.2507 89.2368 97.576 89.5355 97.8C89.8448 98.0133 90.2662 98.12 90.7995 98.12ZM97.3913 99V97.768L102.719 91.832H97.5673V90.744H104.111V91.976L98.7833 97.912H104.271V99H97.3913ZM112.847 90.744H114.127L110.031 100.808C109.935 101.043 109.828 101.245 109.711 101.416C109.594 101.597 109.455 101.741 109.295 101.848C109.135 101.965 108.943 102.051 108.719 102.104C108.495 102.168 108.228 102.2 107.919 102.2H106.703V101.112H108.623L109.551 98.84L106.223 90.744H107.535L108.927 94.2L110.159 97.336H110.223L111.455 94.2L112.847 90.744ZM129.263 99C128.633 99 128.169 98.824 127.871 98.472C127.583 98.12 127.439 97.6667 127.439 97.112V91.832H124.687V90.744H126.735C127.012 90.744 127.204 90.6907 127.311 90.584C127.428 90.4667 127.487 90.2693 127.487 89.992V87.832H128.719V90.744H132.479V91.832H128.719V97.912H132.479V99H129.263ZM138.718 88.92C138.345 88.92 138.084 88.8453 137.934 88.696C137.785 88.536 137.71 88.3387 137.71 88.104V87.848C137.71 87.6133 137.785 87.4213 137.934 87.272C138.084 87.112 138.345 87.032 138.718 87.032C139.092 87.032 139.353 87.112 139.502 87.272C139.652 87.4213 139.726 87.6133 139.726 87.848V88.104C139.726 88.3387 139.652 88.536 139.502 88.696C139.353 88.8453 139.092 88.92 138.718 88.92ZM135.102 97.912H138.078V91.832H135.102V90.744H139.358V97.912H142.142V99H135.102V97.912ZM143.614 99V90.744H144.798V91.704H144.862C144.99 91.384 145.171 91.112 145.406 90.888C145.641 90.664 145.987 90.552 146.446 90.552C146.926 90.552 147.283 90.6747 147.518 90.92C147.753 91.1547 147.897 91.464 147.95 91.848H147.998C148.147 91.4747 148.361 91.1653 148.638 90.92C148.915 90.6747 149.299 90.552 149.79 90.552C150.462 90.552 150.91 90.7867 151.134 91.256C151.369 91.7253 151.486 92.3973 151.486 93.272V99H150.302V93.48C150.302 92.776 150.227 92.2907 150.078 92.024C149.939 91.7467 149.678 91.608 149.294 91.608C148.953 91.608 148.675 91.72 148.462 91.944C148.249 92.1573 148.142 92.488 148.142 92.936V99H146.958V93.48C146.958 92.776 146.883 92.2907 146.734 92.024C146.595 91.7467 146.339 91.608 145.966 91.608C145.625 91.608 145.342 91.72 145.118 91.944C144.905 92.1573 144.798 92.488 144.798 92.936V99H143.614ZM157.038 99.192C156.44 99.192 155.902 99.0907 155.422 98.888C154.952 98.6853 154.547 98.3973 154.206 98.024C153.875 97.64 153.619 97.1867 153.438 96.664C153.256 96.1307 153.166 95.5387 153.166 94.888C153.166 94.2267 153.256 93.6293 153.438 93.096C153.63 92.5627 153.891 92.1093 154.222 91.736C154.552 91.352 154.947 91.0587 155.406 90.856C155.875 90.6533 156.392 90.552 156.958 90.552C157.512 90.552 158.014 90.6533 158.462 90.856C158.92 91.0587 159.31 91.3413 159.63 91.704C159.95 92.056 160.195 92.4773 160.366 92.968C160.536 93.4587 160.622 93.9973 160.622 94.584V95.192H154.51V95.576C154.51 95.9387 154.568 96.2747 154.686 96.584C154.803 96.8933 154.968 97.16 155.182 97.384C155.406 97.608 155.672 97.784 155.982 97.912C156.302 98.0293 156.654 98.088 157.038 98.088C157.592 98.088 158.072 97.96 158.478 97.704C158.883 97.448 159.192 97.096 159.406 96.648L160.35 97.288C160.104 97.8427 159.694 98.3013 159.118 98.664C158.552 99.016 157.859 99.192 157.038 99.192ZM156.958 91.608C156.606 91.608 156.28 91.672 155.982 91.8C155.683 91.928 155.422 92.104 155.198 92.328C154.984 92.552 154.814 92.8187 154.686 93.128C154.568 93.4267 154.51 93.7573 154.51 94.12V94.232H159.246V94.056C159.246 93.6933 159.187 93.3627 159.07 93.064C158.963 92.7653 158.808 92.5093 158.606 92.296C158.414 92.072 158.174 91.9013 157.886 91.784C157.608 91.6667 157.299 91.608 156.958 91.608ZM166.238 99.144C165.8 99.144 165.491 99.0533 165.31 98.872C165.139 98.6907 165.054 98.4613 165.054 98.184V97.896C165.054 97.6187 165.139 97.3893 165.31 97.208C165.491 97.0267 165.8 96.936 166.238 96.936C166.675 96.936 166.979 97.0267 167.15 97.208C167.331 97.3893 167.422 97.6187 167.422 97.896V98.184C167.422 98.4613 167.331 98.6907 167.15 98.872C166.979 99.0533 166.675 99.144 166.238 99.144ZM181.565 99V87.832H188.445V89H182.909V92.76H188.253V93.928H182.909V97.832H188.445V99H181.565ZM193.453 99L190.493 90.744H191.789L192.973 94.2L194.253 97.928H194.317L195.597 94.2L196.781 90.744H198.045L195.085 99H193.453ZM203.757 99.192C203.159 99.192 202.621 99.0907 202.141 98.888C201.671 98.6853 201.266 98.3973 200.924 98.024C200.594 97.64 200.338 97.1867 200.157 96.664C199.975 96.1307 199.885 95.5387 199.885 94.888C199.885 94.2267 199.975 93.6293 200.157 93.096C200.349 92.5627 200.61 92.1093 200.941 91.736C201.271 91.352 201.666 91.0587 202.125 90.856C202.594 90.6533 203.111 90.552 203.677 90.552C204.231 90.552 204.733 90.6533 205.181 90.856C205.639 91.0587 206.029 91.3413 206.349 91.704C206.669 92.056 206.914 92.4773 207.085 92.968C207.255 93.4587 207.341 93.9973 207.341 94.584V95.192H201.229V95.576C201.229 95.9387 201.287 96.2747 201.405 96.584C201.522 96.8933 201.687 97.16 201.901 97.384C202.125 97.608 202.391 97.784 202.701 97.912C203.021 98.0293 203.373 98.088 203.757 98.088C204.311 98.088 204.791 97.96 205.197 97.704C205.602 97.448 205.911 97.096 206.125 96.648L207.069 97.288C206.823 97.8427 206.413 98.3013 205.837 98.664C205.271 99.016 204.578 99.192 203.757 99.192ZM203.677 91.608C203.325 91.608 202.999 91.672 202.701 91.8C202.402 91.928 202.141 92.104 201.917 92.328C201.703 92.552 201.533 92.8187 201.405 93.128C201.287 93.4267 201.229 93.7573 201.229 94.12V94.232H205.965V94.056C205.965 93.6933 205.906 93.3627 205.789 93.064C205.682 92.7653 205.527 92.5093 205.325 92.296C205.133 92.072 204.893 91.9013 204.605 91.784C204.327 91.6667 204.018 91.608 203.677 91.608ZM209.724 99V90.744H211.004V92.088H211.068C211.154 91.8853 211.26 91.6933 211.388 91.512C211.516 91.32 211.671 91.1547 211.852 91.016C212.044 90.8773 212.268 90.7653 212.524 90.68C212.78 90.5947 213.079 90.552 213.42 90.552C214.284 90.552 214.978 90.8293 215.5 91.384C216.023 91.928 216.284 92.7013 216.284 93.704V99H215.004V93.928C215.004 93.1707 214.839 92.6107 214.508 92.248C214.178 91.8747 213.692 91.688 213.052 91.688C212.796 91.688 212.546 91.72 212.3 91.784C212.055 91.848 211.836 91.944 211.644 92.072C211.452 92.2 211.298 92.3653 211.18 92.568C211.063 92.7707 211.004 93.0053 211.004 93.272V99H209.724ZM232.156 88.92C231.782 88.92 231.521 88.8453 231.372 88.696C231.222 88.536 231.148 88.3387 231.148 88.104V87.848C231.148 87.6133 231.222 87.4213 231.372 87.272C231.521 87.112 231.782 87.032 232.156 87.032C232.529 87.032 232.79 87.112 232.94 87.272C233.089 87.4213 233.164 87.6133 233.164 87.848V88.104C233.164 88.3387 233.089 88.536 232.94 88.696C232.79 88.8453 232.529 88.92 232.156 88.92ZM228.54 97.912H231.516V91.832H228.54V90.744H232.796V97.912H235.58V99H228.54V97.912ZM241.388 99C240.758 99 240.294 98.824 239.996 98.472C239.708 98.12 239.564 97.6667 239.564 97.112V91.832H236.812V90.744H238.86C239.137 90.744 239.329 90.6907 239.436 90.584C239.553 90.4667 239.612 90.2693 239.612 89.992V87.832H240.844V90.744H244.604V91.832H240.844V97.912H244.604V99H241.388ZM260.187 88.92C259.814 88.92 259.552 88.8453 259.403 88.696C259.254 88.536 259.179 88.3387 259.179 88.104V87.848C259.179 87.6133 259.254 87.4213 259.403 87.272C259.552 87.112 259.814 87.032 260.187 87.032C260.56 87.032 260.822 87.112 260.971 87.272C261.12 87.4213 261.195 87.6133 261.195 87.848V88.104C261.195 88.3387 261.12 88.536 260.971 88.696C260.822 88.8453 260.56 88.92 260.187 88.92ZM256.571 97.912H259.547V91.832H256.571V90.744H260.827V97.912H263.611V99H256.571V97.912ZM269.115 99.192C268.251 99.192 267.504 99.048 266.875 98.76C266.256 98.4613 265.728 98.0667 265.291 97.576L266.155 96.824C266.549 97.24 266.981 97.56 267.451 97.784C267.92 98.008 268.485 98.12 269.147 98.12C269.787 98.12 270.309 98.008 270.715 97.784C271.131 97.5493 271.339 97.1867 271.339 96.696C271.339 96.4827 271.296 96.3067 271.211 96.168C271.136 96.0187 271.029 95.9013 270.891 95.816C270.752 95.7307 270.597 95.6667 270.427 95.624C270.256 95.5707 270.075 95.528 269.883 95.496L268.587 95.304C268.299 95.2613 267.984 95.2027 267.643 95.128C267.312 95.0533 267.008 94.936 266.731 94.776C266.453 94.6053 266.219 94.3813 266.027 94.104C265.845 93.8267 265.755 93.464 265.755 93.016C265.755 92.6 265.835 92.2427 265.995 91.944C266.165 91.6347 266.4 91.3787 266.699 91.176C266.997 90.9627 267.349 90.808 267.755 90.712C268.16 90.6053 268.603 90.552 269.083 90.552C269.829 90.552 270.475 90.6693 271.019 90.904C271.573 91.1387 272.048 91.464 272.443 91.88L271.611 92.664C271.515 92.5467 271.392 92.4293 271.243 92.312C271.104 92.184 270.928 92.072 270.715 91.976C270.512 91.8693 270.272 91.784 269.995 91.72C269.717 91.656 269.397 91.624 269.035 91.624C268.384 91.624 267.883 91.736 267.531 91.96C267.189 92.184 267.019 92.5093 267.019 92.936C267.019 93.1493 267.056 93.3307 267.131 93.48C267.216 93.6187 267.328 93.7307 267.467 93.816C267.605 93.9013 267.76 93.9707 267.931 94.024C268.112 94.0667 268.293 94.104 268.475 94.136L269.771 94.328C270.069 94.3707 270.384 94.4293 270.715 94.504C271.045 94.5787 271.349 94.7013 271.627 94.872C271.904 95.032 272.133 95.2507 272.315 95.528C272.507 95.8053 272.603 96.168 272.603 96.616C272.603 97.4373 272.283 98.072 271.643 98.52C271.013 98.968 270.171 99.192 269.115 99.192ZM290.602 99L289.658 95.816H285.738L284.794 99H283.402L286.826 87.832H288.602L292.026 99H290.602ZM287.77 89.256H287.626L286.058 94.648H289.338L287.77 89.256ZM293.594 99V97.928H296.378V88.904H293.594V87.832H300.506V88.904H297.722V97.928H300.506V99H293.594ZM306.394 99.144C305.956 99.144 305.647 99.0533 305.466 98.872C305.295 98.6907 305.21 98.4613 305.21 98.184V97.896C305.21 97.6187 305.295 97.3893 305.466 97.208C305.647 97.0267 305.956 96.936 306.394 96.936C306.831 96.936 307.135 97.0267 307.306 97.208C307.487 97.3893 307.578 97.6187 307.578 97.896V98.184C307.578 98.4613 307.487 98.6907 307.306 98.872C307.135 99.0533 306.831 99.144 306.394 99.144Z" fill="white"/>
<defs>
<radialGradient id="paint0_radial_528_69" cx="0" cy="0" r="1" gradientUnits="userSpaceOnUse" gradientTransform="translate(192.5 76.5) rotate(90.3633) scale(127.042 235.396)">
<stop stop-color="#C8C8C8" stop-opacity="0.07"/>
<stop offset="0.9999" stop-color="#716A84" stop-opacity="0.58"/>
</radialGradient>
</defs>
</svg>
