<svg width="1453" height="106" viewBox="0 0 1453 106" fill="none" xmlns="http://www.w3.org/2000/svg">
<path d="M555.047 22V47H551.687V22H542.367V19.08H564.367V22H555.047ZM569.022 17.4H572.222V29.72H572.382C572.595 29.2133 572.862 28.7333 573.182 28.28C573.502 27.8 573.888 27.3867 574.342 27.04C574.822 26.6933 575.382 26.4133 576.022 26.2C576.662 25.9867 577.408 25.88 578.262 25.88C580.422 25.88 582.155 26.5733 583.462 27.96C584.768 29.32 585.422 31.2533 585.422 33.76V47H582.222V34.32C582.222 32.4267 581.808 31.0267 580.982 30.12C580.155 29.1867 578.942 28.72 577.342 28.72C576.702 28.72 576.075 28.8 575.462 28.96C574.848 29.12 574.302 29.36 573.822 29.68C573.342 30 572.955 30.4133 572.662 30.92C572.368 31.4267 572.222 32.0133 572.222 32.68V47H569.022V17.4ZM601.196 47.48C599.703 47.48 598.356 47.2267 597.156 46.72C595.983 46.2133 594.969 45.4933 594.116 44.56C593.289 43.6 592.649 42.4667 592.196 41.16C591.743 39.8267 591.516 38.3467 591.516 36.72C591.516 35.0667 591.743 33.5733 592.196 32.24C592.676 30.9067 593.329 29.7733 594.156 28.84C594.983 27.88 595.969 27.1467 597.116 26.64C598.289 26.1333 599.583 25.88 600.996 25.88C602.383 25.88 603.636 26.1333 604.756 26.64C605.903 27.1467 606.876 27.8533 607.676 28.76C608.476 29.64 609.089 30.6933 609.516 31.92C609.943 33.1467 610.156 34.4933 610.156 35.96V37.48H594.876V38.44C594.876 39.3467 595.023 40.1867 595.316 40.96C595.609 41.7333 596.023 42.4 596.556 42.96C597.116 43.52 597.783 43.96 598.556 44.28C599.356 44.5733 600.236 44.72 601.196 44.72C602.583 44.72 603.783 44.4 604.796 43.76C605.809 43.12 606.583 42.24 607.116 41.12L609.476 42.72C608.863 44.1067 607.836 45.2533 606.396 46.16C604.983 47.04 603.249 47.48 601.196 47.48ZM600.996 28.52C600.116 28.52 599.303 28.68 598.556 29C597.809 29.32 597.156 29.76 596.596 30.32C596.063 30.88 595.636 31.5467 595.316 32.32C595.023 33.0667 594.876 33.8933 594.876 34.8V35.08H606.716V34.64C606.716 33.7333 606.569 32.9067 606.276 32.16C606.009 31.4133 605.623 30.7733 605.116 30.24C604.636 29.68 604.036 29.2533 603.316 28.96C602.623 28.6667 601.849 28.52 600.996 28.52ZM654.505 33V24.16H654.185L648.305 38.52L642.425 24.16H642.105V33V47H639.025V19.08H643.345L648.265 31.4H648.505L653.425 19.08H657.585V47H654.505V33ZM672.399 47.48C670.906 47.48 669.559 47.2267 668.359 46.72C667.186 46.2133 666.172 45.4933 665.319 44.56C664.492 43.6 663.852 42.4667 663.399 41.16C662.946 39.8267 662.719 38.3467 662.719 36.72C662.719 35.0667 662.946 33.5733 663.399 32.24C663.879 30.9067 664.532 29.7733 665.359 28.84C666.186 27.88 667.172 27.1467 668.319 26.64C669.492 26.1333 670.786 25.88 672.199 25.88C673.586 25.88 674.839 26.1333 675.959 26.64C677.106 27.1467 678.079 27.8533 678.879 28.76C679.679 29.64 680.292 30.6933 680.719 31.92C681.146 33.1467 681.359 34.4933 681.359 35.96V37.48H666.079V38.44C666.079 39.3467 666.226 40.1867 666.519 40.96C666.812 41.7333 667.226 42.4 667.759 42.96C668.319 43.52 668.986 43.96 669.759 44.28C670.559 44.5733 671.439 44.72 672.399 44.72C673.786 44.72 674.986 44.4 675.999 43.76C677.012 43.12 677.786 42.24 678.319 41.12L680.679 42.72C680.066 44.1067 679.039 45.2533 677.599 46.16C676.186 47.04 674.452 47.48 672.399 47.48ZM672.199 28.52C671.319 28.52 670.506 28.68 669.759 29C669.012 29.32 668.359 29.76 667.799 30.32C667.266 30.88 666.839 31.5467 666.519 32.32C666.226 33.0667 666.079 33.8933 666.079 34.8V35.08H677.919V34.64C677.919 33.7333 677.772 32.9067 677.479 32.16C677.212 31.4133 676.826 30.7733 676.319 30.24C675.839 29.68 675.239 29.2533 674.519 28.96C673.826 28.6667 673.052 28.52 672.199 28.52ZM685.933 47V26.36H688.893V28.76H689.053C689.373 27.96 689.827 27.28 690.413 26.72C691 26.16 691.867 25.88 693.013 25.88C694.213 25.88 695.107 26.1867 695.693 26.8C696.28 27.3867 696.64 28.16 696.773 29.12H696.893C697.267 28.1867 697.8 27.4133 698.493 26.8C699.187 26.1867 700.147 25.88 701.373 25.88C703.053 25.88 704.173 26.4667 704.733 27.64C705.32 28.8133 705.613 30.4933 705.613 32.68V47H702.653V33.2C702.653 31.44 702.467 30.2267 702.093 29.56C701.747 28.8667 701.093 28.52 700.133 28.52C699.28 28.52 698.587 28.8 698.053 29.36C697.52 29.8933 697.253 30.72 697.253 31.84V47H694.293V33.2C694.293 31.44 694.107 30.2267 693.733 29.56C693.387 28.8667 692.747 28.52 691.813 28.52C690.96 28.52 690.253 28.8 689.693 29.36C689.16 29.8933 688.893 30.72 688.893 31.84V47H685.933ZM719.508 47.48C718.068 47.48 716.761 47.2267 715.588 46.72C714.441 46.2133 713.454 45.4933 712.628 44.56C711.828 43.6 711.214 42.4667 710.788 41.16C710.361 39.8267 710.148 38.3333 710.148 36.68C710.148 35.0533 710.361 33.5733 710.788 32.24C711.214 30.9067 711.828 29.7733 712.628 28.84C713.454 27.88 714.441 27.1467 715.588 26.64C716.761 26.1333 718.068 25.88 719.508 25.88C720.948 25.88 722.241 26.1333 723.388 26.64C724.561 27.1467 725.548 27.88 726.348 28.84C727.174 29.7733 727.801 30.9067 728.228 32.24C728.654 33.5733 728.868 35.0533 728.868 36.68C728.868 38.3333 728.654 39.8267 728.228 41.16C727.801 42.4667 727.174 43.6 726.348 44.56C725.548 45.4933 724.561 46.2133 723.388 46.72C722.241 47.2267 720.948 47.48 719.508 47.48ZM719.508 44.72C721.294 44.72 722.734 44.1867 723.828 43.12C724.921 42.0533 725.468 40.4 725.468 38.16V35.2C725.468 32.96 724.921 31.3067 723.828 30.24C722.734 29.1733 721.294 28.64 719.508 28.64C717.721 28.64 716.281 29.1733 715.188 30.24C714.094 31.3067 713.548 32.96 713.548 35.2V38.16C713.548 40.4 714.094 42.0533 715.188 43.12C716.281 44.1867 717.721 44.72 719.508 44.72ZM734.322 44.28H740.362V29.08H734.322V26.36H743.562V31.56H743.762C744.189 29.9333 744.989 28.6667 746.162 27.76C747.362 26.8267 748.882 26.36 750.722 26.36H753.602V29.56H749.722C747.882 29.56 746.389 30.0933 745.242 31.16C744.122 32.2267 743.562 33.6267 743.562 35.36V44.28H751.562V47H734.322V44.28ZM773.657 26.36H776.857L766.617 51.52C766.377 52.1067 766.11 52.6133 765.817 53.04C765.523 53.4933 765.177 53.8533 764.777 54.12C764.377 54.4133 763.897 54.6267 763.337 54.76C762.777 54.92 762.11 55 761.337 55H758.297V52.28H763.097L765.417 46.6L757.097 26.36H760.377L763.857 35L766.937 42.84H767.097L770.177 35L773.657 26.36ZM815.365 47.48C811.952 47.48 809.405 46.24 807.725 43.76C806.072 41.28 805.245 37.7067 805.245 33.04C805.245 28.3733 806.072 24.8 807.725 22.32C809.405 19.84 811.952 18.6 815.365 18.6C816.645 18.6 817.752 18.7733 818.685 19.12C819.619 19.4667 820.419 19.9333 821.085 20.52C821.752 21.1067 822.312 21.7733 822.765 22.52C823.219 23.24 823.619 23.9733 823.965 24.72L821.085 26.04C820.845 25.4267 820.565 24.8533 820.245 24.32C819.925 23.76 819.539 23.28 819.085 22.88C818.659 22.4533 818.139 22.12 817.525 21.88C816.939 21.64 816.219 21.52 815.365 21.52C813.152 21.52 811.499 22.36 810.405 24.04C809.339 25.72 808.805 27.96 808.805 30.76V35.32C808.805 38.12 809.339 40.36 810.405 42.04C811.499 43.72 813.152 44.56 815.365 44.56C816.219 44.56 816.939 44.44 817.525 44.2C818.139 43.96 818.659 43.64 819.085 43.24C819.539 42.8133 819.925 42.3333 820.245 41.8C820.565 41.24 820.845 40.6533 821.085 40.04L823.965 41.36C823.619 42.1333 823.219 42.88 822.765 43.6C822.312 44.32 821.752 44.9733 821.085 45.56C820.419 46.1467 819.619 46.6133 818.685 46.96C817.752 47.3067 816.645 47.48 815.365 47.48ZM838.18 47.48C836.74 47.48 835.433 47.2267 834.26 46.72C833.113 46.2133 832.126 45.4933 831.3 44.56C830.5 43.6 829.886 42.4667 829.46 41.16C829.033 39.8267 828.82 38.3333 828.82 36.68C828.82 35.0533 829.033 33.5733 829.46 32.24C829.886 30.9067 830.5 29.7733 831.3 28.84C832.126 27.88 833.113 27.1467 834.26 26.64C835.433 26.1333 836.74 25.88 838.18 25.88C839.62 25.88 840.913 26.1333 842.06 26.64C843.233 27.1467 844.22 27.88 845.02 28.84C845.846 29.7733 846.473 30.9067 846.9 32.24C847.326 33.5733 847.54 35.0533 847.54 36.68C847.54 38.3333 847.326 39.8267 846.9 41.16C846.473 42.4667 845.846 43.6 845.02 44.56C844.22 45.4933 843.233 46.2133 842.06 46.72C840.913 47.2267 839.62 47.48 838.18 47.48ZM838.18 44.72C839.966 44.72 841.406 44.1867 842.5 43.12C843.593 42.0533 844.14 40.4 844.14 38.16V35.2C844.14 32.96 843.593 31.3067 842.5 30.24C841.406 29.1733 839.966 28.64 838.18 28.64C836.393 28.64 834.953 29.1733 833.86 30.24C832.766 31.3067 832.22 32.96 832.22 35.2V38.16C832.22 40.4 832.766 42.0533 833.86 43.12C834.953 44.1867 836.393 44.72 838.18 44.72ZM852.994 44.28H859.034V29.08H852.994V26.36H862.234V31.56H862.434C862.861 29.9333 863.661 28.6667 864.834 27.76C866.034 26.8267 867.554 26.36 869.394 26.36H872.274V29.56H868.394C866.554 29.56 865.061 30.0933 863.914 31.16C862.794 32.2267 862.234 33.6267 862.234 35.36V44.28H870.234V47H852.994V44.28ZM886.008 47.48C884.515 47.48 883.168 47.2267 881.968 46.72C880.795 46.2133 879.782 45.4933 878.928 44.56C878.102 43.6 877.462 42.4667 877.008 41.16C876.555 39.8267 876.328 38.3467 876.328 36.72C876.328 35.0667 876.555 33.5733 877.008 32.24C877.488 30.9067 878.142 29.7733 878.968 28.84C879.795 27.88 880.782 27.1467 881.928 26.64C883.102 26.1333 884.395 25.88 885.808 25.88C887.195 25.88 888.448 26.1333 889.568 26.64C890.715 27.1467 891.688 27.8533 892.488 28.76C893.288 29.64 893.902 30.6933 894.328 31.92C894.755 33.1467 894.968 34.4933 894.968 35.96V37.48H879.688V38.44C879.688 39.3467 879.835 40.1867 880.128 40.96C880.422 41.7333 880.835 42.4 881.368 42.96C881.928 43.52 882.595 43.96 883.368 44.28C884.168 44.5733 885.048 44.72 886.008 44.72C887.395 44.72 888.595 44.4 889.608 43.76C890.622 43.12 891.395 42.24 891.928 41.12L894.288 42.72C893.675 44.1067 892.648 45.2533 891.208 46.16C889.795 47.04 888.062 47.48 886.008 47.48ZM885.808 28.52C884.928 28.52 884.115 28.68 883.368 29C882.622 29.32 881.968 29.76 881.408 30.32C880.875 30.88 880.448 31.5467 880.128 32.32C879.835 33.0667 879.688 33.8933 879.688 34.8V35.08H891.528V34.64C891.528 33.7333 891.382 32.9067 891.088 32.16C890.822 31.4133 890.435 30.7733 889.928 30.24C889.448 29.68 888.848 29.2533 888.128 28.96C887.435 28.6667 886.662 28.52 885.808 28.52Z" fill="#FCFFBA"/>
<path d="M503.544 83L502.128 78.224H496.248L494.832 83H492.744L497.88 66.248H500.544L505.68 83H503.544ZM499.296 68.384H499.08L496.728 76.472H501.648L499.296 68.384ZM507.989 81.368H511.613V72.248H507.989V70.616H513.533V73.736H513.653C513.909 72.76 514.389 72 515.093 71.456C515.813 70.896 516.725 70.616 517.829 70.616H519.557V72.536H517.229C516.125 72.536 515.229 72.856 514.541 73.496C513.869 74.136 513.533 74.976 513.533 76.016V81.368H518.333V83H507.989V81.368ZM527.913 83.288C527.017 83.288 526.217 83.136 525.513 82.832C524.825 82.512 524.241 82.072 523.761 81.512C523.281 80.952 522.913 80.272 522.657 79.472C522.417 78.672 522.297 77.784 522.297 76.808C522.297 75.832 522.425 74.944 522.681 74.144C522.937 73.344 523.305 72.664 523.785 72.104C524.265 71.528 524.849 71.088 525.537 70.784C526.225 70.48 527.009 70.328 527.889 70.328C529.089 70.328 530.065 70.592 530.817 71.12C531.569 71.648 532.121 72.336 532.473 73.184L530.937 74C530.713 73.36 530.337 72.864 529.809 72.512C529.297 72.16 528.657 71.984 527.889 71.984C527.329 71.984 526.825 72.08 526.377 72.272C525.945 72.448 525.577 72.704 525.273 73.04C524.969 73.376 524.737 73.776 524.577 74.24C524.433 74.704 524.361 75.208 524.361 75.752V77.864C524.361 78.408 524.433 78.912 524.577 79.376C524.737 79.84 524.969 80.24 525.273 80.576C525.577 80.912 525.953 81.176 526.401 81.368C526.849 81.544 527.361 81.632 527.937 81.632C528.769 81.632 529.457 81.44 530.001 81.056C530.545 80.672 530.977 80.144 531.297 79.472L532.665 80.408C532.297 81.24 531.721 81.928 530.937 82.472C530.169 83.016 529.161 83.288 527.913 83.288ZM536.774 65.24H538.694V72.632H538.79C538.918 72.328 539.078 72.04 539.27 71.768C539.462 71.48 539.694 71.232 539.966 71.024C540.254 70.816 540.59 70.648 540.974 70.52C541.358 70.392 541.806 70.328 542.318 70.328C543.614 70.328 544.654 70.744 545.438 71.576C546.222 72.392 546.614 73.552 546.614 75.056V83H544.694V75.392C544.694 74.256 544.446 73.416 543.95 72.872C543.454 72.312 542.726 72.032 541.766 72.032C541.382 72.032 541.006 72.08 540.638 72.176C540.27 72.272 539.942 72.416 539.654 72.608C539.366 72.8 539.134 73.048 538.958 73.352C538.782 73.656 538.694 74.008 538.694 74.408V83H536.774V65.24ZM556.531 67.88C555.971 67.88 555.579 67.768 555.355 67.544C555.131 67.304 555.019 67.008 555.019 66.656V66.272C555.019 65.92 555.131 65.632 555.355 65.408C555.579 65.168 555.971 65.048 556.531 65.048C557.091 65.048 557.483 65.168 557.707 65.408C557.931 65.632 558.043 65.92 558.043 66.272V66.656C558.043 67.008 557.931 67.304 557.707 67.544C557.483 67.768 557.091 67.88 556.531 67.88ZM551.107 81.368H555.571V72.248H551.107V70.616H557.491V81.368H561.667V83H551.107V81.368ZM568.679 83L564.239 70.616H566.183L567.959 75.8L569.879 81.392H569.975L571.895 75.8L573.671 70.616H575.567L571.127 83H568.679ZM584.26 83.288C583.364 83.288 582.556 83.136 581.836 82.832C581.132 82.528 580.524 82.096 580.012 81.536C579.516 80.96 579.132 80.28 578.86 79.496C578.588 78.696 578.452 77.808 578.452 76.832C578.452 75.84 578.588 74.944 578.86 74.144C579.148 73.344 579.54 72.664 580.036 72.104C580.532 71.528 581.124 71.088 581.812 70.784C582.516 70.48 583.292 70.328 584.14 70.328C584.972 70.328 585.724 70.48 586.396 70.784C587.084 71.088 587.668 71.512 588.148 72.056C588.628 72.584 588.996 73.216 589.252 73.952C589.508 74.688 589.636 75.496 589.636 76.376V77.288H580.468V77.864C580.468 78.408 580.556 78.912 580.732 79.376C580.908 79.84 581.156 80.24 581.476 80.576C581.812 80.912 582.212 81.176 582.676 81.368C583.156 81.544 583.684 81.632 584.26 81.632C585.092 81.632 585.812 81.44 586.42 81.056C587.028 80.672 587.492 80.144 587.812 79.472L589.228 80.432C588.86 81.264 588.244 81.952 587.38 82.496C586.532 83.024 585.492 83.288 584.26 83.288ZM584.14 71.912C583.612 71.912 583.124 72.008 582.676 72.2C582.228 72.392 581.836 72.656 581.5 72.992C581.18 73.328 580.924 73.728 580.732 74.192C580.556 74.64 580.468 75.136 580.468 75.68V75.848H587.572V75.584C587.572 75.04 587.484 74.544 587.308 74.096C587.148 73.648 586.916 73.264 586.612 72.944C586.324 72.608 585.964 72.352 585.532 72.176C585.116 72 584.652 71.912 584.14 71.912ZM612.325 83.288C611.461 83.288 610.677 83.136 609.973 82.832C609.285 82.528 608.693 82.096 608.197 81.536C607.717 80.96 607.349 80.28 607.093 79.496C606.837 78.696 606.709 77.8 606.709 76.808C606.709 75.832 606.837 74.944 607.093 74.144C607.349 73.344 607.717 72.664 608.197 72.104C608.693 71.528 609.285 71.088 609.973 70.784C610.677 70.48 611.461 70.328 612.325 70.328C613.189 70.328 613.965 70.48 614.653 70.784C615.357 71.088 615.949 71.528 616.429 72.104C616.925 72.664 617.301 73.344 617.557 74.144C617.813 74.944 617.941 75.832 617.941 76.808C617.941 77.8 617.813 78.696 617.557 79.496C617.301 80.28 616.925 80.96 616.429 81.536C615.949 82.096 615.357 82.528 614.653 82.832C613.965 83.136 613.189 83.288 612.325 83.288ZM612.325 81.632C613.397 81.632 614.261 81.312 614.917 80.672C615.573 80.032 615.901 79.04 615.901 77.696V75.92C615.901 74.576 615.573 73.584 614.917 72.944C614.261 72.304 613.397 71.984 612.325 71.984C611.253 71.984 610.389 72.304 609.733 72.944C609.077 73.584 608.749 74.576 608.749 75.92V77.696C608.749 79.04 609.077 80.032 609.733 80.672C610.389 81.312 611.253 81.632 612.325 81.632ZM621.258 81.368H625.434V72.248H621.018V70.616H625.434V68.072C625.434 67.24 625.65 66.56 626.082 66.032C626.53 65.504 627.226 65.24 628.17 65.24H632.322V66.872H627.354V70.616H632.322V72.248H627.354V81.368H631.77V83H621.258V81.368ZM658.011 75.392H651.483V83H649.467V66.248H651.483V73.64H658.011V66.248H660.027V83H658.011V75.392ZM671.816 80.984H671.72C671.592 81.288 671.432 81.584 671.24 81.872C671.048 82.144 670.808 82.384 670.52 82.592C670.248 82.8 669.92 82.968 669.536 83.096C669.152 83.224 668.704 83.288 668.192 83.288C666.896 83.288 665.856 82.88 665.072 82.064C664.288 81.232 663.896 80.064 663.896 78.56V70.616H665.816V78.224C665.816 79.36 666.064 80.208 666.56 80.768C667.056 81.312 667.784 81.584 668.743 81.584C669.128 81.584 669.504 81.536 669.872 81.44C670.24 81.344 670.568 81.2 670.856 81.008C671.144 80.816 671.376 80.576 671.552 80.288C671.728 79.984 671.816 79.624 671.816 79.208V70.616H673.736V83H671.816V80.984ZM677.124 83V70.616H678.9V72.056H678.996C679.188 71.576 679.46 71.168 679.812 70.832C680.164 70.496 680.684 70.328 681.372 70.328C682.092 70.328 682.628 70.512 682.98 70.88C683.332 71.232 683.548 71.696 683.628 72.272H683.7C683.924 71.712 684.244 71.248 684.66 70.88C685.076 70.512 685.652 70.328 686.388 70.328C687.396 70.328 688.068 70.68 688.404 71.384C688.756 72.088 688.932 73.096 688.932 74.408V83H687.156V74.72C687.156 73.664 687.044 72.936 686.82 72.536C686.612 72.12 686.22 71.912 685.644 71.912C685.132 71.912 684.716 72.08 684.396 72.416C684.076 72.736 683.916 73.232 683.916 73.904V83H682.14V74.72C682.14 73.664 682.028 72.936 681.804 72.536C681.596 72.12 681.212 71.912 680.652 71.912C680.14 71.912 679.716 72.08 679.38 72.416C679.06 72.736 678.9 73.232 678.9 73.904V83H677.124ZM701.849 83C701.097 83 700.561 82.808 700.241 82.424C699.921 82.04 699.721 81.56 699.641 80.984H699.521C699.249 81.704 698.809 82.272 698.201 82.688C697.609 83.088 696.809 83.288 695.801 83.288C694.505 83.288 693.473 82.952 692.705 82.28C691.937 81.608 691.553 80.688 691.553 79.52C691.553 78.368 691.969 77.48 692.801 76.856C693.649 76.232 695.009 75.92 696.881 75.92H699.521V74.696C699.521 73.784 699.265 73.104 698.753 72.656C698.241 72.192 697.513 71.96 696.569 71.96C695.737 71.96 695.057 72.128 694.529 72.464C694.001 72.784 693.577 73.224 693.257 73.784L691.961 72.824C692.121 72.504 692.337 72.192 692.609 71.888C692.881 71.584 693.217 71.32 693.617 71.096C694.017 70.856 694.473 70.672 694.985 70.544C695.497 70.4 696.065 70.328 696.689 70.328C698.145 70.328 699.297 70.696 700.145 71.432C701.009 72.168 701.441 73.192 701.441 74.504V81.32H703.169V83H701.849ZM696.137 81.68C696.633 81.68 697.081 81.624 697.481 81.512C697.897 81.384 698.257 81.224 698.561 81.032C698.865 80.824 699.097 80.584 699.257 80.312C699.433 80.024 699.521 79.72 699.521 79.4V77.36H696.881C695.729 77.36 694.889 77.52 694.361 77.84C693.833 78.16 693.569 78.624 693.569 79.232V79.736C693.569 80.376 693.793 80.864 694.241 81.2C694.705 81.52 695.337 81.68 696.137 81.68ZM706.461 83V70.616H708.381V72.632H708.477C708.605 72.328 708.765 72.04 708.957 71.768C709.149 71.48 709.381 71.232 709.653 71.024C709.941 70.816 710.277 70.648 710.661 70.52C711.045 70.392 711.493 70.328 712.005 70.328C713.301 70.328 714.341 70.744 715.125 71.576C715.909 72.392 716.301 73.552 716.301 75.056V83H714.381V75.392C714.381 74.256 714.133 73.416 713.637 72.872C713.141 72.312 712.413 72.032 711.453 72.032C711.069 72.032 710.693 72.08 710.325 72.176C709.957 72.272 709.629 72.416 709.341 72.608C709.053 72.8 708.821 73.048 708.645 73.352C708.469 73.656 708.381 74.008 708.381 74.408V83H706.461ZM724.418 79.736H727.514L724.754 86.384H723.146L724.418 79.736ZM758.075 83L756.659 78.224H750.779L749.363 83H747.275L752.411 66.248H755.075L760.211 83H758.075ZM753.827 68.384H753.611L751.259 76.472H756.179L753.827 68.384ZM762.688 83V81.392H766.864V67.856H762.688V66.248H773.056V67.856H768.88V81.392H773.056V83H762.688ZM780.98 79.736H784.077L781.317 86.384H779.709L780.98 79.736ZM814.974 83C814.222 83 813.686 82.808 813.366 82.424C813.046 82.04 812.846 81.56 812.766 80.984H812.646C812.374 81.704 811.934 82.272 811.326 82.688C810.734 83.088 809.934 83.288 808.926 83.288C807.63 83.288 806.598 82.952 805.83 82.28C805.062 81.608 804.678 80.688 804.678 79.52C804.678 78.368 805.094 77.48 805.926 76.856C806.774 76.232 808.134 75.92 810.006 75.92H812.646V74.696C812.646 73.784 812.39 73.104 811.878 72.656C811.366 72.192 810.638 71.96 809.694 71.96C808.862 71.96 808.182 72.128 807.654 72.464C807.126 72.784 806.702 73.224 806.382 73.784L805.086 72.824C805.246 72.504 805.462 72.192 805.734 71.888C806.006 71.584 806.342 71.32 806.742 71.096C807.142 70.856 807.598 70.672 808.11 70.544C808.622 70.4 809.19 70.328 809.814 70.328C811.27 70.328 812.422 70.696 813.27 71.432C814.134 72.168 814.566 73.192 814.566 74.504V81.32H816.294V83H814.974ZM809.262 81.68C809.758 81.68 810.206 81.624 810.606 81.512C811.022 81.384 811.382 81.224 811.686 81.032C811.99 80.824 812.222 80.584 812.382 80.312C812.558 80.024 812.646 79.72 812.646 79.4V77.36H810.006C808.854 77.36 808.014 77.52 807.486 77.84C806.958 78.16 806.694 78.624 806.694 79.232V79.736C806.694 80.376 806.918 80.864 807.366 81.2C807.83 81.52 808.462 81.68 809.262 81.68ZM819.586 83V70.616H821.506V72.632H821.602C821.73 72.328 821.89 72.04 822.082 71.768C822.274 71.48 822.506 71.232 822.778 71.024C823.066 70.816 823.402 70.648 823.786 70.52C824.17 70.392 824.618 70.328 825.13 70.328C826.426 70.328 827.466 70.744 828.25 71.576C829.034 72.392 829.426 73.552 829.426 75.056V83H827.506V75.392C827.506 74.256 827.258 73.416 826.762 72.872C826.266 72.312 825.538 72.032 824.578 72.032C824.194 72.032 823.818 72.08 823.45 72.176C823.082 72.272 822.754 72.416 822.466 72.608C822.178 72.8 821.946 73.048 821.77 73.352C821.594 73.656 821.506 74.008 821.506 74.408V83H819.586ZM841.575 80.984H841.479C840.679 82.52 839.407 83.288 837.663 83.288C836.143 83.288 834.951 82.72 834.087 81.584C833.239 80.448 832.815 78.856 832.815 76.808C832.815 74.76 833.239 73.168 834.087 72.032C834.951 70.896 836.143 70.328 837.663 70.328C839.407 70.328 840.679 71.096 841.479 72.632H841.575V65.24H843.495V83H841.575V80.984ZM838.407 81.584C838.839 81.584 839.247 81.528 839.631 81.416C840.015 81.304 840.351 81.144 840.639 80.936C840.927 80.712 841.151 80.448 841.311 80.144C841.487 79.824 841.575 79.456 841.575 79.04V74.576C841.575 74.16 841.487 73.8 841.311 73.496C841.151 73.176 840.927 72.912 840.639 72.704C840.351 72.48 840.015 72.312 839.631 72.2C839.247 72.088 838.839 72.032 838.407 72.032C837.287 72.032 836.415 72.376 835.791 73.064C835.183 73.736 834.879 74.632 834.879 75.752V77.864C834.879 78.984 835.183 79.888 835.791 80.576C836.415 81.248 837.287 81.584 838.407 81.584ZM862.536 83V66.248H864.552V81.248H872.496V83H862.536ZM885.677 83C884.925 83 884.389 82.808 884.069 82.424C883.749 82.04 883.549 81.56 883.469 80.984H883.349C883.077 81.704 882.637 82.272 882.029 82.688C881.437 83.088 880.637 83.288 879.629 83.288C878.333 83.288 877.301 82.952 876.533 82.28C875.765 81.608 875.381 80.688 875.381 79.52C875.381 78.368 875.797 77.48 876.629 76.856C877.477 76.232 878.837 75.92 880.709 75.92H883.349V74.696C883.349 73.784 883.093 73.104 882.581 72.656C882.069 72.192 881.341 71.96 880.397 71.96C879.565 71.96 878.885 72.128 878.357 72.464C877.829 72.784 877.405 73.224 877.085 73.784L875.789 72.824C875.949 72.504 876.165 72.192 876.437 71.888C876.709 71.584 877.045 71.32 877.445 71.096C877.845 70.856 878.301 70.672 878.813 70.544C879.325 70.4 879.893 70.328 880.517 70.328C881.973 70.328 883.125 70.696 883.973 71.432C884.837 72.168 885.269 73.192 885.269 74.504V81.32H886.997V83H885.677ZM879.965 81.68C880.461 81.68 880.909 81.624 881.309 81.512C881.725 81.384 882.085 81.224 882.389 81.032C882.693 80.824 882.925 80.584 883.085 80.312C883.261 80.024 883.349 79.72 883.349 79.4V77.36H880.709C879.557 77.36 878.717 77.52 878.189 77.84C877.661 78.16 877.397 78.624 877.397 79.232V79.736C877.397 80.376 877.621 80.864 878.069 81.2C878.533 81.52 879.165 81.68 879.965 81.68ZM890.218 65.24H892.138V72.632H892.234C893.034 71.096 894.306 70.328 896.05 70.328C897.57 70.328 898.754 70.896 899.602 72.032C900.466 73.168 900.898 74.76 900.898 76.808C900.898 78.856 900.466 80.448 899.602 81.584C898.754 82.72 897.57 83.288 896.05 83.288C894.306 83.288 893.034 82.52 892.234 80.984H892.138V83H890.218V65.24ZM895.306 81.584C896.426 81.584 897.29 81.248 897.898 80.576C898.522 79.888 898.834 78.984 898.834 77.864V75.752C898.834 74.632 898.522 73.736 897.898 73.064C897.29 72.376 896.426 72.032 895.306 72.032C894.874 72.032 894.466 72.088 894.082 72.2C893.698 72.312 893.362 72.48 893.074 72.704C892.786 72.912 892.554 73.176 892.378 73.496C892.218 73.8 892.138 74.16 892.138 74.576V79.04C892.138 79.456 892.218 79.824 892.378 80.144C892.554 80.448 892.786 80.712 893.074 80.936C893.362 81.144 893.698 81.304 894.082 81.416C894.466 81.528 894.874 81.584 895.306 81.584ZM909.278 83.288C908.414 83.288 907.63 83.136 906.926 82.832C906.238 82.528 905.646 82.096 905.15 81.536C904.67 80.96 904.302 80.28 904.046 79.496C903.79 78.696 903.662 77.8 903.662 76.808C903.662 75.832 903.79 74.944 904.046 74.144C904.302 73.344 904.67 72.664 905.15 72.104C905.646 71.528 906.238 71.088 906.926 70.784C907.63 70.48 908.414 70.328 909.278 70.328C910.142 70.328 910.918 70.48 911.606 70.784C912.31 71.088 912.902 71.528 913.382 72.104C913.878 72.664 914.254 73.344 914.51 74.144C914.766 74.944 914.894 75.832 914.894 76.808C914.894 77.8 914.766 78.696 914.51 79.496C914.254 80.28 913.878 80.96 913.382 81.536C912.902 82.096 912.31 82.528 911.606 82.832C910.918 83.136 910.142 83.288 909.278 83.288ZM909.278 81.632C910.35 81.632 911.214 81.312 911.87 80.672C912.526 80.032 912.854 79.04 912.854 77.696V75.92C912.854 74.576 912.526 73.584 911.87 72.944C911.214 72.304 910.35 71.984 909.278 71.984C908.206 71.984 907.342 72.304 906.686 72.944C906.03 73.584 905.702 74.576 905.702 75.92V77.696C905.702 79.04 906.03 80.032 906.686 80.672C907.342 81.312 908.206 81.632 909.278 81.632ZM926.347 80.984H926.251C926.123 81.288 925.963 81.584 925.771 81.872C925.579 82.144 925.339 82.384 925.051 82.592C924.779 82.8 924.451 82.968 924.067 83.096C923.683 83.224 923.235 83.288 922.723 83.288C921.427 83.288 920.387 82.88 919.603 82.064C918.819 81.232 918.427 80.064 918.427 78.56V70.616H920.347V78.224C920.347 79.36 920.595 80.208 921.091 80.768C921.587 81.312 922.315 81.584 923.275 81.584C923.659 81.584 924.035 81.536 924.403 81.44C924.771 81.344 925.099 81.2 925.387 81.008C925.675 80.816 925.907 80.576 926.083 80.288C926.259 79.984 926.347 79.624 926.347 79.208V70.616H928.267V83H926.347V80.984ZM932.207 81.368H935.831V72.248H932.207V70.616H937.751V73.736H937.871C938.127 72.76 938.607 72 939.311 71.456C940.031 70.896 940.943 70.616 942.047 70.616H943.775V72.536H941.447C940.343 72.536 939.447 72.856 938.759 73.496C938.087 74.136 937.751 74.976 937.751 76.016V81.368H942.551V83H932.207V81.368Z" fill="#FCFFBA"/>
<path d="M50.3906 67.875V75H5.71875V68.7656L28.0781 43.875C30.8281 40.8125 32.9531 38.2188 34.4531 36.0938C35.9844 33.9375 37.0469 32.0156 37.6406 30.3281C38.2656 28.6094 38.5781 26.8594 38.5781 25.0781C38.5781 22.8281 38.1094 20.7969 37.1719 18.9844C36.2656 17.1406 34.9219 15.6719 33.1406 14.5781C31.3594 13.4844 29.2031 12.9375 26.6719 12.9375C23.6406 12.9375 21.1094 13.5313 19.0781 14.7188C17.0781 15.875 15.5781 17.5 14.5781 19.5938C13.5781 21.6875 13.0781 24.0938 13.0781 26.8125H4.40625C4.40625 22.9688 5.25 19.4531 6.9375 16.2656C8.625 13.0781 11.125 10.5469 14.4375 8.67188C17.75 6.76562 21.8281 5.8125 26.6719 5.8125C30.9844 5.8125 34.6719 6.57812 37.7344 8.10938C40.7969 9.60938 43.1406 11.7344 44.7656 14.4844C46.4219 17.2031 47.25 20.3906 47.25 24.0469C47.25 26.0469 46.9062 28.0781 46.2188 30.1406C45.5625 32.1719 44.6406 34.2031 43.4531 36.2344C42.2969 38.2656 40.9375 40.2656 39.375 42.2344C37.8438 44.2031 36.2031 46.1406 34.4531 48.0469L16.1719 67.875H50.3906ZM102.266 35.4375V45.8438C102.266 51.4375 101.766 56.1562 100.766 60C99.7656 63.8438 98.3281 66.9375 96.4531 69.2812C94.5781 71.625 92.3125 73.3281 89.6562 74.3906C87.0312 75.4219 84.0625 75.9375 80.75 75.9375C78.125 75.9375 75.7031 75.6094 73.4844 74.9531C71.2656 74.2969 69.2656 73.25 67.4844 71.8125C65.7344 70.3438 64.2344 68.4375 62.9844 66.0938C61.7344 63.75 60.7812 60.9062 60.125 57.5625C59.4688 54.2188 59.1406 50.3125 59.1406 45.8438V35.4375C59.1406 29.8438 59.6406 25.1563 60.6406 21.375C61.6719 17.5937 63.125 14.5625 65 12.2812C66.875 9.96875 69.125 8.3125 71.75 7.3125C74.4062 6.3125 77.375 5.8125 80.6562 5.8125C83.3125 5.8125 85.75 6.14062 87.9688 6.79688C90.2188 7.42187 92.2188 8.4375 93.9688 9.84375C95.7188 11.2187 97.2031 13.0625 98.4219 15.375C99.6719 17.6563 100.625 20.4531 101.281 23.7656C101.938 27.0781 102.266 30.9688 102.266 35.4375ZM93.5469 47.25V33.9844C93.5469 30.9219 93.3594 28.2344 92.9844 25.9219C92.6406 23.5781 92.125 21.5781 91.4375 19.9219C90.75 18.2656 89.875 16.9219 88.8125 15.8906C87.7812 14.8594 86.5781 14.1094 85.2031 13.6406C83.8594 13.1406 82.3438 12.8906 80.6562 12.8906C78.5938 12.8906 76.7656 13.2812 75.1719 14.0625C73.5781 14.8125 72.2344 16.0156 71.1406 17.6719C70.0781 19.3281 69.2656 21.5 68.7031 24.1875C68.1406 26.875 67.8594 30.1406 67.8594 33.9844V47.25C67.8594 50.3125 68.0312 53.0156 68.375 55.3594C68.75 57.7031 69.2969 59.7344 70.0156 61.4531C70.7344 63.1406 71.6094 64.5312 72.6406 65.625C73.6719 66.7188 74.8594 67.5312 76.2031 68.0625C77.5781 68.5625 79.0938 68.8125 80.75 68.8125C82.875 68.8125 84.7344 68.4062 86.3281 67.5938C87.9219 66.7812 89.25 65.5156 90.3125 63.7969C91.4062 62.0469 92.2188 59.8125 92.75 57.0938C93.2812 54.3438 93.5469 51.0625 93.5469 47.25ZM157.891 67.875V75H113.219V68.7656L135.578 43.875C138.328 40.8125 140.453 38.2188 141.953 36.0938C143.484 33.9375 144.547 32.0156 145.141 30.3281C145.766 28.6094 146.078 26.8594 146.078 25.0781C146.078 22.8281 145.609 20.7969 144.672 18.9844C143.766 17.1406 142.422 15.6719 140.641 14.5781C138.859 13.4844 136.703 12.9375 134.172 12.9375C131.141 12.9375 128.609 13.5313 126.578 14.7188C124.578 15.875 123.078 17.5 122.078 19.5938C121.078 21.6875 120.578 24.0938 120.578 26.8125H111.906C111.906 22.9688 112.75 19.4531 114.438 16.2656C116.125 13.0781 118.625 10.5469 121.938 8.67188C125.25 6.76562 129.328 5.8125 134.172 5.8125C138.484 5.8125 142.172 6.57812 145.234 8.10938C148.297 9.60938 150.641 11.7344 152.266 14.4844C153.922 17.2031 154.75 20.3906 154.75 24.0469C154.75 26.0469 154.406 28.0781 153.719 30.1406C153.062 32.1719 152.141 34.2031 150.953 36.2344C149.797 38.2656 148.438 40.2656 146.875 42.2344C145.344 44.2031 143.703 46.1406 141.953 48.0469L123.672 67.875H157.891ZM177.891 42.5156L170.953 40.7344L174.375 6.75H209.391V14.7656H181.734L179.672 33.3281C180.922 32.6094 182.5 31.9375 184.406 31.3125C186.344 30.6875 188.562 30.375 191.062 30.375C194.219 30.375 197.047 30.9219 199.547 32.0156C202.047 33.0781 204.172 34.6094 205.922 36.6094C207.703 38.6094 209.062 41.0156 210 43.8281C210.938 46.6406 211.406 49.7812 211.406 53.25C211.406 56.5312 210.953 59.5469 210.047 62.2969C209.172 65.0469 207.844 67.4531 206.062 69.5156C204.281 71.5469 202.031 73.125 199.312 74.25C196.625 75.375 193.453 75.9375 189.797 75.9375C187.047 75.9375 184.438 75.5625 181.969 74.8125C179.531 74.0312 177.344 72.8594 175.406 71.2969C173.5 69.7031 171.938 67.7344 170.719 65.3906C169.531 63.0156 168.781 60.2344 168.469 57.0469H176.719C177.094 59.6094 177.844 61.7656 178.969 63.5156C180.094 65.2656 181.562 66.5938 183.375 67.5C185.219 68.375 187.359 68.8125 189.797 68.8125C191.859 68.8125 193.688 68.4531 195.281 67.7344C196.875 67.0156 198.219 65.9844 199.312 64.6406C200.406 63.2969 201.234 61.6719 201.797 59.7656C202.391 57.8594 202.688 55.7188 202.688 53.3438C202.688 51.1875 202.391 49.1875 201.797 47.3438C201.203 45.5 200.312 43.8906 199.125 42.5156C197.969 41.1406 196.547 40.0781 194.859 39.3281C193.172 38.5469 191.234 38.1562 189.047 38.1562C186.141 38.1562 183.938 38.5469 182.438 39.3281C180.969 40.1094 179.453 41.1719 177.891 42.5156Z" fill="url(#paint0_linear_529_253)" fill-opacity="0.7"/>
<path d="M1276.39 66.875V74H1231.72V67.7656L1254.08 42.875C1256.83 39.8125 1258.95 37.2188 1260.45 35.0938C1261.98 32.9375 1263.05 31.0156 1263.64 29.3281C1264.27 27.6094 1264.58 25.8594 1264.58 24.0781C1264.58 21.8281 1264.11 19.7969 1263.17 17.9844C1262.27 16.1406 1260.92 14.6719 1259.14 13.5781C1257.36 12.4844 1255.2 11.9375 1252.67 11.9375C1249.64 11.9375 1247.11 12.5313 1245.08 13.7188C1243.08 14.875 1241.58 16.5 1240.58 18.5938C1239.58 20.6875 1239.08 23.0938 1239.08 25.8125H1230.41C1230.41 21.9688 1231.25 18.4531 1232.94 15.2656C1234.62 12.0781 1237.12 9.54688 1240.44 7.67188C1243.75 5.76562 1247.83 4.8125 1252.67 4.8125C1256.98 4.8125 1260.67 5.57812 1263.73 7.10938C1266.8 8.60938 1269.14 10.7344 1270.77 13.4844C1272.42 16.2031 1273.25 19.3906 1273.25 23.0469C1273.25 25.0469 1272.91 27.0781 1272.22 29.1406C1271.56 31.1719 1270.64 33.2031 1269.45 35.2344C1268.3 37.2656 1266.94 39.2656 1265.38 41.2344C1263.84 43.2031 1262.2 45.1406 1260.45 47.0469L1242.17 66.875H1276.39ZM1328.27 34.4375V44.8438C1328.27 50.4375 1327.77 55.1562 1326.77 59C1325.77 62.8438 1324.33 65.9375 1322.45 68.2812C1320.58 70.625 1318.31 72.3281 1315.66 73.3906C1313.03 74.4219 1310.06 74.9375 1306.75 74.9375C1304.12 74.9375 1301.7 74.6094 1299.48 73.9531C1297.27 73.2969 1295.27 72.25 1293.48 70.8125C1291.73 69.3438 1290.23 67.4375 1288.98 65.0938C1287.73 62.75 1286.78 59.9062 1286.12 56.5625C1285.47 53.2188 1285.14 49.3125 1285.14 44.8438V34.4375C1285.14 28.8438 1285.64 24.1563 1286.64 20.375C1287.67 16.5937 1289.12 13.5625 1291 11.2812C1292.88 8.96875 1295.12 7.3125 1297.75 6.3125C1300.41 5.3125 1303.38 4.8125 1306.66 4.8125C1309.31 4.8125 1311.75 5.14062 1313.97 5.79688C1316.22 6.42187 1318.22 7.4375 1319.97 8.84375C1321.72 10.2187 1323.2 12.0625 1324.42 14.375C1325.67 16.6563 1326.62 19.4531 1327.28 22.7656C1327.94 26.0781 1328.27 29.9688 1328.27 34.4375ZM1319.55 46.25V32.9844C1319.55 29.9219 1319.36 27.2344 1318.98 24.9219C1318.64 22.5781 1318.12 20.5781 1317.44 18.9219C1316.75 17.2656 1315.88 15.9219 1314.81 14.8906C1313.78 13.8594 1312.58 13.1094 1311.2 12.6406C1309.86 12.1406 1308.34 11.8906 1306.66 11.8906C1304.59 11.8906 1302.77 12.2812 1301.17 13.0625C1299.58 13.8125 1298.23 15.0156 1297.14 16.6719C1296.08 18.3281 1295.27 20.5 1294.7 23.1875C1294.14 25.875 1293.86 29.1406 1293.86 32.9844V46.25C1293.86 49.3125 1294.03 52.0156 1294.38 54.3594C1294.75 56.7031 1295.3 58.7344 1296.02 60.4531C1296.73 62.1406 1297.61 63.5312 1298.64 64.625C1299.67 65.7188 1300.86 66.5312 1302.2 67.0625C1303.58 67.5625 1305.09 67.8125 1306.75 67.8125C1308.88 67.8125 1310.73 67.4062 1312.33 66.5938C1313.92 65.7812 1315.25 64.5156 1316.31 62.7969C1317.41 61.0469 1318.22 58.8125 1318.75 56.0938C1319.28 53.3438 1319.55 50.0625 1319.55 46.25ZM1383.28 5.75V10.625L1355.02 74H1345.88L1374.09 12.875H1337.16V5.75H1383.28ZM1403.89 41.5156L1396.95 39.7344L1400.38 5.75H1435.39V13.7656H1407.73L1405.67 32.3281C1406.92 31.6094 1408.5 30.9375 1410.41 30.3125C1412.34 29.6875 1414.56 29.375 1417.06 29.375C1420.22 29.375 1423.05 29.9219 1425.55 31.0156C1428.05 32.0781 1430.17 33.6094 1431.92 35.6094C1433.7 37.6094 1435.06 40.0156 1436 42.8281C1436.94 45.6406 1437.41 48.7812 1437.41 52.25C1437.41 55.5312 1436.95 58.5469 1436.05 61.2969C1435.17 64.0469 1433.84 66.4531 1432.06 68.5156C1430.28 70.5469 1428.03 72.125 1425.31 73.25C1422.62 74.375 1419.45 74.9375 1415.8 74.9375C1413.05 74.9375 1410.44 74.5625 1407.97 73.8125C1405.53 73.0312 1403.34 71.8594 1401.41 70.2969C1399.5 68.7031 1397.94 66.7344 1396.72 64.3906C1395.53 62.0156 1394.78 59.2344 1394.47 56.0469H1402.72C1403.09 58.6094 1403.84 60.7656 1404.97 62.5156C1406.09 64.2656 1407.56 65.5938 1409.38 66.5C1411.22 67.375 1413.36 67.8125 1415.8 67.8125C1417.86 67.8125 1419.69 67.4531 1421.28 66.7344C1422.88 66.0156 1424.22 64.9844 1425.31 63.6406C1426.41 62.2969 1427.23 60.6719 1427.8 58.7656C1428.39 56.8594 1428.69 54.7188 1428.69 52.3438C1428.69 50.1875 1428.39 48.1875 1427.8 46.3438C1427.2 44.5 1426.31 42.8906 1425.12 41.5156C1423.97 40.1406 1422.55 39.0781 1420.86 38.3281C1419.17 37.5469 1417.23 37.1562 1415.05 37.1562C1412.14 37.1562 1409.94 37.5469 1408.44 38.3281C1406.97 39.1094 1405.45 40.1719 1403.89 41.5156Z" fill="url(#paint1_linear_529_253)" fill-opacity="0.7"/>
<ellipse cx="275.5" cy="57" rx="1.5" ry="26" fill="#FCFFBA"/>
<ellipse cx="275.5" cy="56.5" rx="1.5" ry="17.5" transform="rotate(-90 275.5 56.5)" fill="#FCFFBA"/>
<ellipse cx="275.614" cy="56.614" rx="1.36872" ry="15.0559" transform="rotate(-45 275.614 56.614)" fill="#FCFFBA"/>
<ellipse cx="275.614" cy="56.614" rx="1.36872" ry="15.0559" transform="rotate(45 275.614 56.614)" fill="#FCFFBA"/>
<ellipse cx="1162.5" cy="57" rx="1.5" ry="26" fill="#FCFFBA"/>
<ellipse cx="1162.5" cy="56.5" rx="1.5" ry="17.5" transform="rotate(-90 1162.5 56.5)" fill="#FCFFBA"/>
<ellipse cx="1162.61" cy="56.614" rx="1.36872" ry="15.0559" transform="rotate(-45 1162.61 56.614)" fill="#FCFFBA"/>
<ellipse cx="1162.61" cy="56.614" rx="1.36872" ry="15.0559" transform="rotate(45 1162.61 56.614)" fill="#FCFFBA"/>
<defs>
<linearGradient id="paint0_linear_529_253" x1="-45.6944" y1="42" x2="259.479" y2="42" gradientUnits="userSpaceOnUse">
<stop stop-color="#FCFFBA"/>
<stop offset="1" stop-color="#CCCEA8" stop-opacity="0.25"/>
</linearGradient>
<linearGradient id="paint1_linear_529_253" x1="1453" y1="41" x2="1117.23" y2="41" gradientUnits="userSpaceOnUse">
<stop stop-color="#FCFFBA"/>
<stop offset="1" stop-color="#CBCE9E" stop-opacity="0.21"/>
</linearGradient>
</defs>
</svg>
