<svg width="806" height="137" viewBox="0 0 806 137" fill="none" xmlns="http://www.w3.org/2000/svg">
<rect width="806" height="137" fill="#D63789" fill-opacity="0.65"/>
<path d="M17.72 32.66H12.28V39H10.6V25.04H12.28V31.2H17.72V25.04H19.4V39H17.72V32.66ZM26.9222 39.24C26.1755 39.24 25.5022 39.1133 24.9022 38.86C24.3155 38.6067 23.8089 38.2467 23.3822 37.78C22.9689 37.3 22.6489 36.7333 22.4222 36.08C22.1955 35.4133 22.0822 34.6733 22.0822 33.86C22.0822 33.0333 22.1955 32.2867 22.4222 31.62C22.6622 30.9533 22.9889 30.3867 23.4022 29.92C23.8155 29.44 24.3089 29.0733 24.8822 28.82C25.4689 28.5667 26.1155 28.44 26.8222 28.44C27.5155 28.44 28.1422 28.5667 28.7022 28.82C29.2755 29.0733 29.7622 29.4267 30.1622 29.88C30.5622 30.32 30.8689 30.8467 31.0822 31.46C31.2955 32.0733 31.4022 32.7467 31.4022 33.48V34.24H23.7622V34.72C23.7622 35.1733 23.8355 35.5933 23.9822 35.98C24.1289 36.3667 24.3355 36.7 24.6022 36.98C24.8822 37.26 25.2155 37.48 25.6022 37.64C26.0022 37.7867 26.4422 37.86 26.9222 37.86C27.6155 37.86 28.2155 37.7 28.7222 37.38C29.2289 37.06 29.6155 36.62 29.8822 36.06L31.0622 36.86C30.7555 37.5533 30.2422 38.1267 29.5222 38.58C28.8155 39.02 27.9489 39.24 26.9222 39.24ZM26.8222 29.76C26.3822 29.76 25.9755 29.84 25.6022 30C25.2289 30.16 24.9022 30.38 24.6222 30.66C24.3555 30.94 24.1422 31.2733 23.9822 31.66C23.8355 32.0333 23.7622 32.4467 23.7622 32.9V33.04H29.6822V32.82C29.6822 32.3667 29.6089 31.9533 29.4622 31.58C29.3289 31.2067 29.1355 30.8867 28.8822 30.62C28.6422 30.34 28.3422 30.1267 27.9822 29.98C27.6355 29.8333 27.2489 29.76 26.8222 29.76ZM34.0844 37.64H37.6844V25.56H34.0844V24.2H39.2844V37.64H42.8844V39H34.0844V37.64ZM45.8266 37.64H49.4266V25.56H45.8266V24.2H51.0266V37.64H54.6266V39H45.8266V37.64ZM61.9688 39.24C61.2488 39.24 60.5954 39.1133 60.0088 38.86C59.4354 38.6067 58.9421 38.2467 58.5288 37.78C58.1288 37.3 57.8221 36.7333 57.6088 36.08C57.3954 35.4133 57.2887 34.6667 57.2887 33.84C57.2887 33.0267 57.3954 32.2867 57.6088 31.62C57.8221 30.9533 58.1288 30.3867 58.5288 29.92C58.9421 29.44 59.4354 29.0733 60.0088 28.82C60.5954 28.5667 61.2488 28.44 61.9688 28.44C62.6888 28.44 63.3354 28.5667 63.9088 28.82C64.4954 29.0733 64.9888 29.44 65.3888 29.92C65.8021 30.3867 66.1154 30.9533 66.3288 31.62C66.5421 32.2867 66.6488 33.0267 66.6488 33.84C66.6488 34.6667 66.5421 35.4133 66.3288 36.08C66.1154 36.7333 65.8021 37.3 65.3888 37.78C64.9888 38.2467 64.4954 38.6067 63.9088 38.86C63.3354 39.1133 62.6888 39.24 61.9688 39.24ZM61.9688 37.86C62.8621 37.86 63.5821 37.5933 64.1288 37.06C64.6754 36.5267 64.9488 35.7 64.9488 34.58V33.1C64.9488 31.98 64.6754 31.1533 64.1288 30.62C63.5821 30.0867 62.8621 29.82 61.9688 29.82C61.0754 29.82 60.3554 30.0867 59.8088 30.62C59.2621 31.1533 58.9888 31.98 58.9888 33.1V34.58C58.9888 35.7 59.2621 36.5267 59.8088 37.06C60.3554 37.5933 61.0754 37.86 61.9688 37.86ZM72.4909 34.7V31.56C73.6376 31.5067 74.5376 31.26 75.1909 30.82C75.8443 30.3667 76.1709 29.6867 76.1709 28.78V28.5C76.1709 27.7533 75.9443 27.1933 75.4909 26.82C75.0509 26.4467 74.4443 26.26 73.6709 26.26C72.8709 26.26 72.2309 26.48 71.7509 26.92C71.2709 27.36 70.9376 27.92 70.7509 28.6L69.2509 28.04C69.3843 27.6 69.5709 27.1867 69.8109 26.8C70.0509 26.4 70.3509 26.0533 70.7109 25.76C71.0843 25.4667 71.5176 25.2333 72.0109 25.06C72.5176 24.8867 73.0909 24.8 73.7309 24.8C74.3709 24.8 74.9443 24.8933 75.4509 25.08C75.9709 25.2533 76.4109 25.5067 76.7709 25.84C77.1309 26.16 77.4109 26.5533 77.6109 27.02C77.8109 27.4867 77.9109 28.0067 77.9109 28.58C77.9109 29.2067 77.7976 29.76 77.5709 30.24C77.3443 30.7067 77.0509 31.1067 76.6909 31.44C76.3309 31.7733 75.9176 32.0467 75.4509 32.26C74.9976 32.46 74.5376 32.6 74.0709 32.68V34.7H72.4909ZM73.3509 39.18C72.8043 39.18 72.4176 39.0667 72.1909 38.84C71.9776 38.6133 71.8709 38.3267 71.8709 37.98V37.62C71.8709 37.2733 71.9776 36.9867 72.1909 36.76C72.4176 36.5333 72.8043 36.42 73.3509 36.42C73.8976 36.42 74.2776 36.5333 74.4909 36.76C74.7176 36.9867 74.8309 37.2733 74.8309 37.62V37.98C74.8309 38.3267 74.7176 38.6133 74.4909 38.84C74.2776 39.0667 73.8976 39.18 73.3509 39.18ZM97.6553 39.24C95.9486 39.24 94.6753 38.62 93.8353 37.38C93.0086 36.14 92.5953 34.3533 92.5953 32.02C92.5953 29.6867 93.0086 27.9 93.8353 26.66C94.6753 25.42 95.9486 24.8 97.6553 24.8C98.2953 24.8 98.8486 24.8867 99.3153 25.06C99.782 25.2333 100.182 25.4667 100.515 25.76C100.849 26.0533 101.129 26.3867 101.355 26.76C101.582 27.12 101.782 27.4867 101.955 27.86L100.515 28.52C100.395 28.2133 100.255 27.9267 100.095 27.66C99.9353 27.38 99.742 27.14 99.5153 26.94C99.302 26.7267 99.042 26.56 98.7353 26.44C98.442 26.32 98.082 26.26 97.6553 26.26C96.5486 26.26 95.722 26.68 95.1753 27.52C94.642 28.36 94.3753 29.48 94.3753 30.88V33.16C94.3753 34.56 94.642 35.68 95.1753 36.52C95.722 37.36 96.5486 37.78 97.6553 37.78C98.082 37.78 98.442 37.72 98.7353 37.6C99.042 37.48 99.302 37.32 99.5153 37.12C99.742 36.9067 99.9353 36.6667 100.095 36.4C100.255 36.12 100.395 35.8267 100.515 35.52L101.955 36.18C101.782 36.5667 101.582 36.94 101.355 37.3C101.129 37.66 100.849 37.9867 100.515 38.28C100.182 38.5733 99.782 38.8067 99.3153 38.98C98.8486 39.1533 98.2953 39.24 97.6553 39.24ZM112.838 39C112.211 39 111.764 38.84 111.498 38.52C111.231 38.2 111.064 37.8 110.998 37.32H110.898C110.671 37.92 110.304 38.3933 109.798 38.74C109.304 39.0733 108.638 39.24 107.798 39.24C106.718 39.24 105.858 38.96 105.218 38.4C104.578 37.84 104.257 37.0733 104.257 36.1C104.257 35.14 104.604 34.4 105.298 33.88C106.004 33.36 107.138 33.1 108.698 33.1H110.898V32.08C110.898 31.32 110.684 30.7533 110.258 30.38C109.831 29.9933 109.224 29.8 108.438 29.8C107.744 29.8 107.178 29.94 106.738 30.22C106.298 30.4867 105.944 30.8533 105.678 31.32L104.598 30.52C104.731 30.2533 104.911 29.9933 105.138 29.74C105.364 29.4867 105.644 29.2667 105.978 29.08C106.311 28.88 106.691 28.7267 107.118 28.62C107.544 28.5 108.018 28.44 108.538 28.44C109.751 28.44 110.711 28.7467 111.418 29.36C112.138 29.9733 112.498 30.8267 112.498 31.92V37.6H113.938V39H112.838ZM108.077 37.9C108.491 37.9 108.864 37.8533 109.198 37.76C109.544 37.6533 109.844 37.52 110.098 37.36C110.351 37.1867 110.544 36.9867 110.678 36.76C110.824 36.52 110.898 36.2667 110.898 36V34.3H108.698C107.738 34.3 107.038 34.4333 106.598 34.7C106.158 34.9667 105.938 35.3533 105.938 35.86V36.28C105.938 36.8133 106.124 37.22 106.498 37.5C106.884 37.7667 107.411 37.9 108.077 37.9ZM116.64 39V28.68H118.24V30.36H118.32C118.426 30.1067 118.56 29.8667 118.72 29.64C118.88 29.4 119.073 29.1933 119.3 29.02C119.54 28.8467 119.82 28.7067 120.14 28.6C120.46 28.4933 120.833 28.44 121.26 28.44C122.34 28.44 123.206 28.7867 123.86 29.48C124.513 30.16 124.84 31.1267 124.84 32.38V39H123.24V32.66C123.24 31.7133 123.033 31.0133 122.62 30.56C122.206 30.0933 121.6 29.86 120.8 29.86C120.48 29.86 120.166 29.9 119.86 29.98C119.553 30.06 119.28 30.18 119.04 30.34C118.8 30.5 118.606 30.7067 118.46 30.96C118.313 31.2133 118.24 31.5067 118.24 31.84V39H116.64ZM147.504 28.68H149.104L143.984 41.26C143.864 41.5533 143.731 41.8067 143.584 42.02C143.437 42.2467 143.264 42.4267 143.064 42.56C142.864 42.7067 142.624 42.8133 142.344 42.88C142.064 42.96 141.731 43 141.344 43H139.824V41.64H142.224L143.384 38.8L139.224 28.68H140.864L142.604 33L144.144 36.92H144.224L145.764 33L147.504 28.68ZM155.906 39.24C155.186 39.24 154.533 39.1133 153.946 38.86C153.373 38.6067 152.88 38.2467 152.466 37.78C152.066 37.3 151.76 36.7333 151.546 36.08C151.333 35.4133 151.226 34.6667 151.226 33.84C151.226 33.0267 151.333 32.2867 151.546 31.62C151.76 30.9533 152.066 30.3867 152.466 29.92C152.88 29.44 153.373 29.0733 153.946 28.82C154.533 28.5667 155.186 28.44 155.906 28.44C156.626 28.44 157.273 28.5667 157.846 28.82C158.433 29.0733 158.926 29.44 159.326 29.92C159.74 30.3867 160.053 30.9533 160.266 31.62C160.48 32.2867 160.586 33.0267 160.586 33.84C160.586 34.6667 160.48 35.4133 160.266 36.08C160.053 36.7333 159.74 37.3 159.326 37.78C158.926 38.2467 158.433 38.6067 157.846 38.86C157.273 39.1133 156.626 39.24 155.906 39.24ZM155.906 37.86C156.8 37.86 157.52 37.5933 158.066 37.06C158.613 36.5267 158.886 35.7 158.886 34.58V33.1C158.886 31.98 158.613 31.1533 158.066 30.62C157.52 30.0867 156.8 29.82 155.906 29.82C155.013 29.82 154.293 30.0867 153.746 30.62C153.2 31.1533 152.926 31.98 152.926 33.1V34.58C152.926 35.7 153.2 36.5267 153.746 37.06C154.293 37.5933 155.013 37.86 155.906 37.86ZM170.088 37.32H170.008C169.902 37.5733 169.768 37.82 169.608 38.06C169.448 38.2867 169.248 38.4867 169.008 38.66C168.782 38.8333 168.508 38.9733 168.188 39.08C167.868 39.1867 167.495 39.24 167.068 39.24C165.988 39.24 165.122 38.9 164.468 38.22C163.815 37.5267 163.488 36.5533 163.488 35.3V28.68H165.088V35.02C165.088 35.9667 165.295 36.6733 165.708 37.14C166.122 37.5933 166.728 37.82 167.528 37.82C167.848 37.82 168.162 37.78 168.468 37.7C168.775 37.62 169.048 37.5 169.288 37.34C169.528 37.18 169.722 36.98 169.868 36.74C170.015 36.4867 170.088 36.1867 170.088 35.84V28.68H171.688V39H170.088V37.32ZM191.253 39.24C190.173 39.24 189.239 39.06 188.453 38.7C187.679 38.3267 187.019 37.8333 186.473 37.22L187.553 36.28C188.046 36.8 188.586 37.2 189.173 37.48C189.759 37.76 190.466 37.9 191.293 37.9C192.093 37.9 192.746 37.76 193.253 37.48C193.773 37.1867 194.033 36.7333 194.033 36.12C194.033 35.8533 193.979 35.6333 193.873 35.46C193.779 35.2733 193.646 35.1267 193.473 35.02C193.299 34.9133 193.106 34.8333 192.893 34.78C192.679 34.7133 192.453 34.66 192.213 34.62L190.593 34.38C190.233 34.3267 189.839 34.2533 189.413 34.16C188.999 34.0667 188.619 33.92 188.273 33.72C187.926 33.5067 187.633 33.2267 187.393 32.88C187.166 32.5333 187.053 32.08 187.053 31.52C187.053 31 187.153 30.5533 187.353 30.18C187.566 29.7933 187.859 29.4733 188.233 29.22C188.606 28.9533 189.046 28.76 189.553 28.64C190.059 28.5067 190.613 28.44 191.213 28.44C192.146 28.44 192.953 28.5867 193.633 28.88C194.326 29.1733 194.919 29.58 195.413 30.1L194.373 31.08C194.253 30.9333 194.099 30.7867 193.913 30.64C193.739 30.48 193.519 30.34 193.253 30.22C192.999 30.0867 192.699 29.98 192.353 29.9C192.006 29.82 191.606 29.78 191.153 29.78C190.339 29.78 189.713 29.92 189.273 30.2C188.846 30.48 188.633 30.8867 188.633 31.42C188.633 31.6867 188.679 31.9133 188.773 32.1C188.879 32.2733 189.019 32.4133 189.193 32.52C189.366 32.6267 189.559 32.7133 189.773 32.78C189.999 32.8333 190.226 32.88 190.453 32.92L192.073 33.16C192.446 33.2133 192.839 33.2867 193.253 33.38C193.666 33.4733 194.046 33.6267 194.393 33.84C194.739 34.04 195.026 34.3133 195.253 34.66C195.493 35.0067 195.613 35.46 195.613 36.02C195.613 37.0467 195.213 37.84 194.413 38.4C193.626 38.96 192.573 39.24 191.253 39.24ZM203.055 39.24C202.308 39.24 201.635 39.1133 201.035 38.86C200.448 38.6067 199.942 38.2467 199.515 37.78C199.102 37.3 198.782 36.7333 198.555 36.08C198.328 35.4133 198.215 34.6733 198.215 33.86C198.215 33.0333 198.328 32.2867 198.555 31.62C198.795 30.9533 199.122 30.3867 199.535 29.92C199.948 29.44 200.442 29.0733 201.015 28.82C201.602 28.5667 202.248 28.44 202.955 28.44C203.648 28.44 204.275 28.5667 204.835 28.82C205.408 29.0733 205.895 29.4267 206.295 29.88C206.695 30.32 207.002 30.8467 207.215 31.46C207.428 32.0733 207.535 32.7467 207.535 33.48V34.24H199.895V34.72C199.895 35.1733 199.968 35.5933 200.115 35.98C200.262 36.3667 200.468 36.7 200.735 36.98C201.015 37.26 201.348 37.48 201.735 37.64C202.135 37.7867 202.575 37.86 203.055 37.86C203.748 37.86 204.348 37.7 204.855 37.38C205.362 37.06 205.748 36.62 206.015 36.06L207.195 36.86C206.888 37.5533 206.375 38.1267 205.655 38.58C204.948 39.02 204.082 39.24 203.055 39.24ZM202.955 29.76C202.515 29.76 202.108 29.84 201.735 30C201.362 30.16 201.035 30.38 200.755 30.66C200.488 30.94 200.275 31.2733 200.115 31.66C199.968 32.0333 199.895 32.4467 199.895 32.9V33.04H205.815V32.82C205.815 32.3667 205.742 31.9533 205.595 31.58C205.462 31.2067 205.268 30.8867 205.015 30.62C204.775 30.34 204.475 30.1267 204.115 29.98C203.768 29.8333 203.382 29.76 202.955 29.76ZM214.797 39.24C214.051 39.24 213.377 39.1133 212.777 38.86C212.191 38.6067 211.684 38.2467 211.257 37.78C210.844 37.3 210.524 36.7333 210.297 36.08C210.071 35.4133 209.957 34.6733 209.957 33.86C209.957 33.0333 210.071 32.2867 210.297 31.62C210.537 30.9533 210.864 30.3867 211.277 29.92C211.691 29.44 212.184 29.0733 212.757 28.82C213.344 28.5667 213.991 28.44 214.697 28.44C215.391 28.44 216.017 28.5667 216.577 28.82C217.151 29.0733 217.637 29.4267 218.037 29.88C218.437 30.32 218.744 30.8467 218.957 31.46C219.171 32.0733 219.277 32.7467 219.277 33.48V34.24H211.637V34.72C211.637 35.1733 211.711 35.5933 211.857 35.98C212.004 36.3667 212.211 36.7 212.477 36.98C212.757 37.26 213.091 37.48 213.477 37.64C213.877 37.7867 214.317 37.86 214.797 37.86C215.491 37.86 216.091 37.7 216.597 37.38C217.104 37.06 217.491 36.62 217.757 36.06L218.937 36.86C218.631 37.5533 218.117 38.1267 217.397 38.58C216.691 39.02 215.824 39.24 214.797 39.24ZM214.697 29.76C214.257 29.76 213.851 29.84 213.477 30C213.104 30.16 212.777 30.38 212.497 30.66C212.231 30.94 212.017 31.2733 211.857 31.66C211.711 32.0333 211.637 32.4467 211.637 32.9V33.04H217.557V32.82C217.557 32.3667 217.484 31.9533 217.337 31.58C217.204 31.2067 217.011 30.8867 216.757 30.62C216.517 30.34 216.217 30.1267 215.857 29.98C215.511 29.8333 215.124 29.76 214.697 29.76ZM238.602 39C237.815 39 237.235 38.78 236.862 38.34C236.502 37.9 236.322 37.3333 236.322 36.64V30.04H232.882V28.68H235.442C235.788 28.68 236.028 28.6133 236.162 28.48C236.308 28.3333 236.382 28.0867 236.382 27.74V25.04H237.922V28.68H242.622V30.04H237.922V37.64H242.622V39H238.602ZM245.804 24.2H247.404V30.36H247.484C247.59 30.1067 247.724 29.8667 247.884 29.64C248.044 29.4 248.237 29.1933 248.464 29.02C248.704 28.8467 248.984 28.7067 249.304 28.6C249.624 28.4933 249.997 28.44 250.424 28.44C251.504 28.44 252.37 28.7867 253.024 29.48C253.677 30.16 254.004 31.1267 254.004 32.38V39H252.404V32.66C252.404 31.7133 252.197 31.0133 251.784 30.56C251.37 30.0933 250.764 29.86 249.964 29.86C249.644 29.86 249.33 29.9 249.024 29.98C248.717 30.06 248.444 30.18 248.204 30.34C247.964 30.5 247.77 30.7067 247.624 30.96C247.477 31.2133 247.404 31.5067 247.404 31.84V39H245.804V24.2ZM262.226 26.4C261.759 26.4 261.433 26.3067 261.246 26.12C261.059 25.92 260.966 25.6733 260.966 25.38V25.06C260.966 24.7667 261.059 24.5267 261.246 24.34C261.433 24.14 261.759 24.04 262.226 24.04C262.693 24.04 263.019 24.14 263.206 24.34C263.393 24.5267 263.486 24.7667 263.486 25.06V25.38C263.486 25.6733 263.393 25.92 263.206 26.12C263.019 26.3067 262.693 26.4 262.226 26.4ZM257.706 37.64H261.426V30.04H257.706V28.68H263.026V37.64H266.506V39H257.706V37.64ZM273.448 39.24C272.368 39.24 271.435 39.06 270.648 38.7C269.875 38.3267 269.215 37.8333 268.668 37.22L269.748 36.28C270.241 36.8 270.781 37.2 271.368 37.48C271.955 37.76 272.661 37.9 273.488 37.9C274.288 37.9 274.941 37.76 275.448 37.48C275.968 37.1867 276.228 36.7333 276.228 36.12C276.228 35.8533 276.175 35.6333 276.068 35.46C275.975 35.2733 275.841 35.1267 275.668 35.02C275.495 34.9133 275.301 34.8333 275.088 34.78C274.875 34.7133 274.648 34.66 274.408 34.62L272.788 34.38C272.428 34.3267 272.035 34.2533 271.608 34.16C271.195 34.0667 270.815 33.92 270.468 33.72C270.121 33.5067 269.828 33.2267 269.588 32.88C269.361 32.5333 269.248 32.08 269.248 31.52C269.248 31 269.348 30.5533 269.548 30.18C269.761 29.7933 270.055 29.4733 270.428 29.22C270.801 28.9533 271.241 28.76 271.748 28.64C272.255 28.5067 272.808 28.44 273.408 28.44C274.341 28.44 275.148 28.5867 275.828 28.88C276.521 29.1733 277.115 29.58 277.608 30.1L276.568 31.08C276.448 30.9333 276.295 30.7867 276.108 30.64C275.935 30.48 275.715 30.34 275.448 30.22C275.195 30.0867 274.895 29.98 274.548 29.9C274.201 29.82 273.801 29.78 273.348 29.78C272.535 29.78 271.908 29.92 271.468 30.2C271.041 30.48 270.828 30.8867 270.828 31.42C270.828 31.6867 270.875 31.9133 270.968 32.1C271.075 32.2733 271.215 32.4133 271.388 32.52C271.561 32.6267 271.755 32.7133 271.968 32.78C272.195 32.8333 272.421 32.88 272.648 32.92L274.268 33.16C274.641 33.2133 275.035 33.2867 275.448 33.38C275.861 33.4733 276.241 33.6267 276.588 33.84C276.935 34.04 277.221 34.3133 277.448 34.66C277.688 35.0067 277.808 35.46 277.808 36.02C277.808 37.0467 277.408 37.84 276.608 38.4C275.821 38.96 274.768 39.24 273.448 39.24ZM283.85 34.7V31.56C284.997 31.5067 285.897 31.26 286.55 30.82C287.204 30.3667 287.53 29.6867 287.53 28.78V28.5C287.53 27.7533 287.304 27.1933 286.85 26.82C286.41 26.4467 285.804 26.26 285.03 26.26C284.23 26.26 283.59 26.48 283.11 26.92C282.63 27.36 282.297 27.92 282.11 28.6L280.61 28.04C280.744 27.6 280.93 27.1867 281.17 26.8C281.41 26.4 281.71 26.0533 282.07 25.76C282.444 25.4667 282.877 25.2333 283.37 25.06C283.877 24.8867 284.45 24.8 285.09 24.8C285.73 24.8 286.304 24.8933 286.81 25.08C287.33 25.2533 287.77 25.5067 288.13 25.84C288.49 26.16 288.77 26.5533 288.97 27.02C289.17 27.4867 289.27 28.0067 289.27 28.58C289.27 29.2067 289.157 29.76 288.93 30.24C288.704 30.7067 288.41 31.1067 288.05 31.44C287.69 31.7733 287.277 32.0467 286.81 32.26C286.357 32.46 285.897 32.6 285.43 32.68V34.7H283.85ZM284.71 39.18C284.164 39.18 283.777 39.0667 283.55 38.84C283.337 38.6133 283.23 38.3267 283.23 37.98V37.62C283.23 37.2733 283.337 36.9867 283.55 36.76C283.777 36.5333 284.164 36.42 284.71 36.42C285.257 36.42 285.637 36.5333 285.85 36.76C286.077 36.9867 286.19 37.2733 286.19 37.62V37.98C286.19 38.3267 286.077 38.6133 285.85 38.84C285.637 39.0667 285.257 39.18 284.71 39.18ZM18.1 62V57.58H17.94L15 64.76L12.06 57.58H11.9V62V69H10.36V55.04H12.52L14.98 61.2H15.1L17.56 55.04H19.64V69H18.1V62ZM30.0822 58.68H31.6822L26.5622 71.26C26.4422 71.5533 26.3089 71.8067 26.1622 72.02C26.0155 72.2467 25.8422 72.4267 25.6422 72.56C25.4422 72.7067 25.2022 72.8133 24.9222 72.88C24.6422 72.96 24.3089 73 23.9222 73H22.4022V71.64H24.8022L25.9622 68.8L21.8022 58.68H23.4422L25.1822 63L26.7222 66.92H26.8022L28.3422 63L30.0822 58.68ZM46.1866 69V58.68H47.7866V60.36H47.8666C47.9732 60.1067 48.1066 59.8667 48.2666 59.64C48.4266 59.4 48.6199 59.1933 48.8466 59.02C49.0866 58.8467 49.3666 58.7067 49.6866 58.6C50.0066 58.4933 50.3799 58.44 50.8066 58.44C51.8866 58.44 52.7532 58.7867 53.4066 59.48C54.0599 60.16 54.3866 61.1267 54.3866 62.38V69H52.7866V62.66C52.7866 61.7133 52.5799 61.0133 52.1666 60.56C51.7532 60.0933 51.1466 59.86 50.3466 59.86C50.0266 59.86 49.7132 59.9 49.4066 59.98C49.0999 60.06 48.8266 60.18 48.5866 60.34C48.3466 60.5 48.1532 60.7067 48.0066 60.96C47.8599 61.2133 47.7866 61.5067 47.7866 61.84V69H46.1866ZM65.8688 69C65.2421 69 64.7954 68.84 64.5288 68.52C64.2621 68.2 64.0954 67.8 64.0288 67.32H63.9288C63.7021 67.92 63.3354 68.3933 62.8288 68.74C62.3354 69.0733 61.6688 69.24 60.8288 69.24C59.7488 69.24 58.8888 68.96 58.2488 68.4C57.6088 67.84 57.2887 67.0733 57.2887 66.1C57.2887 65.14 57.6354 64.4 58.3288 63.88C59.0354 63.36 60.1688 63.1 61.7288 63.1H63.9288V62.08C63.9288 61.32 63.7154 60.7533 63.2888 60.38C62.8621 59.9933 62.2554 59.8 61.4688 59.8C60.7754 59.8 60.2088 59.94 59.7688 60.22C59.3288 60.4867 58.9754 60.8533 58.7088 61.32L57.6288 60.52C57.7621 60.2533 57.9421 59.9933 58.1688 59.74C58.3954 59.4867 58.6754 59.2667 59.0088 59.08C59.3421 58.88 59.7221 58.7267 60.1488 58.62C60.5754 58.5 61.0488 58.44 61.5688 58.44C62.7821 58.44 63.7421 58.7467 64.4488 59.36C65.1688 59.9733 65.5288 60.8267 65.5288 61.92V67.6H66.9688V69H65.8688ZM61.1087 67.9C61.5221 67.9 61.8954 67.8533 62.2288 67.76C62.5754 67.6533 62.8754 67.52 63.1288 67.36C63.3821 67.1867 63.5754 66.9867 63.7088 66.76C63.8554 66.52 63.9288 66.2667 63.9288 66V64.3H61.7288C60.7688 64.3 60.0688 64.4333 59.6288 64.7C59.1888 64.9667 58.9688 65.3533 58.9688 65.86V66.28C58.9688 66.8133 59.1554 67.22 59.5288 67.5C59.9154 67.7667 60.4421 67.9 61.1087 67.9ZM68.7909 69V58.68H70.2709V59.88H70.3509C70.5109 59.48 70.7376 59.14 71.0309 58.86C71.3243 58.58 71.7576 58.44 72.3309 58.44C72.9309 58.44 73.3776 58.5933 73.6709 58.9C73.9643 59.1933 74.1443 59.58 74.2109 60.06H74.2709C74.4576 59.5933 74.7243 59.2067 75.0709 58.9C75.4176 58.5933 75.8976 58.44 76.5109 58.44C77.3509 58.44 77.9109 58.7333 78.1909 59.32C78.4843 59.9067 78.6309 60.7467 78.6309 61.84V69H77.1509V62.1C77.1509 61.22 77.0576 60.6133 76.8709 60.28C76.6976 59.9333 76.3709 59.76 75.8909 59.76C75.4643 59.76 75.1176 59.9 74.8509 60.18C74.5843 60.4467 74.4509 60.86 74.4509 61.42V69H72.9709V62.1C72.9709 61.22 72.8776 60.6133 72.6909 60.28C72.5176 59.9333 72.1976 59.76 71.7309 59.76C71.3043 59.76 70.9509 59.9 70.6709 60.18C70.4043 60.4467 70.2709 60.86 70.2709 61.42V69H68.7909ZM85.6331 69.24C84.8865 69.24 84.2131 69.1133 83.6131 68.86C83.0265 68.6067 82.5198 68.2467 82.0931 67.78C81.6798 67.3 81.3598 66.7333 81.1331 66.08C80.9065 65.4133 80.7931 64.6733 80.7931 63.86C80.7931 63.0333 80.9065 62.2867 81.1331 61.62C81.3731 60.9533 81.6998 60.3867 82.1131 59.92C82.5265 59.44 83.0198 59.0733 83.5931 58.82C84.1798 58.5667 84.8265 58.44 85.5331 58.44C86.2265 58.44 86.8531 58.5667 87.4131 58.82C87.9865 59.0733 88.4731 59.4267 88.8731 59.88C89.2731 60.32 89.5798 60.8467 89.7931 61.46C90.0065 62.0733 90.1131 62.7467 90.1131 63.48V64.24H82.4731V64.72C82.4731 65.1733 82.5465 65.5933 82.6931 65.98C82.8398 66.3667 83.0465 66.7 83.3131 66.98C83.5931 67.26 83.9265 67.48 84.3131 67.64C84.7131 67.7867 85.1531 67.86 85.6331 67.86C86.3265 67.86 86.9265 67.7 87.4331 67.38C87.9398 67.06 88.3265 66.62 88.5931 66.06L89.7731 66.86C89.4665 67.5533 88.9531 68.1267 88.2331 68.58C87.5265 69.02 86.6598 69.24 85.6331 69.24ZM85.5331 59.76C85.0931 59.76 84.6865 59.84 84.3131 60C83.9398 60.16 83.6131 60.38 83.3331 60.66C83.0665 60.94 82.8531 61.2733 82.6931 61.66C82.5465 62.0333 82.4731 62.4467 82.4731 62.9V63.04H88.3931V62.82C88.3931 62.3667 88.3198 61.9533 88.1731 61.58C88.0398 61.2067 87.8465 60.8867 87.5931 60.62C87.3531 60.34 87.0531 60.1267 86.6931 59.98C86.3465 59.8333 85.9598 59.76 85.5331 59.76ZM109.578 56.4C109.111 56.4 108.784 56.3067 108.598 56.12C108.411 55.92 108.318 55.6733 108.318 55.38V55.06C108.318 54.7667 108.411 54.5267 108.598 54.34C108.784 54.14 109.111 54.04 109.578 54.04C110.044 54.04 110.371 54.14 110.558 54.34C110.744 54.5267 110.838 54.7667 110.838 55.06V55.38C110.838 55.6733 110.744 55.92 110.558 56.12C110.371 56.3067 110.044 56.4 109.578 56.4ZM105.058 67.64H108.778V60.04H105.058V58.68H110.378V67.64H113.858V69H105.058V67.64ZM120.8 69.24C119.72 69.24 118.786 69.06 118 68.7C117.226 68.3267 116.566 67.8333 116.02 67.22L117.1 66.28C117.593 66.8 118.133 67.2 118.72 67.48C119.306 67.76 120.013 67.9 120.84 67.9C121.64 67.9 122.293 67.76 122.8 67.48C123.32 67.1867 123.58 66.7333 123.58 66.12C123.58 65.8533 123.526 65.6333 123.42 65.46C123.326 65.2733 123.193 65.1267 123.02 65.02C122.846 64.9133 122.653 64.8333 122.44 64.78C122.226 64.7133 122 64.66 121.76 64.62L120.14 64.38C119.78 64.3267 119.386 64.2533 118.96 64.16C118.546 64.0667 118.166 63.92 117.82 63.72C117.473 63.5067 117.18 63.2267 116.94 62.88C116.713 62.5333 116.6 62.08 116.6 61.52C116.6 61 116.7 60.5533 116.9 60.18C117.113 59.7933 117.406 59.4733 117.78 59.22C118.153 58.9533 118.593 58.76 119.1 58.64C119.606 58.5067 120.16 58.44 120.76 58.44C121.693 58.44 122.5 58.5867 123.18 58.88C123.873 59.1733 124.466 59.58 124.96 60.1L123.92 61.08C123.8 60.9333 123.646 60.7867 123.46 60.64C123.286 60.48 123.066 60.34 122.8 60.22C122.546 60.0867 122.246 59.98 121.9 59.9C121.553 59.82 121.153 59.78 120.7 59.78C119.886 59.78 119.26 59.92 118.82 60.2C118.393 60.48 118.18 60.8867 118.18 61.42C118.18 61.6867 118.226 61.9133 118.32 62.1C118.426 62.2733 118.566 62.4133 118.74 62.52C118.913 62.6267 119.106 62.7133 119.32 62.78C119.546 62.8333 119.773 62.88 120 62.92L121.62 63.16C121.993 63.2133 122.386 63.2867 122.8 63.38C123.213 63.4733 123.593 63.6267 123.94 63.84C124.286 64.04 124.573 64.3133 124.8 64.66C125.04 65.0067 125.16 65.46 125.16 66.02C125.16 67.0467 124.76 67.84 123.96 68.4C123.173 68.96 122.12 69.24 120.8 69.24ZM147.264 62V57.58H147.104L144.164 64.76L141.224 57.58H141.064V62V69H139.524V55.04H141.684L144.144 61.2H144.264L146.724 55.04H148.804V69H147.264V62ZM155.906 69.24C155.186 69.24 154.533 69.1133 153.946 68.86C153.373 68.6067 152.88 68.2467 152.466 67.78C152.066 67.3 151.76 66.7333 151.546 66.08C151.333 65.4133 151.226 64.6667 151.226 63.84C151.226 63.0267 151.333 62.2867 151.546 61.62C151.76 60.9533 152.066 60.3867 152.466 59.92C152.88 59.44 153.373 59.0733 153.946 58.82C154.533 58.5667 155.186 58.44 155.906 58.44C156.626 58.44 157.273 58.5667 157.846 58.82C158.433 59.0733 158.926 59.44 159.326 59.92C159.74 60.3867 160.053 60.9533 160.266 61.62C160.48 62.2867 160.586 63.0267 160.586 63.84C160.586 64.6667 160.48 65.4133 160.266 66.08C160.053 66.7333 159.74 67.3 159.326 67.78C158.926 68.2467 158.433 68.6067 157.846 68.86C157.273 69.1133 156.626 69.24 155.906 69.24ZM155.906 67.86C156.8 67.86 157.52 67.5933 158.066 67.06C158.613 66.5267 158.886 65.7 158.886 64.58V63.1C158.886 61.98 158.613 61.1533 158.066 60.62C157.52 60.0867 156.8 59.82 155.906 59.82C155.013 59.82 154.293 60.0867 153.746 60.62C153.2 61.1533 152.926 61.98 152.926 63.1V64.58C152.926 65.7 153.2 66.5267 153.746 67.06C154.293 67.5933 155.013 67.86 155.906 67.86ZM162.728 69V58.68H164.208V59.88H164.288C164.448 59.48 164.675 59.14 164.968 58.86C165.262 58.58 165.695 58.44 166.268 58.44C166.868 58.44 167.315 58.5933 167.608 58.9C167.902 59.1933 168.082 59.58 168.148 60.06H168.208C168.395 59.5933 168.662 59.2067 169.008 58.9C169.355 58.5933 169.835 58.44 170.448 58.44C171.288 58.44 171.848 58.7333 172.128 59.32C172.422 59.9067 172.568 60.7467 172.568 61.84V69H171.088V62.1C171.088 61.22 170.995 60.6133 170.808 60.28C170.635 59.9333 170.308 59.76 169.828 59.76C169.402 59.76 169.055 59.9 168.788 60.18C168.522 60.4467 168.388 60.86 168.388 61.42V69H166.908V62.1C166.908 61.22 166.815 60.6133 166.628 60.28C166.455 59.9333 166.135 59.76 165.668 59.76C165.242 59.76 164.888 59.9 164.608 60.18C164.342 60.4467 164.208 60.86 164.208 61.42V69H162.728ZM179.391 69.24C178.671 69.24 178.017 69.1133 177.431 68.86C176.857 68.6067 176.364 68.2467 175.951 67.78C175.551 67.3 175.244 66.7333 175.031 66.08C174.817 65.4133 174.711 64.6667 174.711 63.84C174.711 63.0267 174.817 62.2867 175.031 61.62C175.244 60.9533 175.551 60.3867 175.951 59.92C176.364 59.44 176.857 59.0733 177.431 58.82C178.017 58.5667 178.671 58.44 179.391 58.44C180.111 58.44 180.757 58.5667 181.331 58.82C181.917 59.0733 182.411 59.44 182.811 59.92C183.224 60.3867 183.537 60.9533 183.751 61.62C183.964 62.2867 184.071 63.0267 184.071 63.84C184.071 64.6667 183.964 65.4133 183.751 66.08C183.537 66.7333 183.224 67.3 182.811 67.78C182.411 68.2467 181.917 68.6067 181.331 68.86C180.757 69.1133 180.111 69.24 179.391 69.24ZM179.391 67.86C180.284 67.86 181.004 67.5933 181.551 67.06C182.097 66.5267 182.371 65.7 182.371 64.58V63.1C182.371 61.98 182.097 61.1533 181.551 60.62C181.004 60.0867 180.284 59.82 179.391 59.82C178.497 59.82 177.777 60.0867 177.231 60.62C176.684 61.1533 176.411 61.98 176.411 63.1V64.58C176.411 65.7 176.684 66.5267 177.231 67.06C177.777 67.5933 178.497 67.86 179.391 67.86ZM191.133 69.18C190.586 69.18 190.199 69.0667 189.973 68.84C189.759 68.6133 189.653 68.3267 189.653 67.98V67.62C189.653 67.2733 189.759 66.9867 189.973 66.76C190.199 66.5333 190.586 66.42 191.133 66.42C191.679 66.42 192.059 66.5333 192.273 66.76C192.499 66.9867 192.613 67.2733 192.613 67.62V67.98C192.613 68.3267 192.499 68.6133 192.273 68.84C192.059 69.0667 191.679 69.18 191.133 69.18ZM210.297 69V67.66H213.777V56.38H210.297V55.04H218.937V56.38H215.457V67.66H218.937V69H210.297ZM226.859 69C226.073 69 225.493 68.78 225.119 68.34C224.759 67.9 224.579 67.3333 224.579 66.64V60.04H221.139V58.68H223.699C224.046 58.68 224.286 58.6133 224.419 58.48C224.566 58.3333 224.639 58.0867 224.639 57.74V55.04H226.179V58.68H230.879V60.04H226.179V67.64H230.879V69H226.859ZM237.622 54.2H240.202L237.902 59.74H236.562L237.622 54.2ZM249.964 69.24C248.884 69.24 247.95 69.06 247.164 68.7C246.39 68.3267 245.73 67.8333 245.184 67.22L246.264 66.28C246.757 66.8 247.297 67.2 247.884 67.48C248.47 67.76 249.177 67.9 250.004 67.9C250.804 67.9 251.457 67.76 251.964 67.48C252.484 67.1867 252.744 66.7333 252.744 66.12C252.744 65.8533 252.69 65.6333 252.584 65.46C252.49 65.2733 252.357 65.1267 252.184 65.02C252.01 64.9133 251.817 64.8333 251.604 64.78C251.39 64.7133 251.164 64.66 250.924 64.62L249.304 64.38C248.944 64.3267 248.55 64.2533 248.124 64.16C247.71 64.0667 247.33 63.92 246.984 63.72C246.637 63.5067 246.344 63.2267 246.104 62.88C245.877 62.5333 245.764 62.08 245.764 61.52C245.764 61 245.864 60.5533 246.064 60.18C246.277 59.7933 246.57 59.4733 246.944 59.22C247.317 58.9533 247.757 58.76 248.264 58.64C248.77 58.5067 249.324 58.44 249.924 58.44C250.857 58.44 251.664 58.5867 252.344 58.88C253.037 59.1733 253.63 59.58 254.124 60.1L253.084 61.08C252.964 60.9333 252.81 60.7867 252.624 60.64C252.45 60.48 252.23 60.34 251.964 60.22C251.71 60.0867 251.41 59.98 251.064 59.9C250.717 59.82 250.317 59.78 249.864 59.78C249.05 59.78 248.424 59.92 247.984 60.2C247.557 60.48 247.344 60.8867 247.344 61.42C247.344 61.6867 247.39 61.9133 247.484 62.1C247.59 62.2733 247.73 62.4133 247.904 62.52C248.077 62.6267 248.27 62.7133 248.484 62.78C248.71 62.8333 248.937 62.88 249.164 62.92L250.784 63.16C251.157 63.2133 251.55 63.2867 251.964 63.38C252.377 63.4733 252.757 63.6267 253.104 63.84C253.45 64.04 253.737 64.3133 253.964 64.66C254.204 65.0067 254.324 65.46 254.324 66.02C254.324 67.0467 253.924 67.84 253.124 68.4C252.337 68.96 251.284 69.24 249.964 69.24ZM278.068 69H268.748V67.28L273.408 63.08C274.088 62.4667 274.648 61.84 275.088 61.2C275.528 60.5467 275.748 59.86 275.748 59.14V58.9C275.748 58.06 275.528 57.4133 275.088 56.96C274.648 56.4933 273.995 56.26 273.128 56.26C272.275 56.26 271.615 56.48 271.148 56.92C270.695 57.3467 270.355 57.92 270.128 58.64L268.628 58.08C268.761 57.6667 268.941 57.2667 269.168 56.88C269.408 56.48 269.708 56.1267 270.068 55.82C270.428 55.5133 270.861 55.2667 271.368 55.08C271.888 54.8933 272.488 54.8 273.168 54.8C273.861 54.8 274.475 54.9 275.008 55.1C275.555 55.3 276.008 55.58 276.368 55.94C276.741 56.3 277.021 56.7267 277.208 57.22C277.408 57.7133 277.508 58.2533 277.508 58.84C277.508 59.3733 277.428 59.8733 277.268 60.34C277.121 60.8067 276.908 61.2533 276.628 61.68C276.361 62.1067 276.035 62.5267 275.648 62.94C275.275 63.34 274.855 63.74 274.388 64.14L270.488 67.54H278.068V69ZM285.07 69.24C284.217 69.24 283.484 69.08 282.87 68.76C282.257 68.4267 281.75 67.9533 281.35 67.34C280.95 66.7267 280.657 65.9733 280.47 65.08C280.284 64.1867 280.19 63.1667 280.19 62.02C280.19 60.8867 280.284 59.8733 280.47 58.98C280.657 58.0733 280.95 57.3133 281.35 56.7C281.75 56.0867 282.257 55.62 282.87 55.3C283.484 54.9667 284.217 54.8 285.07 54.8C285.924 54.8 286.657 54.9667 287.27 55.3C287.884 55.62 288.39 56.0867 288.79 56.7C289.19 57.3133 289.484 58.0733 289.67 58.98C289.857 59.8733 289.95 60.8867 289.95 62.02C289.95 63.1667 289.857 64.1867 289.67 65.08C289.484 65.9733 289.19 66.7267 288.79 67.34C288.39 67.9533 287.884 68.4267 287.27 68.76C286.657 69.08 285.924 69.24 285.07 69.24ZM285.07 67.78C285.63 67.78 286.11 67.6733 286.51 67.46C286.91 67.2333 287.23 66.92 287.47 66.52C287.724 66.12 287.91 65.64 288.03 65.08C288.15 64.5067 288.21 63.8667 288.21 63.16V60.88C288.21 60.1867 288.15 59.5533 288.03 58.98C287.91 58.4067 287.724 57.92 287.47 57.52C287.23 57.12 286.91 56.8133 286.51 56.6C286.11 56.3733 285.63 56.26 285.07 56.26C284.51 56.26 284.03 56.3733 283.63 56.6C283.23 56.8133 282.904 57.12 282.65 57.52C282.41 57.92 282.23 58.4067 282.11 58.98C281.99 59.5533 281.93 60.1867 281.93 60.88V63.16C281.93 63.8667 281.99 64.5067 282.11 65.08C282.23 65.64 282.41 66.12 282.65 66.52C282.904 66.92 283.23 67.2333 283.63 67.46C284.03 67.6733 284.51 67.78 285.07 67.78ZM285.07 63.2C284.604 63.2 284.277 63.1067 284.09 62.92C283.917 62.7333 283.83 62.5067 283.83 62.24V61.8C283.83 61.5333 283.917 61.3067 284.09 61.12C284.277 60.9333 284.604 60.84 285.07 60.84C285.537 60.84 285.857 60.9333 286.03 61.12C286.217 61.3067 286.31 61.5333 286.31 61.8V62.24C286.31 62.5067 286.217 62.7333 286.03 62.92C285.857 63.1067 285.537 63.2 285.07 63.2ZM301.553 69H292.233V67.28L296.893 63.08C297.573 62.4667 298.133 61.84 298.573 61.2C299.013 60.5467 299.233 59.86 299.233 59.14V58.9C299.233 58.06 299.013 57.4133 298.573 56.96C298.133 56.4933 297.479 56.26 296.613 56.26C295.759 56.26 295.099 56.48 294.633 56.92C294.179 57.3467 293.839 57.92 293.613 58.64L292.113 58.08C292.246 57.6667 292.426 57.2667 292.653 56.88C292.893 56.48 293.193 56.1267 293.553 55.82C293.913 55.5133 294.346 55.2667 294.853 55.08C295.373 54.8933 295.973 54.8 296.653 54.8C297.346 54.8 297.959 54.9 298.493 55.1C299.039 55.3 299.493 55.58 299.853 55.94C300.226 56.3 300.506 56.7267 300.693 57.22C300.893 57.7133 300.993 58.2533 300.993 58.84C300.993 59.3733 300.913 59.8733 300.753 60.34C300.606 60.8067 300.393 61.2533 300.113 61.68C299.846 62.1067 299.519 62.5267 299.133 62.94C298.759 63.34 298.339 63.74 297.873 64.14L293.973 67.54H301.553V69ZM312.575 56.5H306.335L305.935 61.84H306.075C306.421 61.3733 306.808 61.0067 307.235 60.74C307.661 60.46 308.248 60.32 308.995 60.32C309.608 60.32 310.168 60.42 310.675 60.62C311.195 60.8067 311.641 61.0867 312.015 61.46C312.388 61.8333 312.681 62.2867 312.895 62.82C313.108 63.34 313.215 63.94 313.215 64.62C313.215 65.3 313.108 65.9267 312.895 66.5C312.681 67.06 312.368 67.5467 311.955 67.96C311.541 68.36 311.041 68.6733 310.455 68.9C309.868 69.1267 309.201 69.24 308.455 69.24C307.868 69.24 307.341 69.1733 306.875 69.04C306.421 68.9067 306.015 68.7267 305.655 68.5C305.308 68.2733 305.001 68.02 304.735 67.74C304.468 67.46 304.228 67.1667 304.015 66.86L305.275 65.9C305.461 66.18 305.648 66.4333 305.835 66.66C306.035 66.8867 306.261 67.0867 306.515 67.26C306.768 67.42 307.055 67.5467 307.375 67.64C307.695 67.7333 308.068 67.78 308.495 67.78C309.455 67.78 310.188 67.52 310.695 67C311.215 66.48 311.475 65.76 311.475 64.84V64.68C311.475 63.76 311.215 63.04 310.695 62.52C310.175 62 309.428 61.74 308.455 61.74C307.788 61.74 307.268 61.8533 306.895 62.08C306.535 62.3067 306.201 62.5867 305.895 62.92L304.475 62.72L304.975 55.04H312.575V56.5ZM327.999 54.2H329.599V60.36H329.679C329.786 60.1067 329.919 59.8667 330.079 59.64C330.239 59.4 330.432 59.1933 330.659 59.02C330.899 58.8467 331.179 58.7067 331.499 58.6C331.819 58.4933 332.192 58.44 332.619 58.44C333.699 58.44 334.566 58.7867 335.219 59.48C335.872 60.16 336.199 61.1267 336.199 62.38V69H334.599V62.66C334.599 61.7133 334.392 61.0133 333.979 60.56C333.566 60.0933 332.959 59.86 332.159 59.86C331.839 59.86 331.526 59.9 331.219 59.98C330.912 60.06 330.639 60.18 330.399 60.34C330.159 60.5 329.966 60.7067 329.819 60.96C329.672 61.2133 329.599 61.5067 329.599 61.84V69H327.999V54.2ZM343.961 69.24C343.215 69.24 342.541 69.1133 341.941 68.86C341.355 68.6067 340.848 68.2467 340.421 67.78C340.008 67.3 339.688 66.7333 339.461 66.08C339.235 65.4133 339.121 64.6733 339.121 63.86C339.121 63.0333 339.235 62.2867 339.461 61.62C339.701 60.9533 340.028 60.3867 340.441 59.92C340.855 59.44 341.348 59.0733 341.921 58.82C342.508 58.5667 343.155 58.44 343.861 58.44C344.555 58.44 345.181 58.5667 345.741 58.82C346.315 59.0733 346.801 59.4267 347.201 59.88C347.601 60.32 347.908 60.8467 348.121 61.46C348.335 62.0733 348.441 62.7467 348.441 63.48V64.24H340.801V64.72C340.801 65.1733 340.875 65.5933 341.021 65.98C341.168 66.3667 341.375 66.7 341.641 66.98C341.921 67.26 342.255 67.48 342.641 67.64C343.041 67.7867 343.481 67.86 343.961 67.86C344.655 67.86 345.255 67.7 345.761 67.38C346.268 67.06 346.655 66.62 346.921 66.06L348.101 66.86C347.795 67.5533 347.281 68.1267 346.561 68.58C345.855 69.02 344.988 69.24 343.961 69.24ZM343.861 59.76C343.421 59.76 343.015 59.84 342.641 60C342.268 60.16 341.941 60.38 341.661 60.66C341.395 60.94 341.181 61.2733 341.021 61.66C340.875 62.0333 340.801 62.4467 340.801 62.9V63.04H346.721V62.82C346.721 62.3667 346.648 61.9533 346.501 61.58C346.368 61.2067 346.175 60.8867 345.921 60.62C345.681 60.34 345.381 60.1267 345.021 59.98C344.675 59.8333 344.288 59.76 343.861 59.76ZM351.063 67.64H354.083V60.04H351.063V58.68H355.683V61.28H355.783C355.997 60.4667 356.397 59.8333 356.983 59.38C357.583 58.9133 358.343 58.68 359.263 58.68H360.703V60.28H358.763C357.843 60.28 357.097 60.5467 356.523 61.08C355.963 61.6133 355.683 62.3133 355.683 63.18V67.64H359.683V69H351.063V67.64ZM367.446 69.24C366.699 69.24 366.026 69.1133 365.426 68.86C364.839 68.6067 364.332 68.2467 363.906 67.78C363.492 67.3 363.172 66.7333 362.946 66.08C362.719 65.4133 362.606 64.6733 362.606 63.86C362.606 63.0333 362.719 62.2867 362.946 61.62C363.186 60.9533 363.512 60.3867 363.926 59.92C364.339 59.44 364.832 59.0733 365.406 58.82C365.992 58.5667 366.639 58.44 367.346 58.44C368.039 58.44 368.666 58.5667 369.226 58.82C369.799 59.0733 370.286 59.4267 370.686 59.88C371.086 60.32 371.392 60.8467 371.606 61.46C371.819 62.0733 371.926 62.7467 371.926 63.48V64.24H364.286V64.72C364.286 65.1733 364.359 65.5933 364.506 65.98C364.652 66.3667 364.859 66.7 365.126 66.98C365.406 67.26 365.739 67.48 366.126 67.64C366.526 67.7867 366.966 67.86 367.446 67.86C368.139 67.86 368.739 67.7 369.246 67.38C369.752 67.06 370.139 66.62 370.406 66.06L371.586 66.86C371.279 67.5533 370.766 68.1267 370.046 68.58C369.339 69.02 368.472 69.24 367.446 69.24ZM367.346 59.76C366.906 59.76 366.499 59.84 366.126 60C365.752 60.16 365.426 60.38 365.146 60.66C364.879 60.94 364.666 61.2733 364.506 61.66C364.359 62.0333 364.286 62.4467 364.286 62.9V63.04H370.206V62.82C370.206 62.3667 370.132 61.9533 369.986 61.58C369.852 61.2067 369.659 60.8867 369.406 60.62C369.166 60.34 368.866 60.1267 368.506 59.98C368.159 59.8333 367.772 59.76 367.346 59.76ZM379.008 69.18C378.461 69.18 378.074 69.0667 377.848 68.84C377.634 68.6133 377.528 68.3267 377.528 67.98V67.62C377.528 67.2733 377.634 66.9867 377.848 66.76C378.074 66.5333 378.461 66.42 379.008 66.42C379.554 66.42 379.934 66.5333 380.148 66.76C380.374 66.9867 380.488 67.2733 380.488 67.62V67.98C380.488 68.3267 380.374 68.6133 380.148 68.84C379.934 69.0667 379.554 69.18 379.008 69.18ZM10.68 99V97.66H14.16V86.38H10.68V85.04H19.32V86.38H15.84V97.66H19.32V99H10.68ZM22.4022 97.64H25.8822V90.04H22.2022V88.68H25.8822V86.56C25.8822 85.8667 26.0622 85.3 26.4222 84.86C26.7955 84.42 27.3755 84.2 28.1622 84.2H31.6222V85.56H27.4822V88.68H31.6222V90.04H27.4822V97.64H31.1622V99H22.4022V97.64ZM53.5666 88.68H55.1666L50.0466 101.26C49.9266 101.553 49.7932 101.807 49.6466 102.02C49.4999 102.247 49.3266 102.427 49.1266 102.56C48.9266 102.707 48.6866 102.813 48.4066 102.88C48.1266 102.96 47.7932 103 47.4066 103H45.8866V101.64H48.2866L49.4466 98.8L45.2866 88.68H46.9266L48.6666 93L50.2066 96.92H50.2866L51.8266 93L53.5666 88.68ZM61.9688 99.24C61.2488 99.24 60.5954 99.1133 60.0088 98.86C59.4354 98.6067 58.9421 98.2467 58.5288 97.78C58.1288 97.3 57.8221 96.7333 57.6088 96.08C57.3954 95.4133 57.2887 94.6667 57.2887 93.84C57.2887 93.0267 57.3954 92.2867 57.6088 91.62C57.8221 90.9533 58.1288 90.3867 58.5288 89.92C58.9421 89.44 59.4354 89.0733 60.0088 88.82C60.5954 88.5667 61.2488 88.44 61.9688 88.44C62.6888 88.44 63.3354 88.5667 63.9088 88.82C64.4954 89.0733 64.9888 89.44 65.3888 89.92C65.8021 90.3867 66.1154 90.9533 66.3288 91.62C66.5421 92.2867 66.6488 93.0267 66.6488 93.84C66.6488 94.6667 66.5421 95.4133 66.3288 96.08C66.1154 96.7333 65.8021 97.3 65.3888 97.78C64.9888 98.2467 64.4954 98.6067 63.9088 98.86C63.3354 99.1133 62.6888 99.24 61.9688 99.24ZM61.9688 97.86C62.8621 97.86 63.5821 97.5933 64.1288 97.06C64.6754 96.5267 64.9488 95.7 64.9488 94.58V93.1C64.9488 91.98 64.6754 91.1533 64.1288 90.62C63.5821 90.0867 62.8621 89.82 61.9688 89.82C61.0754 89.82 60.3554 90.0867 59.8088 90.62C59.2621 91.1533 58.9888 91.98 58.9888 93.1V94.58C58.9888 95.7 59.2621 96.5267 59.8088 97.06C60.3554 97.5933 61.0754 97.86 61.9688 97.86ZM76.1509 97.32H76.0709C75.9643 97.5733 75.8309 97.82 75.6709 98.06C75.5109 98.2867 75.3109 98.4867 75.0709 98.66C74.8443 98.8333 74.5709 98.9733 74.2509 99.08C73.9309 99.1867 73.5576 99.24 73.1309 99.24C72.0509 99.24 71.1843 98.9 70.5309 98.22C69.8776 97.5267 69.5509 96.5533 69.5509 95.3V88.68H71.1509V95.02C71.1509 95.9667 71.3576 96.6733 71.7709 97.14C72.1843 97.5933 72.7909 97.82 73.5909 97.82C73.9109 97.82 74.2243 97.78 74.5309 97.7C74.8376 97.62 75.1109 97.5 75.3509 97.34C75.5909 97.18 75.7843 96.98 75.9309 96.74C76.0776 96.4867 76.1509 96.1867 76.1509 95.84V88.68H77.7509V99H76.1509V97.32ZM84.9731 84.2H87.5531L85.2531 89.74H83.9131L84.9731 84.2ZM92.7353 97.64H95.7553V90.04H92.7353V88.68H97.3553V91.28H97.4553C97.6686 90.4667 98.0686 89.8333 98.6553 89.38C99.2553 88.9133 100.015 88.68 100.935 88.68H102.375V90.28H100.435C99.5153 90.28 98.7686 90.5467 98.1953 91.08C97.6353 91.6133 97.3553 92.3133 97.3553 93.18V97.64H101.355V99H92.7353V97.64ZM109.118 99.24C108.371 99.24 107.698 99.1133 107.098 98.86C106.511 98.6067 106.004 98.2467 105.577 97.78C105.164 97.3 104.844 96.7333 104.618 96.08C104.391 95.4133 104.278 94.6733 104.278 93.86C104.278 93.0333 104.391 92.2867 104.618 91.62C104.858 90.9533 105.184 90.3867 105.598 89.92C106.011 89.44 106.504 89.0733 107.078 88.82C107.664 88.5667 108.311 88.44 109.018 88.44C109.711 88.44 110.338 88.5667 110.898 88.82C111.471 89.0733 111.958 89.4267 112.358 89.88C112.758 90.32 113.064 90.8467 113.278 91.46C113.491 92.0733 113.598 92.7467 113.598 93.48V94.24H105.958V94.72C105.958 95.1733 106.031 95.5933 106.178 95.98C106.324 96.3667 106.531 96.7 106.798 96.98C107.078 97.26 107.411 97.48 107.798 97.64C108.198 97.7867 108.638 97.86 109.118 97.86C109.811 97.86 110.411 97.7 110.918 97.38C111.424 97.06 111.811 96.62 112.078 96.06L113.258 96.86C112.951 97.5533 112.438 98.1267 111.718 98.58C111.011 99.02 110.144 99.24 109.118 99.24ZM109.018 89.76C108.578 89.76 108.171 89.84 107.798 90C107.424 90.16 107.098 90.38 106.818 90.66C106.551 90.94 106.338 91.2733 106.178 91.66C106.031 92.0333 105.958 92.4467 105.958 92.9V93.04H111.878V92.82C111.878 92.3667 111.804 91.9533 111.658 91.58C111.524 91.2067 111.331 90.8867 111.078 90.62C110.838 90.34 110.538 90.1267 110.178 89.98C109.831 89.8333 109.444 89.76 109.018 89.76ZM127.962 97.64H130.982V90.04H127.962V88.68H132.582V91.28H132.682C132.895 90.4667 133.295 89.8333 133.882 89.38C134.482 88.9133 135.242 88.68 136.162 88.68H137.602V90.28H135.662C134.742 90.28 133.995 90.5467 133.422 91.08C132.862 91.6133 132.582 92.3133 132.582 93.18V97.64H136.582V99H127.962V97.64ZM144.344 99.24C143.597 99.24 142.924 99.1133 142.324 98.86C141.737 98.6067 141.231 98.2467 140.804 97.78C140.391 97.3 140.071 96.7333 139.844 96.08C139.617 95.4133 139.504 94.6733 139.504 93.86C139.504 93.0333 139.617 92.2867 139.844 91.62C140.084 90.9533 140.411 90.3867 140.824 89.92C141.237 89.44 141.731 89.0733 142.304 88.82C142.891 88.5667 143.537 88.44 144.244 88.44C144.937 88.44 145.564 88.5667 146.124 88.82C146.697 89.0733 147.184 89.4267 147.584 89.88C147.984 90.32 148.291 90.8467 148.504 91.46C148.717 92.0733 148.824 92.7467 148.824 93.48V94.24H141.184V94.72C141.184 95.1733 141.257 95.5933 141.404 95.98C141.551 96.3667 141.757 96.7 142.024 96.98C142.304 97.26 142.637 97.48 143.024 97.64C143.424 97.7867 143.864 97.86 144.344 97.86C145.037 97.86 145.637 97.7 146.144 97.38C146.651 97.06 147.037 96.62 147.304 96.06L148.484 96.86C148.177 97.5533 147.664 98.1267 146.944 98.58C146.237 99.02 145.371 99.24 144.344 99.24ZM144.244 89.76C143.804 89.76 143.397 89.84 143.024 90C142.651 90.16 142.324 90.38 142.044 90.66C141.777 90.94 141.564 91.2733 141.404 91.66C141.257 92.0333 141.184 92.4467 141.184 92.9V93.04H147.104V92.82C147.104 92.3667 147.031 91.9533 146.884 91.58C146.751 91.2067 146.557 90.8867 146.304 90.62C146.064 90.34 145.764 90.1267 145.404 89.98C145.057 89.8333 144.671 89.76 144.244 89.76ZM159.806 99C159.18 99 158.733 98.84 158.466 98.52C158.2 98.2 158.033 97.8 157.966 97.32H157.866C157.64 97.92 157.273 98.3933 156.766 98.74C156.273 99.0733 155.606 99.24 154.766 99.24C153.686 99.24 152.826 98.96 152.186 98.4C151.546 97.84 151.226 97.0733 151.226 96.1C151.226 95.14 151.573 94.4 152.266 93.88C152.973 93.36 154.106 93.1 155.666 93.1H157.866V92.08C157.866 91.32 157.653 90.7533 157.226 90.38C156.8 89.9933 156.193 89.8 155.406 89.8C154.713 89.8 154.146 89.94 153.706 90.22C153.266 90.4867 152.913 90.8533 152.646 91.32L151.566 90.52C151.7 90.2533 151.88 89.9933 152.106 89.74C152.333 89.4867 152.613 89.2667 152.946 89.08C153.28 88.88 153.66 88.7267 154.086 88.62C154.513 88.5 154.986 88.44 155.506 88.44C156.72 88.44 157.68 88.7467 158.386 89.36C159.106 89.9733 159.466 90.8267 159.466 91.92V97.6H160.906V99H159.806ZM155.046 97.9C155.46 97.9 155.833 97.8533 156.166 97.76C156.513 97.6533 156.813 97.52 157.066 97.36C157.32 97.1867 157.513 96.9867 157.646 96.76C157.793 96.52 157.866 96.2667 157.866 96V94.3H155.666C154.706 94.3 154.006 94.4333 153.566 94.7C153.126 94.9667 152.906 95.3533 152.906 95.86V96.28C152.906 96.8133 153.093 97.22 153.466 97.5C153.853 97.7667 154.38 97.9 155.046 97.9ZM170.148 97.32H170.068C169.402 98.6 168.342 99.24 166.888 99.24C165.622 99.24 164.628 98.7667 163.908 97.82C163.202 96.8733 162.848 95.5467 162.848 93.84C162.848 92.1333 163.202 90.8067 163.908 89.86C164.628 88.9133 165.622 88.44 166.888 88.44C168.342 88.44 169.402 89.08 170.068 90.36H170.148V84.2H171.748V99H170.148V97.32ZM167.508 97.82C167.868 97.82 168.208 97.7733 168.528 97.68C168.848 97.5867 169.128 97.4533 169.368 97.28C169.608 97.0933 169.795 96.8733 169.928 96.62C170.075 96.3533 170.148 96.0467 170.148 95.7V91.98C170.148 91.6333 170.075 91.3333 169.928 91.08C169.795 90.8133 169.608 90.5933 169.368 90.42C169.128 90.2333 168.848 90.0933 168.528 90C168.208 89.9067 167.868 89.86 167.508 89.86C166.575 89.86 165.848 90.1467 165.328 90.72C164.822 91.28 164.568 92.0267 164.568 92.96V94.72C164.568 95.6533 164.822 96.4067 165.328 96.98C165.848 97.54 166.575 97.82 167.508 97.82ZM180.031 86.4C179.564 86.4 179.237 86.3067 179.051 86.12C178.864 85.92 178.771 85.6733 178.771 85.38V85.06C178.771 84.7667 178.864 84.5267 179.051 84.34C179.237 84.14 179.564 84.04 180.031 84.04C180.497 84.04 180.824 84.14 181.011 84.34C181.197 84.5267 181.291 84.7667 181.291 85.06V85.38C181.291 85.6733 181.197 85.92 181.011 86.12C180.824 86.3067 180.497 86.4 180.031 86.4ZM175.511 97.64H179.231V90.04H175.511V88.68H180.831V97.64H184.311V99H175.511V97.64ZM187.093 99V88.68H188.693V90.36H188.773C188.879 90.1067 189.013 89.8667 189.173 89.64C189.333 89.4 189.526 89.1933 189.753 89.02C189.993 88.8467 190.273 88.7067 190.593 88.6C190.913 88.4933 191.286 88.44 191.713 88.44C192.793 88.44 193.659 88.7867 194.313 89.48C194.966 90.16 195.293 91.1267 195.293 92.38V99H193.693V92.66C193.693 91.7133 193.486 91.0133 193.073 90.56C192.659 90.0933 192.053 89.86 191.253 89.86C190.933 89.86 190.619 89.9 190.313 89.98C190.006 90.06 189.733 90.18 189.493 90.34C189.253 90.5 189.059 90.7067 188.913 90.96C188.766 91.2133 188.693 91.5067 188.693 91.84V99H187.093ZM208.095 100.18C208.095 101.22 207.662 101.987 206.795 102.48C205.928 102.987 204.628 103.24 202.895 103.24C201.228 103.24 200.028 103.02 199.295 102.58C198.575 102.14 198.215 101.507 198.215 100.68C198.215 100.12 198.362 99.6867 198.655 99.38C198.948 99.0733 199.362 98.8467 199.895 98.7V98.46C199.602 98.3133 199.375 98.1267 199.215 97.9C199.055 97.6733 198.975 97.3867 198.975 97.04C198.975 96.5067 199.148 96.1067 199.495 95.84C199.855 95.5733 200.302 95.3733 200.835 95.24V95.16C200.195 94.88 199.695 94.4667 199.335 93.92C198.988 93.3733 198.815 92.7333 198.815 92C198.815 91.48 198.908 91 199.095 90.56C199.282 90.12 199.548 89.7467 199.895 89.44C200.255 89.12 200.682 88.8733 201.175 88.7C201.668 88.5267 202.215 88.44 202.815 88.44C203.588 88.44 204.268 88.58 204.855 88.86V88.68C204.855 88.28 204.948 87.9467 205.135 87.68C205.322 87.4133 205.642 87.28 206.095 87.28H207.995V88.68H205.675V89.38C206.048 89.7 206.335 90.08 206.535 90.52C206.735 90.96 206.835 91.4533 206.835 92C206.835 92.52 206.735 93 206.535 93.44C206.348 93.88 206.082 94.26 205.735 94.58C205.388 94.8867 204.962 95.1267 204.455 95.3C203.962 95.4733 203.415 95.56 202.815 95.56C202.642 95.56 202.475 95.5533 202.315 95.54C202.155 95.5267 201.995 95.5067 201.835 95.48C201.675 95.5067 201.508 95.5533 201.335 95.62C201.162 95.6733 201.002 95.7533 200.855 95.86C200.708 95.9533 200.588 96.0667 200.495 96.2C200.402 96.3333 200.355 96.4867 200.355 96.66C200.355 96.9667 200.508 97.1733 200.815 97.28C201.122 97.3733 201.522 97.42 202.015 97.42H204.295C205.628 97.42 206.595 97.6733 207.195 98.18C207.795 98.6733 208.095 99.34 208.095 100.18ZM206.595 100.26C206.595 99.8467 206.428 99.5133 206.095 99.26C205.762 99.02 205.182 98.9 204.355 98.9H200.775C200.082 99.18 199.735 99.6467 199.735 100.3C199.735 100.753 199.915 101.14 200.275 101.46C200.635 101.793 201.235 101.96 202.075 101.96H203.635C204.568 101.96 205.295 101.813 205.815 101.52C206.335 101.24 206.595 100.82 206.595 100.26ZM202.815 94.32C203.615 94.32 204.202 94.1333 204.575 93.76C204.962 93.3867 205.155 92.8933 205.155 92.28V91.7C205.155 91.0867 204.962 90.6 204.575 90.24C204.202 89.8667 203.615 89.68 202.815 89.68C202.015 89.68 201.428 89.8667 201.055 90.24C200.682 90.6 200.495 91.0867 200.495 91.7V92.28C200.495 92.8933 200.682 93.3867 201.055 93.76C201.428 94.1333 202.015 94.32 202.815 94.32ZM226.859 99C226.073 99 225.493 98.78 225.119 98.34C224.759 97.9 224.579 97.3333 224.579 96.64V90.04H221.139V88.68H223.699C224.046 88.68 224.286 88.6133 224.419 88.48C224.566 88.3333 224.639 88.0867 224.639 87.74V85.04H226.179V88.68H230.879V90.04H226.179V97.64H230.879V99H226.859ZM234.062 84.2H235.662V90.36H235.742C235.848 90.1067 235.982 89.8667 236.142 89.64C236.302 89.4 236.495 89.1933 236.722 89.02C236.962 88.8467 237.242 88.7067 237.562 88.6C237.882 88.4933 238.255 88.44 238.682 88.44C239.762 88.44 240.628 88.7867 241.282 89.48C241.935 90.16 242.262 91.1267 242.262 92.38V99H240.662V92.66C240.662 91.7133 240.455 91.0133 240.042 90.56C239.628 90.0933 239.022 89.86 238.222 89.86C237.902 89.86 237.588 89.9 237.282 89.98C236.975 90.06 236.702 90.18 236.462 90.34C236.222 90.5 236.028 90.7067 235.882 90.96C235.735 91.2133 235.662 91.5067 235.662 91.84V99H234.062V84.2ZM250.484 86.4C250.017 86.4 249.69 86.3067 249.504 86.12C249.317 85.92 249.224 85.6733 249.224 85.38V85.06C249.224 84.7667 249.317 84.5267 249.504 84.34C249.69 84.14 250.017 84.04 250.484 84.04C250.95 84.04 251.277 84.14 251.464 84.34C251.65 84.5267 251.744 84.7667 251.744 85.06V85.38C251.744 85.6733 251.65 85.92 251.464 86.12C251.277 86.3067 250.95 86.4 250.484 86.4ZM245.964 97.64H249.684V90.04H245.964V88.68H251.284V97.64H254.764V99H245.964V97.64ZM261.706 99.24C260.626 99.24 259.693 99.06 258.906 98.7C258.133 98.3267 257.473 97.8333 256.926 97.22L258.006 96.28C258.499 96.8 259.039 97.2 259.626 97.48C260.213 97.76 260.919 97.9 261.746 97.9C262.546 97.9 263.199 97.76 263.706 97.48C264.226 97.1867 264.486 96.7333 264.486 96.12C264.486 95.8533 264.433 95.6333 264.326 95.46C264.233 95.2733 264.099 95.1267 263.926 95.02C263.753 94.9133 263.559 94.8333 263.346 94.78C263.133 94.7133 262.906 94.66 262.666 94.62L261.046 94.38C260.686 94.3267 260.293 94.2533 259.866 94.16C259.453 94.0667 259.073 93.92 258.726 93.72C258.379 93.5067 258.086 93.2267 257.846 92.88C257.619 92.5333 257.506 92.08 257.506 91.52C257.506 91 257.606 90.5533 257.806 90.18C258.019 89.7933 258.313 89.4733 258.686 89.22C259.059 88.9533 259.499 88.76 260.006 88.64C260.513 88.5067 261.066 88.44 261.666 88.44C262.599 88.44 263.406 88.5867 264.086 88.88C264.779 89.1733 265.373 89.58 265.866 90.1L264.826 91.08C264.706 90.9333 264.553 90.7867 264.366 90.64C264.193 90.48 263.973 90.34 263.706 90.22C263.453 90.0867 263.153 89.98 262.806 89.9C262.459 89.82 262.059 89.78 261.606 89.78C260.793 89.78 260.166 89.92 259.726 90.2C259.299 90.48 259.086 90.8867 259.086 91.42C259.086 91.6867 259.133 91.9133 259.226 92.1C259.333 92.2733 259.473 92.4133 259.646 92.52C259.819 92.6267 260.013 92.7133 260.226 92.78C260.453 92.8333 260.679 92.88 260.906 92.92L262.526 93.16C262.899 93.2133 263.293 93.2867 263.706 93.38C264.119 93.4733 264.499 93.6267 264.846 93.84C265.193 94.04 265.479 94.3133 265.706 94.66C265.946 95.0067 266.066 95.46 266.066 96.02C266.066 97.0467 265.666 97.84 264.866 98.4C264.079 98.96 263.026 99.24 261.706 99.24ZM285.71 86.4C285.244 86.4 284.917 86.3067 284.73 86.12C284.544 85.92 284.45 85.6733 284.45 85.38V85.06C284.45 84.7667 284.544 84.5267 284.73 84.34C284.917 84.14 285.244 84.04 285.71 84.04C286.177 84.04 286.504 84.14 286.69 84.34C286.877 84.5267 286.97 84.7667 286.97 85.06V85.38C286.97 85.6733 286.877 85.92 286.69 86.12C286.504 86.3067 286.177 86.4 285.71 86.4ZM281.19 97.64H284.91V90.04H281.19V88.68H286.51V97.64H289.99V99H281.19V97.64ZM292.773 99V88.68H294.373V90.36H294.453C294.559 90.1067 294.693 89.8667 294.853 89.64C295.013 89.4 295.206 89.1933 295.433 89.02C295.673 88.8467 295.953 88.7067 296.273 88.6C296.593 88.4933 296.966 88.44 297.393 88.44C298.473 88.44 299.339 88.7867 299.993 89.48C300.646 90.16 300.973 91.1267 300.973 92.38V99H299.373V92.66C299.373 91.7133 299.166 91.0133 298.753 90.56C298.339 90.0933 297.733 89.86 296.933 89.86C296.613 89.86 296.299 89.9 295.993 89.98C295.686 90.06 295.413 90.18 295.173 90.34C294.933 90.5 294.739 90.7067 294.593 90.96C294.446 91.2133 294.373 91.5067 294.373 91.84V99H292.773ZM320.797 99C320.01 99 319.43 98.78 319.057 98.34C318.697 97.9 318.517 97.3333 318.517 96.64V90.04H315.077V88.68H317.637C317.984 88.68 318.224 88.6133 318.357 88.48C318.504 88.3333 318.577 88.0867 318.577 87.74V85.04H320.117V88.68H324.817V90.04H320.117V97.64H324.817V99H320.797ZM327.999 84.2H329.599V90.36H329.679C329.786 90.1067 329.919 89.8667 330.079 89.64C330.239 89.4 330.432 89.1933 330.659 89.02C330.899 88.8467 331.179 88.7067 331.499 88.6C331.819 88.4933 332.192 88.44 332.619 88.44C333.699 88.44 334.566 88.7867 335.219 89.48C335.872 90.16 336.199 91.1267 336.199 92.38V99H334.599V92.66C334.599 91.7133 334.392 91.0133 333.979 90.56C333.566 90.0933 332.959 89.86 332.159 89.86C331.839 89.86 331.526 89.9 331.219 89.98C330.912 90.06 330.639 90.18 330.399 90.34C330.159 90.5 329.966 90.7067 329.819 90.96C329.672 91.2133 329.599 91.5067 329.599 91.84V99H327.999V84.2ZM343.961 99.24C343.215 99.24 342.541 99.1133 341.941 98.86C341.355 98.6067 340.848 98.2467 340.421 97.78C340.008 97.3 339.688 96.7333 339.461 96.08C339.235 95.4133 339.121 94.6733 339.121 93.86C339.121 93.0333 339.235 92.2867 339.461 91.62C339.701 90.9533 340.028 90.3867 340.441 89.92C340.855 89.44 341.348 89.0733 341.921 88.82C342.508 88.5667 343.155 88.44 343.861 88.44C344.555 88.44 345.181 88.5667 345.741 88.82C346.315 89.0733 346.801 89.4267 347.201 89.88C347.601 90.32 347.908 90.8467 348.121 91.46C348.335 92.0733 348.441 92.7467 348.441 93.48V94.24H340.801V94.72C340.801 95.1733 340.875 95.5933 341.021 95.98C341.168 96.3667 341.375 96.7 341.641 96.98C341.921 97.26 342.255 97.48 342.641 97.64C343.041 97.7867 343.481 97.86 343.961 97.86C344.655 97.86 345.255 97.7 345.761 97.38C346.268 97.06 346.655 96.62 346.921 96.06L348.101 96.86C347.795 97.5533 347.281 98.1267 346.561 98.58C345.855 99.02 344.988 99.24 343.961 99.24ZM343.861 89.76C343.421 89.76 343.015 89.84 342.641 90C342.268 90.16 341.941 90.38 341.661 90.66C341.395 90.94 341.181 91.2733 341.021 91.66C340.875 92.0333 340.801 92.4467 340.801 92.9V93.04H346.721V92.82C346.721 92.3667 346.648 91.9533 346.501 91.58C346.368 91.2067 346.175 90.8867 345.921 90.62C345.681 90.34 345.381 90.1267 345.021 89.98C344.675 89.8333 344.288 89.76 343.861 89.76ZM362.926 97.64H366.406V90.04H362.726V88.68H366.406V86.56C366.406 85.8667 366.586 85.3 366.946 84.86C367.319 84.42 367.899 84.2 368.686 84.2H372.146V85.56H368.006V88.68H372.146V90.04H368.006V97.64H371.686V99H362.926V97.64ZM381.448 97.32H381.368C381.261 97.5733 381.128 97.82 380.968 98.06C380.808 98.2867 380.608 98.4867 380.368 98.66C380.141 98.8333 379.868 98.9733 379.548 99.08C379.228 99.1867 378.854 99.24 378.428 99.24C377.348 99.24 376.481 98.9 375.828 98.22C375.174 97.5267 374.848 96.5533 374.848 95.3V88.68H376.448V95.02C376.448 95.9667 376.654 96.6733 377.068 97.14C377.481 97.5933 378.088 97.82 378.888 97.82C379.208 97.82 379.521 97.78 379.828 97.7C380.134 97.62 380.408 97.5 380.648 97.34C380.888 97.18 381.081 96.98 381.228 96.74C381.374 96.4867 381.448 96.1867 381.448 95.84V88.68H383.048V99H381.448V97.32ZM391.25 99C390.463 99 389.883 98.78 389.51 98.34C389.15 97.9 388.97 97.3333 388.97 96.64V90.04H385.53V88.68H388.09C388.437 88.68 388.677 88.6133 388.81 88.48C388.957 88.3333 389.03 88.0867 389.03 87.74V85.04H390.57V88.68H395.27V90.04H390.57V97.64H395.27V99H391.25ZM404.932 97.32H404.852C404.746 97.5733 404.612 97.82 404.452 98.06C404.292 98.2867 404.092 98.4867 403.852 98.66C403.626 98.8333 403.352 98.9733 403.032 99.08C402.712 99.1867 402.339 99.24 401.912 99.24C400.832 99.24 399.966 98.9 399.312 98.22C398.659 97.5267 398.332 96.5533 398.332 95.3V88.68H399.932V95.02C399.932 95.9667 400.139 96.6733 400.552 97.14C400.966 97.5933 401.572 97.82 402.372 97.82C402.692 97.82 403.006 97.78 403.312 97.7C403.619 97.62 403.892 97.5 404.132 97.34C404.372 97.18 404.566 96.98 404.712 96.74C404.859 96.4867 404.932 96.1867 404.932 95.84V88.68H406.532V99H404.932V97.32ZM409.774 97.64H412.794V90.04H409.774V88.68H414.394V91.28H414.494C414.708 90.4667 415.108 89.8333 415.694 89.38C416.294 88.9133 417.054 88.68 417.974 88.68H419.414V90.28H417.474C416.554 90.28 415.808 90.5467 415.234 91.08C414.674 91.6133 414.394 92.3133 414.394 93.18V97.64H418.394V99H409.774V97.64ZM426.157 99.24C425.41 99.24 424.737 99.1133 424.137 98.86C423.55 98.6067 423.043 98.2467 422.617 97.78C422.203 97.3 421.883 96.7333 421.657 96.08C421.43 95.4133 421.317 94.6733 421.317 93.86C421.317 93.0333 421.43 92.2867 421.657 91.62C421.897 90.9533 422.223 90.3867 422.637 89.92C423.05 89.44 423.543 89.0733 424.117 88.82C424.703 88.5667 425.35 88.44 426.057 88.44C426.75 88.44 427.377 88.5667 427.937 88.82C428.51 89.0733 428.997 89.4267 429.397 89.88C429.797 90.32 430.103 90.8467 430.317 91.46C430.53 92.0733 430.637 92.7467 430.637 93.48V94.24H422.997V94.72C422.997 95.1733 423.07 95.5933 423.217 95.98C423.363 96.3667 423.57 96.7 423.837 96.98C424.117 97.26 424.45 97.48 424.837 97.64C425.237 97.7867 425.677 97.86 426.157 97.86C426.85 97.86 427.45 97.7 427.957 97.38C428.463 97.06 428.85 96.62 429.117 96.06L430.297 96.86C429.99 97.5533 429.477 98.1267 428.757 98.58C428.05 99.02 427.183 99.24 426.157 99.24ZM426.057 89.76C425.617 89.76 425.21 89.84 424.837 90C424.463 90.16 424.137 90.38 423.857 90.66C423.59 90.94 423.377 91.2733 423.217 91.66C423.07 92.0333 422.997 92.4467 422.997 92.9V93.04H428.917V92.82C428.917 92.3667 428.843 91.9533 428.697 91.58C428.563 91.2067 428.37 90.8867 428.117 90.62C427.877 90.34 427.577 90.1267 427.217 89.98C426.87 89.8333 426.483 89.76 426.057 89.76ZM436.859 96.28H439.439L437.139 101.82H435.799L436.859 96.28ZM461.703 99C460.916 99 460.336 98.78 459.963 98.34C459.603 97.9 459.423 97.3333 459.423 96.64V90.04H455.983V88.68H458.543C458.89 88.68 459.13 88.6133 459.263 88.48C459.41 88.3333 459.483 88.0867 459.483 87.74V85.04H461.023V88.68H465.723V90.04H461.023V97.64H465.723V99H461.703ZM468.905 84.2H470.505V90.36H470.585C470.692 90.1067 470.825 89.8667 470.985 89.64C471.145 89.4 471.339 89.1933 471.565 89.02C471.805 88.8467 472.085 88.7067 472.405 88.6C472.725 88.4933 473.099 88.44 473.525 88.44C474.605 88.44 475.472 88.7867 476.125 89.48C476.779 90.16 477.105 91.1267 477.105 92.38V99H475.505V92.66C475.505 91.7133 475.299 91.0133 474.885 90.56C474.472 90.0933 473.865 89.86 473.065 89.86C472.745 89.86 472.432 89.9 472.125 89.98C471.819 90.06 471.545 90.18 471.305 90.34C471.065 90.5 470.872 90.7067 470.725 90.96C470.579 91.2133 470.505 91.5067 470.505 91.84V99H468.905V84.2ZM484.868 99.24C484.121 99.24 483.448 99.1133 482.848 98.86C482.261 98.6067 481.754 98.2467 481.327 97.78C480.914 97.3 480.594 96.7333 480.368 96.08C480.141 95.4133 480.028 94.6733 480.028 93.86C480.028 93.0333 480.141 92.2867 480.368 91.62C480.608 90.9533 480.934 90.3867 481.348 89.92C481.761 89.44 482.254 89.0733 482.828 88.82C483.414 88.5667 484.061 88.44 484.768 88.44C485.461 88.44 486.088 88.5667 486.648 88.82C487.221 89.0733 487.708 89.4267 488.108 89.88C488.508 90.32 488.814 90.8467 489.028 91.46C489.241 92.0733 489.348 92.7467 489.348 93.48V94.24H481.708V94.72C481.708 95.1733 481.781 95.5933 481.928 95.98C482.074 96.3667 482.281 96.7 482.548 96.98C482.828 97.26 483.161 97.48 483.548 97.64C483.948 97.7867 484.388 97.86 484.868 97.86C485.561 97.86 486.161 97.7 486.668 97.38C487.174 97.06 487.561 96.62 487.828 96.06L489.008 96.86C488.701 97.5533 488.188 98.1267 487.468 98.58C486.761 99.02 485.894 99.24 484.868 99.24ZM484.768 89.76C484.328 89.76 483.921 89.84 483.548 90C483.174 90.16 482.848 90.38 482.568 90.66C482.301 90.94 482.088 91.2733 481.928 91.66C481.781 92.0333 481.708 92.4467 481.708 92.9V93.04H487.628V92.82C487.628 92.3667 487.554 91.9533 487.408 91.58C487.274 91.2067 487.081 90.8867 486.828 90.62C486.588 90.34 486.288 90.1267 485.928 89.98C485.581 89.8333 485.194 89.76 484.768 89.76ZM492.39 99V88.68H493.99V90.36H494.07C494.176 90.1067 494.31 89.8667 494.47 89.64C494.63 89.4 494.823 89.1933 495.05 89.02C495.29 88.8467 495.57 88.7067 495.89 88.6C496.21 88.4933 496.583 88.44 497.01 88.44C498.09 88.44 498.956 88.7867 499.61 89.48C500.263 90.16 500.59 91.1267 500.59 92.38V99H498.99V92.66C498.99 91.7133 498.783 91.0133 498.37 90.56C497.956 90.0933 497.35 89.86 496.55 89.86C496.23 89.86 495.916 89.9 495.61 89.98C495.303 90.06 495.03 90.18 494.79 90.34C494.55 90.5 494.356 90.7067 494.21 90.96C494.063 91.2133 493.99 91.5067 493.99 91.84V99H492.39ZM520.414 99C519.627 99 519.047 98.78 518.674 98.34C518.314 97.9 518.134 97.3333 518.134 96.64V90.04H514.694V88.68H517.254C517.601 88.68 517.841 88.6133 517.974 88.48C518.121 88.3333 518.194 88.0867 518.194 87.74V85.04H519.734V88.68H524.434V90.04H519.734V97.64H524.434V99H520.414ZM527.616 84.2H529.216V90.36H529.296C529.403 90.1067 529.536 89.8667 529.696 89.64C529.856 89.4 530.05 89.1933 530.276 89.02C530.516 88.8467 530.796 88.7067 531.116 88.6C531.436 88.4933 531.81 88.44 532.236 88.44C533.316 88.44 534.183 88.7867 534.836 89.48C535.49 90.16 535.816 91.1267 535.816 92.38V99H534.216V92.66C534.216 91.7133 534.01 91.0133 533.596 90.56C533.183 90.0933 532.576 89.86 531.776 89.86C531.456 89.86 531.143 89.9 530.836 89.98C530.53 90.06 530.256 90.18 530.016 90.34C529.776 90.5 529.583 90.7067 529.436 90.96C529.29 91.2133 529.216 91.5067 529.216 91.84V99H527.616V84.2ZM543.578 99.24C542.832 99.24 542.158 99.1133 541.558 98.86C540.972 98.6067 540.465 98.2467 540.038 97.78C539.625 97.3 539.305 96.7333 539.078 96.08C538.852 95.4133 538.738 94.6733 538.738 93.86C538.738 93.0333 538.852 92.2867 539.078 91.62C539.318 90.9533 539.645 90.3867 540.058 89.92C540.472 89.44 540.965 89.0733 541.538 88.82C542.125 88.5667 542.772 88.44 543.478 88.44C544.172 88.44 544.798 88.5667 545.358 88.82C545.932 89.0733 546.418 89.4267 546.818 89.88C547.218 90.32 547.525 90.8467 547.738 91.46C547.952 92.0733 548.058 92.7467 548.058 93.48V94.24H540.418V94.72C540.418 95.1733 540.492 95.5933 540.638 95.98C540.785 96.3667 540.992 96.7 541.258 96.98C541.538 97.26 541.872 97.48 542.258 97.64C542.658 97.7867 543.098 97.86 543.578 97.86C544.272 97.86 544.872 97.7 545.378 97.38C545.885 97.06 546.272 96.62 546.538 96.06L547.718 96.86C547.412 97.5533 546.898 98.1267 546.178 98.58C545.472 99.02 544.605 99.24 543.578 99.24ZM543.478 89.76C543.038 89.76 542.632 89.84 542.258 90C541.885 90.16 541.558 90.38 541.278 90.66C541.012 90.94 540.798 91.2733 540.638 91.66C540.492 92.0333 540.418 92.4467 540.418 92.9V93.04H546.338V92.82C546.338 92.3667 546.265 91.9533 546.118 91.58C545.985 91.2067 545.792 90.8867 545.538 90.62C545.298 90.34 544.998 90.1267 544.638 89.98C544.292 89.8333 543.905 89.76 543.478 89.76ZM567.383 99C566.596 99 566.016 98.78 565.643 98.34C565.283 97.9 565.103 97.3333 565.103 96.64V90.04H561.663V88.68H564.223C564.569 88.68 564.809 88.6133 564.943 88.48C565.089 88.3333 565.163 88.0867 565.163 87.74V85.04H566.703V88.68H571.403V90.04H566.703V97.64H571.403V99H567.383ZM574.165 97.64H577.185V90.04H574.165V88.68H578.785V91.28H578.885C579.098 90.4667 579.498 89.8333 580.085 89.38C580.685 88.9133 581.445 88.68 582.365 88.68H583.805V90.28H581.865C580.945 90.28 580.198 90.5467 579.625 91.08C579.065 91.6133 578.785 92.3133 578.785 93.18V97.64H582.785V99H574.165V97.64ZM594.267 99C593.641 99 593.194 98.84 592.927 98.52C592.661 98.2 592.494 97.8 592.427 97.32H592.327C592.101 97.92 591.734 98.3933 591.227 98.74C590.734 99.0733 590.067 99.24 589.227 99.24C588.147 99.24 587.287 98.96 586.647 98.4C586.007 97.84 585.687 97.0733 585.687 96.1C585.687 95.14 586.034 94.4 586.727 93.88C587.434 93.36 588.567 93.1 590.127 93.1H592.327V92.08C592.327 91.32 592.114 90.7533 591.687 90.38C591.261 89.9933 590.654 89.8 589.867 89.8C589.174 89.8 588.607 89.94 588.167 90.22C587.727 90.4867 587.374 90.8533 587.107 91.32L586.027 90.52C586.161 90.2533 586.341 89.9933 586.567 89.74C586.794 89.4867 587.074 89.2667 587.407 89.08C587.741 88.88 588.121 88.7267 588.547 88.62C588.974 88.5 589.447 88.44 589.967 88.44C591.181 88.44 592.141 88.7467 592.847 89.36C593.567 89.9733 593.927 90.8267 593.927 91.92V97.6H595.367V99H594.267ZM589.507 97.9C589.921 97.9 590.294 97.8533 590.627 97.76C590.974 97.6533 591.274 97.52 591.527 97.36C591.781 97.1867 591.974 96.9867 592.107 96.76C592.254 96.52 592.327 96.2667 592.327 96V94.3H590.127C589.167 94.3 588.467 94.4333 588.027 94.7C587.587 94.9667 587.367 95.3533 587.367 95.86V96.28C587.367 96.8133 587.554 97.22 587.927 97.5C588.314 97.7667 588.841 97.9 589.507 97.9ZM598.069 99V88.68H599.669V90.36H599.749C599.856 90.1067 599.989 89.8667 600.149 89.64C600.309 89.4 600.503 89.1933 600.729 89.02C600.969 88.8467 601.249 88.7067 601.569 88.6C601.889 88.4933 602.263 88.44 602.689 88.44C603.769 88.44 604.636 88.7867 605.289 89.48C605.943 90.16 606.269 91.1267 606.269 92.38V99H604.669V92.66C604.669 91.7133 604.463 91.0133 604.049 90.56C603.636 90.0933 603.029 89.86 602.229 89.86C601.909 89.86 601.596 89.9 601.289 89.98C600.983 90.06 600.709 90.18 600.469 90.34C600.229 90.5 600.036 90.7067 599.889 90.96C599.743 91.2133 599.669 91.5067 599.669 91.84V99H598.069ZM613.972 99.24C612.892 99.24 611.958 99.06 611.172 98.7C610.398 98.3267 609.738 97.8333 609.192 97.22L610.272 96.28C610.765 96.8 611.305 97.2 611.892 97.48C612.478 97.76 613.185 97.9 614.012 97.9C614.812 97.9 615.465 97.76 615.972 97.48C616.492 97.1867 616.752 96.7333 616.752 96.12C616.752 95.8533 616.698 95.6333 616.592 95.46C616.498 95.2733 616.365 95.1267 616.192 95.02C616.018 94.9133 615.825 94.8333 615.612 94.78C615.398 94.7133 615.172 94.66 614.932 94.62L613.312 94.38C612.952 94.3267 612.558 94.2533 612.132 94.16C611.718 94.0667 611.338 93.92 610.992 93.72C610.645 93.5067 610.352 93.2267 610.112 92.88C609.885 92.5333 609.772 92.08 609.772 91.52C609.772 91 609.872 90.5533 610.072 90.18C610.285 89.7933 610.578 89.4733 610.952 89.22C611.325 88.9533 611.765 88.76 612.272 88.64C612.778 88.5067 613.332 88.44 613.932 88.44C614.865 88.44 615.672 88.5867 616.352 88.88C617.045 89.1733 617.638 89.58 618.132 90.1L617.092 91.08C616.972 90.9333 616.818 90.7867 616.632 90.64C616.458 90.48 616.238 90.34 615.972 90.22C615.718 90.0867 615.418 89.98 615.072 89.9C614.725 89.82 614.325 89.78 613.872 89.78C613.058 89.78 612.432 89.92 611.992 90.2C611.565 90.48 611.352 90.8867 611.352 91.42C611.352 91.6867 611.398 91.9133 611.492 92.1C611.598 92.2733 611.738 92.4133 611.912 92.52C612.085 92.6267 612.278 92.7133 612.492 92.78C612.718 92.8333 612.945 92.88 613.172 92.92L614.792 93.16C615.165 93.2133 615.558 93.2867 615.972 93.38C616.385 93.4733 616.765 93.6267 617.112 93.84C617.458 94.04 617.745 94.3133 617.972 94.66C618.212 95.0067 618.332 95.46 618.332 96.02C618.332 97.0467 617.932 97.84 617.132 98.4C616.345 98.96 615.292 99.24 613.972 99.24ZM620.674 99V88.68H622.154V89.88H622.234C622.394 89.48 622.62 89.14 622.914 88.86C623.207 88.58 623.64 88.44 624.214 88.44C624.814 88.44 625.26 88.5933 625.554 88.9C625.847 89.1933 626.027 89.58 626.094 90.06H626.154C626.34 89.5933 626.607 89.2067 626.954 88.9C627.3 88.5933 627.78 88.44 628.394 88.44C629.234 88.44 629.794 88.7333 630.074 89.32C630.367 89.9067 630.514 90.7467 630.514 91.84V99H629.034V92.1C629.034 91.22 628.94 90.6133 628.754 90.28C628.58 89.9333 628.254 89.76 627.774 89.76C627.347 89.76 627 89.9 626.734 90.18C626.467 90.4467 626.334 90.86 626.334 91.42V99H624.854V92.1C624.854 91.22 624.76 90.6133 624.574 90.28C624.4 89.9333 624.08 89.76 623.614 89.76C623.187 89.76 622.834 89.9 622.554 90.18C622.287 90.4467 622.154 90.86 622.154 91.42V99H620.674ZM637.976 86.4C637.509 86.4 637.183 86.3067 636.996 86.12C636.809 85.92 636.716 85.6733 636.716 85.38V85.06C636.716 84.7667 636.809 84.5267 636.996 84.34C637.183 84.14 637.509 84.04 637.976 84.04C638.443 84.04 638.769 84.14 638.956 84.34C639.143 84.5267 639.236 84.7667 639.236 85.06V85.38C639.236 85.6733 639.143 85.92 638.956 86.12C638.769 86.3067 638.443 86.4 637.976 86.4ZM633.456 97.64H637.176V90.04H633.456V88.68H638.776V97.64H642.256V99H633.456V97.64ZM649.198 99.24C648.118 99.24 647.185 99.06 646.398 98.7C645.625 98.3267 644.965 97.8333 644.418 97.22L645.498 96.28C645.991 96.8 646.531 97.2 647.118 97.48C647.705 97.76 648.411 97.9 649.238 97.9C650.038 97.9 650.691 97.76 651.198 97.48C651.718 97.1867 651.978 96.7333 651.978 96.12C651.978 95.8533 651.925 95.6333 651.818 95.46C651.725 95.2733 651.591 95.1267 651.418 95.02C651.245 94.9133 651.051 94.8333 650.838 94.78C650.625 94.7133 650.398 94.66 650.158 94.62L648.538 94.38C648.178 94.3267 647.785 94.2533 647.358 94.16C646.945 94.0667 646.565 93.92 646.218 93.72C645.871 93.5067 645.578 93.2267 645.338 92.88C645.111 92.5333 644.998 92.08 644.998 91.52C644.998 91 645.098 90.5533 645.298 90.18C645.511 89.7933 645.805 89.4733 646.178 89.22C646.551 88.9533 646.991 88.76 647.498 88.64C648.005 88.5067 648.558 88.44 649.158 88.44C650.091 88.44 650.898 88.5867 651.578 88.88C652.271 89.1733 652.865 89.58 653.358 90.1L652.318 91.08C652.198 90.9333 652.045 90.7867 651.858 90.64C651.685 90.48 651.465 90.34 651.198 90.22C650.945 90.0867 650.645 89.98 650.298 89.9C649.951 89.82 649.551 89.78 649.098 89.78C648.285 89.78 647.658 89.92 647.218 90.2C646.791 90.48 646.578 90.8867 646.578 91.42C646.578 91.6867 646.625 91.9133 646.718 92.1C646.825 92.2733 646.965 92.4133 647.138 92.52C647.311 92.6267 647.505 92.7133 647.718 92.78C647.945 92.8333 648.171 92.88 648.398 92.92L650.018 93.16C650.391 93.2133 650.785 93.2867 651.198 93.38C651.611 93.4733 651.991 93.6267 652.338 93.84C652.685 94.04 652.971 94.3133 653.198 94.66C653.438 95.0067 653.558 95.46 653.558 96.02C653.558 97.0467 653.158 97.84 652.358 98.4C651.571 98.96 650.518 99.24 649.198 99.24ZM660.94 99.24C659.86 99.24 658.927 99.06 658.14 98.7C657.367 98.3267 656.707 97.8333 656.16 97.22L657.24 96.28C657.734 96.8 658.274 97.2 658.86 97.48C659.447 97.76 660.154 97.9 660.98 97.9C661.78 97.9 662.434 97.76 662.94 97.48C663.46 97.1867 663.72 96.7333 663.72 96.12C663.72 95.8533 663.667 95.6333 663.56 95.46C663.467 95.2733 663.334 95.1267 663.16 95.02C662.987 94.9133 662.794 94.8333 662.58 94.78C662.367 94.7133 662.14 94.66 661.9 94.62L660.28 94.38C659.92 94.3267 659.527 94.2533 659.1 94.16C658.687 94.0667 658.307 93.92 657.96 93.72C657.614 93.5067 657.32 93.2267 657.08 92.88C656.854 92.5333 656.74 92.08 656.74 91.52C656.74 91 656.84 90.5533 657.04 90.18C657.254 89.7933 657.547 89.4733 657.92 89.22C658.294 88.9533 658.734 88.76 659.24 88.64C659.747 88.5067 660.3 88.44 660.9 88.44C661.834 88.44 662.64 88.5867 663.32 88.88C664.014 89.1733 664.607 89.58 665.1 90.1L664.06 91.08C663.94 90.9333 663.787 90.7867 663.6 90.64C663.427 90.48 663.207 90.34 662.94 90.22C662.687 90.0867 662.387 89.98 662.04 89.9C661.694 89.82 661.294 89.78 660.84 89.78C660.027 89.78 659.4 89.92 658.96 90.2C658.534 90.48 658.32 90.8867 658.32 91.42C658.32 91.6867 658.367 91.9133 658.46 92.1C658.567 92.2733 658.707 92.4133 658.88 92.52C659.054 92.6267 659.247 92.7133 659.46 92.78C659.687 92.8333 659.914 92.88 660.14 92.92L661.76 93.16C662.134 93.2133 662.527 93.2867 662.94 93.38C663.354 93.4733 663.734 93.6267 664.08 93.84C664.427 94.04 664.714 94.3133 664.94 94.66C665.18 95.0067 665.3 95.46 665.3 96.02C665.3 97.0467 664.9 97.84 664.1 98.4C663.314 98.96 662.26 99.24 660.94 99.24ZM673.203 86.4C672.736 86.4 672.409 86.3067 672.223 86.12C672.036 85.92 671.943 85.6733 671.943 85.38V85.06C671.943 84.7667 672.036 84.5267 672.223 84.34C672.409 84.14 672.736 84.04 673.203 84.04C673.669 84.04 673.996 84.14 674.183 84.34C674.369 84.5267 674.463 84.7667 674.463 85.06V85.38C674.463 85.6733 674.369 85.92 674.183 86.12C673.996 86.3067 673.669 86.4 673.203 86.4ZM668.683 97.64H672.403V90.04H668.683V88.68H674.003V97.64H677.483V99H668.683V97.64ZM684.305 99.24C683.585 99.24 682.931 99.1133 682.345 98.86C681.771 98.6067 681.278 98.2467 680.865 97.78C680.465 97.3 680.158 96.7333 679.945 96.08C679.731 95.4133 679.625 94.6667 679.625 93.84C679.625 93.0267 679.731 92.2867 679.945 91.62C680.158 90.9533 680.465 90.3867 680.865 89.92C681.278 89.44 681.771 89.0733 682.345 88.82C682.931 88.5667 683.585 88.44 684.305 88.44C685.025 88.44 685.671 88.5667 686.245 88.82C686.831 89.0733 687.325 89.44 687.725 89.92C688.138 90.3867 688.451 90.9533 688.665 91.62C688.878 92.2867 688.985 93.0267 688.985 93.84C688.985 94.6667 688.878 95.4133 688.665 96.08C688.451 96.7333 688.138 97.3 687.725 97.78C687.325 98.2467 686.831 98.6067 686.245 98.86C685.671 99.1133 685.025 99.24 684.305 99.24ZM684.305 97.86C685.198 97.86 685.918 97.5933 686.465 97.06C687.011 96.5267 687.285 95.7 687.285 94.58V93.1C687.285 91.98 687.011 91.1533 686.465 90.62C685.918 90.0867 685.198 89.82 684.305 89.82C683.411 89.82 682.691 90.0867 682.145 90.62C681.598 91.1533 681.325 91.98 681.325 93.1V94.58C681.325 95.7 681.598 96.5267 682.145 97.06C682.691 97.5933 683.411 97.86 684.305 97.86ZM692.007 99V88.68H693.607V90.36H693.687C693.794 90.1067 693.927 89.8667 694.087 89.64C694.247 89.4 694.44 89.1933 694.667 89.02C694.907 88.8467 695.187 88.7067 695.507 88.6C695.827 88.4933 696.2 88.44 696.627 88.44C697.707 88.44 698.574 88.7867 699.227 89.48C699.88 90.16 700.207 91.1267 700.207 92.38V99H698.607V92.66C698.607 91.7133 698.4 91.0133 697.987 90.56C697.574 90.0933 696.967 89.86 696.167 89.86C695.847 89.86 695.534 89.9 695.227 89.98C694.92 90.06 694.647 90.18 694.407 90.34C694.167 90.5 693.974 90.7067 693.827 90.96C693.68 91.2133 693.607 91.5067 693.607 91.84V99H692.007ZM714.131 88.68H715.551L716.731 97.6H716.911L718.671 88.68H720.431L722.191 97.6H722.371L723.551 88.68H724.931L723.351 99H721.271L719.631 90.36H719.471L717.791 99H715.711L714.131 88.68ZM731.273 99.24C730.553 99.24 729.9 99.1133 729.313 98.86C728.74 98.6067 728.247 98.2467 727.833 97.78C727.433 97.3 727.127 96.7333 726.913 96.08C726.7 95.4133 726.593 94.6667 726.593 93.84C726.593 93.0267 726.7 92.2867 726.913 91.62C727.127 90.9533 727.433 90.3867 727.833 89.92C728.247 89.44 728.74 89.0733 729.313 88.82C729.9 88.5667 730.553 88.44 731.273 88.44C731.993 88.44 732.64 88.5667 733.213 88.82C733.8 89.0733 734.293 89.44 734.693 89.92C735.107 90.3867 735.42 90.9533 735.633 91.62C735.847 92.2867 735.953 93.0267 735.953 93.84C735.953 94.6667 735.847 95.4133 735.633 96.08C735.42 96.7333 735.107 97.3 734.693 97.78C734.293 98.2467 733.8 98.6067 733.213 98.86C732.64 99.1133 731.993 99.24 731.273 99.24ZM731.273 97.86C732.167 97.86 732.887 97.5933 733.433 97.06C733.98 96.5267 734.253 95.7 734.253 94.58V93.1C734.253 91.98 733.98 91.1533 733.433 90.62C732.887 90.0867 732.167 89.82 731.273 89.82C730.38 89.82 729.66 90.0867 729.113 90.62C728.567 91.1533 728.293 91.98 728.293 93.1V94.58C728.293 95.7 728.567 96.5267 729.113 97.06C729.66 97.5933 730.38 97.86 731.273 97.86ZM738.556 97.64H741.576V90.04H738.556V88.68H743.176V91.28H743.276C743.489 90.4667 743.889 89.8333 744.476 89.38C745.076 88.9133 745.836 88.68 746.756 88.68H748.196V90.28H746.256C745.336 90.28 744.589 90.5467 744.016 91.08C743.456 91.6133 743.176 92.3133 743.176 93.18V97.64H747.176V99H738.556V97.64ZM750.858 84.2H752.458V93.54H752.538L754.338 91.84L757.778 88.68H759.738L755.458 92.72L760.238 99H758.258L754.238 93.64L752.458 95.26V99H750.858V84.2ZM766.68 99.24C765.933 99.24 765.26 99.1133 764.66 98.86C764.073 98.6067 763.567 98.2467 763.14 97.78C762.727 97.3 762.407 96.7333 762.18 96.08C761.953 95.4133 761.84 94.6733 761.84 93.86C761.84 93.0333 761.953 92.2867 762.18 91.62C762.42 90.9533 762.747 90.3867 763.16 89.92C763.573 89.44 764.067 89.0733 764.64 88.82C765.227 88.5667 765.873 88.44 766.58 88.44C767.273 88.44 767.9 88.5667 768.46 88.82C769.033 89.0733 769.52 89.4267 769.92 89.88C770.32 90.32 770.627 90.8467 770.84 91.46C771.053 92.0733 771.16 92.7467 771.16 93.48V94.24H763.52V94.72C763.52 95.1733 763.593 95.5933 763.74 95.98C763.887 96.3667 764.093 96.7 764.36 96.98C764.64 97.26 764.973 97.48 765.36 97.64C765.76 97.7867 766.2 97.86 766.68 97.86C767.373 97.86 767.973 97.7 768.48 97.38C768.987 97.06 769.373 96.62 769.64 96.06L770.82 96.86C770.513 97.5533 770 98.1267 769.28 98.58C768.573 99.02 767.707 99.24 766.68 99.24ZM766.58 89.76C766.14 89.76 765.733 89.84 765.36 90C764.987 90.16 764.66 90.38 764.38 90.66C764.113 90.94 763.9 91.2733 763.74 91.66C763.593 92.0333 763.52 92.4467 763.52 92.9V93.04H769.44V92.82C769.44 92.3667 769.367 91.9533 769.22 91.58C769.087 91.2067 768.893 90.8867 768.64 90.62C768.4 90.34 768.1 90.1267 767.74 89.98C767.393 89.8333 767.007 89.76 766.58 89.76ZM780.742 97.32H780.662C779.996 98.6 778.936 99.24 777.482 99.24C776.216 99.24 775.222 98.7667 774.502 97.82C773.796 96.8733 773.442 95.5467 773.442 93.84C773.442 92.1333 773.796 90.8067 774.502 89.86C775.222 88.9133 776.216 88.44 777.482 88.44C778.936 88.44 779.996 89.08 780.662 90.36H780.742V84.2H782.342V99H780.742V97.32ZM778.102 97.82C778.462 97.82 778.802 97.7733 779.122 97.68C779.442 97.5867 779.722 97.4533 779.962 97.28C780.202 97.0933 780.389 96.8733 780.522 96.62C780.669 96.3533 780.742 96.0467 780.742 95.7V91.98C780.742 91.6333 780.669 91.3333 780.522 91.08C780.389 90.8133 780.202 90.5933 779.962 90.42C779.722 90.2333 779.442 90.0933 779.122 90C778.802 89.9067 778.462 89.86 778.102 89.86C777.169 89.86 776.442 90.1467 775.922 90.72C775.416 91.28 775.162 92.0267 775.162 92.96V94.72C775.162 95.6533 775.416 96.4067 775.922 96.98C776.442 97.54 777.169 97.82 778.102 97.82ZM789.984 99.18C789.438 99.18 789.051 99.0667 788.824 98.84C788.611 98.6133 788.504 98.3267 788.504 97.98V97.62C788.504 97.2733 788.611 96.9867 788.824 96.76C789.051 96.5333 789.438 96.42 789.984 96.42C790.531 96.42 790.911 96.5333 791.124 96.76C791.351 96.9867 791.464 97.2733 791.464 97.62V97.98C791.464 98.3267 791.351 98.6133 791.124 98.84C790.911 99.0667 790.531 99.18 789.984 99.18Z" fill="#A3FFF6"/>
</svg>
