<svg width="959" height="441" viewBox="0 0 959 441" fill="none" xmlns="http://www.w3.org/2000/svg">
<rect width="959" height="441" rx="10" fill="url(#paint0_radial_347_206)"/>
<rect x="0.5" y="0.5" width="958" height="440" rx="9.5" stroke="#FCFFBA" stroke-opacity="0.44"/>
<path d="M376 92V90.66H379.48V79.38H376V78.04H384.64V79.38H381.16V90.66H384.64V92H376ZM388.023 92V81.68H389.623V83.36H389.703C389.809 83.1067 389.943 82.8667 390.103 82.64C390.263 82.4 390.456 82.1933 390.683 82.02C390.923 81.8467 391.203 81.7067 391.523 81.6C391.843 81.4933 392.216 81.44 392.643 81.44C393.723 81.44 394.589 81.7867 395.243 82.48C395.896 83.16 396.223 84.1267 396.223 85.38V92H394.623V85.66C394.623 84.7133 394.416 84.0133 394.003 83.56C393.589 83.0933 392.983 82.86 392.183 82.86C391.863 82.86 391.549 82.9 391.243 82.98C390.936 83.06 390.663 83.18 390.423 83.34C390.183 83.5 389.989 83.7067 389.843 83.96C389.696 84.2133 389.623 84.5067 389.623 84.84V92H388.023ZM404.165 92.24C403.418 92.24 402.751 92.1133 402.165 91.86C401.591 91.5933 401.105 91.2267 400.705 90.76C400.305 90.2933 399.998 89.7267 399.785 89.06C399.585 88.3933 399.485 87.6533 399.485 86.84C399.485 86.0267 399.591 85.2867 399.805 84.62C400.018 83.9533 400.325 83.3867 400.725 82.92C401.125 82.44 401.611 82.0733 402.185 81.82C402.758 81.5667 403.411 81.44 404.145 81.44C405.145 81.44 405.958 81.66 406.585 82.1C407.211 82.54 407.671 83.1133 407.965 83.82L406.685 84.5C406.498 83.9667 406.185 83.5533 405.745 83.26C405.318 82.9667 404.785 82.82 404.145 82.82C403.678 82.82 403.258 82.9 402.885 83.06C402.525 83.2067 402.218 83.42 401.965 83.7C401.711 83.98 401.518 84.3133 401.385 84.7C401.265 85.0867 401.205 85.5067 401.205 85.96V87.72C401.205 88.1733 401.265 88.5933 401.385 88.98C401.518 89.3667 401.711 89.7 401.965 89.98C402.218 90.26 402.531 90.48 402.905 90.64C403.278 90.7867 403.705 90.86 404.185 90.86C404.878 90.86 405.451 90.7 405.905 90.38C406.358 90.06 406.718 89.62 406.985 89.06L408.125 89.84C407.818 90.5333 407.338 91.1067 406.685 91.56C406.045 92.0133 405.205 92.24 404.165 92.24ZM415.547 92.24C414.827 92.24 414.174 92.1133 413.587 91.86C413.014 91.6067 412.52 91.2467 412.107 90.78C411.707 90.3 411.4 89.7333 411.187 89.08C410.974 88.4133 410.867 87.6667 410.867 86.84C410.867 86.0267 410.974 85.2867 411.187 84.62C411.4 83.9533 411.707 83.3867 412.107 82.92C412.52 82.44 413.014 82.0733 413.587 81.82C414.174 81.5667 414.827 81.44 415.547 81.44C416.267 81.44 416.914 81.5667 417.487 81.82C418.074 82.0733 418.567 82.44 418.967 82.92C419.38 83.3867 419.694 83.9533 419.907 84.62C420.12 85.2867 420.227 86.0267 420.227 86.84C420.227 87.6667 420.12 88.4133 419.907 89.08C419.694 89.7333 419.38 90.3 418.967 90.78C418.567 91.2467 418.074 91.6067 417.487 91.86C416.914 92.1133 416.267 92.24 415.547 92.24ZM415.547 90.86C416.44 90.86 417.16 90.5933 417.707 90.06C418.254 89.5267 418.527 88.7 418.527 87.58V86.1C418.527 84.98 418.254 84.1533 417.707 83.62C417.16 83.0867 416.44 82.82 415.547 82.82C414.654 82.82 413.934 83.0867 413.387 83.62C412.84 84.1533 412.567 84.98 412.567 86.1V87.58C412.567 88.7 412.84 89.5267 413.387 90.06C413.934 90.5933 414.654 90.86 415.547 90.86ZM422.369 92V81.68H423.849V82.88H423.929C424.089 82.48 424.316 82.14 424.609 81.86C424.902 81.58 425.336 81.44 425.909 81.44C426.509 81.44 426.956 81.5933 427.249 81.9C427.542 82.1933 427.722 82.58 427.789 83.06H427.849C428.036 82.5933 428.302 82.2067 428.649 81.9C428.996 81.5933 429.476 81.44 430.089 81.44C430.929 81.44 431.489 81.7333 431.769 82.32C432.062 82.9067 432.209 83.7467 432.209 84.84V92H430.729V85.1C430.729 84.22 430.636 83.6133 430.449 83.28C430.276 82.9333 429.949 82.76 429.469 82.76C429.042 82.76 428.696 82.9 428.429 83.18C428.162 83.4467 428.029 83.86 428.029 84.42V92H426.549V85.1C426.549 84.22 426.456 83.6133 426.269 83.28C426.096 82.9333 425.776 82.76 425.309 82.76C424.882 82.76 424.529 82.9 424.249 83.18C423.982 83.4467 423.849 83.86 423.849 84.42V92H422.369ZM439.671 79.4C439.205 79.4 438.878 79.3067 438.691 79.12C438.505 78.92 438.411 78.6733 438.411 78.38V78.06C438.411 77.7667 438.505 77.5267 438.691 77.34C438.878 77.14 439.205 77.04 439.671 77.04C440.138 77.04 440.465 77.14 440.651 77.34C440.838 77.5267 440.931 77.7667 440.931 78.06V78.38C440.931 78.6733 440.838 78.92 440.651 79.12C440.465 79.3067 440.138 79.4 439.671 79.4ZM435.151 90.64H438.871V83.04H435.151V81.68H440.471V90.64H443.951V92H435.151V90.64ZM446.733 92V81.68H448.333V83.36H448.413C448.52 83.1067 448.653 82.8667 448.813 82.64C448.973 82.4 449.167 82.1933 449.393 82.02C449.633 81.8467 449.913 81.7067 450.233 81.6C450.553 81.4933 450.927 81.44 451.353 81.44C452.433 81.44 453.3 81.7867 453.953 82.48C454.607 83.16 454.933 84.1267 454.933 85.38V92H453.333V85.66C453.333 84.7133 453.127 84.0133 452.713 83.56C452.3 83.0933 451.693 82.86 450.893 82.86C450.573 82.86 450.26 82.9 449.953 82.98C449.647 83.06 449.373 83.18 449.133 83.34C448.893 83.5 448.7 83.7067 448.553 83.96C448.407 84.2133 448.333 84.5067 448.333 84.84V92H446.733ZM467.736 93.18C467.736 94.22 467.302 94.9867 466.436 95.48C465.569 95.9867 464.269 96.24 462.536 96.24C460.869 96.24 459.669 96.02 458.936 95.58C458.216 95.14 457.856 94.5067 457.856 93.68C457.856 93.12 458.002 92.6867 458.296 92.38C458.589 92.0733 459.002 91.8467 459.536 91.7V91.46C459.242 91.3133 459.016 91.1267 458.856 90.9C458.696 90.6733 458.616 90.3867 458.616 90.04C458.616 89.5067 458.789 89.1067 459.136 88.84C459.496 88.5733 459.942 88.3733 460.476 88.24V88.16C459.836 87.88 459.336 87.4667 458.976 86.92C458.629 86.3733 458.456 85.7333 458.456 85C458.456 84.48 458.549 84 458.736 83.56C458.922 83.12 459.189 82.7467 459.536 82.44C459.896 82.12 460.322 81.8733 460.816 81.7C461.309 81.5267 461.856 81.44 462.456 81.44C463.229 81.44 463.909 81.58 464.496 81.86V81.68C464.496 81.28 464.589 80.9467 464.776 80.68C464.962 80.4133 465.282 80.28 465.736 80.28H467.636V81.68H465.316V82.38C465.689 82.7 465.976 83.08 466.176 83.52C466.376 83.96 466.476 84.4533 466.476 85C466.476 85.52 466.376 86 466.176 86.44C465.989 86.88 465.722 87.26 465.376 87.58C465.029 87.8867 464.602 88.1267 464.096 88.3C463.602 88.4733 463.056 88.56 462.456 88.56C462.282 88.56 462.116 88.5533 461.956 88.54C461.796 88.5267 461.636 88.5067 461.476 88.48C461.316 88.5067 461.149 88.5533 460.976 88.62C460.802 88.6733 460.642 88.7533 460.496 88.86C460.349 88.9533 460.229 89.0667 460.136 89.2C460.042 89.3333 459.996 89.4867 459.996 89.66C459.996 89.9667 460.149 90.1733 460.456 90.28C460.762 90.3733 461.162 90.42 461.656 90.42H463.936C465.269 90.42 466.236 90.6733 466.836 91.18C467.436 91.6733 467.736 92.34 467.736 93.18ZM466.236 93.26C466.236 92.8467 466.069 92.5133 465.736 92.26C465.402 92.02 464.822 91.9 463.996 91.9H460.416C459.722 92.18 459.376 92.6467 459.376 93.3C459.376 93.7533 459.556 94.14 459.916 94.46C460.276 94.7933 460.876 94.96 461.716 94.96H463.276C464.209 94.96 464.936 94.8133 465.456 94.52C465.976 94.24 466.236 93.82 466.236 93.26ZM462.456 87.32C463.256 87.32 463.842 87.1333 464.216 86.76C464.602 86.3867 464.796 85.8933 464.796 85.28V84.7C464.796 84.0867 464.602 83.6 464.216 83.24C463.842 82.8667 463.256 82.68 462.456 82.68C461.656 82.68 461.069 82.8667 460.696 83.24C460.322 83.6 460.136 84.0867 460.136 84.7V85.28C460.136 85.8933 460.322 86.3867 460.696 86.76C461.069 87.1333 461.656 87.32 462.456 87.32ZM486.12 92.24C485.04 92.24 484.107 92.06 483.32 91.7C482.547 91.3267 481.887 90.8333 481.34 90.22L482.42 89.28C482.913 89.8 483.453 90.2 484.04 90.48C484.627 90.76 485.333 90.9 486.16 90.9C486.96 90.9 487.613 90.76 488.12 90.48C488.64 90.1867 488.9 89.7333 488.9 89.12C488.9 88.8533 488.847 88.6333 488.74 88.46C488.647 88.2733 488.513 88.1267 488.34 88.02C488.167 87.9133 487.973 87.8333 487.76 87.78C487.547 87.7133 487.32 87.66 487.08 87.62L485.46 87.38C485.1 87.3267 484.707 87.2533 484.28 87.16C483.867 87.0667 483.487 86.92 483.14 86.72C482.793 86.5067 482.5 86.2267 482.26 85.88C482.033 85.5333 481.92 85.08 481.92 84.52C481.92 84 482.02 83.5533 482.22 83.18C482.433 82.7933 482.727 82.4733 483.1 82.22C483.473 81.9533 483.913 81.76 484.42 81.64C484.927 81.5067 485.48 81.44 486.08 81.44C487.013 81.44 487.82 81.5867 488.5 81.88C489.193 82.1733 489.787 82.58 490.28 83.1L489.24 84.08C489.12 83.9333 488.967 83.7867 488.78 83.64C488.607 83.48 488.387 83.34 488.12 83.22C487.867 83.0867 487.567 82.98 487.22 82.9C486.873 82.82 486.473 82.78 486.02 82.78C485.207 82.78 484.58 82.92 484.14 83.2C483.713 83.48 483.5 83.8867 483.5 84.42C483.5 84.6867 483.547 84.9133 483.64 85.1C483.747 85.2733 483.887 85.4133 484.06 85.52C484.233 85.6267 484.427 85.7133 484.64 85.78C484.867 85.8333 485.093 85.88 485.32 85.92L486.94 86.16C487.313 86.2133 487.707 86.2867 488.12 86.38C488.533 86.4733 488.913 86.6267 489.26 86.84C489.607 87.04 489.893 87.3133 490.12 87.66C490.36 88.0067 490.48 88.46 490.48 89.02C490.48 90.0467 490.08 90.84 489.28 91.4C488.493 91.96 487.44 92.24 486.12 92.24ZM498.382 79.4C497.916 79.4 497.589 79.3067 497.402 79.12C497.216 78.92 497.122 78.6733 497.122 78.38V78.06C497.122 77.7667 497.216 77.5267 497.402 77.34C497.589 77.14 497.916 77.04 498.382 77.04C498.849 77.04 499.176 77.14 499.362 77.34C499.549 77.5267 499.642 77.7667 499.642 78.06V78.38C499.642 78.6733 499.549 78.92 499.362 79.12C499.176 79.3067 498.849 79.4 498.382 79.4ZM493.862 90.64H497.582V83.04H493.862V81.68H499.182V90.64H502.662V92H493.862V90.64ZM514.704 93.18C514.704 94.22 514.271 94.9867 513.404 95.48C512.538 95.9867 511.238 96.24 509.504 96.24C507.838 96.24 506.638 96.02 505.904 95.58C505.184 95.14 504.824 94.5067 504.824 93.68C504.824 93.12 504.971 92.6867 505.264 92.38C505.558 92.0733 505.971 91.8467 506.504 91.7V91.46C506.211 91.3133 505.984 91.1267 505.824 90.9C505.664 90.6733 505.584 90.3867 505.584 90.04C505.584 89.5067 505.758 89.1067 506.104 88.84C506.464 88.5733 506.911 88.3733 507.444 88.24V88.16C506.804 87.88 506.304 87.4667 505.944 86.92C505.598 86.3733 505.424 85.7333 505.424 85C505.424 84.48 505.518 84 505.704 83.56C505.891 83.12 506.158 82.7467 506.504 82.44C506.864 82.12 507.291 81.8733 507.784 81.7C508.278 81.5267 508.824 81.44 509.424 81.44C510.198 81.44 510.878 81.58 511.464 81.86V81.68C511.464 81.28 511.558 80.9467 511.744 80.68C511.931 80.4133 512.251 80.28 512.704 80.28H514.604V81.68H512.284V82.38C512.658 82.7 512.944 83.08 513.144 83.52C513.344 83.96 513.444 84.4533 513.444 85C513.444 85.52 513.344 86 513.144 86.44C512.958 86.88 512.691 87.26 512.344 87.58C511.998 87.8867 511.571 88.1267 511.064 88.3C510.571 88.4733 510.024 88.56 509.424 88.56C509.251 88.56 509.084 88.5533 508.924 88.54C508.764 88.5267 508.604 88.5067 508.444 88.48C508.284 88.5067 508.118 88.5533 507.944 88.62C507.771 88.6733 507.611 88.7533 507.464 88.86C507.318 88.9533 507.198 89.0667 507.104 89.2C507.011 89.3333 506.964 89.4867 506.964 89.66C506.964 89.9667 507.118 90.1733 507.424 90.28C507.731 90.3733 508.131 90.42 508.624 90.42H510.904C512.238 90.42 513.204 90.6733 513.804 91.18C514.404 91.6733 514.704 92.34 514.704 93.18ZM513.204 93.26C513.204 92.8467 513.038 92.5133 512.704 92.26C512.371 92.02 511.791 91.9 510.964 91.9H507.384C506.691 92.18 506.344 92.6467 506.344 93.3C506.344 93.7533 506.524 94.14 506.884 94.46C507.244 94.7933 507.844 94.96 508.684 94.96H510.244C511.178 94.96 511.904 94.8133 512.424 94.52C512.944 94.24 513.204 93.82 513.204 93.26ZM509.424 87.32C510.224 87.32 510.811 87.1333 511.184 86.76C511.571 86.3867 511.764 85.8933 511.764 85.28V84.7C511.764 84.0867 511.571 83.6 511.184 83.24C510.811 82.8667 510.224 82.68 509.424 82.68C508.624 82.68 508.038 82.8667 507.664 83.24C507.291 83.6 507.104 84.0867 507.104 84.7V85.28C507.104 85.8933 507.291 86.3867 507.664 86.76C508.038 87.1333 508.624 87.32 509.424 87.32ZM517.187 92V81.68H518.787V83.36H518.867C518.973 83.1067 519.107 82.8667 519.267 82.64C519.427 82.4 519.62 82.1933 519.847 82.02C520.087 81.8467 520.367 81.7067 520.687 81.6C521.007 81.4933 521.38 81.44 521.807 81.44C522.887 81.44 523.753 81.7867 524.407 82.48C525.06 83.16 525.387 84.1267 525.387 85.38V92H523.787V85.66C523.787 84.7133 523.58 84.0133 523.167 83.56C522.753 83.0933 522.147 82.86 521.347 82.86C521.027 82.86 520.713 82.9 520.407 82.98C520.1 83.06 519.827 83.18 519.587 83.34C519.347 83.5 519.153 83.7067 519.007 83.96C518.86 84.2133 518.787 84.5067 518.787 84.84V92H517.187ZM536.869 92C536.242 92 535.795 91.84 535.529 91.52C535.262 91.2 535.095 90.8 535.029 90.32H534.929C534.702 90.92 534.335 91.3933 533.829 91.74C533.335 92.0733 532.669 92.24 531.829 92.24C530.749 92.24 529.889 91.96 529.249 91.4C528.609 90.84 528.289 90.0733 528.289 89.1C528.289 88.14 528.635 87.4 529.329 86.88C530.035 86.36 531.169 86.1 532.729 86.1H534.929V85.08C534.929 84.32 534.715 83.7533 534.289 83.38C533.862 82.9933 533.255 82.8 532.469 82.8C531.775 82.8 531.209 82.94 530.769 83.22C530.329 83.4867 529.975 83.8533 529.709 84.32L528.629 83.52C528.762 83.2533 528.942 82.9933 529.169 82.74C529.395 82.4867 529.675 82.2667 530.009 82.08C530.342 81.88 530.722 81.7267 531.149 81.62C531.575 81.5 532.049 81.44 532.569 81.44C533.782 81.44 534.742 81.7467 535.449 82.36C536.169 82.9733 536.529 83.8267 536.529 84.92V90.6H537.969V92H536.869ZM532.109 90.9C532.522 90.9 532.895 90.8533 533.229 90.76C533.575 90.6533 533.875 90.52 534.129 90.36C534.382 90.1867 534.575 89.9867 534.709 89.76C534.855 89.52 534.929 89.2667 534.929 89V87.3H532.729C531.769 87.3 531.069 87.4333 530.629 87.7C530.189 87.9667 529.969 88.3533 529.969 88.86V89.28C529.969 89.8133 530.155 90.22 530.529 90.5C530.915 90.7667 531.442 90.9 532.109 90.9ZM540.311 90.64H543.911V78.56H540.311V77.2H545.511V90.64H549.111V92H540.311V90.64ZM556.453 92.18C555.906 92.18 555.52 92.0667 555.293 91.84C555.08 91.6133 554.973 91.3267 554.973 90.98V90.62C554.973 90.2733 555.08 89.9867 555.293 89.76C555.52 89.5333 555.906 89.42 556.453 89.42C557 89.42 557.38 89.5333 557.593 89.76C557.82 89.9867 557.933 90.2733 557.933 90.62V90.98C557.933 91.3267 557.82 91.6133 557.593 91.84C557.38 92.0667 557 92.18 556.453 92.18ZM568.195 92.18C567.649 92.18 567.262 92.0667 567.035 91.84C566.822 91.6133 566.715 91.3267 566.715 90.98V90.62C566.715 90.2733 566.822 89.9867 567.035 89.76C567.262 89.5333 567.649 89.42 568.195 89.42C568.742 89.42 569.122 89.5333 569.335 89.76C569.562 89.9867 569.675 90.2733 569.675 90.62V90.98C569.675 91.3267 569.562 91.6133 569.335 91.84C569.122 92.0667 568.742 92.18 568.195 92.18ZM579.938 92.18C579.391 92.18 579.004 92.0667 578.778 91.84C578.564 91.6133 578.458 91.3267 578.458 90.98V90.62C578.458 90.2733 578.564 89.9867 578.778 89.76C579.004 89.5333 579.391 89.42 579.938 89.42C580.484 89.42 580.864 89.5333 581.078 89.76C581.304 89.9867 581.418 90.2733 581.418 90.62V90.98C581.418 91.3267 581.304 91.6133 581.078 91.84C580.864 92.0667 580.484 92.18 579.938 92.18Z" fill="#FCFFBA"/>
<path d="M793.055 48H786.065V46.71L789.56 43.56C790.07 43.1 790.49 42.63 790.82 42.15C791.15 41.66 791.315 41.145 791.315 40.605V40.425C791.315 39.795 791.15 39.31 790.82 38.97C790.49 38.62 790 38.445 789.35 38.445C788.71 38.445 788.215 38.61 787.865 38.94C787.525 39.26 787.27 39.69 787.1 40.23L785.975 39.81C786.075 39.5 786.21 39.2 786.38 38.91C786.56 38.61 786.785 38.345 787.055 38.115C787.325 37.885 787.65 37.7 788.03 37.56C788.42 37.42 788.87 37.35 789.38 37.35C789.9 37.35 790.36 37.425 790.76 37.575C791.17 37.725 791.51 37.935 791.78 38.205C792.06 38.475 792.27 38.795 792.41 39.165C792.56 39.535 792.635 39.94 792.635 40.38C792.635 40.78 792.575 41.155 792.455 41.505C792.345 41.855 792.185 42.19 791.975 42.51C791.775 42.83 791.53 43.145 791.24 43.455C790.96 43.755 790.645 44.055 790.295 44.355L787.37 46.905H793.055V48ZM798.244 48.18C797.604 48.18 797.054 48.06 796.594 47.82C796.134 47.57 795.754 47.215 795.454 46.755C795.154 46.295 794.934 45.73 794.794 45.06C794.654 44.39 794.584 43.625 794.584 42.765C794.584 41.915 794.654 41.155 794.794 40.485C794.934 39.805 795.154 39.235 795.454 38.775C795.754 38.315 796.134 37.965 796.594 37.725C797.054 37.475 797.604 37.35 798.244 37.35C798.884 37.35 799.434 37.475 799.894 37.725C800.354 37.965 800.734 38.315 801.034 38.775C801.334 39.235 801.554 39.805 801.694 40.485C801.834 41.155 801.904 41.915 801.904 42.765C801.904 43.625 801.834 44.39 801.694 45.06C801.554 45.73 801.334 46.295 801.034 46.755C800.734 47.215 800.354 47.57 799.894 47.82C799.434 48.06 798.884 48.18 798.244 48.18ZM798.244 47.085C798.664 47.085 799.024 47.005 799.324 46.845C799.624 46.675 799.864 46.44 800.044 46.14C800.234 45.84 800.374 45.48 800.464 45.06C800.554 44.63 800.599 44.15 800.599 43.62V41.91C800.599 41.39 800.554 40.915 800.464 40.485C800.374 40.055 800.234 39.69 800.044 39.39C799.864 39.09 799.624 38.86 799.324 38.7C799.024 38.53 798.664 38.445 798.244 38.445C797.824 38.445 797.464 38.53 797.164 38.7C796.864 38.86 796.619 39.09 796.429 39.39C796.249 39.69 796.114 40.055 796.024 40.485C795.934 40.915 795.889 41.39 795.889 41.91V43.62C795.889 44.15 795.934 44.63 796.024 45.06C796.114 45.48 796.249 45.84 796.429 46.14C796.619 46.44 796.864 46.675 797.164 46.845C797.464 47.005 797.824 47.085 798.244 47.085ZM798.244 43.65C797.894 43.65 797.649 43.58 797.509 43.44C797.379 43.3 797.314 43.13 797.314 42.93V42.6C797.314 42.4 797.379 42.23 797.509 42.09C797.649 41.95 797.894 41.88 798.244 41.88C798.594 41.88 798.834 41.95 798.964 42.09C799.104 42.23 799.174 42.4 799.174 42.6V42.93C799.174 43.13 799.104 43.3 798.964 43.44C798.834 43.58 798.594 43.65 798.244 43.65ZM805.083 48L809.178 38.61H804.588V40.56H803.463V37.53H810.453V38.64L806.433 48H805.083ZM818.747 38.625H814.067L813.767 42.63H813.872C814.132 42.28 814.422 42.005 814.742 41.805C815.062 41.595 815.502 41.49 816.062 41.49C816.522 41.49 816.942 41.565 817.322 41.715C817.712 41.855 818.047 42.065 818.327 42.345C818.607 42.625 818.827 42.965 818.987 43.365C819.147 43.755 819.227 44.205 819.227 44.715C819.227 45.225 819.147 45.695 818.987 46.125C818.827 46.545 818.592 46.91 818.282 47.22C817.972 47.52 817.597 47.755 817.157 47.925C816.717 48.095 816.217 48.18 815.657 48.18C815.217 48.18 814.822 48.13 814.472 48.03C814.132 47.93 813.827 47.795 813.557 47.625C813.297 47.455 813.067 47.265 812.867 47.055C812.667 46.845 812.487 46.625 812.327 46.395L813.272 45.675C813.412 45.885 813.552 46.075 813.692 46.245C813.842 46.415 814.012 46.565 814.202 46.695C814.392 46.815 814.607 46.91 814.847 46.98C815.087 47.05 815.367 47.085 815.687 47.085C816.407 47.085 816.957 46.89 817.337 46.5C817.727 46.11 817.922 45.57 817.922 44.88V44.76C817.922 44.07 817.727 43.53 817.337 43.14C816.947 42.75 816.387 42.555 815.657 42.555C815.157 42.555 814.767 42.64 814.487 42.81C814.217 42.98 813.967 43.19 813.737 43.44L812.672 43.29L813.047 37.53H818.747V38.625ZM821.327 50.07L826.547 36.6H827.627L822.407 50.07H821.327ZM836.236 38.625H831.556L831.256 42.63H831.361C831.621 42.28 831.911 42.005 832.231 41.805C832.551 41.595 832.991 41.49 833.551 41.49C834.011 41.49 834.431 41.565 834.811 41.715C835.201 41.855 835.536 42.065 835.816 42.345C836.096 42.625 836.316 42.965 836.476 43.365C836.636 43.755 836.716 44.205 836.716 44.715C836.716 45.225 836.636 45.695 836.476 46.125C836.316 46.545 836.081 46.91 835.771 47.22C835.461 47.52 835.086 47.755 834.646 47.925C834.206 48.095 833.706 48.18 833.146 48.18C832.706 48.18 832.311 48.13 831.961 48.03C831.621 47.93 831.316 47.795 831.046 47.625C830.786 47.455 830.556 47.265 830.356 47.055C830.156 46.845 829.976 46.625 829.816 46.395L830.761 45.675C830.901 45.885 831.041 46.075 831.181 46.245C831.331 46.415 831.501 46.565 831.691 46.695C831.881 46.815 832.096 46.91 832.336 46.98C832.576 47.05 832.856 47.085 833.176 47.085C833.896 47.085 834.446 46.89 834.826 46.5C835.216 46.11 835.411 45.57 835.411 44.88V44.76C835.411 44.07 835.216 43.53 834.826 43.14C834.436 42.75 833.876 42.555 833.146 42.555C832.646 42.555 832.256 42.64 831.976 42.81C831.706 42.98 831.456 43.19 831.226 43.44L830.161 43.29L830.536 37.53H836.236V38.625ZM838.815 50.07L844.035 36.6H845.115L839.895 50.07H838.815ZM850.259 41.97C850.989 41.97 851.534 41.81 851.894 41.49C852.264 41.16 852.449 40.74 852.449 40.23V40.125C852.449 39.565 852.269 39.145 851.909 38.865C851.559 38.585 851.099 38.445 850.529 38.445C849.969 38.445 849.514 38.57 849.164 38.82C848.824 39.06 848.544 39.38 848.324 39.78L847.379 39.06C847.509 38.85 847.669 38.645 847.859 38.445C848.049 38.235 848.269 38.05 848.519 37.89C848.779 37.73 849.074 37.6 849.404 37.5C849.744 37.4 850.129 37.35 850.559 37.35C851.009 37.35 851.429 37.41 851.819 37.53C852.209 37.64 852.549 37.81 852.839 38.04C853.129 38.26 853.354 38.535 853.514 38.865C853.684 39.195 853.769 39.57 853.769 39.99C853.769 40.33 853.714 40.635 853.604 40.905C853.504 41.175 853.359 41.41 853.169 41.61C852.989 41.81 852.774 41.98 852.524 42.12C852.274 42.26 852.009 42.365 851.729 42.435V42.495C852.019 42.555 852.299 42.655 852.569 42.795C852.839 42.925 853.079 43.1 853.289 43.32C853.499 43.53 853.664 43.79 853.784 44.1C853.914 44.4 853.979 44.745 853.979 45.135C853.979 45.585 853.889 46 853.709 46.38C853.539 46.75 853.294 47.07 852.974 47.34C852.664 47.6 852.284 47.805 851.834 47.955C851.394 48.105 850.904 48.18 850.364 48.18C849.904 48.18 849.494 48.13 849.134 48.03C848.784 47.93 848.469 47.795 848.189 47.625C847.919 47.455 847.679 47.265 847.469 47.055C847.269 46.845 847.089 46.625 846.929 46.395L847.874 45.675C848.014 45.885 848.159 46.075 848.309 46.245C848.459 46.415 848.629 46.565 848.819 46.695C849.019 46.815 849.244 46.91 849.494 46.98C849.744 47.05 850.034 47.085 850.364 47.085C851.104 47.085 851.669 46.915 852.059 46.575C852.459 46.235 852.659 45.75 852.659 45.12V45C852.659 44.38 852.464 43.9 852.074 43.56C851.694 43.22 851.119 43.05 850.349 43.05H849.104V41.97H850.259ZM859.453 48.18C858.813 48.18 858.263 48.06 857.803 47.82C857.343 47.57 856.963 47.215 856.663 46.755C856.363 46.295 856.143 45.73 856.003 45.06C855.863 44.39 855.793 43.625 855.793 42.765C855.793 41.915 855.863 41.155 856.003 40.485C856.143 39.805 856.363 39.235 856.663 38.775C856.963 38.315 857.343 37.965 857.803 37.725C858.263 37.475 858.813 37.35 859.453 37.35C860.093 37.35 860.643 37.475 861.103 37.725C861.563 37.965 861.943 38.315 862.243 38.775C862.543 39.235 862.763 39.805 862.903 40.485C863.043 41.155 863.113 41.915 863.113 42.765C863.113 43.625 863.043 44.39 862.903 45.06C862.763 45.73 862.543 46.295 862.243 46.755C861.943 47.215 861.563 47.57 861.103 47.82C860.643 48.06 860.093 48.18 859.453 48.18ZM859.453 47.085C859.873 47.085 860.233 47.005 860.533 46.845C860.833 46.675 861.073 46.44 861.253 46.14C861.443 45.84 861.583 45.48 861.673 45.06C861.763 44.63 861.808 44.15 861.808 43.62V41.91C861.808 41.39 861.763 40.915 861.673 40.485C861.583 40.055 861.443 39.69 861.253 39.39C861.073 39.09 860.833 38.86 860.533 38.7C860.233 38.53 859.873 38.445 859.453 38.445C859.033 38.445 858.673 38.53 858.373 38.7C858.073 38.86 857.828 39.09 857.638 39.39C857.458 39.69 857.323 40.055 857.233 40.485C857.143 40.915 857.098 41.39 857.098 41.91V43.62C857.098 44.15 857.143 44.63 857.233 45.06C857.323 45.48 857.458 45.84 857.638 46.14C857.828 46.44 858.073 46.675 858.373 46.845C858.673 47.005 859.033 47.085 859.453 47.085ZM859.453 43.65C859.103 43.65 858.858 43.58 858.718 43.44C858.588 43.3 858.523 43.13 858.523 42.93V42.6C858.523 42.4 858.588 42.23 858.718 42.09C858.858 41.95 859.103 41.88 859.453 41.88C859.803 41.88 860.043 41.95 860.173 42.09C860.313 42.23 860.383 42.4 860.383 42.6V42.93C860.383 43.13 860.313 43.3 860.173 43.44C860.043 43.58 859.803 43.65 859.453 43.65ZM882.461 48V46.905H885.461V38.46H885.356L882.716 40.92L881.981 40.125L884.756 37.53H886.721V46.905H889.481V48H882.461ZM897.43 39.84C897.13 39.84 896.865 39.74 896.635 39.54C896.405 39.33 896.29 39.055 896.29 38.715C896.29 38.375 896.405 38.105 896.635 37.905C896.865 37.695 897.13 37.59 897.43 37.59C897.73 37.59 897.995 37.695 898.225 37.905C898.455 38.105 898.57 38.375 898.57 38.715C898.57 39.055 898.455 39.33 898.225 39.54C897.995 39.74 897.73 39.84 897.43 39.84ZM897.43 47.19C897.13 47.19 896.865 47.09 896.635 46.89C896.405 46.68 896.29 46.405 896.29 46.065C896.29 45.715 896.405 45.44 896.635 45.24C896.865 45.03 897.13 44.925 897.43 44.925C897.73 44.925 897.995 45.03 898.225 45.24C898.455 45.44 898.57 45.715 898.57 46.065C898.57 46.405 898.455 46.68 898.225 46.89C897.995 47.09 897.73 47.19 897.43 47.19ZM912.735 48H905.745V46.71L909.24 43.56C909.75 43.1 910.17 42.63 910.5 42.15C910.83 41.66 910.995 41.145 910.995 40.605V40.425C910.995 39.795 910.83 39.31 910.5 38.97C910.17 38.62 909.68 38.445 909.03 38.445C908.39 38.445 907.895 38.61 907.545 38.94C907.205 39.26 906.95 39.69 906.78 40.23L905.655 39.81C905.755 39.5 905.89 39.2 906.06 38.91C906.24 38.61 906.465 38.345 906.735 38.115C907.005 37.885 907.33 37.7 907.71 37.56C908.1 37.42 908.55 37.35 909.06 37.35C909.58 37.35 910.04 37.425 910.44 37.575C910.85 37.725 911.19 37.935 911.46 38.205C911.74 38.475 911.95 38.795 912.09 39.165C912.24 39.535 912.315 39.94 912.315 40.38C912.315 40.78 912.255 41.155 912.135 41.505C912.025 41.855 911.865 42.19 911.655 42.51C911.455 42.83 911.21 43.145 910.92 43.455C910.64 43.755 910.325 44.055 909.975 44.355L907.05 46.905H912.735V48ZM921.464 41.37C921.464 42.15 921.344 42.885 921.104 43.575C920.874 44.255 920.574 44.88 920.204 45.45C919.834 46.01 919.424 46.51 918.974 46.95C918.534 47.38 918.099 47.73 917.669 48H916.049C916.619 47.59 917.124 47.19 917.564 46.8C918.014 46.41 918.409 46.005 918.749 45.585C919.089 45.155 919.374 44.7 919.604 44.22C919.834 43.73 920.024 43.18 920.174 42.57L920.099 42.54C919.839 42.97 919.504 43.33 919.094 43.62C918.694 43.9 918.169 44.04 917.519 44.04C917.059 44.04 916.634 43.965 916.244 43.815C915.864 43.665 915.534 43.45 915.254 43.17C914.984 42.89 914.769 42.555 914.609 42.165C914.459 41.765 914.384 41.315 914.384 40.815C914.384 40.305 914.464 39.84 914.624 39.42C914.794 38.99 915.034 38.625 915.344 38.325C915.654 38.015 916.024 37.775 916.454 37.605C916.894 37.435 917.379 37.35 917.909 37.35C918.459 37.35 918.954 37.445 919.394 37.635C919.834 37.815 920.204 38.08 920.504 38.43C920.814 38.77 921.049 39.19 921.209 39.69C921.379 40.19 921.464 40.75 921.464 41.37ZM917.924 43.005C918.644 43.005 919.199 42.81 919.589 42.42C919.989 42.03 920.189 41.48 920.189 40.77V40.65C920.189 39.94 919.989 39.39 919.589 39C919.199 38.61 918.644 38.415 917.924 38.415C917.204 38.415 916.644 38.61 916.244 39C915.854 39.39 915.659 39.94 915.659 40.65V40.77C915.659 41.48 915.854 42.03 916.244 42.42C916.644 42.81 917.204 43.005 917.924 43.005Z" fill="#FCFFBA"/>
<path d="M370.553 148V143.58H370.393L367.453 150.76L364.513 143.58H364.353V148V155H362.813V141.04H364.973L367.433 147.2H367.553L370.013 141.04H372.093V155H370.553V148ZM379.375 155.24C378.629 155.24 377.955 155.113 377.355 154.86C376.769 154.607 376.262 154.247 375.835 153.78C375.422 153.3 375.102 152.733 374.875 152.08C374.649 151.413 374.535 150.673 374.535 149.86C374.535 149.033 374.649 148.287 374.875 147.62C375.115 146.953 375.442 146.387 375.855 145.92C376.269 145.44 376.762 145.073 377.335 144.82C377.922 144.567 378.569 144.44 379.275 144.44C379.969 144.44 380.595 144.567 381.155 144.82C381.729 145.073 382.215 145.427 382.615 145.88C383.015 146.32 383.322 146.847 383.535 147.46C383.749 148.073 383.855 148.747 383.855 149.48V150.24H376.215V150.72C376.215 151.173 376.289 151.593 376.435 151.98C376.582 152.367 376.789 152.7 377.055 152.98C377.335 153.26 377.669 153.48 378.055 153.64C378.455 153.787 378.895 153.86 379.375 153.86C380.069 153.86 380.669 153.7 381.175 153.38C381.682 153.06 382.069 152.62 382.335 152.06L383.515 152.86C383.209 153.553 382.695 154.127 381.975 154.58C381.269 155.02 380.402 155.24 379.375 155.24ZM379.275 145.76C378.835 145.76 378.429 145.84 378.055 146C377.682 146.16 377.355 146.38 377.075 146.66C376.809 146.94 376.595 147.273 376.435 147.66C376.289 148.033 376.215 148.447 376.215 148.9V149.04H382.135V148.82C382.135 148.367 382.062 147.953 381.915 147.58C381.782 147.207 381.589 146.887 381.335 146.62C381.095 146.34 380.795 146.127 380.435 145.98C380.089 145.833 379.702 145.76 379.275 145.76ZM391.058 155.24C389.978 155.24 389.044 155.06 388.258 154.7C387.484 154.327 386.824 153.833 386.278 153.22L387.358 152.28C387.851 152.8 388.391 153.2 388.978 153.48C389.564 153.76 390.271 153.9 391.098 153.9C391.898 153.9 392.551 153.76 393.058 153.48C393.578 153.187 393.838 152.733 393.838 152.12C393.838 151.853 393.784 151.633 393.678 151.46C393.584 151.273 393.451 151.127 393.278 151.02C393.104 150.913 392.911 150.833 392.698 150.78C392.484 150.713 392.258 150.66 392.018 150.62L390.398 150.38C390.038 150.327 389.644 150.253 389.218 150.16C388.804 150.067 388.424 149.92 388.078 149.72C387.731 149.507 387.438 149.227 387.198 148.88C386.971 148.533 386.858 148.08 386.858 147.52C386.858 147 386.958 146.553 387.158 146.18C387.371 145.793 387.664 145.473 388.038 145.22C388.411 144.953 388.851 144.76 389.358 144.64C389.864 144.507 390.418 144.44 391.018 144.44C391.951 144.44 392.758 144.587 393.438 144.88C394.131 145.173 394.724 145.58 395.217 146.1L394.178 147.08C394.058 146.933 393.904 146.787 393.718 146.64C393.544 146.48 393.324 146.34 393.058 146.22C392.804 146.087 392.504 145.98 392.158 145.9C391.811 145.82 391.411 145.78 390.958 145.78C390.144 145.78 389.518 145.92 389.078 146.2C388.651 146.48 388.438 146.887 388.438 147.42C388.438 147.687 388.484 147.913 388.578 148.1C388.684 148.273 388.824 148.413 388.998 148.52C389.171 148.627 389.364 148.713 389.578 148.78C389.804 148.833 390.031 148.88 390.258 148.92L391.878 149.16C392.251 149.213 392.644 149.287 393.058 149.38C393.471 149.473 393.851 149.627 394.198 149.84C394.544 150.04 394.831 150.313 395.058 150.66C395.298 151.007 395.418 151.46 395.418 152.02C395.418 153.047 395.018 153.84 394.218 154.4C393.431 154.96 392.378 155.24 391.058 155.24ZM402.8 155.24C401.72 155.24 400.786 155.06 400 154.7C399.226 154.327 398.566 153.833 398.02 153.22L399.1 152.28C399.593 152.8 400.133 153.2 400.72 153.48C401.306 153.76 402.013 153.9 402.84 153.9C403.64 153.9 404.293 153.76 404.8 153.48C405.32 153.187 405.58 152.733 405.58 152.12C405.58 151.853 405.526 151.633 405.42 151.46C405.326 151.273 405.193 151.127 405.02 151.02C404.846 150.913 404.653 150.833 404.44 150.78C404.226 150.713 404 150.66 403.76 150.62L402.14 150.38C401.78 150.327 401.386 150.253 400.96 150.16C400.546 150.067 400.166 149.92 399.82 149.72C399.473 149.507 399.18 149.227 398.94 148.88C398.713 148.533 398.6 148.08 398.6 147.52C398.6 147 398.7 146.553 398.9 146.18C399.113 145.793 399.406 145.473 399.78 145.22C400.153 144.953 400.593 144.76 401.1 144.64C401.606 144.507 402.16 144.44 402.76 144.44C403.693 144.44 404.5 144.587 405.18 144.88C405.873 145.173 406.466 145.58 406.96 146.1L405.92 147.08C405.8 146.933 405.646 146.787 405.46 146.64C405.286 146.48 405.066 146.34 404.8 146.22C404.546 146.087 404.246 145.98 403.9 145.9C403.553 145.82 403.153 145.78 402.7 145.78C401.886 145.78 401.26 145.92 400.82 146.2C400.393 146.48 400.18 146.887 400.18 147.42C400.18 147.687 400.226 147.913 400.32 148.1C400.426 148.273 400.566 148.413 400.74 148.52C400.913 148.627 401.106 148.713 401.32 148.78C401.546 148.833 401.773 148.88 402 148.92L403.62 149.16C403.993 149.213 404.386 149.287 404.8 149.38C405.213 149.473 405.593 149.627 405.94 149.84C406.286 150.04 406.573 150.313 406.8 150.66C407.04 151.007 407.16 151.46 407.16 152.02C407.16 153.047 406.76 153.84 405.96 154.4C405.173 154.96 404.12 155.24 402.8 155.24ZM418.322 155C417.695 155 417.249 154.84 416.982 154.52C416.715 154.2 416.549 153.8 416.482 153.32H416.382C416.155 153.92 415.789 154.393 415.282 154.74C414.789 155.073 414.122 155.24 413.282 155.24C412.202 155.24 411.342 154.96 410.702 154.4C410.062 153.84 409.742 153.073 409.742 152.1C409.742 151.14 410.089 150.4 410.782 149.88C411.489 149.36 412.622 149.1 414.182 149.1H416.382V148.08C416.382 147.32 416.169 146.753 415.742 146.38C415.315 145.993 414.709 145.8 413.922 145.8C413.229 145.8 412.662 145.94 412.222 146.22C411.782 146.487 411.429 146.853 411.162 147.32L410.082 146.52C410.215 146.253 410.395 145.993 410.622 145.74C410.849 145.487 411.129 145.267 411.462 145.08C411.795 144.88 412.175 144.727 412.602 144.62C413.029 144.5 413.502 144.44 414.022 144.44C415.235 144.44 416.195 144.747 416.902 145.36C417.622 145.973 417.982 146.827 417.982 147.92V153.6H419.422V155H418.322ZM413.562 153.9C413.975 153.9 414.349 153.853 414.682 153.76C415.029 153.653 415.329 153.52 415.582 153.36C415.835 153.187 416.029 152.987 416.162 152.76C416.309 152.52 416.382 152.267 416.382 152V150.3H414.182C413.222 150.3 412.522 150.433 412.082 150.7C411.642 150.967 411.422 151.353 411.422 151.86V152.28C411.422 152.813 411.609 153.22 411.982 153.5C412.369 153.767 412.895 153.9 413.562 153.9ZM431.384 156.18C431.384 157.22 430.951 157.987 430.084 158.48C429.217 158.987 427.917 159.24 426.184 159.24C424.517 159.24 423.317 159.02 422.584 158.58C421.864 158.14 421.504 157.507 421.504 156.68C421.504 156.12 421.651 155.687 421.944 155.38C422.237 155.073 422.651 154.847 423.184 154.7V154.46C422.891 154.313 422.664 154.127 422.504 153.9C422.344 153.673 422.264 153.387 422.264 153.04C422.264 152.507 422.437 152.107 422.784 151.84C423.144 151.573 423.591 151.373 424.124 151.24V151.16C423.484 150.88 422.984 150.467 422.624 149.92C422.277 149.373 422.104 148.733 422.104 148C422.104 147.48 422.197 147 422.384 146.56C422.571 146.12 422.837 145.747 423.184 145.44C423.544 145.12 423.971 144.873 424.464 144.7C424.957 144.527 425.504 144.44 426.104 144.44C426.877 144.44 427.557 144.58 428.144 144.86V144.68C428.144 144.28 428.237 143.947 428.424 143.68C428.611 143.413 428.931 143.28 429.384 143.28H431.284V144.68H428.964V145.38C429.337 145.7 429.624 146.08 429.824 146.52C430.024 146.96 430.124 147.453 430.124 148C430.124 148.52 430.024 149 429.824 149.44C429.637 149.88 429.371 150.26 429.024 150.58C428.677 150.887 428.251 151.127 427.744 151.3C427.251 151.473 426.704 151.56 426.104 151.56C425.931 151.56 425.764 151.553 425.604 151.54C425.444 151.527 425.284 151.507 425.124 151.48C424.964 151.507 424.797 151.553 424.624 151.62C424.451 151.673 424.291 151.753 424.144 151.86C423.997 151.953 423.877 152.067 423.784 152.2C423.691 152.333 423.644 152.487 423.644 152.66C423.644 152.967 423.797 153.173 424.104 153.28C424.411 153.373 424.811 153.42 425.304 153.42H427.584C428.917 153.42 429.884 153.673 430.484 154.18C431.084 154.673 431.384 155.34 431.384 156.18ZM429.884 156.26C429.884 155.847 429.717 155.513 429.384 155.26C429.051 155.02 428.471 154.9 427.644 154.9H424.064C423.371 155.18 423.024 155.647 423.024 156.3C423.024 156.753 423.204 157.14 423.564 157.46C423.924 157.793 424.524 157.96 425.364 157.96H426.924C427.857 157.96 428.584 157.813 429.104 157.52C429.624 157.24 429.884 156.82 429.884 156.26ZM426.104 150.32C426.904 150.32 427.491 150.133 427.864 149.76C428.251 149.387 428.444 148.893 428.444 148.28V147.7C428.444 147.087 428.251 146.6 427.864 146.24C427.491 145.867 426.904 145.68 426.104 145.68C425.304 145.68 424.717 145.867 424.344 146.24C423.971 146.6 423.784 147.087 423.784 147.7V148.28C423.784 148.893 423.971 149.387 424.344 149.76C424.717 150.133 425.304 150.32 426.104 150.32ZM438.086 155.24C437.34 155.24 436.666 155.113 436.066 154.86C435.48 154.607 434.973 154.247 434.546 153.78C434.133 153.3 433.813 152.733 433.586 152.08C433.36 151.413 433.246 150.673 433.246 149.86C433.246 149.033 433.36 148.287 433.586 147.62C433.826 146.953 434.153 146.387 434.566 145.92C434.98 145.44 435.473 145.073 436.046 144.82C436.633 144.567 437.28 144.44 437.986 144.44C438.68 144.44 439.306 144.567 439.866 144.82C440.44 145.073 440.926 145.427 441.326 145.88C441.726 146.32 442.033 146.847 442.246 147.46C442.46 148.073 442.566 148.747 442.566 149.48V150.24H434.926V150.72C434.926 151.173 435 151.593 435.146 151.98C435.293 152.367 435.5 152.7 435.766 152.98C436.046 153.26 436.38 153.48 436.766 153.64C437.166 153.787 437.606 153.86 438.086 153.86C438.78 153.86 439.38 153.7 439.886 153.38C440.393 153.06 440.78 152.62 441.046 152.06L442.226 152.86C441.92 153.553 441.406 154.127 440.686 154.58C439.98 155.02 439.113 155.24 438.086 155.24ZM437.986 145.76C437.546 145.76 437.14 145.84 436.766 146C436.393 146.16 436.066 146.38 435.786 146.66C435.52 146.94 435.306 147.273 435.146 147.66C435 148.033 434.926 148.447 434.926 148.9V149.04H440.846V148.82C440.846 148.367 440.773 147.953 440.626 147.58C440.493 147.207 440.3 146.887 440.046 146.62C439.806 146.34 439.506 146.127 439.146 145.98C438.8 145.833 438.413 145.76 437.986 145.76ZM461.391 155.24C460.671 155.24 460.017 155.113 459.431 154.86C458.857 154.607 458.364 154.247 457.951 153.78C457.551 153.3 457.244 152.733 457.031 152.08C456.817 151.413 456.711 150.667 456.711 149.84C456.711 149.027 456.817 148.287 457.031 147.62C457.244 146.953 457.551 146.387 457.951 145.92C458.364 145.44 458.857 145.073 459.431 144.82C460.017 144.567 460.671 144.44 461.391 144.44C462.111 144.44 462.757 144.567 463.331 144.82C463.917 145.073 464.411 145.44 464.811 145.92C465.224 146.387 465.537 146.953 465.751 147.62C465.964 148.287 466.071 149.027 466.071 149.84C466.071 150.667 465.964 151.413 465.751 152.08C465.537 152.733 465.224 153.3 464.811 153.78C464.411 154.247 463.917 154.607 463.331 154.86C462.757 155.113 462.111 155.24 461.391 155.24ZM461.391 153.86C462.284 153.86 463.004 153.593 463.551 153.06C464.097 152.527 464.371 151.7 464.371 150.58V149.1C464.371 147.98 464.097 147.153 463.551 146.62C463.004 146.087 462.284 145.82 461.391 145.82C460.497 145.82 459.777 146.087 459.231 146.62C458.684 147.153 458.411 147.98 458.411 149.1V150.58C458.411 151.7 458.684 152.527 459.231 153.06C459.777 153.593 460.497 153.86 461.391 153.86ZM468.673 153.64H471.693V146.04H468.673V144.68H473.293V147.28H473.393C473.606 146.467 474.006 145.833 474.593 145.38C475.193 144.913 475.953 144.68 476.873 144.68H478.313V146.28H476.373C475.453 146.28 474.706 146.547 474.133 147.08C473.573 147.613 473.293 148.313 473.293 149.18V153.64H477.293V155H468.673V153.64ZM485.515 142.4C485.048 142.4 484.722 142.307 484.535 142.12C484.348 141.92 484.255 141.673 484.255 141.38V141.06C484.255 140.767 484.348 140.527 484.535 140.34C484.722 140.14 485.048 140.04 485.515 140.04C485.982 140.04 486.308 140.14 486.495 140.34C486.682 140.527 486.775 140.767 486.775 141.06V141.38C486.775 141.673 486.682 141.92 486.495 142.12C486.308 142.307 485.982 142.4 485.515 142.4ZM480.995 153.64H484.715V146.04H480.995V144.68H486.315V153.64H489.795V155H480.995V153.64ZM501.837 156.18C501.837 157.22 501.404 157.987 500.537 158.48C499.671 158.987 498.371 159.24 496.637 159.24C494.971 159.24 493.771 159.02 493.037 158.58C492.317 158.14 491.957 157.507 491.957 156.68C491.957 156.12 492.104 155.687 492.397 155.38C492.691 155.073 493.104 154.847 493.637 154.7V154.46C493.344 154.313 493.117 154.127 492.957 153.9C492.797 153.673 492.717 153.387 492.717 153.04C492.717 152.507 492.891 152.107 493.237 151.84C493.597 151.573 494.044 151.373 494.577 151.24V151.16C493.937 150.88 493.437 150.467 493.077 149.92C492.731 149.373 492.557 148.733 492.557 148C492.557 147.48 492.651 147 492.837 146.56C493.024 146.12 493.291 145.747 493.637 145.44C493.997 145.12 494.424 144.873 494.917 144.7C495.411 144.527 495.957 144.44 496.557 144.44C497.331 144.44 498.011 144.58 498.597 144.86V144.68C498.597 144.28 498.691 143.947 498.877 143.68C499.064 143.413 499.384 143.28 499.837 143.28H501.737V144.68H499.417V145.38C499.791 145.7 500.077 146.08 500.277 146.52C500.477 146.96 500.577 147.453 500.577 148C500.577 148.52 500.477 149 500.277 149.44C500.091 149.88 499.824 150.26 499.477 150.58C499.131 150.887 498.704 151.127 498.197 151.3C497.704 151.473 497.157 151.56 496.557 151.56C496.384 151.56 496.217 151.553 496.057 151.54C495.897 151.527 495.737 151.507 495.577 151.48C495.417 151.507 495.251 151.553 495.077 151.62C494.904 151.673 494.744 151.753 494.597 151.86C494.451 151.953 494.331 152.067 494.237 152.2C494.144 152.333 494.097 152.487 494.097 152.66C494.097 152.967 494.251 153.173 494.557 153.28C494.864 153.373 495.264 153.42 495.757 153.42H498.037C499.371 153.42 500.337 153.673 500.937 154.18C501.537 154.673 501.837 155.34 501.837 156.18ZM500.337 156.26C500.337 155.847 500.171 155.513 499.837 155.26C499.504 155.02 498.924 154.9 498.097 154.9H494.517C493.824 155.18 493.477 155.647 493.477 156.3C493.477 156.753 493.657 157.14 494.017 157.46C494.377 157.793 494.977 157.96 495.817 157.96H497.377C498.311 157.96 499.037 157.813 499.557 157.52C500.077 157.24 500.337 156.82 500.337 156.26ZM496.557 150.32C497.357 150.32 497.944 150.133 498.317 149.76C498.704 149.387 498.897 148.893 498.897 148.28V147.7C498.897 147.087 498.704 146.6 498.317 146.24C497.944 145.867 497.357 145.68 496.557 145.68C495.757 145.68 495.171 145.867 494.797 146.24C494.424 146.6 494.237 147.087 494.237 147.7V148.28C494.237 148.893 494.424 149.387 494.797 149.76C495.171 150.133 495.757 150.32 496.557 150.32ZM508.999 142.4C508.533 142.4 508.206 142.307 508.019 142.12C507.833 141.92 507.739 141.673 507.739 141.38V141.06C507.739 140.767 507.833 140.527 508.019 140.34C508.206 140.14 508.533 140.04 508.999 140.04C509.466 140.04 509.793 140.14 509.979 140.34C510.166 140.527 510.259 140.767 510.259 141.06V141.38C510.259 141.673 510.166 141.92 509.979 142.12C509.793 142.307 509.466 142.4 508.999 142.4ZM504.479 153.64H508.199V146.04H504.479V144.68H509.799V153.64H513.279V155H504.479V153.64ZM516.062 155V144.68H517.662V146.36H517.742C517.848 146.107 517.982 145.867 518.142 145.64C518.302 145.4 518.495 145.193 518.722 145.02C518.962 144.847 519.242 144.707 519.562 144.6C519.882 144.493 520.255 144.44 520.682 144.44C521.762 144.44 522.628 144.787 523.282 145.48C523.935 146.16 524.262 147.127 524.262 148.38V155H522.662V148.66C522.662 147.713 522.455 147.013 522.042 146.56C521.628 146.093 521.022 145.86 520.222 145.86C519.902 145.86 519.588 145.9 519.282 145.98C518.975 146.06 518.702 146.18 518.462 146.34C518.222 146.5 518.028 146.707 517.882 146.96C517.735 147.213 517.662 147.507 517.662 147.84V155H516.062ZM531.844 155.18C531.297 155.18 530.91 155.067 530.684 154.84C530.47 154.613 530.364 154.327 530.364 153.98V153.62C530.364 153.273 530.47 152.987 530.684 152.76C530.91 152.533 531.297 152.42 531.844 152.42C532.39 152.42 532.77 152.533 532.984 152.76C533.21 152.987 533.324 153.273 533.324 153.62V153.98C533.324 154.327 533.21 154.613 532.984 154.84C532.77 155.067 532.39 155.18 531.844 155.18ZM531.844 147.26C531.297 147.26 530.91 147.147 530.684 146.92C530.47 146.693 530.364 146.407 530.364 146.06V145.7C530.364 145.353 530.47 145.067 530.684 144.84C530.91 144.613 531.297 144.5 531.844 144.5C532.39 144.5 532.77 144.613 532.984 144.84C533.21 145.067 533.324 145.353 533.324 145.7V146.06C533.324 146.407 533.21 146.693 532.984 146.92C532.77 147.147 532.39 147.26 531.844 147.26ZM560.068 155H550.748V153.28L555.408 149.08C556.088 148.467 556.648 147.84 557.088 147.2C557.528 146.547 557.748 145.86 557.748 145.14V144.9C557.748 144.06 557.528 143.413 557.088 142.96C556.648 142.493 555.995 142.26 555.128 142.26C554.275 142.26 553.615 142.48 553.148 142.92C552.695 143.347 552.355 143.92 552.128 144.64L550.628 144.08C550.761 143.667 550.941 143.267 551.168 142.88C551.408 142.48 551.708 142.127 552.068 141.82C552.428 141.513 552.861 141.267 553.368 141.08C553.888 140.893 554.488 140.8 555.168 140.8C555.861 140.8 556.475 140.9 557.008 141.1C557.555 141.3 558.008 141.58 558.368 141.94C558.741 142.3 559.021 142.727 559.208 143.22C559.408 143.713 559.508 144.253 559.508 144.84C559.508 145.373 559.428 145.873 559.268 146.34C559.121 146.807 558.908 147.253 558.628 147.68C558.361 148.107 558.035 148.527 557.648 148.94C557.275 149.34 556.855 149.74 556.388 150.14L552.488 153.54H560.068V155ZM567.07 155.24C566.217 155.24 565.484 155.08 564.87 154.76C564.257 154.427 563.75 153.953 563.35 153.34C562.95 152.727 562.657 151.973 562.47 151.08C562.284 150.187 562.19 149.167 562.19 148.02C562.19 146.887 562.284 145.873 562.47 144.98C562.657 144.073 562.95 143.313 563.35 142.7C563.75 142.087 564.257 141.62 564.87 141.3C565.484 140.967 566.217 140.8 567.07 140.8C567.924 140.8 568.657 140.967 569.27 141.3C569.884 141.62 570.39 142.087 570.79 142.7C571.19 143.313 571.484 144.073 571.67 144.98C571.857 145.873 571.95 146.887 571.95 148.02C571.95 149.167 571.857 150.187 571.67 151.08C571.484 151.973 571.19 152.727 570.79 153.34C570.39 153.953 569.884 154.427 569.27 154.76C568.657 155.08 567.924 155.24 567.07 155.24ZM567.07 153.78C567.63 153.78 568.11 153.673 568.51 153.46C568.91 153.233 569.23 152.92 569.47 152.52C569.724 152.12 569.91 151.64 570.03 151.08C570.15 150.507 570.21 149.867 570.21 149.16V146.88C570.21 146.187 570.15 145.553 570.03 144.98C569.91 144.407 569.724 143.92 569.47 143.52C569.23 143.12 568.91 142.813 568.51 142.6C568.11 142.373 567.63 142.26 567.07 142.26C566.51 142.26 566.03 142.373 565.63 142.6C565.23 142.813 564.904 143.12 564.65 143.52C564.41 143.92 564.23 144.407 564.11 144.98C563.99 145.553 563.93 146.187 563.93 146.88V149.16C563.93 149.867 563.99 150.507 564.11 151.08C564.23 151.64 564.41 152.12 564.65 152.52C564.904 152.92 565.23 153.233 565.63 153.46C566.03 153.673 566.51 153.78 567.07 153.78ZM567.07 149.2C566.604 149.2 566.277 149.107 566.09 148.92C565.917 148.733 565.83 148.507 565.83 148.24V147.8C565.83 147.533 565.917 147.307 566.09 147.12C566.277 146.933 566.604 146.84 567.07 146.84C567.537 146.84 567.857 146.933 568.03 147.12C568.217 147.307 568.31 147.533 568.31 147.8V148.24C568.31 148.507 568.217 148.733 568.03 148.92C567.857 149.107 567.537 149.2 567.07 149.2ZM583.553 155H574.233V153.28L578.893 149.08C579.573 148.467 580.133 147.84 580.573 147.2C581.013 146.547 581.233 145.86 581.233 145.14V144.9C581.233 144.06 581.013 143.413 580.573 142.96C580.133 142.493 579.479 142.26 578.613 142.26C577.759 142.26 577.099 142.48 576.633 142.92C576.179 143.347 575.839 143.92 575.613 144.64L574.113 144.08C574.246 143.667 574.426 143.267 574.653 142.88C574.893 142.48 575.193 142.127 575.553 141.82C575.913 141.513 576.346 141.267 576.853 141.08C577.373 140.893 577.973 140.8 578.653 140.8C579.346 140.8 579.959 140.9 580.493 141.1C581.039 141.3 581.493 141.58 581.853 141.94C582.226 142.3 582.506 142.727 582.693 143.22C582.893 143.713 582.993 144.253 582.993 144.84C582.993 145.373 582.913 145.873 582.753 146.34C582.606 146.807 582.393 147.253 582.113 147.68C581.846 148.107 581.519 148.527 581.133 148.94C580.759 149.34 580.339 149.74 579.873 150.14L575.973 153.54H583.553V155ZM594.575 142.5H588.335L587.935 147.84H588.075C588.421 147.373 588.808 147.007 589.235 146.74C589.661 146.46 590.248 146.32 590.995 146.32C591.608 146.32 592.168 146.42 592.675 146.62C593.195 146.807 593.641 147.087 594.015 147.46C594.388 147.833 594.681 148.287 594.895 148.82C595.108 149.34 595.215 149.94 595.215 150.62C595.215 151.3 595.108 151.927 594.895 152.5C594.681 153.06 594.368 153.547 593.955 153.96C593.541 154.36 593.041 154.673 592.455 154.9C591.868 155.127 591.201 155.24 590.455 155.24C589.868 155.24 589.341 155.173 588.875 155.04C588.421 154.907 588.015 154.727 587.655 154.5C587.308 154.273 587.001 154.02 586.735 153.74C586.468 153.46 586.228 153.167 586.015 152.86L587.275 151.9C587.461 152.18 587.648 152.433 587.835 152.66C588.035 152.887 588.261 153.087 588.515 153.26C588.768 153.42 589.055 153.547 589.375 153.64C589.695 153.733 590.068 153.78 590.495 153.78C591.455 153.78 592.188 153.52 592.695 153C593.215 152.48 593.475 151.76 593.475 150.84V150.68C593.475 149.76 593.215 149.04 592.695 148.52C592.175 148 591.428 147.74 590.455 147.74C589.788 147.74 589.268 147.853 588.895 148.08C588.535 148.307 588.201 148.587 587.895 148.92L586.475 148.72L586.975 141.04H594.575V142.5Z" fill="#FCFFBA"/>
<path d="M413.96 216.24C412.707 216.24 411.68 216.013 410.88 215.56C410.08 215.093 409.42 214.5 408.9 213.78L410.12 212.78C410.667 213.46 411.24 213.967 411.84 214.3C412.453 214.633 413.18 214.8 414.02 214.8C415.033 214.8 415.807 214.567 416.34 214.1C416.873 213.633 417.14 212.98 417.14 212.14C417.14 211.46 416.947 210.933 416.56 210.56C416.173 210.173 415.5 209.9 414.54 209.74L412.98 209.48C412.3 209.36 411.727 209.18 411.26 208.94C410.807 208.7 410.44 208.413 410.16 208.08C409.88 207.733 409.68 207.36 409.56 206.96C409.44 206.547 409.38 206.12 409.38 205.68C409.38 204.4 409.8 203.433 410.64 202.78C411.48 202.127 412.613 201.8 414.04 201.8C415.16 201.8 416.1 201.987 416.86 202.36C417.633 202.733 418.253 203.26 418.72 203.94L417.54 204.96C417.153 204.453 416.687 204.04 416.14 203.72C415.593 203.4 414.887 203.24 414.02 203.24C413.073 203.24 412.347 203.44 411.84 203.84C411.333 204.24 411.08 204.84 411.08 205.64C411.08 206.267 411.267 206.78 411.64 207.18C412.027 207.567 412.713 207.847 413.7 208.02L415.2 208.28C415.88 208.4 416.453 208.58 416.92 208.82C417.387 209.06 417.76 209.347 418.04 209.68C418.333 210.013 418.54 210.387 418.66 210.8C418.78 211.213 418.84 211.647 418.84 212.1C418.84 213.393 418.413 214.407 417.56 215.14C416.72 215.873 415.52 216.24 413.96 216.24ZM425.922 216.24C425.176 216.24 424.502 216.113 423.902 215.86C423.316 215.607 422.809 215.247 422.382 214.78C421.969 214.3 421.649 213.733 421.422 213.08C421.196 212.413 421.082 211.673 421.082 210.86C421.082 210.033 421.196 209.287 421.422 208.62C421.662 207.953 421.989 207.387 422.402 206.92C422.816 206.44 423.309 206.073 423.882 205.82C424.469 205.567 425.116 205.44 425.822 205.44C426.516 205.44 427.142 205.567 427.702 205.82C428.276 206.073 428.762 206.427 429.162 206.88C429.562 207.32 429.869 207.847 430.082 208.46C430.296 209.073 430.402 209.747 430.402 210.48V211.24H422.762V211.72C422.762 212.173 422.836 212.593 422.982 212.98C423.129 213.367 423.336 213.7 423.602 213.98C423.882 214.26 424.216 214.48 424.602 214.64C425.002 214.787 425.442 214.86 425.922 214.86C426.616 214.86 427.216 214.7 427.722 214.38C428.229 214.06 428.616 213.62 428.882 213.06L430.062 213.86C429.756 214.553 429.242 215.127 428.522 215.58C427.816 216.02 426.949 216.24 425.922 216.24ZM425.822 206.76C425.382 206.76 424.976 206.84 424.602 207C424.229 207.16 423.902 207.38 423.622 207.66C423.356 207.94 423.142 208.273 422.982 208.66C422.836 209.033 422.762 209.447 422.762 209.9V210.04H428.682V209.82C428.682 209.367 428.609 208.953 428.462 208.58C428.329 208.207 428.136 207.887 427.882 207.62C427.642 207.34 427.342 207.127 426.982 206.98C426.636 206.833 426.249 206.76 425.822 206.76ZM433.444 216V205.68H435.044V207.36H435.124C435.231 207.107 435.364 206.867 435.524 206.64C435.684 206.4 435.878 206.193 436.104 206.02C436.344 205.847 436.624 205.707 436.944 205.6C437.264 205.493 437.638 205.44 438.064 205.44C439.144 205.44 440.011 205.787 440.664 206.48C441.318 207.16 441.644 208.127 441.644 209.38V216H440.044V209.66C440.044 208.713 439.838 208.013 439.424 207.56C439.011 207.093 438.404 206.86 437.604 206.86C437.284 206.86 436.971 206.9 436.664 206.98C436.358 207.06 436.084 207.18 435.844 207.34C435.604 207.5 435.411 207.707 435.264 207.96C435.118 208.213 435.044 208.507 435.044 208.84V216H433.444ZM451.727 214.32H451.647C450.98 215.6 449.92 216.24 448.467 216.24C447.2 216.24 446.207 215.767 445.487 214.82C444.78 213.873 444.427 212.547 444.427 210.84C444.427 209.133 444.78 207.807 445.487 206.86C446.207 205.913 447.2 205.44 448.467 205.44C449.92 205.44 450.98 206.08 451.647 207.36H451.727V201.2H453.327V216H451.727V214.32ZM449.087 214.82C449.447 214.82 449.787 214.773 450.107 214.68C450.427 214.587 450.707 214.453 450.947 214.28C451.187 214.093 451.373 213.873 451.507 213.62C451.653 213.353 451.727 213.047 451.727 212.7V208.98C451.727 208.633 451.653 208.333 451.507 208.08C451.373 207.813 451.187 207.593 450.947 207.42C450.707 207.233 450.427 207.093 450.107 207C449.787 206.907 449.447 206.86 449.087 206.86C448.153 206.86 447.427 207.147 446.907 207.72C446.4 208.28 446.147 209.027 446.147 209.96V211.72C446.147 212.653 446.4 213.407 446.907 213.98C447.427 214.54 448.153 214.82 449.087 214.82ZM461.149 216.24C460.402 216.24 459.729 216.113 459.129 215.86C458.542 215.607 458.035 215.247 457.609 214.78C457.195 214.3 456.875 213.733 456.649 213.08C456.422 212.413 456.309 211.673 456.309 210.86C456.309 210.033 456.422 209.287 456.649 208.62C456.889 207.953 457.215 207.387 457.629 206.92C458.042 206.44 458.535 206.073 459.109 205.82C459.695 205.567 460.342 205.44 461.049 205.44C461.742 205.44 462.369 205.567 462.929 205.82C463.502 206.073 463.989 206.427 464.389 206.88C464.789 207.32 465.095 207.847 465.309 208.46C465.522 209.073 465.629 209.747 465.629 210.48V211.24H457.989V211.72C457.989 212.173 458.062 212.593 458.209 212.98C458.355 213.367 458.562 213.7 458.829 213.98C459.109 214.26 459.442 214.48 459.829 214.64C460.229 214.787 460.669 214.86 461.149 214.86C461.842 214.86 462.442 214.7 462.949 214.38C463.455 214.06 463.842 213.62 464.109 213.06L465.289 213.86C464.982 214.553 464.469 215.127 463.749 215.58C463.042 216.02 462.175 216.24 461.149 216.24ZM461.049 206.76C460.609 206.76 460.202 206.84 459.829 207C459.455 207.16 459.129 207.38 458.849 207.66C458.582 207.94 458.369 208.273 458.209 208.66C458.062 209.033 457.989 209.447 457.989 209.9V210.04H463.909V209.82C463.909 209.367 463.835 208.953 463.689 208.58C463.555 208.207 463.362 207.887 463.109 207.62C462.869 207.34 462.569 207.127 462.209 206.98C461.862 206.833 461.475 206.76 461.049 206.76ZM468.251 214.64H471.271V207.04H468.251V205.68H472.871V208.28H472.971C473.184 207.467 473.584 206.833 474.171 206.38C474.771 205.913 475.531 205.68 476.451 205.68H477.891V207.28H475.951C475.031 207.28 474.284 207.547 473.711 208.08C473.151 208.613 472.871 209.313 472.871 210.18V214.64H476.871V216H468.251V214.64ZM484.453 216.18C483.906 216.18 483.52 216.067 483.293 215.84C483.08 215.613 482.973 215.327 482.973 214.98V214.62C482.973 214.273 483.08 213.987 483.293 213.76C483.52 213.533 483.906 213.42 484.453 213.42C485 213.42 485.38 213.533 485.593 213.76C485.82 213.987 485.933 214.273 485.933 214.62V214.98C485.933 215.327 485.82 215.613 485.593 215.84C485.38 216.067 485 216.18 484.453 216.18ZM484.453 208.26C483.906 208.26 483.52 208.147 483.293 207.92C483.08 207.693 482.973 207.407 482.973 207.06V206.7C482.973 206.353 483.08 206.067 483.293 205.84C483.52 205.613 483.906 205.5 484.453 205.5C485 205.5 485.38 205.613 485.593 205.84C485.82 206.067 485.933 206.353 485.933 206.7V207.06C485.933 207.407 485.82 207.693 485.593 207.92C485.38 208.147 485 208.26 484.453 208.26ZM511.038 209V204.58H510.878L507.938 211.76L504.998 204.58H504.838V209V216H503.298V202.04H505.458L507.918 208.2H508.038L510.498 202.04H512.578V216H511.038V209ZM519.68 216.24C518.96 216.24 518.306 216.113 517.72 215.86C517.146 215.607 516.653 215.247 516.24 214.78C515.84 214.3 515.533 213.733 515.32 213.08C515.106 212.413 515 211.667 515 210.84C515 210.027 515.106 209.287 515.32 208.62C515.533 207.953 515.84 207.387 516.24 206.92C516.653 206.44 517.146 206.073 517.72 205.82C518.306 205.567 518.96 205.44 519.68 205.44C520.4 205.44 521.046 205.567 521.62 205.82C522.206 206.073 522.7 206.44 523.1 206.92C523.513 207.387 523.826 207.953 524.04 208.62C524.253 209.287 524.36 210.027 524.36 210.84C524.36 211.667 524.253 212.413 524.04 213.08C523.826 213.733 523.513 214.3 523.1 214.78C522.7 215.247 522.206 215.607 521.62 215.86C521.046 216.113 520.4 216.24 519.68 216.24ZM519.68 214.86C520.573 214.86 521.293 214.593 521.84 214.06C522.386 213.527 522.66 212.7 522.66 211.58V210.1C522.66 208.98 522.386 208.153 521.84 207.62C521.293 207.087 520.573 206.82 519.68 206.82C518.786 206.82 518.066 207.087 517.52 207.62C516.973 208.153 516.7 208.98 516.7 210.1V211.58C516.7 212.7 516.973 213.527 517.52 214.06C518.066 214.593 518.786 214.86 519.68 214.86ZM526.502 216V205.68H527.982V206.88H528.062C528.222 206.48 528.449 206.14 528.742 205.86C529.035 205.58 529.469 205.44 530.042 205.44C530.642 205.44 531.089 205.593 531.382 205.9C531.675 206.193 531.855 206.58 531.922 207.06H531.982C532.169 206.593 532.435 206.207 532.782 205.9C533.129 205.593 533.609 205.44 534.222 205.44C535.062 205.44 535.622 205.733 535.902 206.32C536.195 206.907 536.342 207.747 536.342 208.84V216H534.862V209.1C534.862 208.22 534.769 207.613 534.582 207.28C534.409 206.933 534.082 206.76 533.602 206.76C533.175 206.76 532.829 206.9 532.562 207.18C532.295 207.447 532.162 207.86 532.162 208.42V216H530.682V209.1C530.682 208.22 530.589 207.613 530.402 207.28C530.229 206.933 529.909 206.76 529.442 206.76C529.015 206.76 528.662 206.9 528.382 207.18C528.115 207.447 527.982 207.86 527.982 208.42V216H526.502ZM543.164 216.24C542.444 216.24 541.791 216.113 541.204 215.86C540.631 215.607 540.137 215.247 539.724 214.78C539.324 214.3 539.017 213.733 538.804 213.08C538.591 212.413 538.484 211.667 538.484 210.84C538.484 210.027 538.591 209.287 538.804 208.62C539.017 207.953 539.324 207.387 539.724 206.92C540.137 206.44 540.631 206.073 541.204 205.82C541.791 205.567 542.444 205.44 543.164 205.44C543.884 205.44 544.531 205.567 545.104 205.82C545.691 206.073 546.184 206.44 546.584 206.92C546.997 207.387 547.311 207.953 547.524 208.62C547.737 209.287 547.844 210.027 547.844 210.84C547.844 211.667 547.737 212.413 547.524 213.08C547.311 213.733 546.997 214.3 546.584 214.78C546.184 215.247 545.691 215.607 545.104 215.86C544.531 216.113 543.884 216.24 543.164 216.24ZM543.164 214.86C544.057 214.86 544.777 214.593 545.324 214.06C545.871 213.527 546.144 212.7 546.144 211.58V210.1C546.144 208.98 545.871 208.153 545.324 207.62C544.777 207.087 544.057 206.82 543.164 206.82C542.271 206.82 541.551 207.087 541.004 207.62C540.457 208.153 540.184 208.98 540.184 210.1V211.58C540.184 212.7 540.457 213.527 541.004 214.06C541.551 214.593 542.271 214.86 543.164 214.86Z" fill="#FCFFBA"/>
<defs>
<radialGradient id="paint0_radial_347_206" cx="0" cy="0" r="1" gradientUnits="userSpaceOnUse" gradientTransform="translate(479.5 220.5) rotate(90.3139) scale(366.179 586.353)">
<stop stop-color="#4E4E4E" stop-opacity="0.07"/>
<stop offset="0.9999" stop-color="#2D2545" stop-opacity="0.58"/>
</radialGradient>
</defs>
</svg>
