<svg width="507" height="33" viewBox="0 0 507 33" fill="none" xmlns="http://www.w3.org/2000/svg">
<rect y="32.9375" width="32.9373" height="32.9373" transform="rotate(-90 0 32.9375)" fill="#D2FF85"/>
<rect x="129.279" y="32.9375" width="32.9373" height="32.9373" transform="rotate(-90 129.279 32.9375)" fill="#FF5895"/>
<rect x="251.97" y="32.9375" width="32.9373" height="32.9373" transform="rotate(-90 251.97 32.9375)" fill="#928AFF"/>
<rect x="369.721" y="32.9375" width="32.9373" height="32.9373" transform="rotate(-90 369.721 32.9375)" fill="#D9D9D9"/>
<path d="M43.3274 23.5874V14.5134H46.6294C47.47 14.5134 48.1114 14.7431 48.5534 15.2024C48.9954 15.6617 49.2164 16.3031 49.2164 17.1264C49.2164 17.9497 48.9954 18.5911 48.5534 19.0504C48.1114 19.5097 47.47 19.7394 46.6294 19.7394H44.4194V23.5874H43.3274ZM44.4194 18.7904H46.6034C47.0627 18.7904 47.418 18.6777 47.6694 18.4524C47.9294 18.2184 48.0594 17.8891 48.0594 17.4644V16.7884C48.0594 16.3637 47.9294 16.0387 47.6694 15.8134C47.418 15.5794 47.0627 15.4624 46.6034 15.4624H44.4194V18.7904ZM53.6023 23.7434C53.1343 23.7434 52.7096 23.6611 52.3283 23.4964C51.9556 23.3317 51.6349 23.0977 51.3663 22.7944C51.1063 22.4824 50.9069 22.1141 50.7683 21.6894C50.6296 21.2561 50.5603 20.7707 50.5603 20.2334C50.5603 19.7047 50.6296 19.2237 50.7683 18.7904C50.9069 18.3571 51.1063 17.9887 51.3663 17.6854C51.6349 17.3734 51.9556 17.1351 52.3283 16.9704C52.7096 16.8057 53.1343 16.7234 53.6023 16.7234C54.0703 16.7234 54.4906 16.8057 54.8633 16.9704C55.2446 17.1351 55.5653 17.3734 55.8253 17.6854C56.0939 17.9887 56.2976 18.3571 56.4363 18.7904C56.5749 19.2237 56.6443 19.7047 56.6443 20.2334C56.6443 20.7707 56.5749 21.2561 56.4363 21.6894C56.2976 22.1141 56.0939 22.4824 55.8253 22.7944C55.5653 23.0977 55.2446 23.3317 54.8633 23.4964C54.4906 23.6611 54.0703 23.7434 53.6023 23.7434ZM53.6023 22.8464C54.1829 22.8464 54.6509 22.6731 55.0063 22.3264C55.3616 21.9797 55.5393 21.4424 55.5393 20.7144V19.7524C55.5393 19.0244 55.3616 18.4871 55.0063 18.1404C54.6509 17.7937 54.1829 17.6204 53.6023 17.6204C53.0216 17.6204 52.5536 17.7937 52.1983 18.1404C51.8429 18.4871 51.6653 19.0244 51.6653 19.7524V20.7144C51.6653 21.4424 51.8429 21.9797 52.1983 22.3264C52.5536 22.6731 53.0216 22.8464 53.6023 22.8464ZM61.2252 23.7434C60.5232 23.7434 59.9165 23.6264 59.4052 23.3924C58.9025 23.1497 58.4735 22.8291 58.1182 22.4304L58.8202 21.8194C59.1409 22.1574 59.4919 22.4174 59.8732 22.5994C60.2545 22.7814 60.7139 22.8724 61.2512 22.8724C61.7712 22.8724 62.1959 22.7814 62.5252 22.5994C62.8632 22.4087 63.0322 22.1141 63.0322 21.7154C63.0322 21.5421 62.9975 21.3991 62.9282 21.2864C62.8675 21.1651 62.7809 21.0697 62.6682 21.0004C62.5555 20.9311 62.4299 20.8791 62.2912 20.8444C62.1525 20.8011 62.0052 20.7664 61.8492 20.7404L60.7962 20.5844C60.5622 20.5497 60.3065 20.5021 60.0292 20.4414C59.7605 20.3807 59.5135 20.2854 59.2882 20.1554C59.0629 20.0167 58.8722 19.8347 58.7162 19.6094C58.5689 19.3841 58.4952 19.0894 58.4952 18.7254C58.4952 18.3874 58.5602 18.0971 58.6902 17.8544C58.8289 17.6031 59.0195 17.3951 59.2622 17.2304C59.5049 17.0571 59.7909 16.9314 60.1202 16.8534C60.4495 16.7667 60.8092 16.7234 61.1992 16.7234C61.8059 16.7234 62.3302 16.8187 62.7722 17.0094C63.2229 17.2001 63.6085 17.4644 63.9292 17.8024L63.2532 18.4394C63.1752 18.3441 63.0755 18.2487 62.9542 18.1534C62.8415 18.0494 62.6985 17.9584 62.5252 17.8804C62.3605 17.7937 62.1655 17.7244 61.9402 17.6724C61.7149 17.6204 61.4549 17.5944 61.1602 17.5944C60.6315 17.5944 60.2242 17.6854 59.9382 17.8674C59.6609 18.0494 59.5222 18.3137 59.5222 18.6604C59.5222 18.8337 59.5525 18.9811 59.6132 19.1024C59.6825 19.2151 59.7735 19.3061 59.8862 19.3754C59.9989 19.4447 60.1245 19.5011 60.2632 19.5444C60.4105 19.5791 60.5579 19.6094 60.7052 19.6354L61.7582 19.7914C62.0009 19.8261 62.2565 19.8737 62.5252 19.9344C62.7939 19.9951 63.0409 20.0947 63.2662 20.2334C63.4915 20.3634 63.6779 20.5411 63.8252 20.7664C63.9812 20.9917 64.0592 21.2864 64.0592 21.6504C64.0592 22.3177 63.7992 22.8334 63.2792 23.1974C62.7679 23.5614 62.0832 23.7434 61.2252 23.7434ZM69.1081 15.3974C68.8048 15.3974 68.5925 15.3367 68.4711 15.2154C68.3498 15.0854 68.2891 14.9251 68.2891 14.7344V14.5264C68.2891 14.3357 68.3498 14.1797 68.4711 14.0584C68.5925 13.9284 68.8048 13.8634 69.1081 13.8634C69.4115 13.8634 69.6238 13.9284 69.7451 14.0584C69.8665 14.1797 69.9271 14.3357 69.9271 14.5264V14.7344C69.9271 14.9251 69.8665 15.0854 69.7451 15.2154C69.6238 15.3367 69.4115 15.3974 69.1081 15.3974ZM66.1701 22.7034H68.5881V17.7634H66.1701V16.8794H69.6281V22.7034H71.8901V23.5874H66.1701V22.7034ZM76.562 23.5874C76.0507 23.5874 75.6737 23.4444 75.431 23.1584C75.197 22.8724 75.08 22.5041 75.08 22.0534V17.7634H72.844V16.8794H74.508C74.7334 16.8794 74.8894 16.8361 74.976 16.7494C75.0714 16.6541 75.119 16.4937 75.119 16.2684V14.5134H76.12V16.8794H79.175V17.7634H76.12V22.7034H79.175V23.5874H76.562ZM84.198 15.3974C83.8946 15.3974 83.6823 15.3367 83.561 15.2154C83.4396 15.0854 83.379 14.9251 83.379 14.7344V14.5264C83.379 14.3357 83.4396 14.1797 83.561 14.0584C83.6823 13.9284 83.8946 13.8634 84.198 13.8634C84.5013 13.8634 84.7136 13.9284 84.835 14.0584C84.9563 14.1797 85.017 14.3357 85.017 14.5264V14.7344C85.017 14.9251 84.9563 15.0854 84.835 15.2154C84.7136 15.3367 84.5013 15.3974 84.198 15.3974ZM81.26 22.7034H83.678V17.7634H81.26V16.8794H84.718V22.7034H86.98V23.5874H81.26V22.7034ZM90.6639 23.5874L88.2589 16.8794H89.3119L90.2739 19.6874L91.3139 22.7164H91.3659L92.4059 19.6874L93.3679 16.8794H94.3949L91.9899 23.5874H90.6639ZM98.9888 23.7434C98.5035 23.7434 98.0658 23.6611 97.6758 23.4964C97.2945 23.3317 96.9651 23.0977 96.6878 22.7944C96.4191 22.4824 96.2111 22.1141 96.0638 21.6894C95.9165 21.2561 95.8428 20.7751 95.8428 20.2464C95.8428 19.7091 95.9165 19.2237 96.0638 18.7904C96.2198 18.3571 96.4321 17.9887 96.7008 17.6854C96.9695 17.3734 97.2901 17.1351 97.6628 16.9704C98.0441 16.8057 98.4645 16.7234 98.9238 16.7234C99.3745 16.7234 99.7818 16.8057 100.146 16.9704C100.518 17.1351 100.835 17.3647 101.095 17.6594C101.355 17.9454 101.554 18.2877 101.693 18.6864C101.831 19.0851 101.901 19.5227 101.901 19.9994V20.4934H96.9348V20.8054C96.9348 21.1001 96.9825 21.3731 97.0778 21.6244C97.1731 21.8757 97.3075 22.0924 97.4808 22.2744C97.6628 22.4564 97.8795 22.5994 98.1308 22.7034C98.3908 22.7987 98.6768 22.8464 98.9888 22.8464C99.4395 22.8464 99.8295 22.7424 100.159 22.5344C100.488 22.3264 100.739 22.0404 100.913 21.6764L101.68 22.1964C101.48 22.6471 101.147 23.0197 100.679 23.3144C100.219 23.6004 99.6561 23.7434 98.9888 23.7434ZM98.9238 17.5814C98.6378 17.5814 98.3735 17.6334 98.1308 17.7374C97.8881 17.8414 97.6758 17.9844 97.4938 18.1664C97.3205 18.3484 97.1818 18.5651 97.0778 18.8164C96.9825 19.0591 96.9348 19.3277 96.9348 19.6224V19.7134H100.783V19.5704C100.783 19.2757 100.735 19.0071 100.64 18.7644C100.553 18.5217 100.427 18.3137 100.263 18.1404C100.107 17.9584 99.9118 17.8197 99.6778 17.7244C99.4525 17.6291 99.2011 17.5814 98.9238 17.5814Z" fill="white"/>
<path d="M294.809 15.9434H294.718V23.5874H293.73V14.5134H295.277L298.371 22.1574H298.462V14.5134H299.45V23.5874H297.903L294.809 15.9434ZM304.252 23.7434C303.767 23.7434 303.329 23.6611 302.939 23.4964C302.558 23.3317 302.229 23.0977 301.951 22.7944C301.683 22.4824 301.475 22.1141 301.327 21.6894C301.18 21.2561 301.106 20.7751 301.106 20.2464C301.106 19.7091 301.18 19.2237 301.327 18.7904C301.483 18.3571 301.696 17.9887 301.964 17.6854C302.233 17.3734 302.554 17.1351 302.926 16.9704C303.308 16.8057 303.728 16.7234 304.187 16.7234C304.638 16.7234 305.045 16.8057 305.409 16.9704C305.782 17.1351 306.098 17.3647 306.358 17.6594C306.618 17.9454 306.818 18.2877 306.956 18.6864C307.095 19.0851 307.164 19.5227 307.164 19.9994V20.4934H302.198V20.8054C302.198 21.1001 302.246 21.3731 302.341 21.6244C302.437 21.8757 302.571 22.0924 302.744 22.2744C302.926 22.4564 303.143 22.5994 303.394 22.7034C303.654 22.7987 303.94 22.8464 304.252 22.8464C304.703 22.8464 305.093 22.7424 305.422 22.5344C305.752 22.3264 306.003 22.0404 306.176 21.6764L306.943 22.1964C306.744 22.6471 306.41 23.0197 305.942 23.3144C305.483 23.6004 304.92 23.7434 304.252 23.7434ZM304.187 17.5814C303.901 17.5814 303.637 17.6334 303.394 17.7374C303.152 17.8414 302.939 17.9844 302.757 18.1664C302.584 18.3484 302.445 18.5651 302.341 18.8164C302.246 19.0591 302.198 19.3277 302.198 19.6224V19.7134H306.046V19.5704C306.046 19.2757 305.999 19.0071 305.903 18.7644C305.817 18.5217 305.691 18.3137 305.526 18.1404C305.37 17.9584 305.175 17.8197 304.941 17.7244C304.716 17.6291 304.465 17.5814 304.187 17.5814ZM315.073 24.3544C315.073 25.0304 314.792 25.5287 314.228 25.8494C313.665 26.1787 312.82 26.3434 311.693 26.3434C310.61 26.3434 309.83 26.2004 309.353 25.9144C308.885 25.6284 308.651 25.2167 308.651 24.6794C308.651 24.3154 308.747 24.0337 308.937 23.8344C309.128 23.6351 309.397 23.4877 309.743 23.3924V23.2364C309.553 23.1411 309.405 23.0197 309.301 22.8724C309.197 22.7251 309.145 22.5387 309.145 22.3134C309.145 21.9667 309.258 21.7067 309.483 21.5334C309.717 21.3601 310.008 21.2301 310.354 21.1434V21.0914C309.938 20.9094 309.613 20.6407 309.379 20.2854C309.154 19.9301 309.041 19.5141 309.041 19.0374C309.041 18.6994 309.102 18.3874 309.223 18.1014C309.345 17.8154 309.518 17.5727 309.743 17.3734C309.977 17.1654 310.255 17.0051 310.575 16.8924C310.896 16.7797 311.251 16.7234 311.641 16.7234C312.144 16.7234 312.586 16.8144 312.967 16.9964V16.8794C312.967 16.6194 313.028 16.4027 313.149 16.2294C313.271 16.0561 313.479 15.9694 313.773 15.9694H315.008V16.8794H313.5V17.3344C313.743 17.5424 313.929 17.7894 314.059 18.0754C314.189 18.3614 314.254 18.6821 314.254 19.0374C314.254 19.3754 314.189 19.6874 314.059 19.9734C313.938 20.2594 313.765 20.5064 313.539 20.7144C313.314 20.9137 313.037 21.0697 312.707 21.1824C312.387 21.2951 312.031 21.3514 311.641 21.3514C311.529 21.3514 311.42 21.3471 311.316 21.3384C311.212 21.3297 311.108 21.3167 311.004 21.2994C310.9 21.3167 310.792 21.3471 310.679 21.3904C310.567 21.4251 310.463 21.4771 310.367 21.5464C310.272 21.6071 310.194 21.6807 310.133 21.7674C310.073 21.8541 310.042 21.9537 310.042 22.0664C310.042 22.2657 310.142 22.4001 310.341 22.4694C310.541 22.5301 310.801 22.5604 311.121 22.5604H312.603C313.47 22.5604 314.098 22.7251 314.488 23.0544C314.878 23.3751 315.073 23.8084 315.073 24.3544ZM314.098 24.4064C314.098 24.1377 313.99 23.9211 313.773 23.7564C313.557 23.6004 313.18 23.5224 312.642 23.5224H310.315C309.865 23.7044 309.639 24.0077 309.639 24.4324C309.639 24.7271 309.756 24.9784 309.99 25.1864C310.224 25.4031 310.614 25.5114 311.16 25.5114H312.174C312.781 25.5114 313.253 25.4161 313.591 25.2254C313.929 25.0434 314.098 24.7704 314.098 24.4064ZM311.641 20.5454C312.161 20.5454 312.543 20.4241 312.785 20.1814C313.037 19.9387 313.162 19.6181 313.162 19.2194V18.8424C313.162 18.4437 313.037 18.1274 312.785 17.8934C312.543 17.6507 312.161 17.5294 311.641 17.5294C311.121 17.5294 310.74 17.6507 310.497 17.8934C310.255 18.1274 310.133 18.4437 310.133 18.8424V19.2194C310.133 19.6181 310.255 19.9387 310.497 20.1814C310.74 20.4241 311.121 20.5454 311.641 20.5454ZM321.76 23.5874C321.353 23.5874 321.062 23.4834 320.889 23.2754C320.716 23.0674 320.607 22.8074 320.564 22.4954H320.499C320.352 22.8854 320.113 23.1931 319.784 23.4184C319.463 23.6351 319.03 23.7434 318.484 23.7434C317.782 23.7434 317.223 23.5614 316.807 23.1974C316.391 22.8334 316.183 22.3351 316.183 21.7024C316.183 21.0784 316.408 20.5974 316.859 20.2594C317.318 19.9214 318.055 19.7524 319.069 19.7524H320.499V19.0894C320.499 18.5954 320.36 18.2271 320.083 17.9844C319.806 17.7331 319.411 17.6074 318.9 17.6074C318.449 17.6074 318.081 17.6984 317.795 17.8804C317.509 18.0537 317.279 18.2921 317.106 18.5954L316.404 18.0754C316.491 17.9021 316.608 17.7331 316.755 17.5684C316.902 17.4037 317.084 17.2607 317.301 17.1394C317.518 17.0094 317.765 16.9097 318.042 16.8404C318.319 16.7624 318.627 16.7234 318.965 16.7234C319.754 16.7234 320.378 16.9227 320.837 17.3214C321.305 17.7201 321.539 18.2747 321.539 18.9854V22.6774H322.475V23.5874H321.76ZM318.666 22.8724C318.935 22.8724 319.177 22.8421 319.394 22.7814C319.619 22.7121 319.814 22.6254 319.979 22.5214C320.144 22.4087 320.269 22.2787 320.356 22.1314C320.451 21.9754 320.499 21.8107 320.499 21.6374V20.5324H319.069C318.445 20.5324 317.99 20.6191 317.704 20.7924C317.418 20.9657 317.275 21.2171 317.275 21.5464V21.8194C317.275 22.1661 317.396 22.4304 317.639 22.6124C317.89 22.7857 318.233 22.8724 318.666 22.8724ZM327.095 23.5874C326.584 23.5874 326.207 23.4444 325.964 23.1584C325.73 22.8724 325.613 22.5041 325.613 22.0534V17.7634H323.377V16.8794H325.041C325.266 16.8794 325.422 16.8361 325.509 16.7494C325.604 16.6541 325.652 16.4937 325.652 16.2684V14.5134H326.653V16.8794H329.708V17.7634H326.653V22.7034H329.708V23.5874H327.095ZM334.731 15.3974C334.428 15.3974 334.215 15.3367 334.094 15.2154C333.973 15.0854 333.912 14.9251 333.912 14.7344V14.5264C333.912 14.3357 333.973 14.1797 334.094 14.0584C334.215 13.9284 334.428 13.8634 334.731 13.8634C335.034 13.8634 335.247 13.9284 335.368 14.0584C335.489 14.1797 335.55 14.3357 335.55 14.5264V14.7344C335.55 14.9251 335.489 15.0854 335.368 15.2154C335.247 15.3367 335.034 15.3974 334.731 15.3974ZM331.793 22.7034H334.211V17.7634H331.793V16.8794H335.251V22.7034H337.513V23.5874H331.793V22.7034ZM341.197 23.5874L338.792 16.8794H339.845L340.807 19.6874L341.847 22.7164H341.899L342.939 19.6874L343.901 16.8794H344.928L342.523 23.5874H341.197ZM349.522 23.7434C349.036 23.7434 348.599 23.6611 348.209 23.4964C347.827 23.3317 347.498 23.0977 347.221 22.7944C346.952 22.4824 346.744 22.1141 346.597 21.6894C346.449 21.2561 346.376 20.7751 346.376 20.2464C346.376 19.7091 346.449 19.2237 346.597 18.7904C346.753 18.3571 346.965 17.9887 347.234 17.6854C347.502 17.3734 347.823 17.1351 348.196 16.9704C348.577 16.8057 348.997 16.7234 349.457 16.7234C349.907 16.7234 350.315 16.8057 350.679 16.9704C351.051 17.1351 351.368 17.3647 351.628 17.6594C351.888 17.9454 352.087 18.2877 352.226 18.6864C352.364 19.0851 352.434 19.5227 352.434 19.9994V20.4934H347.468V20.8054C347.468 21.1001 347.515 21.3731 347.611 21.6244C347.706 21.8757 347.84 22.0924 348.014 22.2744C348.196 22.4564 348.412 22.5994 348.664 22.7034C348.924 22.7987 349.21 22.8464 349.522 22.8464C349.972 22.8464 350.362 22.7424 350.692 22.5344C351.021 22.3264 351.272 22.0404 351.446 21.6764L352.213 22.1964C352.013 22.6471 351.68 23.0197 351.212 23.3144C350.752 23.6004 350.189 23.7434 349.522 23.7434ZM349.457 17.5814C349.171 17.5814 348.906 17.6334 348.664 17.7374C348.421 17.8414 348.209 17.9844 348.027 18.1664C347.853 18.3484 347.715 18.5651 347.611 18.8164C347.515 19.0591 347.468 19.3277 347.468 19.6224V19.7134H351.316V19.5704C351.316 19.2757 351.268 19.0071 351.173 18.7644C351.086 18.5217 350.96 18.3137 350.796 18.1404C350.64 17.9584 350.445 17.8197 350.211 17.7244C349.985 17.6291 349.734 17.5814 349.457 17.5814Z" fill="white"/>
<path d="M174.857 15.9434H174.766V23.5874H173.778V14.5134H175.325L178.419 22.1574H178.51V14.5134H179.498V23.5874H177.951L174.857 15.9434ZM184.3 23.7434C183.815 23.7434 183.377 23.6611 182.987 23.4964C182.606 23.3317 182.277 23.0977 181.999 22.7944C181.731 22.4824 181.523 22.1141 181.375 21.6894C181.228 21.2561 181.154 20.7751 181.154 20.2464C181.154 19.7091 181.228 19.2237 181.375 18.7904C181.531 18.3571 181.744 17.9887 182.012 17.6854C182.281 17.3734 182.602 17.1351 182.974 16.9704C183.356 16.8057 183.776 16.7234 184.235 16.7234C184.686 16.7234 185.093 16.8057 185.457 16.9704C185.83 17.1351 186.146 17.3647 186.406 17.6594C186.666 17.9454 186.866 18.2877 187.004 18.6864C187.143 19.0851 187.212 19.5227 187.212 19.9994V20.4934H182.246V20.8054C182.246 21.1001 182.294 21.3731 182.389 21.6244C182.485 21.8757 182.619 22.0924 182.792 22.2744C182.974 22.4564 183.191 22.5994 183.442 22.7034C183.702 22.7987 183.988 22.8464 184.3 22.8464C184.751 22.8464 185.141 22.7424 185.47 22.5344C185.8 22.3264 186.051 22.0404 186.224 21.6764L186.991 22.1964C186.792 22.6471 186.458 23.0197 185.99 23.3144C185.531 23.6004 184.968 23.7434 184.3 23.7434ZM184.235 17.5814C183.949 17.5814 183.685 17.6334 183.442 17.7374C183.2 17.8414 182.987 17.9844 182.805 18.1664C182.632 18.3484 182.493 18.5651 182.389 18.8164C182.294 19.0591 182.246 19.3277 182.246 19.6224V19.7134H186.094V19.5704C186.094 19.2757 186.047 19.0071 185.951 18.7644C185.865 18.5217 185.739 18.3137 185.574 18.1404C185.418 17.9584 185.223 17.8197 184.989 17.7244C184.764 17.6291 184.513 17.5814 184.235 17.5814ZM193.314 22.4954H193.262C193.193 22.6601 193.106 22.8204 193.002 22.9764C192.898 23.1237 192.768 23.2537 192.612 23.3664C192.465 23.4791 192.287 23.5701 192.079 23.6394C191.871 23.7087 191.629 23.7434 191.351 23.7434C190.649 23.7434 190.086 23.5224 189.661 23.0804C189.237 22.6297 189.024 21.9971 189.024 21.1824V16.8794H190.064V21.0004C190.064 21.6157 190.199 22.0751 190.467 22.3784C190.736 22.6731 191.13 22.8204 191.65 22.8204C191.858 22.8204 192.062 22.7944 192.261 22.7424C192.461 22.6904 192.638 22.6124 192.794 22.5084C192.95 22.4044 193.076 22.2744 193.171 22.1184C193.267 21.9537 193.314 21.7587 193.314 21.5334V16.8794H194.354V23.5874H193.314V22.4954ZM199.598 23.5874C199.087 23.5874 198.71 23.4444 198.467 23.1584C198.233 22.8724 198.116 22.5041 198.116 22.0534V17.7634H195.88V16.8794H197.544C197.769 16.8794 197.925 16.8361 198.012 16.7494C198.107 16.6541 198.155 16.4937 198.155 16.2684V14.5134H199.156V16.8794H202.211V17.7634H199.156V22.7034H202.211V23.5874H199.598ZM203.919 22.7034H205.882V17.7634H203.919V16.8794H206.922V18.5694H206.987C207.126 18.0407 207.386 17.6291 207.767 17.3344C208.157 17.0311 208.651 16.8794 209.249 16.8794H210.185V17.9194H208.924C208.326 17.9194 207.841 18.0927 207.468 18.4394C207.104 18.7861 206.922 19.2411 206.922 19.8044V22.7034H209.522V23.5874H203.919V22.7034ZM216.898 23.5874C216.491 23.5874 216.2 23.4834 216.027 23.2754C215.854 23.0674 215.745 22.8074 215.702 22.4954H215.637C215.49 22.8854 215.251 23.1931 214.922 23.4184C214.601 23.6351 214.168 23.7434 213.622 23.7434C212.92 23.7434 212.361 23.5614 211.945 23.1974C211.529 22.8334 211.321 22.3351 211.321 21.7024C211.321 21.0784 211.546 20.5974 211.997 20.2594C212.456 19.9214 213.193 19.7524 214.207 19.7524H215.637V19.0894C215.637 18.5954 215.498 18.2271 215.221 17.9844C214.944 17.7331 214.549 17.6074 214.038 17.6074C213.587 17.6074 213.219 17.6984 212.933 17.8804C212.647 18.0537 212.417 18.2921 212.244 18.5954L211.542 18.0754C211.629 17.9021 211.746 17.7331 211.893 17.5684C212.04 17.4037 212.222 17.2607 212.439 17.1394C212.656 17.0094 212.903 16.9097 213.18 16.8404C213.457 16.7624 213.765 16.7234 214.103 16.7234C214.892 16.7234 215.516 16.9227 215.975 17.3214C216.443 17.7201 216.677 18.2747 216.677 18.9854V22.6774H217.613V23.5874H216.898ZM213.804 22.8724C214.073 22.8724 214.315 22.8421 214.532 22.7814C214.757 22.7121 214.952 22.6254 215.117 22.5214C215.282 22.4087 215.407 22.2787 215.494 22.1314C215.589 21.9754 215.637 21.8107 215.637 21.6374V20.5324H214.207C213.583 20.5324 213.128 20.6191 212.842 20.7924C212.556 20.9657 212.413 21.2171 212.413 21.5464V21.8194C212.413 22.1661 212.534 22.4304 212.777 22.6124C213.028 22.7857 213.371 22.8724 213.804 22.8724ZM219.048 22.7034H221.388V14.8514H219.048V13.9674H222.428V22.7034H224.768V23.5874H219.048V22.7034Z" fill="white"/>
<path d="M419.885 14.926H422.42C423.53 14.926 424.357 15.3073 424.903 16.07C425.449 16.8327 425.722 17.9637 425.722 19.463C425.722 20.9623 425.449 22.0933 424.903 22.856C424.357 23.6187 423.53 24 422.42 24H419.885V14.926ZM422.368 23.051C423.096 23.051 423.642 22.7997 424.006 22.297C424.379 21.7943 424.565 21.0837 424.565 20.165V18.761C424.565 17.8423 424.379 17.1317 424.006 16.629C423.642 16.1263 423.096 15.875 422.368 15.875H420.977V23.051H422.368ZM430.095 24.156C429.627 24.156 429.203 24.0737 428.821 23.909C428.449 23.7443 428.128 23.5103 427.859 23.207C427.599 22.895 427.4 22.5267 427.261 22.102C427.123 21.6687 427.053 21.1833 427.053 20.646C427.053 20.1173 427.123 19.6363 427.261 19.203C427.4 18.7697 427.599 18.4013 427.859 18.098C428.128 17.786 428.449 17.5477 428.821 17.383C429.203 17.2183 429.627 17.136 430.095 17.136C430.563 17.136 430.984 17.2183 431.356 17.383C431.738 17.5477 432.058 17.786 432.318 18.098C432.587 18.4013 432.791 18.7697 432.929 19.203C433.068 19.6363 433.137 20.1173 433.137 20.646C433.137 21.1833 433.068 21.6687 432.929 22.102C432.791 22.5267 432.587 22.895 432.318 23.207C432.058 23.5103 431.738 23.7443 431.356 23.909C430.984 24.0737 430.563 24.156 430.095 24.156ZM430.095 23.259C430.676 23.259 431.144 23.0857 431.499 22.739C431.855 22.3923 432.032 21.855 432.032 21.127V20.165C432.032 19.437 431.855 18.8997 431.499 18.553C431.144 18.2063 430.676 18.033 430.095 18.033C429.515 18.033 429.047 18.2063 428.691 18.553C428.336 18.8997 428.158 19.437 428.158 20.165V21.127C428.158 21.855 428.336 22.3923 428.691 22.739C429.047 23.0857 429.515 23.259 430.095 23.259ZM435.014 24V17.292H436.054V18.384H436.106C436.176 18.2193 436.262 18.0633 436.366 17.916C436.47 17.76 436.596 17.6257 436.743 17.513C436.899 17.4003 437.081 17.3093 437.289 17.24C437.497 17.1707 437.74 17.136 438.017 17.136C438.719 17.136 439.283 17.3613 439.707 17.812C440.132 18.254 440.344 18.8823 440.344 19.697V24H439.304V19.879C439.304 19.2637 439.17 18.8087 438.901 18.514C438.633 18.2107 438.238 18.059 437.718 18.059C437.51 18.059 437.307 18.085 437.107 18.137C436.908 18.189 436.73 18.267 436.574 18.371C436.418 18.475 436.293 18.6093 436.197 18.774C436.102 18.9387 436.054 19.1293 436.054 19.346V24H435.014ZM444.873 14.38H446.55L445.055 17.981H444.184L444.873 14.38ZM453.055 24C452.544 24 452.167 23.857 451.924 23.571C451.69 23.285 451.573 22.9167 451.573 22.466V18.176H449.337V17.292H451.001C451.226 17.292 451.382 17.2487 451.469 17.162C451.564 17.0667 451.612 16.9063 451.612 16.681V14.926H452.613V17.292H455.668V18.176H452.613V23.116H455.668V24H453.055ZM465.285 14.38H466.325V20.451H466.377L467.547 19.346L469.783 17.292H471.057L468.275 19.918L471.382 24H470.095L467.482 20.516L466.325 21.569V24H465.285V14.38ZM472.739 24V17.292H473.779V18.384H473.831C473.9 18.2193 473.987 18.0633 474.091 17.916C474.195 17.76 474.321 17.6257 474.468 17.513C474.624 17.4003 474.806 17.3093 475.014 17.24C475.222 17.1707 475.465 17.136 475.742 17.136C476.444 17.136 477.007 17.3613 477.432 17.812C477.857 18.254 478.069 18.8823 478.069 19.697V24H477.029V19.879C477.029 19.2637 476.895 18.8087 476.626 18.514C476.357 18.2107 475.963 18.059 475.443 18.059C475.235 18.059 475.031 18.085 474.832 18.137C474.633 18.189 474.455 18.267 474.299 18.371C474.143 18.475 474.017 18.6093 473.922 18.774C473.827 18.9387 473.779 19.1293 473.779 19.346V24H472.739ZM482.91 24.156C482.442 24.156 482.017 24.0737 481.636 23.909C481.263 23.7443 480.942 23.5103 480.674 23.207C480.414 22.895 480.214 22.5267 480.076 22.102C479.937 21.6687 479.868 21.1833 479.868 20.646C479.868 20.1173 479.937 19.6363 480.076 19.203C480.214 18.7697 480.414 18.4013 480.674 18.098C480.942 17.786 481.263 17.5477 481.636 17.383C482.017 17.2183 482.442 17.136 482.91 17.136C483.378 17.136 483.798 17.2183 484.171 17.383C484.552 17.5477 484.873 17.786 485.133 18.098C485.401 18.4013 485.605 18.7697 485.744 19.203C485.882 19.6363 485.952 20.1173 485.952 20.646C485.952 21.1833 485.882 21.6687 485.744 22.102C485.605 22.5267 485.401 22.895 485.133 23.207C484.873 23.5103 484.552 23.7443 484.171 23.909C483.798 24.0737 483.378 24.156 482.91 24.156ZM482.91 23.259C483.49 23.259 483.958 23.0857 484.314 22.739C484.669 22.3923 484.847 21.855 484.847 21.127V20.165C484.847 19.437 484.669 18.8997 484.314 18.553C483.958 18.2063 483.49 18.033 482.91 18.033C482.329 18.033 481.861 18.2063 481.506 18.553C481.15 18.8997 480.973 19.437 480.973 20.165V21.127C480.973 21.855 481.15 22.3923 481.506 22.739C481.861 23.0857 482.329 23.259 482.91 23.259ZM486.945 17.292H487.868L488.635 23.09H488.752L489.896 17.292H491.04L492.184 23.09H492.301L493.068 17.292H493.965L492.938 24H491.586L490.52 18.384H490.416L489.324 24H487.972L486.945 17.292Z" fill="white"/>
</svg>
