<svg width="630" height="95" viewBox="0 0 630 95" fill="none" xmlns="http://www.w3.org/2000/svg">
<rect width="619" height="95" fill="#D63789" fill-opacity="0.65"/>
<path d="M13.4 38V24.04H15.08V36.54H21.7V38H13.4ZM28.7422 38.24C28.0222 38.24 27.3689 38.1133 26.7822 37.86C26.2089 37.6067 25.7155 37.2467 25.3022 36.78C24.9022 36.3 24.5955 35.7333 24.3822 35.08C24.1689 34.4133 24.0622 33.6667 24.0622 32.84C24.0622 32.0267 24.1689 31.2867 24.3822 30.62C24.5955 29.9533 24.9022 29.3867 25.3022 28.92C25.7155 28.44 26.2089 28.0733 26.7822 27.82C27.3689 27.5667 28.0222 27.44 28.7422 27.44C29.4622 27.44 30.1089 27.5667 30.6822 27.82C31.2689 28.0733 31.7622 28.44 32.1622 28.92C32.5755 29.3867 32.8889 29.9533 33.1022 30.62C33.3155 31.2867 33.4222 32.0267 33.4222 32.84C33.4222 33.6667 33.3155 34.4133 33.1022 35.08C32.8889 35.7333 32.5755 36.3 32.1622 36.78C31.7622 37.2467 31.2689 37.6067 30.6822 37.86C30.1089 38.1133 29.4622 38.24 28.7422 38.24ZM28.7422 36.86C29.6355 36.86 30.3555 36.5933 30.9022 36.06C31.4489 35.5267 31.7222 34.7 31.7222 33.58V32.1C31.7222 30.98 31.4489 30.1533 30.9022 29.62C30.3555 29.0867 29.6355 28.82 28.7422 28.82C27.8489 28.82 27.1289 29.0867 26.5822 29.62C26.0355 30.1533 25.7622 30.98 25.7622 32.1V33.58C25.7622 34.7 26.0355 35.5267 26.5822 36.06C27.1289 36.5933 27.8489 36.86 28.7422 36.86ZM40.4844 38.24C39.7644 38.24 39.111 38.1133 38.5244 37.86C37.951 37.6067 37.4577 37.2467 37.0444 36.78C36.6444 36.3 36.3377 35.7333 36.1244 35.08C35.911 34.4133 35.8044 33.6667 35.8044 32.84C35.8044 32.0267 35.911 31.2867 36.1244 30.62C36.3377 29.9533 36.6444 29.3867 37.0444 28.92C37.4577 28.44 37.951 28.0733 38.5244 27.82C39.111 27.5667 39.7644 27.44 40.4844 27.44C41.2044 27.44 41.851 27.5667 42.4244 27.82C43.011 28.0733 43.5044 28.44 43.9044 28.92C44.3177 29.3867 44.631 29.9533 44.8444 30.62C45.0577 31.2867 45.1644 32.0267 45.1644 32.84C45.1644 33.6667 45.0577 34.4133 44.8444 35.08C44.631 35.7333 44.3177 36.3 43.9044 36.78C43.5044 37.2467 43.011 37.6067 42.4244 37.86C41.851 38.1133 41.2044 38.24 40.4844 38.24ZM40.4844 36.86C41.3777 36.86 42.0977 36.5933 42.6444 36.06C43.191 35.5267 43.4644 34.7 43.4644 33.58V32.1C43.4644 30.98 43.191 30.1533 42.6444 29.62C42.0977 29.0867 41.3777 28.82 40.4844 28.82C39.591 28.82 38.871 29.0867 38.3244 29.62C37.7777 30.1533 37.5044 30.98 37.5044 32.1V33.58C37.5044 34.7 37.7777 35.5267 38.3244 36.06C38.871 36.5933 39.591 36.86 40.4844 36.86ZM48.3266 23.2H49.9266V32.54H50.0066L51.8066 30.84L55.2466 27.68H57.2066L52.9266 31.72L57.7066 38H55.7266L51.7066 32.64L49.9266 34.26V38H48.3266V23.2ZM64.6088 25.4C64.1421 25.4 63.8154 25.3067 63.6288 25.12C63.4421 24.92 63.3488 24.6733 63.3488 24.38V24.06C63.3488 23.7667 63.4421 23.5267 63.6288 23.34C63.8154 23.14 64.1421 23.04 64.6088 23.04C65.0754 23.04 65.4021 23.14 65.5888 23.34C65.7754 23.5267 65.8688 23.7667 65.8688 24.06V24.38C65.8688 24.6733 65.7754 24.92 65.5888 25.12C65.4021 25.3067 65.0754 25.4 64.6088 25.4ZM60.0888 36.64H63.8088V29.04H60.0888V27.68H65.4088V36.64H68.8888V38H60.0888V36.64ZM71.6709 38V27.68H73.2709V29.36H73.3509C73.4576 29.1067 73.5909 28.8667 73.7509 28.64C73.9109 28.4 74.1043 28.1933 74.3309 28.02C74.5709 27.8467 74.8509 27.7067 75.1709 27.6C75.4909 27.4933 75.8643 27.44 76.2909 27.44C77.3709 27.44 78.2376 27.7867 78.8909 28.48C79.5443 29.16 79.8709 30.1267 79.8709 31.38V38H78.2709V31.66C78.2709 30.7133 78.0643 30.0133 77.6509 29.56C77.2376 29.0933 76.6309 28.86 75.8309 28.86C75.5109 28.86 75.1976 28.9 74.8909 28.98C74.5843 29.06 74.3109 29.18 74.0709 29.34C73.8309 29.5 73.6376 29.7067 73.4909 29.96C73.3443 30.2133 73.2709 30.5067 73.2709 30.84V38H71.6709ZM92.6731 39.18C92.6731 40.22 92.2398 40.9867 91.3731 41.48C90.5065 41.9867 89.2065 42.24 87.4731 42.24C85.8065 42.24 84.6065 42.02 83.8731 41.58C83.1531 41.14 82.7931 40.5067 82.7931 39.68C82.7931 39.12 82.9398 38.6867 83.2331 38.38C83.5265 38.0733 83.9398 37.8467 84.4731 37.7V37.46C84.1798 37.3133 83.9531 37.1267 83.7931 36.9C83.6331 36.6733 83.5531 36.3867 83.5531 36.04C83.5531 35.5067 83.7265 35.1067 84.0731 34.84C84.4331 34.5733 84.8798 34.3733 85.4131 34.24V34.16C84.7731 33.88 84.2731 33.4667 83.9131 32.92C83.5665 32.3733 83.3931 31.7333 83.3931 31C83.3931 30.48 83.4865 30 83.6731 29.56C83.8598 29.12 84.1265 28.7467 84.4731 28.44C84.8331 28.12 85.2598 27.8733 85.7531 27.7C86.2465 27.5267 86.7931 27.44 87.3931 27.44C88.1665 27.44 88.8465 27.58 89.4331 27.86V27.68C89.4331 27.28 89.5265 26.9467 89.7131 26.68C89.8998 26.4133 90.2198 26.28 90.6731 26.28H92.5731V27.68H90.2531V28.38C90.6265 28.7 90.9131 29.08 91.1131 29.52C91.3131 29.96 91.4131 30.4533 91.4131 31C91.4131 31.52 91.3131 32 91.1131 32.44C90.9265 32.88 90.6598 33.26 90.3131 33.58C89.9665 33.8867 89.5398 34.1267 89.0331 34.3C88.5398 34.4733 87.9931 34.56 87.3931 34.56C87.2198 34.56 87.0531 34.5533 86.8931 34.54C86.7331 34.5267 86.5731 34.5067 86.4131 34.48C86.2531 34.5067 86.0865 34.5533 85.9131 34.62C85.7398 34.6733 85.5798 34.7533 85.4331 34.86C85.2865 34.9533 85.1665 35.0667 85.0731 35.2C84.9798 35.3333 84.9331 35.4867 84.9331 35.66C84.9331 35.9667 85.0865 36.1733 85.3931 36.28C85.6998 36.3733 86.0998 36.42 86.5931 36.42H88.8731C90.2065 36.42 91.1731 36.6733 91.7731 37.18C92.3731 37.6733 92.6731 38.34 92.6731 39.18ZM91.1731 39.26C91.1731 38.8467 91.0065 38.5133 90.6731 38.26C90.3398 38.02 89.7598 37.9 88.9331 37.9H85.3531C84.6598 38.18 84.3131 38.6467 84.3131 39.3C84.3131 39.7533 84.4931 40.14 84.8531 40.46C85.2131 40.7933 85.8131 40.96 86.6531 40.96H88.2131C89.1465 40.96 89.8731 40.8133 90.3931 40.52C90.9131 40.24 91.1731 39.82 91.1731 39.26ZM87.3931 33.32C88.1931 33.32 88.7798 33.1333 89.1531 32.76C89.5398 32.3867 89.7331 31.8933 89.7331 31.28V30.7C89.7331 30.0867 89.5398 29.6 89.1531 29.24C88.7798 28.8667 88.1931 28.68 87.3931 28.68C86.5931 28.68 86.0065 28.8667 85.6331 29.24C85.2598 29.6 85.0731 30.0867 85.0731 30.7V31.28C85.0731 31.8933 85.2598 32.3867 85.6331 32.76C86.0065 33.1333 86.5931 33.32 87.3931 33.32ZM106.838 23.2H108.438V29.36H108.518C109.184 28.08 110.244 27.44 111.698 27.44C112.964 27.44 113.951 27.9133 114.658 28.86C115.378 29.8067 115.738 31.1333 115.738 32.84C115.738 34.5467 115.378 35.8733 114.658 36.82C113.951 37.7667 112.964 38.24 111.698 38.24C110.244 38.24 109.184 37.6 108.518 36.32H108.438V38H106.838V23.2ZM111.078 36.82C112.011 36.82 112.731 36.54 113.238 35.98C113.758 35.4067 114.018 34.6533 114.018 33.72V31.96C114.018 31.0267 113.758 30.28 113.238 29.72C112.731 29.1467 112.011 28.86 111.078 28.86C110.718 28.86 110.378 28.9067 110.058 29C109.738 29.0933 109.458 29.2333 109.218 29.42C108.978 29.5933 108.784 29.8133 108.638 30.08C108.504 30.3333 108.438 30.6333 108.438 30.98V34.7C108.438 35.0467 108.504 35.3533 108.638 35.62C108.784 35.8733 108.978 36.0933 109.218 36.28C109.458 36.4533 109.738 36.5867 110.058 36.68C110.378 36.7733 110.718 36.82 111.078 36.82ZM122.86 38.24C122.113 38.24 121.44 38.1133 120.84 37.86C120.253 37.6067 119.746 37.2467 119.32 36.78C118.906 36.3 118.586 35.7333 118.36 35.08C118.133 34.4133 118.02 33.6733 118.02 32.86C118.02 32.0333 118.133 31.2867 118.36 30.62C118.6 29.9533 118.926 29.3867 119.34 28.92C119.753 28.44 120.246 28.0733 120.82 27.82C121.406 27.5667 122.053 27.44 122.76 27.44C123.453 27.44 124.08 27.5667 124.64 27.82C125.213 28.0733 125.7 28.4267 126.1 28.88C126.5 29.32 126.806 29.8467 127.02 30.46C127.233 31.0733 127.34 31.7467 127.34 32.48V33.24H119.7V33.72C119.7 34.1733 119.773 34.5933 119.92 34.98C120.066 35.3667 120.273 35.7 120.54 35.98C120.82 36.26 121.153 36.48 121.54 36.64C121.94 36.7867 122.38 36.86 122.86 36.86C123.553 36.86 124.153 36.7 124.66 36.38C125.166 36.06 125.553 35.62 125.82 35.06L127 35.86C126.693 36.5533 126.18 37.1267 125.46 37.58C124.753 38.02 123.886 38.24 122.86 38.24ZM122.76 28.76C122.32 28.76 121.913 28.84 121.54 29C121.166 29.16 120.84 29.38 120.56 29.66C120.293 29.94 120.08 30.2733 119.92 30.66C119.773 31.0333 119.7 31.4467 119.7 31.9V32.04H125.62V31.82C125.62 31.3667 125.546 30.9533 125.4 30.58C125.266 30.2067 125.073 29.8867 124.82 29.62C124.58 29.34 124.28 29.1267 123.92 28.98C123.573 28.8333 123.186 28.76 122.76 28.76ZM137.762 27.68H139.362L134.242 40.26C134.122 40.5533 133.989 40.8067 133.842 41.02C133.695 41.2467 133.522 41.4267 133.322 41.56C133.122 41.7067 132.882 41.8133 132.602 41.88C132.322 41.96 131.989 42 131.602 42H130.082V40.64H132.482L133.642 37.8L129.482 27.68H131.122L132.862 32L134.402 35.92H134.482L136.022 32L137.762 27.68ZM146.164 38.24C145.444 38.24 144.791 38.1133 144.204 37.86C143.631 37.6067 143.137 37.2467 142.724 36.78C142.324 36.3 142.017 35.7333 141.804 35.08C141.591 34.4133 141.484 33.6667 141.484 32.84C141.484 32.0267 141.591 31.2867 141.804 30.62C142.017 29.9533 142.324 29.3867 142.724 28.92C143.137 28.44 143.631 28.0733 144.204 27.82C144.791 27.5667 145.444 27.44 146.164 27.44C146.884 27.44 147.531 27.5667 148.104 27.82C148.691 28.0733 149.184 28.44 149.584 28.92C149.997 29.3867 150.311 29.9533 150.524 30.62C150.737 31.2867 150.844 32.0267 150.844 32.84C150.844 33.6667 150.737 34.4133 150.524 35.08C150.311 35.7333 149.997 36.3 149.584 36.78C149.184 37.2467 148.691 37.6067 148.104 37.86C147.531 38.1133 146.884 38.24 146.164 38.24ZM146.164 36.86C147.057 36.86 147.777 36.5933 148.324 36.06C148.871 35.5267 149.144 34.7 149.144 33.58V32.1C149.144 30.98 148.871 30.1533 148.324 29.62C147.777 29.0867 147.057 28.82 146.164 28.82C145.271 28.82 144.551 29.0867 144.004 29.62C143.457 30.1533 143.184 30.98 143.184 32.1V33.58C143.184 34.7 143.457 35.5267 144.004 36.06C144.551 36.5933 145.271 36.86 146.164 36.86ZM153.866 38V27.68H155.466V29.36H155.546C155.653 29.1067 155.786 28.8667 155.946 28.64C156.106 28.4 156.3 28.1933 156.526 28.02C156.766 27.8467 157.046 27.7067 157.366 27.6C157.686 27.4933 158.06 27.44 158.486 27.44C159.566 27.44 160.433 27.7867 161.086 28.48C161.74 29.16 162.066 30.1267 162.066 31.38V38H160.466V31.66C160.466 30.7133 160.26 30.0133 159.846 29.56C159.433 29.0933 158.826 28.86 158.026 28.86C157.706 28.86 157.393 28.9 157.086 28.98C156.78 29.06 156.506 29.18 156.266 29.34C156.026 29.5 155.833 29.7067 155.686 29.96C155.54 30.2133 155.466 30.5067 155.466 30.84V38H153.866ZM172.148 36.32H172.068C171.402 37.6 170.342 38.24 168.888 38.24C167.622 38.24 166.628 37.7667 165.908 36.82C165.202 35.8733 164.848 34.5467 164.848 32.84C164.848 31.1333 165.202 29.8067 165.908 28.86C166.628 27.9133 167.622 27.44 168.888 27.44C170.342 27.44 171.402 28.08 172.068 29.36H172.148V23.2H173.748V38H172.148V36.32ZM169.508 36.82C169.868 36.82 170.208 36.7733 170.528 36.68C170.848 36.5867 171.128 36.4533 171.368 36.28C171.608 36.0933 171.795 35.8733 171.928 35.62C172.075 35.3533 172.148 35.0467 172.148 34.7V30.98C172.148 30.6333 172.075 30.3333 171.928 30.08C171.795 29.8133 171.608 29.5933 171.368 29.42C171.128 29.2333 170.848 29.0933 170.528 29C170.208 28.9067 169.868 28.86 169.508 28.86C168.575 28.86 167.848 29.1467 167.328 29.72C166.822 30.28 166.568 31.0267 166.568 31.96V33.72C166.568 34.6533 166.822 35.4067 167.328 35.98C167.848 36.54 168.575 36.82 169.508 36.82ZM193.633 38C192.846 38 192.266 37.78 191.893 37.34C191.533 36.9 191.353 36.3333 191.353 35.64V29.04H187.913V27.68H190.473C190.819 27.68 191.059 27.6133 191.193 27.48C191.339 27.3333 191.413 27.0867 191.413 26.74V24.04H192.953V27.68H197.653V29.04H192.953V36.64H197.653V38H193.633ZM200.835 23.2H202.435V29.36H202.515C202.622 29.1067 202.755 28.8667 202.915 28.64C203.075 28.4 203.268 28.1933 203.495 28.02C203.735 27.8467 204.015 27.7067 204.335 27.6C204.655 27.4933 205.028 27.44 205.455 27.44C206.535 27.44 207.402 27.7867 208.055 28.48C208.708 29.16 209.035 30.1267 209.035 31.38V38H207.435V31.66C207.435 30.7133 207.228 30.0133 206.815 29.56C206.402 29.0933 205.795 28.86 204.995 28.86C204.675 28.86 204.362 28.9 204.055 28.98C203.748 29.06 203.475 29.18 203.235 29.34C202.995 29.5 202.802 29.7067 202.655 29.96C202.508 30.2133 202.435 30.5067 202.435 30.84V38H200.835V23.2ZM216.797 38.24C216.051 38.24 215.377 38.1133 214.777 37.86C214.191 37.6067 213.684 37.2467 213.257 36.78C212.844 36.3 212.524 35.7333 212.297 35.08C212.071 34.4133 211.957 33.6733 211.957 32.86C211.957 32.0333 212.071 31.2867 212.297 30.62C212.537 29.9533 212.864 29.3867 213.277 28.92C213.691 28.44 214.184 28.0733 214.757 27.82C215.344 27.5667 215.991 27.44 216.697 27.44C217.391 27.44 218.017 27.5667 218.577 27.82C219.151 28.0733 219.637 28.4267 220.037 28.88C220.437 29.32 220.744 29.8467 220.957 30.46C221.171 31.0733 221.277 31.7467 221.277 32.48V33.24H213.637V33.72C213.637 34.1733 213.711 34.5933 213.857 34.98C214.004 35.3667 214.211 35.7 214.477 35.98C214.757 36.26 215.091 36.48 215.477 36.64C215.877 36.7867 216.317 36.86 216.797 36.86C217.491 36.86 218.091 36.7 218.597 36.38C219.104 36.06 219.491 35.62 219.757 35.06L220.937 35.86C220.631 36.5533 220.117 37.1267 219.397 37.58C218.691 38.02 217.824 38.24 216.797 38.24ZM216.697 28.76C216.257 28.76 215.851 28.84 215.477 29C215.104 29.16 214.777 29.38 214.497 29.66C214.231 29.94 214.017 30.2733 213.857 30.66C213.711 31.0333 213.637 31.4467 213.637 31.9V32.04H219.557V31.82C219.557 31.3667 219.484 30.9533 219.337 30.58C219.204 30.2067 219.011 29.8867 218.757 29.62C218.517 29.34 218.217 29.1267 217.857 28.98C217.511 28.8333 217.124 28.76 216.697 28.76ZM235.642 36.64H238.662V29.04H235.642V27.68H240.262V30.28H240.362C240.575 29.4667 240.975 28.8333 241.562 28.38C242.162 27.9133 242.922 27.68 243.842 27.68H245.282V29.28H243.342C242.422 29.28 241.675 29.5467 241.102 30.08C240.542 30.6133 240.262 31.3133 240.262 32.18V36.64H244.262V38H235.642V36.64ZM252.024 38.24C251.277 38.24 250.604 38.1133 250.004 37.86C249.417 37.6067 248.91 37.2467 248.484 36.78C248.07 36.3 247.75 35.7333 247.524 35.08C247.297 34.4133 247.184 33.6733 247.184 32.86C247.184 32.0333 247.297 31.2867 247.524 30.62C247.764 29.9533 248.09 29.3867 248.504 28.92C248.917 28.44 249.41 28.0733 249.984 27.82C250.57 27.5667 251.217 27.44 251.924 27.44C252.617 27.44 253.244 27.5667 253.804 27.82C254.377 28.0733 254.864 28.4267 255.264 28.88C255.664 29.32 255.97 29.8467 256.184 30.46C256.397 31.0733 256.504 31.7467 256.504 32.48V33.24H248.864V33.72C248.864 34.1733 248.937 34.5933 249.084 34.98C249.23 35.3667 249.437 35.7 249.704 35.98C249.984 36.26 250.317 36.48 250.704 36.64C251.104 36.7867 251.544 36.86 252.024 36.86C252.717 36.86 253.317 36.7 253.824 36.38C254.33 36.06 254.717 35.62 254.984 35.06L256.164 35.86C255.857 36.5533 255.344 37.1267 254.624 37.58C253.917 38.02 253.05 38.24 252.024 38.24ZM251.924 28.76C251.484 28.76 251.077 28.84 250.704 29C250.33 29.16 250.004 29.38 249.724 29.66C249.457 29.94 249.244 30.2733 249.084 30.66C248.937 31.0333 248.864 31.4467 248.864 31.9V32.04H254.784V31.82C254.784 31.3667 254.71 30.9533 254.564 30.58C254.43 30.2067 254.237 29.8867 253.984 29.62C253.744 29.34 253.444 29.1267 253.084 28.98C252.737 28.8333 252.35 28.76 251.924 28.76ZM267.486 38C266.859 38 266.413 37.84 266.146 37.52C265.879 37.2 265.713 36.8 265.646 36.32H265.546C265.319 36.92 264.953 37.3933 264.446 37.74C263.953 38.0733 263.286 38.24 262.446 38.24C261.366 38.24 260.506 37.96 259.866 37.4C259.226 36.84 258.906 36.0733 258.906 35.1C258.906 34.14 259.253 33.4 259.946 32.88C260.653 32.36 261.786 32.1 263.346 32.1H265.546V31.08C265.546 30.32 265.333 29.7533 264.906 29.38C264.479 28.9933 263.873 28.8 263.086 28.8C262.393 28.8 261.826 28.94 261.386 29.22C260.946 29.4867 260.593 29.8533 260.326 30.32L259.246 29.52C259.379 29.2533 259.559 28.9933 259.786 28.74C260.013 28.4867 260.293 28.2667 260.626 28.08C260.959 27.88 261.339 27.7267 261.766 27.62C262.193 27.5 262.666 27.44 263.186 27.44C264.399 27.44 265.359 27.7467 266.066 28.36C266.786 28.9733 267.146 29.8267 267.146 30.92V36.6H268.586V38H267.486ZM262.726 36.9C263.139 36.9 263.513 36.8533 263.846 36.76C264.193 36.6533 264.493 36.52 264.746 36.36C264.999 36.1867 265.193 35.9867 265.326 35.76C265.473 35.52 265.546 35.2667 265.546 35V33.3H263.346C262.386 33.3 261.686 33.4333 261.246 33.7C260.806 33.9667 260.586 34.3533 260.586 34.86V35.28C260.586 35.8133 260.773 36.22 261.146 36.5C261.533 36.7667 262.059 36.9 262.726 36.9ZM270.928 36.64H274.528V24.56H270.928V23.2H276.128V36.64H279.728V38H270.928V36.64ZM282.15 38V27.68H283.63V28.88H283.71C283.87 28.48 284.097 28.14 284.39 27.86C284.684 27.58 285.117 27.44 285.69 27.44C286.29 27.44 286.737 27.5933 287.03 27.9C287.324 28.1933 287.504 28.58 287.57 29.06H287.63C287.817 28.5933 288.084 28.2067 288.43 27.9C288.777 27.5933 289.257 27.44 289.87 27.44C290.71 27.44 291.27 27.7333 291.55 28.32C291.844 28.9067 291.99 29.7467 291.99 30.84V38H290.51V31.1C290.51 30.22 290.417 29.6133 290.23 29.28C290.057 28.9333 289.73 28.76 289.25 28.76C288.824 28.76 288.477 28.9 288.21 29.18C287.944 29.4467 287.81 29.86 287.81 30.42V38H286.33V31.1C286.33 30.22 286.237 29.6133 286.05 29.28C285.877 28.9333 285.557 28.76 285.09 28.76C284.664 28.76 284.31 28.9 284.03 29.18C283.764 29.4467 283.63 29.86 283.63 30.42V38H282.15ZM310.555 38.24C309.835 38.24 309.181 38.1133 308.595 37.86C308.021 37.6067 307.528 37.2467 307.115 36.78C306.715 36.3 306.408 35.7333 306.195 35.08C305.981 34.4133 305.875 33.6667 305.875 32.84C305.875 32.0267 305.981 31.2867 306.195 30.62C306.408 29.9533 306.715 29.3867 307.115 28.92C307.528 28.44 308.021 28.0733 308.595 27.82C309.181 27.5667 309.835 27.44 310.555 27.44C311.275 27.44 311.921 27.5667 312.495 27.82C313.081 28.0733 313.575 28.44 313.975 28.92C314.388 29.3867 314.701 29.9533 314.915 30.62C315.128 31.2867 315.235 32.0267 315.235 32.84C315.235 33.6667 315.128 34.4133 314.915 35.08C314.701 35.7333 314.388 36.3 313.975 36.78C313.575 37.2467 313.081 37.6067 312.495 37.86C311.921 38.1133 311.275 38.24 310.555 38.24ZM310.555 36.86C311.448 36.86 312.168 36.5933 312.715 36.06C313.261 35.5267 313.535 34.7 313.535 33.58V32.1C313.535 30.98 313.261 30.1533 312.715 29.62C312.168 29.0867 311.448 28.82 310.555 28.82C309.661 28.82 308.941 29.0867 308.395 29.62C307.848 30.1533 307.575 30.98 307.575 32.1V33.58C307.575 34.7 307.848 35.5267 308.395 36.06C308.941 36.5933 309.661 36.86 310.555 36.86ZM317.957 36.64H321.437V29.04H317.757V27.68H321.437V25.56C321.437 24.8667 321.617 24.3 321.977 23.86C322.35 23.42 322.93 23.2 323.717 23.2H327.177V24.56H323.037V27.68H327.177V29.04H323.037V36.64H326.717V38H317.957V36.64ZM340.381 27.68H341.801L342.981 36.6H343.161L344.921 27.68H346.681L348.441 36.6H348.621L349.801 27.68H351.181L349.601 38H347.521L345.881 29.36H345.721L344.041 38H341.961L340.381 27.68ZM357.523 38.24C356.803 38.24 356.15 38.1133 355.563 37.86C354.99 37.6067 354.497 37.2467 354.083 36.78C353.683 36.3 353.377 35.7333 353.163 35.08C352.95 34.4133 352.843 33.6667 352.843 32.84C352.843 32.0267 352.95 31.2867 353.163 30.62C353.377 29.9533 353.683 29.3867 354.083 28.92C354.497 28.44 354.99 28.0733 355.563 27.82C356.15 27.5667 356.803 27.44 357.523 27.44C358.243 27.44 358.89 27.5667 359.463 27.82C360.05 28.0733 360.543 28.44 360.943 28.92C361.357 29.3867 361.67 29.9533 361.883 30.62C362.097 31.2867 362.203 32.0267 362.203 32.84C362.203 33.6667 362.097 34.4133 361.883 35.08C361.67 35.7333 361.357 36.3 360.943 36.78C360.543 37.2467 360.05 37.6067 359.463 37.86C358.89 38.1133 358.243 38.24 357.523 38.24ZM357.523 36.86C358.417 36.86 359.137 36.5933 359.683 36.06C360.23 35.5267 360.503 34.7 360.503 33.58V32.1C360.503 30.98 360.23 30.1533 359.683 29.62C359.137 29.0867 358.417 28.82 357.523 28.82C356.63 28.82 355.91 29.0867 355.363 29.62C354.817 30.1533 354.543 30.98 354.543 32.1V33.58C354.543 34.7 354.817 35.5267 355.363 36.06C355.91 36.5933 356.63 36.86 357.523 36.86ZM364.806 36.64H367.826V29.04H364.806V27.68H369.426V30.28H369.526C369.739 29.4667 370.139 28.8333 370.726 28.38C371.326 27.9133 372.086 27.68 373.006 27.68H374.446V29.28H372.506C371.586 29.28 370.839 29.5467 370.266 30.08C369.706 30.6133 369.426 31.3133 369.426 32.18V36.64H373.426V38H364.806V36.64ZM377.108 23.2H378.708V32.54H378.788L380.588 30.84L384.028 27.68H385.988L381.708 31.72L386.488 38H384.508L380.488 32.64L378.708 34.26V38H377.108V23.2ZM391.89 35.28H394.47L392.17 40.82H390.83L391.89 35.28ZM419.854 38L418.674 34.02H413.774L412.594 38H410.854L415.134 24.04H417.354L421.634 38H419.854ZM416.314 25.82H416.134L414.174 32.56H418.274L416.314 25.82ZM423.657 38V36.66H427.137V25.38H423.657V24.04H432.297V25.38H428.817V36.66H432.297V38H423.657ZM447.421 23.2H449.021V29.36H449.101C449.208 29.1067 449.341 28.8667 449.501 28.64C449.661 28.4 449.854 28.1933 450.081 28.02C450.321 27.8467 450.601 27.7067 450.921 27.6C451.241 27.4933 451.614 27.44 452.041 27.44C453.121 27.44 453.988 27.7867 454.641 28.48C455.294 29.16 455.621 30.1267 455.621 31.38V38H454.021V31.66C454.021 30.7133 453.814 30.0133 453.401 29.56C452.988 29.0933 452.381 28.86 451.581 28.86C451.261 28.86 450.948 28.9 450.641 28.98C450.334 29.06 450.061 29.18 449.821 29.34C449.581 29.5 449.388 29.7067 449.241 29.96C449.094 30.2133 449.021 30.5067 449.021 30.84V38H447.421V23.2ZM467.103 38C466.476 38 466.03 37.84 465.763 37.52C465.496 37.2 465.33 36.8 465.263 36.32H465.163C464.936 36.92 464.57 37.3933 464.063 37.74C463.57 38.0733 462.903 38.24 462.063 38.24C460.983 38.24 460.123 37.96 459.483 37.4C458.843 36.84 458.523 36.0733 458.523 35.1C458.523 34.14 458.87 33.4 459.563 32.88C460.27 32.36 461.403 32.1 462.963 32.1H465.163V31.08C465.163 30.32 464.95 29.7533 464.523 29.38C464.096 28.9933 463.49 28.8 462.703 28.8C462.01 28.8 461.443 28.94 461.003 29.22C460.563 29.4867 460.21 29.8533 459.943 30.32L458.863 29.52C458.996 29.2533 459.176 28.9933 459.403 28.74C459.63 28.4867 459.91 28.2667 460.243 28.08C460.576 27.88 460.956 27.7267 461.383 27.62C461.81 27.5 462.283 27.44 462.803 27.44C464.016 27.44 464.976 27.7467 465.683 28.36C466.403 28.9733 466.763 29.8267 466.763 30.92V36.6H468.203V38H467.103ZM462.343 36.9C462.756 36.9 463.13 36.8533 463.463 36.76C463.81 36.6533 464.11 36.52 464.363 36.36C464.616 36.1867 464.81 35.9867 464.943 35.76C465.09 35.52 465.163 35.2667 465.163 35V33.3H462.963C462.003 33.3 461.303 33.4333 460.863 33.7C460.423 33.9667 460.203 34.3533 460.203 34.86V35.28C460.203 35.8133 460.39 36.22 460.763 36.5C461.15 36.7667 461.676 36.9 462.343 36.9ZM475.065 38.24C473.985 38.24 473.052 38.06 472.265 37.7C471.492 37.3267 470.832 36.8333 470.285 36.22L471.365 35.28C471.859 35.8 472.399 36.2 472.985 36.48C473.572 36.76 474.279 36.9 475.105 36.9C475.905 36.9 476.559 36.76 477.065 36.48C477.585 36.1867 477.845 35.7333 477.845 35.12C477.845 34.8533 477.792 34.6333 477.685 34.46C477.592 34.2733 477.459 34.1267 477.285 34.02C477.112 33.9133 476.919 33.8333 476.705 33.78C476.492 33.7133 476.265 33.66 476.025 33.62L474.405 33.38C474.045 33.3267 473.652 33.2533 473.225 33.16C472.812 33.0667 472.432 32.92 472.085 32.72C471.739 32.5067 471.445 32.2267 471.205 31.88C470.979 31.5333 470.865 31.08 470.865 30.52C470.865 30 470.965 29.5533 471.165 29.18C471.379 28.7933 471.672 28.4733 472.045 28.22C472.419 27.9533 472.859 27.76 473.365 27.64C473.872 27.5067 474.425 27.44 475.025 27.44C475.959 27.44 476.765 27.5867 477.445 27.88C478.139 28.1733 478.732 28.58 479.225 29.1L478.185 30.08C478.065 29.9333 477.912 29.7867 477.725 29.64C477.552 29.48 477.332 29.34 477.065 29.22C476.812 29.0867 476.512 28.98 476.165 28.9C475.819 28.82 475.419 28.78 474.965 28.78C474.152 28.78 473.525 28.92 473.085 29.2C472.659 29.48 472.445 29.8867 472.445 30.42C472.445 30.6867 472.492 30.9133 472.585 31.1C472.692 31.2733 472.832 31.4133 473.005 31.52C473.179 31.6267 473.372 31.7133 473.585 31.78C473.812 31.8333 474.039 31.88 474.265 31.92L475.885 32.16C476.259 32.2133 476.652 32.2867 477.065 32.38C477.479 32.4733 477.859 32.6267 478.205 32.84C478.552 33.04 478.839 33.3133 479.065 33.66C479.305 34.0067 479.425 34.46 479.425 35.02C479.425 36.0467 479.025 36.84 478.225 37.4C477.439 37.96 476.385 38.24 475.065 38.24ZM493.97 36.64H496.99V29.04H493.97V27.68H498.59V30.28H498.69C498.903 29.4667 499.303 28.8333 499.89 28.38C500.49 27.9133 501.25 27.68 502.17 27.68H503.61V29.28H501.67C500.75 29.28 500.003 29.5467 499.43 30.08C498.87 30.6133 498.59 31.3133 498.59 32.18V36.64H502.59V38H493.97V36.64ZM510.352 38.24C509.605 38.24 508.932 38.1133 508.332 37.86C507.745 37.6067 507.239 37.2467 506.812 36.78C506.399 36.3 506.079 35.7333 505.852 35.08C505.625 34.4133 505.512 33.6733 505.512 32.86C505.512 32.0333 505.625 31.2867 505.852 30.62C506.092 29.9533 506.419 29.3867 506.832 28.92C507.245 28.44 507.739 28.0733 508.312 27.82C508.899 27.5667 509.545 27.44 510.252 27.44C510.945 27.44 511.572 27.5667 512.132 27.82C512.705 28.0733 513.192 28.4267 513.592 28.88C513.992 29.32 514.299 29.8467 514.512 30.46C514.725 31.0733 514.832 31.7467 514.832 32.48V33.24H507.192V33.72C507.192 34.1733 507.265 34.5933 507.412 34.98C507.559 35.3667 507.765 35.7 508.032 35.98C508.312 36.26 508.645 36.48 509.032 36.64C509.432 36.7867 509.872 36.86 510.352 36.86C511.045 36.86 511.645 36.7 512.152 36.38C512.659 36.06 513.045 35.62 513.312 35.06L514.492 35.86C514.185 36.5533 513.672 37.1267 512.952 37.58C512.245 38.02 511.379 38.24 510.352 38.24ZM510.252 28.76C509.812 28.76 509.405 28.84 509.032 29C508.659 29.16 508.332 29.38 508.052 29.66C507.785 29.94 507.572 30.2733 507.412 30.66C507.265 31.0333 507.192 31.4467 507.192 31.9V32.04H513.112V31.82C513.112 31.3667 513.039 30.9533 512.892 30.58C512.759 30.2067 512.565 29.8867 512.312 29.62C512.072 29.34 511.772 29.1267 511.412 28.98C511.065 28.8333 510.679 28.76 510.252 28.76ZM522.274 38.24C521.527 38.24 520.861 38.1133 520.274 37.86C519.701 37.5933 519.214 37.2267 518.814 36.76C518.414 36.2933 518.107 35.7267 517.894 35.06C517.694 34.3933 517.594 33.6533 517.594 32.84C517.594 32.0267 517.701 31.2867 517.914 30.62C518.127 29.9533 518.434 29.3867 518.834 28.92C519.234 28.44 519.721 28.0733 520.294 27.82C520.867 27.5667 521.521 27.44 522.254 27.44C523.254 27.44 524.067 27.66 524.694 28.1C525.321 28.54 525.781 29.1133 526.074 29.82L524.794 30.5C524.607 29.9667 524.294 29.5533 523.854 29.26C523.427 28.9667 522.894 28.82 522.254 28.82C521.787 28.82 521.367 28.9 520.994 29.06C520.634 29.2067 520.327 29.42 520.074 29.7C519.821 29.98 519.627 30.3133 519.494 30.7C519.374 31.0867 519.314 31.5067 519.314 31.96V33.72C519.314 34.1733 519.374 34.5933 519.494 34.98C519.627 35.3667 519.821 35.7 520.074 35.98C520.327 36.26 520.641 36.48 521.014 36.64C521.387 36.7867 521.814 36.86 522.294 36.86C522.987 36.86 523.561 36.7 524.014 36.38C524.467 36.06 524.827 35.62 525.094 35.06L526.234 35.84C525.927 36.5333 525.447 37.1067 524.794 37.56C524.154 38.0133 523.314 38.24 522.274 38.24ZM533.836 38.24C533.09 38.24 532.416 38.1133 531.816 37.86C531.23 37.6067 530.723 37.2467 530.296 36.78C529.883 36.3 529.563 35.7333 529.336 35.08C529.11 34.4133 528.996 33.6733 528.996 32.86C528.996 32.0333 529.11 31.2867 529.336 30.62C529.576 29.9533 529.903 29.3867 530.316 28.92C530.73 28.44 531.223 28.0733 531.796 27.82C532.383 27.5667 533.03 27.44 533.736 27.44C534.43 27.44 535.056 27.5667 535.616 27.82C536.19 28.0733 536.676 28.4267 537.076 28.88C537.476 29.32 537.783 29.8467 537.996 30.46C538.21 31.0733 538.316 31.7467 538.316 32.48V33.24H530.676V33.72C530.676 34.1733 530.75 34.5933 530.896 34.98C531.043 35.3667 531.25 35.7 531.516 35.98C531.796 36.26 532.13 36.48 532.516 36.64C532.916 36.7867 533.356 36.86 533.836 36.86C534.53 36.86 535.13 36.7 535.636 36.38C536.143 36.06 536.53 35.62 536.796 35.06L537.976 35.86C537.67 36.5533 537.156 37.1267 536.436 37.58C535.73 38.02 534.863 38.24 533.836 38.24ZM533.736 28.76C533.296 28.76 532.89 28.84 532.516 29C532.143 29.16 531.816 29.38 531.536 29.66C531.27 29.94 531.056 30.2733 530.896 30.66C530.75 31.0333 530.676 31.4467 530.676 31.9V32.04H536.596V31.82C536.596 31.3667 536.523 30.9533 536.376 30.58C536.243 30.2067 536.05 29.8867 535.796 29.62C535.556 29.34 535.256 29.1267 534.896 28.98C534.55 28.8333 534.163 28.76 533.736 28.76ZM546.038 25.4C545.572 25.4 545.245 25.3067 545.058 25.12C544.872 24.92 544.778 24.6733 544.778 24.38V24.06C544.778 23.7667 544.872 23.5267 545.058 23.34C545.245 23.14 545.572 23.04 546.038 23.04C546.505 23.04 546.832 23.14 547.018 23.34C547.205 23.5267 547.298 23.7667 547.298 24.06V24.38C547.298 24.6733 547.205 24.92 547.018 25.12C546.832 25.3067 546.505 25.4 546.038 25.4ZM541.518 36.64H545.238V29.04H541.518V27.68H546.838V36.64H550.318V38H541.518V36.64ZM556.121 38L552.421 27.68H554.041L555.521 32L557.121 36.66H557.201L558.801 32L560.281 27.68H561.861L558.161 38H556.121ZM569.063 38.24C568.316 38.24 567.643 38.1133 567.043 37.86C566.456 37.6067 565.949 37.2467 565.523 36.78C565.109 36.3 564.789 35.7333 564.563 35.08C564.336 34.4133 564.223 33.6733 564.223 32.86C564.223 32.0333 564.336 31.2867 564.563 30.62C564.803 29.9533 565.129 29.3867 565.543 28.92C565.956 28.44 566.449 28.0733 567.023 27.82C567.609 27.5667 568.256 27.44 568.963 27.44C569.656 27.44 570.283 27.5667 570.843 27.82C571.416 28.0733 571.903 28.4267 572.303 28.88C572.703 29.32 573.009 29.8467 573.223 30.46C573.436 31.0733 573.543 31.7467 573.543 32.48V33.24H565.903V33.72C565.903 34.1733 565.976 34.5933 566.123 34.98C566.269 35.3667 566.476 35.7 566.743 35.98C567.023 36.26 567.356 36.48 567.743 36.64C568.143 36.7867 568.583 36.86 569.063 36.86C569.756 36.86 570.356 36.7 570.863 36.38C571.369 36.06 571.756 35.62 572.023 35.06L573.203 35.86C572.896 36.5533 572.383 37.1267 571.663 37.58C570.956 38.02 570.089 38.24 569.063 38.24ZM568.963 28.76C568.523 28.76 568.116 28.84 567.743 29C567.369 29.16 567.043 29.38 566.763 29.66C566.496 29.94 566.283 30.2733 566.123 30.66C565.976 31.0333 565.903 31.4467 565.903 31.9V32.04H571.823V31.82C571.823 31.3667 571.749 30.9533 571.603 30.58C571.469 30.2067 571.276 29.8867 571.023 29.62C570.783 29.34 570.483 29.1267 570.123 28.98C569.776 28.8333 569.389 28.76 568.963 28.76ZM583.125 36.32H583.045C582.378 37.6 581.318 38.24 579.865 38.24C578.598 38.24 577.605 37.7667 576.885 36.82C576.178 35.8733 575.825 34.5467 575.825 32.84C575.825 31.1333 576.178 29.8067 576.885 28.86C577.605 27.9133 578.598 27.44 579.865 27.44C581.318 27.44 582.378 28.08 583.045 29.36H583.125V23.2H584.725V38H583.125V36.32ZM580.485 36.82C580.845 36.82 581.185 36.7733 581.505 36.68C581.825 36.5867 582.105 36.4533 582.345 36.28C582.585 36.0933 582.772 35.8733 582.905 35.62C583.052 35.3533 583.125 35.0467 583.125 34.7V30.98C583.125 30.6333 583.052 30.3333 582.905 30.08C582.772 29.8133 582.585 29.5933 582.345 29.42C582.105 29.2333 581.825 29.0933 581.505 29C581.185 28.9067 580.845 28.86 580.485 28.86C579.552 28.86 578.825 29.1467 578.305 29.72C577.798 30.28 577.545 31.0267 577.545 31.96V33.72C577.545 34.6533 577.798 35.4067 578.305 35.98C578.825 36.54 579.552 36.82 580.485 36.82ZM12.08 68V57.68H13.56V58.88H13.64C13.8 58.48 14.0267 58.14 14.32 57.86C14.6133 57.58 15.0467 57.44 15.62 57.44C16.22 57.44 16.6667 57.5933 16.96 57.9C17.2533 58.1933 17.4333 58.58 17.5 59.06H17.56C17.7467 58.5933 18.0133 58.2067 18.36 57.9C18.7067 57.5933 19.1867 57.44 19.8 57.44C20.64 57.44 21.2 57.7333 21.48 58.32C21.7733 58.9067 21.92 59.7467 21.92 60.84V68H20.44V61.1C20.44 60.22 20.3467 59.6133 20.16 59.28C19.9867 58.9333 19.66 58.76 19.18 58.76C18.7533 58.76 18.4067 58.9 18.14 59.18C17.8733 59.4467 17.74 59.86 17.74 60.42V68H16.26V61.1C16.26 60.22 16.1667 59.6133 15.98 59.28C15.8067 58.9333 15.4867 58.76 15.02 58.76C14.5933 58.76 14.24 58.9 13.96 59.18C13.6933 59.4467 13.56 59.86 13.56 60.42V68H12.08ZM29.3822 55.4C28.9155 55.4 28.5889 55.3067 28.4022 55.12C28.2155 54.92 28.1222 54.6733 28.1222 54.38V54.06C28.1222 53.7667 28.2155 53.5267 28.4022 53.34C28.5889 53.14 28.9155 53.04 29.3822 53.04C29.8489 53.04 30.1755 53.14 30.3622 53.34C30.5489 53.5267 30.6422 53.7667 30.6422 54.06V54.38C30.6422 54.6733 30.5489 54.92 30.3622 55.12C30.1755 55.3067 29.8489 55.4 29.3822 55.4ZM24.8622 66.64H28.5822V59.04H24.8622V57.68H30.1822V66.64H33.6622V68H24.8622V66.64ZM35.7044 68L39.5444 62.76L35.8044 57.68H37.7244L39.2844 59.86L40.5244 61.58H40.6044L41.8044 59.86L43.3444 57.68H45.1844L41.4044 62.74L45.2844 68H43.3644L41.6244 65.58L40.4444 63.94H40.3644L39.2244 65.58L37.5444 68H35.7044ZM52.4066 68.24C51.6599 68.24 50.9866 68.1133 50.3866 67.86C49.7999 67.6067 49.2932 67.2467 48.8666 66.78C48.4532 66.3 48.1332 65.7333 47.9066 65.08C47.6799 64.4133 47.5666 63.6733 47.5666 62.86C47.5666 62.0333 47.6799 61.2867 47.9066 60.62C48.1466 59.9533 48.4732 59.3867 48.8866 58.92C49.2999 58.44 49.7932 58.0733 50.3666 57.82C50.9532 57.5667 51.5999 57.44 52.3066 57.44C52.9999 57.44 53.6266 57.5667 54.1866 57.82C54.7599 58.0733 55.2466 58.4267 55.6466 58.88C56.0466 59.32 56.3532 59.8467 56.5666 60.46C56.7799 61.0733 56.8866 61.7467 56.8866 62.48V63.24H49.2466V63.72C49.2466 64.1733 49.3199 64.5933 49.4666 64.98C49.6132 65.3667 49.8199 65.7 50.0866 65.98C50.3666 66.26 50.6999 66.48 51.0866 66.64C51.4866 66.7867 51.9266 66.86 52.4066 66.86C53.0999 66.86 53.6999 66.7 54.2066 66.38C54.7132 66.06 55.0999 65.62 55.3666 65.06L56.5466 65.86C56.2399 66.5533 55.7266 67.1267 55.0066 67.58C54.2999 68.02 53.4332 68.24 52.4066 68.24ZM52.3066 58.76C51.8666 58.76 51.4599 58.84 51.0866 59C50.7132 59.16 50.3866 59.38 50.1066 59.66C49.8399 59.94 49.6266 60.2733 49.4666 60.66C49.3199 61.0333 49.2466 61.4467 49.2466 61.9V62.04H55.1666V61.82C55.1666 61.3667 55.0932 60.9533 54.9466 60.58C54.8132 60.2067 54.6199 59.8867 54.3666 59.62C54.1266 59.34 53.8266 59.1267 53.4666 58.98C53.1199 58.8333 52.7332 58.76 52.3066 58.76ZM66.4688 66.32H66.3888C65.7221 67.6 64.6621 68.24 63.2088 68.24C61.9421 68.24 60.9488 67.7667 60.2288 66.82C59.5221 65.8733 59.1688 64.5467 59.1688 62.84C59.1688 61.1333 59.5221 59.8067 60.2288 58.86C60.9488 57.9133 61.9421 57.44 63.2088 57.44C64.6621 57.44 65.7221 58.08 66.3888 59.36H66.4688V53.2H68.0687V68H66.4688V66.32ZM63.8288 66.82C64.1888 66.82 64.5288 66.7733 64.8488 66.68C65.1688 66.5867 65.4488 66.4533 65.6888 66.28C65.9288 66.0933 66.1154 65.8733 66.2488 65.62C66.3954 65.3533 66.4688 65.0467 66.4688 64.7V60.98C66.4688 60.6333 66.3954 60.3333 66.2488 60.08C66.1154 59.8133 65.9288 59.5933 65.6888 59.42C65.4488 59.2333 65.1688 59.0933 64.8488 59C64.5288 58.9067 64.1888 58.86 63.8288 58.86C62.8954 58.86 62.1688 59.1467 61.6488 59.72C61.1421 60.28 60.8888 61.0267 60.8888 61.96V63.72C60.8888 64.6533 61.1421 65.4067 61.6488 65.98C62.1688 66.54 62.8954 66.82 63.8288 66.82ZM82.9931 66.64H86.0131V59.04H82.9931V57.68H87.6131V60.28H87.7131C87.9265 59.4667 88.3265 58.8333 88.9131 58.38C89.5131 57.9133 90.2731 57.68 91.1931 57.68H92.6331V59.28H90.6931C89.7731 59.28 89.0265 59.5467 88.4531 60.08C87.8931 60.6133 87.6131 61.3133 87.6131 62.18V66.64H91.6131V68H82.9931V66.64ZM99.3753 68.24C98.6286 68.24 97.9553 68.1133 97.3553 67.86C96.7686 67.6067 96.262 67.2467 95.8353 66.78C95.422 66.3 95.102 65.7333 94.8753 65.08C94.6486 64.4133 94.5353 63.6733 94.5353 62.86C94.5353 62.0333 94.6486 61.2867 94.8753 60.62C95.1153 59.9533 95.442 59.3867 95.8553 58.92C96.2686 58.44 96.762 58.0733 97.3353 57.82C97.922 57.5667 98.5686 57.44 99.2753 57.44C99.9686 57.44 100.595 57.5667 101.155 57.82C101.729 58.0733 102.215 58.4267 102.615 58.88C103.015 59.32 103.322 59.8467 103.535 60.46C103.749 61.0733 103.855 61.7467 103.855 62.48V63.24H96.2153V63.72C96.2153 64.1733 96.2886 64.5933 96.4353 64.98C96.582 65.3667 96.7886 65.7 97.0553 65.98C97.3353 66.26 97.6686 66.48 98.0553 66.64C98.4553 66.7867 98.8953 66.86 99.3753 66.86C100.069 66.86 100.669 66.7 101.175 66.38C101.682 66.06 102.069 65.62 102.335 65.06L103.515 65.86C103.209 66.5533 102.695 67.1267 101.975 67.58C101.269 68.02 100.402 68.24 99.3753 68.24ZM99.2753 58.76C98.8353 58.76 98.4286 58.84 98.0553 59C97.682 59.16 97.3553 59.38 97.0753 59.66C96.8086 59.94 96.5953 60.2733 96.4353 60.66C96.2886 61.0333 96.2153 61.4467 96.2153 61.9V62.04H102.135V61.82C102.135 61.3667 102.062 60.9533 101.915 60.58C101.782 60.2067 101.589 59.8867 101.335 59.62C101.095 59.34 100.795 59.1267 100.435 58.98C100.089 58.8333 99.702 58.76 99.2753 58.76ZM109.918 68L106.218 57.68H107.838L109.318 62L110.918 66.66H110.998L112.598 62L114.078 57.68H115.658L111.958 68H109.918ZM123.32 55.4C122.853 55.4 122.526 55.3067 122.34 55.12C122.153 54.92 122.06 54.6733 122.06 54.38V54.06C122.06 53.7667 122.153 53.5267 122.34 53.34C122.526 53.14 122.853 53.04 123.32 53.04C123.786 53.04 124.113 53.14 124.3 53.34C124.486 53.5267 124.58 53.7667 124.58 54.06V54.38C124.58 54.6733 124.486 54.92 124.3 55.12C124.113 55.3067 123.786 55.4 123.32 55.4ZM118.8 66.64H122.52V59.04H118.8V57.68H124.12V66.64H127.6V68H118.8V66.64ZM134.602 68.24C133.855 68.24 133.182 68.1133 132.582 67.86C131.995 67.6067 131.489 67.2467 131.062 66.78C130.649 66.3 130.329 65.7333 130.102 65.08C129.875 64.4133 129.762 63.6733 129.762 62.86C129.762 62.0333 129.875 61.2867 130.102 60.62C130.342 59.9533 130.669 59.3867 131.082 58.92C131.495 58.44 131.989 58.0733 132.562 57.82C133.149 57.5667 133.795 57.44 134.502 57.44C135.195 57.44 135.822 57.5667 136.382 57.82C136.955 58.0733 137.442 58.4267 137.842 58.88C138.242 59.32 138.549 59.8467 138.762 60.46C138.975 61.0733 139.082 61.7467 139.082 62.48V63.24H131.442V63.72C131.442 64.1733 131.515 64.5933 131.662 64.98C131.809 65.3667 132.015 65.7 132.282 65.98C132.562 66.26 132.895 66.48 133.282 66.64C133.682 66.7867 134.122 66.86 134.602 66.86C135.295 66.86 135.895 66.7 136.402 66.38C136.909 66.06 137.295 65.62 137.562 65.06L138.742 65.86C138.435 66.5533 137.922 67.1267 137.202 67.58C136.495 68.02 135.629 68.24 134.602 68.24ZM134.502 58.76C134.062 58.76 133.655 58.84 133.282 59C132.909 59.16 132.582 59.38 132.302 59.66C132.035 59.94 131.822 60.2733 131.662 60.66C131.515 61.0333 131.442 61.4467 131.442 61.9V62.04H137.362V61.82C137.362 61.3667 137.289 60.9533 137.142 60.58C137.009 60.2067 136.815 59.8867 136.562 59.62C136.322 59.34 136.022 59.1267 135.662 58.98C135.315 58.8333 134.929 58.76 134.502 58.76ZM140.764 57.68H142.184L143.364 66.6H143.544L145.304 57.68H147.064L148.824 66.6H149.004L150.184 57.68H151.564L149.984 68H147.904L146.264 59.36H146.104L144.424 68H142.344L140.764 57.68ZM158.026 68.24C156.946 68.24 156.013 68.06 155.226 67.7C154.453 67.3267 153.793 66.8333 153.246 66.22L154.326 65.28C154.82 65.8 155.36 66.2 155.946 66.48C156.533 66.76 157.24 66.9 158.066 66.9C158.866 66.9 159.52 66.76 160.026 66.48C160.546 66.1867 160.806 65.7333 160.806 65.12C160.806 64.8533 160.753 64.6333 160.646 64.46C160.553 64.2733 160.42 64.1267 160.246 64.02C160.073 63.9133 159.88 63.8333 159.666 63.78C159.453 63.7133 159.226 63.66 158.986 63.62L157.366 63.38C157.006 63.3267 156.613 63.2533 156.186 63.16C155.773 63.0667 155.393 62.92 155.046 62.72C154.7 62.5067 154.406 62.2267 154.166 61.88C153.94 61.5333 153.826 61.08 153.826 60.52C153.826 60 153.926 59.5533 154.126 59.18C154.34 58.7933 154.633 58.4733 155.006 58.22C155.38 57.9533 155.82 57.76 156.326 57.64C156.833 57.5067 157.386 57.44 157.986 57.44C158.92 57.44 159.726 57.5867 160.406 57.88C161.1 58.1733 161.693 58.58 162.186 59.1L161.146 60.08C161.026 59.9333 160.873 59.7867 160.686 59.64C160.513 59.48 160.293 59.34 160.026 59.22C159.773 59.0867 159.473 58.98 159.126 58.9C158.78 58.82 158.38 58.78 157.926 58.78C157.113 58.78 156.486 58.92 156.046 59.2C155.62 59.48 155.406 59.8867 155.406 60.42C155.406 60.6867 155.453 60.9133 155.546 61.1C155.653 61.2733 155.793 61.4133 155.966 61.52C156.14 61.6267 156.333 61.7133 156.546 61.78C156.773 61.8333 157 61.88 157.226 61.92L158.846 62.16C159.22 62.2133 159.613 62.2867 160.026 62.38C160.44 62.4733 160.82 62.6267 161.166 62.84C161.513 63.04 161.8 63.3133 162.026 63.66C162.266 64.0067 162.386 64.46 162.386 65.02C162.386 66.0467 161.986 66.84 161.186 67.4C160.4 67.96 159.346 68.24 158.026 68.24ZM177.051 66.64H180.531V59.04H176.851V57.68H180.531V55.56C180.531 54.8667 180.711 54.3 181.071 53.86C181.444 53.42 182.024 53.2 182.811 53.2H186.271V54.56H182.131V57.68H186.271V59.04H182.131V66.64H185.811V68H177.051V66.64ZM193.133 68.24C192.413 68.24 191.759 68.1133 191.173 67.86C190.599 67.6067 190.106 67.2467 189.693 66.78C189.293 66.3 188.986 65.7333 188.773 65.08C188.559 64.4133 188.453 63.6667 188.453 62.84C188.453 62.0267 188.559 61.2867 188.773 60.62C188.986 59.9533 189.293 59.3867 189.693 58.92C190.106 58.44 190.599 58.0733 191.173 57.82C191.759 57.5667 192.413 57.44 193.133 57.44C193.853 57.44 194.499 57.5667 195.073 57.82C195.659 58.0733 196.153 58.44 196.553 58.92C196.966 59.3867 197.279 59.9533 197.493 60.62C197.706 61.2867 197.813 62.0267 197.813 62.84C197.813 63.6667 197.706 64.4133 197.493 65.08C197.279 65.7333 196.966 66.3 196.553 66.78C196.153 67.2467 195.659 67.6067 195.073 67.86C194.499 68.1133 193.853 68.24 193.133 68.24ZM193.133 66.86C194.026 66.86 194.746 66.5933 195.293 66.06C195.839 65.5267 196.113 64.7 196.113 63.58V62.1C196.113 60.98 195.839 60.1533 195.293 59.62C194.746 59.0867 194.026 58.82 193.133 58.82C192.239 58.82 191.519 59.0867 190.973 59.62C190.426 60.1533 190.153 60.98 190.153 62.1V63.58C190.153 64.7 190.426 65.5267 190.973 66.06C191.519 66.5933 192.239 66.86 193.133 66.86ZM200.415 66.64H203.435V59.04H200.415V57.68H205.035V60.28H205.135C205.348 59.4667 205.748 58.8333 206.335 58.38C206.935 57.9133 207.695 57.68 208.615 57.68H210.055V59.28H208.115C207.195 59.28 206.448 59.5467 205.875 60.08C205.315 60.6133 205.035 61.3133 205.035 62.18V66.64H209.035V68H200.415V66.64ZM228.999 55.4C228.533 55.4 228.206 55.3067 228.019 55.12C227.833 54.92 227.739 54.6733 227.739 54.38V54.06C227.739 53.7667 227.833 53.5267 228.019 53.34C228.206 53.14 228.533 53.04 228.999 53.04C229.466 53.04 229.793 53.14 229.979 53.34C230.166 53.5267 230.259 53.7667 230.259 54.06V54.38C230.259 54.6733 230.166 54.92 229.979 55.12C229.793 55.3067 229.466 55.4 228.999 55.4ZM224.479 66.64H228.199V59.04H224.479V57.68H229.799V66.64H233.279V68H224.479V66.64ZM240.602 68C239.815 68 239.235 67.78 238.862 67.34C238.502 66.9 238.322 66.3333 238.322 65.64V59.04H234.882V57.68H237.442C237.788 57.68 238.028 57.6133 238.162 57.48C238.308 57.3333 238.382 57.0867 238.382 56.74V54.04H239.922V57.68H244.622V59.04H239.922V66.64H244.622V68H240.602ZM251.964 68.24C250.884 68.24 249.95 68.06 249.164 67.7C248.39 67.3267 247.73 66.8333 247.184 66.22L248.264 65.28C248.757 65.8 249.297 66.2 249.884 66.48C250.47 66.76 251.177 66.9 252.004 66.9C252.804 66.9 253.457 66.76 253.964 66.48C254.484 66.1867 254.744 65.7333 254.744 65.12C254.744 64.8533 254.69 64.6333 254.584 64.46C254.49 64.2733 254.357 64.1267 254.184 64.02C254.01 63.9133 253.817 63.8333 253.604 63.78C253.39 63.7133 253.164 63.66 252.924 63.62L251.304 63.38C250.944 63.3267 250.55 63.2533 250.124 63.16C249.71 63.0667 249.33 62.92 248.984 62.72C248.637 62.5067 248.344 62.2267 248.104 61.88C247.877 61.5333 247.764 61.08 247.764 60.52C247.764 60 247.864 59.5533 248.064 59.18C248.277 58.7933 248.57 58.4733 248.944 58.22C249.317 57.9533 249.757 57.76 250.264 57.64C250.77 57.5067 251.324 57.44 251.924 57.44C252.857 57.44 253.664 57.5867 254.344 57.88C255.037 58.1733 255.63 58.58 256.124 59.1L255.084 60.08C254.964 59.9333 254.81 59.7867 254.624 59.64C254.45 59.48 254.23 59.34 253.964 59.22C253.71 59.0867 253.41 58.98 253.064 58.9C252.717 58.82 252.317 58.78 251.864 58.78C251.05 58.78 250.424 58.92 249.984 59.2C249.557 59.48 249.344 59.8867 249.344 60.42C249.344 60.6867 249.39 60.9133 249.484 61.1C249.59 61.2733 249.73 61.4133 249.904 61.52C250.077 61.6267 250.27 61.7133 250.484 61.78C250.71 61.8333 250.937 61.88 251.164 61.92L252.784 62.16C253.157 62.2133 253.55 62.2867 253.964 62.38C254.377 62.4733 254.757 62.6267 255.104 62.84C255.45 63.04 255.737 63.3133 255.964 63.66C256.204 64.0067 256.324 64.46 256.324 65.02C256.324 66.0467 255.924 66.84 255.124 67.4C254.337 67.96 253.284 68.24 251.964 68.24ZM271.228 57.68H272.828V59.36H272.908C273.575 58.08 274.635 57.44 276.088 57.44C277.355 57.44 278.341 57.9133 279.048 58.86C279.768 59.8067 280.128 61.1333 280.128 62.84C280.128 64.5467 279.768 65.8733 279.048 66.82C278.341 67.7667 277.355 68.24 276.088 68.24C274.635 68.24 273.575 67.6 272.908 66.32H272.828V72H271.228V57.68ZM275.468 66.82C276.401 66.82 277.121 66.54 277.628 65.98C278.148 65.4067 278.408 64.6533 278.408 63.72V61.96C278.408 61.0267 278.148 60.28 277.628 59.72C277.121 59.1467 276.401 58.86 275.468 58.86C275.108 58.86 274.768 58.9067 274.448 59C274.128 59.0933 273.848 59.2333 273.608 59.42C273.368 59.5933 273.175 59.8133 273.028 60.08C272.895 60.3333 272.828 60.6333 272.828 60.98V64.7C272.828 65.0467 272.895 65.3533 273.028 65.62C273.175 65.8733 273.368 66.0933 273.608 66.28C273.848 66.4533 274.128 66.5867 274.448 66.68C274.768 66.7733 275.108 66.82 275.468 66.82ZM287.25 68.24C286.504 68.24 285.83 68.1133 285.23 67.86C284.644 67.6067 284.137 67.2467 283.71 66.78C283.297 66.3 282.977 65.7333 282.75 65.08C282.524 64.4133 282.41 63.6733 282.41 62.86C282.41 62.0333 282.524 61.2867 282.75 60.62C282.99 59.9533 283.317 59.3867 283.73 58.92C284.144 58.44 284.637 58.0733 285.21 57.82C285.797 57.5667 286.444 57.44 287.15 57.44C287.844 57.44 288.47 57.5667 289.03 57.82C289.604 58.0733 290.09 58.4267 290.49 58.88C290.89 59.32 291.197 59.8467 291.41 60.46C291.624 61.0733 291.73 61.7467 291.73 62.48V63.24H284.09V63.72C284.09 64.1733 284.164 64.5933 284.31 64.98C284.457 65.3667 284.664 65.7 284.93 65.98C285.21 66.26 285.544 66.48 285.93 66.64C286.33 66.7867 286.77 66.86 287.25 66.86C287.944 66.86 288.544 66.7 289.05 66.38C289.557 66.06 289.944 65.62 290.21 65.06L291.39 65.86C291.084 66.5533 290.57 67.1267 289.85 67.58C289.144 68.02 288.277 68.24 287.25 68.24ZM287.15 58.76C286.71 58.76 286.304 58.84 285.93 59C285.557 59.16 285.23 59.38 284.95 59.66C284.684 59.94 284.47 60.2733 284.31 60.66C284.164 61.0333 284.09 61.4467 284.09 61.9V62.04H290.01V61.82C290.01 61.3667 289.937 60.9533 289.79 60.58C289.657 60.2067 289.464 59.8867 289.21 59.62C288.97 59.34 288.67 59.1267 288.31 58.98C287.964 58.8333 287.577 58.76 287.15 58.76ZM294.353 66.64H297.373V59.04H294.353V57.68H298.973V60.28H299.073C299.286 59.4667 299.686 58.8333 300.273 58.38C300.873 57.9133 301.633 57.68 302.553 57.68H303.993V59.28H302.053C301.133 59.28 300.386 59.5467 299.813 60.08C299.253 60.6133 298.973 61.3133 298.973 62.18V66.64H302.973V68H294.353V66.64ZM306.215 66.64H309.695V59.04H306.015V57.68H309.695V55.56C309.695 54.8667 309.875 54.3 310.235 53.86C310.608 53.42 311.188 53.2 311.975 53.2H315.435V54.56H311.295V57.68H315.435V59.04H311.295V66.64H314.975V68H306.215V66.64ZM322.297 68.24C321.577 68.24 320.924 68.1133 320.337 67.86C319.764 67.6067 319.27 67.2467 318.857 66.78C318.457 66.3 318.15 65.7333 317.937 65.08C317.724 64.4133 317.617 63.6667 317.617 62.84C317.617 62.0267 317.724 61.2867 317.937 60.62C318.15 59.9533 318.457 59.3867 318.857 58.92C319.27 58.44 319.764 58.0733 320.337 57.82C320.924 57.5667 321.577 57.44 322.297 57.44C323.017 57.44 323.664 57.5667 324.237 57.82C324.824 58.0733 325.317 58.44 325.717 58.92C326.13 59.3867 326.444 59.9533 326.657 60.62C326.87 61.2867 326.977 62.0267 326.977 62.84C326.977 63.6667 326.87 64.4133 326.657 65.08C326.444 65.7333 326.13 66.3 325.717 66.78C325.317 67.2467 324.824 67.6067 324.237 67.86C323.664 68.1133 323.017 68.24 322.297 68.24ZM322.297 66.86C323.19 66.86 323.91 66.5933 324.457 66.06C325.004 65.5267 325.277 64.7 325.277 63.58V62.1C325.277 60.98 325.004 60.1533 324.457 59.62C323.91 59.0867 323.19 58.82 322.297 58.82C321.404 58.82 320.684 59.0867 320.137 59.62C319.59 60.1533 319.317 60.98 319.317 62.1V63.58C319.317 64.7 319.59 65.5267 320.137 66.06C320.684 66.5933 321.404 66.86 322.297 66.86ZM329.579 66.64H332.599V59.04H329.579V57.68H334.199V60.28H334.299C334.512 59.4667 334.912 58.8333 335.499 58.38C336.099 57.9133 336.859 57.68 337.779 57.68H339.219V59.28H337.279C336.359 59.28 335.612 59.5467 335.039 60.08C334.479 60.6133 334.199 61.3133 334.199 62.18V66.64H338.199V68H329.579V66.64ZM340.861 68V57.68H342.341V58.88H342.421C342.581 58.48 342.808 58.14 343.101 57.86C343.395 57.58 343.828 57.44 344.401 57.44C345.001 57.44 345.448 57.5933 345.741 57.9C346.035 58.1933 346.215 58.58 346.281 59.06H346.341C346.528 58.5933 346.795 58.2067 347.141 57.9C347.488 57.5933 347.968 57.44 348.581 57.44C349.421 57.44 349.981 57.7333 350.261 58.32C350.555 58.9067 350.701 59.7467 350.701 60.84V68H349.221V61.1C349.221 60.22 349.128 59.6133 348.941 59.28C348.768 58.9333 348.441 58.76 347.961 58.76C347.535 58.76 347.188 58.9 346.921 59.18C346.655 59.4467 346.521 59.86 346.521 60.42V68H345.041V61.1C345.041 60.22 344.948 59.6133 344.761 59.28C344.588 58.9333 344.268 58.76 343.801 58.76C343.375 58.76 343.021 58.9 342.741 59.18C342.475 59.4467 342.341 59.86 342.341 60.42V68H340.861ZM361.423 68C360.797 68 360.35 67.84 360.083 67.52C359.817 67.2 359.65 66.8 359.583 66.32H359.483C359.257 66.92 358.89 67.3933 358.383 67.74C357.89 68.0733 357.223 68.24 356.383 68.24C355.303 68.24 354.443 67.96 353.803 67.4C353.163 66.84 352.843 66.0733 352.843 65.1C352.843 64.14 353.19 63.4 353.883 62.88C354.59 62.36 355.723 62.1 357.283 62.1H359.483V61.08C359.483 60.32 359.27 59.7533 358.843 59.38C358.417 58.9933 357.81 58.8 357.023 58.8C356.33 58.8 355.763 58.94 355.323 59.22C354.883 59.4867 354.53 59.8533 354.263 60.32L353.183 59.52C353.317 59.2533 353.497 58.9933 353.723 58.74C353.95 58.4867 354.23 58.2667 354.563 58.08C354.897 57.88 355.277 57.7267 355.703 57.62C356.13 57.5 356.603 57.44 357.123 57.44C358.337 57.44 359.297 57.7467 360.003 58.36C360.723 58.9733 361.083 59.8267 361.083 60.92V66.6H362.523V68H361.423ZM356.663 66.9C357.077 66.9 357.45 66.8533 357.783 66.76C358.13 66.6533 358.43 66.52 358.683 66.36C358.937 66.1867 359.13 65.9867 359.263 65.76C359.41 65.52 359.483 65.2667 359.483 65V63.3H357.283C356.323 63.3 355.623 63.4333 355.183 63.7C354.743 63.9667 354.523 64.3533 354.523 64.86V65.28C354.523 65.8133 354.71 66.22 355.083 66.5C355.47 66.7667 355.997 66.9 356.663 66.9ZM365.226 68V57.68H366.826V59.36H366.906C367.012 59.1067 367.146 58.8667 367.306 58.64C367.466 58.4 367.659 58.1933 367.886 58.02C368.126 57.8467 368.406 57.7067 368.726 57.6C369.046 57.4933 369.419 57.44 369.846 57.44C370.926 57.44 371.792 57.7867 372.446 58.48C373.099 59.16 373.426 60.1267 373.426 61.38V68H371.826V61.66C371.826 60.7133 371.619 60.0133 371.206 59.56C370.792 59.0933 370.186 58.86 369.386 58.86C369.066 58.86 368.752 58.9 368.446 58.98C368.139 59.06 367.866 59.18 367.626 59.34C367.386 59.5 367.192 59.7067 367.046 59.96C366.899 60.2133 366.826 60.5067 366.826 60.84V68H365.226ZM381.368 68.24C380.621 68.24 379.954 68.1133 379.368 67.86C378.794 67.5933 378.308 67.2267 377.908 66.76C377.508 66.2933 377.201 65.7267 376.988 65.06C376.788 64.3933 376.688 63.6533 376.688 62.84C376.688 62.0267 376.794 61.2867 377.008 60.62C377.221 59.9533 377.528 59.3867 377.928 58.92C378.328 58.44 378.814 58.0733 379.388 57.82C379.961 57.5667 380.614 57.44 381.348 57.44C382.348 57.44 383.161 57.66 383.788 58.1C384.414 58.54 384.874 59.1133 385.168 59.82L383.888 60.5C383.701 59.9667 383.388 59.5533 382.948 59.26C382.521 58.9667 381.988 58.82 381.348 58.82C380.881 58.82 380.461 58.9 380.088 59.06C379.728 59.2067 379.421 59.42 379.168 59.7C378.914 59.98 378.721 60.3133 378.588 60.7C378.468 61.0867 378.408 61.5067 378.408 61.96V63.72C378.408 64.1733 378.468 64.5933 378.588 64.98C378.721 65.3667 378.914 65.7 379.168 65.98C379.421 66.26 379.734 66.48 380.108 66.64C380.481 66.7867 380.908 66.86 381.388 66.86C382.081 66.86 382.654 66.7 383.108 66.38C383.561 66.06 383.921 65.62 384.188 65.06L385.328 65.84C385.021 66.5333 384.541 67.1067 383.888 67.56C383.248 68.0133 382.408 68.24 381.368 68.24ZM392.93 68.24C392.183 68.24 391.51 68.1133 390.91 67.86C390.323 67.6067 389.817 67.2467 389.39 66.78C388.977 66.3 388.657 65.7333 388.43 65.08C388.203 64.4133 388.09 63.6733 388.09 62.86C388.09 62.0333 388.203 61.2867 388.43 60.62C388.67 59.9533 388.997 59.3867 389.41 58.92C389.823 58.44 390.317 58.0733 390.89 57.82C391.477 57.5667 392.123 57.44 392.83 57.44C393.523 57.44 394.15 57.5667 394.71 57.82C395.283 58.0733 395.77 58.4267 396.17 58.88C396.57 59.32 396.877 59.8467 397.09 60.46C397.303 61.0733 397.41 61.7467 397.41 62.48V63.24H389.77V63.72C389.77 64.1733 389.843 64.5933 389.99 64.98C390.137 65.3667 390.343 65.7 390.61 65.98C390.89 66.26 391.223 66.48 391.61 66.64C392.01 66.7867 392.45 66.86 392.93 66.86C393.623 66.86 394.223 66.7 394.73 66.38C395.237 66.06 395.623 65.62 395.89 65.06L397.07 65.86C396.763 66.5533 396.25 67.1267 395.53 67.58C394.823 68.02 393.957 68.24 392.93 68.24ZM392.83 58.76C392.39 58.76 391.983 58.84 391.61 59C391.237 59.16 390.91 59.38 390.63 59.66C390.363 59.94 390.15 60.2733 389.99 60.66C389.843 61.0333 389.77 61.4467 389.77 61.9V62.04H395.69V61.82C395.69 61.3667 395.617 60.9533 395.47 60.58C395.337 60.2067 395.143 59.8867 394.89 59.62C394.65 59.34 394.35 59.1267 393.99 58.98C393.643 58.8333 393.257 58.76 392.83 58.76ZM416.874 55.4C416.408 55.4 416.081 55.3067 415.894 55.12C415.708 54.92 415.614 54.6733 415.614 54.38V54.06C415.614 53.7667 415.708 53.5267 415.894 53.34C416.081 53.14 416.408 53.04 416.874 53.04C417.341 53.04 417.668 53.14 417.854 53.34C418.041 53.5267 418.134 53.7667 418.134 54.06V54.38C418.134 54.6733 418.041 54.92 417.854 55.12C417.668 55.3067 417.341 55.4 416.874 55.4ZM412.354 66.64H416.074V59.04H412.354V57.68H417.674V66.64H421.154V68H412.354V66.64ZM423.937 68V57.68H425.537V59.36H425.617C425.723 59.1067 425.857 58.8667 426.017 58.64C426.177 58.4 426.37 58.1933 426.597 58.02C426.837 57.8467 427.117 57.7067 427.437 57.6C427.757 57.4933 428.13 57.44 428.557 57.44C429.637 57.44 430.503 57.7867 431.157 58.48C431.81 59.16 432.137 60.1267 432.137 61.38V68H430.537V61.66C430.537 60.7133 430.33 60.0133 429.917 59.56C429.503 59.0933 428.897 58.86 428.097 58.86C427.777 58.86 427.463 58.9 427.157 58.98C426.85 59.06 426.577 59.18 426.337 59.34C426.097 59.5 425.903 59.7067 425.757 59.96C425.61 60.2133 425.537 60.5067 425.537 60.84V68H423.937ZM450.441 68L446.741 57.68H448.361L449.841 62L451.441 66.66H451.521L453.121 62L454.601 57.68H456.181L452.481 68H450.441ZM467.103 68C466.476 68 466.03 67.84 465.763 67.52C465.496 67.2 465.33 66.8 465.263 66.32H465.163C464.936 66.92 464.57 67.3933 464.063 67.74C463.57 68.0733 462.903 68.24 462.063 68.24C460.983 68.24 460.123 67.96 459.483 67.4C458.843 66.84 458.523 66.0733 458.523 65.1C458.523 64.14 458.87 63.4 459.563 62.88C460.27 62.36 461.403 62.1 462.963 62.1H465.163V61.08C465.163 60.32 464.95 59.7533 464.523 59.38C464.096 58.9933 463.49 58.8 462.703 58.8C462.01 58.8 461.443 58.94 461.003 59.22C460.563 59.4867 460.21 59.8533 459.943 60.32L458.863 59.52C458.996 59.2533 459.176 58.9933 459.403 58.74C459.63 58.4867 459.91 58.2667 460.243 58.08C460.576 57.88 460.956 57.7267 461.383 57.62C461.81 57.5 462.283 57.44 462.803 57.44C464.016 57.44 464.976 57.7467 465.683 58.36C466.403 58.9733 466.763 59.8267 466.763 60.92V66.6H468.203V68H467.103ZM462.343 66.9C462.756 66.9 463.13 66.8533 463.463 66.76C463.81 66.6533 464.11 66.52 464.363 66.36C464.616 66.1867 464.81 65.9867 464.943 65.76C465.09 65.52 465.163 65.2667 465.163 65V63.3H462.963C462.003 63.3 461.303 63.4333 460.863 63.7C460.423 63.9667 460.203 64.3533 460.203 64.86V65.28C460.203 65.8133 460.39 66.22 460.763 66.5C461.15 66.7667 461.676 66.9 462.343 66.9ZM470.485 66.64H473.505V59.04H470.485V57.68H475.105V60.28H475.205C475.419 59.4667 475.819 58.8333 476.405 58.38C477.005 57.9133 477.765 57.68 478.685 57.68H480.125V59.28H478.185C477.265 59.28 476.519 59.5467 475.945 60.08C475.385 60.6133 475.105 61.3133 475.105 62.18V66.64H479.105V68H470.485V66.64ZM487.328 55.4C486.861 55.4 486.534 55.3067 486.348 55.12C486.161 54.92 486.068 54.6733 486.068 54.38V54.06C486.068 53.7667 486.161 53.5267 486.348 53.34C486.534 53.14 486.861 53.04 487.328 53.04C487.794 53.04 488.121 53.14 488.308 53.34C488.494 53.5267 488.588 53.7667 488.588 54.06V54.38C488.588 54.6733 488.494 54.92 488.308 55.12C488.121 55.3067 487.794 55.4 487.328 55.4ZM482.808 66.64H486.528V59.04H482.808V57.68H488.128V66.64H491.608V68H482.808V66.64ZM498.43 68.24C497.71 68.24 497.056 68.1133 496.47 67.86C495.896 67.6067 495.403 67.2467 494.99 66.78C494.59 66.3 494.283 65.7333 494.07 65.08C493.856 64.4133 493.75 63.6667 493.75 62.84C493.75 62.0267 493.856 61.2867 494.07 60.62C494.283 59.9533 494.59 59.3867 494.99 58.92C495.403 58.44 495.896 58.0733 496.47 57.82C497.056 57.5667 497.71 57.44 498.43 57.44C499.15 57.44 499.796 57.5667 500.37 57.82C500.956 58.0733 501.45 58.44 501.85 58.92C502.263 59.3867 502.576 59.9533 502.79 60.62C503.003 61.2867 503.11 62.0267 503.11 62.84C503.11 63.6667 503.003 64.4133 502.79 65.08C502.576 65.7333 502.263 66.3 501.85 66.78C501.45 67.2467 500.956 67.6067 500.37 67.86C499.796 68.1133 499.15 68.24 498.43 68.24ZM498.43 66.86C499.323 66.86 500.043 66.5933 500.59 66.06C501.136 65.5267 501.41 64.7 501.41 63.58V62.1C501.41 60.98 501.136 60.1533 500.59 59.62C500.043 59.0867 499.323 58.82 498.43 58.82C497.536 58.82 496.816 59.0867 496.27 59.62C495.723 60.1533 495.45 60.98 495.45 62.1V63.58C495.45 64.7 495.723 65.5267 496.27 66.06C496.816 66.5933 497.536 66.86 498.43 66.86ZM512.612 66.32H512.532C512.425 66.5733 512.292 66.82 512.132 67.06C511.972 67.2867 511.772 67.4867 511.532 67.66C511.305 67.8333 511.032 67.9733 510.712 68.08C510.392 68.1867 510.019 68.24 509.592 68.24C508.512 68.24 507.645 67.9 506.992 67.22C506.339 66.5267 506.012 65.5533 506.012 64.3V57.68H507.612V64.02C507.612 64.9667 507.819 65.6733 508.232 66.14C508.645 66.5933 509.252 66.82 510.052 66.82C510.372 66.82 510.685 66.78 510.992 66.7C511.299 66.62 511.572 66.5 511.812 66.34C512.052 66.18 512.245 65.98 512.392 65.74C512.539 65.4867 512.612 65.1867 512.612 64.84V57.68H514.212V68H512.612V66.32ZM522.034 68.24C520.954 68.24 520.021 68.06 519.234 67.7C518.461 67.3267 517.801 66.8333 517.254 66.22L518.334 65.28C518.827 65.8 519.367 66.2 519.954 66.48C520.541 66.76 521.247 66.9 522.074 66.9C522.874 66.9 523.527 66.76 524.034 66.48C524.554 66.1867 524.814 65.7333 524.814 65.12C524.814 64.8533 524.761 64.6333 524.654 64.46C524.561 64.2733 524.427 64.1267 524.254 64.02C524.081 63.9133 523.887 63.8333 523.674 63.78C523.461 63.7133 523.234 63.66 522.994 63.62L521.374 63.38C521.014 63.3267 520.621 63.2533 520.194 63.16C519.781 63.0667 519.401 62.92 519.054 62.72C518.707 62.5067 518.414 62.2267 518.174 61.88C517.947 61.5333 517.834 61.08 517.834 60.52C517.834 60 517.934 59.5533 518.134 59.18C518.347 58.7933 518.641 58.4733 519.014 58.22C519.387 57.9533 519.827 57.76 520.334 57.64C520.841 57.5067 521.394 57.44 521.994 57.44C522.927 57.44 523.734 57.5867 524.414 57.88C525.107 58.1733 525.701 58.58 526.194 59.1L525.154 60.08C525.034 59.9333 524.881 59.7867 524.694 59.64C524.521 59.48 524.301 59.34 524.034 59.22C523.781 59.0867 523.481 58.98 523.134 58.9C522.787 58.82 522.387 58.78 521.934 58.78C521.121 58.78 520.494 58.92 520.054 59.2C519.627 59.48 519.414 59.8867 519.414 60.42C519.414 60.6867 519.461 60.9133 519.554 61.1C519.661 61.2733 519.801 61.4133 519.974 61.52C520.147 61.6267 520.341 61.7133 520.554 61.78C520.781 61.8333 521.007 61.88 521.234 61.92L522.854 62.16C523.227 62.2133 523.621 62.2867 524.034 62.38C524.447 62.4733 524.827 62.6267 525.174 62.84C525.521 63.04 525.807 63.3133 526.034 63.66C526.274 64.0067 526.394 64.46 526.394 65.02C526.394 66.0467 525.994 66.84 525.194 67.4C524.407 67.96 523.354 68.24 522.034 68.24ZM541.058 66.64H544.538V59.04H540.858V57.68H544.538V55.56C544.538 54.8667 544.718 54.3 545.078 53.86C545.452 53.42 546.032 53.2 546.818 53.2H550.278V54.56H546.138V57.68H550.278V59.04H546.138V66.64H549.818V68H541.058V66.64ZM557.781 55.4C557.314 55.4 556.987 55.3067 556.801 55.12C556.614 54.92 556.521 54.6733 556.521 54.38V54.06C556.521 53.7667 556.614 53.5267 556.801 53.34C556.987 53.14 557.314 53.04 557.781 53.04C558.247 53.04 558.574 53.14 558.761 53.34C558.947 53.5267 559.041 53.7667 559.041 54.06V54.38C559.041 54.6733 558.947 54.92 558.761 55.12C558.574 55.3067 558.247 55.4 557.781 55.4ZM553.261 66.64H556.981V59.04H553.261V57.68H558.581V66.64H562.061V68H553.261V66.64ZM569.063 68.24C568.316 68.24 567.643 68.1133 567.043 67.86C566.456 67.6067 565.949 67.2467 565.523 66.78C565.109 66.3 564.789 65.7333 564.563 65.08C564.336 64.4133 564.223 63.6733 564.223 62.86C564.223 62.0333 564.336 61.2867 564.563 60.62C564.803 59.9533 565.129 59.3867 565.543 58.92C565.956 58.44 566.449 58.0733 567.023 57.82C567.609 57.5667 568.256 57.44 568.963 57.44C569.656 57.44 570.283 57.5667 570.843 57.82C571.416 58.0733 571.903 58.4267 572.303 58.88C572.703 59.32 573.009 59.8467 573.223 60.46C573.436 61.0733 573.543 61.7467 573.543 62.48V63.24H565.903V63.72C565.903 64.1733 565.976 64.5933 566.123 64.98C566.269 65.3667 566.476 65.7 566.743 65.98C567.023 66.26 567.356 66.48 567.743 66.64C568.143 66.7867 568.583 66.86 569.063 66.86C569.756 66.86 570.356 66.7 570.863 66.38C571.369 66.06 571.756 65.62 572.023 65.06L573.203 65.86C572.896 66.5533 572.383 67.1267 571.663 67.58C570.956 68.02 570.089 68.24 569.063 68.24ZM568.963 58.76C568.523 58.76 568.116 58.84 567.743 59C567.369 59.16 567.043 59.38 566.763 59.66C566.496 59.94 566.283 60.2733 566.123 60.66C565.976 61.0333 565.903 61.4467 565.903 61.9V62.04H571.823V61.82C571.823 61.3667 571.749 60.9533 571.603 60.58C571.469 60.2067 571.276 59.8867 571.023 59.62C570.783 59.34 570.483 59.1267 570.123 58.98C569.776 58.8333 569.389 58.76 568.963 58.76ZM576.225 66.64H579.825V54.56H576.225V53.2H581.425V66.64H585.025V68H576.225V66.64ZM594.867 66.32H594.787C594.121 67.6 593.061 68.24 591.607 68.24C590.341 68.24 589.347 67.7667 588.627 66.82C587.921 65.8733 587.567 64.5467 587.567 62.84C587.567 61.1333 587.921 59.8067 588.627 58.86C589.347 57.9133 590.341 57.44 591.607 57.44C593.061 57.44 594.121 58.08 594.787 59.36H594.867V53.2H596.467V68H594.867V66.32ZM592.227 66.82C592.587 66.82 592.927 66.7733 593.247 66.68C593.567 66.5867 593.847 66.4533 594.087 66.28C594.327 66.0933 594.514 65.8733 594.647 65.62C594.794 65.3533 594.867 65.0467 594.867 64.7V60.98C594.867 60.6333 594.794 60.3333 594.647 60.08C594.514 59.8133 594.327 59.5933 594.087 59.42C593.847 59.2333 593.567 59.0933 593.247 59C592.927 58.9067 592.587 58.86 592.227 58.86C591.294 58.86 590.567 59.1467 590.047 59.72C589.541 60.28 589.287 61.0267 589.287 61.96V63.72C589.287 64.6533 589.541 65.4067 590.047 65.98C590.567 66.54 591.294 66.82 592.227 66.82ZM604.229 68.24C603.149 68.24 602.216 68.06 601.429 67.7C600.656 67.3267 599.996 66.8333 599.449 66.22L600.529 65.28C601.023 65.8 601.563 66.2 602.149 66.48C602.736 66.76 603.443 66.9 604.269 66.9C605.069 66.9 605.723 66.76 606.229 66.48C606.749 66.1867 607.009 65.7333 607.009 65.12C607.009 64.8533 606.956 64.6333 606.849 64.46C606.756 64.2733 606.623 64.1267 606.449 64.02C606.276 63.9133 606.083 63.8333 605.869 63.78C605.656 63.7133 605.429 63.66 605.189 63.62L603.569 63.38C603.209 63.3267 602.816 63.2533 602.389 63.16C601.976 63.0667 601.596 62.92 601.249 62.72C600.903 62.5067 600.609 62.2267 600.369 61.88C600.143 61.5333 600.029 61.08 600.029 60.52C600.029 60 600.129 59.5533 600.329 59.18C600.543 58.7933 600.836 58.4733 601.209 58.22C601.583 57.9533 602.023 57.76 602.529 57.64C603.036 57.5067 603.589 57.44 604.189 57.44C605.123 57.44 605.929 57.5867 606.609 57.88C607.303 58.1733 607.896 58.58 608.389 59.1L607.349 60.08C607.229 59.9333 607.076 59.7867 606.889 59.64C606.716 59.48 606.496 59.34 606.229 59.22C605.976 59.0867 605.676 58.98 605.329 58.9C604.983 58.82 604.583 58.78 604.129 58.78C603.316 58.78 602.689 58.92 602.249 59.2C601.823 59.48 601.609 59.8867 601.609 60.42C601.609 60.6867 601.656 60.9133 601.749 61.1C601.856 61.2733 601.996 61.4133 602.169 61.52C602.343 61.6267 602.536 61.7133 602.749 61.78C602.976 61.8333 603.203 61.88 603.429 61.92L605.049 62.16C605.423 62.2133 605.816 62.2867 606.229 62.38C606.643 62.4733 607.023 62.6267 607.369 62.84C607.716 63.04 608.003 63.3133 608.229 63.66C608.469 64.0067 608.589 64.46 608.589 65.02C608.589 66.0467 608.189 66.84 607.389 67.4C606.603 67.96 605.549 68.24 604.229 68.24Z" fill="#A3FFF6"/>
</svg>
