<svg width="368" height="82" viewBox="0 0 368 82" fill="none" xmlns="http://www.w3.org/2000/svg">
<rect width="368" height="82" fill="#CBCE9E" fill-opacity="0.21"/>
<path d="M59.482 22V32H58.138V22H54.41V20.832H63.21V22H59.482ZM64.9217 20.16H66.2017V25.088H66.2657C66.3511 24.8853 66.4577 24.6933 66.5857 24.512C66.7137 24.32 66.8684 24.1547 67.0497 24.016C67.2417 23.8773 67.4657 23.7653 67.7217 23.68C67.9777 23.5947 68.2764 23.552 68.6177 23.552C69.4817 23.552 70.1751 23.8293 70.6977 24.384C71.2204 24.928 71.4817 25.7013 71.4817 26.704V32H70.2017V26.928C70.2017 26.1707 70.0364 25.6107 69.7057 25.248C69.3751 24.8747 68.8897 24.688 68.2497 24.688C67.9937 24.688 67.7431 24.72 67.4977 24.784C67.2524 24.848 67.0337 24.944 66.8417 25.072C66.6497 25.2 66.4951 25.3653 66.3777 25.568C66.2604 25.7707 66.2017 26.0053 66.2017 26.272V32H64.9217V20.16ZM77.6415 32.192C77.0441 32.192 76.5055 32.0907 76.0255 31.888C75.5561 31.6853 75.1508 31.3973 74.8095 31.024C74.4788 30.64 74.2228 30.1867 74.0415 29.664C73.8601 29.1307 73.7695 28.5387 73.7695 27.888C73.7695 27.2267 73.8601 26.6293 74.0415 26.096C74.2335 25.5627 74.4948 25.1093 74.8255 24.736C75.1561 24.352 75.5508 24.0587 76.0095 23.856C76.4788 23.6533 76.9961 23.552 77.5615 23.552C78.1161 23.552 78.6175 23.6533 79.0655 23.856C79.5241 24.0587 79.9135 24.3413 80.2335 24.704C80.5535 25.056 80.7988 25.4773 80.9695 25.968C81.1401 26.4587 81.2255 26.9973 81.2255 27.584V28.192H75.1135V28.576C75.1135 28.9387 75.1721 29.2747 75.2895 29.584C75.4068 29.8933 75.5721 30.16 75.7855 30.384C76.0095 30.608 76.2761 30.784 76.5855 30.912C76.9055 31.0293 77.2575 31.088 77.6415 31.088C78.1961 31.088 78.6761 30.96 79.0815 30.704C79.4868 30.448 79.7961 30.096 80.0095 29.648L80.9535 30.288C80.7081 30.8427 80.2975 31.3013 79.7215 31.664C79.1561 32.016 78.4628 32.192 77.6415 32.192ZM77.5615 24.608C77.2095 24.608 76.8841 24.672 76.5855 24.8C76.2868 24.928 76.0255 25.104 75.8015 25.328C75.5881 25.552 75.4175 25.8187 75.2895 26.128C75.1721 26.4267 75.1135 26.7573 75.1135 27.12V27.232H79.8495V27.056C79.8495 26.6933 79.7908 26.3627 79.6735 26.064C79.5668 25.7653 79.4121 25.5093 79.2095 25.296C79.0175 25.072 78.7775 24.9013 78.4895 24.784C78.2121 24.6667 77.9028 24.608 77.5615 24.608ZM83.2732 30.912H85.6892V24.832H83.2732V23.744H86.9692V25.824H87.0492C87.2199 25.1733 87.5399 24.6667 88.0092 24.304C88.4892 23.9307 89.0972 23.744 89.8332 23.744H90.9852V25.024H89.4332C88.6972 25.024 88.0999 25.2373 87.6412 25.664C87.1932 26.0907 86.9692 26.6507 86.9692 27.344V30.912H90.1692V32H83.2732V30.912ZM96.329 32.192C95.7316 32.192 95.193 32.0907 94.713 31.888C94.2436 31.6853 93.8383 31.3973 93.497 31.024C93.1663 30.64 92.9103 30.1867 92.729 29.664C92.5476 29.1307 92.457 28.5387 92.457 27.888C92.457 27.2267 92.5476 26.6293 92.729 26.096C92.921 25.5627 93.1823 25.1093 93.513 24.736C93.8436 24.352 94.2383 24.0587 94.697 23.856C95.1663 23.6533 95.6836 23.552 96.249 23.552C96.8036 23.552 97.305 23.6533 97.753 23.856C98.2116 24.0587 98.601 24.3413 98.921 24.704C99.241 25.056 99.4863 25.4773 99.657 25.968C99.8276 26.4587 99.913 26.9973 99.913 27.584V28.192H93.801V28.576C93.801 28.9387 93.8596 29.2747 93.977 29.584C94.0943 29.8933 94.2596 30.16 94.473 30.384C94.697 30.608 94.9636 30.784 95.273 30.912C95.593 31.0293 95.945 31.088 96.329 31.088C96.8836 31.088 97.3636 30.96 97.769 30.704C98.1743 30.448 98.4836 30.096 98.697 29.648L99.641 30.288C99.3956 30.8427 98.985 31.3013 98.409 31.664C97.8436 32.016 97.1503 32.192 96.329 32.192ZM96.249 24.608C95.897 24.608 95.5716 24.672 95.273 24.8C94.9743 24.928 94.713 25.104 94.489 25.328C94.2756 25.552 94.105 25.8187 93.977 26.128C93.8596 26.4267 93.801 26.7573 93.801 27.12V27.232H98.537V27.056C98.537 26.6933 98.4783 26.3627 98.361 26.064C98.2543 25.7653 98.0996 25.5093 97.897 25.296C97.705 25.072 97.465 24.9013 97.177 24.784C96.8996 24.6667 96.5903 24.608 96.249 24.608ZM115.384 21.92C115.011 21.92 114.75 21.8453 114.6 21.696C114.451 21.536 114.376 21.3387 114.376 21.104V20.848C114.376 20.6133 114.451 20.4213 114.6 20.272C114.75 20.112 115.011 20.032 115.384 20.032C115.758 20.032 116.019 20.112 116.168 20.272C116.318 20.4213 116.392 20.6133 116.392 20.848V21.104C116.392 21.3387 116.318 21.536 116.168 21.696C116.019 21.8453 115.758 21.92 115.384 21.92ZM111.768 30.912H114.744V24.832H111.768V23.744H116.024V30.912H118.808V32H111.768V30.912ZM124.312 32.192C123.448 32.192 122.702 32.048 122.072 31.76C121.454 31.4613 120.926 31.0667 120.488 30.576L121.352 29.824C121.747 30.24 122.179 30.56 122.648 30.784C123.118 31.008 123.683 31.12 124.344 31.12C124.984 31.12 125.507 31.008 125.912 30.784C126.328 30.5493 126.536 30.1867 126.536 29.696C126.536 29.4827 126.494 29.3067 126.408 29.168C126.334 29.0187 126.227 28.9013 126.088 28.816C125.95 28.7307 125.795 28.6667 125.624 28.624C125.454 28.5707 125.272 28.528 125.08 28.496L123.784 28.304C123.496 28.2613 123.182 28.2027 122.84 28.128C122.51 28.0533 122.206 27.936 121.928 27.776C121.651 27.6053 121.416 27.3813 121.224 27.104C121.043 26.8267 120.952 26.464 120.952 26.016C120.952 25.6 121.032 25.2427 121.192 24.944C121.363 24.6347 121.598 24.3787 121.896 24.176C122.195 23.9627 122.547 23.808 122.952 23.712C123.358 23.6053 123.8 23.552 124.28 23.552C125.027 23.552 125.672 23.6693 126.216 23.904C126.771 24.1387 127.246 24.464 127.64 24.88L126.808 25.664C126.712 25.5467 126.59 25.4293 126.44 25.312C126.302 25.184 126.126 25.072 125.912 24.976C125.71 24.8693 125.47 24.784 125.192 24.72C124.915 24.656 124.595 24.624 124.232 24.624C123.582 24.624 123.08 24.736 122.728 24.96C122.387 25.184 122.216 25.5093 122.216 25.936C122.216 26.1493 122.254 26.3307 122.328 26.48C122.414 26.6187 122.526 26.7307 122.664 26.816C122.803 26.9013 122.958 26.9707 123.128 27.024C123.31 27.0667 123.491 27.104 123.672 27.136L124.968 27.328C125.267 27.3707 125.582 27.4293 125.912 27.504C126.243 27.5787 126.547 27.7013 126.824 27.872C127.102 28.032 127.331 28.2507 127.512 28.528C127.704 28.8053 127.8 29.168 127.8 29.616C127.8 30.4373 127.48 31.072 126.84 31.52C126.211 31.968 125.368 32.192 124.312 32.192ZM139.672 32V23.744H140.952V25.088H141.016C141.101 24.8853 141.208 24.6933 141.336 24.512C141.464 24.32 141.618 24.1547 141.8 24.016C141.992 23.8773 142.216 23.7653 142.472 23.68C142.728 23.5947 143.026 23.552 143.368 23.552C144.232 23.552 144.925 23.8293 145.448 24.384C145.97 24.928 146.232 25.7013 146.232 26.704V32H144.952V26.928C144.952 26.1707 144.786 25.6107 144.456 25.248C144.125 24.8747 143.64 24.688 143 24.688C142.744 24.688 142.493 24.72 142.248 24.784C142.002 24.848 141.784 24.944 141.592 25.072C141.4 25.2 141.245 25.3653 141.128 25.568C141.01 25.7707 140.952 26.0053 140.952 26.272V32H139.672ZM152.247 32.192C151.671 32.192 151.149 32.0907 150.679 31.888C150.221 31.6853 149.826 31.3973 149.495 31.024C149.175 30.64 148.93 30.1867 148.759 29.664C148.589 29.1307 148.503 28.5333 148.503 27.872C148.503 27.2213 148.589 26.6293 148.759 26.096C148.93 25.5627 149.175 25.1093 149.495 24.736C149.826 24.352 150.221 24.0587 150.679 23.856C151.149 23.6533 151.671 23.552 152.247 23.552C152.823 23.552 153.341 23.6533 153.799 23.856C154.269 24.0587 154.663 24.352 154.983 24.736C155.314 25.1093 155.565 25.5627 155.735 26.096C155.906 26.6293 155.991 27.2213 155.991 27.872C155.991 28.5333 155.906 29.1307 155.735 29.664C155.565 30.1867 155.314 30.64 154.983 31.024C154.663 31.3973 154.269 31.6853 153.799 31.888C153.341 32.0907 152.823 32.192 152.247 32.192ZM152.247 31.088C152.962 31.088 153.538 30.8747 153.975 30.448C154.413 30.0213 154.631 29.36 154.631 28.464V27.28C154.631 26.384 154.413 25.7227 153.975 25.296C153.538 24.8693 152.962 24.656 152.247 24.656C151.533 24.656 150.957 24.8693 150.519 25.296C150.082 25.7227 149.863 26.384 149.863 27.28V28.464C149.863 29.36 150.082 30.0213 150.519 30.448C150.957 30.8747 151.533 31.088 152.247 31.088ZM171.335 32C170.706 32 170.242 31.824 169.943 31.472C169.655 31.12 169.511 30.6667 169.511 30.112V24.832H166.759V23.744H168.807C169.084 23.744 169.276 23.6907 169.383 23.584C169.5 23.4667 169.559 23.2693 169.559 22.992V20.832H170.791V23.744H174.551V24.832H170.791V30.912H174.551V32H171.335ZM180.791 21.92C180.417 21.92 180.156 21.8453 180.007 21.696C179.857 21.536 179.783 21.3387 179.783 21.104V20.848C179.783 20.6133 179.857 20.4213 180.007 20.272C180.156 20.112 180.417 20.032 180.791 20.032C181.164 20.032 181.425 20.112 181.575 20.272C181.724 20.4213 181.799 20.6133 181.799 20.848V21.104C181.799 21.3387 181.724 21.536 181.575 21.696C181.425 21.8453 181.164 21.92 180.791 21.92ZM177.175 30.912H180.151V24.832H177.175V23.744H181.431V30.912H184.215V32H177.175V30.912ZM185.686 32V23.744H186.87V24.704H186.934C187.062 24.384 187.244 24.112 187.478 23.888C187.713 23.664 188.06 23.552 188.518 23.552C188.998 23.552 189.356 23.6747 189.59 23.92C189.825 24.1547 189.969 24.464 190.022 24.848H190.07C190.22 24.4747 190.433 24.1653 190.71 23.92C190.988 23.6747 191.372 23.552 191.862 23.552C192.534 23.552 192.982 23.7867 193.206 24.256C193.441 24.7253 193.558 25.3973 193.558 26.272V32H192.374V26.48C192.374 25.776 192.3 25.2907 192.15 25.024C192.012 24.7467 191.75 24.608 191.366 24.608C191.025 24.608 190.748 24.72 190.534 24.944C190.321 25.1573 190.214 25.488 190.214 25.936V32H189.03V26.48C189.03 25.776 188.956 25.2907 188.806 25.024C188.668 24.7467 188.412 24.608 188.038 24.608C187.697 24.608 187.414 24.72 187.19 24.944C186.977 25.1573 186.87 25.488 186.87 25.936V32H185.686ZM199.11 32.192C198.513 32.192 197.974 32.0907 197.494 31.888C197.025 31.6853 196.62 31.3973 196.278 31.024C195.948 30.64 195.692 30.1867 195.51 29.664C195.329 29.1307 195.238 28.5387 195.238 27.888C195.238 27.2267 195.329 26.6293 195.51 26.096C195.702 25.5627 195.964 25.1093 196.294 24.736C196.625 24.352 197.02 24.0587 197.478 23.856C197.948 23.6533 198.465 23.552 199.03 23.552C199.585 23.552 200.086 23.6533 200.534 23.856C200.993 24.0587 201.382 24.3413 201.702 24.704C202.022 25.056 202.268 25.4773 202.438 25.968C202.609 26.4587 202.694 26.9973 202.694 27.584V28.192H196.582V28.576C196.582 28.9387 196.641 29.2747 196.758 29.584C196.876 29.8933 197.041 30.16 197.254 30.384C197.478 30.608 197.745 30.784 198.054 30.912C198.374 31.0293 198.726 31.088 199.11 31.088C199.665 31.088 200.145 30.96 200.55 30.704C200.956 30.448 201.265 30.096 201.478 29.648L202.422 30.288C202.177 30.8427 201.766 31.3013 201.19 31.664C200.625 32.016 199.932 32.192 199.11 32.192ZM199.03 24.608C198.678 24.608 198.353 24.672 198.054 24.8C197.756 24.928 197.494 25.104 197.27 25.328C197.057 25.552 196.886 25.8187 196.758 26.128C196.641 26.4267 196.582 26.7573 196.582 27.12V27.232H201.318V27.056C201.318 26.6933 201.26 26.3627 201.142 26.064C201.036 25.7653 200.881 25.5093 200.678 25.296C200.486 25.072 200.246 24.9013 199.958 24.784C199.681 24.6667 199.372 24.608 199.03 24.608ZM218.054 32C217.424 32 216.96 31.824 216.662 31.472C216.374 31.12 216.23 30.6667 216.23 30.112V24.832H213.478V23.744H215.526C215.803 23.744 215.995 23.6907 216.102 23.584C216.219 23.4667 216.278 23.2693 216.278 22.992V20.832H217.51V23.744H221.27V24.832H217.51V30.912H221.27V32H218.054ZM226.997 32.192C226.421 32.192 225.899 32.0907 225.429 31.888C224.971 31.6853 224.576 31.3973 224.245 31.024C223.925 30.64 223.68 30.1867 223.509 29.664C223.339 29.1307 223.253 28.5333 223.253 27.872C223.253 27.2213 223.339 26.6293 223.509 26.096C223.68 25.5627 223.925 25.1093 224.245 24.736C224.576 24.352 224.971 24.0587 225.429 23.856C225.899 23.6533 226.421 23.552 226.997 23.552C227.573 23.552 228.091 23.6533 228.549 23.856C229.019 24.0587 229.413 24.352 229.733 24.736C230.064 25.1093 230.315 25.5627 230.485 26.096C230.656 26.6293 230.741 27.2213 230.741 27.872C230.741 28.5333 230.656 29.1307 230.485 29.664C230.315 30.1867 230.064 30.64 229.733 31.024C229.413 31.3973 229.019 31.6853 228.549 31.888C228.091 32.0907 227.573 32.192 226.997 32.192ZM226.997 31.088C227.712 31.088 228.288 30.8747 228.725 30.448C229.163 30.0213 229.381 29.36 229.381 28.464V27.28C229.381 26.384 229.163 25.7227 228.725 25.296C228.288 24.8693 227.712 24.656 226.997 24.656C226.283 24.656 225.707 24.8693 225.269 25.296C224.832 25.7227 224.613 26.384 224.613 27.28V28.464C224.613 29.36 224.832 30.0213 225.269 30.448C225.707 30.8747 226.283 31.088 226.997 31.088ZM242.405 23.744H243.685V25.088H243.749C244.282 24.064 245.13 23.552 246.293 23.552C247.306 23.552 248.096 23.9307 248.661 24.688C249.237 25.4453 249.525 26.5067 249.525 27.872C249.525 29.2373 249.237 30.2987 248.661 31.056C248.096 31.8133 247.306 32.192 246.293 32.192C245.13 32.192 244.282 31.68 243.749 30.656H243.685V35.2H242.405V23.744ZM245.797 31.056C246.544 31.056 247.12 30.832 247.525 30.384C247.941 29.9253 248.149 29.3227 248.149 28.576V27.168C248.149 26.4213 247.941 25.824 247.525 25.376C247.12 24.9173 246.544 24.688 245.797 24.688C245.509 24.688 245.237 24.7253 244.981 24.8C244.725 24.8747 244.501 24.9867 244.309 25.136C244.117 25.2747 243.962 25.4507 243.845 25.664C243.738 25.8667 243.685 26.1067 243.685 26.384V29.36C243.685 29.6373 243.738 29.8827 243.845 30.096C243.962 30.2987 244.117 30.4747 244.309 30.624C244.501 30.7627 244.725 30.8693 244.981 30.944C245.237 31.0187 245.509 31.056 245.797 31.056ZM258.149 32C257.647 32 257.29 31.872 257.077 31.616C256.863 31.36 256.73 31.04 256.677 30.656H256.597C256.415 31.136 256.122 31.5147 255.717 31.792C255.322 32.0587 254.789 32.192 254.117 32.192C253.253 32.192 252.565 31.968 252.053 31.52C251.541 31.072 251.285 30.4587 251.285 29.68C251.285 28.912 251.562 28.32 252.117 27.904C252.682 27.488 253.589 27.28 254.837 27.28H256.597V26.464C256.597 25.856 256.426 25.4027 256.085 25.104C255.743 24.7947 255.258 24.64 254.629 24.64C254.074 24.64 253.621 24.752 253.269 24.976C252.917 25.1893 252.634 25.4827 252.421 25.856L251.557 25.216C251.663 25.0027 251.807 24.7947 251.989 24.592C252.17 24.3893 252.394 24.2133 252.661 24.064C252.927 23.904 253.231 23.7813 253.573 23.696C253.914 23.6 254.293 23.552 254.709 23.552C255.679 23.552 256.447 23.7973 257.013 24.288C257.589 24.7787 257.877 25.4613 257.877 26.336V30.88H259.029V32H258.149ZM254.341 31.12C254.671 31.12 254.97 31.0827 255.237 31.008C255.514 30.9227 255.754 30.816 255.957 30.688C256.159 30.5493 256.314 30.3893 256.421 30.208C256.538 30.016 256.597 29.8133 256.597 29.6V28.24H254.837C254.069 28.24 253.509 28.3467 253.157 28.56C252.805 28.7733 252.629 29.0827 252.629 29.488V29.824C252.629 30.2507 252.778 30.576 253.077 30.8C253.386 31.0133 253.807 31.12 254.341 31.12ZM266.324 30.656H266.26C266.175 30.8587 266.068 31.056 265.94 31.248C265.812 31.4293 265.652 31.5893 265.46 31.728C265.279 31.8667 265.06 31.9787 264.804 32.064C264.548 32.1493 264.25 32.192 263.908 32.192C263.044 32.192 262.351 31.92 261.828 31.376C261.306 30.8213 261.044 30.0427 261.044 29.04V23.744H262.324V28.816C262.324 29.5733 262.49 30.1387 262.82 30.512C263.151 30.8747 263.636 31.056 264.276 31.056C264.532 31.056 264.783 31.024 265.028 30.96C265.274 30.896 265.492 30.8 265.684 30.672C265.876 30.544 266.031 30.384 266.148 30.192C266.266 29.9893 266.324 29.7493 266.324 29.472V23.744H267.604V32H266.324V30.656ZM273.812 32.192C272.948 32.192 272.202 32.048 271.572 31.76C270.954 31.4613 270.426 31.0667 269.988 30.576L270.852 29.824C271.247 30.24 271.679 30.56 272.148 30.784C272.618 31.008 273.183 31.12 273.844 31.12C274.484 31.12 275.007 31.008 275.412 30.784C275.828 30.5493 276.036 30.1867 276.036 29.696C276.036 29.4827 275.994 29.3067 275.908 29.168C275.834 29.0187 275.727 28.9013 275.588 28.816C275.45 28.7307 275.295 28.6667 275.124 28.624C274.954 28.5707 274.772 28.528 274.58 28.496L273.284 28.304C272.996 28.2613 272.682 28.2027 272.34 28.128C272.01 28.0533 271.706 27.936 271.428 27.776C271.151 27.6053 270.916 27.3813 270.724 27.104C270.543 26.8267 270.452 26.464 270.452 26.016C270.452 25.6 270.532 25.2427 270.692 24.944C270.863 24.6347 271.098 24.3787 271.396 24.176C271.695 23.9627 272.047 23.808 272.452 23.712C272.858 23.6053 273.3 23.552 273.78 23.552C274.527 23.552 275.172 23.6693 275.716 23.904C276.271 24.1387 276.746 24.464 277.14 24.88L276.308 25.664C276.212 25.5467 276.09 25.4293 275.94 25.312C275.802 25.184 275.626 25.072 275.412 24.976C275.21 24.8693 274.97 24.784 274.692 24.72C274.415 24.656 274.095 24.624 273.732 24.624C273.082 24.624 272.58 24.736 272.228 24.96C271.887 25.184 271.716 25.5093 271.716 25.936C271.716 26.1493 271.754 26.3307 271.828 26.48C271.914 26.6187 272.026 26.7307 272.164 26.816C272.303 26.9013 272.458 26.9707 272.628 27.024C272.81 27.0667 272.991 27.104 273.172 27.136L274.468 27.328C274.767 27.3707 275.082 27.4293 275.412 27.504C275.743 27.5787 276.047 27.7013 276.324 27.872C276.602 28.032 276.831 28.2507 277.012 28.528C277.204 28.8053 277.3 29.168 277.3 29.616C277.3 30.4373 276.98 31.072 276.34 31.52C275.711 31.968 274.868 32.192 273.812 32.192ZM283.204 32.192C282.607 32.192 282.068 32.0907 281.588 31.888C281.119 31.6853 280.713 31.3973 280.372 31.024C280.041 30.64 279.785 30.1867 279.604 29.664C279.423 29.1307 279.332 28.5387 279.332 27.888C279.332 27.2267 279.423 26.6293 279.604 26.096C279.796 25.5627 280.057 25.1093 280.388 24.736C280.719 24.352 281.113 24.0587 281.572 23.856C282.041 23.6533 282.559 23.552 283.124 23.552C283.679 23.552 284.18 23.6533 284.628 23.856C285.087 24.0587 285.476 24.3413 285.796 24.704C286.116 25.056 286.361 25.4773 286.532 25.968C286.703 26.4587 286.788 26.9973 286.788 27.584V28.192H280.676V28.576C280.676 28.9387 280.735 29.2747 280.852 29.584C280.969 29.8933 281.135 30.16 281.348 30.384C281.572 30.608 281.839 30.784 282.148 30.912C282.468 31.0293 282.82 31.088 283.204 31.088C283.759 31.088 284.239 30.96 284.644 30.704C285.049 30.448 285.359 30.096 285.572 29.648L286.516 30.288C286.271 30.8427 285.86 31.3013 285.284 31.664C284.719 32.016 284.025 32.192 283.204 32.192ZM283.124 24.608C282.772 24.608 282.447 24.672 282.148 24.8C281.849 24.928 281.588 25.104 281.364 25.328C281.151 25.552 280.98 25.8187 280.852 26.128C280.735 26.4267 280.676 26.7573 280.676 27.12V27.232H285.412V27.056C285.412 26.6933 285.353 26.3627 285.236 26.064C285.129 25.7653 284.975 25.5093 284.772 25.296C284.58 25.072 284.34 24.9013 284.052 24.784C283.775 24.6667 283.465 24.608 283.124 24.608ZM292.404 32.144C291.966 32.144 291.657 32.0533 291.476 31.872C291.305 31.6907 291.22 31.4613 291.22 31.184V30.896C291.22 30.6187 291.305 30.3893 291.476 30.208C291.657 30.0267 291.966 29.936 292.404 29.936C292.841 29.936 293.145 30.0267 293.316 30.208C293.497 30.3893 293.588 30.6187 293.588 30.896V31.184C293.588 31.4613 293.497 31.6907 293.316 31.872C293.145 32.0533 292.841 32.144 292.404 32.144ZM58.81 62.192C58.1273 62.192 57.5406 62.064 57.05 61.808C56.5593 61.5413 56.154 61.1627 55.834 60.672C55.514 60.1813 55.2793 59.5787 55.13 58.864C54.9806 58.1493 54.906 57.3333 54.906 56.416C54.906 55.5093 54.9806 54.6987 55.13 53.984C55.2793 53.2587 55.514 52.6507 55.834 52.16C56.154 51.6693 56.5593 51.296 57.05 51.04C57.5406 50.7733 58.1273 50.64 58.81 50.64C59.4926 50.64 60.0793 50.7733 60.57 51.04C61.0606 51.296 61.466 51.6693 61.786 52.16C62.106 52.6507 62.3406 53.2587 62.49 53.984C62.6393 54.6987 62.714 55.5093 62.714 56.416C62.714 57.3333 62.6393 58.1493 62.49 58.864C62.3406 59.5787 62.106 60.1813 61.786 60.672C61.466 61.1627 61.0606 61.5413 60.57 61.808C60.0793 62.064 59.4926 62.192 58.81 62.192ZM58.81 61.024C59.258 61.024 59.6366 60.9387 59.946 60.768C60.2553 60.5867 60.5113 60.336 60.714 60.016C60.9166 59.696 61.0606 59.312 61.146 58.864C61.242 58.4053 61.29 57.8933 61.29 57.328V55.504C61.29 54.9493 61.242 54.4427 61.146 53.984C61.0606 53.5253 60.9166 53.136 60.714 52.816C60.5113 52.496 60.2553 52.2507 59.946 52.08C59.6366 51.8987 59.258 51.808 58.81 51.808C58.362 51.808 57.9833 51.8987 57.674 52.08C57.3646 52.2507 57.1086 52.496 56.906 52.816C56.7033 53.136 56.554 53.5253 56.458 53.984C56.3726 54.4427 56.33 54.9493 56.33 55.504V57.328C56.33 57.8933 56.3726 58.4053 56.458 58.864C56.554 59.312 56.7033 59.696 56.906 60.016C57.1086 60.336 57.3646 60.5867 57.674 60.768C57.9833 60.9387 58.362 61.024 58.81 61.024ZM64.9217 62V53.744H66.2017V55.088H66.2657C66.3511 54.8853 66.4577 54.6933 66.5857 54.512C66.7137 54.32 66.8684 54.1547 67.0497 54.016C67.2417 53.8773 67.4657 53.7653 67.7217 53.68C67.9777 53.5947 68.2764 53.552 68.6177 53.552C69.4817 53.552 70.1751 53.8293 70.6977 54.384C71.2204 54.928 71.4817 55.7013 71.4817 56.704V62H70.2017V56.928C70.2017 56.1707 70.0364 55.6107 69.7057 55.248C69.3751 54.8747 68.8897 54.688 68.2497 54.688C67.9937 54.688 67.7431 54.72 67.4977 54.784C67.2524 54.848 67.0337 54.944 66.8417 55.072C66.6497 55.2 66.4951 55.3653 66.3777 55.568C66.2604 55.7707 66.2017 56.0053 66.2017 56.272V62H64.9217ZM73.9775 60.912H76.8575V51.248H73.9775V50.16H78.1375V60.912H81.0175V62H73.9775V60.912ZM89.5132 53.744H90.7932L86.6972 63.808C86.6012 64.0427 86.4946 64.2453 86.3772 64.416C86.2599 64.5973 86.1212 64.7413 85.9612 64.848C85.8012 64.9653 85.6092 65.0507 85.3852 65.104C85.1612 65.168 84.8946 65.2 84.5852 65.2H83.3692V64.112H85.2892L86.2172 61.84L82.8892 53.744H84.2012L85.5932 57.2L86.8252 60.336H86.8892L88.1212 57.2L89.5132 53.744ZM108.649 62C108.147 62 107.79 61.872 107.577 61.616C107.363 61.36 107.23 61.04 107.177 60.656H107.097C106.915 61.136 106.622 61.5147 106.217 61.792C105.822 62.0587 105.289 62.192 104.617 62.192C103.753 62.192 103.065 61.968 102.553 61.52C102.041 61.072 101.785 60.4587 101.785 59.68C101.785 58.912 102.062 58.32 102.617 57.904C103.182 57.488 104.089 57.28 105.337 57.28H107.097V56.464C107.097 55.856 106.926 55.4027 106.585 55.104C106.243 54.7947 105.758 54.64 105.129 54.64C104.574 54.64 104.121 54.752 103.769 54.976C103.417 55.1893 103.134 55.4827 102.921 55.856L102.057 55.216C102.163 55.0027 102.307 54.7947 102.489 54.592C102.67 54.3893 102.894 54.2133 103.161 54.064C103.427 53.904 103.731 53.7813 104.073 53.696C104.414 53.6 104.793 53.552 105.209 53.552C106.179 53.552 106.947 53.7973 107.513 54.288C108.089 54.7787 108.377 55.4613 108.377 56.336V60.88H109.529V62H108.649ZM104.841 61.12C105.171 61.12 105.47 61.0827 105.737 61.008C106.014 60.9227 106.254 60.816 106.457 60.688C106.659 60.5493 106.814 60.3893 106.921 60.208C107.038 60.016 107.097 59.8133 107.097 59.6V58.24H105.337C104.569 58.24 104.009 58.3467 103.657 58.56C103.305 58.7733 103.129 59.0827 103.129 59.488V59.824C103.129 60.2507 103.278 60.576 103.577 60.8C103.886 61.0133 104.307 61.12 104.841 61.12ZM116.872 60.656H116.808C116.275 61.68 115.427 62.192 114.264 62.192C113.251 62.192 112.456 61.8133 111.88 61.056C111.315 60.2987 111.032 59.2373 111.032 57.872C111.032 56.5067 111.315 55.4453 111.88 54.688C112.456 53.9307 113.251 53.552 114.264 53.552C115.427 53.552 116.275 54.064 116.808 55.088H116.872V50.16H118.152V62H116.872V60.656ZM114.76 61.056C115.048 61.056 115.32 61.0187 115.576 60.944C115.832 60.8693 116.056 60.7627 116.248 60.624C116.44 60.4747 116.59 60.2987 116.696 60.096C116.814 59.8827 116.872 59.6373 116.872 59.36V56.384C116.872 56.1067 116.814 55.8667 116.696 55.664C116.59 55.4507 116.44 55.2747 116.248 55.136C116.056 54.9867 115.832 54.8747 115.576 54.8C115.32 54.7253 115.048 54.688 114.76 54.688C114.014 54.688 113.432 54.9173 113.016 55.376C112.611 55.824 112.408 56.4213 112.408 57.168V58.576C112.408 59.3227 112.611 59.9253 113.016 60.384C113.432 60.832 114.014 61.056 114.76 61.056ZM127.336 62C126.835 62 126.478 61.872 126.264 61.616C126.051 61.36 125.918 61.04 125.864 60.656H125.784C125.603 61.136 125.31 61.5147 124.904 61.792C124.51 62.0587 123.976 62.192 123.304 62.192C122.44 62.192 121.752 61.968 121.24 61.52C120.728 61.072 120.472 60.4587 120.472 59.68C120.472 58.912 120.75 58.32 121.304 57.904C121.87 57.488 122.776 57.28 124.024 57.28H125.784V56.464C125.784 55.856 125.614 55.4027 125.272 55.104C124.931 54.7947 124.446 54.64 123.816 54.64C123.262 54.64 122.808 54.752 122.456 54.976C122.104 55.1893 121.822 55.4827 121.608 55.856L120.744 55.216C120.851 55.0027 120.995 54.7947 121.176 54.592C121.358 54.3893 121.582 54.2133 121.848 54.064C122.115 53.904 122.419 53.7813 122.76 53.696C123.102 53.6 123.48 53.552 123.896 53.552C124.867 53.552 125.635 53.7973 126.2 54.288C126.776 54.7787 127.064 55.4613 127.064 56.336V60.88H128.216V62H127.336ZM123.528 61.12C123.859 61.12 124.158 61.0827 124.424 61.008C124.702 60.9227 124.942 60.816 125.144 60.688C125.347 60.5493 125.502 60.3893 125.608 60.208C125.726 60.016 125.784 59.8133 125.784 59.6V58.24H124.024C123.256 58.24 122.696 58.3467 122.344 58.56C121.992 58.7733 121.816 59.0827 121.816 59.488V59.824C121.816 60.2507 121.966 60.576 122.264 60.8C122.574 61.0133 122.995 61.12 123.528 61.12ZM130.28 53.744H131.56V55.088H131.624C132.157 54.064 133.005 53.552 134.168 53.552C135.181 53.552 135.971 53.9307 136.536 54.688C137.112 55.4453 137.4 56.5067 137.4 57.872C137.4 59.2373 137.112 60.2987 136.536 61.056C135.971 61.8133 135.181 62.192 134.168 62.192C133.005 62.192 132.157 61.68 131.624 60.656H131.56V65.2H130.28V53.744ZM133.672 61.056C134.419 61.056 134.995 60.832 135.4 60.384C135.816 59.9253 136.024 59.3227 136.024 58.576V57.168C136.024 56.4213 135.816 55.824 135.4 55.376C134.995 54.9173 134.419 54.688 133.672 54.688C133.384 54.688 133.112 54.7253 132.856 54.8C132.6 54.8747 132.376 54.9867 132.184 55.136C131.992 55.2747 131.837 55.4507 131.72 55.664C131.613 55.8667 131.56 56.1067 131.56 56.384V59.36C131.56 59.6373 131.613 59.8827 131.72 60.096C131.837 60.2987 131.992 60.4747 132.184 60.624C132.376 60.7627 132.6 60.8693 132.856 60.944C133.112 61.0187 133.384 61.056 133.672 61.056ZM143.304 62C142.674 62 142.21 61.824 141.912 61.472C141.624 61.12 141.48 60.6667 141.48 60.112V54.832H138.728V53.744H140.776C141.053 53.744 141.245 53.6907 141.352 53.584C141.469 53.4667 141.528 53.2693 141.528 52.992V50.832H142.76V53.744H146.52V54.832H142.76V60.912H146.52V62H143.304ZM151.559 59.824H153.623L151.783 64.256H150.711L151.559 59.824ZM170.935 62.192C170.359 62.192 169.836 62.0907 169.367 61.888C168.908 61.6853 168.514 61.3973 168.183 61.024C167.863 60.64 167.618 60.1867 167.447 59.664C167.276 59.1307 167.191 58.5333 167.191 57.872C167.191 57.2213 167.276 56.6293 167.447 56.096C167.618 55.5627 167.863 55.1093 168.183 54.736C168.514 54.352 168.908 54.0587 169.367 53.856C169.836 53.6533 170.359 53.552 170.935 53.552C171.511 53.552 172.028 53.6533 172.487 53.856C172.956 54.0587 173.351 54.352 173.671 54.736C174.002 55.1093 174.252 55.5627 174.423 56.096C174.594 56.6293 174.679 57.2213 174.679 57.872C174.679 58.5333 174.594 59.1307 174.423 59.664C174.252 60.1867 174.002 60.64 173.671 61.024C173.351 61.3973 172.956 61.6853 172.487 61.888C172.028 62.0907 171.511 62.192 170.935 62.192ZM170.935 61.088C171.65 61.088 172.226 60.8747 172.663 60.448C173.1 60.0213 173.319 59.36 173.319 58.464V57.28C173.319 56.384 173.1 55.7227 172.663 55.296C172.226 54.8693 171.65 54.656 170.935 54.656C170.22 54.656 169.644 54.8693 169.207 55.296C168.77 55.7227 168.551 56.384 168.551 57.28V58.464C168.551 59.36 168.77 60.0213 169.207 60.448C169.644 60.8747 170.22 61.088 170.935 61.088ZM176.711 60.912H179.127V54.832H176.711V53.744H180.407V55.824H180.487C180.657 55.1733 180.977 54.6667 181.447 54.304C181.927 53.9307 182.535 53.744 183.271 53.744H184.423V55.024H182.871C182.135 55.024 181.537 55.2373 181.079 55.664C180.631 56.0907 180.407 56.6507 180.407 57.344V60.912H183.607V62H176.711V60.912ZM195.686 50.16H196.966V55.088H197.03C197.564 54.064 198.412 53.552 199.574 53.552C200.588 53.552 201.377 53.9307 201.942 54.688C202.518 55.4453 202.806 56.5067 202.806 57.872C202.806 59.2373 202.518 60.2987 201.942 61.056C201.377 61.8133 200.588 62.192 199.574 62.192C198.412 62.192 197.564 61.68 197.03 60.656H196.966V62H195.686V50.16ZM199.078 61.056C199.825 61.056 200.401 60.832 200.806 60.384C201.222 59.9253 201.43 59.3227 201.43 58.576V57.168C201.43 56.4213 201.222 55.824 200.806 55.376C200.401 54.9173 199.825 54.688 199.078 54.688C198.79 54.688 198.518 54.7253 198.262 54.8C198.006 54.8747 197.782 54.9867 197.59 55.136C197.398 55.2747 197.244 55.4507 197.126 55.664C197.02 55.8667 196.966 56.1067 196.966 56.384V59.36C196.966 59.6373 197.02 59.8827 197.126 60.096C197.244 60.2987 197.398 60.4747 197.59 60.624C197.782 60.7627 198.006 60.8693 198.262 60.944C198.518 61.0187 198.79 61.056 199.078 61.056ZM208.454 62.192C207.857 62.192 207.318 62.0907 206.838 61.888C206.369 61.6853 205.963 61.3973 205.622 61.024C205.291 60.64 205.035 60.1867 204.854 59.664C204.673 59.1307 204.582 58.5387 204.582 57.888C204.582 57.2267 204.673 56.6293 204.854 56.096C205.046 55.5627 205.307 55.1093 205.638 54.736C205.969 54.352 206.363 54.0587 206.822 53.856C207.291 53.6533 207.809 53.552 208.374 53.552C208.929 53.552 209.43 53.6533 209.878 53.856C210.337 54.0587 210.726 54.3413 211.046 54.704C211.366 55.056 211.611 55.4773 211.782 55.968C211.953 56.4587 212.038 56.9973 212.038 57.584V58.192H205.926V58.576C205.926 58.9387 205.985 59.2747 206.102 59.584C206.219 59.8933 206.385 60.16 206.598 60.384C206.822 60.608 207.089 60.784 207.398 60.912C207.718 61.0293 208.07 61.088 208.454 61.088C209.009 61.088 209.489 60.96 209.894 60.704C210.299 60.448 210.609 60.096 210.822 59.648L211.766 60.288C211.521 60.8427 211.11 61.3013 210.534 61.664C209.969 62.016 209.275 62.192 208.454 62.192ZM208.374 54.608C208.022 54.608 207.697 54.672 207.398 54.8C207.099 54.928 206.838 55.104 206.614 55.328C206.401 55.552 206.23 55.8187 206.102 56.128C205.985 56.4267 205.926 56.7573 205.926 57.12V57.232H210.662V57.056C210.662 56.6933 210.603 56.3627 210.486 56.064C210.379 55.7653 210.225 55.5093 210.022 55.296C209.83 55.072 209.59 54.9013 209.302 54.784C209.025 54.6667 208.715 54.608 208.374 54.608ZM223.477 60.912H226.357V51.248H223.477V50.16H227.637V60.912H230.517V62H223.477V60.912ZM236.485 62.192C235.888 62.192 235.349 62.0907 234.869 61.888C234.4 61.6853 233.995 61.3973 233.653 61.024C233.323 60.64 233.067 60.1867 232.885 59.664C232.704 59.1307 232.613 58.5387 232.613 57.888C232.613 57.2267 232.704 56.6293 232.885 56.096C233.077 55.5627 233.339 55.1093 233.669 54.736C234 54.352 234.395 54.0587 234.853 53.856C235.323 53.6533 235.84 53.552 236.405 53.552C236.96 53.552 237.461 53.6533 237.909 53.856C238.368 54.0587 238.757 54.3413 239.077 54.704C239.397 55.056 239.643 55.4773 239.813 55.968C239.984 56.4587 240.069 56.9973 240.069 57.584V58.192H233.957V58.576C233.957 58.9387 234.016 59.2747 234.133 59.584C234.251 59.8933 234.416 60.16 234.629 60.384C234.853 60.608 235.12 60.784 235.429 60.912C235.749 61.0293 236.101 61.088 236.485 61.088C237.04 61.088 237.52 60.96 237.925 60.704C238.331 60.448 238.64 60.096 238.853 59.648L239.797 60.288C239.552 60.8427 239.141 61.3013 238.565 61.664C238 62.016 237.307 62.192 236.485 62.192ZM236.405 54.608C236.053 54.608 235.728 54.672 235.429 54.8C235.131 54.928 234.869 55.104 234.645 55.328C234.432 55.552 234.261 55.8187 234.133 56.128C234.016 56.4267 233.957 56.7573 233.957 57.12V57.232H238.693V57.056C238.693 56.6933 238.635 56.3627 238.517 56.064C238.411 55.7653 238.256 55.5093 238.053 55.296C237.861 55.072 237.621 54.9013 237.333 54.784C237.056 54.6667 236.747 54.608 236.405 54.608ZM242.213 60.912H244.997V54.832H242.053V53.744H244.997V52.048C244.997 51.4933 245.141 51.04 245.429 50.688C245.728 50.336 246.192 50.16 246.821 50.16H249.589V51.248H246.277V53.744H249.589V54.832H246.277V60.912H249.221V62H242.213V60.912ZM255.429 62C254.799 62 254.335 61.824 254.037 61.472C253.749 61.12 253.605 60.6667 253.605 60.112V54.832H250.853V53.744H252.901C253.178 53.744 253.37 53.6907 253.477 53.584C253.594 53.4667 253.653 53.2693 253.653 52.992V50.832H254.885V53.744H258.645V54.832H254.885V60.912H258.645V62H255.429ZM270.436 50.16H271.716V55.088H271.78C272.314 54.064 273.162 53.552 274.324 53.552C275.338 53.552 276.127 53.9307 276.692 54.688C277.268 55.4453 277.556 56.5067 277.556 57.872C277.556 59.2373 277.268 60.2987 276.692 61.056C276.127 61.8133 275.338 62.192 274.324 62.192C273.162 62.192 272.314 61.68 271.78 60.656H271.716V62H270.436V50.16ZM273.828 61.056C274.575 61.056 275.151 60.832 275.556 60.384C275.972 59.9253 276.18 59.3227 276.18 58.576V57.168C276.18 56.4213 275.972 55.824 275.556 55.376C275.151 54.9173 274.575 54.688 273.828 54.688C273.54 54.688 273.268 54.7253 273.012 54.8C272.756 54.8747 272.532 54.9867 272.34 55.136C272.148 55.2747 271.994 55.4507 271.876 55.664C271.77 55.8667 271.716 56.1067 271.716 56.384V59.36C271.716 59.6373 271.77 59.8827 271.876 60.096C271.994 60.2987 272.148 60.4747 272.34 60.624C272.532 60.7627 272.756 60.8693 273.012 60.944C273.268 61.0187 273.54 61.056 273.828 61.056ZM283.204 62.192C282.607 62.192 282.068 62.0907 281.588 61.888C281.119 61.6853 280.713 61.3973 280.372 61.024C280.041 60.64 279.785 60.1867 279.604 59.664C279.423 59.1307 279.332 58.5387 279.332 57.888C279.332 57.2267 279.423 56.6293 279.604 56.096C279.796 55.5627 280.057 55.1093 280.388 54.736C280.719 54.352 281.113 54.0587 281.572 53.856C282.041 53.6533 282.559 53.552 283.124 53.552C283.679 53.552 284.18 53.6533 284.628 53.856C285.087 54.0587 285.476 54.3413 285.796 54.704C286.116 55.056 286.361 55.4773 286.532 55.968C286.703 56.4587 286.788 56.9973 286.788 57.584V58.192H280.676V58.576C280.676 58.9387 280.735 59.2747 280.852 59.584C280.969 59.8933 281.135 60.16 281.348 60.384C281.572 60.608 281.839 60.784 282.148 60.912C282.468 61.0293 282.82 61.088 283.204 61.088C283.759 61.088 284.239 60.96 284.644 60.704C285.049 60.448 285.359 60.096 285.572 59.648L286.516 60.288C286.271 60.8427 285.86 61.3013 285.284 61.664C284.719 62.016 284.025 62.192 283.204 62.192ZM283.124 54.608C282.772 54.608 282.447 54.672 282.148 54.8C281.849 54.928 281.588 55.104 281.364 55.328C281.151 55.552 280.98 55.8187 280.852 56.128C280.735 56.4267 280.676 56.7573 280.676 57.12V57.232H285.412V57.056C285.412 56.6933 285.353 56.3627 285.236 56.064C285.129 55.7653 284.975 55.5093 284.772 55.296C284.58 55.072 284.34 54.9013 284.052 54.784C283.775 54.6667 283.465 54.608 283.124 54.608ZM289.172 50.16H290.452V55.088H290.516C290.601 54.8853 290.708 54.6933 290.836 54.512C290.964 54.32 291.118 54.1547 291.3 54.016C291.492 53.8773 291.716 53.7653 291.972 53.68C292.228 53.5947 292.526 53.552 292.868 53.552C293.732 53.552 294.425 53.8293 294.948 54.384C295.47 54.928 295.732 55.7013 295.732 56.704V62H294.452V56.928C294.452 56.1707 294.286 55.6107 293.956 55.248C293.625 54.8747 293.14 54.688 292.5 54.688C292.244 54.688 291.993 54.72 291.748 54.784C291.502 54.848 291.284 54.944 291.092 55.072C290.9 55.2 290.745 55.3653 290.628 55.568C290.51 55.7707 290.452 56.0053 290.452 56.272V62H289.172V50.16ZM302.259 51.92C301.886 51.92 301.625 51.8453 301.475 51.696C301.326 51.536 301.251 51.3387 301.251 51.104V50.848C301.251 50.6133 301.326 50.4213 301.475 50.272C301.625 50.112 301.886 50.032 302.259 50.032C302.633 50.032 302.894 50.112 303.043 50.272C303.193 50.4213 303.267 50.6133 303.267 50.848V51.104C303.267 51.3387 303.193 51.536 303.043 51.696C302.894 51.8453 302.633 51.92 302.259 51.92ZM298.643 60.912H301.619V54.832H298.643V53.744H302.899V60.912H305.683V62H298.643V60.912ZM307.859 62V53.744H309.139V55.088H309.203C309.289 54.8853 309.395 54.6933 309.523 54.512C309.651 54.32 309.806 54.1547 309.987 54.016C310.179 53.8773 310.403 53.7653 310.659 53.68C310.915 53.5947 311.214 53.552 311.555 53.552C312.419 53.552 313.113 53.8293 313.635 54.384C314.158 54.928 314.419 55.7013 314.419 56.704V62H313.139V56.928C313.139 56.1707 312.974 55.6107 312.643 55.248C312.313 54.8747 311.827 54.688 311.187 54.688C310.931 54.688 310.681 54.72 310.435 54.784C310.19 54.848 309.971 54.944 309.779 55.072C309.587 55.2 309.433 55.3653 309.315 55.568C309.198 55.7707 309.139 56.0053 309.139 56.272V62H307.859ZM322.435 60.656H322.371C321.838 61.68 320.99 62.192 319.827 62.192C318.814 62.192 318.019 61.8133 317.443 61.056C316.878 60.2987 316.595 59.2373 316.595 57.872C316.595 56.5067 316.878 55.4453 317.443 54.688C318.019 53.9307 318.814 53.552 319.827 53.552C320.99 53.552 321.838 54.064 322.371 55.088H322.435V50.16H323.715V62H322.435V60.656ZM320.323 61.056C320.611 61.056 320.883 61.0187 321.139 60.944C321.395 60.8693 321.619 60.7627 321.811 60.624C322.003 60.4747 322.152 60.2987 322.259 60.096C322.376 59.8827 322.435 59.6373 322.435 59.36V56.384C322.435 56.1067 322.376 55.8667 322.259 55.664C322.152 55.4507 322.003 55.2747 321.811 55.136C321.619 54.9867 321.395 54.8747 321.139 54.8C320.883 54.7253 320.611 54.688 320.323 54.688C319.576 54.688 318.995 54.9173 318.579 55.376C318.174 55.824 317.971 56.4213 317.971 57.168V58.576C317.971 59.3227 318.174 59.9253 318.579 60.384C318.995 60.832 319.576 61.056 320.323 61.056ZM329.779 62.144C329.341 62.144 329.032 62.0533 328.851 61.872C328.68 61.6907 328.595 61.4613 328.595 61.184V60.896C328.595 60.6187 328.68 60.3893 328.851 60.208C329.032 60.0267 329.341 59.936 329.779 59.936C330.216 59.936 330.52 60.0267 330.691 60.208C330.872 60.3893 330.963 60.6187 330.963 60.896V61.184C330.963 61.4613 330.872 61.6907 330.691 61.872C330.52 62.0533 330.216 62.144 329.779 62.144Z" fill="#A3FFF6"/>
</svg>
