<svg width="1490" height="84" viewBox="0 0 1490 84" fill="none" xmlns="http://www.w3.org/2000/svg">
<rect width="1490" height="84" rx="5" fill="url(#paint0_radial_528_67)"/>
<path d="M666.161 55.9647H663V26.2162H669.394C671.035 26.2162 672.289 27.0402 673.158 28.6881C674.026 30.3361 674.461 32.5807 674.461 35.422C674.461 37.6098 674.171 39.4567 673.592 40.9626C673.029 42.4401 672.217 43.3777 671.155 43.7755L674.75 55.9647H671.276L668.067 44.4148H666.161V55.9647ZM668.742 40.0676C669.595 40.0676 670.206 39.7692 670.576 39.1726C670.946 38.5475 671.131 37.5672 671.131 36.2318V34.6123C671.131 33.2769 670.946 32.3108 670.576 31.7141C670.206 31.0891 669.595 30.7765 668.742 30.7765H666.161V40.0676H668.742Z" fill="#FCFFBA"/>
<path d="M682.814 56.4761C681.816 56.4761 680.932 56.2062 680.16 55.6663C679.387 55.1265 678.736 54.3593 678.205 53.3649C677.69 52.3704 677.296 51.1771 677.023 49.7848C676.749 48.3642 676.613 46.773 676.613 45.0114C676.613 43.2214 676.749 41.6161 677.023 40.1954C677.312 38.7748 677.715 37.5672 678.229 36.5728C678.744 35.5783 679.363 34.8112 680.087 34.2713C680.827 33.7315 681.655 33.4615 682.572 33.4615C683.473 33.4615 684.285 33.7315 685.009 34.2713C685.733 34.7827 686.344 35.5215 686.843 36.4875C687.358 37.4536 687.752 38.6185 688.025 39.9823C688.299 41.3462 688.435 42.852 688.435 44.5V46.29H679.701V46.8441C679.701 48.4352 679.983 49.728 680.546 50.7225C681.109 51.6885 681.897 52.1715 682.91 52.1715C683.682 52.1715 684.342 51.9016 684.889 51.3617C685.452 50.7935 685.918 50.0547 686.288 49.1455L688.049 52.2568C687.599 53.4217 686.939 54.4161 686.071 55.2401C685.218 56.0641 684.133 56.4761 682.814 56.4761ZM682.596 37.4678C681.728 37.4678 681.028 37.9508 680.497 38.9168C679.967 39.8829 679.701 41.1615 679.701 42.7526V43.0509H685.347V42.6674C685.347 41.0762 685.098 39.8119 684.599 38.8742C684.117 37.9366 683.449 37.4678 682.596 37.4678Z" fill="#FCFFBA"/>
<path d="M697.223 56.4761C696.274 56.4761 695.421 56.2062 694.665 55.6663C693.909 55.1265 693.266 54.3593 692.735 53.3649C692.22 52.3704 691.818 51.1629 691.528 49.7422C691.255 48.3216 691.118 46.7304 691.118 44.9688C691.118 43.2072 691.255 41.6161 691.528 40.1954C691.818 38.7748 692.22 37.5672 692.735 36.5728C693.266 35.5783 693.901 34.8112 694.641 34.2713C695.397 33.7315 696.249 33.4615 697.198 33.4615C698.517 33.4615 699.579 33.9446 700.383 34.9106C701.188 35.8766 701.799 37.1552 702.217 38.7464L699.828 41.0478C699.603 40.1102 699.282 39.3572 698.863 38.789C698.461 38.1923 697.906 37.894 697.198 37.894C696.282 37.894 695.574 38.3628 695.075 39.3004C694.593 40.238 694.351 41.5166 694.351 43.1362V46.8015C694.351 48.3926 694.593 49.6712 695.075 50.6372C695.574 51.5748 696.298 52.0437 697.247 52.0437C697.987 52.0437 698.574 51.7453 699.008 51.1486C699.458 50.552 699.82 49.7564 700.094 48.762L702.41 51.1913C701.992 52.754 701.357 54.0326 700.504 55.027C699.668 55.9931 698.574 56.4761 697.223 56.4761Z" fill="#FCFFBA"/>
<path d="M711.246 56.4761C710.248 56.4761 709.364 56.2062 708.591 55.6663C707.819 55.1265 707.168 54.3593 706.637 53.3649C706.122 52.3704 705.728 51.1771 705.455 49.7848C705.181 48.3642 705.045 46.773 705.045 45.0114C705.045 43.2214 705.181 41.6161 705.455 40.1954C705.744 38.7748 706.147 37.5672 706.661 36.5728C707.176 35.5783 707.795 34.8112 708.519 34.2713C709.259 33.7315 710.087 33.4615 711.004 33.4615C711.905 33.4615 712.717 33.7315 713.441 34.2713C714.165 34.7827 714.776 35.5215 715.275 36.4875C715.79 37.4536 716.184 38.6185 716.457 39.9823C716.731 41.3462 716.867 42.852 716.867 44.5V46.29H708.133V46.8441C708.133 48.4352 708.415 49.728 708.978 50.7225C709.541 51.6885 710.329 52.1715 711.342 52.1715C712.114 52.1715 712.774 51.9016 713.321 51.3617C713.884 50.7935 714.35 50.0547 714.72 49.1455L716.481 52.2568C716.031 53.4217 715.371 54.4161 714.503 55.2401C713.65 56.0641 712.565 56.4761 711.246 56.4761ZM711.028 37.4678C710.16 37.4678 709.46 37.9508 708.929 38.9168C708.398 39.8829 708.133 41.1615 708.133 42.7526V43.0509H713.779V42.6674C713.779 41.0762 713.53 39.8119 713.031 38.8742C712.548 37.9366 711.881 37.4678 711.028 37.4678Z" fill="#FCFFBA"/>
<path d="M725.944 30.5634C725.22 30.5634 724.706 30.2935 724.4 29.7536C724.11 29.2138 723.966 28.5603 723.966 27.7931V26.7703C723.966 26.0031 724.11 25.3496 724.4 24.8098C724.706 24.2699 725.22 24 725.944 24C726.668 24 727.175 24.2699 727.464 24.8098C727.77 25.3496 727.923 26.0031 727.923 26.7703V27.7931C727.923 28.5603 727.77 29.2138 727.464 29.7536C727.175 30.2935 726.668 30.5634 725.944 30.5634ZM720.298 51.6601H724.4V38.2775H720.298V33.973H727.488V51.6601H731.3V55.9647H720.298V51.6601Z" fill="#FCFFBA"/>
<path d="M737.53 55.9647L733.066 33.973H736.3L737.964 43.3067L739.364 51.4044H739.533L740.932 43.3067L742.597 33.973H745.709L741.246 55.9647H737.53Z" fill="#FCFFBA"/>
<path d="M754.376 30.5634C753.652 30.5634 753.137 30.2935 752.832 29.7536C752.542 29.2138 752.398 28.5603 752.398 27.7931V26.7703C752.398 26.0031 752.542 25.3496 752.832 24.8098C753.137 24.2699 753.652 24 754.376 24C755.1 24 755.607 24.2699 755.896 24.8098C756.202 25.3496 756.354 26.0031 756.354 26.7703V27.7931C756.354 28.5603 756.202 29.2138 755.896 29.7536C755.607 30.2935 755.1 30.5634 754.376 30.5634ZM748.73 51.6601H752.832V38.2775H748.73V33.973H755.92V51.6601H759.732V55.9647H748.73V51.6601Z" fill="#FCFFBA"/>
<path d="M762.391 55.9647V33.973H765.479V37.8514H765.6C765.874 36.658 766.292 35.6351 766.855 34.7827C767.434 33.9019 768.23 33.4615 769.243 33.4615C770.466 33.4615 771.455 34.1861 772.211 35.6351C772.983 37.0558 773.369 39.1015 773.369 41.7724V55.9647H770.281V42.5395C770.281 39.3572 769.501 37.7661 767.941 37.7661C767.619 37.7661 767.313 37.8371 767.024 37.9792C766.734 38.1213 766.469 38.3486 766.227 38.6611C766.002 38.9453 765.817 39.3004 765.672 39.7266C765.544 40.1528 765.479 40.6642 765.479 41.2609V55.9647H762.391Z" fill="#FCFFBA"/>
<path d="M788.695 58.2661C788.695 60.5676 788.148 62.2581 787.054 63.3378C785.977 64.4459 784.288 65 781.988 65C780.862 65 779.921 64.8721 779.165 64.6164C778.409 64.3891 777.797 64.0482 777.331 63.5936C776.881 63.1389 776.559 62.5849 776.366 61.9314C776.173 61.3063 776.076 60.596 776.076 59.8004C776.076 58.5787 776.277 57.641 776.679 56.9875C777.082 56.334 777.645 55.851 778.368 55.5385V55.1975C777.886 54.9134 777.5 54.5156 777.21 54.0042C776.937 53.4927 776.8 52.7824 776.8 51.8732C776.8 50.7935 777.001 49.9837 777.403 49.4439C777.822 48.904 778.368 48.492 779.044 48.2079V47.9948C778.304 47.3697 777.725 46.4889 777.307 45.3524C776.889 44.2159 776.679 42.8378 776.679 41.2183C776.679 39.9965 776.8 38.9168 777.041 37.9792C777.299 37.0132 777.653 36.2034 778.103 35.5499C778.569 34.868 779.124 34.3565 779.768 34.0156C780.411 33.6462 781.127 33.4615 781.915 33.4615C782.752 33.4615 783.508 33.6604 784.183 34.0582V33.1206C784.183 32.2682 784.336 31.5579 784.642 30.9896C784.963 30.4213 785.406 30.1372 785.969 30.1372H788.213V34.2287H785.269V34.9532C785.88 35.6067 786.347 36.4591 786.668 37.5104C787.006 38.5333 787.175 39.7692 787.175 41.2183C787.175 42.4401 787.046 43.534 786.789 44.5C786.548 45.466 786.194 46.2758 785.727 46.9293C785.277 47.5828 784.722 48.0942 784.063 48.4636C783.419 48.8046 782.703 48.9751 781.915 48.9751C781.593 48.9751 781.28 48.9608 780.974 48.9324C780.685 48.8756 780.403 48.7762 780.13 48.6341C779.905 48.7762 779.687 49.0035 779.478 49.316C779.269 49.6286 779.165 50.0405 779.165 50.552C779.165 51.2339 779.35 51.6601 779.72 51.8306C780.09 51.9726 780.532 52.0437 781.047 52.0437H783.87C784.738 52.0437 785.478 52.1999 786.089 52.5125C786.701 52.7966 787.199 53.2228 787.585 53.7911C787.971 54.3309 788.253 54.9844 788.43 55.7516C788.607 56.5187 788.695 57.3569 788.695 58.2661ZM785.8 58.6497C785.8 57.9962 785.647 57.4705 785.341 57.0728C785.052 56.7034 784.505 56.5187 783.701 56.5187H779.406C778.923 57.0017 778.682 57.7121 778.682 58.6497C778.682 59.4168 778.859 60.0561 779.213 60.5676C779.583 61.079 780.202 61.3347 781.071 61.3347H783.073C784.891 61.3347 785.8 60.4397 785.8 58.6497ZM781.915 45.395C782.703 45.395 783.282 45.0683 783.652 44.4148C784.022 43.7328 784.207 42.852 784.207 41.7724V40.6642C784.207 39.5845 784.022 38.7179 783.652 38.0645C783.282 37.3825 782.703 37.0416 781.915 37.0416C781.143 37.0416 780.572 37.3825 780.202 38.0645C779.832 38.7179 779.647 39.5845 779.647 40.6642V41.7724C779.647 42.852 779.832 43.7328 780.202 44.4148C780.572 45.0683 781.143 45.395 781.915 45.395Z" fill="#FCFFBA"/>
<path d="M796.252 56.4335C795.415 56.4335 794.82 56.1209 794.466 55.4958C794.112 54.8708 793.936 54.1036 793.936 53.1944V51.9158C793.936 51.0066 794.112 50.2394 794.466 49.6143C794.82 48.9893 795.415 48.6767 796.252 48.6767C797.088 48.6767 797.683 48.9893 798.037 49.6143C798.391 50.2394 798.568 51.0066 798.568 51.9158V53.1944C798.568 54.1036 798.391 54.8708 798.037 55.4958C797.683 56.1209 797.088 56.4335 796.252 56.4335Z" fill="#FCFFBA"/>
<path d="M810.468 56.4335C809.631 56.4335 809.036 56.1209 808.682 55.4958C808.328 54.8708 808.151 54.1036 808.151 53.1944V51.9158C808.151 51.0066 808.328 50.2394 808.682 49.6143C809.036 48.9893 809.631 48.6767 810.468 48.6767C811.304 48.6767 811.899 48.9893 812.253 49.6143C812.607 50.2394 812.784 51.0066 812.784 51.9158V53.1944C812.784 54.1036 812.607 54.8708 812.253 55.4958C811.899 56.1209 811.304 56.4335 810.468 56.4335Z" fill="#FCFFBA"/>
<path d="M824.684 56.4335C823.847 56.4335 823.252 56.1209 822.898 55.4958C822.544 54.8708 822.367 54.1036 822.367 53.1944V51.9158C822.367 51.0066 822.544 50.2394 822.898 49.6143C823.252 48.9893 823.847 48.6767 824.684 48.6767C825.52 48.6767 826.115 48.9893 826.469 49.6143C826.823 50.2394 827 51.0066 827 51.9158V53.1944C827 54.1036 826.823 54.8708 826.469 55.4958C826.115 56.1209 825.52 56.4335 824.684 56.4335Z" fill="#FCFFBA"/>
<defs>
<radialGradient id="paint0_radial_528_67" cx="0" cy="0" r="1" gradientUnits="userSpaceOnUse" gradientTransform="translate(745 42) rotate(-0.341617) scale(1236.24 126.468)">
<stop offset="0.125008" stop-color="#B4B4B4" stop-opacity="0.09"/>
<stop offset="0.9999" stop-color="#B1B48D" stop-opacity="0.46"/>
</radialGradient>
</defs>
</svg>
