<svg width="638" height="45" viewBox="0 0 638 45" fill="none" xmlns="http://www.w3.org/2000/svg">
<rect width="531" height="45" fill="#D63789" fill-opacity="0.65"/>
<path d="M18.1594 15.7627V28.2627H16.4794V15.7627H11.8194V14.3027H22.8194V15.7627H18.1594ZM25.0216 13.4627H26.6216V19.6227H26.7016C26.8082 19.3694 26.9416 19.1294 27.1016 18.9027C27.2616 18.6627 27.4549 18.456 27.6816 18.2827C27.9216 18.1094 28.2016 17.9694 28.5216 17.8627C28.8416 17.756 29.2149 17.7027 29.6416 17.7027C30.7216 17.7027 31.5882 18.0494 32.2416 18.7427C32.8949 19.4227 33.2216 20.3894 33.2216 21.6427V28.2627H31.6216V21.9227C31.6216 20.976 31.4149 20.276 31.0016 19.8227C30.5882 19.356 29.9816 19.1227 29.1816 19.1227C28.8616 19.1227 28.5482 19.1627 28.2416 19.2427C27.9349 19.3227 27.6616 19.4427 27.4216 19.6027C27.1816 19.7627 26.9882 19.9694 26.8416 20.2227C26.6949 20.476 26.6216 20.7694 26.6216 21.1027V28.2627H25.0216V13.4627ZM40.9837 28.5027C40.2371 28.5027 39.5637 28.376 38.9637 28.1227C38.3771 27.8694 37.8704 27.5094 37.4437 27.0427C37.0304 26.5627 36.7104 25.996 36.4837 25.3427C36.2571 24.676 36.1437 23.936 36.1437 23.1227C36.1437 22.296 36.2571 21.5494 36.4837 20.8827C36.7237 20.216 37.0504 19.6494 37.4637 19.1827C37.8771 18.7027 38.3704 18.336 38.9437 18.0827C39.5304 17.8294 40.1771 17.7027 40.8837 17.7027C41.5771 17.7027 42.2037 17.8294 42.7637 18.0827C43.3371 18.336 43.8237 18.6894 44.2237 19.1427C44.6237 19.5827 44.9304 20.1094 45.1437 20.7227C45.3571 21.336 45.4637 22.0094 45.4637 22.7427V23.5027H37.8237V23.9827C37.8237 24.436 37.8971 24.856 38.0437 25.2427C38.1904 25.6294 38.3971 25.9627 38.6637 26.2427C38.9437 26.5227 39.2771 26.7427 39.6637 26.9027C40.0637 27.0494 40.5037 27.1227 40.9837 27.1227C41.6771 27.1227 42.2771 26.9627 42.7837 26.6427C43.2904 26.3227 43.6771 25.8827 43.9437 25.3227L45.1237 26.1227C44.8171 26.816 44.3037 27.3894 43.5837 27.8427C42.8771 28.2827 42.0104 28.5027 40.9837 28.5027ZM40.8837 19.0227C40.4437 19.0227 40.0371 19.1027 39.6637 19.2627C39.2904 19.4227 38.9637 19.6427 38.6837 19.9227C38.4171 20.2027 38.2037 20.536 38.0437 20.9227C37.8971 21.296 37.8237 21.7094 37.8237 22.1627V22.3027H43.7437V22.0827C43.7437 21.6294 43.6704 21.216 43.5237 20.8427C43.3904 20.4694 43.1971 20.1494 42.9437 19.8827C42.7037 19.6027 42.4037 19.3894 42.0437 19.2427C41.6971 19.096 41.3104 19.0227 40.8837 19.0227ZM69.5081 29.4427C69.5081 30.4827 69.0748 31.2494 68.2081 31.7427C67.3415 32.2494 66.0415 32.5027 64.3081 32.5027C62.6415 32.5027 61.4415 32.2827 60.7081 31.8427C59.9881 31.4027 59.6281 30.7694 59.6281 29.9427C59.6281 29.3827 59.7748 28.9494 60.0681 28.6427C60.3614 28.336 60.7748 28.1094 61.3081 27.9627V27.7227C61.0148 27.576 60.7881 27.3894 60.6281 27.1627C60.4681 26.936 60.3881 26.6494 60.3881 26.3027C60.3881 25.7694 60.5614 25.3694 60.9081 25.1027C61.2681 24.836 61.7148 24.636 62.2481 24.5027V24.4227C61.6081 24.1427 61.1081 23.7294 60.7481 23.1827C60.4014 22.636 60.2281 21.996 60.2281 21.2627C60.2281 20.7427 60.3214 20.2627 60.5081 19.8227C60.6948 19.3827 60.9614 19.0094 61.3081 18.7027C61.6681 18.3827 62.0948 18.136 62.5881 17.9627C63.0814 17.7894 63.6281 17.7027 64.2281 17.7027C65.0015 17.7027 65.6815 17.8427 66.2681 18.1227V17.9427C66.2681 17.5427 66.3615 17.2094 66.5481 16.9427C66.7348 16.676 67.0548 16.5427 67.5081 16.5427H69.4081V17.9427H67.0881V18.6427C67.4615 18.9627 67.7481 19.3427 67.9481 19.7827C68.1481 20.2227 68.2481 20.716 68.2481 21.2627C68.2481 21.7827 68.1481 22.2627 67.9481 22.7027C67.7615 23.1427 67.4948 23.5227 67.1481 23.8427C66.8015 24.1494 66.3748 24.3894 65.8681 24.5627C65.3748 24.736 64.8281 24.8227 64.2281 24.8227C64.0548 24.8227 63.8881 24.816 63.7281 24.8027C63.5681 24.7894 63.4081 24.7694 63.2481 24.7427C63.0881 24.7694 62.9215 24.816 62.7481 24.8827C62.5748 24.936 62.4148 25.016 62.2681 25.1227C62.1215 25.216 62.0014 25.3294 61.9081 25.4627C61.8148 25.596 61.7681 25.7494 61.7681 25.9227C61.7681 26.2294 61.9214 26.436 62.2281 26.5427C62.5348 26.636 62.9348 26.6827 63.4281 26.6827H65.7081C67.0415 26.6827 68.0081 26.936 68.6081 27.4427C69.2081 27.936 69.5081 28.6027 69.5081 29.4427ZM68.0081 29.5227C68.0081 29.1094 67.8415 28.776 67.5081 28.5227C67.1748 28.2827 66.5948 28.1627 65.7681 28.1627H62.1881C61.4948 28.4427 61.1481 28.9094 61.1481 29.5627C61.1481 30.016 61.3281 30.4027 61.6881 30.7227C62.0481 31.056 62.6481 31.2227 63.4881 31.2227H65.0481C65.9815 31.2227 66.7081 31.076 67.2281 30.7827C67.7481 30.5027 68.0081 30.0827 68.0081 29.5227ZM64.2281 23.5827C65.0281 23.5827 65.6148 23.396 65.9881 23.0227C66.3748 22.6494 66.5681 22.156 66.5681 21.5427V20.9627C66.5681 20.3494 66.3748 19.8627 65.9881 19.5027C65.6148 19.1294 65.0281 18.9427 64.2281 18.9427C63.4281 18.9427 62.8415 19.1294 62.4681 19.5027C62.0948 19.8627 61.9081 20.3494 61.9081 20.9627V21.5427C61.9081 22.156 62.0948 22.6494 62.4681 23.0227C62.8415 23.396 63.4281 23.5827 64.2281 23.5827ZM71.5703 26.9027H74.5903V19.3027H71.5703V17.9427H76.1903V20.5427H76.2903C76.5036 19.7294 76.9036 19.096 77.4903 18.6427C78.0903 18.176 78.8503 17.9427 79.7703 17.9427H81.2103V19.5427H79.2703C78.3503 19.5427 77.6036 19.8094 77.0303 20.3427C76.4703 20.876 76.1903 21.576 76.1903 22.4427V26.9027H80.1903V28.2627H71.5703V26.9027ZM87.9525 28.5027C87.2058 28.5027 86.5325 28.376 85.9325 28.1227C85.3458 27.8694 84.8392 27.5094 84.4125 27.0427C83.9992 26.5627 83.6792 25.996 83.4525 25.3427C83.2258 24.676 83.1125 23.936 83.1125 23.1227C83.1125 22.296 83.2258 21.5494 83.4525 20.8827C83.6925 20.216 84.0192 19.6494 84.4325 19.1827C84.8458 18.7027 85.3392 18.336 85.9125 18.0827C86.4992 17.8294 87.1458 17.7027 87.8525 17.7027C88.5458 17.7027 89.1725 17.8294 89.7325 18.0827C90.3058 18.336 90.7925 18.6894 91.1925 19.1427C91.5925 19.5827 91.8992 20.1094 92.1125 20.7227C92.3258 21.336 92.4325 22.0094 92.4325 22.7427V23.5027H84.7925V23.9827C84.7925 24.436 84.8658 24.856 85.0125 25.2427C85.1592 25.6294 85.3658 25.9627 85.6325 26.2427C85.9125 26.5227 86.2458 26.7427 86.6325 26.9027C87.0325 27.0494 87.4725 27.1227 87.9525 27.1227C88.6458 27.1227 89.2458 26.9627 89.7525 26.6427C90.2592 26.3227 90.6458 25.8827 90.9125 25.3227L92.0925 26.1227C91.7858 26.816 91.2725 27.3894 90.5525 27.8427C89.8458 28.2827 88.9792 28.5027 87.9525 28.5027ZM87.8525 19.0227C87.4125 19.0227 87.0058 19.1027 86.6325 19.2627C86.2592 19.4227 85.9325 19.6427 85.6525 19.9227C85.3858 20.2027 85.1725 20.536 85.0125 20.9227C84.8658 21.296 84.7925 21.7094 84.7925 22.1627V22.3027H90.7125V22.0827C90.7125 21.6294 90.6392 21.216 90.4925 20.8427C90.3592 20.4694 90.1658 20.1494 89.9125 19.8827C89.6725 19.6027 89.3725 19.3894 89.0125 19.2427C88.6658 19.096 88.2792 19.0227 87.8525 19.0227ZM103.415 28.2627C102.788 28.2627 102.341 28.1027 102.075 27.7827C101.808 27.4627 101.641 27.0627 101.575 26.5827H101.475C101.248 27.1827 100.881 27.656 100.375 28.0027C99.8813 28.336 99.2147 28.5027 98.3747 28.5027C97.2947 28.5027 96.4347 28.2227 95.7947 27.6627C95.1547 27.1027 94.8347 26.336 94.8347 25.3627C94.8347 24.4027 95.1813 23.6627 95.8747 23.1427C96.5813 22.6227 97.7147 22.3627 99.2747 22.3627H101.475V21.3427C101.475 20.5827 101.261 20.016 100.835 19.6427C100.408 19.256 99.8013 19.0627 99.0147 19.0627C98.3213 19.0627 97.7547 19.2027 97.3147 19.4827C96.8747 19.7494 96.5213 20.116 96.2547 20.5827L95.1747 19.7827C95.308 19.516 95.488 19.256 95.7147 19.0027C95.9413 18.7494 96.2213 18.5294 96.5547 18.3427C96.888 18.1427 97.268 17.9894 97.6947 17.8827C98.1213 17.7627 98.5947 17.7027 99.1147 17.7027C100.328 17.7027 101.288 18.0094 101.995 18.6227C102.715 19.236 103.075 20.0894 103.075 21.1827V26.8627H104.515V28.2627H103.415ZM98.6547 27.1627C99.068 27.1627 99.4413 27.116 99.7747 27.0227C100.121 26.916 100.421 26.7827 100.675 26.6227C100.928 26.4494 101.121 26.2494 101.255 26.0227C101.401 25.7827 101.475 25.5294 101.475 25.2627V23.5627H99.2747C98.3147 23.5627 97.6147 23.696 97.1747 23.9627C96.7347 24.2294 96.5147 24.616 96.5147 25.1227V25.5427C96.5147 26.076 96.7013 26.4827 97.0747 26.7627C97.4613 27.0294 97.988 27.1627 98.6547 27.1627ZM111.757 28.2627C110.97 28.2627 110.39 28.0427 110.017 27.6027C109.657 27.1627 109.477 26.596 109.477 25.9027V19.3027H106.037V17.9427H108.597C108.944 17.9427 109.184 17.876 109.317 17.7427C109.464 17.596 109.537 17.3494 109.537 17.0027V14.3027H111.077V17.9427H115.777V19.3027H111.077V26.9027H115.777V28.2627H111.757ZM123.179 28.5027C122.432 28.5027 121.759 28.376 121.159 28.1227C120.572 27.8694 120.066 27.5094 119.639 27.0427C119.226 26.5627 118.906 25.996 118.679 25.3427C118.452 24.676 118.339 23.936 118.339 23.1227C118.339 22.296 118.452 21.5494 118.679 20.8827C118.919 20.216 119.246 19.6494 119.659 19.1827C120.072 18.7027 120.566 18.336 121.139 18.0827C121.726 17.8294 122.372 17.7027 123.079 17.7027C123.772 17.7027 124.399 17.8294 124.959 18.0827C125.532 18.336 126.019 18.6894 126.419 19.1427C126.819 19.5827 127.126 20.1094 127.339 20.7227C127.552 21.336 127.659 22.0094 127.659 22.7427V23.5027H120.019V23.9827C120.019 24.436 120.092 24.856 120.239 25.2427C120.386 25.6294 120.592 25.9627 120.859 26.2427C121.139 26.5227 121.472 26.7427 121.859 26.9027C122.259 27.0494 122.699 27.1227 123.179 27.1227C123.872 27.1227 124.472 26.9627 124.979 26.6427C125.486 26.3227 125.872 25.8827 126.139 25.3227L127.319 26.1227C127.012 26.816 126.499 27.3894 125.779 27.8427C125.072 28.2827 124.206 28.5027 123.179 28.5027ZM123.079 19.0227C122.639 19.0227 122.232 19.1027 121.859 19.2627C121.486 19.4227 121.159 19.6427 120.879 19.9227C120.612 20.2027 120.399 20.536 120.239 20.9227C120.092 21.296 120.019 21.7094 120.019 22.1627V22.3027H125.939V22.0827C125.939 21.6294 125.866 21.216 125.719 20.8427C125.586 20.4694 125.392 20.1494 125.139 19.8827C124.899 19.6027 124.599 19.3894 124.239 19.2427C123.892 19.096 123.506 19.0227 123.079 19.0227ZM134.861 28.5027C133.781 28.5027 132.848 28.3227 132.061 27.9627C131.288 27.5894 130.628 27.096 130.081 26.4827L131.161 25.5427C131.655 26.0627 132.195 26.4627 132.781 26.7427C133.368 27.0227 134.075 27.1627 134.901 27.1627C135.701 27.1627 136.355 27.0227 136.861 26.7427C137.381 26.4494 137.641 25.996 137.641 25.3827C137.641 25.116 137.588 24.896 137.481 24.7227C137.388 24.536 137.255 24.3894 137.081 24.2827C136.908 24.176 136.715 24.096 136.501 24.0427C136.288 23.976 136.061 23.9227 135.821 23.8827L134.201 23.6427C133.841 23.5894 133.448 23.516 133.021 23.4227C132.608 23.3294 132.228 23.1827 131.881 22.9827C131.535 22.7694 131.241 22.4894 131.001 22.1427C130.775 21.796 130.661 21.3427 130.661 20.7827C130.661 20.2627 130.761 19.816 130.961 19.4427C131.175 19.056 131.468 18.736 131.841 18.4827C132.215 18.216 132.655 18.0227 133.161 17.9027C133.668 17.7694 134.221 17.7027 134.821 17.7027C135.755 17.7027 136.561 17.8494 137.241 18.1427C137.935 18.436 138.528 18.8427 139.021 19.3627L137.981 20.3427C137.861 20.196 137.708 20.0494 137.521 19.9027C137.348 19.7427 137.128 19.6027 136.861 19.4827C136.608 19.3494 136.308 19.2427 135.961 19.1627C135.615 19.0827 135.215 19.0427 134.761 19.0427C133.948 19.0427 133.321 19.1827 132.881 19.4627C132.455 19.7427 132.241 20.1494 132.241 20.6827C132.241 20.9494 132.288 21.176 132.381 21.3627C132.488 21.536 132.628 21.676 132.801 21.7827C132.975 21.8894 133.168 21.976 133.381 22.0427C133.608 22.096 133.835 22.1427 134.061 22.1827L135.681 22.4227C136.055 22.476 136.448 22.5494 136.861 22.6427C137.275 22.736 137.655 22.8894 138.001 23.1027C138.348 23.3027 138.635 23.576 138.861 23.9227C139.101 24.2694 139.221 24.7227 139.221 25.2827C139.221 26.3094 138.821 27.1027 138.021 27.6627C137.235 28.2227 136.181 28.5027 134.861 28.5027ZM146.983 28.2627C146.197 28.2627 145.617 28.0427 145.243 27.6027C144.883 27.1627 144.703 26.596 144.703 25.9027V19.3027H141.263V17.9427H143.823C144.17 17.9427 144.41 17.876 144.543 17.7427C144.69 17.596 144.763 17.3494 144.763 17.0027V14.3027H146.303V17.9427H151.003V19.3027H146.303V26.9027H151.003V28.2627H146.983ZM165.508 26.9027H168.528V19.3027H165.508V17.9427H170.128V20.5427H170.228C170.441 19.7294 170.841 19.096 171.428 18.6427C172.028 18.176 172.788 17.9427 173.708 17.9427H175.148V19.5427H173.208C172.288 19.5427 171.541 19.8094 170.968 20.3427C170.408 20.876 170.128 21.576 170.128 22.4427V26.9027H174.128V28.2627H165.508V26.9027ZM182.35 15.6627C181.883 15.6627 181.557 15.5694 181.37 15.3827C181.183 15.1827 181.09 14.936 181.09 14.6427V14.3227C181.09 14.0294 181.183 13.7894 181.37 13.6027C181.557 13.4027 181.883 13.3027 182.35 13.3027C182.817 13.3027 183.143 13.4027 183.33 13.6027C183.517 13.7894 183.61 14.0294 183.61 14.3227V14.6427C183.61 14.936 183.517 15.1827 183.33 15.3827C183.143 15.5694 182.817 15.6627 182.35 15.6627ZM177.83 26.9027H181.55V19.3027H177.83V17.9427H183.15V26.9027H186.63V28.2627H177.83V26.9027ZM193.572 28.5027C192.492 28.5027 191.559 28.3227 190.772 27.9627C189.999 27.5894 189.339 27.096 188.792 26.4827L189.872 25.5427C190.366 26.0627 190.906 26.4627 191.492 26.7427C192.079 27.0227 192.786 27.1627 193.612 27.1627C194.412 27.1627 195.066 27.0227 195.572 26.7427C196.092 26.4494 196.352 25.996 196.352 25.3827C196.352 25.116 196.299 24.896 196.192 24.7227C196.099 24.536 195.966 24.3894 195.792 24.2827C195.619 24.176 195.426 24.096 195.212 24.0427C194.999 23.976 194.772 23.9227 194.532 23.8827L192.912 23.6427C192.552 23.5894 192.159 23.516 191.732 23.4227C191.319 23.3294 190.939 23.1827 190.592 22.9827C190.246 22.7694 189.952 22.4894 189.712 22.1427C189.486 21.796 189.372 21.3427 189.372 20.7827C189.372 20.2627 189.472 19.816 189.672 19.4427C189.886 19.056 190.179 18.736 190.552 18.4827C190.926 18.216 191.366 18.0227 191.872 17.9027C192.379 17.7694 192.932 17.7027 193.532 17.7027C194.466 17.7027 195.272 17.8494 195.952 18.1427C196.646 18.436 197.239 18.8427 197.732 19.3627L196.692 20.3427C196.572 20.196 196.419 20.0494 196.232 19.9027C196.059 19.7427 195.839 19.6027 195.572 19.4827C195.319 19.3494 195.019 19.2427 194.672 19.1627C194.326 19.0827 193.926 19.0427 193.472 19.0427C192.659 19.0427 192.032 19.1827 191.592 19.4627C191.166 19.7427 190.952 20.1494 190.952 20.6827C190.952 20.9494 190.999 21.176 191.092 21.3627C191.199 21.536 191.339 21.676 191.512 21.7827C191.686 21.8894 191.879 21.976 192.092 22.0427C192.319 22.096 192.546 22.1427 192.772 22.1827L194.392 22.4227C194.766 22.476 195.159 22.5494 195.572 22.6427C195.986 22.736 196.366 22.8894 196.712 23.1027C197.059 23.3027 197.346 23.576 197.572 23.9227C197.812 24.2694 197.932 24.7227 197.932 25.2827C197.932 26.3094 197.532 27.1027 196.732 27.6627C195.946 28.2227 194.892 28.5027 193.572 28.5027ZM201.294 13.4627H202.894V22.8027H202.974L204.774 21.1027L208.214 17.9427H210.174L205.894 21.9827L210.674 28.2627H208.694L204.674 22.9027L202.894 24.5227V28.2627H201.294V13.4627ZM217.057 28.5027C215.977 28.5027 215.043 28.3227 214.257 27.9627C213.483 27.5894 212.823 27.096 212.277 26.4827L213.357 25.5427C213.85 26.0627 214.39 26.4627 214.977 26.7427C215.563 27.0227 216.27 27.1627 217.097 27.1627C217.897 27.1627 218.55 27.0227 219.057 26.7427C219.577 26.4494 219.837 25.996 219.837 25.3827C219.837 25.116 219.783 24.896 219.677 24.7227C219.583 24.536 219.45 24.3894 219.277 24.2827C219.103 24.176 218.91 24.096 218.697 24.0427C218.483 23.976 218.257 23.9227 218.017 23.8827L216.397 23.6427C216.037 23.5894 215.643 23.516 215.217 23.4227C214.803 23.3294 214.423 23.1827 214.077 22.9827C213.73 22.7694 213.437 22.4894 213.197 22.1427C212.97 21.796 212.857 21.3427 212.857 20.7827C212.857 20.2627 212.957 19.816 213.157 19.4427C213.37 19.056 213.663 18.736 214.037 18.4827C214.41 18.216 214.85 18.0227 215.357 17.9027C215.863 17.7694 216.417 17.7027 217.017 17.7027C217.95 17.7027 218.757 17.8494 219.437 18.1427C220.13 18.436 220.723 18.8427 221.217 19.3627L220.177 20.3427C220.057 20.196 219.903 20.0494 219.717 19.9027C219.543 19.7427 219.323 19.6027 219.057 19.4827C218.803 19.3494 218.503 19.2427 218.157 19.1627C217.81 19.0827 217.41 19.0427 216.957 19.0427C216.143 19.0427 215.517 19.1827 215.077 19.4627C214.65 19.7427 214.437 20.1494 214.437 20.6827C214.437 20.9494 214.483 21.176 214.577 21.3627C214.683 21.536 214.823 21.676 214.997 21.7827C215.17 21.8894 215.363 21.976 215.577 22.0427C215.803 22.096 216.03 22.1427 216.257 22.1827L217.877 22.4227C218.25 22.476 218.643 22.5494 219.057 22.6427C219.47 22.736 219.85 22.8894 220.197 23.1027C220.543 23.3027 220.83 23.576 221.057 23.9227C221.297 24.2694 221.417 24.7227 221.417 25.2827C221.417 26.3094 221.017 27.1027 220.217 27.6627C219.43 28.2227 218.377 28.5027 217.057 28.5027ZM236.081 26.9027H239.561V19.3027H235.881V17.9427H239.561V15.8227C239.561 15.1294 239.741 14.5627 240.101 14.1227C240.474 13.6827 241.054 13.4627 241.841 13.4627H245.301V14.8227H241.161V17.9427H245.301V19.3027H241.161V26.9027H244.841V28.2627H236.081V26.9027ZM247.703 26.9027H250.723V19.3027H247.703V17.9427H252.323V20.5427H252.423C252.636 19.7294 253.036 19.096 253.623 18.6427C254.223 18.176 254.983 17.9427 255.903 17.9427H257.343V19.5427H255.403C254.483 19.5427 253.736 19.8094 253.163 20.3427C252.603 20.876 252.323 21.576 252.323 22.4427V26.9027H256.323V28.2627H247.703V26.9027ZM263.905 28.5027C263.185 28.5027 262.532 28.376 261.945 28.1227C261.372 27.8694 260.879 27.5094 260.465 27.0427C260.065 26.5627 259.759 25.996 259.545 25.3427C259.332 24.676 259.225 23.9294 259.225 23.1027C259.225 22.2894 259.332 21.5494 259.545 20.8827C259.759 20.216 260.065 19.6494 260.465 19.1827C260.879 18.7027 261.372 18.336 261.945 18.0827C262.532 17.8294 263.185 17.7027 263.905 17.7027C264.625 17.7027 265.272 17.8294 265.845 18.0827C266.432 18.336 266.925 18.7027 267.325 19.1827C267.739 19.6494 268.052 20.216 268.265 20.8827C268.479 21.5494 268.585 22.2894 268.585 23.1027C268.585 23.9294 268.479 24.676 268.265 25.3427C268.052 25.996 267.739 26.5627 267.325 27.0427C266.925 27.5094 266.432 27.8694 265.845 28.1227C265.272 28.376 264.625 28.5027 263.905 28.5027ZM263.905 27.1227C264.799 27.1227 265.519 26.856 266.065 26.3227C266.612 25.7894 266.885 24.9627 266.885 23.8427V22.3627C266.885 21.2427 266.612 20.416 266.065 19.8827C265.519 19.3494 264.799 19.0827 263.905 19.0827C263.012 19.0827 262.292 19.3494 261.745 19.8827C261.199 20.416 260.925 21.2427 260.925 22.3627V23.8427C260.925 24.9627 261.199 25.7894 261.745 26.3227C262.292 26.856 263.012 27.1227 263.905 27.1227ZM270.727 28.2627V17.9427H272.207V19.1427H272.287C272.447 18.7427 272.674 18.4027 272.967 18.1227C273.261 17.8427 273.694 17.7027 274.267 17.7027C274.867 17.7027 275.314 17.856 275.607 18.1627C275.901 18.456 276.081 18.8427 276.147 19.3227H276.207C276.394 18.856 276.661 18.4694 277.007 18.1627C277.354 17.856 277.834 17.7027 278.447 17.7027C279.287 17.7027 279.847 17.996 280.127 18.5827C280.421 19.1694 280.567 20.0094 280.567 21.1027V28.2627H279.087V21.3627C279.087 20.4827 278.994 19.876 278.807 19.5427C278.634 19.196 278.307 19.0227 277.827 19.0227C277.401 19.0227 277.054 19.1627 276.787 19.4427C276.521 19.7094 276.387 20.1227 276.387 20.6827V28.2627H274.907V21.3627C274.907 20.4827 274.814 19.876 274.627 19.5427C274.454 19.196 274.134 19.0227 273.667 19.0227C273.241 19.0227 272.887 19.1627 272.607 19.4427C272.341 19.7094 272.207 20.1227 272.207 20.6827V28.2627H270.727ZM301.572 26.5827H301.492C301.385 26.836 301.252 27.0827 301.092 27.3227C300.932 27.5494 300.732 27.7494 300.492 27.9227C300.265 28.096 299.992 28.236 299.672 28.3427C299.352 28.4494 298.979 28.5027 298.552 28.5027C297.472 28.5027 296.605 28.1627 295.952 27.4827C295.299 26.7894 294.972 25.816 294.972 24.5627V17.9427H296.572V24.2827C296.572 25.2294 296.779 25.936 297.192 26.4027C297.605 26.856 298.212 27.0827 299.012 27.0827C299.332 27.0827 299.645 27.0427 299.952 26.9627C300.259 26.8827 300.532 26.7627 300.772 26.6027C301.012 26.4427 301.205 26.2427 301.352 26.0027C301.499 25.7494 301.572 25.4494 301.572 25.1027V17.9427H303.172V28.2627H301.572V26.5827ZM310.994 28.5027C309.914 28.5027 308.981 28.3227 308.194 27.9627C307.421 27.5894 306.761 27.096 306.214 26.4827L307.294 25.5427C307.787 26.0627 308.327 26.4627 308.914 26.7427C309.501 27.0227 310.207 27.1627 311.034 27.1627C311.834 27.1627 312.487 27.0227 312.994 26.7427C313.514 26.4494 313.774 25.996 313.774 25.3827C313.774 25.116 313.721 24.896 313.614 24.7227C313.521 24.536 313.387 24.3894 313.214 24.2827C313.041 24.176 312.847 24.096 312.634 24.0427C312.421 23.976 312.194 23.9227 311.954 23.8827L310.334 23.6427C309.974 23.5894 309.581 23.516 309.154 23.4227C308.741 23.3294 308.361 23.1827 308.014 22.9827C307.667 22.7694 307.374 22.4894 307.134 22.1427C306.907 21.796 306.794 21.3427 306.794 20.7827C306.794 20.2627 306.894 19.816 307.094 19.4427C307.307 19.056 307.601 18.736 307.974 18.4827C308.347 18.216 308.787 18.0227 309.294 17.9027C309.801 17.7694 310.354 17.7027 310.954 17.7027C311.887 17.7027 312.694 17.8494 313.374 18.1427C314.067 18.436 314.661 18.8427 315.154 19.3627L314.114 20.3427C313.994 20.196 313.841 20.0494 313.654 19.9027C313.481 19.7427 313.261 19.6027 312.994 19.4827C312.741 19.3494 312.441 19.2427 312.094 19.1627C311.747 19.0827 311.347 19.0427 310.894 19.0427C310.081 19.0427 309.454 19.1827 309.014 19.4627C308.587 19.7427 308.374 20.1494 308.374 20.6827C308.374 20.9494 308.421 21.176 308.514 21.3627C308.621 21.536 308.761 21.676 308.934 21.7827C309.107 21.8894 309.301 21.976 309.514 22.0427C309.741 22.096 309.967 22.1427 310.194 22.1827L311.814 22.4227C312.187 22.476 312.581 22.5494 312.994 22.6427C313.407 22.736 313.787 22.8894 314.134 23.1027C314.481 23.3027 314.767 23.576 314.994 23.9227C315.234 24.2694 315.354 24.7227 315.354 25.2827C315.354 26.3094 314.954 27.1027 314.154 27.6627C313.367 28.2227 312.314 28.5027 310.994 28.5027ZM323.256 15.6627C322.79 15.6627 322.463 15.5694 322.276 15.3827C322.09 15.1827 321.996 14.936 321.996 14.6427V14.3227C321.996 14.0294 322.09 13.7894 322.276 13.6027C322.463 13.4027 322.79 13.3027 323.256 13.3027C323.723 13.3027 324.05 13.4027 324.236 13.6027C324.423 13.7894 324.516 14.0294 324.516 14.3227V14.6427C324.516 14.936 324.423 15.1827 324.236 15.3827C324.05 15.5694 323.723 15.6627 323.256 15.6627ZM318.736 26.9027H322.456V19.3027H318.736V17.9427H324.056V26.9027H327.536V28.2627H318.736V26.9027ZM330.318 28.2627V17.9427H331.918V19.6227H331.998C332.105 19.3694 332.238 19.1294 332.398 18.9027C332.558 18.6627 332.752 18.456 332.978 18.2827C333.218 18.1094 333.498 17.9694 333.818 17.8627C334.138 17.756 334.512 17.7027 334.938 17.7027C336.018 17.7027 336.885 18.0494 337.538 18.7427C338.192 19.4227 338.518 20.3894 338.518 21.6427V28.2627H336.918V21.9227C336.918 20.976 336.712 20.276 336.298 19.8227C335.885 19.356 335.278 19.1227 334.478 19.1227C334.158 19.1227 333.845 19.1627 333.538 19.2427C333.232 19.3227 332.958 19.4427 332.718 19.6027C332.478 19.7627 332.285 19.9694 332.138 20.2227C331.992 20.476 331.918 20.7694 331.918 21.1027V28.2627H330.318ZM351.321 29.4427C351.321 30.4827 350.887 31.2494 350.021 31.7427C349.154 32.2494 347.854 32.5027 346.121 32.5027C344.454 32.5027 343.254 32.2827 342.521 31.8427C341.801 31.4027 341.441 30.7694 341.441 29.9427C341.441 29.3827 341.587 28.9494 341.881 28.6427C342.174 28.336 342.587 28.1094 343.121 27.9627V27.7227C342.827 27.576 342.601 27.3894 342.441 27.1627C342.281 26.936 342.201 26.6494 342.201 26.3027C342.201 25.7694 342.374 25.3694 342.721 25.1027C343.081 24.836 343.527 24.636 344.061 24.5027V24.4227C343.421 24.1427 342.921 23.7294 342.561 23.1827C342.214 22.636 342.041 21.996 342.041 21.2627C342.041 20.7427 342.134 20.2627 342.321 19.8227C342.507 19.3827 342.774 19.0094 343.121 18.7027C343.481 18.3827 343.907 18.136 344.401 17.9627C344.894 17.7894 345.441 17.7027 346.041 17.7027C346.814 17.7027 347.494 17.8427 348.081 18.1227V17.9427C348.081 17.5427 348.174 17.2094 348.361 16.9427C348.547 16.676 348.867 16.5427 349.321 16.5427H351.221V17.9427H348.901V18.6427C349.274 18.9627 349.561 19.3427 349.761 19.7827C349.961 20.2227 350.061 20.716 350.061 21.2627C350.061 21.7827 349.961 22.2627 349.761 22.7027C349.574 23.1427 349.307 23.5227 348.961 23.8427C348.614 24.1494 348.187 24.3894 347.681 24.5627C347.187 24.736 346.641 24.8227 346.041 24.8227C345.867 24.8227 345.701 24.816 345.541 24.8027C345.381 24.7894 345.221 24.7694 345.061 24.7427C344.901 24.7694 344.734 24.816 344.561 24.8827C344.387 24.936 344.227 25.016 344.081 25.1227C343.934 25.216 343.814 25.3294 343.721 25.4627C343.627 25.596 343.581 25.7494 343.581 25.9227C343.581 26.2294 343.734 26.436 344.041 26.5427C344.347 26.636 344.747 26.6827 345.241 26.6827H347.521C348.854 26.6827 349.821 26.936 350.421 27.4427C351.021 27.936 351.321 28.6027 351.321 29.4427ZM349.821 29.5227C349.821 29.1094 349.654 28.776 349.321 28.5227C348.987 28.2827 348.407 28.1627 347.581 28.1627H344.001C343.307 28.4427 342.961 28.9094 342.961 29.5627C342.961 30.016 343.141 30.4027 343.501 30.7227C343.861 31.056 344.461 31.2227 345.301 31.2227H346.861C347.794 31.2227 348.521 31.076 349.041 30.7827C349.561 30.5027 349.821 30.0827 349.821 29.5227ZM346.041 23.5827C346.841 23.5827 347.427 23.396 347.801 23.0227C348.187 22.6494 348.381 22.156 348.381 21.5427V20.9627C348.381 20.3494 348.187 19.8627 347.801 19.5027C347.427 19.1294 346.841 18.9427 346.041 18.9427C345.241 18.9427 344.654 19.1294 344.281 19.5027C343.907 19.8627 343.721 20.3494 343.721 20.9627V21.5427C343.721 22.156 343.907 22.6494 344.281 23.0227C344.654 23.396 345.241 23.5827 346.041 23.5827ZM373.205 28.2627L372.025 24.2827H367.125L365.945 28.2627H364.205L368.485 14.3027H370.705L374.985 28.2627H373.205ZM369.665 16.0827H369.485L367.525 22.8227H371.625L369.665 16.0827ZM377.007 28.2627V26.9227H380.487V15.6427H377.007V14.3027H385.647V15.6427H382.167V26.9227H385.647V28.2627H377.007ZM405.452 15.6627C404.985 15.6627 404.658 15.5694 404.472 15.3827C404.285 15.1827 404.192 14.936 404.192 14.6427V14.3227C404.192 14.0294 404.285 13.7894 404.472 13.6027C404.658 13.4027 404.985 13.3027 405.452 13.3027C405.918 13.3027 406.245 13.4027 406.432 13.6027C406.618 13.7894 406.712 14.0294 406.712 14.3227V14.6427C406.712 14.936 406.618 15.1827 406.432 15.3827C406.245 15.5694 405.918 15.6627 405.452 15.6627ZM400.932 26.9027H404.652V19.3027H400.932V17.9427H406.252V26.9027H409.732V28.2627H400.932V26.9027ZM412.514 28.2627V17.9427H414.114V19.6227H414.194C414.3 19.3694 414.434 19.1294 414.594 18.9027C414.754 18.6627 414.947 18.456 415.174 18.2827C415.414 18.1094 415.694 17.9694 416.014 17.8627C416.334 17.756 416.707 17.7027 417.134 17.7027C418.214 17.7027 419.08 18.0494 419.734 18.7427C420.387 19.4227 420.714 20.3894 420.714 21.6427V28.2627H419.114V21.9227C419.114 20.976 418.907 20.276 418.494 19.8227C418.08 19.356 417.474 19.1227 416.674 19.1227C416.354 19.1227 416.04 19.1627 415.734 19.2427C415.427 19.3227 415.154 19.4427 414.914 19.6027C414.674 19.7627 414.48 19.9694 414.334 20.2227C414.187 20.476 414.114 20.7694 414.114 21.1027V28.2627H412.514ZM440.158 28.5027C439.078 28.5027 438.145 28.3227 437.358 27.9627C436.585 27.5894 435.925 27.096 435.378 26.4827L436.458 25.5427C436.951 26.0627 437.491 26.4627 438.078 26.7427C438.665 27.0227 439.371 27.1627 440.198 27.1627C440.998 27.1627 441.651 27.0227 442.158 26.7427C442.678 26.4494 442.938 25.996 442.938 25.3827C442.938 25.116 442.885 24.896 442.778 24.7227C442.685 24.536 442.551 24.3894 442.378 24.2827C442.205 24.176 442.011 24.096 441.798 24.0427C441.585 23.976 441.358 23.9227 441.118 23.8827L439.498 23.6427C439.138 23.5894 438.745 23.516 438.318 23.4227C437.905 23.3294 437.525 23.1827 437.178 22.9827C436.831 22.7694 436.538 22.4894 436.298 22.1427C436.071 21.796 435.958 21.3427 435.958 20.7827C435.958 20.2627 436.058 19.816 436.258 19.4427C436.471 19.056 436.765 18.736 437.138 18.4827C437.511 18.216 437.951 18.0227 438.458 17.9027C438.965 17.7694 439.518 17.7027 440.118 17.7027C441.051 17.7027 441.858 17.8494 442.538 18.1427C443.231 18.436 443.825 18.8427 444.318 19.3627L443.278 20.3427C443.158 20.196 443.005 20.0494 442.818 19.9027C442.645 19.7427 442.425 19.6027 442.158 19.4827C441.905 19.3494 441.605 19.2427 441.258 19.1627C440.911 19.0827 440.511 19.0427 440.058 19.0427C439.245 19.0427 438.618 19.1827 438.178 19.4627C437.751 19.7427 437.538 20.1494 437.538 20.6827C437.538 20.9494 437.585 21.176 437.678 21.3627C437.785 21.536 437.925 21.676 438.098 21.7827C438.271 21.8894 438.465 21.976 438.678 22.0427C438.905 22.096 439.131 22.1427 439.358 22.1827L440.978 22.4227C441.351 22.476 441.745 22.5494 442.158 22.6427C442.571 22.736 442.951 22.8894 443.298 23.1027C443.645 23.3027 443.931 23.576 444.158 23.9227C444.398 24.2694 444.518 24.7227 444.518 25.2827C444.518 26.3094 444.118 27.1027 443.318 27.6627C442.531 28.2227 441.478 28.5027 440.158 28.5027ZM451.78 28.5027C451.06 28.5027 450.407 28.376 449.82 28.1227C449.247 27.8694 448.754 27.5094 448.34 27.0427C447.94 26.5627 447.634 25.996 447.42 25.3427C447.207 24.676 447.1 23.9294 447.1 23.1027C447.1 22.2894 447.207 21.5494 447.42 20.8827C447.634 20.216 447.94 19.6494 448.34 19.1827C448.754 18.7027 449.247 18.336 449.82 18.0827C450.407 17.8294 451.06 17.7027 451.78 17.7027C452.5 17.7027 453.147 17.8294 453.72 18.0827C454.307 18.336 454.8 18.7027 455.2 19.1827C455.614 19.6494 455.927 20.216 456.14 20.8827C456.354 21.5494 456.46 22.2894 456.46 23.1027C456.46 23.9294 456.354 24.676 456.14 25.3427C455.927 25.996 455.614 26.5627 455.2 27.0427C454.8 27.5094 454.307 27.8694 453.72 28.1227C453.147 28.376 452.5 28.5027 451.78 28.5027ZM451.78 27.1227C452.674 27.1227 453.394 26.856 453.94 26.3227C454.487 25.7894 454.76 24.9627 454.76 23.8427V22.3627C454.76 21.2427 454.487 20.416 453.94 19.8827C453.394 19.3494 452.674 19.0827 451.78 19.0827C450.887 19.0827 450.167 19.3494 449.62 19.8827C449.074 20.416 448.8 21.2427 448.8 22.3627V23.8427C448.8 24.9627 449.074 25.7894 449.62 26.3227C450.167 26.856 450.887 27.1227 451.78 27.1227ZM463.882 28.5027C463.136 28.5027 462.469 28.376 461.882 28.1227C461.309 27.856 460.822 27.4894 460.422 27.0227C460.022 26.556 459.716 25.9894 459.502 25.3227C459.302 24.656 459.202 23.916 459.202 23.1027C459.202 22.2894 459.309 21.5494 459.522 20.8827C459.736 20.216 460.042 19.6494 460.442 19.1827C460.842 18.7027 461.329 18.336 461.902 18.0827C462.476 17.8294 463.129 17.7027 463.862 17.7027C464.862 17.7027 465.676 17.9227 466.302 18.3627C466.929 18.8027 467.389 19.376 467.682 20.0827L466.402 20.7627C466.216 20.2294 465.902 19.816 465.462 19.5227C465.036 19.2294 464.502 19.0827 463.862 19.0827C463.396 19.0827 462.976 19.1627 462.602 19.3227C462.242 19.4694 461.936 19.6827 461.682 19.9627C461.429 20.2427 461.236 20.576 461.102 20.9627C460.982 21.3494 460.922 21.7694 460.922 22.2227V23.9827C460.922 24.436 460.982 24.856 461.102 25.2427C461.236 25.6294 461.429 25.9627 461.682 26.2427C461.936 26.5227 462.249 26.7427 462.622 26.9027C462.996 27.0494 463.422 27.1227 463.902 27.1227C464.596 27.1227 465.169 26.9627 465.622 26.6427C466.076 26.3227 466.436 25.8827 466.702 25.3227L467.842 26.1027C467.536 26.796 467.056 27.3694 466.402 27.8227C465.762 28.276 464.922 28.5027 463.882 28.5027ZM475.905 15.6627C475.438 15.6627 475.111 15.5694 474.925 15.3827C474.738 15.1827 474.645 14.936 474.645 14.6427V14.3227C474.645 14.0294 474.738 13.7894 474.925 13.6027C475.111 13.4027 475.438 13.3027 475.905 13.3027C476.371 13.3027 476.698 13.4027 476.885 13.6027C477.071 13.7894 477.165 14.0294 477.165 14.3227V14.6427C477.165 14.936 477.071 15.1827 476.885 15.3827C476.698 15.5694 476.371 15.6627 475.905 15.6627ZM471.385 26.9027H475.105V19.3027H471.385V17.9427H476.705V26.9027H480.185V28.2627H471.385V26.9027ZM487.187 28.5027C486.44 28.5027 485.767 28.376 485.167 28.1227C484.58 27.8694 484.074 27.5094 483.647 27.0427C483.234 26.5627 482.914 25.996 482.687 25.3427C482.46 24.676 482.347 23.936 482.347 23.1227C482.347 22.296 482.46 21.5494 482.687 20.8827C482.927 20.216 483.254 19.6494 483.667 19.1827C484.08 18.7027 484.574 18.336 485.147 18.0827C485.734 17.8294 486.38 17.7027 487.087 17.7027C487.78 17.7027 488.407 17.8294 488.967 18.0827C489.54 18.336 490.027 18.6894 490.427 19.1427C490.827 19.5827 491.134 20.1094 491.347 20.7227C491.56 21.336 491.667 22.0094 491.667 22.7427V23.5027H484.027V23.9827C484.027 24.436 484.1 24.856 484.247 25.2427C484.394 25.6294 484.6 25.9627 484.867 26.2427C485.147 26.5227 485.48 26.7427 485.867 26.9027C486.267 27.0494 486.707 27.1227 487.187 27.1227C487.88 27.1227 488.48 26.9627 488.987 26.6427C489.494 26.3227 489.88 25.8827 490.147 25.3227L491.327 26.1227C491.02 26.816 490.507 27.3894 489.787 27.8427C489.08 28.2827 488.214 28.5027 487.187 28.5027ZM487.087 19.0227C486.647 19.0227 486.24 19.1027 485.867 19.2627C485.494 19.4227 485.167 19.6427 484.887 19.9227C484.62 20.2027 484.407 20.536 484.247 20.9227C484.1 21.296 484.027 21.7094 484.027 22.1627V22.3027H489.947V22.0827C489.947 21.6294 489.874 21.216 489.727 20.8427C489.594 20.4694 489.4 20.1494 489.147 19.8827C488.907 19.6027 488.607 19.3894 488.247 19.2427C487.9 19.096 487.514 19.0227 487.087 19.0227ZM499.249 28.2627C498.462 28.2627 497.882 28.0427 497.509 27.6027C497.149 27.1627 496.969 26.596 496.969 25.9027V19.3027H493.529V17.9427H496.089C496.436 17.9427 496.676 17.876 496.809 17.7427C496.956 17.596 497.029 17.3494 497.029 17.0027V14.3027H498.569V17.9427H503.269V19.3027H498.569V26.9027H503.269V28.2627H499.249ZM513.831 17.9427H515.431L510.311 30.5227C510.191 30.816 510.058 31.0694 509.911 31.2827C509.765 31.5094 509.591 31.6894 509.391 31.8227C509.191 31.9694 508.951 32.076 508.671 32.1427C508.391 32.2227 508.058 32.2627 507.671 32.2627H506.151V30.9027H508.551L509.711 28.0627L505.551 17.9427H507.191L508.931 22.2627L510.471 26.1827H510.551L512.091 22.2627L513.831 17.9427Z" fill="#FCFFBA"/>
</svg>
