<svg width="129" height="16" viewBox="0 0 129 16" fill="none" xmlns="http://www.w3.org/2000/svg">
<path d="M6.66843 2.5V15H4.98843V2.5H0.32843V1.04H11.3284V2.5H6.66843ZM13.2506 15V13.66H16.7306V2.38H13.2506V1.04H21.8906V2.38H18.4106V13.66H21.8906V15H13.2506ZM32.4128 8V3.58H32.2528L29.3128 10.76L26.3728 3.58H26.2128V8V15H24.6728V1.04H26.8328L29.2928 7.2H29.4128L31.8728 1.04H33.9528V15H32.4128V8ZM36.855 15V1.04H45.455V2.5H38.535V7.2H45.215V8.66H38.535V13.54H45.455V15H36.855ZM64.4994 15.24C63.246 15.24 62.2194 15.0133 61.4194 14.56C60.6194 14.0933 59.9594 13.5 59.4394 12.78L60.6594 11.78C61.206 12.46 61.7794 12.9667 62.3794 13.3C62.9927 13.6333 63.7194 13.8 64.5594 13.8C65.5727 13.8 66.346 13.5667 66.8794 13.1C67.4127 12.6333 67.6794 11.98 67.6794 11.14C67.6794 10.46 67.486 9.93333 67.0994 9.56C66.7127 9.17333 66.0394 8.9 65.0794 8.74L63.5194 8.48C62.8394 8.36 62.266 8.18 61.7994 7.94C61.346 7.7 60.9794 7.41333 60.6994 7.08C60.4194 6.73333 60.2194 6.36 60.0994 5.96C59.9794 5.54667 59.9194 5.12 59.9194 4.68C59.9194 3.4 60.3394 2.43333 61.1794 1.78C62.0194 1.12667 63.1527 0.799999 64.5794 0.799999C65.6994 0.799999 66.6394 0.986666 67.3994 1.36C68.1727 1.73333 68.7927 2.26 69.2594 2.94L68.0794 3.96C67.6927 3.45333 67.226 3.04 66.6794 2.72C66.1327 2.4 65.426 2.24 64.5594 2.24C63.6127 2.24 62.886 2.44 62.3794 2.84C61.8727 3.24 61.6194 3.84 61.6194 4.64C61.6194 5.26667 61.806 5.78 62.1794 6.18C62.566 6.56667 63.2527 6.84667 64.2394 7.02L65.7394 7.28C66.4194 7.4 66.9927 7.58 67.4594 7.82C67.926 8.06 68.2994 8.34667 68.5794 8.68C68.8727 9.01333 69.0794 9.38667 69.1994 9.8C69.3194 10.2133 69.3794 10.6467 69.3794 11.1C69.3794 12.3933 68.9527 13.4067 68.0994 14.14C67.2594 14.8733 66.0594 15.24 64.4994 15.24ZM72.0816 15V1.04H80.6816V2.5H73.7616V7.2H80.4416V8.66H73.7616V13.54H80.6816V15H72.0816ZM84.4237 15V1.04H86.1037V13.54H92.7237V15H84.4237ZM95.5659 15V1.04H104.166V2.5H97.2459V7.2H103.926V8.66H97.2459V13.54H104.166V15H95.5659ZM111.968 15.24C110.261 15.24 108.988 14.62 108.148 13.38C107.321 12.14 106.908 10.3533 106.908 8.02C106.908 5.68667 107.321 3.9 108.148 2.66C108.988 1.42 110.261 0.799999 111.968 0.799999C112.608 0.799999 113.161 0.886666 113.628 1.06C114.095 1.23333 114.495 1.46667 114.828 1.76C115.161 2.05333 115.441 2.38667 115.668 2.76C115.895 3.12 116.095 3.48667 116.268 3.86L114.828 4.52C114.708 4.21333 114.568 3.92667 114.408 3.66C114.248 3.38 114.055 3.14 113.828 2.94C113.615 2.72667 113.355 2.56 113.048 2.44C112.755 2.32 112.395 2.26 111.968 2.26C110.861 2.26 110.035 2.68 109.488 3.52C108.955 4.36 108.688 5.48 108.688 6.88V9.16C108.688 10.56 108.955 11.68 109.488 12.52C110.035 13.36 110.861 13.78 111.968 13.78C112.395 13.78 112.755 13.72 113.048 13.6C113.355 13.48 113.615 13.32 113.828 13.12C114.055 12.9067 114.248 12.6667 114.408 12.4C114.568 12.12 114.708 11.8267 114.828 11.52L116.268 12.18C116.095 12.5667 115.895 12.94 115.668 13.3C115.441 13.66 115.161 13.9867 114.828 14.28C114.495 14.5733 114.095 14.8067 113.628 14.98C113.161 15.1533 112.608 15.24 111.968 15.24ZM124.09 2.5V15H122.41V2.5H117.75V1.04H128.75V2.5H124.09Z" fill="white"/>
</svg>
