<svg width="250" height="251" viewBox="0 0 250 251" fill="none" xmlns="http://www.w3.org/2000/svg">
<path d="M5.69558 62.0444L2.5729 48.4057L4.80481 48.0505L6.50314 55.9213L7.20277 59.1718L7.38053 59.1435L7.48361 50.8846L9.89327 50.5011L12.5554 58.3198L12.7332 58.2915L12.389 54.9845L11.5598 46.9753L13.7127 46.6326L14.9787 60.5668L11.6407 61.0981L9.17436 53.4912L9.01635 53.5164L9.03356 61.5131L5.69558 62.0444ZM15.1629 45.5512L17.6911 45.1488L18.6814 51.3705L18.7801 51.3548C18.916 50.7661 19.1829 50.2376 19.5808 49.7692C19.9899 49.2855 20.6092 48.9777 21.4388 48.8457C22.4395 48.6864 23.3028 48.8932 24.0285 49.4663C24.7654 50.0241 25.2323 50.9218 25.4293 52.1596L26.4762 58.7368L23.948 59.1392L22.9577 52.9175C22.723 51.4427 21.967 50.807 20.6897 51.0103C20.4264 51.0522 20.1814 51.125 19.9549 51.2285C19.7284 51.3321 19.5279 51.472 19.3534 51.6483C19.19 51.8093 19.0648 51.998 18.9777 52.2144C18.9038 52.4287 18.8889 52.6741 18.9329 52.9506L20.0175 59.7648L17.4893 60.1672L15.1629 45.5512ZM37.2823 57.0168C36.6635 57.1153 36.1587 57.0404 35.7682 56.792C35.3887 56.5284 35.122 56.1253 34.9682 55.5827L34.8694 55.5985C34.7857 56.2598 34.5021 56.8113 34.0189 57.2527C33.5335 57.681 32.8958 57.958 32.1057 58.0838C31.0786 58.2472 30.2193 58.1073 29.5276 57.6638C28.836 57.2203 28.4137 56.518 28.2607 55.5568C27.9337 53.5026 29.2779 52.2356 32.2933 51.7556L34.0907 51.4695L33.9838 50.798C33.8811 50.1528 33.6455 49.6907 33.2771 49.4118C32.9087 49.1329 32.369 49.0501 31.6579 49.1633C31.0127 49.266 30.5125 49.4738 30.1573 49.7869C29.8021 50.1 29.5177 50.476 29.304 50.915L27.6673 49.92C27.8932 49.3035 28.3247 48.7487 28.9618 48.2558C29.6099 47.7476 30.4936 47.4044 31.6129 47.2263C32.956 47.0125 34.0531 47.1619 34.9043 47.6745C35.7665 48.1718 36.2961 49.0393 36.4931 50.2771L37.2571 55.0767L38.4619 54.8849L38.7637 56.781L37.2823 57.0168ZM32.6784 56.2105C33.2841 56.1141 33.7624 55.8962 34.1134 55.5568C34.4755 55.2021 34.6178 54.7812 34.5403 54.294L34.3233 52.9311L32.5852 53.2078C31.2026 53.4278 30.5805 53.9724 30.7188 54.8415L30.7817 55.2365C30.8467 55.6447 31.0473 55.93 31.3837 56.0925C31.7201 56.255 32.1517 56.2943 32.6784 56.2105ZM45.8171 55.6583C44.8427 55.8134 44.0842 55.6709 43.5416 55.2307C42.999 54.7905 42.6627 54.1622 42.5328 53.3459L41.6682 47.9142L38.7055 48.3858L38.388 46.3909L40.4026 46.0702C40.8108 46.0053 41.0879 45.8802 41.234 45.6949C41.3779 45.4965 41.4163 45.1866 41.3493 44.7652L40.9563 42.2963L43.3067 41.9222L43.8789 45.5169L48.0267 44.8567L48.3442 46.8516L44.1964 47.5118L45.1835 53.7138L49.3313 53.0536L49.6489 55.0484L45.8171 55.6583ZM70.0665 49.9557L69.9283 49.9777C69.7503 50.6406 69.447 51.1952 69.0185 51.6414C68.6031 52.0855 68.0004 52.3705 67.2104 52.4962C66.631 52.5885 66.0809 52.568 65.5602 52.4349C65.0505 52.2865 64.59 52.0222 64.1784 51.6422C63.7648 51.249 63.4124 50.7313 63.1212 50.0891C62.8299 49.4469 62.613 48.6781 62.4705 47.7827C62.1855 45.9919 62.3283 44.5988 62.8989 43.6034C63.4695 42.608 64.3408 42.017 65.5127 41.8305C66.3028 41.7047 66.9642 41.7885 67.4969 42.0817C68.0428 42.3729 68.5032 42.8059 68.8782 43.3807L69.0165 43.3587L68.0262 37.1371L70.5544 36.7347L72.8808 51.3507L70.3526 51.7531L70.0665 49.9557ZM67.9563 50.3118C68.246 50.2657 68.5107 50.1898 68.7504 50.0842C69.0011 49.9633 69.2082 49.8223 69.3716 49.6613C69.5461 49.485 69.6692 49.2831 69.741 49.0557C69.8239 48.813 69.8423 48.5468 69.7962 48.2571L69.2869 45.0574C69.2408 44.7677 69.1417 44.5269 68.9896 44.3351C68.8487 44.128 68.669 43.9744 68.4505 43.8741C68.2431 43.7586 68.0025 43.6889 67.7286 43.665C67.4659 43.6258 67.1897 43.6293 66.9 43.6754C66.1626 43.7927 65.6254 44.1078 65.2885 44.6204C64.9647 45.131 64.8647 45.7747 64.9883 46.5516L65.2461 48.1712C65.3698 48.9481 65.6647 49.529 66.131 49.9138C66.6105 50.2965 67.2189 50.4292 67.9563 50.3118ZM79.9522 50.4682C79.1753 50.5918 78.4575 50.5778 77.7988 50.4261C77.1533 50.2723 76.5765 49.9996 76.0687 49.6079C75.5739 49.2141 75.1557 48.7069 74.8139 48.0862C74.4852 47.4635 74.2559 46.7439 74.126 45.9275C73.9961 45.1111 73.9906 44.3559 74.1097 43.6619C74.2419 42.9658 74.482 42.3538 74.83 41.8259C75.1912 41.2958 75.6547 40.8575 76.2206 40.5109C76.7997 40.1622 77.4776 39.9261 78.2545 39.8024C79.0182 39.6809 79.7294 39.6959 80.3881 39.8476C81.0468 39.9993 81.6236 40.272 82.1183 40.6658C82.6262 41.0575 83.0444 41.5647 83.3731 42.1875C83.7149 42.8081 83.9507 43.5267 84.0807 44.343C84.2106 45.1594 84.2095 45.9157 84.0773 46.6118C83.9582 47.3058 83.7181 47.9178 83.3569 48.4478C83.0089 48.9758 82.5454 49.4141 81.9663 49.7628C81.3873 50.1115 80.7159 50.3466 79.9522 50.4682ZM79.6441 48.5325C80.3683 48.4172 80.9065 48.1088 81.2587 47.6072C81.6088 47.0924 81.7157 46.4071 81.5795 45.5512L81.328 43.9711C81.1918 43.1152 80.8784 42.5035 80.3879 42.1361C79.8952 41.7555 79.2868 41.6228 78.5626 41.738C77.8384 41.8533 77.3012 42.1683 76.9511 42.6831C76.5989 43.1847 76.4909 43.8634 76.6272 44.7193L76.8787 46.2994C77.0149 47.1553 77.3293 47.7736 77.822 48.1542C78.3125 48.5217 78.9199 48.6478 79.6441 48.5325ZM96.9221 37.0741L99.4503 36.6717L99.7364 38.4691L99.8746 38.4471C100.053 37.7842 100.349 37.2307 100.765 36.7866C101.193 36.3403 101.802 36.0543 102.593 35.9286C103.172 35.8364 103.716 35.8645 104.226 36.0128C104.747 36.146 105.214 36.4092 105.628 36.8024C106.039 37.1824 106.391 37.6935 106.682 38.3357C106.973 38.9779 107.19 39.7467 107.332 40.6421C107.475 41.5375 107.507 42.3357 107.43 43.0365C107.353 43.7374 107.178 44.339 106.907 44.8412C106.634 45.3302 106.272 45.7254 105.82 46.0268C105.379 46.3129 104.87 46.5021 104.29 46.5943C103.5 46.7201 102.832 46.6374 102.286 46.3462C101.754 46.053 101.3 45.6189 100.925 45.0441L100.786 45.0661L101.701 50.8137L99.1731 51.2161L96.9221 37.0741ZM102.903 44.7494C103.64 44.6321 104.171 44.3181 104.495 43.8075C104.832 43.2949 104.938 42.6501 104.815 41.8732L104.557 40.2536C104.433 39.4767 104.132 38.8969 103.652 38.5142C103.186 38.1293 102.584 37.9956 101.847 38.113C101.267 38.2052 100.79 38.4297 100.415 38.7864C100.05 39.1279 99.9145 39.5884 100.007 40.1677L100.516 43.3675C100.608 43.9468 100.882 44.3489 101.336 44.5736C101.801 44.783 102.324 44.8417 102.903 44.7494ZM114.978 44.8932C114.161 45.0231 113.417 45.0133 112.745 44.8637C112.074 44.7141 111.484 44.4435 110.976 44.0518C110.481 43.658 110.07 43.1563 109.744 42.5467C109.415 41.924 109.186 41.2044 109.056 40.388C108.924 39.5585 108.918 38.7967 109.037 38.1027C109.169 37.4066 109.409 36.7945 109.757 36.2666C110.105 35.7387 110.555 35.3025 111.108 34.958C111.674 34.6114 112.332 34.3784 113.083 34.2589C113.82 34.1415 114.505 34.1608 115.137 34.3166C115.768 34.4593 116.322 34.7221 116.802 35.1048C117.294 35.4854 117.703 35.9739 118.027 36.5703C118.352 37.1668 118.575 37.8468 118.696 38.6106L118.829 39.4401L111.679 40.5782L111.719 40.8349C111.837 41.5723 112.163 42.1348 112.697 42.5223C113.229 42.8966 113.91 43.0178 114.739 42.8857C115.371 42.7851 115.891 42.5741 116.299 42.2527C116.718 41.916 117.046 41.5128 117.281 41.0432L118.953 42.2556C118.67 42.8542 118.203 43.401 117.553 43.896C116.916 44.3889 116.058 44.7213 114.978 44.8932ZM113.398 36.1124C112.687 36.2255 112.15 36.5406 111.786 37.0574C111.423 37.5743 111.3 38.2014 111.418 38.9388L111.44 39.0771L116.061 38.3414L116.033 38.1636C115.916 37.4263 115.618 36.8728 115.141 36.5032C114.677 36.1316 114.096 36.0013 113.398 36.1124ZM126.337 43.0852C125.56 43.2088 124.842 43.1948 124.184 43.0431C123.538 42.8894 122.961 42.6166 122.454 42.2249C121.959 41.8311 121.541 41.3239 121.199 40.7032C120.87 40.0805 120.641 39.3609 120.511 38.5445C120.381 37.7281 120.375 36.9729 120.495 36.2789C120.627 35.5828 120.867 34.9708 121.215 34.4429C121.576 33.9128 122.04 33.4745 122.605 33.1279C123.185 32.7793 123.862 32.5431 124.639 32.4194C125.403 32.2979 126.114 32.3129 126.773 32.4646C127.432 32.6163 128.008 32.889 128.503 33.2828C129.011 33.6745 129.429 34.1817 129.758 34.8045C130.1 35.4252 130.336 36.1437 130.466 36.9601C130.595 37.7765 130.594 38.5327 130.462 39.2288C130.343 39.9228 130.103 40.5348 129.742 41.0649C129.394 41.5928 128.93 42.0311 128.351 42.3798C127.772 42.7285 127.101 42.9636 126.337 43.0852ZM126.029 41.1495C126.753 41.0343 127.291 40.7258 127.644 40.2242C127.994 39.7095 128.101 39.0241 127.964 38.1682L127.713 36.5881C127.577 35.7322 127.263 35.1206 126.773 34.7531C126.28 34.3725 125.672 34.2398 124.947 34.3551C124.223 34.4703 123.686 34.7854 123.336 35.3001C122.984 35.8017 122.876 36.4805 123.012 37.3364L123.264 38.9165C123.4 39.7724 123.714 40.3906 124.207 40.7712C124.697 41.1387 125.305 41.2648 126.029 41.1495ZM131.711 31.5369L134.239 31.1345L134.525 32.9319L134.663 32.9099C134.841 32.247 135.138 31.6935 135.553 31.2493C135.982 30.8031 136.591 30.5171 137.381 30.3913C137.961 30.2991 138.505 30.3272 139.015 30.4756C139.535 30.6087 140.003 30.8719 140.416 31.2651C140.828 31.6452 141.179 32.1563 141.47 32.7985C141.762 33.4407 141.978 34.2095 142.121 35.1049C142.264 36.0003 142.296 36.7984 142.219 37.4993C142.141 38.2002 141.967 38.8017 141.696 39.3039C141.423 39.793 141.06 40.1882 140.609 40.4896C140.168 40.7757 139.658 40.9649 139.079 41.0571C138.289 41.1828 137.621 41.1001 137.075 40.809C136.542 40.5158 136.088 40.0817 135.713 39.5068L135.575 39.5288L136.49 45.2765L133.962 45.6789L131.711 31.5369ZM137.692 39.2122C138.429 39.0948 138.96 38.7809 139.283 38.2703C139.62 37.7576 139.727 37.1128 139.603 36.336L139.345 34.7163C139.222 33.9395 138.92 33.3597 138.441 32.9769C137.974 32.5921 137.373 32.4584 136.635 32.5757C136.056 32.668 135.579 32.8925 135.203 33.2492C134.839 33.5907 134.703 34.0511 134.795 34.6305L135.305 37.8302C135.397 38.4096 135.67 38.8116 136.124 39.0364C136.59 39.2458 137.112 39.3044 137.692 39.2122ZM144.671 37.8786L147.91 37.363L146.219 26.7367L142.98 27.2523L142.662 25.2574L148.429 24.3394L150.438 36.9606L153.697 36.4418L154.015 38.4367L144.988 39.8734L144.671 37.8786ZM161.363 37.5102C160.546 37.6401 159.802 37.6303 159.13 37.4807C158.458 37.3312 157.869 37.0605 157.361 36.6688C156.866 36.275 156.455 35.7733 156.129 35.1637C155.8 34.541 155.571 33.8214 155.441 33.005C155.309 32.1755 155.302 31.4137 155.421 30.7197C155.554 30.0236 155.794 29.4116 156.142 28.8836C156.49 28.3557 156.94 27.9195 157.493 27.575C158.059 27.2284 158.717 26.9954 159.468 26.8759C160.205 26.7585 160.89 26.7778 161.522 26.9337C162.152 27.0764 162.707 27.3391 163.187 27.7218C163.679 28.1024 164.088 28.591 164.412 29.1874C164.737 29.7838 164.96 30.4638 165.081 31.2276L165.213 32.0571L158.063 33.1952L158.104 33.4519C158.222 34.1893 158.547 34.7518 159.082 35.1393C159.614 35.5136 160.295 35.6348 161.124 35.5027C161.756 35.4021 162.276 35.1911 162.684 34.8697C163.103 34.533 163.43 34.1298 163.666 33.6603L165.337 34.8726C165.055 35.4712 164.588 36.018 163.938 36.513C163.301 37.0059 162.442 37.3383 161.363 37.5102ZM159.783 28.7294C159.072 28.8426 158.535 29.1576 158.171 29.6744C157.808 30.1913 157.685 30.8184 157.802 31.5558L157.824 31.6941L162.446 30.9584L162.418 30.7807C162.301 30.0433 162.003 29.4898 161.526 29.1202C161.062 28.7486 160.481 28.6183 159.783 28.7294ZM184.972 33.5094C183.997 33.6645 183.239 33.5219 182.696 33.0818C182.154 32.6416 181.817 32.0133 181.687 31.1969L180.823 25.7653L177.86 26.2368L177.543 24.242L179.557 23.9213C179.965 23.8563 180.243 23.7312 180.389 23.5459C180.532 23.3475 180.571 23.0376 180.504 22.6163L180.111 20.1473L182.461 19.7732L183.033 23.368L187.181 22.7078L187.499 24.7027L183.351 25.3629L184.338 31.5648L188.486 30.9046L188.803 32.8995L184.972 33.5094ZM189.106 17.865L191.634 17.4626L192.625 23.6843L192.723 23.6686C192.859 23.0799 193.126 22.5514 193.524 22.083C193.933 21.5994 194.552 21.2915 195.382 21.1595C196.383 21.0002 197.246 21.2071 197.972 21.7801C198.709 22.3379 199.176 23.2356 199.373 24.4734L200.419 31.0506L197.891 31.453L196.901 25.2313C196.666 23.7566 195.91 23.1208 194.633 23.3241C194.37 23.366 194.125 23.4388 193.898 23.5423C193.672 23.6459 193.471 23.7858 193.297 23.9621C193.133 24.1231 193.008 24.3118 192.921 24.5282C192.847 24.7425 192.832 24.9879 192.876 25.2644L193.961 32.0786L191.433 32.481L189.106 17.865ZM206.231 18.0555C205.639 18.1498 205.197 18.0918 204.907 17.8814C204.63 17.669 204.464 17.385 204.407 17.0295L204.332 16.5554C204.275 16.1999 204.345 15.8782 204.543 15.5903C204.753 15.3003 205.154 15.1081 205.747 15.0138C206.34 14.9195 206.774 14.9786 207.051 15.191C207.341 15.4014 207.514 15.6843 207.571 16.0399L207.646 16.5139C207.703 16.8694 207.626 17.1922 207.416 17.4822C207.219 17.7701 206.824 17.9612 206.231 18.0555ZM203.165 28.5681L206.523 28.0336L205.536 21.8317L202.178 22.3662L201.861 20.3713L207.747 19.4344L209.051 27.6312L212.172 27.1345L212.49 29.1294L203.483 30.563L203.165 28.5681ZM214.625 28.7895L213.003 18.5978L215.531 18.1954L215.817 19.9928L215.916 19.9771C216.052 19.3884 216.319 18.8599 216.716 18.3915C217.126 17.9079 217.745 17.6 218.574 17.468C219.575 17.3087 220.438 17.5156 221.164 18.0886C221.901 18.6464 222.368 19.5442 222.565 20.7819L223.612 27.3591L221.084 27.7615L220.093 21.5398C219.859 20.0651 219.103 19.4293 217.825 19.6326C217.562 19.6745 217.317 19.7473 217.091 19.8509C216.864 19.9544 216.664 20.0943 216.489 20.2706C216.326 20.4316 216.2 20.6203 216.113 20.8367C216.039 21.051 216.025 21.2964 216.069 21.5729L217.153 28.3871L214.625 28.7895ZM223.934 12.3215L226.462 11.9191L227.827 20.4912L227.945 20.4723L229.169 18.6169L231.275 15.6895L234.218 15.2211L230.807 19.8751L236.275 25.3436L233.253 25.8246L229.239 21.603L228.217 22.9404L228.789 26.5351L226.261 26.9375L223.934 12.3215ZM239.905 20.1483L239.421 17.1066C240.442 16.9036 241.221 16.5838 241.759 16.1471C242.309 15.6952 242.52 15.0742 242.394 14.2841L242.35 14.0076C242.256 13.4151 242.009 13.0089 241.61 12.7889C241.208 12.5558 240.731 12.4833 240.178 12.5713C239.559 12.6698 239.087 12.9272 238.761 13.3435C238.434 13.7467 238.242 14.2363 238.185 14.8124L235.914 14.2828C235.967 13.8558 236.082 13.4325 236.258 13.0129C236.435 12.5933 236.677 12.2104 236.987 11.8641C237.307 11.5025 237.704 11.1964 238.177 10.9455C238.661 10.6795 239.239 10.493 239.911 10.3861C240.582 10.2792 241.21 10.2805 241.795 10.39C242.377 10.4863 242.894 10.6808 243.346 10.9734C243.795 11.2529 244.164 11.6195 244.452 12.0732C244.752 12.5116 244.949 13.027 245.043 13.6196C245.135 14.1989 245.119 14.7348 244.995 15.2271C244.869 15.7062 244.662 16.1442 244.374 16.5411C244.097 16.9227 243.758 17.2534 243.357 17.5332C242.956 17.8131 242.525 18.0302 242.063 18.1847L242.315 19.7648L239.905 20.1483ZM241.921 24.6677C241.262 24.7725 240.773 24.7086 240.452 24.4761C240.145 24.2415 239.96 23.9267 239.897 23.5317L239.809 22.9786C239.746 22.5836 239.824 22.2269 240.044 21.9084C240.276 21.5879 240.722 21.3752 241.38 21.2705C242.038 21.1657 242.521 21.2306 242.829 21.4652C243.149 21.6977 243.341 22.0114 243.404 22.4065L243.492 22.9595C243.555 23.3545 243.47 23.7123 243.237 24.0328C243.018 24.3513 242.579 24.5629 241.921 24.6677Z" fill="#A3FFF6"/>
<line x1="127.5" y1="71" x2="127.5" y2="251" stroke="#A3FFF6" stroke-width="5" stroke-linejoin="round" stroke-dasharray="10 20"/>
</svg>
