<svg width="880" height="137" viewBox="0 0 880 137" fill="none" xmlns="http://www.w3.org/2000/svg">
<rect width="723" height="137" fill="#D63789" fill-opacity="0.65"/>
<path d="M17.84 34.5V47H16.16V34.5H11.5V33.04H22.5V34.5H17.84ZM24.7022 32.2H26.3022V38.36H26.3822C26.4889 38.1067 26.6222 37.8667 26.7822 37.64C26.9422 37.4 27.1355 37.1933 27.3622 37.02C27.6022 36.8467 27.8822 36.7067 28.2022 36.6C28.5222 36.4933 28.8955 36.44 29.3222 36.44C30.4022 36.44 31.2689 36.7867 31.9222 37.48C32.5755 38.16 32.9022 39.1267 32.9022 40.38V47H31.3022V40.66C31.3022 39.7133 31.0955 39.0133 30.6822 38.56C30.2689 38.0933 29.6622 37.86 28.8622 37.86C28.5422 37.86 28.2289 37.9 27.9222 37.98C27.6155 38.06 27.3422 38.18 27.1022 38.34C26.8622 38.5 26.6689 38.7067 26.5222 38.96C26.3755 39.2133 26.3022 39.5067 26.3022 39.84V47H24.7022V32.2ZM40.6644 47.24C39.9177 47.24 39.2444 47.1133 38.6444 46.86C38.0577 46.6067 37.551 46.2467 37.1244 45.78C36.711 45.3 36.391 44.7333 36.1644 44.08C35.9377 43.4133 35.8244 42.6733 35.8244 41.86C35.8244 41.0333 35.9377 40.2867 36.1644 39.62C36.4044 38.9533 36.731 38.3867 37.1444 37.92C37.5577 37.44 38.051 37.0733 38.6244 36.82C39.211 36.5667 39.8577 36.44 40.5644 36.44C41.2577 36.44 41.8844 36.5667 42.4444 36.82C43.0177 37.0733 43.5044 37.4267 43.9044 37.88C44.3044 38.32 44.611 38.8467 44.8244 39.46C45.0377 40.0733 45.1444 40.7467 45.1444 41.48V42.24H37.5044V42.72C37.5044 43.1733 37.5777 43.5933 37.7244 43.98C37.871 44.3667 38.0777 44.7 38.3444 44.98C38.6244 45.26 38.9577 45.48 39.3444 45.64C39.7444 45.7867 40.1844 45.86 40.6644 45.86C41.3577 45.86 41.9577 45.7 42.4644 45.38C42.971 45.06 43.3577 44.62 43.6244 44.06L44.8044 44.86C44.4977 45.5533 43.9844 46.1267 43.2644 46.58C42.5577 47.02 41.691 47.24 40.6644 47.24ZM40.5644 37.76C40.1244 37.76 39.7177 37.84 39.3444 38C38.971 38.16 38.6444 38.38 38.3644 38.66C38.0977 38.94 37.8844 39.2733 37.7244 39.66C37.5777 40.0333 37.5044 40.4467 37.5044 40.9V41.04H43.4244V40.82C43.4244 40.3667 43.351 39.9533 43.2044 39.58C43.071 39.2067 42.8777 38.8867 42.6244 38.62C42.3844 38.34 42.0844 38.1267 41.7244 37.98C41.3777 37.8333 40.991 37.76 40.5644 37.76ZM58.5688 36.68H59.9888L61.1688 45.6H61.3488L63.1087 36.68H64.8688L66.6288 45.6H66.8088L67.9888 36.68H69.3688L67.7888 47H65.7088L64.0688 38.36H63.9088L62.2288 47H60.1488L58.5688 36.68ZM75.7109 47.24C74.9909 47.24 74.3376 47.1133 73.7509 46.86C73.1776 46.6067 72.6843 46.2467 72.2709 45.78C71.8709 45.3 71.5643 44.7333 71.3509 44.08C71.1376 43.4133 71.0309 42.6667 71.0309 41.84C71.0309 41.0267 71.1376 40.2867 71.3509 39.62C71.5643 38.9533 71.8709 38.3867 72.2709 37.92C72.6843 37.44 73.1776 37.0733 73.7509 36.82C74.3376 36.5667 74.9909 36.44 75.7109 36.44C76.4309 36.44 77.0776 36.5667 77.6509 36.82C78.2376 37.0733 78.7309 37.44 79.1309 37.92C79.5443 38.3867 79.8576 38.9533 80.0709 39.62C80.2843 40.2867 80.3909 41.0267 80.3909 41.84C80.3909 42.6667 80.2843 43.4133 80.0709 44.08C79.8576 44.7333 79.5443 45.3 79.1309 45.78C78.7309 46.2467 78.2376 46.6067 77.6509 46.86C77.0776 47.1133 76.4309 47.24 75.7109 47.24ZM75.7109 45.86C76.6043 45.86 77.3243 45.5933 77.8709 45.06C78.4176 44.5267 78.6909 43.7 78.6909 42.58V41.1C78.6909 39.98 78.4176 39.1533 77.8709 38.62C77.3243 38.0867 76.6043 37.82 75.7109 37.82C74.8176 37.82 74.0976 38.0867 73.5509 38.62C73.0043 39.1533 72.7309 39.98 72.7309 41.1V42.58C72.7309 43.7 73.0043 44.5267 73.5509 45.06C74.0976 45.5933 74.8176 45.86 75.7109 45.86ZM82.9931 45.64H86.0131V38.04H82.9931V36.68H87.6131V39.28H87.7131C87.9265 38.4667 88.3265 37.8333 88.9131 37.38C89.5131 36.9133 90.2731 36.68 91.1931 36.68H92.6331V38.28H90.6931C89.7731 38.28 89.0265 38.5467 88.4531 39.08C87.8931 39.6133 87.6131 40.3133 87.6131 41.18V45.64H91.6131V47H82.9931V45.64ZM94.7953 45.64H98.3953V33.56H94.7953V32.2H99.9953V45.64H103.595V47H94.7953V45.64ZM113.438 45.32H113.358C112.691 46.6 111.631 47.24 110.178 47.24C108.911 47.24 107.918 46.7667 107.198 45.82C106.491 44.8733 106.138 43.5467 106.138 41.84C106.138 40.1333 106.491 38.8067 107.198 37.86C107.918 36.9133 108.911 36.44 110.178 36.44C111.631 36.44 112.691 37.08 113.358 38.36H113.438V32.2H115.037V47H113.438V45.32ZM110.798 45.82C111.158 45.82 111.498 45.7733 111.818 45.68C112.138 45.5867 112.418 45.4533 112.658 45.28C112.898 45.0933 113.084 44.8733 113.218 44.62C113.364 44.3533 113.438 44.0467 113.438 43.7V39.98C113.438 39.6333 113.364 39.3333 113.218 39.08C113.084 38.8133 112.898 38.5933 112.658 38.42C112.418 38.2333 112.138 38.0933 111.818 38C111.498 37.9067 111.158 37.86 110.798 37.86C109.864 37.86 109.138 38.1467 108.618 38.72C108.111 39.28 107.858 40.0267 107.858 40.96V42.72C107.858 43.6533 108.111 44.4067 108.618 44.98C109.138 45.54 109.864 45.82 110.798 45.82ZM138.322 47C137.695 47 137.249 46.84 136.982 46.52C136.715 46.2 136.549 45.8 136.482 45.32H136.382C136.155 45.92 135.789 46.3933 135.282 46.74C134.789 47.0733 134.122 47.24 133.282 47.24C132.202 47.24 131.342 46.96 130.702 46.4C130.062 45.84 129.742 45.0733 129.742 44.1C129.742 43.14 130.089 42.4 130.782 41.88C131.489 41.36 132.622 41.1 134.182 41.1H136.382V40.08C136.382 39.32 136.169 38.7533 135.742 38.38C135.315 37.9933 134.709 37.8 133.922 37.8C133.229 37.8 132.662 37.94 132.222 38.22C131.782 38.4867 131.429 38.8533 131.162 39.32L130.082 38.52C130.215 38.2533 130.395 37.9933 130.622 37.74C130.849 37.4867 131.129 37.2667 131.462 37.08C131.795 36.88 132.175 36.7267 132.602 36.62C133.029 36.5 133.502 36.44 134.022 36.44C135.235 36.44 136.195 36.7467 136.902 37.36C137.622 37.9733 137.982 38.8267 137.982 39.92V45.6H139.422V47H138.322ZM133.562 45.9C133.975 45.9 134.349 45.8533 134.682 45.76C135.029 45.6533 135.329 45.52 135.582 45.36C135.835 45.1867 136.029 44.9867 136.162 44.76C136.309 44.52 136.382 44.2667 136.382 44V42.3H134.182C133.222 42.3 132.522 42.4333 132.082 42.7C131.642 42.9667 131.422 43.3533 131.422 43.86V44.28C131.422 44.8133 131.609 45.22 131.982 45.5C132.369 45.7667 132.895 45.9 133.562 45.9ZM141.704 45.64H144.724V38.04H141.704V36.68H146.324V39.28H146.424C146.637 38.4667 147.037 37.8333 147.624 37.38C148.224 36.9133 148.984 36.68 149.904 36.68H151.344V38.28H149.404C148.484 38.28 147.737 38.5467 147.164 39.08C146.604 39.6133 146.324 40.3133 146.324 41.18V45.64H150.324V47H141.704V45.64ZM157.906 47.24C157.186 47.24 156.533 47.1133 155.946 46.86C155.373 46.6067 154.88 46.2467 154.466 45.78C154.066 45.3 153.76 44.7333 153.546 44.08C153.333 43.4133 153.226 42.6667 153.226 41.84C153.226 41.0267 153.333 40.2867 153.546 39.62C153.76 38.9533 154.066 38.3867 154.466 37.92C154.88 37.44 155.373 37.0733 155.946 36.82C156.533 36.5667 157.186 36.44 157.906 36.44C158.626 36.44 159.273 36.5667 159.846 36.82C160.433 37.0733 160.926 37.44 161.326 37.92C161.74 38.3867 162.053 38.9533 162.266 39.62C162.48 40.2867 162.586 41.0267 162.586 41.84C162.586 42.6667 162.48 43.4133 162.266 44.08C162.053 44.7333 161.74 45.3 161.326 45.78C160.926 46.2467 160.433 46.6067 159.846 46.86C159.273 47.1133 158.626 47.24 157.906 47.24ZM157.906 45.86C158.8 45.86 159.52 45.5933 160.066 45.06C160.613 44.5267 160.886 43.7 160.886 42.58V41.1C160.886 39.98 160.613 39.1533 160.066 38.62C159.52 38.0867 158.8 37.82 157.906 37.82C157.013 37.82 156.293 38.0867 155.746 38.62C155.2 39.1533 154.926 39.98 154.926 41.1V42.58C154.926 43.7 155.2 44.5267 155.746 45.06C156.293 45.5933 157.013 45.86 157.906 45.86ZM172.088 45.32H172.008C171.902 45.5733 171.768 45.82 171.608 46.06C171.448 46.2867 171.248 46.4867 171.008 46.66C170.782 46.8333 170.508 46.9733 170.188 47.08C169.868 47.1867 169.495 47.24 169.068 47.24C167.988 47.24 167.122 46.9 166.468 46.22C165.815 45.5267 165.488 44.5533 165.488 43.3V36.68H167.088V43.02C167.088 43.9667 167.295 44.6733 167.708 45.14C168.122 45.5933 168.728 45.82 169.528 45.82C169.848 45.82 170.162 45.78 170.468 45.7C170.775 45.62 171.048 45.5 171.288 45.34C171.528 45.18 171.722 44.98 171.868 44.74C172.015 44.4867 172.088 44.1867 172.088 43.84V36.68H173.688V47H172.088V45.32ZM177.351 47V36.68H178.951V38.36H179.031C179.137 38.1067 179.271 37.8667 179.431 37.64C179.591 37.4 179.784 37.1933 180.011 37.02C180.251 36.8467 180.531 36.7067 180.851 36.6C181.171 36.4933 181.544 36.44 181.971 36.44C183.051 36.44 183.917 36.7867 184.571 37.48C185.224 38.16 185.551 39.1267 185.551 40.38V47H183.951V40.66C183.951 39.7133 183.744 39.0133 183.331 38.56C182.917 38.0933 182.311 37.86 181.511 37.86C181.191 37.86 180.877 37.9 180.571 37.98C180.264 38.06 179.991 38.18 179.751 38.34C179.511 38.5 179.317 38.7067 179.171 38.96C179.024 39.2133 178.951 39.5067 178.951 39.84V47H177.351ZM195.633 45.32H195.553C194.886 46.6 193.826 47.24 192.373 47.24C191.106 47.24 190.113 46.7667 189.393 45.82C188.686 44.8733 188.333 43.5467 188.333 41.84C188.333 40.1333 188.686 38.8067 189.393 37.86C190.113 36.9133 191.106 36.44 192.373 36.44C193.826 36.44 194.886 37.08 195.553 38.36H195.633V32.2H197.233V47H195.633V45.32ZM192.993 45.82C193.353 45.82 193.693 45.7733 194.013 45.68C194.333 45.5867 194.613 45.4533 194.853 45.28C195.093 45.0933 195.279 44.8733 195.413 44.62C195.559 44.3533 195.633 44.0467 195.633 43.7V39.98C195.633 39.6333 195.559 39.3333 195.413 39.08C195.279 38.8133 195.093 38.5933 194.853 38.42C194.613 38.2333 194.333 38.0933 194.013 38C193.693 37.9067 193.353 37.86 192.993 37.86C192.059 37.86 191.333 38.1467 190.813 38.72C190.306 39.28 190.053 40.0267 190.053 40.96V42.72C190.053 43.6533 190.306 44.4067 190.813 44.98C191.333 45.54 192.059 45.82 192.993 45.82ZM211.697 47V36.68H213.177V37.88H213.257C213.417 37.48 213.644 37.14 213.937 36.86C214.231 36.58 214.664 36.44 215.237 36.44C215.837 36.44 216.284 36.5933 216.577 36.9C216.871 37.1933 217.051 37.58 217.117 38.06H217.177C217.364 37.5933 217.631 37.2067 217.977 36.9C218.324 36.5933 218.804 36.44 219.417 36.44C220.257 36.44 220.817 36.7333 221.097 37.32C221.391 37.9067 221.537 38.7467 221.537 39.84V47H220.057V40.1C220.057 39.22 219.964 38.6133 219.777 38.28C219.604 37.9333 219.277 37.76 218.797 37.76C218.371 37.76 218.024 37.9 217.757 38.18C217.491 38.4467 217.357 38.86 217.357 39.42V47H215.877V40.1C215.877 39.22 215.784 38.6133 215.597 38.28C215.424 37.9333 215.104 37.76 214.637 37.76C214.211 37.76 213.857 37.9 213.577 38.18C213.311 38.4467 213.177 38.86 213.177 39.42V47H211.697ZM228.539 47.24C227.793 47.24 227.119 47.1133 226.519 46.86C225.933 46.6067 225.426 46.2467 224.999 45.78C224.586 45.3 224.266 44.7333 224.039 44.08C223.813 43.4133 223.699 42.6733 223.699 41.86C223.699 41.0333 223.813 40.2867 224.039 39.62C224.279 38.9533 224.606 38.3867 225.019 37.92C225.433 37.44 225.926 37.0733 226.499 36.82C227.086 36.5667 227.733 36.44 228.439 36.44C229.133 36.44 229.759 36.5667 230.319 36.82C230.893 37.0733 231.379 37.4267 231.779 37.88C232.179 38.32 232.486 38.8467 232.699 39.46C232.913 40.0733 233.019 40.7467 233.019 41.48V42.24H225.379V42.72C225.379 43.1733 225.453 43.5933 225.599 43.98C225.746 44.3667 225.953 44.7 226.219 44.98C226.499 45.26 226.833 45.48 227.219 45.64C227.619 45.7867 228.059 45.86 228.539 45.86C229.233 45.86 229.833 45.7 230.339 45.38C230.846 45.06 231.233 44.62 231.499 44.06L232.679 44.86C232.373 45.5533 231.859 46.1267 231.139 46.58C230.433 47.02 229.566 47.24 228.539 47.24ZM228.439 37.76C227.999 37.76 227.593 37.84 227.219 38C226.846 38.16 226.519 38.38 226.239 38.66C225.973 38.94 225.759 39.2733 225.599 39.66C225.453 40.0333 225.379 40.4467 225.379 40.9V41.04H231.299V40.82C231.299 40.3667 231.226 39.9533 231.079 39.58C230.946 39.2067 230.753 38.8867 230.499 38.62C230.259 38.34 229.959 38.1267 229.599 37.98C229.253 37.8333 228.866 37.76 228.439 37.76ZM252.484 34.4C252.017 34.4 251.69 34.3067 251.504 34.12C251.317 33.92 251.224 33.6733 251.224 33.38V33.06C251.224 32.7667 251.317 32.5267 251.504 32.34C251.69 32.14 252.017 32.04 252.484 32.04C252.95 32.04 253.277 32.14 253.464 32.34C253.65 32.5267 253.744 32.7667 253.744 33.06V33.38C253.744 33.6733 253.65 33.92 253.464 34.12C253.277 34.3067 252.95 34.4 252.484 34.4ZM247.964 45.64H251.684V38.04H247.964V36.68H253.284V45.64H256.764V47H247.964V45.64ZM263.706 47.24C262.626 47.24 261.693 47.06 260.906 46.7C260.133 46.3267 259.473 45.8333 258.926 45.22L260.006 44.28C260.499 44.8 261.039 45.2 261.626 45.48C262.213 45.76 262.919 45.9 263.746 45.9C264.546 45.9 265.199 45.76 265.706 45.48C266.226 45.1867 266.486 44.7333 266.486 44.12C266.486 43.8533 266.433 43.6333 266.326 43.46C266.233 43.2733 266.099 43.1267 265.926 43.02C265.753 42.9133 265.559 42.8333 265.346 42.78C265.133 42.7133 264.906 42.66 264.666 42.62L263.046 42.38C262.686 42.3267 262.293 42.2533 261.866 42.16C261.453 42.0667 261.073 41.92 260.726 41.72C260.379 41.5067 260.086 41.2267 259.846 40.88C259.619 40.5333 259.506 40.08 259.506 39.52C259.506 39 259.606 38.5533 259.806 38.18C260.019 37.7933 260.313 37.4733 260.686 37.22C261.059 36.9533 261.499 36.76 262.006 36.64C262.513 36.5067 263.066 36.44 263.666 36.44C264.599 36.44 265.406 36.5867 266.086 36.88C266.779 37.1733 267.373 37.58 267.866 38.1L266.826 39.08C266.706 38.9333 266.553 38.7867 266.366 38.64C266.193 38.48 265.973 38.34 265.706 38.22C265.453 38.0867 265.153 37.98 264.806 37.9C264.459 37.82 264.059 37.78 263.606 37.78C262.793 37.78 262.166 37.92 261.726 38.2C261.299 38.48 261.086 38.8867 261.086 39.42C261.086 39.6867 261.133 39.9133 261.226 40.1C261.333 40.2733 261.473 40.4133 261.646 40.52C261.819 40.6267 262.013 40.7133 262.226 40.78C262.453 40.8333 262.679 40.88 262.906 40.92L264.526 41.16C264.899 41.2133 265.293 41.2867 265.706 41.38C266.119 41.4733 266.499 41.6267 266.846 41.84C267.193 42.04 267.479 42.3133 267.706 42.66C267.946 43.0067 268.066 43.46 268.066 44.02C268.066 45.0467 267.666 45.84 266.866 46.4C266.079 46.96 265.026 47.24 263.706 47.24ZM287.43 47.24C286.684 47.24 286.017 47.1133 285.43 46.86C284.857 46.5933 284.37 46.2267 283.97 45.76C283.57 45.2933 283.264 44.7267 283.05 44.06C282.85 43.3933 282.75 42.6533 282.75 41.84C282.75 41.0267 282.857 40.2867 283.07 39.62C283.284 38.9533 283.59 38.3867 283.99 37.92C284.39 37.44 284.877 37.0733 285.45 36.82C286.024 36.5667 286.677 36.44 287.41 36.44C288.41 36.44 289.224 36.66 289.85 37.1C290.477 37.54 290.937 38.1133 291.23 38.82L289.95 39.5C289.764 38.9667 289.45 38.5533 289.01 38.26C288.584 37.9667 288.05 37.82 287.41 37.82C286.944 37.82 286.524 37.9 286.15 38.06C285.79 38.2067 285.484 38.42 285.23 38.7C284.977 38.98 284.784 39.3133 284.65 39.7C284.53 40.0867 284.47 40.5067 284.47 40.96V42.72C284.47 43.1733 284.53 43.5933 284.65 43.98C284.784 44.3667 284.977 44.7 285.23 44.98C285.484 45.26 285.797 45.48 286.17 45.64C286.544 45.7867 286.97 45.86 287.45 45.86C288.144 45.86 288.717 45.7 289.17 45.38C289.624 45.06 289.984 44.62 290.25 44.06L291.39 44.84C291.084 45.5333 290.604 46.1067 289.95 46.56C289.31 47.0133 288.47 47.24 287.43 47.24ZM294.773 32.2H296.373V38.36H296.453C296.559 38.1067 296.693 37.8667 296.853 37.64C297.013 37.4 297.206 37.1933 297.433 37.02C297.673 36.8467 297.953 36.7067 298.273 36.6C298.593 36.4933 298.966 36.44 299.393 36.44C300.473 36.44 301.339 36.7867 301.993 37.48C302.646 38.16 302.973 39.1267 302.973 40.38V47H301.373V40.66C301.373 39.7133 301.166 39.0133 300.753 38.56C300.339 38.0933 299.733 37.86 298.933 37.86C298.613 37.86 298.299 37.9 297.993 37.98C297.686 38.06 297.413 38.18 297.173 38.34C296.933 38.5 296.739 38.7067 296.593 38.96C296.446 39.2133 296.373 39.5067 296.373 39.84V47H294.773V32.2ZM314.455 47C313.828 47 313.381 46.84 313.115 46.52C312.848 46.2 312.681 45.8 312.615 45.32H312.515C312.288 45.92 311.921 46.3933 311.415 46.74C310.921 47.0733 310.255 47.24 309.415 47.24C308.335 47.24 307.475 46.96 306.835 46.4C306.195 45.84 305.875 45.0733 305.875 44.1C305.875 43.14 306.221 42.4 306.915 41.88C307.621 41.36 308.755 41.1 310.315 41.1H312.515V40.08C312.515 39.32 312.301 38.7533 311.875 38.38C311.448 37.9933 310.841 37.8 310.055 37.8C309.361 37.8 308.795 37.94 308.355 38.22C307.915 38.4867 307.561 38.8533 307.295 39.32L306.215 38.52C306.348 38.2533 306.528 37.9933 306.755 37.74C306.981 37.4867 307.261 37.2667 307.595 37.08C307.928 36.88 308.308 36.7267 308.735 36.62C309.161 36.5 309.635 36.44 310.155 36.44C311.368 36.44 312.328 36.7467 313.035 37.36C313.755 37.9733 314.115 38.8267 314.115 39.92V45.6H315.555V47H314.455ZM309.695 45.9C310.108 45.9 310.481 45.8533 310.815 45.76C311.161 45.6533 311.461 45.52 311.715 45.36C311.968 45.1867 312.161 44.9867 312.295 44.76C312.441 44.52 312.515 44.2667 312.515 44V42.3H310.315C309.355 42.3 308.655 42.4333 308.215 42.7C307.775 42.9667 307.555 43.3533 307.555 43.86V44.28C307.555 44.8133 307.741 45.22 308.115 45.5C308.501 45.7667 309.028 45.9 309.695 45.9ZM318.257 47V36.68H319.857V38.36H319.937C320.044 38.1067 320.177 37.8667 320.337 37.64C320.497 37.4 320.69 37.1933 320.917 37.02C321.157 36.8467 321.437 36.7067 321.757 36.6C322.077 36.4933 322.45 36.44 322.877 36.44C323.957 36.44 324.824 36.7867 325.477 37.48C326.13 38.16 326.457 39.1267 326.457 40.38V47H324.857V40.66C324.857 39.7133 324.65 39.0133 324.237 38.56C323.824 38.0933 323.217 37.86 322.417 37.86C322.097 37.86 321.784 37.9 321.477 37.98C321.17 38.06 320.897 38.18 320.657 38.34C320.417 38.5 320.224 38.7067 320.077 38.96C319.93 39.2133 319.857 39.5067 319.857 39.84V47H318.257ZM339.259 48.18C339.259 49.22 338.826 49.9867 337.959 50.48C337.092 50.9867 335.792 51.24 334.059 51.24C332.392 51.24 331.192 51.02 330.459 50.58C329.739 50.14 329.379 49.5067 329.379 48.68C329.379 48.12 329.526 47.6867 329.819 47.38C330.112 47.0733 330.526 46.8467 331.059 46.7V46.46C330.766 46.3133 330.539 46.1267 330.379 45.9C330.219 45.6733 330.139 45.3867 330.139 45.04C330.139 44.5067 330.312 44.1067 330.659 43.84C331.019 43.5733 331.466 43.3733 331.999 43.24V43.16C331.359 42.88 330.859 42.4667 330.499 41.92C330.152 41.3733 329.979 40.7333 329.979 40C329.979 39.48 330.072 39 330.259 38.56C330.446 38.12 330.712 37.7467 331.059 37.44C331.419 37.12 331.846 36.8733 332.339 36.7C332.832 36.5267 333.379 36.44 333.979 36.44C334.752 36.44 335.432 36.58 336.019 36.86V36.68C336.019 36.28 336.112 35.9467 336.299 35.68C336.486 35.4133 336.806 35.28 337.259 35.28H339.159V36.68H336.839V37.38C337.212 37.7 337.499 38.08 337.699 38.52C337.899 38.96 337.999 39.4533 337.999 40C337.999 40.52 337.899 41 337.699 41.44C337.512 41.88 337.246 42.26 336.899 42.58C336.552 42.8867 336.126 43.1267 335.619 43.3C335.126 43.4733 334.579 43.56 333.979 43.56C333.806 43.56 333.639 43.5533 333.479 43.54C333.319 43.5267 333.159 43.5067 332.999 43.48C332.839 43.5067 332.672 43.5533 332.499 43.62C332.326 43.6733 332.166 43.7533 332.019 43.86C331.872 43.9533 331.752 44.0667 331.659 44.2C331.566 44.3333 331.519 44.4867 331.519 44.66C331.519 44.9667 331.672 45.1733 331.979 45.28C332.286 45.3733 332.686 45.42 333.179 45.42H335.459C336.792 45.42 337.759 45.6733 338.359 46.18C338.959 46.6733 339.259 47.34 339.259 48.18ZM337.759 48.26C337.759 47.8467 337.592 47.5133 337.259 47.26C336.926 47.02 336.346 46.9 335.519 46.9H331.939C331.246 47.18 330.899 47.6467 330.899 48.3C330.899 48.7533 331.079 49.14 331.439 49.46C331.799 49.7933 332.399 49.96 333.239 49.96H334.799C335.732 49.96 336.459 49.8133 336.979 49.52C337.499 49.24 337.759 48.82 337.759 48.26ZM333.979 42.32C334.779 42.32 335.366 42.1333 335.739 41.76C336.126 41.3867 336.319 40.8933 336.319 40.28V39.7C336.319 39.0867 336.126 38.6 335.739 38.24C335.366 37.8667 334.779 37.68 333.979 37.68C333.179 37.68 332.592 37.8667 332.219 38.24C331.846 38.6 331.659 39.0867 331.659 39.7V40.28C331.659 40.8933 331.846 41.3867 332.219 41.76C332.592 42.1333 333.179 42.32 333.979 42.32ZM346.421 34.4C345.955 34.4 345.628 34.3067 345.441 34.12C345.255 33.92 345.161 33.6733 345.161 33.38V33.06C345.161 32.7667 345.255 32.5267 345.441 32.34C345.628 32.14 345.955 32.04 346.421 32.04C346.888 32.04 347.215 32.14 347.401 32.34C347.588 32.5267 347.681 32.7667 347.681 33.06V33.38C347.681 33.6733 347.588 33.92 347.401 34.12C347.215 34.3067 346.888 34.4 346.421 34.4ZM341.901 45.64H345.621V38.04H341.901V36.68H347.221V45.64H350.701V47H341.901V45.64ZM353.483 47V36.68H355.083V38.36H355.163C355.27 38.1067 355.403 37.8667 355.563 37.64C355.723 37.4 355.917 37.1933 356.143 37.02C356.383 36.8467 356.663 36.7067 356.983 36.6C357.303 36.4933 357.677 36.44 358.103 36.44C359.183 36.44 360.05 36.7867 360.703 37.48C361.357 38.16 361.683 39.1267 361.683 40.38V47H360.083V40.66C360.083 39.7133 359.877 39.0133 359.463 38.56C359.05 38.0933 358.443 37.86 357.643 37.86C357.323 37.86 357.01 37.9 356.703 37.98C356.397 38.06 356.123 38.18 355.883 38.34C355.643 38.5 355.45 38.7067 355.303 38.96C355.157 39.2133 355.083 39.5067 355.083 39.84V47H353.483ZM374.486 48.18C374.486 49.22 374.052 49.9867 373.186 50.48C372.319 50.9867 371.019 51.24 369.286 51.24C367.619 51.24 366.419 51.02 365.686 50.58C364.966 50.14 364.606 49.5067 364.606 48.68C364.606 48.12 364.752 47.6867 365.046 47.38C365.339 47.0733 365.752 46.8467 366.286 46.7V46.46C365.992 46.3133 365.766 46.1267 365.606 45.9C365.446 45.6733 365.366 45.3867 365.366 45.04C365.366 44.5067 365.539 44.1067 365.886 43.84C366.246 43.5733 366.692 43.3733 367.226 43.24V43.16C366.586 42.88 366.086 42.4667 365.726 41.92C365.379 41.3733 365.206 40.7333 365.206 40C365.206 39.48 365.299 39 365.486 38.56C365.672 38.12 365.939 37.7467 366.286 37.44C366.646 37.12 367.072 36.8733 367.566 36.7C368.059 36.5267 368.606 36.44 369.206 36.44C369.979 36.44 370.659 36.58 371.246 36.86V36.68C371.246 36.28 371.339 35.9467 371.526 35.68C371.712 35.4133 372.032 35.28 372.486 35.28H374.386V36.68H372.066V37.38C372.439 37.7 372.726 38.08 372.926 38.52C373.126 38.96 373.226 39.4533 373.226 40C373.226 40.52 373.126 41 372.926 41.44C372.739 41.88 372.472 42.26 372.126 42.58C371.779 42.8867 371.352 43.1267 370.846 43.3C370.352 43.4733 369.806 43.56 369.206 43.56C369.032 43.56 368.866 43.5533 368.706 43.54C368.546 43.5267 368.386 43.5067 368.226 43.48C368.066 43.5067 367.899 43.5533 367.726 43.62C367.552 43.6733 367.392 43.7533 367.246 43.86C367.099 43.9533 366.979 44.0667 366.886 44.2C366.792 44.3333 366.746 44.4867 366.746 44.66C366.746 44.9667 366.899 45.1733 367.206 45.28C367.512 45.3733 367.912 45.42 368.406 45.42H370.686C372.019 45.42 372.986 45.6733 373.586 46.18C374.186 46.6733 374.486 47.34 374.486 48.18ZM372.986 48.26C372.986 47.8467 372.819 47.5133 372.486 47.26C372.152 47.02 371.572 46.9 370.746 46.9H367.166C366.472 47.18 366.126 47.6467 366.126 48.3C366.126 48.7533 366.306 49.14 366.666 49.46C367.026 49.7933 367.626 49.96 368.466 49.96H370.026C370.959 49.96 371.686 49.8133 372.206 49.52C372.726 49.24 372.986 48.82 372.986 48.26ZM369.206 42.32C370.006 42.32 370.592 42.1333 370.966 41.76C371.352 41.3867 371.546 40.8933 371.546 40.28V39.7C371.546 39.0867 371.352 38.6 370.966 38.24C370.592 37.8667 370.006 37.68 369.206 37.68C368.406 37.68 367.819 37.8667 367.446 38.24C367.072 38.6 366.886 39.0867 366.886 39.7V40.28C366.886 40.8933 367.072 41.3867 367.446 41.76C367.819 42.1333 368.406 42.32 369.206 42.32ZM393.25 47C392.463 47 391.883 46.78 391.51 46.34C391.15 45.9 390.97 45.3333 390.97 44.64V38.04H387.53V36.68H390.09C390.437 36.68 390.677 36.6133 390.81 36.48C390.957 36.3333 391.03 36.0867 391.03 35.74V33.04H392.57V36.68H397.27V38.04H392.57V45.64H397.27V47H393.25ZM404.492 47.24C403.772 47.24 403.119 47.1133 402.532 46.86C401.959 46.6067 401.466 46.2467 401.052 45.78C400.652 45.3 400.346 44.7333 400.132 44.08C399.919 43.4133 399.812 42.6667 399.812 41.84C399.812 41.0267 399.919 40.2867 400.132 39.62C400.346 38.9533 400.652 38.3867 401.052 37.92C401.466 37.44 401.959 37.0733 402.532 36.82C403.119 36.5667 403.772 36.44 404.492 36.44C405.212 36.44 405.859 36.5667 406.432 36.82C407.019 37.0733 407.512 37.44 407.912 37.92C408.326 38.3867 408.639 38.9533 408.852 39.62C409.066 40.2867 409.172 41.0267 409.172 41.84C409.172 42.6667 409.066 43.4133 408.852 44.08C408.639 44.7333 408.326 45.3 407.912 45.78C407.512 46.2467 407.019 46.6067 406.432 46.86C405.859 47.1133 405.212 47.24 404.492 47.24ZM404.492 45.86C405.386 45.86 406.106 45.5933 406.652 45.06C407.199 44.5267 407.472 43.7 407.472 42.58V41.1C407.472 39.98 407.199 39.1533 406.652 38.62C406.106 38.0867 405.386 37.82 404.492 37.82C403.599 37.82 402.879 38.0867 402.332 38.62C401.786 39.1533 401.512 39.98 401.512 41.1V42.58C401.512 43.7 401.786 44.5267 402.332 45.06C402.879 45.5933 403.599 45.86 404.492 45.86ZM416.234 47.24C415.514 47.24 414.861 47.1133 414.274 46.86C413.701 46.6067 413.208 46.2467 412.794 45.78C412.394 45.3 412.088 44.7333 411.874 44.08C411.661 43.4133 411.554 42.6667 411.554 41.84C411.554 41.0267 411.661 40.2867 411.874 39.62C412.088 38.9533 412.394 38.3867 412.794 37.92C413.208 37.44 413.701 37.0733 414.274 36.82C414.861 36.5667 415.514 36.44 416.234 36.44C416.954 36.44 417.601 36.5667 418.174 36.82C418.761 37.0733 419.254 37.44 419.654 37.92C420.068 38.3867 420.381 38.9533 420.594 39.62C420.808 40.2867 420.914 41.0267 420.914 41.84C420.914 42.6667 420.808 43.4133 420.594 44.08C420.381 44.7333 420.068 45.3 419.654 45.78C419.254 46.2467 418.761 46.6067 418.174 46.86C417.601 47.1133 416.954 47.24 416.234 47.24ZM416.234 45.86C417.128 45.86 417.848 45.5933 418.394 45.06C418.941 44.5267 419.214 43.7 419.214 42.58V41.1C419.214 39.98 418.941 39.1533 418.394 38.62C417.848 38.0867 417.128 37.82 416.234 37.82C415.341 37.82 414.621 38.0867 414.074 38.62C413.528 39.1533 413.254 39.98 413.254 41.1V42.58C413.254 43.7 413.528 44.5267 414.074 45.06C414.621 45.5933 415.341 45.86 416.234 45.86ZM435.379 45.64H438.859V38.04H435.179V36.68H438.859V34.56C438.859 33.8667 439.039 33.3 439.399 32.86C439.772 32.42 440.352 32.2 441.139 32.2H444.599V33.56H440.459V36.68H444.599V38.04H440.459V45.64H444.139V47H435.379V45.64ZM455.361 47C454.734 47 454.288 46.84 454.021 46.52C453.754 46.2 453.588 45.8 453.521 45.32H453.421C453.194 45.92 452.828 46.3933 452.321 46.74C451.828 47.0733 451.161 47.24 450.321 47.24C449.241 47.24 448.381 46.96 447.741 46.4C447.101 45.84 446.781 45.0733 446.781 44.1C446.781 43.14 447.128 42.4 447.821 41.88C448.528 41.36 449.661 41.1 451.221 41.1H453.421V40.08C453.421 39.32 453.208 38.7533 452.781 38.38C452.354 37.9933 451.748 37.8 450.961 37.8C450.268 37.8 449.701 37.94 449.261 38.22C448.821 38.4867 448.468 38.8533 448.201 39.32L447.121 38.52C447.254 38.2533 447.434 37.9933 447.661 37.74C447.888 37.4867 448.168 37.2667 448.501 37.08C448.834 36.88 449.214 36.7267 449.641 36.62C450.068 36.5 450.541 36.44 451.061 36.44C452.274 36.44 453.234 36.7467 453.941 37.36C454.661 37.9733 455.021 38.8267 455.021 39.92V45.6H456.461V47H455.361ZM450.601 45.9C451.014 45.9 451.388 45.8533 451.721 45.76C452.068 45.6533 452.368 45.52 452.621 45.36C452.874 45.1867 453.068 44.9867 453.201 44.76C453.348 44.52 453.421 44.2667 453.421 44V42.3H451.221C450.261 42.3 449.561 42.4333 449.121 42.7C448.681 42.9667 448.461 43.3533 448.461 43.86V44.28C448.461 44.8133 448.648 45.22 449.021 45.5C449.408 45.7667 449.934 45.9 450.601 45.9ZM463.323 47.24C462.243 47.24 461.31 47.06 460.523 46.7C459.75 46.3267 459.09 45.8333 458.543 45.22L459.623 44.28C460.116 44.8 460.656 45.2 461.243 45.48C461.83 45.76 462.536 45.9 463.363 45.9C464.163 45.9 464.816 45.76 465.323 45.48C465.843 45.1867 466.103 44.7333 466.103 44.12C466.103 43.8533 466.05 43.6333 465.943 43.46C465.85 43.2733 465.716 43.1267 465.543 43.02C465.37 42.9133 465.176 42.8333 464.963 42.78C464.75 42.7133 464.523 42.66 464.283 42.62L462.663 42.38C462.303 42.3267 461.91 42.2533 461.483 42.16C461.07 42.0667 460.69 41.92 460.343 41.72C459.996 41.5067 459.703 41.2267 459.463 40.88C459.236 40.5333 459.123 40.08 459.123 39.52C459.123 39 459.223 38.5533 459.423 38.18C459.636 37.7933 459.93 37.4733 460.303 37.22C460.676 36.9533 461.116 36.76 461.623 36.64C462.13 36.5067 462.683 36.44 463.283 36.44C464.216 36.44 465.023 36.5867 465.703 36.88C466.396 37.1733 466.99 37.58 467.483 38.1L466.443 39.08C466.323 38.9333 466.17 38.7867 465.983 38.64C465.81 38.48 465.59 38.34 465.323 38.22C465.07 38.0867 464.77 37.98 464.423 37.9C464.076 37.82 463.676 37.78 463.223 37.78C462.41 37.78 461.783 37.92 461.343 38.2C460.916 38.48 460.703 38.8867 460.703 39.42C460.703 39.6867 460.75 39.9133 460.843 40.1C460.95 40.2733 461.09 40.4133 461.263 40.52C461.436 40.6267 461.63 40.7133 461.843 40.78C462.07 40.8333 462.296 40.88 462.523 40.92L464.143 41.16C464.516 41.2133 464.91 41.2867 465.323 41.38C465.736 41.4733 466.116 41.6267 466.463 41.84C466.81 42.04 467.096 42.3133 467.323 42.66C467.563 43.0067 467.683 43.46 467.683 44.02C467.683 45.0467 467.283 45.84 466.483 46.4C465.696 46.96 464.643 47.24 463.323 47.24ZM475.445 47C474.659 47 474.079 46.78 473.705 46.34C473.345 45.9 473.165 45.3333 473.165 44.64V38.04H469.725V36.68H472.285C472.632 36.68 472.872 36.6133 473.005 36.48C473.152 36.3333 473.225 36.0867 473.225 35.74V33.04H474.765V36.68H479.465V38.04H474.765V45.64H479.465V47H475.445ZM486.688 47.18C486.141 47.18 485.754 47.0667 485.528 46.84C485.314 46.6133 485.208 46.3267 485.208 45.98V45.62C485.208 45.2733 485.314 44.9867 485.528 44.76C485.754 44.5333 486.141 44.42 486.688 44.42C487.234 44.42 487.614 44.5333 487.828 44.76C488.054 44.9867 488.168 45.2733 488.168 45.62V45.98C488.168 46.3267 488.054 46.6133 487.828 46.84C487.614 47.0667 487.234 47.18 486.688 47.18ZM12.8 77V63.04H21.4V64.5H14.48V69.2H21.16V70.66H14.48V75.54H21.4V77H12.8ZM27.7222 77L24.0222 66.68H25.6422L27.1222 71L28.7222 75.66H28.8022L30.4022 71L31.8822 66.68H33.4622L29.7622 77H27.7222ZM40.6644 77.24C39.9177 77.24 39.2444 77.1133 38.6444 76.86C38.0577 76.6067 37.551 76.2467 37.1244 75.78C36.711 75.3 36.391 74.7333 36.1644 74.08C35.9377 73.4133 35.8244 72.6733 35.8244 71.86C35.8244 71.0333 35.9377 70.2867 36.1644 69.62C36.4044 68.9533 36.731 68.3867 37.1444 67.92C37.5577 67.44 38.051 67.0733 38.6244 66.82C39.211 66.5667 39.8577 66.44 40.5644 66.44C41.2577 66.44 41.8844 66.5667 42.4444 66.82C43.0177 67.0733 43.5044 67.4267 43.9044 67.88C44.3044 68.32 44.611 68.8467 44.8244 69.46C45.0377 70.0733 45.1444 70.7467 45.1444 71.48V72.24H37.5044V72.72C37.5044 73.1733 37.5777 73.5933 37.7244 73.98C37.871 74.3667 38.0777 74.7 38.3444 74.98C38.6244 75.26 38.9577 75.48 39.3444 75.64C39.7444 75.7867 40.1844 75.86 40.6644 75.86C41.3577 75.86 41.9577 75.7 42.4644 75.38C42.971 75.06 43.3577 74.62 43.6244 74.06L44.8044 74.86C44.4977 75.5533 43.9844 76.1267 43.2644 76.58C42.5577 77.02 41.691 77.24 40.6644 77.24ZM40.5644 67.76C40.1244 67.76 39.7177 67.84 39.3444 68C38.971 68.16 38.6444 68.38 38.3644 68.66C38.0977 68.94 37.8844 69.2733 37.7244 69.66C37.5777 70.0333 37.5044 70.4467 37.5044 70.9V71.04H43.4244V70.82C43.4244 70.3667 43.351 69.9533 43.2044 69.58C43.071 69.2067 42.8777 68.8867 42.6244 68.62C42.3844 68.34 42.0844 68.1267 41.7244 67.98C41.3777 67.8333 40.991 67.76 40.5644 67.76ZM47.7666 75.64H50.7866V68.04H47.7666V66.68H52.3866V69.28H52.4866C52.6999 68.4667 53.0999 67.8333 53.6866 67.38C54.2866 66.9133 55.0466 66.68 55.9666 66.68H57.4066V68.28H55.4666C54.5466 68.28 53.7999 68.5467 53.2266 69.08C52.6666 69.6133 52.3866 70.3133 52.3866 71.18V75.64H56.3866V77H47.7666V75.64ZM67.3088 66.68H68.9088L63.7888 79.26C63.6688 79.5533 63.5354 79.8067 63.3888 80.02C63.2421 80.2467 63.0688 80.4267 62.8688 80.56C62.6688 80.7067 62.4288 80.8133 62.1488 80.88C61.8688 80.96 61.5354 81 61.1488 81H59.6288V79.64H62.0288L63.1888 76.8L59.0288 66.68H60.6688L62.4088 71L63.9488 74.92H64.0288L65.5688 71L67.3088 66.68ZM70.3109 66.68H71.7309L72.9109 75.6H73.0909L74.8509 66.68H76.6109L78.3709 75.6H78.5509L79.7309 66.68H81.1109L79.5309 77H77.4509L75.8109 68.36H75.6509L73.9709 77H71.8909L70.3109 66.68ZM83.4131 62.2H85.0131V68.36H85.0931C85.1998 68.1067 85.3331 67.8667 85.4931 67.64C85.6531 67.4 85.8465 67.1933 86.0731 67.02C86.3131 66.8467 86.5931 66.7067 86.9131 66.6C87.2331 66.4933 87.6065 66.44 88.0331 66.44C89.1131 66.44 89.9798 66.7867 90.6331 67.48C91.2865 68.16 91.6131 69.1267 91.6131 70.38V77H90.0131V70.66C90.0131 69.7133 89.8065 69.0133 89.3931 68.56C88.9798 68.0933 88.3731 67.86 87.5731 67.86C87.2531 67.86 86.9398 67.9 86.6331 67.98C86.3265 68.06 86.0531 68.18 85.8131 68.34C85.5731 68.5 85.3798 68.7067 85.2331 68.96C85.0865 69.2133 85.0131 69.5067 85.0131 69.84V77H83.4131V62.2ZM99.3753 77.24C98.6286 77.24 97.9553 77.1133 97.3553 76.86C96.7686 76.6067 96.262 76.2467 95.8353 75.78C95.422 75.3 95.102 74.7333 94.8753 74.08C94.6486 73.4133 94.5353 72.6733 94.5353 71.86C94.5353 71.0333 94.6486 70.2867 94.8753 69.62C95.1153 68.9533 95.442 68.3867 95.8553 67.92C96.2686 67.44 96.762 67.0733 97.3353 66.82C97.922 66.5667 98.5686 66.44 99.2753 66.44C99.9686 66.44 100.595 66.5667 101.155 66.82C101.729 67.0733 102.215 67.4267 102.615 67.88C103.015 68.32 103.322 68.8467 103.535 69.46C103.749 70.0733 103.855 70.7467 103.855 71.48V72.24H96.2153V72.72C96.2153 73.1733 96.2886 73.5933 96.4353 73.98C96.582 74.3667 96.7886 74.7 97.0553 74.98C97.3353 75.26 97.6686 75.48 98.0553 75.64C98.4553 75.7867 98.8953 75.86 99.3753 75.86C100.069 75.86 100.669 75.7 101.175 75.38C101.682 75.06 102.069 74.62 102.335 74.06L103.515 74.86C103.209 75.5533 102.695 76.1267 101.975 76.58C101.269 77.02 100.402 77.24 99.3753 77.24ZM99.2753 67.76C98.8353 67.76 98.4286 67.84 98.0553 68C97.682 68.16 97.3553 68.38 97.0753 68.66C96.8086 68.94 96.5953 69.2733 96.4353 69.66C96.2886 70.0333 96.2153 70.4467 96.2153 70.9V71.04H102.135V70.82C102.135 70.3667 102.062 69.9533 101.915 69.58C101.782 69.2067 101.589 68.8867 101.335 68.62C101.095 68.34 100.795 68.1267 100.435 67.98C100.089 67.8333 99.702 67.76 99.2753 67.76ZM106.478 75.64H109.498V68.04H106.478V66.68H111.098V69.28H111.198C111.411 68.4667 111.811 67.8333 112.398 67.38C112.998 66.9133 113.758 66.68 114.678 66.68H116.118V68.28H114.178C113.258 68.28 112.511 68.5467 111.938 69.08C111.378 69.6133 111.098 70.3133 111.098 71.18V75.64H115.098V77H106.478V75.64ZM122.86 77.24C122.113 77.24 121.44 77.1133 120.84 76.86C120.253 76.6067 119.746 76.2467 119.32 75.78C118.906 75.3 118.586 74.7333 118.36 74.08C118.133 73.4133 118.02 72.6733 118.02 71.86C118.02 71.0333 118.133 70.2867 118.36 69.62C118.6 68.9533 118.926 68.3867 119.34 67.92C119.753 67.44 120.246 67.0733 120.82 66.82C121.406 66.5667 122.053 66.44 122.76 66.44C123.453 66.44 124.08 66.5667 124.64 66.82C125.213 67.0733 125.7 67.4267 126.1 67.88C126.5 68.32 126.806 68.8467 127.02 69.46C127.233 70.0733 127.34 70.7467 127.34 71.48V72.24H119.7V72.72C119.7 73.1733 119.773 73.5933 119.92 73.98C120.066 74.3667 120.273 74.7 120.54 74.98C120.82 75.26 121.153 75.48 121.54 75.64C121.94 75.7867 122.38 75.86 122.86 75.86C123.553 75.86 124.153 75.7 124.66 75.38C125.166 75.06 125.553 74.62 125.82 74.06L127 74.86C126.693 75.5533 126.18 76.1267 125.46 76.58C124.753 77.02 123.886 77.24 122.86 77.24ZM122.76 67.76C122.32 67.76 121.913 67.84 121.54 68C121.166 68.16 120.84 68.38 120.56 68.66C120.293 68.94 120.08 69.2733 119.92 69.66C119.773 70.0333 119.7 70.4467 119.7 70.9V71.04H125.62V70.82C125.62 70.3667 125.546 69.9533 125.4 69.58C125.266 69.2067 125.073 68.8867 124.82 68.62C124.58 68.34 124.28 68.1267 123.92 67.98C123.573 67.8333 123.186 67.76 122.76 67.76ZM141.844 77V75.66H145.324V64.38H141.844V63.04H150.484V64.38H147.004V75.66H150.484V77H141.844ZM170.148 77C169.362 77 168.782 76.78 168.408 76.34C168.048 75.9 167.868 75.3333 167.868 74.64V68.04H164.428V66.68H166.988C167.335 66.68 167.575 66.6133 167.708 66.48C167.855 66.3333 167.928 66.0867 167.928 65.74V63.04H169.468V66.68H174.168V68.04H169.468V75.64H174.168V77H170.148ZM183.831 75.32H183.751C183.644 75.5733 183.511 75.82 183.351 76.06C183.191 76.2867 182.991 76.4867 182.751 76.66C182.524 76.8333 182.251 76.9733 181.931 77.08C181.611 77.1867 181.237 77.24 180.811 77.24C179.731 77.24 178.864 76.9 178.211 76.22C177.557 75.5267 177.231 74.5533 177.231 73.3V66.68H178.831V73.02C178.831 73.9667 179.037 74.6733 179.451 75.14C179.864 75.5933 180.471 75.82 181.271 75.82C181.591 75.82 181.904 75.78 182.211 75.7C182.517 75.62 182.791 75.5 183.031 75.34C183.271 75.18 183.464 74.98 183.611 74.74C183.757 74.4867 183.831 74.1867 183.831 73.84V66.68H185.431V77H183.831V75.32ZM188.673 75.64H191.693V68.04H188.673V66.68H193.293V69.28H193.393C193.606 68.4667 194.006 67.8333 194.593 67.38C195.193 66.9133 195.953 66.68 196.873 66.68H198.313V68.28H196.373C195.453 68.28 194.706 68.5467 194.133 69.08C193.573 69.6133 193.293 70.3133 193.293 71.18V75.64H197.293V77H188.673V75.64ZM200.835 77V66.68H202.435V68.36H202.515C202.622 68.1067 202.755 67.8667 202.915 67.64C203.075 67.4 203.268 67.1933 203.495 67.02C203.735 66.8467 204.015 66.7067 204.335 66.6C204.655 66.4933 205.028 66.44 205.455 66.44C206.535 66.44 207.402 66.7867 208.055 67.48C208.708 68.16 209.035 69.1267 209.035 70.38V77H207.435V70.66C207.435 69.7133 207.228 69.0133 206.815 68.56C206.402 68.0933 205.795 67.86 204.995 67.86C204.675 67.86 204.362 67.9 204.055 67.98C203.748 68.06 203.475 68.18 203.235 68.34C202.995 68.5 202.802 68.7067 202.655 68.96C202.508 69.2133 202.435 69.5067 202.435 69.84V77H200.835ZM215.757 74.28H218.337L216.037 79.82H214.697L215.757 74.28ZM236.002 66.68H237.602V68.36H237.682C238.348 67.08 239.408 66.44 240.862 66.44C242.128 66.44 243.115 66.9133 243.822 67.86C244.542 68.8067 244.902 70.1333 244.902 71.84C244.902 73.5467 244.542 74.8733 243.822 75.82C243.115 76.7667 242.128 77.24 240.862 77.24C239.408 77.24 238.348 76.6 237.682 75.32H237.602V81H236.002V66.68ZM240.242 75.82C241.175 75.82 241.895 75.54 242.402 74.98C242.922 74.4067 243.182 73.6533 243.182 72.72V70.96C243.182 70.0267 242.922 69.28 242.402 68.72C241.895 68.1467 241.175 67.86 240.242 67.86C239.882 67.86 239.542 67.9067 239.222 68C238.902 68.0933 238.622 68.2333 238.382 68.42C238.142 68.5933 237.948 68.8133 237.802 69.08C237.668 69.3333 237.602 69.6333 237.602 69.98V73.7C237.602 74.0467 237.668 74.3533 237.802 74.62C237.948 74.8733 238.142 75.0933 238.382 75.28C238.622 75.4533 238.902 75.5867 239.222 75.68C239.542 75.7733 239.882 75.82 240.242 75.82ZM252.024 77.24C251.277 77.24 250.604 77.1133 250.004 76.86C249.417 76.6067 248.91 76.2467 248.484 75.78C248.07 75.3 247.75 74.7333 247.524 74.08C247.297 73.4133 247.184 72.6733 247.184 71.86C247.184 71.0333 247.297 70.2867 247.524 69.62C247.764 68.9533 248.09 68.3867 248.504 67.92C248.917 67.44 249.41 67.0733 249.984 66.82C250.57 66.5667 251.217 66.44 251.924 66.44C252.617 66.44 253.244 66.5667 253.804 66.82C254.377 67.0733 254.864 67.4267 255.264 67.88C255.664 68.32 255.97 68.8467 256.184 69.46C256.397 70.0733 256.504 70.7467 256.504 71.48V72.24H248.864V72.72C248.864 73.1733 248.937 73.5933 249.084 73.98C249.23 74.3667 249.437 74.7 249.704 74.98C249.984 75.26 250.317 75.48 250.704 75.64C251.104 75.7867 251.544 75.86 252.024 75.86C252.717 75.86 253.317 75.7 253.824 75.38C254.33 75.06 254.717 74.62 254.984 74.06L256.164 74.86C255.857 75.5533 255.344 76.1267 254.624 76.58C253.917 77.02 253.05 77.24 252.024 77.24ZM251.924 67.76C251.484 67.76 251.077 67.84 250.704 68C250.33 68.16 250.004 68.38 249.724 68.66C249.457 68.94 249.244 69.2733 249.084 69.66C248.937 70.0333 248.864 70.4467 248.864 70.9V71.04H254.784V70.82C254.784 70.3667 254.71 69.9533 254.564 69.58C254.43 69.2067 254.237 68.8867 253.984 68.62C253.744 68.34 253.444 68.1267 253.084 67.98C252.737 67.8333 252.35 67.76 251.924 67.76ZM263.586 77.24C262.866 77.24 262.213 77.1133 261.626 76.86C261.053 76.6067 260.559 76.2467 260.146 75.78C259.746 75.3 259.439 74.7333 259.226 74.08C259.013 73.4133 258.906 72.6667 258.906 71.84C258.906 71.0267 259.013 70.2867 259.226 69.62C259.439 68.9533 259.746 68.3867 260.146 67.92C260.559 67.44 261.053 67.0733 261.626 66.82C262.213 66.5667 262.866 66.44 263.586 66.44C264.306 66.44 264.953 66.5667 265.526 66.82C266.113 67.0733 266.606 67.44 267.006 67.92C267.419 68.3867 267.733 68.9533 267.946 69.62C268.159 70.2867 268.266 71.0267 268.266 71.84C268.266 72.6667 268.159 73.4133 267.946 74.08C267.733 74.7333 267.419 75.3 267.006 75.78C266.606 76.2467 266.113 76.6067 265.526 76.86C264.953 77.1133 264.306 77.24 263.586 77.24ZM263.586 75.86C264.479 75.86 265.199 75.5933 265.746 75.06C266.293 74.5267 266.566 73.7 266.566 72.58V71.1C266.566 69.98 266.293 69.1533 265.746 68.62C265.199 68.0867 264.479 67.82 263.586 67.82C262.693 67.82 261.973 68.0867 261.426 68.62C260.879 69.1533 260.606 69.98 260.606 71.1V72.58C260.606 73.7 260.879 74.5267 261.426 75.06C261.973 75.5933 262.693 75.86 263.586 75.86ZM271.228 66.68H272.828V68.36H272.908C273.575 67.08 274.635 66.44 276.088 66.44C277.355 66.44 278.341 66.9133 279.048 67.86C279.768 68.8067 280.128 70.1333 280.128 71.84C280.128 73.5467 279.768 74.8733 279.048 75.82C278.341 76.7667 277.355 77.24 276.088 77.24C274.635 77.24 273.575 76.6 272.908 75.32H272.828V81H271.228V66.68ZM275.468 75.82C276.401 75.82 277.121 75.54 277.628 74.98C278.148 74.4067 278.408 73.6533 278.408 72.72V70.96C278.408 70.0267 278.148 69.28 277.628 68.72C277.121 68.1467 276.401 67.86 275.468 67.86C275.108 67.86 274.768 67.9067 274.448 68C274.128 68.0933 273.848 68.2333 273.608 68.42C273.368 68.5933 273.175 68.8133 273.028 69.08C272.895 69.3333 272.828 69.6333 272.828 69.98V73.7C272.828 74.0467 272.895 74.3533 273.028 74.62C273.175 74.8733 273.368 75.0933 273.608 75.28C273.848 75.4533 274.128 75.5867 274.448 75.68C274.768 75.7733 275.108 75.82 275.468 75.82ZM282.67 75.64H286.27V63.56H282.67V62.2H287.87V75.64H291.47V77H282.67V75.64ZM298.993 77.24C298.246 77.24 297.573 77.1133 296.973 76.86C296.386 76.6067 295.879 76.2467 295.452 75.78C295.039 75.3 294.719 74.7333 294.493 74.08C294.266 73.4133 294.153 72.6733 294.153 71.86C294.153 71.0333 294.266 70.2867 294.493 69.62C294.733 68.9533 295.059 68.3867 295.473 67.92C295.886 67.44 296.379 67.0733 296.953 66.82C297.539 66.5667 298.186 66.44 298.893 66.44C299.586 66.44 300.213 66.5667 300.773 66.82C301.346 67.0733 301.833 67.4267 302.233 67.88C302.633 68.32 302.939 68.8467 303.153 69.46C303.366 70.0733 303.473 70.7467 303.473 71.48V72.24H295.833V72.72C295.833 73.1733 295.906 73.5933 296.053 73.98C296.199 74.3667 296.406 74.7 296.673 74.98C296.953 75.26 297.286 75.48 297.673 75.64C298.073 75.7867 298.513 75.86 298.993 75.86C299.686 75.86 300.286 75.7 300.793 75.38C301.299 75.06 301.686 74.62 301.953 74.06L303.133 74.86C302.826 75.5533 302.313 76.1267 301.593 76.58C300.886 77.02 300.019 77.24 298.993 77.24ZM298.893 67.76C298.453 67.76 298.046 67.84 297.673 68C297.299 68.16 296.973 68.38 296.693 68.66C296.426 68.94 296.213 69.2733 296.053 69.66C295.906 70.0333 295.833 70.4467 295.833 70.9V71.04H301.753V70.82C301.753 70.3667 301.679 69.9533 301.533 69.58C301.399 69.2067 301.206 68.8867 300.953 68.62C300.713 68.34 300.413 68.1267 300.053 67.98C299.706 67.8333 299.319 67.76 298.893 67.76ZM326.197 77C325.57 77 325.124 76.84 324.857 76.52C324.59 76.2 324.424 75.8 324.357 75.32H324.257C324.03 75.92 323.664 76.3933 323.157 76.74C322.664 77.0733 321.997 77.24 321.157 77.24C320.077 77.24 319.217 76.96 318.577 76.4C317.937 75.84 317.617 75.0733 317.617 74.1C317.617 73.14 317.964 72.4 318.657 71.88C319.364 71.36 320.497 71.1 322.057 71.1H324.257V70.08C324.257 69.32 324.044 68.7533 323.617 68.38C323.19 67.9933 322.584 67.8 321.797 67.8C321.104 67.8 320.537 67.94 320.097 68.22C319.657 68.4867 319.304 68.8533 319.037 69.32L317.957 68.52C318.09 68.2533 318.27 67.9933 318.497 67.74C318.724 67.4867 319.004 67.2667 319.337 67.08C319.67 66.88 320.05 66.7267 320.477 66.62C320.904 66.5 321.377 66.44 321.897 66.44C323.11 66.44 324.07 66.7467 324.777 67.36C325.497 67.9733 325.857 68.8267 325.857 69.92V75.6H327.297V77H326.197ZM321.437 75.9C321.85 75.9 322.224 75.8533 322.557 75.76C322.904 75.6533 323.204 75.52 323.457 75.36C323.71 75.1867 323.904 74.9867 324.037 74.76C324.184 74.52 324.257 74.2667 324.257 74V72.3H322.057C321.097 72.3 320.397 72.4333 319.957 72.7C319.517 72.9667 319.297 73.3533 319.297 73.86V74.28C319.297 74.8133 319.484 75.22 319.857 75.5C320.244 75.7667 320.77 75.9 321.437 75.9ZM329.579 75.64H332.599V68.04H329.579V66.68H334.199V69.28H334.299C334.512 68.4667 334.912 67.8333 335.499 67.38C336.099 66.9133 336.859 66.68 337.779 66.68H339.219V68.28H337.279C336.359 68.28 335.612 68.5467 335.039 69.08C334.479 69.6133 334.199 70.3133 334.199 71.18V75.64H338.199V77H329.579V75.64ZM345.961 77.24C345.215 77.24 344.541 77.1133 343.941 76.86C343.355 76.6067 342.848 76.2467 342.421 75.78C342.008 75.3 341.688 74.7333 341.461 74.08C341.235 73.4133 341.121 72.6733 341.121 71.86C341.121 71.0333 341.235 70.2867 341.461 69.62C341.701 68.9533 342.028 68.3867 342.441 67.92C342.855 67.44 343.348 67.0733 343.921 66.82C344.508 66.5667 345.155 66.44 345.861 66.44C346.555 66.44 347.181 66.5667 347.741 66.82C348.315 67.0733 348.801 67.4267 349.201 67.88C349.601 68.32 349.908 68.8467 350.121 69.46C350.335 70.0733 350.441 70.7467 350.441 71.48V72.24H342.801V72.72C342.801 73.1733 342.875 73.5933 343.021 73.98C343.168 74.3667 343.375 74.7 343.641 74.98C343.921 75.26 344.255 75.48 344.641 75.64C345.041 75.7867 345.481 75.86 345.961 75.86C346.655 75.86 347.255 75.7 347.761 75.38C348.268 75.06 348.655 74.62 348.921 74.06L350.101 74.86C349.795 75.5533 349.281 76.1267 348.561 76.58C347.855 77.02 346.988 77.24 345.961 77.24ZM345.861 67.76C345.421 67.76 345.015 67.84 344.641 68C344.268 68.16 343.941 68.38 343.661 68.66C343.395 68.94 343.181 69.2733 343.021 69.66C342.875 70.0333 342.801 70.4467 342.801 70.9V71.04H348.721V70.82C348.721 70.3667 348.648 69.9533 348.501 69.58C348.368 69.2067 348.175 68.8867 347.921 68.62C347.681 68.34 347.381 68.1267 347.021 67.98C346.675 67.8333 346.288 67.76 345.861 67.76ZM369.446 77.24C368.699 77.24 368.026 77.1133 367.426 76.86C366.839 76.6067 366.332 76.2467 365.906 75.78C365.492 75.3 365.172 74.7333 364.946 74.08C364.719 73.4133 364.606 72.6733 364.606 71.86C364.606 71.0333 364.719 70.2867 364.946 69.62C365.186 68.9533 365.512 68.3867 365.926 67.92C366.339 67.44 366.832 67.0733 367.406 66.82C367.992 66.5667 368.639 66.44 369.346 66.44C370.039 66.44 370.666 66.5667 371.226 66.82C371.799 67.0733 372.286 67.4267 372.686 67.88C373.086 68.32 373.392 68.8467 373.606 69.46C373.819 70.0733 373.926 70.7467 373.926 71.48V72.24H366.286V72.72C366.286 73.1733 366.359 73.5933 366.506 73.98C366.652 74.3667 366.859 74.7 367.126 74.98C367.406 75.26 367.739 75.48 368.126 75.64C368.526 75.7867 368.966 75.86 369.446 75.86C370.139 75.86 370.739 75.7 371.246 75.38C371.752 75.06 372.139 74.62 372.406 74.06L373.586 74.86C373.279 75.5533 372.766 76.1267 372.046 76.58C371.339 77.02 370.472 77.24 369.446 77.24ZM369.346 67.76C368.906 67.76 368.499 67.84 368.126 68C367.752 68.16 367.426 68.38 367.146 68.66C366.879 68.94 366.666 69.2733 366.506 69.66C366.359 70.0333 366.286 70.4467 366.286 70.9V71.04H372.206V70.82C372.206 70.3667 372.132 69.9533 371.986 69.58C371.852 69.2067 371.659 68.8867 371.406 68.62C371.166 68.34 370.866 68.1267 370.506 67.98C370.159 67.8333 369.772 67.76 369.346 67.76ZM381.648 64.4C381.181 64.4 380.854 64.3067 380.668 64.12C380.481 63.92 380.388 63.6733 380.388 63.38V63.06C380.388 62.7667 380.481 62.5267 380.668 62.34C380.854 62.14 381.181 62.04 381.648 62.04C382.114 62.04 382.441 62.14 382.628 62.34C382.814 62.5267 382.908 62.7667 382.908 63.06V63.38C382.908 63.6733 382.814 63.92 382.628 64.12C382.441 64.3067 382.114 64.4 381.648 64.4ZM377.128 75.64H380.848V68.04H377.128V66.68H382.448V75.64H385.928V77H377.128V75.64ZM393.25 77C392.463 77 391.883 76.78 391.51 76.34C391.15 75.9 390.97 75.3333 390.97 74.64V68.04H387.53V66.68H390.09C390.437 66.68 390.677 66.6133 390.81 66.48C390.957 66.3333 391.03 66.0867 391.03 65.74V63.04H392.57V66.68H397.27V68.04H392.57V75.64H397.27V77H393.25ZM400.452 62.2H402.052V68.36H402.132C402.239 68.1067 402.372 67.8667 402.532 67.64C402.692 67.4 402.886 67.1933 403.112 67.02C403.352 66.8467 403.632 66.7067 403.952 66.6C404.272 66.4933 404.646 66.44 405.072 66.44C406.152 66.44 407.019 66.7867 407.672 67.48C408.326 68.16 408.652 69.1267 408.652 70.38V77H407.052V70.66C407.052 69.7133 406.846 69.0133 406.432 68.56C406.019 68.0933 405.412 67.86 404.612 67.86C404.292 67.86 403.979 67.9 403.672 67.98C403.366 68.06 403.092 68.18 402.852 68.34C402.612 68.5 402.419 68.7067 402.272 68.96C402.126 69.2133 402.052 69.5067 402.052 69.84V77H400.452V62.2ZM416.414 77.24C415.668 77.24 414.994 77.1133 414.394 76.86C413.808 76.6067 413.301 76.2467 412.874 75.78C412.461 75.3 412.141 74.7333 411.914 74.08C411.688 73.4133 411.574 72.6733 411.574 71.86C411.574 71.0333 411.688 70.2867 411.914 69.62C412.154 68.9533 412.481 68.3867 412.894 67.92C413.308 67.44 413.801 67.0733 414.374 66.82C414.961 66.5667 415.608 66.44 416.314 66.44C417.008 66.44 417.634 66.5667 418.194 66.82C418.768 67.0733 419.254 67.4267 419.654 67.88C420.054 68.32 420.361 68.8467 420.574 69.46C420.788 70.0733 420.894 70.7467 420.894 71.48V72.24H413.254V72.72C413.254 73.1733 413.328 73.5933 413.474 73.98C413.621 74.3667 413.828 74.7 414.094 74.98C414.374 75.26 414.708 75.48 415.094 75.64C415.494 75.7867 415.934 75.86 416.414 75.86C417.108 75.86 417.708 75.7 418.214 75.38C418.721 75.06 419.108 74.62 419.374 74.06L420.554 74.86C420.248 75.5533 419.734 76.1267 419.014 76.58C418.308 77.02 417.441 77.24 416.414 77.24ZM416.314 67.76C415.874 67.76 415.468 67.84 415.094 68C414.721 68.16 414.394 68.38 414.114 68.66C413.848 68.94 413.634 69.2733 413.474 69.66C413.328 70.0333 413.254 70.4467 413.254 70.9V71.04H419.174V70.82C419.174 70.3667 419.101 69.9533 418.954 69.58C418.821 69.2067 418.628 68.8867 418.374 68.62C418.134 68.34 417.834 68.1267 417.474 67.98C417.128 67.8333 416.741 67.76 416.314 67.76ZM423.517 75.64H426.537V68.04H423.517V66.68H428.137V69.28H428.237C428.45 68.4667 428.85 67.8333 429.437 67.38C430.037 66.9133 430.797 66.68 431.717 66.68H433.157V68.28H431.217C430.297 68.28 429.55 68.5467 428.977 69.08C428.417 69.6133 428.137 70.3133 428.137 71.18V75.64H432.137V77H423.517V75.64ZM447.361 66.68H448.961V68.36H449.041C449.708 67.08 450.768 66.44 452.221 66.44C453.488 66.44 454.474 66.9133 455.181 67.86C455.901 68.8067 456.261 70.1333 456.261 71.84C456.261 73.5467 455.901 74.8733 455.181 75.82C454.474 76.7667 453.488 77.24 452.221 77.24C450.768 77.24 449.708 76.6 449.041 75.32H448.961V81H447.361V66.68ZM451.601 75.82C452.534 75.82 453.254 75.54 453.761 74.98C454.281 74.4067 454.541 73.6533 454.541 72.72V70.96C454.541 70.0267 454.281 69.28 453.761 68.72C453.254 68.1467 452.534 67.86 451.601 67.86C451.241 67.86 450.901 67.9067 450.581 68C450.261 68.0933 449.981 68.2333 449.741 68.42C449.501 68.5933 449.308 68.8133 449.161 69.08C449.028 69.3333 448.961 69.6333 448.961 69.98V73.7C448.961 74.0467 449.028 74.3533 449.161 74.62C449.308 74.8733 449.501 75.0933 449.741 75.28C449.981 75.4533 450.261 75.5867 450.581 75.68C450.901 75.7733 451.241 75.82 451.601 75.82ZM458.743 75.64H461.763V68.04H458.743V66.68H463.363V69.28H463.463C463.676 68.4667 464.076 67.8333 464.663 67.38C465.263 66.9133 466.023 66.68 466.943 66.68H468.383V68.28H466.443C465.523 68.28 464.776 68.5467 464.203 69.08C463.643 69.6133 463.363 70.3133 463.363 71.18V75.64H467.363V77H458.743V75.64ZM478.845 77C478.219 77 477.772 76.84 477.505 76.52C477.239 76.2 477.072 75.8 477.005 75.32H476.905C476.679 75.92 476.312 76.3933 475.805 76.74C475.312 77.0733 474.645 77.24 473.805 77.24C472.725 77.24 471.865 76.96 471.225 76.4C470.585 75.84 470.265 75.0733 470.265 74.1C470.265 73.14 470.612 72.4 471.305 71.88C472.012 71.36 473.145 71.1 474.705 71.1H476.905V70.08C476.905 69.32 476.692 68.7533 476.265 68.38C475.839 67.9933 475.232 67.8 474.445 67.8C473.752 67.8 473.185 67.94 472.745 68.22C472.305 68.4867 471.952 68.8533 471.685 69.32L470.605 68.52C470.739 68.2533 470.919 67.9933 471.145 67.74C471.372 67.4867 471.652 67.2667 471.985 67.08C472.319 66.88 472.699 66.7267 473.125 66.62C473.552 66.5 474.025 66.44 474.545 66.44C475.759 66.44 476.719 66.7467 477.425 67.36C478.145 67.9733 478.505 68.8267 478.505 69.92V75.6H479.945V77H478.845ZM474.085 75.9C474.499 75.9 474.872 75.8533 475.205 75.76C475.552 75.6533 475.852 75.52 476.105 75.36C476.359 75.1867 476.552 74.9867 476.685 74.76C476.832 74.52 476.905 74.2667 476.905 74V72.3H474.705C473.745 72.3 473.045 72.4333 472.605 72.7C472.165 72.9667 471.945 73.3533 471.945 73.86V74.28C471.945 74.8133 472.132 75.22 472.505 75.5C472.892 75.7667 473.419 75.9 474.085 75.9ZM487.328 64.4C486.861 64.4 486.534 64.3067 486.348 64.12C486.161 63.92 486.068 63.6733 486.068 63.38V63.06C486.068 62.7667 486.161 62.5267 486.348 62.34C486.534 62.14 486.861 62.04 487.328 62.04C487.794 62.04 488.121 62.14 488.308 62.34C488.494 62.5267 488.588 62.7667 488.588 63.06V63.38C488.588 63.6733 488.494 63.92 488.308 64.12C488.121 64.3067 487.794 64.4 487.328 64.4ZM482.808 75.64H486.528V68.04H482.808V66.68H488.128V75.64H491.608V77H482.808V75.64ZM498.55 77.24C497.47 77.24 496.536 77.06 495.75 76.7C494.976 76.3267 494.316 75.8333 493.77 75.22L494.85 74.28C495.343 74.8 495.883 75.2 496.47 75.48C497.056 75.76 497.763 75.9 498.59 75.9C499.39 75.9 500.043 75.76 500.55 75.48C501.07 75.1867 501.33 74.7333 501.33 74.12C501.33 73.8533 501.276 73.6333 501.17 73.46C501.076 73.2733 500.943 73.1267 500.77 73.02C500.596 72.9133 500.403 72.8333 500.19 72.78C499.976 72.7133 499.75 72.66 499.51 72.62L497.89 72.38C497.53 72.3267 497.136 72.2533 496.71 72.16C496.296 72.0667 495.916 71.92 495.57 71.72C495.223 71.5067 494.93 71.2267 494.69 70.88C494.463 70.5333 494.35 70.08 494.35 69.52C494.35 69 494.45 68.5533 494.65 68.18C494.863 67.7933 495.156 67.4733 495.53 67.22C495.903 66.9533 496.343 66.76 496.85 66.64C497.356 66.5067 497.91 66.44 498.51 66.44C499.443 66.44 500.25 66.5867 500.93 66.88C501.623 67.1733 502.216 67.58 502.71 68.1L501.67 69.08C501.55 68.9333 501.396 68.7867 501.21 68.64C501.036 68.48 500.816 68.34 500.55 68.22C500.296 68.0867 499.996 67.98 499.65 67.9C499.303 67.82 498.903 67.78 498.45 67.78C497.636 67.78 497.01 67.92 496.57 68.2C496.143 68.48 495.93 68.8867 495.93 69.42C495.93 69.6867 495.976 69.9133 496.07 70.1C496.176 70.2733 496.316 70.4133 496.49 70.52C496.663 70.6267 496.856 70.7133 497.07 70.78C497.296 70.8333 497.523 70.88 497.75 70.92L499.37 71.16C499.743 71.2133 500.136 71.2867 500.55 71.38C500.963 71.4733 501.343 71.6267 501.69 71.84C502.036 72.04 502.323 72.3133 502.55 72.66C502.79 73.0067 502.91 73.46 502.91 74.02C502.91 75.0467 502.51 75.84 501.71 76.4C500.923 76.96 499.87 77.24 498.55 77.24ZM510.812 64.4C510.345 64.4 510.019 64.3067 509.832 64.12C509.645 63.92 509.552 63.6733 509.552 63.38V63.06C509.552 62.7667 509.645 62.5267 509.832 62.34C510.019 62.14 510.345 62.04 510.812 62.04C511.279 62.04 511.605 62.14 511.792 62.34C511.979 62.5267 512.072 62.7667 512.072 63.06V63.38C512.072 63.6733 511.979 63.92 511.792 64.12C511.605 64.3067 511.279 64.4 510.812 64.4ZM506.292 75.64H510.012V68.04H506.292V66.68H511.612V75.64H515.092V77H506.292V75.64ZM517.874 77V66.68H519.474V68.36H519.554C519.661 68.1067 519.794 67.8667 519.954 67.64C520.114 67.4 520.307 67.1933 520.534 67.02C520.774 66.8467 521.054 66.7067 521.374 66.6C521.694 66.4933 522.067 66.44 522.494 66.44C523.574 66.44 524.441 66.7867 525.094 67.48C525.747 68.16 526.074 69.1267 526.074 70.38V77H524.474V70.66C524.474 69.7133 524.267 69.0133 523.854 68.56C523.441 68.0933 522.834 67.86 522.034 67.86C521.714 67.86 521.401 67.9 521.094 67.98C520.787 68.06 520.514 68.18 520.274 68.34C520.034 68.5 519.841 68.7067 519.694 68.96C519.547 69.2133 519.474 69.5067 519.474 69.84V77H517.874ZM538.876 78.18C538.876 79.22 538.443 79.9867 537.576 80.48C536.71 80.9867 535.41 81.24 533.676 81.24C532.01 81.24 530.81 81.02 530.076 80.58C529.356 80.14 528.996 79.5067 528.996 78.68C528.996 78.12 529.143 77.6867 529.436 77.38C529.73 77.0733 530.143 76.8467 530.676 76.7V76.46C530.383 76.3133 530.156 76.1267 529.996 75.9C529.836 75.6733 529.756 75.3867 529.756 75.04C529.756 74.5067 529.93 74.1067 530.276 73.84C530.636 73.5733 531.083 73.3733 531.616 73.24V73.16C530.976 72.88 530.476 72.4667 530.116 71.92C529.77 71.3733 529.596 70.7333 529.596 70C529.596 69.48 529.69 69 529.876 68.56C530.063 68.12 530.33 67.7467 530.676 67.44C531.036 67.12 531.463 66.8733 531.956 66.7C532.45 66.5267 532.996 66.44 533.596 66.44C534.37 66.44 535.05 66.58 535.636 66.86V66.68C535.636 66.28 535.73 65.9467 535.916 65.68C536.103 65.4133 536.423 65.28 536.876 65.28H538.776V66.68H536.456V67.38C536.83 67.7 537.116 68.08 537.316 68.52C537.516 68.96 537.616 69.4533 537.616 70C537.616 70.52 537.516 71 537.316 71.44C537.13 71.88 536.863 72.26 536.516 72.58C536.17 72.8867 535.743 73.1267 535.236 73.3C534.743 73.4733 534.196 73.56 533.596 73.56C533.423 73.56 533.256 73.5533 533.096 73.54C532.936 73.5267 532.776 73.5067 532.616 73.48C532.456 73.5067 532.29 73.5533 532.116 73.62C531.943 73.6733 531.783 73.7533 531.636 73.86C531.49 73.9533 531.37 74.0667 531.276 74.2C531.183 74.3333 531.136 74.4867 531.136 74.66C531.136 74.9667 531.29 75.1733 531.596 75.28C531.903 75.3733 532.303 75.42 532.796 75.42H535.076C536.41 75.42 537.376 75.6733 537.976 76.18C538.576 76.6733 538.876 77.34 538.876 78.18ZM537.376 78.26C537.376 77.8467 537.21 77.5133 536.876 77.26C536.543 77.02 535.963 76.9 535.136 76.9H531.556C530.863 77.18 530.516 77.6467 530.516 78.3C530.516 78.7533 530.696 79.14 531.056 79.46C531.416 79.7933 532.016 79.96 532.856 79.96H534.416C535.35 79.96 536.076 79.8133 536.596 79.52C537.116 79.24 537.376 78.82 537.376 78.26ZM533.596 72.32C534.396 72.32 534.983 72.1333 535.356 71.76C535.743 71.3867 535.936 70.8933 535.936 70.28V69.7C535.936 69.0867 535.743 68.6 535.356 68.24C534.983 67.8667 534.396 67.68 533.596 67.68C532.796 67.68 532.21 67.8667 531.836 68.24C531.463 68.6 531.276 69.0867 531.276 69.7V70.28C531.276 70.8933 531.463 71.3867 531.836 71.76C532.21 72.1333 532.796 72.32 533.596 72.32ZM560.761 77L559.581 73.02H554.681L553.501 77H551.761L556.041 63.04H558.261L562.541 77H560.761ZM557.221 64.82H557.041L555.081 71.56H559.181L557.221 64.82ZM564.563 77V75.66H568.043V64.38H564.563V63.04H573.203V64.38H569.723V75.66H573.203V77H564.563ZM587.967 75.64H591.567V63.56H587.967V62.2H593.167V75.64H596.767V77H587.967V75.64ZM604.749 64.4C604.283 64.4 603.956 64.3067 603.769 64.12C603.583 63.92 603.489 63.6733 603.489 63.38V63.06C603.489 62.7667 603.583 62.5267 603.769 62.34C603.956 62.14 604.283 62.04 604.749 62.04C605.216 62.04 605.543 62.14 605.729 62.34C605.916 62.5267 606.009 62.7667 606.009 63.06V63.38C606.009 63.6733 605.916 63.92 605.729 64.12C605.543 64.3067 605.216 64.4 604.749 64.4ZM600.229 75.64H603.949V68.04H600.229V66.68H605.549V75.64H609.029V77H600.229V75.64ZM611.952 62.2H613.552V71.54H613.632L615.432 69.84L618.872 66.68H620.832L616.552 70.72L621.332 77H619.352L615.332 71.64L613.552 73.26V77H611.952V62.2ZM627.774 77.24C627.027 77.24 626.354 77.1133 625.754 76.86C625.167 76.6067 624.66 76.2467 624.234 75.78C623.82 75.3 623.5 74.7333 623.274 74.08C623.047 73.4133 622.934 72.6733 622.934 71.86C622.934 71.0333 623.047 70.2867 623.274 69.62C623.514 68.9533 623.84 68.3867 624.254 67.92C624.667 67.44 625.16 67.0733 625.734 66.82C626.32 66.5667 626.967 66.44 627.674 66.44C628.367 66.44 628.994 66.5667 629.554 66.82C630.127 67.0733 630.614 67.4267 631.014 67.88C631.414 68.32 631.72 68.8467 631.934 69.46C632.147 70.0733 632.254 70.7467 632.254 71.48V72.24H624.614V72.72C624.614 73.1733 624.687 73.5933 624.834 73.98C624.98 74.3667 625.187 74.7 625.454 74.98C625.734 75.26 626.067 75.48 626.454 75.64C626.854 75.7867 627.294 75.86 627.774 75.86C628.467 75.86 629.067 75.7 629.574 75.38C630.08 75.06 630.467 74.62 630.734 74.06L631.914 74.86C631.607 75.5533 631.094 76.1267 630.374 76.58C629.667 77.02 628.8 77.24 627.774 77.24ZM627.674 67.76C627.234 67.76 626.827 67.84 626.454 68C626.08 68.16 625.754 68.38 625.474 68.66C625.207 68.94 624.994 69.2733 624.834 69.66C624.687 70.0333 624.614 70.4467 624.614 70.9V71.04H630.534V70.82C630.534 70.3667 630.46 69.9533 630.314 69.58C630.18 69.2067 629.987 68.8867 629.734 68.62C629.494 68.34 629.194 68.1267 628.834 67.98C628.487 67.8333 628.1 67.76 627.674 67.76ZM656.298 78.18C656.298 79.22 655.865 79.9867 654.998 80.48C654.131 80.9867 652.831 81.24 651.098 81.24C649.431 81.24 648.231 81.02 647.498 80.58C646.778 80.14 646.418 79.5067 646.418 78.68C646.418 78.12 646.565 77.6867 646.858 77.38C647.151 77.0733 647.565 76.8467 648.098 76.7V76.46C647.805 76.3133 647.578 76.1267 647.418 75.9C647.258 75.6733 647.178 75.3867 647.178 75.04C647.178 74.5067 647.351 74.1067 647.698 73.84C648.058 73.5733 648.505 73.3733 649.038 73.24V73.16C648.398 72.88 647.898 72.4667 647.538 71.92C647.191 71.3733 647.018 70.7333 647.018 70C647.018 69.48 647.111 69 647.298 68.56C647.485 68.12 647.751 67.7467 648.098 67.44C648.458 67.12 648.885 66.8733 649.378 66.7C649.871 66.5267 650.418 66.44 651.018 66.44C651.791 66.44 652.471 66.58 653.058 66.86V66.68C653.058 66.28 653.151 65.9467 653.338 65.68C653.525 65.4133 653.845 65.28 654.298 65.28H656.198V66.68H653.878V67.38C654.251 67.7 654.538 68.08 654.738 68.52C654.938 68.96 655.038 69.4533 655.038 70C655.038 70.52 654.938 71 654.738 71.44C654.551 71.88 654.285 72.26 653.938 72.58C653.591 72.8867 653.165 73.1267 652.658 73.3C652.165 73.4733 651.618 73.56 651.018 73.56C650.845 73.56 650.678 73.5533 650.518 73.54C650.358 73.5267 650.198 73.5067 650.038 73.48C649.878 73.5067 649.711 73.5533 649.538 73.62C649.365 73.6733 649.205 73.7533 649.058 73.86C648.911 73.9533 648.791 74.0667 648.698 74.2C648.605 74.3333 648.558 74.4867 648.558 74.66C648.558 74.9667 648.711 75.1733 649.018 75.28C649.325 75.3733 649.725 75.42 650.218 75.42H652.498C653.831 75.42 654.798 75.6733 655.398 76.18C655.998 76.6733 656.298 77.34 656.298 78.18ZM654.798 78.26C654.798 77.8467 654.631 77.5133 654.298 77.26C653.965 77.02 653.385 76.9 652.558 76.9H648.978C648.285 77.18 647.938 77.6467 647.938 78.3C647.938 78.7533 648.118 79.14 648.478 79.46C648.838 79.7933 649.438 79.96 650.278 79.96H651.838C652.771 79.96 653.498 79.8133 654.018 79.52C654.538 79.24 654.798 78.82 654.798 78.26ZM651.018 72.32C651.818 72.32 652.405 72.1333 652.778 71.76C653.165 71.3867 653.358 70.8933 653.358 70.28V69.7C653.358 69.0867 653.165 68.6 652.778 68.24C652.405 67.8667 651.818 67.68 651.018 67.68C650.218 67.68 649.631 67.8667 649.258 68.24C648.885 68.6 648.698 69.0867 648.698 69.7V70.28C648.698 70.8933 648.885 71.3867 649.258 71.76C649.631 72.1333 650.218 72.32 651.018 72.32ZM662.82 77.24C662.1 77.24 661.447 77.1133 660.86 76.86C660.287 76.6067 659.794 76.2467 659.38 75.78C658.98 75.3 658.674 74.7333 658.46 74.08C658.247 73.4133 658.14 72.6667 658.14 71.84C658.14 71.0267 658.247 70.2867 658.46 69.62C658.674 68.9533 658.98 68.3867 659.38 67.92C659.794 67.44 660.287 67.0733 660.86 66.82C661.447 66.5667 662.1 66.44 662.82 66.44C663.54 66.44 664.187 66.5667 664.76 66.82C665.347 67.0733 665.84 67.44 666.24 67.92C666.654 68.3867 666.967 68.9533 667.18 69.62C667.394 70.2867 667.5 71.0267 667.5 71.84C667.5 72.6667 667.394 73.4133 667.18 74.08C666.967 74.7333 666.654 75.3 666.24 75.78C665.84 76.2467 665.347 76.6067 664.76 76.86C664.187 77.1133 663.54 77.24 662.82 77.24ZM662.82 75.86C663.714 75.86 664.434 75.5933 664.98 75.06C665.527 74.5267 665.8 73.7 665.8 72.58V71.1C665.8 69.98 665.527 69.1533 664.98 68.62C664.434 68.0867 663.714 67.82 662.82 67.82C661.927 67.82 661.207 68.0867 660.66 68.62C660.114 69.1533 659.84 69.98 659.84 71.1V72.58C659.84 73.7 660.114 74.5267 660.66 75.06C661.207 75.5933 661.927 75.86 662.82 75.86ZM677.063 75.32H676.983C676.316 76.6 675.256 77.24 673.803 77.24C672.536 77.24 671.543 76.7667 670.823 75.82C670.116 74.8733 669.763 73.5467 669.763 71.84C669.763 70.1333 670.116 68.8067 670.823 67.86C671.543 66.9133 672.536 66.44 673.803 66.44C675.256 66.44 676.316 67.08 676.983 68.36H677.063V62.2H678.662V77H677.063V75.32ZM674.423 75.82C674.783 75.82 675.123 75.7733 675.443 75.68C675.763 75.5867 676.043 75.4533 676.283 75.28C676.523 75.0933 676.709 74.8733 676.843 74.62C676.989 74.3533 677.063 74.0467 677.063 73.7V69.98C677.063 69.6333 676.989 69.3333 676.843 69.08C676.709 68.8133 676.523 68.5933 676.283 68.42C676.043 68.2333 675.763 68.0933 675.443 68C675.123 67.9067 674.783 67.86 674.423 67.86C673.489 67.86 672.763 68.1467 672.243 68.72C671.736 69.28 671.483 70.0267 671.483 70.96V72.72C671.483 73.6533 671.736 74.4067 672.243 74.98C672.763 75.54 673.489 75.82 674.423 75.82ZM686.425 77.24C685.345 77.24 684.411 77.06 683.625 76.7C682.851 76.3267 682.191 75.8333 681.645 75.22L682.725 74.28C683.218 74.8 683.758 75.2 684.345 75.48C684.931 75.76 685.638 75.9 686.465 75.9C687.265 75.9 687.918 75.76 688.425 75.48C688.945 75.1867 689.205 74.7333 689.205 74.12C689.205 73.8533 689.151 73.6333 689.045 73.46C688.951 73.2733 688.818 73.1267 688.645 73.02C688.471 72.9133 688.278 72.8333 688.065 72.78C687.851 72.7133 687.625 72.66 687.385 72.62L685.765 72.38C685.405 72.3267 685.011 72.2533 684.585 72.16C684.171 72.0667 683.791 71.92 683.445 71.72C683.098 71.5067 682.805 71.2267 682.565 70.88C682.338 70.5333 682.225 70.08 682.225 69.52C682.225 69 682.325 68.5533 682.525 68.18C682.738 67.7933 683.031 67.4733 683.405 67.22C683.778 66.9533 684.218 66.76 684.725 66.64C685.231 66.5067 685.785 66.44 686.385 66.44C687.318 66.44 688.125 66.5867 688.805 66.88C689.498 67.1733 690.091 67.58 690.585 68.1L689.545 69.08C689.425 68.9333 689.271 68.7867 689.085 68.64C688.911 68.48 688.691 68.34 688.425 68.22C688.171 68.0867 687.871 67.98 687.525 67.9C687.178 67.82 686.778 67.78 686.325 67.78C685.511 67.78 684.885 67.92 684.445 68.2C684.018 68.48 683.805 68.8867 683.805 69.42C683.805 69.6867 683.851 69.9133 683.945 70.1C684.051 70.2733 684.191 70.4133 684.365 70.52C684.538 70.6267 684.731 70.7133 684.945 70.78C685.171 70.8333 685.398 70.88 685.625 70.92L687.245 71.16C687.618 71.2133 688.011 71.2867 688.425 71.38C688.838 71.4733 689.218 71.6267 689.565 71.84C689.911 72.04 690.198 72.3133 690.425 72.66C690.665 73.0067 690.785 73.46 690.785 74.02C690.785 75.0467 690.385 75.84 689.585 76.4C688.798 76.96 687.745 77.24 686.425 77.24ZM692.047 71.66V70.18H704.047V71.66H692.047ZM17 107.24C16.28 107.24 15.6267 107.113 15.04 106.86C14.4667 106.607 13.9733 106.247 13.56 105.78C13.16 105.3 12.8533 104.733 12.64 104.08C12.4267 103.413 12.32 102.667 12.32 101.84C12.32 101.027 12.4267 100.287 12.64 99.62C12.8533 98.9533 13.16 98.3867 13.56 97.92C13.9733 97.44 14.4667 97.0733 15.04 96.82C15.6267 96.5667 16.28 96.44 17 96.44C17.72 96.44 18.3667 96.5667 18.94 96.82C19.5267 97.0733 20.02 97.44 20.42 97.92C20.8333 98.3867 21.1467 98.9533 21.36 99.62C21.5733 100.287 21.68 101.027 21.68 101.84C21.68 102.667 21.5733 103.413 21.36 104.08C21.1467 104.733 20.8333 105.3 20.42 105.78C20.02 106.247 19.5267 106.607 18.94 106.86C18.3667 107.113 17.72 107.24 17 107.24ZM17 105.86C17.8933 105.86 18.6133 105.593 19.16 105.06C19.7067 104.527 19.98 103.7 19.98 102.58V101.1C19.98 99.98 19.7067 99.1533 19.16 98.62C18.6133 98.0867 17.8933 97.82 17 97.82C16.1067 97.82 15.3867 98.0867 14.84 98.62C14.2933 99.1533 14.02 99.98 14.02 101.1V102.58C14.02 103.7 14.2933 104.527 14.84 105.06C15.3867 105.593 16.1067 105.86 17 105.86ZM24.2822 105.64H27.3022V98.04H24.2822V96.68H28.9022V99.28H29.0022C29.2155 98.4667 29.6155 97.8333 30.2022 97.38C30.8022 96.9133 31.5622 96.68 32.4822 96.68H33.9222V98.28H31.9822C31.0622 98.28 30.3155 98.5467 29.7422 99.08C29.1822 99.6133 28.9022 100.313 28.9022 101.18V105.64H32.9022V107H24.2822V105.64ZM47.8866 105.64H51.3666V98.04H47.6866V96.68H51.3666V94.56C51.3666 93.8667 51.5466 93.3 51.9066 92.86C52.2799 92.42 52.8599 92.2 53.6466 92.2H57.1066V93.56H52.9666V96.68H57.1066V98.04H52.9666V105.64H56.6466V107H47.8866V105.64ZM64.1488 107.24C63.4021 107.24 62.7288 107.113 62.1288 106.86C61.5421 106.607 61.0354 106.247 60.6087 105.78C60.1954 105.3 59.8754 104.733 59.6488 104.08C59.4221 103.413 59.3088 102.673 59.3088 101.86C59.3088 101.033 59.4221 100.287 59.6488 99.62C59.8888 98.9533 60.2154 98.3867 60.6288 97.92C61.0421 97.44 61.5354 97.0733 62.1088 96.82C62.6954 96.5667 63.3421 96.44 64.0488 96.44C64.7421 96.44 65.3688 96.5667 65.9288 96.82C66.5021 97.0733 66.9888 97.4267 67.3888 97.88C67.7888 98.32 68.0954 98.8467 68.3088 99.46C68.5221 100.073 68.6288 100.747 68.6288 101.48V102.24H60.9888V102.72C60.9888 103.173 61.0621 103.593 61.2088 103.98C61.3554 104.367 61.5621 104.7 61.8288 104.98C62.1088 105.26 62.4421 105.48 62.8288 105.64C63.2288 105.787 63.6688 105.86 64.1488 105.86C64.8421 105.86 65.4421 105.7 65.9488 105.38C66.4554 105.06 66.8421 104.62 67.1088 104.06L68.2888 104.86C67.9821 105.553 67.4688 106.127 66.7488 106.58C66.0421 107.02 65.1754 107.24 64.1488 107.24ZM64.0488 97.76C63.6088 97.76 63.2021 97.84 62.8288 98C62.4554 98.16 62.1288 98.38 61.8488 98.66C61.5821 98.94 61.3688 99.2733 61.2088 99.66C61.0621 100.033 60.9888 100.447 60.9888 100.9V101.04H66.9088V100.82C66.9088 100.367 66.8354 99.9533 66.6888 99.58C66.5554 99.2067 66.3621 98.8867 66.1088 98.62C65.8688 98.34 65.5688 98.1267 65.2088 97.98C64.8621 97.8333 64.4754 97.76 64.0488 97.76ZM79.6109 107C78.9843 107 78.5376 106.84 78.2709 106.52C78.0043 106.2 77.8376 105.8 77.7709 105.32H77.6709C77.4443 105.92 77.0776 106.393 76.5709 106.74C76.0776 107.073 75.4109 107.24 74.5709 107.24C73.4909 107.24 72.6309 106.96 71.9909 106.4C71.3509 105.84 71.0309 105.073 71.0309 104.1C71.0309 103.14 71.3776 102.4 72.0709 101.88C72.7776 101.36 73.9109 101.1 75.4709 101.1H77.6709V100.08C77.6709 99.32 77.4576 98.7533 77.0309 98.38C76.6043 97.9933 75.9976 97.8 75.2109 97.8C74.5176 97.8 73.9509 97.94 73.5109 98.22C73.0709 98.4867 72.7176 98.8533 72.4509 99.32L71.3709 98.52C71.5043 98.2533 71.6843 97.9933 71.9109 97.74C72.1376 97.4867 72.4176 97.2667 72.7509 97.08C73.0843 96.88 73.4643 96.7267 73.8909 96.62C74.3176 96.5 74.7909 96.44 75.3109 96.44C76.5243 96.44 77.4843 96.7467 78.1909 97.36C78.9109 97.9733 79.2709 98.8267 79.2709 99.92V105.6H80.7109V107H79.6109ZM74.8509 105.9C75.2643 105.9 75.6376 105.853 75.9709 105.76C76.3176 105.653 76.6176 105.52 76.8709 105.36C77.1243 105.187 77.3176 104.987 77.4509 104.76C77.5976 104.52 77.6709 104.267 77.6709 104V102.3H75.4709C74.5109 102.3 73.8109 102.433 73.3709 102.7C72.9309 102.967 72.7109 103.353 72.7109 103.86V104.28C72.7109 104.813 72.8976 105.22 73.2709 105.5C73.6576 105.767 74.1843 105.9 74.8509 105.9ZM82.9931 105.64H86.0131V98.04H82.9931V96.68H87.6131V99.28H87.7131C87.9265 98.4667 88.3265 97.8333 88.9131 97.38C89.5131 96.9133 90.2731 96.68 91.1931 96.68H92.6331V98.28H90.6931C89.7731 98.28 89.0265 98.5467 88.4531 99.08C87.8931 99.6133 87.6131 100.313 87.6131 101.18V105.64H91.6131V107H82.9931V105.64ZM99.8353 94.4C99.3686 94.4 99.042 94.3067 98.8553 94.12C98.6686 93.92 98.5753 93.6733 98.5753 93.38V93.06C98.5753 92.7667 98.6686 92.5267 98.8553 92.34C99.042 92.14 99.3686 92.04 99.8353 92.04C100.302 92.04 100.629 92.14 100.815 92.34C101.002 92.5267 101.095 92.7667 101.095 93.06V93.38C101.095 93.6733 101.002 93.92 100.815 94.12C100.629 94.3067 100.302 94.4 99.8353 94.4ZM95.3153 105.64H99.0353V98.04H95.3153V96.68H100.635V105.64H104.115V107H95.3153V105.64ZM106.898 107V96.68H108.498V98.36H108.578C108.684 98.1067 108.818 97.8667 108.978 97.64C109.138 97.4 109.331 97.1933 109.558 97.02C109.798 96.8467 110.078 96.7067 110.398 96.6C110.718 96.4933 111.091 96.44 111.518 96.44C112.598 96.44 113.464 96.7867 114.118 97.48C114.771 98.16 115.098 99.1267 115.098 100.38V107H113.498V100.66C113.498 99.7133 113.291 99.0133 112.878 98.56C112.464 98.0933 111.858 97.86 111.058 97.86C110.738 97.86 110.424 97.9 110.118 97.98C109.811 98.06 109.538 98.18 109.298 98.34C109.058 98.5 108.864 98.7067 108.718 98.96C108.571 99.2133 108.498 99.5067 108.498 99.84V107H106.898ZM127.9 108.18C127.9 109.22 127.466 109.987 126.6 110.48C125.733 110.987 124.433 111.24 122.7 111.24C121.033 111.24 119.833 111.02 119.1 110.58C118.38 110.14 118.02 109.507 118.02 108.68C118.02 108.12 118.166 107.687 118.46 107.38C118.753 107.073 119.166 106.847 119.7 106.7V106.46C119.406 106.313 119.18 106.127 119.02 105.9C118.86 105.673 118.78 105.387 118.78 105.04C118.78 104.507 118.953 104.107 119.3 103.84C119.66 103.573 120.106 103.373 120.64 103.24V103.16C120 102.88 119.5 102.467 119.14 101.92C118.793 101.373 118.62 100.733 118.62 100C118.62 99.48 118.713 99 118.9 98.56C119.086 98.12 119.353 97.7467 119.7 97.44C120.06 97.12 120.486 96.8733 120.98 96.7C121.473 96.5267 122.02 96.44 122.62 96.44C123.393 96.44 124.073 96.58 124.66 96.86V96.68C124.66 96.28 124.753 95.9467 124.94 95.68C125.126 95.4133 125.446 95.28 125.9 95.28H127.8V96.68H125.48V97.38C125.853 97.7 126.14 98.08 126.34 98.52C126.54 98.96 126.64 99.4533 126.64 100C126.64 100.52 126.54 101 126.34 101.44C126.153 101.88 125.886 102.26 125.54 102.58C125.193 102.887 124.766 103.127 124.26 103.3C123.766 103.473 123.22 103.56 122.62 103.56C122.446 103.56 122.28 103.553 122.12 103.54C121.96 103.527 121.8 103.507 121.64 103.48C121.48 103.507 121.313 103.553 121.14 103.62C120.966 103.673 120.806 103.753 120.66 103.86C120.513 103.953 120.393 104.067 120.3 104.2C120.206 104.333 120.16 104.487 120.16 104.66C120.16 104.967 120.313 105.173 120.62 105.28C120.926 105.373 121.326 105.42 121.82 105.42H124.1C125.433 105.42 126.4 105.673 127 106.18C127.6 106.673 127.9 107.34 127.9 108.18ZM126.4 108.26C126.4 107.847 126.233 107.513 125.9 107.26C125.566 107.02 124.986 106.9 124.16 106.9H120.58C119.886 107.18 119.54 107.647 119.54 108.3C119.54 108.753 119.72 109.14 120.08 109.46C120.44 109.793 121.04 109.96 121.88 109.96H123.44C124.373 109.96 125.1 109.813 125.62 109.52C126.14 109.24 126.4 108.82 126.4 108.26ZM122.62 102.32C123.42 102.32 124.006 102.133 124.38 101.76C124.766 101.387 124.96 100.893 124.96 100.28V99.7C124.96 99.0867 124.766 98.6 124.38 98.24C124.006 97.8667 123.42 97.68 122.62 97.68C121.82 97.68 121.233 97.8667 120.86 98.24C120.486 98.6 120.3 99.0867 120.3 99.7V100.28C120.3 100.893 120.486 101.387 120.86 101.76C121.233 102.133 121.82 102.32 122.62 102.32ZM146.804 94.4C146.337 94.4 146.011 94.3067 145.824 94.12C145.637 93.92 145.544 93.6733 145.544 93.38V93.06C145.544 92.7667 145.637 92.5267 145.824 92.34C146.011 92.14 146.337 92.04 146.804 92.04C147.271 92.04 147.597 92.14 147.784 92.34C147.971 92.5267 148.064 92.7667 148.064 93.06V93.38C148.064 93.6733 147.971 93.92 147.784 94.12C147.597 94.3067 147.271 94.4 146.804 94.4ZM142.284 105.64H146.004V98.04H142.284V96.68H147.604V105.64H151.084V107H142.284V105.64ZM158.406 107C157.62 107 157.04 106.78 156.666 106.34C156.306 105.9 156.126 105.333 156.126 104.64V98.04H152.686V96.68H155.246C155.593 96.68 155.833 96.6133 155.966 96.48C156.113 96.3333 156.186 96.0867 156.186 95.74V93.04H157.726V96.68H162.426V98.04H157.726V105.64H162.426V107H158.406ZM176.991 105.64H180.591V93.56H176.991V92.2H182.191V105.64H185.791V107H176.991V105.64ZM193.773 94.4C193.306 94.4 192.979 94.3067 192.793 94.12C192.606 93.92 192.513 93.6733 192.513 93.38V93.06C192.513 92.7667 192.606 92.5267 192.793 92.34C192.979 92.14 193.306 92.04 193.773 92.04C194.239 92.04 194.566 92.14 194.753 92.34C194.939 92.5267 195.033 92.7667 195.033 93.06V93.38C195.033 93.6733 194.939 93.92 194.753 94.12C194.566 94.3067 194.239 94.4 193.773 94.4ZM189.253 105.64H192.973V98.04H189.253V96.68H194.573V105.64H198.053V107H189.253V105.64ZM200.975 92.2H202.575V101.54H202.655L204.455 99.84L207.895 96.68H209.855L205.575 100.72L210.355 107H208.375L204.355 101.64L202.575 103.26V107H200.975V92.2ZM216.797 107.24C216.051 107.24 215.377 107.113 214.777 106.86C214.191 106.607 213.684 106.247 213.257 105.78C212.844 105.3 212.524 104.733 212.297 104.08C212.071 103.413 211.957 102.673 211.957 101.86C211.957 101.033 212.071 100.287 212.297 99.62C212.537 98.9533 212.864 98.3867 213.277 97.92C213.691 97.44 214.184 97.0733 214.757 96.82C215.344 96.5667 215.991 96.44 216.697 96.44C217.391 96.44 218.017 96.5667 218.577 96.82C219.151 97.0733 219.637 97.4267 220.037 97.88C220.437 98.32 220.744 98.8467 220.957 99.46C221.171 100.073 221.277 100.747 221.277 101.48V102.24H213.637V102.72C213.637 103.173 213.711 103.593 213.857 103.98C214.004 104.367 214.211 104.7 214.477 104.98C214.757 105.26 215.091 105.48 215.477 105.64C215.877 105.787 216.317 105.86 216.797 105.86C217.491 105.86 218.091 105.7 218.597 105.38C219.104 105.06 219.491 104.62 219.757 104.06L220.937 104.86C220.631 105.553 220.117 106.127 219.397 106.58C218.691 107.02 217.824 107.24 216.797 107.24ZM216.697 97.76C216.257 97.76 215.851 97.84 215.477 98C215.104 98.16 214.777 98.38 214.497 98.66C214.231 98.94 214.017 99.2733 213.857 99.66C213.711 100.033 213.637 100.447 213.637 100.9V101.04H219.557V100.82C219.557 100.367 219.484 99.9533 219.337 99.58C219.204 99.2067 219.011 98.8867 218.757 98.62C218.517 98.34 218.217 98.1267 217.857 97.98C217.511 97.8333 217.124 97.76 216.697 97.76ZM240.742 94.4C240.275 94.4 239.948 94.3067 239.762 94.12C239.575 93.92 239.482 93.6733 239.482 93.38V93.06C239.482 92.7667 239.575 92.5267 239.762 92.34C239.948 92.14 240.275 92.04 240.742 92.04C241.208 92.04 241.535 92.14 241.722 92.34C241.908 92.5267 242.002 92.7667 242.002 93.06V93.38C242.002 93.6733 241.908 93.92 241.722 94.12C241.535 94.3067 241.208 94.4 240.742 94.4ZM236.222 105.64H239.942V98.04H236.222V96.68H241.542V105.64H245.022V107H236.222V105.64ZM252.344 107C251.557 107 250.977 106.78 250.604 106.34C250.244 105.9 250.064 105.333 250.064 104.64V98.04H246.624V96.68H249.184C249.53 96.68 249.77 96.6133 249.904 96.48C250.05 96.3333 250.124 96.0867 250.124 95.74V93.04H251.664V96.68H256.364V98.04H251.664V105.64H256.364V107H252.344ZM263.106 92.2H265.686L263.386 97.74H262.046L263.106 92.2ZM275.448 107.24C274.368 107.24 273.435 107.06 272.648 106.7C271.875 106.327 271.215 105.833 270.668 105.22L271.748 104.28C272.241 104.8 272.781 105.2 273.368 105.48C273.955 105.76 274.661 105.9 275.488 105.9C276.288 105.9 276.941 105.76 277.448 105.48C277.968 105.187 278.228 104.733 278.228 104.12C278.228 103.853 278.175 103.633 278.068 103.46C277.975 103.273 277.841 103.127 277.668 103.02C277.495 102.913 277.301 102.833 277.088 102.78C276.875 102.713 276.648 102.66 276.408 102.62L274.788 102.38C274.428 102.327 274.035 102.253 273.608 102.16C273.195 102.067 272.815 101.92 272.468 101.72C272.121 101.507 271.828 101.227 271.588 100.88C271.361 100.533 271.248 100.08 271.248 99.52C271.248 99 271.348 98.5533 271.548 98.18C271.761 97.7933 272.055 97.4733 272.428 97.22C272.801 96.9533 273.241 96.76 273.748 96.64C274.255 96.5067 274.808 96.44 275.408 96.44C276.341 96.44 277.148 96.5867 277.828 96.88C278.521 97.1733 279.115 97.58 279.608 98.1L278.568 99.08C278.448 98.9333 278.295 98.7867 278.108 98.64C277.935 98.48 277.715 98.34 277.448 98.22C277.195 98.0867 276.895 97.98 276.548 97.9C276.201 97.82 275.801 97.78 275.348 97.78C274.535 97.78 273.908 97.92 273.468 98.2C273.041 98.48 272.828 98.8867 272.828 99.42C272.828 99.6867 272.875 99.9133 272.968 100.1C273.075 100.273 273.215 100.413 273.388 100.52C273.561 100.627 273.755 100.713 273.968 100.78C274.195 100.833 274.421 100.88 274.648 100.92L276.268 101.16C276.641 101.213 277.035 101.287 277.448 101.38C277.861 101.473 278.241 101.627 278.588 101.84C278.935 102.04 279.221 102.313 279.448 102.66C279.688 103.007 279.808 103.46 279.808 104.02C279.808 105.047 279.408 105.84 278.608 106.4C277.821 106.96 276.768 107.24 275.448 107.24ZM302.713 107C302.086 107 301.639 106.84 301.373 106.52C301.106 106.2 300.939 105.8 300.873 105.32H300.773C300.546 105.92 300.179 106.393 299.673 106.74C299.179 107.073 298.513 107.24 297.673 107.24C296.593 107.24 295.733 106.96 295.093 106.4C294.453 105.84 294.132 105.073 294.132 104.1C294.132 103.14 294.479 102.4 295.173 101.88C295.879 101.36 297.013 101.1 298.573 101.1H300.773V100.08C300.773 99.32 300.559 98.7533 300.133 98.38C299.706 97.9933 299.099 97.8 298.313 97.8C297.619 97.8 297.053 97.94 296.613 98.22C296.173 98.4867 295.819 98.8533 295.553 99.32L294.473 98.52C294.606 98.2533 294.786 97.9933 295.013 97.74C295.239 97.4867 295.519 97.2667 295.853 97.08C296.186 96.88 296.566 96.7267 296.993 96.62C297.419 96.5 297.893 96.44 298.413 96.44C299.626 96.44 300.586 96.7467 301.293 97.36C302.013 97.9733 302.373 98.8267 302.373 99.92V105.6H303.813V107H302.713ZM297.952 105.9C298.366 105.9 298.739 105.853 299.073 105.76C299.419 105.653 299.719 105.52 299.973 105.36C300.226 105.187 300.419 104.987 300.553 104.76C300.699 104.52 300.773 104.267 300.773 104V102.3H298.573C297.613 102.3 296.913 102.433 296.473 102.7C296.033 102.967 295.813 103.353 295.813 103.86V104.28C295.813 104.813 295.999 105.22 296.373 105.5C296.759 105.767 297.286 105.9 297.952 105.9ZM318.197 96.68H319.797V98.36H319.877C320.544 97.08 321.604 96.44 323.057 96.44C324.324 96.44 325.31 96.9133 326.017 97.86C326.737 98.8067 327.097 100.133 327.097 101.84C327.097 103.547 326.737 104.873 326.017 105.82C325.31 106.767 324.324 107.24 323.057 107.24C321.604 107.24 320.544 106.6 319.877 105.32H319.797V111H318.197V96.68ZM322.437 105.82C323.37 105.82 324.09 105.54 324.597 104.98C325.117 104.407 325.377 103.653 325.377 102.72V100.96C325.377 100.027 325.117 99.28 324.597 98.72C324.09 98.1467 323.37 97.86 322.437 97.86C322.077 97.86 321.737 97.9067 321.417 98C321.097 98.0933 320.817 98.2333 320.577 98.42C320.337 98.5933 320.144 98.8133 319.997 99.08C319.864 99.3333 319.797 99.6333 319.797 99.98V103.7C319.797 104.047 319.864 104.353 319.997 104.62C320.144 104.873 320.337 105.093 320.577 105.28C320.817 105.453 321.097 105.587 321.417 105.68C321.737 105.773 322.077 105.82 322.437 105.82ZM329.639 105.64H333.239V93.56H329.639V92.2H334.839V105.64H338.439V107H329.639V105.64ZM349.681 107C349.055 107 348.608 106.84 348.341 106.52C348.075 106.2 347.908 105.8 347.841 105.32H347.741C347.515 105.92 347.148 106.393 346.641 106.74C346.148 107.073 345.481 107.24 344.641 107.24C343.561 107.24 342.701 106.96 342.061 106.4C341.421 105.84 341.101 105.073 341.101 104.1C341.101 103.14 341.448 102.4 342.141 101.88C342.848 101.36 343.981 101.1 345.541 101.1H347.741V100.08C347.741 99.32 347.528 98.7533 347.101 98.38C346.675 97.9933 346.068 97.8 345.281 97.8C344.588 97.8 344.021 97.94 343.581 98.22C343.141 98.4867 342.788 98.8533 342.521 99.32L341.441 98.52C341.575 98.2533 341.755 97.9933 341.981 97.74C342.208 97.4867 342.488 97.2667 342.821 97.08C343.155 96.88 343.535 96.7267 343.961 96.62C344.388 96.5 344.861 96.44 345.381 96.44C346.595 96.44 347.555 96.7467 348.261 97.36C348.981 97.9733 349.341 98.8267 349.341 99.92V105.6H350.781V107H349.681ZM344.921 105.9C345.335 105.9 345.708 105.853 346.041 105.76C346.388 105.653 346.688 105.52 346.941 105.36C347.195 105.187 347.388 104.987 347.521 104.76C347.668 104.52 347.741 104.267 347.741 104V102.3H345.541C344.581 102.3 343.881 102.433 343.441 102.7C343.001 102.967 342.781 103.353 342.781 103.86V104.28C342.781 104.813 342.968 105.22 343.341 105.5C343.728 105.767 344.255 105.9 344.921 105.9ZM362.743 108.18C362.743 109.22 362.31 109.987 361.443 110.48C360.577 110.987 359.277 111.24 357.543 111.24C355.877 111.24 354.677 111.02 353.943 110.58C353.223 110.14 352.863 109.507 352.863 108.68C352.863 108.12 353.01 107.687 353.303 107.38C353.597 107.073 354.01 106.847 354.543 106.7V106.46C354.25 106.313 354.023 106.127 353.863 105.9C353.703 105.673 353.623 105.387 353.623 105.04C353.623 104.507 353.797 104.107 354.143 103.84C354.503 103.573 354.95 103.373 355.483 103.24V103.16C354.843 102.88 354.343 102.467 353.983 101.92C353.637 101.373 353.463 100.733 353.463 100C353.463 99.48 353.557 99 353.743 98.56C353.93 98.12 354.197 97.7467 354.543 97.44C354.903 97.12 355.33 96.8733 355.823 96.7C356.317 96.5267 356.863 96.44 357.463 96.44C358.237 96.44 358.917 96.58 359.503 96.86V96.68C359.503 96.28 359.597 95.9467 359.783 95.68C359.97 95.4133 360.29 95.28 360.743 95.28H362.643V96.68H360.323V97.38C360.697 97.7 360.983 98.08 361.183 98.52C361.383 98.96 361.483 99.4533 361.483 100C361.483 100.52 361.383 101 361.183 101.44C360.997 101.88 360.73 102.26 360.383 102.58C360.037 102.887 359.61 103.127 359.103 103.3C358.61 103.473 358.063 103.56 357.463 103.56C357.29 103.56 357.123 103.553 356.963 103.54C356.803 103.527 356.643 103.507 356.483 103.48C356.323 103.507 356.157 103.553 355.983 103.62C355.81 103.673 355.65 103.753 355.503 103.86C355.357 103.953 355.237 104.067 355.143 104.2C355.05 104.333 355.003 104.487 355.003 104.66C355.003 104.967 355.157 105.173 355.463 105.28C355.77 105.373 356.17 105.42 356.663 105.42H358.943C360.277 105.42 361.243 105.673 361.843 106.18C362.443 106.673 362.743 107.34 362.743 108.18ZM361.243 108.26C361.243 107.847 361.077 107.513 360.743 107.26C360.41 107.02 359.83 106.9 359.003 106.9H355.423C354.73 107.18 354.383 107.647 354.383 108.3C354.383 108.753 354.563 109.14 354.923 109.46C355.283 109.793 355.883 109.96 356.723 109.96H358.283C359.217 109.96 359.943 109.813 360.463 109.52C360.983 109.24 361.243 108.82 361.243 108.26ZM357.463 102.32C358.263 102.32 358.85 102.133 359.223 101.76C359.61 101.387 359.803 100.893 359.803 100.28V99.7C359.803 99.0867 359.61 98.6 359.223 98.24C358.85 97.8667 358.263 97.68 357.463 97.68C356.663 97.68 356.077 97.8667 355.703 98.24C355.33 98.6 355.143 99.0867 355.143 99.7V100.28C355.143 100.893 355.33 101.387 355.703 101.76C356.077 102.133 356.663 102.32 357.463 102.32ZM371.706 105.32H371.626C371.519 105.573 371.386 105.82 371.226 106.06C371.066 106.287 370.866 106.487 370.626 106.66C370.399 106.833 370.126 106.973 369.806 107.08C369.486 107.187 369.112 107.24 368.686 107.24C367.606 107.24 366.739 106.9 366.086 106.22C365.432 105.527 365.106 104.553 365.106 103.3V96.68H366.706V103.02C366.706 103.967 366.912 104.673 367.326 105.14C367.739 105.593 368.346 105.82 369.146 105.82C369.466 105.82 369.779 105.78 370.086 105.7C370.392 105.62 370.666 105.5 370.906 105.34C371.146 105.18 371.339 104.98 371.486 104.74C371.632 104.487 371.706 104.187 371.706 103.84V96.68H373.306V107H371.706V105.32ZM381.188 107.24C380.441 107.24 379.768 107.113 379.168 106.86C378.581 106.607 378.074 106.247 377.648 105.78C377.234 105.3 376.914 104.733 376.688 104.08C376.461 103.413 376.348 102.673 376.348 101.86C376.348 101.033 376.461 100.287 376.688 99.62C376.928 98.9533 377.254 98.3867 377.668 97.92C378.081 97.44 378.574 97.0733 379.148 96.82C379.734 96.5667 380.381 96.44 381.088 96.44C381.781 96.44 382.408 96.5667 382.968 96.82C383.541 97.0733 384.028 97.4267 384.428 97.88C384.828 98.32 385.134 98.8467 385.348 99.46C385.561 100.073 385.668 100.747 385.668 101.48V102.24H378.028V102.72C378.028 103.173 378.101 103.593 378.248 103.98C378.394 104.367 378.601 104.7 378.868 104.98C379.148 105.26 379.481 105.48 379.868 105.64C380.268 105.787 380.708 105.86 381.188 105.86C381.881 105.86 382.481 105.7 382.988 105.38C383.494 105.06 383.881 104.62 384.148 104.06L385.328 104.86C385.021 105.553 384.508 106.127 383.788 106.58C383.081 107.02 382.214 107.24 381.188 107.24ZM381.088 97.76C380.648 97.76 380.241 97.84 379.868 98C379.494 98.16 379.168 98.38 378.888 98.66C378.621 98.94 378.408 99.2733 378.248 99.66C378.101 100.033 378.028 100.447 378.028 100.9V101.04H383.948V100.82C383.948 100.367 383.874 99.9533 383.728 99.58C383.594 99.2067 383.401 98.8867 383.148 98.62C382.908 98.34 382.608 98.1267 382.248 97.98C381.901 97.8333 381.514 97.76 381.088 97.76ZM392.75 107.18C392.203 107.18 391.817 107.067 391.59 106.84C391.377 106.613 391.27 106.327 391.27 105.98V105.62C391.27 105.273 391.377 104.987 391.59 104.76C391.817 104.533 392.203 104.42 392.75 104.42C393.297 104.42 393.677 104.533 393.89 104.76C394.117 104.987 394.23 105.273 394.23 105.62V105.98C394.23 106.327 394.117 106.613 393.89 106.84C393.677 107.067 393.297 107.18 392.75 107.18Z" fill="#A3FFF6"/>
</svg>
